<?xml version="1.0" encoding="utf-8"?>
<!-- Generator: Adobe Illustrator 21.0.0, SVG Export Plug-In . SVG Version: 6.00 Build 0)  -->
<svg version="1.1" id="Layer_1" xmlns="http://www.w3.org/2000/svg" xmlns:xlink="http://www.w3.org/1999/xlink" x="0px" y="0px"
	 viewBox="0 0 24 24" style="enable-background:new 0 0 24 24;" xml:space="preserve">
<style type="text/css">
	.st0{fill:#343440;}
</style>
<g>
	<path class="st0" d="M19.4,2.4l2.3,2.3c0.5,0.5,0.5,1.2,0,1.7l-13,12.9c-0.1,0.1-0.2,0.1-0.3,0l-3.7-3.7c-0.1-0.1-0.1-0.2,0-0.3
		l13-12.9C18.1,1.9,18.9,1.9,19.4,2.4z"/>
	<path class="st0" d="M2.3,22l4.6-1.2c0.2,0,0.2-0.2,0.1-0.4L3.5,17c-0.1-0.1-0.3-0.1-0.4,0.1L2,21.7C2,21.9,2.1,22,2.3,22z"/>
</g>
</svg>
