<svg width="40" height="41" viewBox="0 0 40 41" fill="none" xmlns="http://www.w3.org/2000/svg">
<g clip-path="url(#clip0_3790_4036)">
<path d="M20 40.4346C31.0457 40.4346 40 31.4803 40 20.4346C40 9.38888 31.0457 0.43457 20 0.43457C8.95431 0.43457 0 9.38888 0 20.4346C0 31.4803 8.95431 40.4346 20 40.4346Z" fill="#3B5998"/>
<path d="M24.5973 20.4135H21.6312V31.2799H17.1373V20.4135H15V16.5946H17.1373V14.1234C17.1373 12.3561 17.9768 9.58887 21.6712 9.58887L25 9.60279V13.3097H22.5847C22.1886 13.3097 21.6315 13.5076 21.6315 14.3506V16.5982H24.9899L24.5973 20.4135Z" fill="white"/>
</g>
<defs>
<clipPath id="clip0_3790_4036">
<rect width="40" height="40" fill="white" transform="translate(0 0.43457)"/>
</clipPath>
</defs>
</svg>
