<svg fill="none" height="41" viewBox="0 0 40 41" width="40" xmlns="http://www.w3.org/2000/svg" xmlns:xlink="http://www.w3.org/1999/xlink"><clipPath id="a"><path d="m0 .43457h40v40h-40z"/></clipPath><g clip-path="url(#a)"><path d="m20 40.4346c11.0457 0 20-8.9543 20-20 0-11.04572-8.9543-20.00003-20-20.00003-11.04569 0-20 8.95431-20 20.00003 0 11.0457 8.95431 20 20 20z" fill="#3b5998"/><path d="m24.5973 20.4135h-2.9661v10.8664h-4.4939v-10.8664h-2.1373v-3.8189h2.1373v-2.4712c0-1.7673.8395-4.53453 4.5339-4.53453l3.3288.01392v3.70691h-2.4153c-.3961 0-.9532.1979-.9532 1.0409v2.2476h3.3584z" fill="#fff"/></g></svg>