<svg fill="none" height="41" viewBox="0 0 40 41" width="40" xmlns="http://www.w3.org/2000/svg" xmlns:xlink="http://www.w3.org/1999/xlink"><clipPath id="a"><path d="m0 .43457h40v40h-40z"/></clipPath><g clip-path="url(#a)"><path d="m20 40.4341c11.0457 0 20-8.9543 20-20 0-11.04571-8.9543-20.000018-20-20.000018-11.04569 0-20 8.954308-20 20.000018 0 11.0457 8.95431 20 20 20z" fill="#007ab9"/><path d="m31 21.0825v7.3521h-4.2876v-6.8594c0-1.7223-.619-2.8984-2.1714-2.8984-1.1847 0-1.8885.7918-2.1993 1.5586-.1129.274-.142.6545-.142 1.0388v7.1601h-4.2879s.0576-11.6175 0-12.82h4.2882v1.8167c-.0086.0143-.0207.0283-.0284.0419h.0284v-.0419c.5698-.8717 1.586-2.1178 3.8643-2.1178 2.8208 0 4.9357 1.8323 4.9357 5.7693zm-17.5737-11.64793c-1.4667 0-2.4263.95713-2.4263 2.21473 0 1.2308.9318 2.2156 2.37 2.2156h.0278c1.4955 0 2.4254-.9848 2.4254-2.2156-.0285-1.2576-.9299-2.21473-2.3969-2.21473zm-2.1715 19.00003h4.2864v-12.8203h-4.2864z" fill="#f1f2f2"/></g></svg>