<svg fill="none" height="24" viewBox="0 0 24 24" width="24" xmlns="http://www.w3.org/2000/svg"><g fill="#000"><path d="m9.5387 11.5605c.4825 0 .9126.0908 1.2832.2793.3684.1842.6601.4371.8672.7588.2064.3209.3103.6766.3105 1.0625l-.0058.1592c-.0266.3632-.1542.6808-.3867.9453l.0009.001c-.1344.1541-.2915.2783-.4677.376.2681.1039.4951.258.6767.4629l.1045.1269c.2256.3051.335.6694.333 1.083l-.0058.1573c-.0267.3635-.1465.6963-.3604.9931l-.001-.001c-.2399.3339-.5683.5927-.9785.7774-.4101.1856-.8756.2754-1.39061.2754-.50556-.0001-.96325-.0863-1.36817-.2647-.40137-.1779-.72604-.4296-.96582-.7558-.12896-.1756-.22654-.3666-.29101-.5723-.06536-.2087-.00503-.4084.12012-.5488.12254-.1373.30742-.2206.5039-.2207h.27246c.19185 0 .3528.0825.47852.1836.12423.1.22564.2276.30566.3418.00795.0113.01652.0231.02539.0341.08797.1074.20918.1956.36817.2608.1581.0647.33994.0996.54785.0996.22264 0 .41222-.0389.57224-.1104.1604-.0738.2789-.1728.3633-.2939.0819-.1177.1239-.2542.1221-.417v-.0039c.0018-.1699-.0409-.3126-.125-.4346-.0636-.0921-.1512-.1731-.2666-.2402l-.125-.0625c-.17425-.0757-.39425-.1172-.66506-.1172h-.12793c-.37492-.0004-.67952-.3047-.67969-.6797 0-.3751.30467-.6793.67969-.6797h.12793c.216 0 .39555-.0374.54296-.1054l.00098-.001c.15132-.0691.26432-.1633.34472-.2803.0774-.1151.1171-.25.1152-.4111v-.0039c.0019-.1623-.0343-.2925-.1005-.3985l-.002-.0029c-.0664-.1106-.1609-.1981-.29-.2627l-.001-.001c-.12546-.0635-.28032-.0986-.46974-.0986-.18518.0001-.35292.0331-.50488.0977-.15028.0639-.26674.153-.35352.2646l-.00097.001c-.00811.0103-.01616.0207-.02344.0312-.08002.116-.18177.2483-.30664.3516-.12619.1043-.28868.1894-.48438.1894h-.20215c-.19492-.0001-.37837-.082-.50097-.2177-.12535-.1389-.18795-.3367-.125-.5449.06197-.2048.15808-.3945.28515-.5684.2363-.3224.54986-.5719.93555-.7481.38716-.179.81804-.2665 1.28809-.2666zm5.9619.0938c.3863.0003.6992.3138.6992.7002v5.8691c0 .3864-.3129.6999-.6992.7002h-.2451c-.3864-.0002-.6992-.3137-.6992-.7002v-4.8193l-.5996.3838c-.4532.2895-1.0479-.0364-1.0479-.5742 0-.2318.1185-.448.3135-.5733l1.3623-.875c.1128-.0724.2448-.1113.3789-.1113zm.1006 7.0596.0713-.0205c.0048-.0018.009-.005.0137-.0069-.0274.0111-.0555.0213-.085.0274zm.3984-6.3594v5.8691c0 .065-.0135.1267-.0361.1836.0106-.0268.0205-.0542.0264-.083l.0107-.1006v-5.8691c0-.0341-.0042-.0674-.0107-.0996.0065.0322.0097.0655.0097.0996zm-8.93356 4.9111c.00111.0325.007.0659.01758.0996.01341.0428.02906.0847.0459.126l-.04493-.126c-.01057-.0337-.01722-.0671-.01855-.0996zm3.06936-1.4365h.001c-.0481-.0209-.0987-.0388-.15141-.0547.05241.0159.10261.0339.15041.0547zm-.37307-.1055c-.05193-.0083-.10563-.0149-.16113-.0195.05552.0046.10921.0112.16113.0195zm-.5957-.0381.09668.0098h.00097c-.06439 0-.12554-.0141-.18164-.0371.02705.0111.05473.0213.08399.0273zm-.38282-.4697.00977.0967c.00582.0284.01479.0557.02539.082-.02224-.0552-.03414-.1155-.03418-.1787 0-.0361.00413-.0716.01172-.1054-.00765.0339-.0127.0691-.0127.1054zm1.66019-.9531c-.0513.0746-.112.1412-.1826.1992.0709-.0581.1322-.1244.1835-.1992zm-3.22269-1.0606-.01562.0987c-.00072.0285.00294.0562.00879.083-.01243-.057-.01132-.1183.00781-.1817.00407-.0134.00928-.0267.01367-.04-.00444.0134-.01054.0265-.01465.04z"/><path d="m17 1.25c.4142 0 .75.33579.75.75v1.25h2.25c1.5188 0 2.75 1.23122 2.75 2.75v14c0 1.5188-1.2312 2.75-2.75 2.75h-16c-1.51878 0-2.75-1.2312-2.75-2.75v-14c0-1.51878 1.23122-2.75 2.75-2.75h2.25v-1.25c0-.41421.33579-.75.75-.75s.75.33579.75.75v1.25h8.5v-1.25c0-.41421.3358-.75.75-.75zm-14.25 18.75c0 .6904.55964 1.25 1.25 1.25h16c.6904 0 1.25-.5596 1.25-1.25v-10.25h-18.5zm1.25-15.25c-.69036 0-1.25.55964-1.25 1.25v2.25h18.5v-2.25c0-.69036-.5596-1.25-1.25-1.25z"/></g></svg>