<svg fill="none" height="23" viewBox="0 0 23 23" width="23" xmlns="http://www.w3.org/2000/svg"><path d="m5.7513 17.2503-2.20416 2.2042c-.30348.3035-.65103.3715-1.04267.2041s-.58714-.467-.5865-.8989v-14.92604c0-.52708.18783-.97814.5635-1.35317s.82672-.56286 1.35317-.5635h15.33336c.5271 0 .9784.18784 1.3541.5635.3757.37567.5632.82672.5625 1.35317v11.50004c0 .527-.1875.9784-.5625 1.3541s-.8264.5632-1.3541.5625zm-.81458-1.9166h14.23128v-11.50004h-15.33336v12.57814zm1.77292-1.6185h5.74996c.2716 0 .4993-.092.6833-.276s.2757-.4114.2751-.6823c-.0007-.2709-.0927-.4984-.276-.6824-.1834-.184-.4108-.276-.6824-.276h-5.74996c-.27153 0-.49898.092-.68234.276s-.27536.4115-.276.6824.09136.4986.276.6833c.18464.1846.41209.2763.68234.275zm0-3.1732h9.58336c.2715 0 .4993-.092.6833-.276s.2756-.41145.275-.68234-.0926-.49833-.276-.68233-.4108-.276-.6823-.276h-9.58336c-.27153 0-.49898.092-.68234.276s-.27536.41144-.276.68233.09136.49864.276.68334c.18464.1846.41209.2763.68234.275zm0-3.12485h9.58336c.2715 0 .4993-.092.6833-.276s.2756-.41144.275-.68233-.0926-.49833-.276-.68233-.4108-.276-.6823-.276h-9.58336c-.27153 0-.49898.092-.68234.276s-.27536.41144-.276.68233.09136.49865.276.68329.41209.27632.68234.27504z" fill="#000"/></svg>