<svg fill="none" height="24" viewBox="0 0 24 24" width="24" xmlns="http://www.w3.org/2000/svg"><path d="m12 2c5.5229 0 10.0008 4.47712 10.001 10 0 5.523-4.478 10.001-10.001 10.001-5.52283-.0003-10-4.4781-10-10.001.0002-5.52272 4.4773-9.99974 10-10zm0 1.5c-4.69428.00026-8.4998 3.80571-8.5 8.5 0 4.6945 3.8056 8.5007 8.5 8.501 4.6946 0 8.501-3.8064 8.501-8.501-.0002-4.69445-3.8065-8.5-8.501-8.5zm.001 3.125c.414.00026.75.33595.75.75v4.5684l3.4599 3.207c.3034.2815.3212.7558.0401 1.0596-.2814.3035-.7558.322-1.0596.041l-3.6357-3.3692c-.1941-.1798-.3047-.4327-.3047-.6972v-4.8096c0-.41421.3358-.75.75-.75z" fill="#000"/></svg>