<svg fill="none" height="35" viewBox="0 0 34 35" width="34" xmlns="http://www.w3.org/2000/svg" xmlns:xlink="http://www.w3.org/1999/xlink"><filter id="a" color-interpolation-filters="sRGB" filterUnits="userSpaceOnUse" height="33.75" width="33.75" x=".125" y=".5"><feFlood flood-opacity="0" result="BackgroundImageFix"/><feColorMatrix in="SourceAlpha" result="hardAlpha" type="matrix" values="0 0 0 0 0 0 0 0 0 0 0 0 0 0 0 0 0 0 127 0"/><feMorphology in="SourceAlpha" operator="dilate" radius="0.375" result="effect1_dropShadow_821_8286"/><feOffset dy=".375"/><feGaussianBlur stdDeviation=".75"/><feColorMatrix type="matrix" values="0 0 0 0 0 0 0 0 0 0 0 0 0 0 0 0 0 0 0.200691 0"/><feBlend in2="BackgroundImageFix" mode="normal" result="effect1_dropShadow_821_8286"/><feBlend in="SourceGraphic" in2="effect1_dropShadow_821_8286" mode="normal" result="shape"/></filter><g filter="url(#a)"><rect fill="#16d2aa" height="30" rx="3" width="30" x="2" y="2"/></g><path d="m19.375 6.8125 6 6v12c0 .5304-.2107 1.0391-.5858 1.4142s-.8838.5858-1.4142.5858h-12c-.5304 0-1.0391-.2107-1.41421-.5858-.37508-.3751-.58579-.8838-.58579-1.4142v-16c0-.53043.21071-1.03914.58579-1.41421.37511-.37508.88381-.58579 1.41421-.58579zm4 18v-11h-5v-5h-7v16zm-6-1-4-4h2.5v-3h3v3h2.5z" fill="#fff"/></svg>