<svg height="32" viewBox="0 0 32 32" width="32" xmlns="http://www.w3.org/2000/svg"><path d="m16 0c-3.164 0-6.259.94-8.89 2.698s-4.682 4.256-5.893 7.18c-1.211 2.924-1.526 6.141-.909 9.245s2.14 5.955 4.378 8.193 5.089 3.76 8.193 4.378 6.321.302 9.245-.909 5.422-3.262 7.18-5.893 2.698-5.726 2.698-8.89c0-4.243-1.687-8.312-4.687-11.312s-7.069-4.687-11.312-4.687zm0 1.333c2.901 0 5.736.862 8.148 2.474s4.291 3.901 5.401 6.581 1.399 5.629.833 8.474-1.962 5.459-4.013 7.51-4.665 3.447-7.51 4.013-5.794.277-8.474-.833-4.969-2.992-6.581-5.404-2.471-5.248-2.471-8.148c0-3.89 1.544-7.619 4.294-10.37s6.482-4.297 10.372-4.297zm-.843 9.985.117 9.523h1.523l.128-9.523zm.929 11.455c-.328 0-.577.095-.747.284-.164.182-.247.409-.247.682s.083.503.247.685c.17.176.419.263.747.263s.577-.087.747-.263c.17-.182.252-.412.252-.685s-.082-.5-.252-.682c-.17-.188-.419-.284-.747-.284z"/></svg>