<svg fill="none" height="24" viewBox="0 0 24 24" width="24" xmlns="http://www.w3.org/2000/svg"><path d="m8.79395 3c.46398.0001.91018.1846 1.23825.5127l1.2588 1.25976c.0468.04655.1108.07315.1768.07324h6.8896c.9663.00021 1.75.78364 1.75 1.75v1.47852h1.2383c1.1163 0 1.9471 1.03129 1.71 2.12208l-1.8721 8.6103c-.175.8044-.8868 1.378-1.71 1.378h-.1162v.0009h-16.14646c-.66869-.0002-1.21073-.5432-1.21094-1.2119v-14.2236c0-.9665.7835-1.75 1.75-1.75zm-5.04395 1.5c-.13807 0-.25.11193-.25.25v13.9355h.60352c-.02899-.2003-.02455-.41.02148-.622l1.87207-8.61135c.17494-.80415.88702-1.3777 1.70996-1.37793h10.90037v-1.47852c0-.13794-.1121-.24979-.25-.25h-6.8896c-.4638-.00009-.9093-.18484-1.2373-.51269l-1.2598-1.25977c-.04677-.04665-.1107-.07314-.17675-.07324zm3.95703 5.07422c-.11739.00023-.21919.08251-.24414.19726l-1.87207 8.61032c-.03368.1557.08584.3026.24512.3028h13.63766c.1175 0 .219-.0817.2442-.1963l1.872-8.61135c.0337-.15571-.0847-.30273-.2441-.30273z" fill="#000"/></svg>