<svg fill="none" height="24" viewBox="0 0 24 24" width="24" xmlns="http://www.w3.org/2000/svg"><path d="m11.8639 3.07382c.2098-.08787.4437-.09728.6582-.02832l.0908.03418 8.8594 3.8877c.7429.32594.7618 1.37298.0313 1.72558l-2.0508.98926v3.94338c0 .0096-.0009.0196-.001.0293v6.3262c-.0003.4139-.3359.75-.75.75-.414-.0001-.7497-.3361-.75-.75v-3.1397c-1.17.9574-3.1326 1.9774-6.1562 1.9775-3.69009 0-5.62483-1.5195-6.52641-2.622-.57061-.6978-.69821-1.5595-.69824-2.2793v-4.28811l-2.01856-.92969c-.7507-.34601-.73204-1.41973.03028-1.73926zm-5.79295 10.84378c.00003.577.109 1.0239.35937 1.3301.63426.7755 2.15237 2.0712 5.36528 2.0712 3.0416-.0001 4.752-1.1623 5.583-1.9716.3881-.3785.5685-.9696.5732-1.6924v-3.2324c0-.0056.0009-.0111.001-.0166l-5.3086 2.5625c-.2555.1232-.553.1264-.8106.0078l-5.76265-2.6553zm-1.75586-6.05667 7.91011 3.64357 4.375-2.11232-4.4033-1.86328c-.3813-.16137-.5596-.60103-.3984-.98242.1614-.38143.601-.55972.9824-.39844l5.6182 2.37598 1.3769-.66406-7.5508-3.3125z" fill="#000"/></svg>