<svg fill="none" viewBox="0 0 18 12" xmlns="http://www.w3.org/2000/svg"><path d="m12.6 6.85714c5.4 0 5.4 3.42856 5.4 3.42856v1.7143h-5.4v-1.7143s0-1.44856-1.035-2.74284c-.153-.19715-.342-.38572-.54-.56572.468-.06857.981-.12 1.575-.12zm-7.2 1.71429c3.15 0 3.546 1.33714 3.6 1.71427h-7.2c.054-.37713.45-1.71427 3.6-1.71427zm0-1.71429c-5.4 0-5.4 3.42856-5.4 3.42856v1.7143h10.8v-1.7143s0-3.42856-5.4-3.42856zm0-5.14285c.495 0 .9.38571.9.85714s-.405.85714-.9.85714-.9-.38571-.9-.85714.405-.85714.9-.85714zm0-1.71429c-1.494 0-2.7 1.14857-2.7 2.57143s1.206 2.57143 2.7 2.57143 2.7-1.14857 2.7-2.57143-1.206-2.57143-2.7-2.57143zm7.2 0c-1.494 0-2.7 1.14857-2.7 2.57143s1.206 2.57143 2.7 2.57143 2.7-1.14857 2.7-2.57143-1.206-2.57143-2.7-2.57143z" fill="#666f7d"/></svg>