<svg fill="none" height="24" viewBox="0 0 24 24" width="24" xmlns="http://www.w3.org/2000/svg"><g stroke="#000"><path d="m17.0388 1c1.1733.34218 3.4687 1.73871 3.2639 4.58738" stroke-linecap="round"/><path d="m15.728 2.96603c.8604.22813 2.5437 1.15915 2.3935 3.05826" stroke-linecap="round"/><path d="m.939697 16.2913c-.016777 1.1967.629633 3.7458 3.349503 4.3688" stroke-linecap="round"/><path d="m2.93628 15.4913c-.02616.884.39766 2.7587 2.30218 3.1862" stroke-linecap="round"/><path d="m21.6533 17.8459c0 1.3231-1.1735 3.0893-1.7603 3.8071-.9014.8478-2.7129 1.5031-3.6453 1.7667-.1052.0298-.2139.0489-.323.0571-3.2236.2418-4.9081-1.4306-7.50454-4.0083-2.11226-2.097-4.50533-5.6378-5.43783-7.1461-.27241-.4681-.65379-1.4854 0-1.8099.6538-.3246 1.19444.0312 1.38303.2496.74391.8946 2.45803 2.7898 3.36329 3.2142.90525.4244.60769-.3433.34575-.7801l-3.58331-4.61852c-.29337-.46809-.72923-1.55405-.12573-2.1532.60351-.59915 1.38303-.12483 1.69736.18723 1.24682 1.43548 3.84734 4.39379 4.27478 4.74329.3045.2489.3613.0695.3385-.1597-.0186-.1868-.1063-.3578-.2062-.5167l-3.2943-5.23869c-.07111-.11308-.13253-.23229-.17126-.36013-.18986-.62674-.29758-1.65322.47295-1.90072.85496-.27461 1.63449.55131 1.91738.99859 1.17353 1.87236 3.59593 5.6982 3.89763 6.02275.1009.1085.1742.1503.2266.1512.2206.0038.0764-.38021-.0074-.58435l-.2192-.53424-2.3574-5.05536c-.1677-.42648-.3144-1.43548.44-2.05959.7544-.62412 1.5926.09361 1.9174.5305l3.3319 5.92912c.7543 1.34185 2.2757 3.72602 2.326 2.52772.0628-1.49793.9429-3.6199 2.2631-4.05678s1.383.49929 1.2259.87376c-.1572.37447-.7858 8.26952-.7858 9.92352z"/></g></svg>
