<svg width="24" height="24" viewBox="0 0 24 24" fill="none" xmlns="http://www.w3.org/2000/svg">
<path d="M16.665 3.75C18.1796 3.75 19.2734 4.18459 20.0459 4.97656C20.8199 5.76986 21.25 6.90589 21.25 8.48438C21.2499 9.94892 20.5295 11.531 18.9014 13.2402L12 20.2178L5.07812 13.207L5.05371 13.1826L5.02734 13.1602L4.94043 13.0791L4.78809 12.9199C4.68472 12.8081 4.49723 12.5777 4.21484 12.207C3.95141 11.8612 3.71679 11.5081 3.51074 11.1475C3.36802 10.8977 3.23079 10.5984 3.10254 10.2461L2.97754 9.87598C2.82322 9.38647 2.75001 8.92327 2.75 8.48438C2.75 6.90602 3.1801 5.77006 3.9541 4.97656C4.72646 4.1847 5.82053 3.75 7.33496 3.75C7.70363 3.75002 8.09068 3.81713 8.49902 3.95996C8.9164 4.10615 9.30239 4.3024 9.65918 4.54883H9.66016C10.0584 4.82386 10.3937 5.07663 10.6689 5.30762V5.30859C10.9452 5.54076 11.2081 5.78765 11.457 6.04883L12 6.61816L12.543 6.04883C12.7916 5.78779 13.0537 5.53985 13.3301 5.30762C13.6058 5.07629 13.9416 4.82363 14.3398 4.54883H14.3408C14.6081 4.36411 14.892 4.20748 15.1934 4.0791L15.501 3.95996C15.9092 3.81712 16.2963 3.75 16.665 3.75Z" stroke="black" stroke-width="1.5"/>
</svg>
