<svg fill="none" height="24" viewBox="0 0 24 24" width="24" xmlns="http://www.w3.org/2000/svg"><path d="m11.527 4.16944c.2762-.22598.6739-.22585.9502 0l9.252 7.56936c.2453.2007.338.5344.2314.833-.1066.2984-.3892.4979-.7061.498h-1.8388v6.8194c0 .4142-.3358.75-.75.75h-4.4424c-.4141-.0002-.75-.3359-.75-.75v-4.8272h-2.9424v4.8272c0 .4141-.3359.7498-.74999.75h-4.44238c-.41406-.0002-.75-.3359-.75-.75v-6.8194h-1.83887c-.31681-.0001-.59947-.1997-.70605-.498-.10645-.2985-.01374-.6323.23144-.833zm-6.67675 7.40036h.48828c.41399.0003.74996.336.75.75v6.8194h2.94238v-4.8272c.00005-.4141.33597-.7498.75-.75h4.44239c.4142 0 .75.3359.75.75v4.8272h2.9424v-6.8194c0-.414.336-.7497.75-.75h.4873l-7.1514-5.85154z" fill="#000"/></svg>