<svg fill="none" height="23" viewBox="0 0 23 23" width="23" xmlns="http://www.w3.org/2000/svg"><g fill="#000"><path d="m14.8298 11.5963c-2.8556 0-5.17023 2.3288-5.17023 5.2019 0 2.873 2.31463 5.2018 5.17023 5.2018s5.1702-2.3288 5.1702-5.2018c0-2.8731-2.3146-5.2019-5.1702-5.2019zm2.5731 7.7907c-.6869.6912-1.6013 1.0717-2.5731 1.0717s-1.8862-.3805-2.5732-1.0717c-.6869-.6911-1.0651-1.6111-1.0651-2.5888 0-.9778.3782-1.8977 1.0651-2.5889.687-.6912 1.6014-1.0717 2.5732-1.0717s1.8862.3805 2.5731 1.0717c.687.6912 1.0652 1.6111 1.0652 2.5889 0 .9777-.3782 1.8977-1.0652 2.5888zm-8.1263.3011h-5.5532v-16.95416h13.4043v8.28436c0 .106.0861.1927.1914.1927h1.3405c.1053 0 .1915-.0867.1915-.1927v-9.24766c0-.42626-.3423-.77064-.766-.77064h-15.31914c-.42367 0-.76596.34438-.76596.77064v18.88076c0 .4262.34229.7706.76596.7706h6.51064c.10532 0 .19149-.0867.19149-.1926v-1.3487c0-.1059-.08617-.1926-.19149-.1926z"/><path d="m15.9512 14.9893c.2821-.303.7563-.32 1.0595-.0381.3032.2821.3201.7563.0381 1.0595l-2.2373 2.4043c-.1728.1898-.4076.3051-.6553.3301-.2476.0249-.5001-.0403-.706-.1885l-.8887-.6396c-.3358-.2421-.4117-.7108-.1699-1.0469.242-.3358.7108-.4126 1.0469-.1709l.5508.3965z"/><path d="m15.0833 9.99999h-9.16663c-.2585.00131-.47606-.08966-.65267-.27278s-.26461-.40901-.264-.67766c.00061-.26866.08861-.49423.264-.67672.17539-.18248.39295-.27373.65267-.27373h9.16663c.2598 0 .4773.09125.6527.27373.1754.18249.2634.40806.264.67672.0006.26865-.0871.49422-.2631.67671-.176.18248-.3938.27373-.6536.27373z"/><path d="m15.0833 6.90088h-9.16663c-.2585.00127-.47606-.08966-.65267-.27277-.17661-.18312-.26461-.40901-.264-.67767s.08861-.49423.264-.67671c.17539-.18249.39295-.27373.65267-.27373h9.16663c.2598 0 .4773.09124.6527.27373.1754.18248.2634.40805.264.67671s-.0871.49423-.2631.67672c-.176.18248-.3938.27372-.6536.27372z"/></g></svg>