<svg fill="none" height="24" viewBox="0 0 24 24" width="24" xmlns="http://www.w3.org/2000/svg"><path d="m8.79297 4.00195c.8476-.01816 1.73613.08307 2.47163.43848.337.16286.6407.37906.8887.65332.3-.28579.7028-.55269 1.251-.73828 1.2883-.43589 3.2472-.37904 6.3252.63281.3074.10132.5156.38914.5156.71289v.10254c1.0755.32261 1.8593 1.31945 1.8594 2.5v9.16309c-.0001 1.5187-1.2313 2.75-2.75 2.75h-14.6045c-1.51856-.0002-2.7499-1.2314-2.75-2.75v-9.16309c.00005-1.18073.78448-2.17754 1.86035-2.5v-.10254c.00003-.28804.16628-.55077.42578-.67578.96175-.46312 2.81112-.98699 4.50684-1.02344zm-4.93262 3.48438c-.2211.20295-.36032.49368-.36035.81738v9.16309c.0001.6901.55987 1.2498 1.25 1.25h14.6045c.6903 0 1.2499-.5597 1.25-1.25v-9.16309c0-.32328-.1389-.61349-.3594-.81641v9.8145c-.0001.2705-.1462.5204-.3818.6533-.236.1328-.5263.1276-.7578-.0127-1.1407-.692-3.6457-1.1553-6.6963.4912-.227.1223-.5012.1191-.7256-.0078-1.0479-.5939-2.48599-.9832-3.81153-1.0781-.6586-.0471-1.26273-.0197-1.75488.0781-.50478.1004-.82307.2604-.98828.418-.21699.2071-.53667.2652-.8125.1474-.27589-.118-.45595-.3894-.45606-.6894zm4.96485-1.98438c-1.24312.02672-2.60331.36609-3.46387.69532v9.87113c.15181-.0454.30745-.0824.46289-.1133.6557-.1304 1.39894-.1575 2.1543-.1035 1.09403.0782 2.27138.3349 3.32418.7461v-9.9434c-.0804-.41614-.3104-.6795-.6904-.86328-.4318-.20865-1.04985-.30486-1.7871-.28907zm9.9199.74707c-2.6368-.80421-4.0797-.73628-4.8594-.47265-.6694.22658-.9278.62544-1.083.96289v9.84964c2.3367-.9686 4.4332-.9273 5.9424-.4395z" fill="#000"/></svg>