<svg height="32" viewBox="0 0 32 32" width="32" xmlns="http://www.w3.org/2000/svg"><path d="m2.089 0c-.553 0-1.085.218-1.477.609s-.612.923-.612 1.477v27.826c0 .553.221 1.085.612 1.477s.923.612 1.477.612h27.826c.553 0 1.085-.221 1.477-.612s.609-.923.609-1.477v-27.826c0-.553-.218-1.085-.609-1.477s-.923-.609-1.477-.609zm0 1.279h27.826c.214 0 .419.086.57.237s.237.356.237.57v27.826c0 .214-.086.419-.237.57s-.357.237-.57.237h-3.872c-.081-1.386-.432-2.743-1.063-3.984-.716-1.41-1.752-2.632-3.026-3.568-.318-.242-.698-.391-1.096-.43s-.798.037-1.156.214c-1.144.583-2.409.885-3.693.885s-2.549-.302-3.693-.885c-.357-.173-.756-.244-1.151-.206s-.771.184-1.089.422c-1.279.948-2.318 2.184-3.031 3.607-.618 1.231-.962 2.575-1.044 3.945h-3.911c-.214 0-.419-.086-.57-.237s-.237-.356-.237-.57v-27.826c0-.214.086-.419.237-.57s.357-.237.57-.237zm13.562 5.935c-.352.017-.703.061-1.052.13-1.395.278-2.679.963-3.685 1.969s-1.691 2.287-1.969 3.682-.136 2.842.409 4.156 1.468 2.439 2.651 3.229 2.572 1.214 3.995 1.214h.003c.945 0 1.88-.188 2.753-.549s1.665-.892 2.333-1.56 1.199-1.461 1.56-2.333.547-1.808.547-2.753c0-1.423-.423-2.812-1.214-3.995s-1.912-2.107-3.227-2.651c-.986-.408-2.047-.591-3.104-.539zm.349 1.283h.003c1.565.003 3.064.626 4.172 1.732s1.735 2.604 1.74 4.169c.003 1.17-.341 2.315-.99 3.289s-1.571 1.735-2.651 2.185-2.269.568-3.417.341-2.203-.788-3.031-1.615-1.393-1.881-1.622-3.029c-.229-1.147-.114-2.338.333-3.419s1.204-2.006 2.177-2.656 2.116-.997 3.286-.997zm-4.74 15.508c.159-.02.321.004.466.07 1.326.675 2.793 1.029 4.281 1.029s2.955-.353 4.281-1.029c.148-.066.311-.09.471-.07s.311.084.438.185c1.036.761 1.893 1.742 2.51 2.87s.978 2.376 1.06 3.659h-17.51c.083-1.283.446-2.531 1.063-3.659s1.475-2.108 2.51-2.87c.123-.101.271-.165.43-.185z"/></svg>