<svg fill="none" height="24" viewBox="0 0 24 24" width="24" xmlns="http://www.w3.org/2000/svg"><path d="m7.59535 5.48242c1.97889.00035 3.61965 1.44438 3.92875 3.33594.6887-.56941 1.5727-.91103 2.5361-.91113 2.1993.00026 3.9823 1.78313 3.9824 3.98237-.0003 2.1992-1.7832 3.9822-3.9824 3.9825-.2549-.0001-.5045-.0255-.7461-.0713.0339.0609.0677.1235.0996.1875h2.2627c.747.0001 1.8136.2624 2.7158 1.0303.9273.7897 1.6179 2.0607 1.668 3.9433.0138.536-.4196.9714-.9473.9717h-10.10544c-.51275-.0002-.96618-.42-.94629-.9766l.02051-.33c.02862-.3424.08749-.7237.18066-1.1172h-5.31543c-.51283 0-.96608-.42-.94628-.9766l.0205-.3301c.06722-.8045.28537-1.8267.78321-2.709.58614-1.0386 1.59797-1.9296 3.1748-1.9296h3.63672c.25977 0 .56194.0336.88374.1093-.177-.3527-.3033-.7357-.3691-1.1386-.68861.5693-1.57184.9119-2.53515.9121-2.19931-.0002-3.98219-1.7832-3.98242-3.98246.00025-2.19927 1.78312-3.9823 3.98242-3.98242zm4.44435 12.00588c-.8975.0002-1.4725.4661-1.8682 1.167-.30599.5423-.48066 1.1952-.56052 1.7783h8.90822c-.1414-1.1567-.6063-1.8533-1.0996-2.2734-.5944-.5057-1.3015-.6718-1.7432-.6719zm-6.06056-2.4238c-.89772 0-1.47248.4658-1.86816 1.1669-.30609.5425-.48071 1.1952-.56055 1.7784h5.26758c.01619-.0302.03005-.062.04687-.0918.53424-.9466 1.42272-1.7687 2.76952-1.9073-.6389-.7188-1.4924-.946-2.01854-.9462zm8.08106-5.65727c-1.3709.00024-2.4823 1.11157-2.4824 2.48237.0003 1.3708 1.1116 2.4822 2.4824 2.4825 1.3707-.0003 2.4821-1.1117 2.4824-2.4825-.0001-1.3708-1.1116-2.48211-2.4824-2.48237zm-6.46485-2.42481c-1.37087.00012-2.48217 1.11158-2.48242 2.48242.00023 1.37086 1.11154 2.48226 2.48242 2.48246 1.37066-.0004 2.48215-1.1118 2.48245-2.48246-.0003-1.37068-1.1118-2.48203-2.48245-2.48242zm11.31345-3.98242c1.7853 0 3.2323 1.44718 3.2325 3.23242 0 1.78534-1.4471 3.23242-3.2325 3.23242-1.7852-.00016-3.2324-1.44718-3.2324-3.23242.0001-1.78513 1.4473-3.23225 3.2324-3.23242zm0 1.0166c-.3311.00023-.5995.26843-.5996.59961v1.0166h-1.0176c-.331.00033-.5994.26855-.5996.59961.0001.33113.2686.59928.5996.59961h1.0176v1.01758c.0003.331.2686.59938.5996.59961.331-.00026.5994-.26863.5996-.59961v-1.01758h1.0166l.1202-.01172c.2735-.05578.4794-.29784.4794-.58789-.0001-.28999-.2059-.53211-.4794-.58789l-.1202-.01172h-1.0166v-1.0166c0-.33116-.2685-.59935-.5996-.59961z" fill="#000"/></svg>