<svg fill="none" height="82" viewBox="0 0 82 82" width="82" xmlns="http://www.w3.org/2000/svg"><circle cx="41" cy="41" fill="#f2fbf9" r="41"/><path d="m52.668 49.6667v1.3333h-24v-1.3333l2.6666-2.6667v-8c0-4.1333 2.7067-7.7733 6.6667-8.9467 0-.1333 0-.2533 0-.3866 0-.7073.281-1.3856.7811-1.8857.5-.5 1.1783-.781 1.8856-.781.7072 0 1.3855.281 1.8856.781.5001.5001.781 1.1784.781 1.8857v.3866c3.96 1.1734 6.6667 4.8134 6.6667 8.9467v8zm-9.3334 2.6666c0 .7073-.2809 1.3856-.781 1.8857-.5001.5-1.1784.781-1.8856.781-.7073 0-1.3856-.281-1.8856-.781-.5001-.5001-.7811-1.1784-.7811-1.8857" fill="#16d2aa"/><g fill="#fedf85"><path d="m49.1055 30.4798 1.8933-1.8934c2.7867 2.7467 4.3333 6.5067 4.3333 10.4134h-2.6666c0-3.2-1.28-6.2667-3.56-8.52z"/><path d="m28.6667 38.9998h-2.6667c0-3.9067 1.5467-7.6667 4.3333-10.4134l1.8934 1.8934c-2.28 2.2533-3.56 5.32-3.56 8.52z"/></g></svg>