<svg fill="#1f1f1f" height="32" viewBox="0 -960 960 960" width="32" xmlns="http://www.w3.org/2000/svg"><path d="m479.79-96q-29.79 0-50.79-21.15t-21-50.85h144q0 30-21.21 51t-51 21zm-287.79-120v-72h48v-240q0-87 53.5-153t138.5-82v-53q0-20 14-34t34-14q20 0 34 14t14 34v53q32 6 60.5 20.5t51.5 34.5l-52 51q-22-19-49.59-29-27.59-10-58.37-10-70.04 0-119.04 49t-49 119v240h456v72zm483-222-51-51q11-11 16-24t5-27q0-14-5-26.5t-16-23.5l51-51q20 20 31 46t11 55q0 29-11 55.5t-31 46.5zm51 51q31-30 47-69.55 16-39.54 16-82.95 0-43.41-16-82.95-16-39.55-47-70.55l51-51q41 41 62.5 93.5t21.5 110q0 57.5-21.5 110.5t-62.5 94z"/></svg>