<svg fill="none" height="24" viewBox="0 0 24 24" width="24" xmlns="http://www.w3.org/2000/svg"><path d="m11.1195 2.47608c.4067-.63478 1.3541-.63476 1.7607 0l.0791.14649 2.3516 5.27734 5.748.60742c.9036.09541 1.2674 1.2158.5928 1.82417l-4.293 3.8692 1.1993 5.6543c.1882.8888-.7647 1.5808-1.5518 1.1269l-5.0068-2.8877-5.00589 2.8877c-.78701.4537-1.73993-.2382-1.55175-1.1269l1.19824-5.6553-4.29199-3.8682c-.67448-.60835-.31064-1.72868.59277-1.82417l5.74707-.60742 2.35355-5.27734zm-1.167 6.27246c-.15255.34226-.47601.57776-.84863.61719l-5.00098.52734 3.73535 3.36723c.27835.2508.40188.6314.32422.998l-1.04395 4.9199 4.35649-2.5127c.2841-.1638.6263-.1844.9248-.0615l.125.0615 4.3554 2.5127-1.0429-4.9199c-.0777-.3666.0458-.7472.3242-.998l3.7353-3.36723-5.0009-.52734c-.3726-.03947-.6961-.27497-.8487-.61719l-2.0478-4.59375z" fill="#000"/></svg>