<svg fill="none" height="24" viewBox="0 0 24 24" width="24" xmlns="http://www.w3.org/2000/svg"><path d="m21.0869 5c.0387.00002.0768.00233.1142.00684.2026-.02341.4136.03325.5791.17773.1953.17047.2802.41986.25.65918.004.03496.0069.07044.0069.10645v5.7998c0 .4141-.336.7498-.75.75-.4141-.0001-.75-.3359-.75-.75v-4.00195l-6.836 7.83205c-.3647.4175-1.0082.435-1.3955.0381l-2.70797-2.7754-6.29297 6.9121c-.27884.3062-.7533.3286-1.05957.0498-.3062-.2789-.32855-.7533-.0498-1.0596l6.68652-7.3428.07227-.0712c.34934-.3109.87656-.3203 1.23632-.0215l.0742.0683 2.6983 2.7657 6.6738-7.6436h-4.2031c-.4142 0-.75-.33579-.75-.75s.3358-.75.75-.75z" fill="#000"/></svg>