<svg fill="none" height="23" viewBox="0 0 29 23" width="29" xmlns="http://www.w3.org/2000/svg"><g stroke="#343440" stroke-width="2"><path d="m8.53776 5.74303c0 1.01947-.82644 1.84591-1.84591 1.84591-1.01946 0-1.8459-.82644-1.8459-1.84591 0-1.01946.82644-1.8459 1.8459-1.8459 1.01947 0 1.84591.82644 1.84591 1.8459z"/><path d="m15.1782 7.64025c0 1.01946-.8264 1.84591-1.8459 1.84591s-1.8459-.82645-1.8459-1.84591c0-1.01947.8264-1.84591 1.8459-1.84591s1.8459.82644 1.8459 1.84591z"/><path d="m8.53776 16.1781c0 1.0195-.82644 1.8459-1.84591 1.8459-1.01946 0-1.8459-.8264-1.8459-1.8459s.82644-1.8459 1.8459-1.8459c1.01947 0 1.84591.8264 1.84591 1.8459z"/></g><path clip-rule="evenodd" d="m10.3801 2.07881c-6.65718-.64915-8.35205 2.71792-8.3793 3.72606-.02427.89802.50093 1.49049 1.40794 2.36861.04079.03948.08292.07997.12613.12149.78776.75697 1.93458 1.85893 1.83511 3.54993l-.00686.1167-.03359.112c-.1877.6256-.56736 1.0388-.94823 1.339-.22378.1764-.52401.3641-.76807.5167-.10167.0635-.19359.121-.26619.169-.53897.3566-1.05208.7888-1.34511 1.8253.03194 1.0398.46535 2.4798 1.6568 3.5411 1.20948 1.0773 3.36789 1.9109 7.14787 1.2994 3.6312-.5874 5.5337-2.538 6.5035-4.7202.9844-2.2152 1.0228-4.7218.7427-6.36339-.06-.19943-.1053-.4355-.1432-.63313-.0021-.01101-.0042-.02191-.0063-.03267l-.0046-.02434c-.0501-.2607-.105-.54653-.1826-.86325-.1591-.64891-.4089-1.40392-.8658-2.16362-.8852-1.472-2.6448-3.12283-6.4702-3.88469zm-10.37856903 3.67202c.07038573-2.60427 3.25246903-6.394665 10.62456903-5.6574537l.047.0046947.0462.009094c4.3491.854275 6.6333 2.810855 7.845 4.825585.5933.98663.9053 1.9474 1.0943 2.71815.0899.367.1531.69624.2024.95298l.0064.0336c.0567.29487.084.42006.1033.47547l.0261.07501.0139.07819c.343 1.92605.3255 4.89305-.873 7.58995-1.226 2.7588-3.671 5.1801-8.0118 5.8823-4.19209.6782-7.0168-.1942-8.79743-1.7803-1.750387-1.5591-2.32846992-3.6655-2.32846992-5.1588v-.1253l.03089042-.1214c.4451325-1.7491 1.3793495-2.571 2.2127095-3.1223.18337-.1213.32654-.2098.44822-.285.17669-.1092.30806-.1904.45143-.3034.12528-.0988.19228-.1753.23219-.2492-.01966-.6372-.46337-1.1163-1.35784-1.98231-.01164-.01127-.02336-.02261-.03516-.03403-.83274-.80583-2.0311724-1.96553-1.98090915-3.82552z" fill="#343440" fill-rule="evenodd"/><path d="m10.862 17.2411c.8299-2.1187 2.7208-6.0272 4.6566-3.273-.7284-1.0363-1.2099-1.7214 2.5293-3.825l9.1899-4.41568-7.2637 7.15608c-3.2577 2.7888-3.7599 2.0743-4.4555 1.0846 1.9262 2.7405-2.1725 3.233-4.6566 3.273z" fill="#fff"/><path d="m15.5186 13.9681c-1.9358-2.7542-3.8267 1.1543-4.6566 3.273 2.4841-.04 6.5828-.5325 4.6566-3.273zm0 0c.6956.9897 1.1978 1.7042 4.4555-1.0846l7.2637-7.15608-9.1899 4.41568c-3.7392 2.1036-3.2577 2.7887-2.5293 3.825z" stroke="#343440" stroke-width="1.5"/></svg>