<svg height="20" viewBox="0 0 20 20" width="20" xmlns="http://www.w3.org/2000/svg"><g fill="#df3c1a" fill-rule="evenodd"><path d="m15.752 19.384h-11.632c-.4020633 0-.728-.3259367-.728-.728v-14.536c0-.4020633.3259367-.728.728-.728h11.632c.1923501-.00001187.3767078.07694224.5119663.21370364.1352585.13676141.2101709.32195816.2080337.51429636v14.536c.0021372.1923382-.0727752.377535-.2080337.5142964s-.3196162.2137155-.5119663.2137036zm-10.904-1.456h10.176v-13.08h-10.176z" fill-rule="nonzero"/><path d="m18.656 4.848h-17.44c-.4020633 0-.728-.3259367-.728-.728s.3259367-.728.728-.728h17.44c.4020633 0 .728.3259367.728.728s-.3259367.728-.728.728z"/><path d="m12.384 3.86517896c-.4020633 0-.728-.25246557-.728-.56389763v-1.68549622h-3.448v1.68549622c.02914012.21442995-.10213016.42296005-.33818651.53722797-.23605635.11426791-.53557063.11426791-.77162698 0-.23605635-.11426792-.36732663-.32279802-.33818651-.53722797v-2.24939385c-.00216482-.15006272.0738396-.29446862.21083817-.40058561.13699857-.106117.32342869-.16498885.51716183-.16331202h4.896c.4020633 0 .728.25246557.728.56389763v2.24939385c0 .31143206-.3259367.56389763-.728.56389763z"/><path d="m7.024 15.752c-.19235008.0000119-.37670778-.0769422-.51196632-.2137036-.13525853-.1367614-.2101709-.3219582-.20803368-.5142964v-7.272c-.02914012-.27683218.10213016-.54604756.33818651-.69356909s.53557063-.14752153.77162698 0 .36732663.41673691.33818651.69356909v7.272c0 .4020633-.3259367.728-.728.728z"/><path d="m9.936 15.752c-.4020633 0-.728-.3259367-.728-.728v-7.272c0-.4020633.3259367-.728.728-.728s.728.3259367.728.728v7.272c0 .4020633-.3259367.728-.728.728z"/><path d="m12.84 15.752c-.4020633 0-.728-.3259367-.728-.728v-7.272c0-.4020633.3259367-.728.728-.728s.728.3259367.728.728v7.272c0 .4020633-.3259367.728-.728.728z"/></g></svg>