<svg fill="none" height="22" viewBox="0 0 26 22" width="26" xmlns="http://www.w3.org/2000/svg"><g fill="#343440"><path clip-rule="evenodd" d="m3.20337 21.0969c0-.4987.40168-.903.89717-.903h12.11186c.4955 0 .8972.4043.8972.903 0 .4988-.4017.9031-.8972.9031h-12.11186c-.49549 0-.89717-.4043-.89717-.9031z" fill-rule="evenodd"/><path clip-rule="evenodd" d="m1.5269 15.6656c-.776977.7851-.780256 2.0612-.00732 2.8503l2.52825 2.581h2.79932l-3.92072-4.0026 13.99177-14.13778 6.1555 6.28405-11.7339 11.85633h2.8136l10.3198-10.4276c.777-.78507.7803-2.06119.0073-2.85027l-6.1555-6.28405c-.7729-.789074-2.0294-.792305-2.8064-.00721z" fill-rule="evenodd"/><path d="m7.90753 12.0101c-.38647-.3946-.38483-1.0326.00366-1.4252l8.55511-8.64438c.3884-.39254 1.0167-.39093 1.4031.00361l6.1556 6.28405c.3864.39454.3848 1.0326-.0037 1.42514l-8.5551 8.64438c-.3885.3926-1.0167.3909-1.4032-.0036z"/></g></svg>