<svg enable-background="new 0 0 410.837 410.837" viewBox="0 0 410.837 410.837" xmlns="http://www.w3.org/2000/svg"><path d="m370.005 130.931-106.112-106.112c-18.859-18.88-49.557-18.88-68.416 0-6.955 6.933-11.52 15.616-13.312 25.024-18.965-17.195-48.405-16.661-66.688 1.643-7.872 7.893-12.48 17.835-13.76 28.139-18.048-8.853-40.555-5.824-55.573 9.195-16.597 16.619-18.581 42.389-5.952 61.184-9.835 1.643-18.88 6.293-26.048 13.483-18.859 18.859-18.859 49.557 0 68.416l34.027 34.027v38.251c0 52.928 43.072 96 96 96h105.152c31.339 0 60.8-12.203 82.965-34.368l37.717-37.717c26.325-26.325 40.832-61.333 40.832-98.581s-14.506-72.259-40.832-98.584zm-15.082 182.08-37.717 37.717c-18.133 18.133-42.24 28.117-67.883 28.117h-105.152c-41.173 0-74.667-33.493-74.667-74.667v-16.917l24.448 24.469c4.16 4.16 10.923 4.16 15.083 0 2.069-2.091 3.115-4.821 3.115-7.552s-1.024-5.461-3.115-7.552l-79.808-79.808c-5.099-5.099-7.915-11.904-7.915-19.115s2.816-14.016 7.915-19.115c10.24-10.219 28.032-10.219 38.251 0l26.475 26.475c4.16 4.16 10.923 4.16 15.083 0 2.069-2.091 3.115-4.821 3.115-7.552s-1.024-5.461-3.115-7.552l-47.808-47.808c-10.539-10.539-10.539-27.712 0-38.251s27.712-10.539 38.251 0l47.808 47.829c4.16 4.16 10.923 4.16 15.083 0 2.091-2.091 3.115-4.821 3.115-7.552s-1.024-5.461-3.115-7.552l-31.808-31.808c-5.099-5.099-7.915-11.904-7.915-19.115s2.816-14.016 7.915-19.115c10.539-10.539 27.712-10.539 38.251 0l31.808 31.808c4.16 4.16 10.923 4.16 15.083 0 2.069-2.091 3.115-4.821 3.115-7.552s-1.024-5.461-3.115-7.552l-5.141-5.141c-10.539-10.539-10.539-27.712 0-38.251 10.24-10.219 28.032-10.219 38.251 0l106.112 106.112c22.293 22.293 34.581 51.968 34.581 83.499s-12.291 61.207-34.584 83.501z"/></svg>