<svg height="32" viewBox="0 0 32 32" width="32" xmlns="http://www.w3.org/2000/svg"><path d="m26.424 0c.254 0 .505.051.74.148s.448.242.628.422l3.638 3.638c.18.179.324.393.422.628s.149.486.149.74-.051.508-.149.742-.242.446-.422.625l-20.7 20.703c-.065.061-.151.094-.24.094s-.175-.032-.239-.094l-5.896-5.896c-.064-.064-.094-.151-.094-.24s.033-.175.094-.24l20.703-20.7c.179-.18.393-.324.628-.422s.486-.148.74-.148zm-24.164 23.966c.058.015.111.045.151.089l5.518 5.534c.043.042.074.096.089.154.018.058.012.119-.003.177-.017.058-.048.108-.094.148s-.097.069-.156.081l-7.346 1.844c-.057.013-.116.011-.172-.005s-.108-.045-.149-.086-.071-.093-.086-.148-.015-.115-.005-.172l1.844-7.362c.012-.059.04-.112.081-.156s.094-.077.151-.094.119-.018.177-.003z"/></svg>