<svg fill="none" height="34" viewBox="0 0 25 34" width="25" xmlns="http://www.w3.org/2000/svg"><rect height="22" rx="3" stroke="#343440" stroke-width="2" width="22" x="1" y="10.64"/><path d="m14.4361 20.64.8347-.5507c-.1785-.2705-.477-.4378-.801-.4487-.3239-.0109-.633.1358-.8294.3937zm-3.9271 5.1586-.83172.5553c.17944.2688.47772.4342.80072.4443.323.01.6309-.1367.8266-.3938zm9.2053 2.8414v1c.3679 0 .7062-.202.8805-.526.1744-.324.1568-.7176-.0458-1.0247zm-7.3084 0v-1c-.3687 0-.7076.203-.8816.5282-.174.3251-.155.7197.0496 1.0265zm.0001.0001v1c.3688 0 .7077-.203.8817-.5281.174-.3252.1549-.7197-.0496-1.0266zm-8.12029 0-.7922-.6103c-.23257.3019-.27333.7098-.1051 1.0517.16823.342.5162.5586.8973.5586zm4.35016-5.6471.83168-.5552c-.17888-.2679-.47587-.4333-.79783-.4442s-.62946.134-.82605.3892zm5.00453-2.9587-3.92711 5.1586 1.59131 1.2115 3.9272-5.1587zm6.9086 8.055-5.2782-8-1.6694 1.1014 5.2782 8zm-8.1431 1.5507h7.3084v-2h-7.3084zm.8322-1.5546-.0001-.0001-1.6641 1.1094.0001.0001zm-8.95239 1.5547h8.12029v-2h-8.12029zm3.55796-7.2573-4.35016 5.647 1.58439 1.2206 4.35017-5.6471zm3.49693 2.8606-1.87305-2.8056-1.66336 1.1105 1.87309 2.8056z" fill="#343440"/><circle cx="8" cy="17.64" r="2" stroke="#343440" stroke-width="2"/><path d="m17.9871.292891c-.3905-.3905244-1.0237-.3905244-1.4142 0l-6.3639 6.363959c-.39056.39053-.39056 1.02369 0 1.41422.3905.39052 1.0237.39052 1.4142 0l5.6568-5.65686 5.6569 5.65686c.3905.39052 1.0237.39052 1.4142 0 .3905-.39053.3905-1.02369 0-1.41422zm.2929 17.987109v-17.280002h-2v17.280002z" fill="#343440"/></svg>