<svg fill="none" height="24" viewBox="0 0 34 24" width="34" xmlns="http://www.w3.org/2000/svg" xmlns:xlink="http://www.w3.org/1999/xlink"><clipPath id="a"><path d="m0 0h33.1429v24h-33.1429z"/></clipPath><g clip-path="url(#a)" fill="#343440"><path d="m15.5636.108309c-2.0224.157983-4.0752.877311-5.7831 2.030251-3.14518 2.12101-5.13375 5.65042-5.26564 9.34794l-.02029.5647-2.2456.0067-2.24897.0101 3.00314 2.9848 3.00314 2.9849 3.00991-2.9916 3.01331-2.9949h-2.25914-2.25574v-.2958c0-.8336.24688-2.05718.59183-2.93449.48023-1.21008 1.11604-2.17142 2.05955-3.10588 1.505-1.4958 3.2839-2.34958 5.3874-2.5916.5885-.06722 1.735-.05042 2.3099.03698.8522.12773 1.7146.38992 2.4891.7563l.4126.1916 1.0856-1.07899c.5952-.59496 1.0856-1.08908 1.0856-1.10252 0-.03698-.7441-.45042-1.2175-.679-1.2953-.61176-2.5399-.96134-3.9738-1.1126-.443-.047059-1.7281-.0605044-2.1813-.026891z"/><path d="m24.0691 9.05966-3.0099 2.99164h2.2591 2.2558v.2958c0 .1613-.0237.484-.0508.7159-.1691 1.442-.6493 2.7462-1.4542 3.9462-1.5185 2.2689-3.9298 3.711-6.6624 3.9866-.5039.0504-1.6909.0235-2.1813-.0538-.8421-.1244-1.7248-.3933-2.4891-.7563l-.4126-.1916-1.0924 1.0857c-.8793.8773-1.0856 1.0958-1.045 1.1227.2266.1513.8658.5009 1.1837.6521 1.2209.5748 2.4755.9345 3.8554 1.1025.4802.0572 2.2016.0572 2.6717 0 2.0461-.2588 3.7844-.8974 5.4111-1.9932 3.1283-2.1042 5.1371-5.6605 5.2656-9.3177l.0203-.5949h2.2456c1.231 0 2.2422-.0101 2.2422-.0269 0-.0269-5.9589-5.95634-5.986-5.95634-.0101 0-1.373 1.34454-3.0268 2.9916z"/><path d="m17.615 13.9813h-2.1899l-.3449-7.9813h2.8797zm-2.615 2.4866c0-.3957.1417-.7192.4251-.9706.2888-.2567.6471-.385 1.0749-.385s.7834.1283 1.0668.385c.2888.2514.4332.5749.4332.9706s-.1444.7219-.4332.9786c-.2834.2514-.639.377-1.0668.377s-.7861-.1256-1.0749-.377c-.2834-.2567-.4251-.5829-.4251-.9786z"/></g></svg>