<svg height="20" viewBox="0 0 22 20" width="22" xmlns="http://www.w3.org/2000/svg"><g fill="#58c669" fill-rule="evenodd" transform="matrix(0 1 1 0 0 0)"><path d="m10.4545455.90909091c-2.40909095 0-4.59090914.9-6.27272732 2.36363636l-3.27272727-3.27272727v8.18181818h8.18181818l-3.29090909-3.29090909c1.26363636-1.05454545 2.87272727-1.70909091 4.6545455-1.70909091 3.2181818 0 5.9545454 2.1 6.9090909 5l2.1545454-.70909091c-1.2636363-3.80909091-4.8363636-6.56363636-9.0636363-6.56363636z" transform="matrix(-1 0 0 1 20.427272 0)"/><path d="m10.4545455 14.7272727c-2.40909095 0-4.59090914.9-6.27272732 2.3636364l-3.27272727-3.2727273v8.1818182h8.18181818l-3.29090909-3.2909091c1.26363636-1.0545454 2.87272727-1.7090909 4.6545455-1.7090909 3.2181818 0 5.9545454 2.1 6.9090909 5l2.1545454-.7090909c-1.2636363-3.8090909-4.8363636-6.5636364-9.0636363-6.5636364z" transform="matrix(1 0 0 -1 0 35.818182)"/></g></svg>