<svg height="21" viewBox="0 0 21 21" width="21" xmlns="http://www.w3.org/2000/svg"><g fill-rule="evenodd"><path d="m16.6557918 17.4244505v3.9423175h-2.0914285v-3.9423175h-2.6142857l3.66-7.99949055 3.66 7.99949055z" transform="matrix(.70710678 -.70710678 .70710678 .70710678 -6.314434 15.547336)"/><path d="m6.33332542.76h-2.02665084c-.27967563 0-.50667458.17024656-.50667458.38 0 .20975345.22699895.38.50667458.38h2.02665084c.28067311 0 .50667458-.17024655.50667458-.38 0-.20975344-.22595397-.38-.50667458-.38z"/><path d="m11.5933254.76h-2.02665082c-.27967563 0-.50667458.17024656-.50667458.38 0 .20975345.22699895.38.50667458.38h2.02665082c.2806731 0 .5066746-.17024655.5066746-.38 0-.20975344-.225954-.38-.5066746-.38z"/><path d="m6.33332542 14.45h-2.02665084c-.27967563 0-.50667458.1702466-.50667458.38s.22699895.38.50667458.38h2.02665084c.28067311 0 .50667458-.1702466.50667458-.38s-.22595397-.38-.50667458-.38z"/><path d="m11.5933254 14.45h-2.02665082c-.27967563 0-.50667458.1702466-.50667458.38s.22699895.38.50667458.38h2.02665082c.2796756 0 .5066746-.1702466.5066746-.38s-.225954-.38-.5066746-.38z"/><path d="m1.14 8.86c-.21050155 0-.38.2270025-.38.5066825v2.026635c0 .27968.17024656.5066825.38.5066825.20975345 0 .38-.2270025.38-.5066825v-2.0266825c0-.27968-.16946283-.506635-.38-.506635z"/><path d="m1.14 3.8c-.21050155 0-.38.2270025-.38.5066825v2.026635c0 .27968.17024656.5066825.38.5066825.21050155 0 .38-.2270025.38-.5066825v-2.0266825c0-.27968-.16946283-.506635-.38-.506635z"/><path d="m14.78 8.86c-.2097534 0-.38.2270025-.38.5066825v2.026635c0 .27968.1702466.5066825.38.5066825s.38-.2270025.38-.5066825v-2.0266825c-.0000356-.27968-.1694985-.506635-.38-.506635z"/><path d="m14.78 3.8c-.2105015 0-.38.2270025-.38.5066825v2.026635c0 .27968.1702466.5066825.38.5066825s.38-.2270025.38-.5066825v-2.0266825c-.0000356-.27968-.1694985-.506635-.38-.506635z"/><path d="m2.08335937 13.5h-1.66667968c-.23 0-.41667969.1866797-.41667969.4166797v1.6666797c0 .23.18667969.4166797.41667969.4166797h1.66667969c.23082031 0 .41667968-.1866797.41667968-.4166797v-1.6666797c0-.23-.18585937-.4166797-.41667969-.4166797z"/><path d="m2.08335937 0h-1.66667968c-.23 0-.41667969.18667969-.41667969.41667969v1.66667968c0 .23000001.18667969.41667969.41667969.41667969h1.66667969c.23082031 0 .41667968-.18667968.41667968-.41667969v-1.66667968c0-.23-.18585937-.41667969-.41667969-.41667969z"/><path d="m15.5833594 0h-1.6666797c-.23 0-.4166797.18667969-.4166797.41667969v1.66667968c0 .23000001.1866797.41667969.4166797.41667969h1.6666797c.2308203 0 .4166797-.18667968.4166797-.41667969v-1.66667968c0-.23-.1858594-.41667969-.4166797-.41667969z"/></g></svg>