<svg fill="none" height="26" viewBox="0 0 26 26" width="26" xmlns="http://www.w3.org/2000/svg"><g stroke="#343440"><g stroke-width="2"><path d="m2 6v3"/><path d="m19 9v-3"/><path d="m19 14v-3"/><path d="m2 11v3"/><path d="m1.5 4v-1.5-.5c0-.55228.44772-1 1-1h2"/><path d="m4.5 19h-1.5-.5c-.55228 0-1-.4477-1-1v-2"/><path d="m16.5 1h1.5.5c.5523 0 1 .44772 1 1v2"/><path d="m9.5 1h-3"/><path d="m9.5 19h-3"/><path d="m14.5 1h-3"/><path d="m14.5 19h-3"/></g><path d="m15.6972 15.0696 9.564 3.3755c.0855.0302.0899.1495.0068.1859l-4.268 1.869-1.869 4.268c-.0364.0831-.1557.0787-.1859-.0068l-3.3755-9.564c-.028-.0793.0483-.1556.1276-.1276z" fill="#343440"/></g></svg>