<svg fill="none" height="24" viewBox="0 0 24 24" width="24" xmlns="http://www.w3.org/2000/svg"><g fill="#343440"><path d="m13.0713 20h-1.695l-.945-2.595h-4.15495l-.945 2.595h-1.65l3.735-9.9h1.92zm-6.34495-3.9h3.255l-1.62-4.62zm12.21055-.915c0-.5-.14-.885-.42-1.155-.27-.28-.645-.42-1.125-.42-.45 0-.835.105-1.155.315s-.555.55-.705 1.02l-1.35-.57c.19-.61.56-1.1 1.11-1.47.56-.37 1.28-.555 2.16-.555.6 0 1.13.1 1.59.3.46.19.82.48 1.08.87.27.39.405.89.405 1.5v3.345c0 .37.185.555.555.555.18 0 .355-.025.525-.075l-.09 1.11c-.23.11-.52.165-.87.165-.32 0-.61-.055-.87-.165-.25-.12-.45-.295-.6-.525-.14-.24-.21-.535-.21-.885v-.105l.33-.015c-.09.39-.275.715-.555.975-.28.25-.605.44-.975.57-.37.12-.745.18-1.125.18-.47 0-.895-.075-1.275-.225-.37-.15-.665-.375-.885-.675-.21-.31-.315-.69-.315-1.14 0-.56.18-1.02.54-1.38.37-.36.89-.605 1.56-.735l2.91-.57-.015 1.125-2.115.435c-.42.08-.735.195-.945.345s-.315.37-.315.66c0 .28.105.505.315.675.22.16.51.24.87.24.25 0 .49-.03.72-.09.24-.06.455-.155.645-.285.19-.14.335-.315.435-.525.11-.22.165-.48.165-.78z"/><path clip-rule="evenodd" d="m21.0172 5.85126c.2929.2929.2929.76777 0 1.06066l-2.7368 2.73684c-.2929.2929-.7678.2929-1.0607 0l-2.7368-2.73684c-.2929-.29289-.2929-.76777 0-1.06066.2928-.29289.7677-.29289 1.0606 0l2.2065 2.20651 2.2065-2.20651c.2929-.29289.7678-.29289 1.0607 0z" fill-rule="evenodd"/></g></svg>