<svg fill="none" height="14" viewBox="0 0 24 14" width="24" xmlns="http://www.w3.org/2000/svg"><path d="m8.949 9.713h-5.282l-1.197 3.287h-2.09l4.731-12.54h2.432l4.731 12.54h-2.147zm-.608-1.653-1.444-4.028-.57-1.805h-.057l-.532 1.767-1.482 4.066zm14.0797 3.61c.2787 0 .513-.0253.703-.076l-.133 1.368c-.342.152-.7346.228-1.178.228-.5446 0-.9816-.1077-1.311-.323-.3166-.2153-.5256-.5763-.627-1.083-.2913.4433-.722.7917-1.292 1.045-.57.2407-1.2096.361-1.919.361-.9246 0-1.672-.2153-2.242-.646s-.855-1.045-.855-1.843c0-.74733.3104-1.37433.931-1.881.6207-.51933 1.5454-.88667 2.774-1.102l2.413-.418v-.513c0-.58267-.171-1.03867-.513-1.368-.342-.342-.817-.513-1.425-.513-1.254 0-2.071.57-2.451 1.71l-1.577-.836c.228-.76.6904-1.36167 1.387-1.805.7094-.44333 1.577-.665 2.603-.665 1.2287 0 2.204.285 2.926.855s1.083 1.406 1.083 2.508v4.294c0 .2407.0507.418.152.532.114.114.2977.171.551.171zm-5.32-.019c.684 0 1.2857-.1647 1.805-.494.5194-.3293.779-.7663.779-1.311v-1.14l-2.071.418c-.6586.12667-1.1463.304-1.463.532-.3166.228-.475.532-.475.912 0 .3547.1204.627.361.817.2534.1773.608.266 1.064.266z" fill="#343440"/></svg>