<svg fill="none" height="24" viewBox="0 0 24 24" width="24" xmlns="http://www.w3.org/2000/svg"><path d="m12.7237 20h-2.147l-1.19699-3.287h-5.263l-1.197 3.287h-2.090003l4.731003-12.54h2.432zm-8.03699-4.94h4.123l-2.052-5.852zm15.46669-1.159c0-.6333-.1773-1.121-.532-1.463-.342-.3547-.817-.532-1.425-.532-.57 0-1.0576.133-1.463.399-.4053.266-.703.6967-.893 1.292l-1.71-.722c.2407-.7727.7094-1.3933 1.406-1.862.7094-.4687 1.6214-.703 2.736-.703.76 0 1.4314.1267 2.014.38.5827.2407 1.0387.608 1.368 1.102.342.494.513 1.1273.513 1.9v4.237c0 .4687.2344.703.7031.703.228 0 .4496-.0317.6649-.095l-.114 1.406c-.2913.1393-.6586.209-1.102.209-.4053 0-.7726-.0697-1.102-.209-.3166-.152-.57-.3737-.76-.665-.1773-.304-.266-.6777-.266-1.121v-.133l.418-.019c-.114.494-.3483.9057-.703 1.235-.3546.3167-.7663.5573-1.235.722-.4686.152-.9436.228-1.425.228-.5953 0-1.1336-.095-1.615-.285-.4686-.19-.8423-.475-1.121-.855-.266-.3927-.399-.874-.399-1.444 0-.7093.228-1.292.684-1.748.4687-.456 1.1274-.7663 1.976-.931l3.686-.722-.019 1.425-2.679.551c-.532.1013-.931.247-1.197.437s-.399.4687-.399.836c0 .3547.133.6397.399.855.2787.2027.646.304 1.102.304.3167 0 .6207-.038.912-.114.304-.076.5764-.1963.817-.361.2407-.1773.4244-.399.551-.665.1394-.2787.209-.608.209-.988z" fill="#343440"/></svg>