<svg fill="none" height="23" viewBox="0 0 23 23" width="23" xmlns="http://www.w3.org/2000/svg"><path d="m3.50824 6c-.16394 2.35617-.84667 4.6538-1.23273 6.982-.08416.5076-.16753 1.0163-.23362 1.5264-.04158.321-.09589.6888.07953.9859.50042.8474 1.44545-.4121 1.70991-.7835.83586-1.1737 1.57531-2.3765 2.5748-3.4386.37767-.4013.95934-1.0317 1.60801-.9096.57056.1074.41368 1.1955.39516 1.5621-.03486.6904-.14699 1.3741-.20876 2.0622-.02407.2681-.1012.6869.07953.9335.33516.4574 1.36291.2842 1.79193.131.9763-.3486 1.7338-1.1126 2.6021-1.6408.4661-.2835 1.0454-.4566 1.5708-.1905.6165.3124.7388 1.15 1.101 1.667.673.9607 2.048 1.2672 3.1861 1.043.7847-.1546 1.7296-.5028 2.2741-1.0859.2002-.2144.1939-.4374.1939-.7001" stroke="#000" stroke-linecap="round" stroke-width="3"/></svg>