<svg height="32" viewBox="0 0 32 32" width="32" xmlns="http://www.w3.org/2000/svg"><path d="m15.846 0-9.985 7.987 9.985 7.99v-5.912c1.616.013 3.198.457 4.586 1.284s2.532 2.007 3.313 3.422c.78 1.415 1.171 3.012 1.13 4.628s-.511 3.191-1.362 4.565c-.638 1.112-1.571 2.025-2.698 2.635h-.003c-1.248.774-2.666 1.236-4.13 1.344s-2.933-.139-4.281-.721-2.533-1.482-3.458-2.622-1.562-2.488-1.854-3.927c-.082-.469-.323-.894-.685-1.203s-.821-.482-1.297-.49c-.295.001-.585.068-.852.195s-.503.313-.69.542c-.186.229-.317.497-.388.784-.069.287-.075.585-.015.875.397 2.04 1.271 3.956 2.552 5.591s2.932 2.944 4.818 3.818c1.885.873 3.953 1.286 6.029 1.206s4.105-.65 5.917-1.667c2.081-1.095 3.759-2.825 4.792-4.938 1.09-1.99 1.645-4.229 1.609-6.497s-.658-4.49-1.81-6.445c-1.151-1.955-2.791-3.577-4.758-4.708s-4.195-1.731-6.464-1.742z"/></svg>