<svg fill="none" height="24" viewBox="0 0 24 24" width="24" xmlns="http://www.w3.org/2000/svg"><g fill="#000"><path clip-rule="evenodd" d="m3.32843.146447c.19526-.1952625.51184-.1952625.7071 0l3.18198 3.181983c.19527.19526.19527.51184 0 .7071-.19526.19527-.51184.19527-.7071 0l-2.32843-2.32842v17.29289h17.29292l-2.3285-2.3284c-.1952-.1953-.1952-.5119 0-.7071.1953-.1953.5119-.1953.7072 0l3.1819 3.1819c.1953.1953.1953.5119 0 .7072l-3.1819 3.1819c-.1953.1953-.5119.1953-.7072 0-.1952-.1952-.1952-.5118 0-.7071l2.3285-2.3284h-18.29292v-18.29289l-2.328427 2.32842c-.195262.19527-.511844.19527-.707106 0-.1952625-.19526-.1952625-.51184 0-.7071z" fill-rule="evenodd"/><path d="m12.0723 7.5-2.60923 4.3167v2.6833h-1.183v-2.6833l-2.59819-4.3167h1.31568l1.30462 2.25909.57492 1.03941.57492-1.03941 1.29358-2.25909z"/><path d="m18.6819 14.5h-1.3931l-1.8021-2.6939-1.7911 2.6939h-1.3599l2.5318-3.553-2.3328-3.447h1.3931l1.6694 2.5455 1.6916-2.5455h1.2936l-2.366 3.4045z"/></g></svg>