<svg fill="none" height="24" viewBox="0 0 24 24" width="24" xmlns="http://www.w3.org/2000/svg"><path clip-rule="evenodd" d="m10.7063 1.38516v1.35387h-3.31116v-1.35387zm-4.2898 2.78374c-.00959-.00425-.01906-.00872-.02842-.0134h-2.20209v12.4586h9.71371v-12.4586h-6.8863c-.00936.00468-.01883.00915-.02841.0134-.08946.03977-.18631.06031-.28425.06031s-.19478-.02054-.28424-.06031zm-.41016-3.480231v2.050361h-2.51875c-.02694-.00159-.05388-.00158-.08069 0h-2.69681c-.188328 0-.368942.07462-.50211.20744-.1331673.13282-.20798.31296-.20798.50079 0 .18784.0748127.36798.20798.5008.133168.13282.313782.20744.50211.20744h2.05572v13.1551c-.00009.0932.01875.1854.0554.271.03664.0857.09033.163.15781.2274.06747.0644.14734.1144.23477.1472.08743.0327.1806.0473.27388.0431h11.11033c.0934.0001.1858-.0187.2717-.0552.0859-.0366.1635-.0901.228-.1574s.1147-.147.1475-.2342.0475-.1801.0433-.2732v-13.1238h2.0871v-.03131c.1715-.0182.3301-.09901.4454-.22688.1152-.12786.179-.29374.179-.4657s-.0638-.33783-.179-.4657c-.1153-.12787-.2739-.20868-.4454-.22688h-2.7622-.0149-2.5034v-2.050361c-.0021-.183363-.0766-.358515-.2073-.487445-.1308-.1289304-.3072-.20123557-.4911-.201224h-4.70773c-.18112.00404966-.35358.0781473-.48095.206646-.12737.128498-.19969.301339-.20168.482023zm-.0071 13.798431c.08429.0351.17472.0532.26606.0532.18521 0 .36283-.0734.49379-.204s.20453-.3078.20453-.4925v-6.91798c.01037-.09714.00013-.19536-.03004-.2883-.03017-.09293-.07961-.17849-.14509-.25113-.06549-.07264-.14556-.13072-.23502-.17048-.08946-.03977-.18631-.06031-.28425-.06031s-.19478.02054-.28424.06031c-.08946.03976-.16953.09784-.23502.17048s-.11492.1582-.14509.25113c-.03018.09294-.04041.19116-.03004.2883v6.91798c-.00104.0911.01605.1815.05029.266.03423.0844.08493.1613.14915.226.06422.0648.14068.1162.22497.1513zm3.04359.0532c-.09133 0-.18177-.018-.26605-.0531-.08429-.0351-.16076-.0866-.22498-.1513-.06422-.0648-.11492-.1417-.14915-.2261-.03424-.0845-.05133-.1749-.05029-.266v-6.91796c0-.18265.07275-.35781.20223-.48696.12949-.12915.30512-.20171.48824-.20171.18313 0 .35875.07256.48824.20171s.20224.30431.20224.48696v6.91796c.00104.0911-.01606.1815-.05029.266-.03424.0844-.08493.1613-.14915.2261-.06422.0647-.14069.1162-.22498.1513s-.17472.0531-.26606.0531zm2.28387-.204c.1309.1306.3086.204.4938.204.0913 0 .1817-.0181.266-.0532s.1608-.0865.225-.1513c.0642-.0647.1149-.1416.1491-.2261.0343-.0844.0514-.1748.0503-.2659v-6.91798c.0104-.09714.0002-.19536-.03-.2883-.0302-.09293-.0796-.17849-.1451-.25113s-.1456-.13072-.235-.17048c-.0895-.03977-.1863-.06031-.2843-.06031-.0979 0-.1948.02054-.2842.06031-.0895.03976-.1695.09784-.235.17048s-.1149.1582-.1451.25113c-.0302.09294-.0404.19116-.0301.2883v6.91798c0 .1847.0736.3619.2046.4925z" fill="#abb2bd" fill-rule="evenodd" transform="translate(3 3)"/></svg>