<svg fill="none" height="19" viewBox="0 0 19 20" width="19" xmlns="http://www.w3.org/2000/svg"><g fill="#f44747"><path clip-rule="evenodd" d="m3.38992 1.8623c-.01433 0-.02866.00042-.04297.00124-.44999.02581-.84482.25466-1.11063.59136-.2599.32922-.38571.74382-.37316 1.1543v11.7814c-.01236.4104.11351.8248.37334 1.1539.26566.3365.66016.5654 1.10986.5915.0145.0009.02903.0013.04356.0013h6.99418c.0144 0 .0287-.0004.043-.0012.4499-.0258.8448-.2546 1.1107-.5911.26-.3292.386-.7438.3737-1.1544v-1.989c0-.4142-.3358-.75-.75-.75s-.75.3358-.75.75v2.0018c0 .0098.0002.0196.0005.0294.0033.0819-.0235.1471-.0513.1823-.0098.0125-.018.0191-.0226.0222h-6.9016c-.00465-.0031-.01282-.0097-.02266-.0222-.02777-.0352-.05447-.1004-.05126-.1823.00039-.0098.00058-.0196.00058-.0294v-11.80717c0-.00995-.0002-.01991-.0006-.02985-.00326-.08184.02341-.14695.05111-.18203.00974-.01235.01783-.01891.02244-.02205h6.90199c.0046.00314.0128.00973.0226.02222.0278.03515.0546.10036.0513.18233-.0003.00979-.0005.01959-.0005.02938v2.00179c0 .41421.3358.75.75.75s.75-.33579.75-.75v-1.989c.0123-.41056-.1137-.82518-.3737-1.15437-.2659-.33658-.6608-.5653-1.1107-.59111-.0143-.00082-.0286-.00124-.043-.00124zm10.20308 4.82717c.2928-.29289.7677-.29289 1.0606 0l2.5312 2.84185c0 .20797-.0847.39617-.2214.53208l-2.3098 2.3098c-.2929.2929-.7678.2929-1.0606 0-.2929-.2929-.2929-.7678 0-1.0607l1.0311-1.0312h-7.89765c-.41421 0-.75-.33577-.75-.74998s.33579-.75.75-.75h7.89765l-1.0311-1.03118c-.2929-.2929-.2929-.76777 0-1.06067z" fill-rule="evenodd"/><path d="m3.34695 1.86354-.01432-.24959zm-1.11063.59136.19623.15491zm-.37316 1.1543h.25012l-.00024-.00764zm0 11.7814.25.0075v-.0075zm.37334 1.1539.19622-.1549zm1.10986.5915-.01452.2496h.00001zm7.08074.0001-.0143-.2496zm1.1107-.5911-.1962-.155zm.3737-1.1544h-.2501l.0002.0075zm-1.4995.0422-.2498.0097v.0001zm-.0513.1823-.1961-.155zm-.0226.0222v.25c.0499 0 .0987-.0149.14-.0429zm-6.9016 0-.14027.2069c.04139.0281.09026.0431.14027.0431zm-.02266-.0222-.19623.1549zm-.05126-.1823-.24981-.0098zm-.00002-11.86642-.2498.00995zm.05111-.18203.19622.1549zm.02244-.02205v-.25c-.05017 0-.09919.0151-.14066.04333zm6.90199 0 .14-.20708c-.0413-.02797-.0901-.04292-.14-.04292zm.0226.02222-.1961.15497zm.0513.18233-.2498-.00979v.00001zm1.4995.04217-.25-.00753v.00753zm-.3737-1.15437-.1962.15498zm-1.1107-.59111.0143-.24959zm4.2265 4.82593.1867-.16627c-.0032-.0036-.0065-.0071-.0099-.0105zm-1.0606 0-.1768-.17677zm3.5918 2.84185h.25c0-.06132-.0225-.1205-.0633-.16628zm-.2214.53208-.1762-.17739-.0006.00056zm-2.3098 2.3098.1768.1767zm-1.0606 0-.1768.1767zm1.0311-2.0919.1768.1768c.0715-.0715.0929-.179.0542-.2725-.0387-.0934-.1299-.1543-.231-.1543zm0-1.49998v.25c.1012 0 .1923-.06091.231-.15433s.0173-.20095-.0542-.27245zm-1.0311-1.03118-.1768.17677zm-10.23173-5.63701c.00954-.00055.01909-.00083.02865-.00083v-.5c-.01911 0-.03821.00055-.05729.00165zm-.92872.49668c.22588-.28613.55688-.47535.92872-.49668l-.02864-.49918c-.52814.0303-.9868.29877-1.29253.68604zm-.31951.99175c-.01087-.3556.09843-.71171.31951-.99175l-.39245-.30982c-.29872.3784-.44105.8515-.42682 1.31686zm.00012 11.78904v-11.7814h-.5v11.7814zm.31956.999c-.22103-.28-.33038-.6359-.31967-.9915l-.49978-.015c-.01401.4652.12838.9381.427 1.3163zm.92816.4969c-.37163-.0217-.70239-.2109-.92816-.4969l-.39245.3098c.30555.3871.7638.6555 1.29157.6862zm.02904.0008c-.00969 0-.01937-.0003-.02906-.0008l-.02901.4991c.01933.0011.03869.0017.05807.0017zm6.99418 0h-6.99418v.5h6.99418zm.0287-.0008c-.0096.0005-.0191.0008-.0287.0008v.5c.0191 0 .0382-.0005.0573-.0016zm.9288-.4965c-.226.286-.557.4752-.9288.4965l.0286.4992c.5281-.0303.9867-.2986 1.2925-.6858zm.32-.9919c.0107.3557-.0988.7119-.32.9919l.3923.3099c.2989-.3783.4415-.8514.4275-1.3168zm-.0001-1.9965v1.989h.5v-1.989zm-.5-.5c.2761 0 .5.2238.5.5h.5c0-.5523-.4477-1-1-1zm-.5.5c0-.2762.2238-.5.5-.5v-.5c-.5523 0-1 .4477-1 1zm0 2.0018v-2.0018h-.5v2.0018zm.0004.0196c-.0003-.0066-.0004-.0131-.0004-.0196h-.5c0 .0131.0002.0261.0007.0391zm-.105.3471c.0668-.0845.1104-.209.105-.3471l-.4997.0196c.0005.0112-.0012.0193-.0026.0237-.0007.0022-.0012.003-.0009.0024.0003-.0004.0019-.0035.0059-.0086zm-.0788.0743c.0267-.018.0536-.0424.0788-.0743l-.3923-.31c.0055-.0069.016-.0181.0334-.0299zm-7.0416.0429h6.9016v-.5h-6.9016zm-.21889-.1173c.02516.0319.05203.0562.07862.0742l.28054-.4138c.0173.0117.02782.0228.03329.0298zm-.10484-.347c-.00541.1381.03812.2625.10484.347l.39245-.3098c.004.005.00561.0081.00583.0086.00032.0006-.00015-.0002-.00085-.0024-.00139-.0045-.00309-.0126-.00265-.0238zm.00039-.0196c0 .0065-.00013.013-.00039.0196l.49962.0196c.00051-.0131.00077-.0262.00077-.0392zm0-11.80717v11.80717h.5v-11.80717zm-.0004-.0199c.00027.00663.0004.01327.0004.0199h.5c0-.01327-.00027-.02654-.00079-.03981zm.10468-.34689c-.06668.08447-.11018.20884-.10468.34689l.49961-.0199c-.00045-.01119.00124-.0192.00261-.02356.00069-.00219.00114-.00296.00081-.00232-.00024.00046-.00187.0036-.0059.0087zm.07801-.07381c-.0264.01796-.05305.04219-.07801.07381l.39245.30981c-.00547.00694-.01595.01804-.03312.02973zm7.04265-.04333h-6.90199v.5h6.90199zm.2188.11724c-.0252-.03193-.0521-.05631-.0788-.07432l-.2801.41417c-.0173-.01175-.0279-.02294-.0334-.0299zm.105.34711c.0054-.13817-.0382-.2626-.105-.34711l-.3923.30995c-.004-.00507-.0056-.00817-.0059-.00861-.0003-.00061.0002.00019.0009.0024.0014.00442.0031.01251.0026.02378zm-.0004.01958c0-.00652.0001-.01305.0004-.0196l-.4997-.01956c-.0005.01303-.0007.02609-.0007.03916zm0 2.00179v-2.00179h-.5v2.00179zm.5.5c-.2762 0-.5-.22386-.5-.5h-.5c0 .55228.4477 1 1 1zm.5-.5c0 .27614-.2239.5-.5.5v.5c.5523 0 1-.44772 1-1zm0-1.989v1.989h.5v-1.989zm-.3199-.99939c.2212.28003.3307.63617.32.99187l.4998.01505c.014-.46543-.1286-.93853-.4275-1.31688zm-.9288-.4965c.3718.02133.7028.21046.9288.4965l.3923-.30996c-.3058-.38712-.7644-.65543-1.2925-.68572zm-.0287-.00083c.0096 0 .0191.00028.0287.00083l.0286-.49918c-.0191-.0011-.0382-.00165-.0573-.00165zm-6.99418 0h6.99418v-.5h-6.99418zm11.44048 4.4004c-.3905-.39053-1.0237-.39053-1.4142 0l.3535.35355c.1953-.19526.5119-.19526.7071 0zm2.5411 2.85234-2.5312-2.84184-.3734.33255 2.5312 2.84184zm-.2319.87566c.1821-.1809.2952-.43215.2952-.70938h-.5c0 .13871-.0562.26384-.1476.35469zm-2.3092 2.3092 2.3098-2.3098-.3536-.35353-2.3098 2.30983zm-1.4142 0c.3905.3906 1.0237.3906 1.4142 0l-.3536-.3535c-.1952.1952-.5118.1952-.7071 0zm0-1.4142c-.3905.3905-.3905 1.0237 0 1.4142l.3535-.3535c-.1952-.1953-.1952-.5119 0-.7071zm1.0312-1.0312-1.0312 1.0312.3535.3536 1.0312-1.0312zm-7.72095.4268h7.89765v-.5h-7.89765zm-1-.99998c0 .55228.44772.99998 1 .99998v-.5c-.27614 0-.5-.22384-.5-.49998zm1-1c-.55228 0-1 .44772-1 1h.5c0-.27614.22386-.5.5-.5zm7.89765 0h-7.89765v.5h7.89765zm-1.2079-.60441 1.0312 1.03119.3535-.35356-1.0312-1.03118zm0-1.41421c-.3905.39052-.3905 1.02369 0 1.41421l.3535-.35355c-.1952-.19526-.1952-.51185 0-.70711z"/></g></svg>