<svg fill="none" height="24" viewBox="0 0 24 24" width="24" xmlns="http://www.w3.org/2000/svg"><path clip-rule="evenodd" d="m23 12c0 6.0751-4.9249 11-11 11-6.07513 0-11-4.9249-11-11 0-6.07513 4.92487-11 11-11 6.0751 0 11 4.92487 11 11zm1 0c0 6.6274-5.3726 12-12 12-6.62742 0-12-5.3726-12-12 0-6.62742 5.37258-12 12-12 6.6274 0 12 5.37258 12 12zm-14.85193-4.37253c-.33333-.19048-.74807.05021-.74807.43412v7.87681c0 .3839.41474.6246.74807.4341l6.89223-3.9384c.3359-.1919.3359-.6763 0-.8682z" fill="#abb2bd" fill-rule="evenodd"/></svg>