<svg width="24" height="24" viewBox="0 0 24 24" fill="none" xmlns="http://www.w3.org/2000/svg">
<g id="Union">
<path id="Union_2" fill-rule="evenodd" clip-rule="evenodd" d="M23 12C23 18.0751 18.0751 23 12 23C5.92487 23 1 18.0751 1 12C1 5.92487 5.92487 1 12 1C18.0751 1 23 5.92487 23 12ZM24 12C24 18.6274 18.6274 24 12 24C5.37258 24 0 18.6274 0 12C0 5.37258 5.37258 0 12 0C18.6274 0 24 5.37258 24 12ZM9.14807 7.62747C8.81474 7.43699 8.4 7.67768 8.4 8.06159V15.9384C8.4 16.3223 8.81474 16.563 9.14807 16.3725L16.0403 12.4341C16.3762 12.2422 16.3762 11.7578 16.0403 11.5659L9.14807 7.62747Z" fill="#ABB2BD"/>
</g>
</svg>
