<svg fill="none" height="24" viewBox="0 0 24 24" width="24" xmlns="http://www.w3.org/2000/svg"><path clip-rule="evenodd" d="m10.25 3c-1.38071 0-2.5 1.11929-2.5 2.5v4c0 1.3807 1.11929 2.5 2.5 2.5 1.3807 0 2.5-1.1193 2.5-2.5v-4c0-1.38071-1.1193-2.5-2.5-2.5zm-3.75 7c0-.41421-.33579-.75-.75-.75s-.75.33579-.75.75c0 .7406.26978 1.9102 1.06217 2.9102.71439.9016 1.8256 1.6283 3.43783 1.8008v1.539h-2.25c-.41421 0-.75.3358-.75.75s.33579.75.75.75h6c.4142 0 .75-.3358.75-.75s-.3358-.75-.75-.75h-2.25v-1.539c1.6122-.1725 2.7234-.8992 3.4378-1.8008.7924-1 1.0622-2.1696 1.0622-2.9102 0-.41421-.3358-.75-.75-.75s-.75.33579-.75.75c0 .4445-.1802 1.275-.7378 1.9787-.5298.6685-1.4364 1.2713-3.0122 1.2713-1.57578 0-2.48241-.6028-3.01217-1.2713-.55761-.7037-.73783-1.5342-.73783-1.9787z" fill="#abb2bd" fill-rule="evenodd" transform="translate(2 2)"/></svg>