<svg xmlns="http://www.w3.org/2000/svg" width="29" height="22" viewBox="0 0 29 22" fill="none">
  <path fill-rule="evenodd" clip-rule="evenodd" d="M17.9974 0.144187C18.297 0.32529 18.4801 0.649898 18.4801 1V20.4675C18.4801 20.8176 18.297 21.1422 17.9974 21.3233C17.6978 21.5044 17.3253 21.5156 17.0153 21.3529L6.02833 15.5847C5.69927 15.412 5.49316 15.071 5.49316 14.6994V6.76815C5.49316 6.3965 5.69927 6.0555 6.02833 5.88275L17.0153 0.114603C17.3253 -0.048137 17.6978 -0.0369157 17.9974 0.144187ZM7.49316 7.37258V14.0949L16.4801 18.8131V2.65444L7.49316 7.37258Z" fill="white"/>
  <rect x="1" y="6.44141" width="5.49347" height="8.24021" rx="1" stroke="white" stroke-width="2"/>
  <path d="M21.6006 6.44141C22.637 7.81477 24.0879 11.3855 21.6006 14.6816" stroke="white" stroke-width="2" stroke-linecap="round" stroke-linejoin="round"/>
  <path d="M24.3467 3.69434C26.4194 5.98328 29.3213 11.9345 24.3467 17.428" stroke="white" stroke-width="2" stroke-linecap="round" stroke-linejoin="round"/>
</svg>
