<svg fill="none" height="19" viewBox="0 0 27 19" width="27" xmlns="http://www.w3.org/2000/svg"><path clip-rule="evenodd" d="m20.877 6.70305c-.3905-.39052-1.0237-.39052-1.4142 0s-.3905 1.02369 0 1.41421l2.0271 2.02704-2.027 2.027c-.3905.3905-.3905 1.0236 0 1.4142.3906.3905 1.0237.3905 1.4142 0l2.027-2.027 2.0269 2.027c.3905.3905 1.0237.3905 1.4142 0 .3906-.3906.3906-1.0237 0-1.4142l-2.0269-2.027 2.0271-2.02704c.3905-.39052.3905-1.02369 0-1.41421-.3906-.39052-1.0237-.39052-1.4143 0l-2.027 2.02706z" fill="#fff" fill-rule="evenodd"/><path clip-rule="evenodd" d="m15.5348.144187c.2996.181103.4827.505711.4827.855813v16.5592c0 .3501-.1831.6748-.4827.8559-.2997.1811-.6722.1923-.9822.0295l-9.34556-4.9064c-.32906-.1728-.53516-.5137-.53516-.8854v-6.74636c0-.37165.2061-.71264.53516-.88539l9.34556-4.906447c.31-.16274.6825-.1515187.9822.029584zm-8.86292 6.366693v5.53752l7.34562 3.8564v-13.25036z" fill="#fff" fill-rule="evenodd"/><rect height="7.00921" rx="1" stroke="#fff" stroke-width="2" width="4.6728" x="1" y="5.62842"/></svg>