<svg width="16" height="13" viewBox="0 0 16 13" fill="none" xmlns="http://www.w3.org/2000/svg">
<path d="M11.001 3.48828C11.7556 4.48833 12.8122 7.08846 11.001 9.48858" stroke="white" stroke-width="1.5" stroke-linecap="round" stroke-linejoin="round"/>
<path d="M13 1.48779C14.5093 3.15454 16.6224 7.48809 13 11.4883" stroke="white" stroke-width="1.5" stroke-linecap="round" stroke-linejoin="round"/>
<path fill-rule="evenodd" clip-rule="evenodd" d="M3.08436 3.40287L8.22876 0.0807882C8.56146 -0.134061 9 0.104775 9 0.500821V12.2097C9 12.6057 8.56146 12.8446 8.22876 12.6297L3.01391 9.26215C2.94915 9.22033 2.89603 9.16487 2.85733 9.1009C2.84568 9.1013 2.83398 9.10151 2.82223 9.10151H1C0.447716 9.10151 0 8.65379 0 8.10151V4.36817C0 3.81588 0.447715 3.36816 1 3.36816H2.82223C2.91293 3.36816 3.00081 3.38024 3.08436 3.40287Z" fill="white"/>
</svg>
