<svg height="80" viewBox="0 0 80 80" width="80" xmlns="http://www.w3.org/2000/svg"><g fill="none" fill-rule="evenodd"><g fill-rule="nonzero"><circle cx="40" cy="40" fill="#e3f2fd" r="40"/><g fill="#2a4494"><g fill-opacity=".4" transform="translate(32 26)"><path d="m24.2042428 31.2499773h-23.40854165c-.21104167 0-.4134375-.085-.56260417-.23625-.14927083-.15125-.23309698-.3564583-.23309698-.5704167-.00679885-2.0066666.45195115-3.9867708 1.33924281-5.7804166.88739584-1.7936459 2.17854167-3.3505209 3.76895834-4.5448959.3946875-.3003125.86333333-.4847916 1.35447916-.5332291.49125-.0483334.98604167.04125 1.43041667.2589583 1.42177083.7351042 2.99500002 1.1184375 4.59104162 1.1184375 1.5959375 0 3.1691667-.3833333 4.5909375-1.1184375.4458334-.2227083.9441667-.3151042 1.4388542-.2666667.4947917.0484375.9663542.2358334 1.361875.5409375 1.5841667 1.179375 2.873125 2.7192709 3.763125 4.4958334s1.3561458 3.7401041 1.361056 5.7327083c.0012357.22375-.0793893.44-.2264727.606875-.1469791.166875-.3497916.2726042-.5692708.2965625z"/><path d="m12.4772636 18.1337273c-1.7688541 0-3.49791662-.5316667-4.96864579-1.5280208-1.47072916-.99625-2.61708333-2.4122917-3.29395833-4.0690625-.676875-1.6567709-.85395833-3.4797917-.50885417-5.23864587.345-1.75875 1.19677084-3.374375 2.4475-4.64239583 1.25083334-1.26802084 2.844375-2.1315625 4.57916669-2.48135417 1.7347916-.34989584 3.5330208-.1703125 5.1671875.5159375 1.6341666.68625 3.0309375 1.84833333 4.0136458 3.339375s1.5071875 3.2440625 1.5071875 5.03729167c0 1.1907292-.23125 2.3696875-.6807292 3.4697917-.4494791 1.1-1.1082291 2.0995833-1.9386458 2.9414583-.8305208.8419792-1.8163542 1.5097917-2.9014583 1.9655208-1.085.455625-2.2480209.6901042-3.4223959.6901042z"/></g><g transform="translate(23 28)"><path d="m24.2042428 31.2499773h-23.40854165c-.21104167 0-.4134375-.085-.56260417-.23625-.14927083-.15125-.23309698-.3564583-.23309698-.5704167-.00679885-2.0066666.45195115-3.9867708 1.33924281-5.7804166.88739584-1.7936459 2.17854167-3.3505209 3.76895834-4.5448959.3946875-.3003125.86333333-.4847916 1.35447916-.5332291.49125-.0483334.98604167.04125 1.43041667.2589583 1.42177083.7351042 2.99500002 1.1184375 4.59104162 1.1184375 1.5959375 0 3.1691667-.3833333 4.5909375-1.1184375.4458334-.2227083.9441667-.3151042 1.4388542-.2666667.4947917.0484375.9663542.2358334 1.361875.5409375 1.5841667 1.179375 2.873125 2.7192709 3.763125 4.4958334s1.3561458 3.7401041 1.361056 5.7327083c.0012357.22375-.0793893.44-.2264727.606875-.1469791.166875-.3497916.2726042-.5692708.2965625z"/><path d="m12.4772636 18.1337273c-1.7688541 0-3.49791662-.5316667-4.96864579-1.5280208-1.47072916-.99625-2.61708333-2.4122917-3.29395833-4.0690625-.676875-1.6567709-.85395833-3.4797917-.50885417-5.23864587.345-1.75875 1.19677084-3.374375 2.4475-4.64239583 1.25083334-1.26802084 2.844375-2.1315625 4.57916669-2.48135417 1.7347916-.34989584 3.5330208-.1703125 5.1671875.5159375 1.6341666.68625 3.0309375 1.84833333 4.0136458 3.339375s1.5071875 3.2440625 1.5071875 5.03729167c0 1.1907292-.23125 2.3696875-.6807292 3.4697917-.4494791 1.1-1.1082291 2.0995833-1.9386458 2.9414583-.8305208.8419792-1.8163542 1.5097917-2.9014583 1.9655208-1.085.455625-2.2480209.6901042-3.4223959.6901042z"/></g></g></g><path d="m38.2307418 10.3309524c1.5830783-1.71287788 4.1155433-1.77245625 5.7646659-.178735 1.6589543-1.59372125 4.1914193-1.53414288 5.7744976.178735 1.5830784 1.712878 1.638142 4.4529845.1651908 6.2373219l-5.9347725 6.4317257-5.9394224-6.4264069c-1.4683014-1.7896562-1.4132378-4.5297627.1698406-6.2426407z" fill="#f44747"/><g transform="translate(28 12)"><circle cx="7" cy="7" fill="#fed766" r="7"/><path d="m7.03889868 9.65054686c-.05282352-.01171872-.10701911-.01382814-.16052861-.005625-.53623863-.06398436-.9407615-.52898436-.94167625-1.08210936 0-.26507814-.2096933-.48-.4683227-.48-.25862934 0-.4683227.21492186-.4683227.48.00137207.92367186.60415461 1.7327344 1.47311275 1.9771875v.48c0 .2650781.2096933.48.4683227.48s.4683227-.2149219.4683227-.48v-.4509375c1.00296067-.2151562 1.68463544-1.17257814 1.57921712-2.2171875-.10564705-1.04460936-.96431491-1.8384375-1.98899948-1.83867186-.58723277 0-1.06333039-.48796878-1.06333039-1.08984378s.47609762-1.08984372 1.06333039-1.08984372c.58723276 0 1.06333038.48796872 1.06333038 1.08984372 0 .26507814.20969331.48.46832271.48.25862934 0 .4683227-.21492186.4683227-.48-.00137207-.96984372-.66429567-1.80632808-1.59019343-2.00648436v-.436875c0-.26507814-.2096933-.48-.4683227-.48s-.4683227.21492186-.4683227.48v.46617186c-.96637295.27046878-1.58836404 1.23210942-1.45527621 2.24976564.13308782 1.01765622.980322 1.77726564 1.98213925 1.77703122.57945785 0 1.05212535.47554692 1.06264435 1.06921878.0107476.59367186-.44476941 1.08679686-1.02376988 1.10835936z" fill="#e3f2fd" fill-rule="nonzero"/></g></g></svg>