<svg fill="none" height="50" viewBox="0 0 117 50" width="117" xmlns="http://www.w3.org/2000/svg"><g fill="#16d2aa"><path d="m24.8828.0000036c-3.2681-.00176297-6.5046.6437464-9.5243 1.8994864-3.0198 1.25574-5.76348 3.09702-8.07442 5.41883-2.31095 2.32181-4.14394 5.07848-5.3938 8.11238-1.249868 3.0339-1.89203114 6.2856-1.89027641 9.5691 0 6.6304 2.62151641 12.9895 7.28798641 17.6779 4.66651 4.6884 10.99551 7.3223 17.59481 7.3223 6.5994 0 12.9284-2.6339 17.5949-7.3223s7.288-11.0475 7.288-17.6779c.0017-3.2835-.6404-6.5352-1.8903-9.5691-1.2498-3.0339-3.0828-5.79057-5.3938-8.11238-2.3109-2.32181-5.0546-4.16309-8.0744-5.41883-3.0197-1.25574-6.2562-1.90124937-9.5244-1.8994864zm0 46.5395964c-5.6871 0-11.1415-2.2688-15.16418-6.3078-4.02269-4.0391-6.28456-9.5181-6.2881-15.232.00354-5.7151 2.26481-11.1949 6.28712-15.23615 4.02226-4.04121 9.47676-6.31312 15.16516-6.31667 5.6872.00356 11.1402 2.27573 15.1604 6.31733 4.0202 4.04159 6.2786 9.52159 6.2786 15.23549.007 2.8332-.5426 5.6399-1.6168 8.2594-1.0743 2.6195-2.6521 5.0005-4.6436 7.0063s-4.3575 3.5972-6.9621 4.6831c-2.6045 1.0858-5.3966 1.6447-8.2165 1.6447z"/><path d="m14.1233 30.2042c.3217.4277.74.7724 1.2205 1.0056s1.0094.3483 1.5428.3356c.5337.0138 1.0629-.1007 1.5435-.334.4807-.2333.899-.5787 1.2199-1.0072.7285-1.0151 1.0868-2.2514 1.0146-3.5007v-7.7387l4.1113-2.4945v10.3675c.0737 1.1283-.0851 2.2596-.4664 3.3235-.3812 1.0639-.9767 2.0371-1.7494 2.8592-.7545.722-1.6453 1.285-2.6197 1.6559-.9744.3708-2.0125.5421-3.0538.5036-1.0421.0368-2.081-.1367-3.0554-.5098-.9744-.3732-1.8646-.9384-2.618-1.6628-.7727-.8198-1.36954-1.7907-1.75305-2.852s-.54539-2.1907-.47615-3.3176v-7.873l4.1113-2.4945v10.2332c-.0683 1.2509.2947 2.4874 1.028 3.5007z"/><path d="m38.8461 18.1331c.6778.6499 1.2032 1.4433 1.5379 2.3225.3348.8792.4706 1.8222.3977 2.7607.0799.9339-.0582 1.8738-.4035 2.7446s-.8883 1.6486-1.5856 2.2715c-1.7964 1.1963-3.9378 1.7578-6.087 1.5959h-2.443v2.6824l-4.1117 2.4814v-18.5221h6.5013c2.194-.182 4.3828.4057 6.1939 1.6631zm-3.0303 7.2826c.5404-.6931.8068-1.5626.7476-2.4411.0409-.4303-.0254-.8638-.1932-1.2619-.1679-.3981-.4318-.7481-.7679-1.018-.9101-.5122-1.9497-.7454-2.9902-.6706h-2.3495v6.2233h2.7634c.4969.0606 1.0007.018 1.4806-.1251.4799-.143.9255-.3835 1.3092-.7066z"/><path d="m63.5424 25.2955-2.4695.9925c-.1106-.6819-.467-1.2995-1.0012-1.7348-.5341-.4352-1.2088-.6577-1.8958-.6257-.4884-.0269-.9762.0622-1.4239.2603-.4476.1981-.8424.4993-1.1524.8795-.6574.9435-.9772 2.083-.9076 3.2325-.0723 1.1373.2483 2.2646.9076 3.1919.3127.3761.7085.6738 1.1557.8694.4472.1955.9336.2837 1.4206.2573.7289.0345 1.4468-.1885 2.0291-.6303.5346-.4578.8934-1.0888 1.0146-1.7839l2.4163.818c-.3245 1.0847-1.0012 2.0291-1.9222 2.6824-1.0299.6865-2.2493 1.0294-3.4843.9793-.8379.0479-1.6766-.0803-2.4626-.3759-.786-.2955-1.502-.7521-2.1028-1.3408-.5699-.642-1.0085-1.3907-1.2902-2.2031-.2818-.8123-.4011-1.6726-.3517-2.5314-.0997-1.7362.4854-3.4421 1.6286-4.7479.5942-.5863 1.3034-1.0417 2.0825-1.3373.7792-.2956 1.6111-.4249 2.4427-.3795 1.1584-.1005 2.3171.1925 3.2901.832.973.6396 1.7041 1.5889 2.0764 2.6955z"/><path d="m74.7427 23.0018c.455.4423.8096.9782 1.04 1.5707s.3311 1.2278.2949 1.8628v8.0472h-2.6698v-7.202c0-2.1862-.8811-3.2862-2.6698-3.2862-.4414-.0064-.8797.0773-1.288.2455-.4084.1683-.7784.4177-1.0882.7335-.3515.4013-.6201.869-.7897 1.3756s-.2368 1.0422-.1982 1.5753v6.5583h-2.6698v-18.0122h2.6698v7.5777c.3703-.7176.9471-1.3065 1.6553-1.69.7263-.3745 1.5332-.5632 2.3495-.5497 1.2326-.0533 2.4381.3742 3.364 1.1935z"/><path d="m78.0931 19.5418c-.1596-.1613-.2839-.3546-.3643-.5671-.0805-.2126-.1155-.4399-.103-.667-.013-.2231.022-.4463.1026-.6546.0807-.2083.2051-.3967.3647-.5524.3734-.3104.8516-.4642 1.3349-.4293.4839-.0392.9636.1151 1.3349.4293.1596.1557.2838.3441.3644.5524s.1157.4315.1027.6546c.0125.2271-.0225.4544-.103.667-.0805.2125-.2045.4058-.3641.5671-.1822.1581-.3947.2776-.6241.3513-.2293.0738-.471.1001-.7108.0776-.2397.021-.4813-.0062-.7104-.0798-.2292-.0737-.4414-.1923-.6245-.3491zm2.6698 14.9408h-2.6698v-12.4195h2.6698z"/><path d="m93.8052 29.2653h-9.0372c.0831.9429.4941 1.8261 1.1613 2.4945.6676.5841 1.5315.8912 2.4162.8585.6984.0258 1.3918-.1265 2.0158-.4427.5141-.2547.9073-.7028 1.0944-1.2472l2.2028.9119c-.89 1.9134-2.6698 2.8745-5.3397 2.8835-.8358.0467-1.672-.0817-2.4557-.3773-.7837-.2955-1.4975-.7515-2.0962-1.3392-.57-.642-1.0086-1.3906-1.2903-2.203-.2818-.8124-.4014-1.6726-.352-2.5315-.1079-1.7321.4569-3.4388 1.5754-4.7613.5793-.5832 1.2747-1.0365 2.0409-1.3301s1.5856-.4208 2.4042-.3733c.7828-.0434 1.566.0825 2.296.3694.7301.2869 1.3903.7282 1.9359 1.2937 1.0445 1.2291 1.5837 2.8117 1.5083 4.426.0086.4575-.0182.9149-.0801 1.3681zm-7.9428-4.4932c-.6342.6678-1.0205 1.5345-1.0944 2.4545h6.6746c-.0687-.9055-.4404-1.7612-1.0546-2.4276-.2888-.292-.6353-.5202-1.0168-.6703s-.79-.2186-1.1994-.2014c-.8507-.0365-1.6812.2672-2.3094.8448z"/><path d="m105.766 22.063-4.912 12.4195h-2.8971l-4.9392-12.4195h2.9235l3.4842 10.2602 3.5776-10.2602z"/><path d="m116.913 29.2653h-9.038c.083.9429.495 1.826 1.162 2.4944.668.5842 1.532.8913 2.416.8586.699.0258 1.392-.1265 2.016-.4427.514-.2547.907-.7028 1.094-1.2472l2.203.9119c-.89 1.9134-2.67 2.8745-5.34 2.8834-.835.0476-1.672-.0803-2.456-.3759s-1.498-.7521-2.096-1.3405c-.572-.641-1.013-1.3893-1.297-2.2017s-.406-1.673-.358-2.5328c-.104-1.7339.465-3.4408 1.588-4.7613.58-.5832 1.275-1.0365 2.042-1.3301.766-.2936 1.585-.4208 2.404-.3733.783-.0434 1.565.0825 2.296.3694.73.2869 1.39.7282 1.935 1.2937 1.045 1.2291 1.584 2.8117 1.509 4.426.009.4575-.018.9149-.08 1.3681zm-7.943-4.4932c-.634.6678-1.021 1.5345-1.095 2.4545h6.675c-.076-.9038-.447-1.7572-1.055-2.4276-.288-.292-.635-.5202-1.016-.6703-.382-.1501-.79-.2186-1.199-.2014-.851-.0365-1.682.2672-2.31.8448z"/></g></svg>