<svg fill="none" height="350" viewBox="0 0 829 350" width="829" xmlns="http://www.w3.org/2000/svg" xmlns:xlink="http://www.w3.org/1999/xlink"><clipPath id="a"><path d="m0 0h828.04v349.92h-828.04z"/></clipPath><g clip-path="url(#a)"><path d="m0 0h828.04v349.92h-828.04z" fill="#fff"/><g fill="#fed766"><path d="m21.73 111.75 17.4-30.14 17.41 30.14z"/><path d="m21.73 167.07 17.4-30.14 17.41 30.14z"/><path d="m21.73 222.39 17.4-30.14 17.41 30.14z"/><path d="m293.39 111.75 17.4-30.14 17.41 30.14z"/><path d="m293.39 167.07 17.4-30.14 17.41 30.14z"/><path d="m293.39 222.39 17.4-30.14 17.41 30.14z"/><path d="m239.06 56.44 17.4-30.15 17.41 30.15z"/><path d="m239.06 111.75 17.4-30.14 17.41 30.14z"/><path d="m239.06 167.07 17.4-30.14 17.41 30.14z"/><path d="m239.06 222.39 17.4-30.14 17.41 30.14z"/><path d="m239.06 277.71 17.4-30.14 17.41 30.14z"/><path d="m184.72 56.44 17.41-30.15 17.4 30.15z"/><path d="m184.72 111.75 17.41-30.14 17.4 30.14z"/><path d="m184.72 167.07 17.41-30.14 17.4 30.14z"/><path d="m184.72 222.39 17.41-30.14 17.4 30.14z"/><path d="m184.72 277.71 17.41-30.14 17.4 30.14z"/><path d="m184.72 333.03 17.41-30.14 17.4 30.14z"/><path d="m130.39 56.44 17.41-30.15 17.4 30.15z"/><path d="m130.39 111.75 17.41-30.14 17.4 30.14z"/><path d="m130.39 167.07 17.41-30.14 17.4 30.14z"/><path d="m130.39 222.39 17.41-30.14 17.4 30.14z"/><path d="m130.39 277.71 17.41-30.14 17.4 30.14z"/><path d="m130.39 333.03 17.41-30.14 17.4 30.14z"/><path d="m76.06 56.44 17.4-30.15 17.41 30.15z"/><path d="m76.06 111.75 17.4-30.14 17.41 30.14z"/><path d="m76.06 167.07 17.4-30.14 17.41 30.14z"/><path d="m76.06 222.39 17.4-30.14 17.41 30.14z"/><path d="m76.06 277.71 17.4-30.14 17.41 30.14z"/><path d="m174.96 0c-96.63 0-174.96 78.33-174.96 174.96s78.33 174.96 174.96 174.96 174.96-78.33 174.96-174.96-78.33-174.96-174.96-174.96zm0 325.72c-83.26 0-150.76-67.5-150.76-150.76s67.5-150.76 150.76-150.76 150.76 67.5 150.76 150.76c0 83.27-67.49 150.76-150.76 150.76z"/></g><path d="m99.34 211.43c4.82 5.99 11.31 8.99 19.46 8.99s14.61-2.99 19.37-8.99c4.76-5.99 7.14-14.18 7.14-24.56v-54.17l28.92-17.37v72.47c0 18.78-5.19 33.21-15.57 43.28s-23.66 15.11-39.85 15.11-29.5-5.07-39.94-15.2c-10.45-10.14-15.67-24.53-15.67-43.19v-55.1l28.91-17.37v71.54c0 10.38 2.41 18.57 7.23 24.56z" fill="#16d2aa"/><path d="m273.1 126.91c9.08 7.72 13.62 19.59 13.62 35.59s-4.66 27.71-13.99 35.12c-9.33 7.42-23.57 11.12-42.72 11.12h-17.24v18.77l-28.91 17.37v-129.55h45.78c19.89 0 34.38 3.86 43.46 11.58zm-21.22 50.97c3.46-3.89 5.19-9.57 5.19-17.05 0-7.47-2.26-12.79-6.77-15.94s-11.52-4.73-21.04-4.73h-16.5v43.56h19.46c9.65 0 16.2-1.95 19.66-5.84z" fill="#16d2aa"/><path d="m449.47 177-17.37 6.95c-3.01-11-9.79-16.51-20.33-16.51-7.76 0-13.79 2.67-18.07 7.99-4.29 5.33-6.43 12.86-6.43 22.59s2.14 17.2 6.43 22.41c4.28 5.21 10.31 7.82 18.07 7.82 5.9 0 10.65-1.45 14.24-4.34 3.6-2.89 5.97-7.06 7.13-12.51l17.03 5.73c-2.55 8.11-7.06 14.45-13.56 19.02-6.48 4.58-14.65 6.86-24.49 6.86-13.67 0-24.35-4-32.05-11.99-7.71-7.99-11.56-19.05-11.56-33.18s3.82-25.19 11.47-33.18 18.24-11.99 31.79-11.99c18.99.01 31.56 8.12 37.7 24.33z" fill="#16d2aa"/><path d="m528.26 161.02c6.07 5.56 9.12 13.55 9.12 23.97v56.29h-18.58v-50.38c0-15.29-6.2-22.93-18.6-22.93-6.49 0-12.05 2.26-16.68 6.78s-6.95 11.41-6.95 20.68v45.87h-18.58v-125.98h18.58v52.99c2.9-5.32 6.75-9.26 11.55-11.81 4.81-2.54 10.34-3.82 16.59-3.82 9.62 0 17.47 2.78 23.55 8.34z" fill="#16d2aa"/><path d="m549.72 136.78c-2.21-2.02-3.3-4.89-3.3-8.6s1.1-6.54 3.3-8.51 5.27-2.95 9.21-2.95 6.98.98 9.12 2.95 3.22 4.81 3.22 8.51c0 3.71-1.07 6.57-3.22 8.6-2.14 2.03-5.19 3.04-9.12 3.04-3.94 0-7.02-1.01-9.21-3.04zm18.41 104.5h-18.58v-86.87h18.58z" fill="#16d2aa"/><path d="m662.29 204.8h-63.58c1.04 7.64 3.76 13.46 8.17 17.46 4.4 4 10.08 5.99 17.02 5.99 5.68 0 10.39-1.01 14.16-3.04 3.76-2.02 6.34-4.95 7.73-8.77l15.46 6.43c-6.49 13.44-18.94 20.15-37.35 20.15-13.66 0-24.35-4-32.06-11.99-7.7-7.99-11.55-19.05-11.55-33.18 0-14.25 3.7-25.34 11.12-33.27 7.41-7.93 17.83-11.9 31.27-11.9 12.74 0 22.64 3.88 29.71 11.64 7.06 7.76 10.6 18.07 10.6 30.92 0 3.36-.23 6.55-.7 9.56zm-55.86-31.45c-4.11 3.94-6.68 9.67-7.73 17.2h46.91c-.93-7.3-3.39-12.97-7.39-17.03-3.99-4.05-9.18-6.08-15.55-6.08-6.71.01-12.12 1.98-16.24 5.91z" fill="#16d2aa"/><path d="m748.99 154.42-34.58 86.87h-20.33l-34.75-86.87h20.5l24.5 71.75 25.19-71.75z" fill="#16d2aa"/><path d="m827.34 204.8h-63.58c1.05 7.64 3.76 13.46 8.17 17.46 4.4 4 10.08 5.99 17.03 5.99 5.67 0 10.39-1.01 14.16-3.04 3.76-2.02 6.33-4.95 7.73-8.77l15.46 6.43c-6.49 13.44-18.93 20.15-37.35 20.15-13.67 0-24.35-4-32.06-11.99-7.7-7.99-11.55-19.05-11.55-33.18 0-14.25 3.7-25.34 11.12-33.27 7.41-7.93 17.83-11.9 31.27-11.9 12.74 0 22.64 3.88 29.71 11.64 7.06 7.76 10.6 18.07 10.6 30.92-.01 3.36-.24 6.55-.71 9.56zm-55.85-31.45c-4.11 3.94-6.68 9.67-7.73 17.2h46.91c-.93-7.3-3.39-12.97-7.39-17.03-3.99-4.05-9.18-6.08-15.55-6.08-6.72.01-12.13 1.98-16.24 5.91z" fill="#16d2aa"/></g></svg>