<svg fill="none" height="1024" viewBox="0 0 1024 1024" width="1024" xmlns="http://www.w3.org/2000/svg"><path d="m0 0h1024v1024h-1024z" fill="#16d2aa"/><g fill="#fff"><path d="m474.133 100.837c-80.65 7.914-156.813 38.862-220.224 89.182-16.649 13.348-50.303 47.012-63.646 63.667-51.602 64.967-82.421 142.455-89.388 224.786-1.7713 20.907-.709 66.148 1.889 85.284 10.982 80.677 42.156 152.258 92.813 212.618 13.107 15.71 38.495 41.107 53.019 53.155 58.451 48.312 127.647 79.141 204.872 90.954 20.901 3.307 73.093 4.606 96.001 2.48 96.71-9.095 185.508-50.792 254.113-119.421 68.606-68.628 110.289-157.456 119.381-254.197 2.126-22.916.827-75.126-2.479-96.033-11.808-77.252-42.628-146.471-90.924-204.941-19.483-23.506-52.9-54.69-77.343-71.936-56.208-40.043-117.965-64.258-188.342-74.062-16.177-2.245-72.974-3.1896-89.742-1.536zm78.407 58.352c154.451 18.073 278.674 133.241 308.194 285.854 11.336 58.707 7.321 121.311-11.69 178.364-23.616 70.873-66.48 129.934-126.584 174.584-78.643 58.233-180.902 81.385-277.257 62.722-125.522-24.333-228.253-113.987-269.464-234.944-8.148-23.86-14.17-52.328-16.886-79.023-2.125-20.671-.944-68.983 2.244-88.709 9.801-61.542 33.181-115.169 72.148-165.961 11.1-14.411 44.635-47.957 59.041-59.061 51.012-39.216 106.392-63.195 166.024-71.936 21.845-3.189 21.845-3.189 52.428-3.425 17.477-.119 31.883.354 41.802 1.535z"/><path d="m282.603 391.534-33.889 20.435-.119 72.054c0 45.359.473 75.952 1.299 82.685 2.834 23.034 11.336 46.54 22.79 62.487 10.155 14.174 27.513 28.821 43.809 36.972 9.564 4.843 27.513 10.513 38.849 12.166 12.871 1.89 39.321 1.654 51.484-.472 26.332-4.725 46.878-14.884 65.063-32.247 15.351-14.766 24.679-29.649 31.056-49.73 7.085-22.443 6.966-20.553 7.439-126.98l.472-97.805-2.834 1.536c-1.653.826-17.004 10.04-34.362 20.435l-31.41 18.899v66.739c0 40.515-.472 70.873-1.299 77.369-4.251 35.083-23.498 58.116-52.074 62.014-33.535 4.725-60.222-15.001-69.078-50.792-1.889-8.15-2.125-16.655-2.716-102.53l-.59-93.552z"/><path d="m533.174 524.067v152.967l34.008-20.317 33.889-20.435.354-21.971.237-21.852 34.007-.709c36.37-.709 49.595-2.126 68.134-7.441 20.9-6.025 37.432-15.593 49.004-28.468 7.557-8.505 15.587-24.687 19.129-38.744 2.48-9.449 2.716-13.347 2.598-35.436 0-22.798-.236-25.751-3.07-36.145-10.982-40.516-36.37-61.66-85.374-70.991-12.044-2.245-18.066-2.481-82.893-2.953l-70.023-.473zm136.739-90.954c22.554 5.788 32.945 17.482 35.07 39.334 1.89 18.191-4.605 40.398-13.815 48.194-11.1 9.45-20.428 11.222-59.041 11.222h-30.465v-50.911-50.91l30.465.59c22.79.355 32.236.945 37.786 2.481z"/></g></svg>