<svg fill="none" height="46" viewBox="0 0 46 46" width="46" xmlns="http://www.w3.org/2000/svg"><path d="m22.5791 0c12.4699.0000835 22.5791 10.1091 22.5791 22.5791-.0001 12.4699-10.1092 22.579-22.5791 22.5791-12.47 0-22.5790165-10.1092-22.5791-22.5791 0-12.47 10.1091-22.5791 22.5791-22.5791zm-4.4853 15.3535v8.2031c.0769 1.3242-.3041 2.6351-1.0801 3.711-.3419.4542-.7879.8201-1.2998 1.0674-.5121.2472-1.0761.369-1.6446.3545-.5683.0134-1.1316-.1093-1.6435-.3565s-.9581-.612-1.3008-1.0654c-.7811-1.0741-1.16756-2.385-1.0947-3.711v-10.8466l-4.37991 2.6435v8.3457c-.07375 1.1946.09827 2.3916.50684 3.5166s1.04493 2.1544 1.86816 3.0235c.80254.7676 1.75113 1.3662 2.78911 1.7617 1.038.3955 2.1446.58 3.2548.541 1.1092.0408 2.215-.1412 3.253-.5342 1.0379-.3931 1.9872-.9897 2.791-1.7549.8232-.8714 1.458-1.9035 1.8642-3.0312.4061-1.1275.5756-2.3267.4971-3.5225v-10.9892zm19.3691-.8818c-1.9295-1.3327-4.2613-1.9556-6.5986-1.7627h-6.9258v19.6328l4.3799-2.6299v-2.8428h2.6025c2.2897.1716 4.5715-.4242 6.4853-1.6923.7428-.6602 1.3217-1.4843 1.6895-2.4073.3678-.9229.5148-1.9193.4297-2.9091.0777-.9948-.0672-1.9949-.4238-2.9268-.3567-.9319-.9166-1.7731-1.6387-2.4619zm-6.6416 2.0049c1.1085-.0792 2.2159.168 3.1855.7109.3581.2861.6396.6571.8184 1.0791.1786.4218.2496.881.206 1.3369.0631.9312-.221 1.8532-.7968 2.5879-.4087.3423-.8834.5974-1.3946.749-.5111.1516-1.0478.197-1.5771.1328h-2.9443v-6.5966z" fill="#16d2aa"/></svg>