<svg fill="none" height="80" viewBox="0 0 80 80" width="80" xmlns="http://www.w3.org/2000/svg"><path d="m40 80c22.0914 0 40-17.9086 40-40s-17.9086-40-40-40-40 17.9086-40 40 17.9086 40 40 40z" fill="#fed766"/><path d="m40.3842 55.952c-12.2732 0-16.5848-5.5733-16.7609-5.808-.0631-.0827-.0969-.184-.0961-.288v-13.1573c0-.0635.0126-.1264.0371-.1849.0245-.0586.0603-.1118.1055-.1564.0451-.0447.0987-.0799.1576-.1037s.1219-.0357.1854-.035h33.2924c.0636-.0007.1266.0112.1855.035s.1124.059.1576.1037c.0452.0446.081.0978.1055.1564.0244.0585.037.1214.037.1849v13.1573c-.0014.1128-.0409.2218-.112.3094-.2028.2346-5.0427 5.7866-17.2946 5.7866z" fill="#2a4494"/><path d="m38.7621 48.3413c-.0721 0-.1433-.0164-.2081-.048l-24.9573-11.4026c-.0861-.0363-.1595-.0972-.2111-.1749-.0517-.0778-.0792-.1691-.0792-.2625 0-.0933.0275-.1846.0792-.2624.0516-.0778.125-.1386.2111-.1749l26.5795-10.912c.122-.0463.2568-.0463.3789 0l25.8324 10.912c.0873.0366.1618.0981.2142.1769.0524.0787.0804.1712.0804.2658s-.028.187-.0804.2658c-.0524.0787-.1269.1403-.2142.1768l-27.4333 11.4027c-.0612.0242-.1263.0368-.1921.0373z" fill="#1855d1"/><g fill="#fff"><path d="m55.2028 60.2667h-3.2444c-.0744-.0007-.1476-.0184-.214-.0517-.0664-.0334-.1243-.0816-.1691-.1408-.0449-.0593-.0755-.1281-.0896-.201-.0141-.073-.0112-.1482.0084-.2199l1.6009-5.5253c.029-.1004.0901-.1886.1739-.2512s.1857-.0961.2903-.0955c.1053-.0009.2081.0324.2928.095.0847.0625.1467.1508.1768.2517l1.6009 5.5253c.0197.0721.0225.1478.0081.2212-.0143.0733-.0454.1424-.0909.2018-.0454.0593-.104.1074-.1711.1404-.0671.0331-.1409.0501-.2157.05z"/><path d="m54.0662 54.5174h-.9658v-12.1547l-12.348-6.096.4323-.8587 12.6147 6.224c.08.0404.1473.1021.1944.1784.0471.0762.0722.164.0724.2536z"/><path d="m42.8335 35.84c0 .7893-.8645 1.4347-1.937 1.4347-1.0726 0-1.9424-.6454-1.9424-1.4347s.8698-1.44 1.9424-1.44c1.0725 0 1.937.6453 1.937 1.44z"/></g></svg>