<svg fill="none" height="80" viewBox="0 0 80 80" width="80" xmlns="http://www.w3.org/2000/svg"><path d="m40 80c22.0914 0 40-17.9086 40-40s-17.9086-40-40-40-40 17.9086-40 40 17.9086 40 40 40z" fill="#1855d1"/><path d="m59.2103 56h-2.5561c-.1654 0-4.0768 0-5.9711-.688-1.5635-.5334-3.3192-2.016-3.9648-2.576-.6084.0586-1.1686.0907-1.7023.0907-4.4824 0-8.6766-1.7067-11.2059-4.5707l17.9295-15.1893c4.269 1.8666 6.937 5.3919 6.937 9.1946 0 3.1413-1.7609 6.064-4.8505 8.0747-.0027.0319-.0027.064 0 .096v.0533c.0434.626.2257 1.2345.5336 1.7813.571.9547 2.1345 2.064 2.7214 2.4107z" fill="#16d2aa"/><path d="m23.3405 51.92h-2.5507l2.1345-1.3227c.6563-.4053 2.5186-1.7066 3.2017-2.832.4128-.7109.6506-1.5098.6937-2.3306-3.5966-2.3094-5.651-5.6854-5.651-9.312 0-6.6827 7.0224-12.1227 15.6563-12.1227 8.634 0 15.6617 5.44 15.6617 12.1227 0 6.6826-7.0277 12.1173-15.6617 12.1173-.5923 0-1.5155-.0693-2.0117-.1067-.7097.624-2.7748 2.3414-4.5945 2.9974-2.1771.7786-6.6862.7893-6.8783.7893z" fill="#fff"/><g fill="#343440"><path d="m42.1931 37.6587c.8842 0 1.6009-.7164 1.6009-1.6 0-.8837-.7167-1.6-1.6009-1.6-.8841 0-1.6008.7163-1.6008 1.6 0 .8836.7167 1.6 1.6008 1.6z"/><path d="m36.2007 37.6587c.8841 0 1.6009-.7164 1.6009-1.6 0-.8837-.7168-1.6-1.6009-1.6s-1.6008.7163-1.6008 1.6c0 .8836.7167 1.6 1.6008 1.6z"/><path d="m30.2028 37.6587c.8841 0 1.6008-.7164 1.6008-1.6 0-.8837-.7167-1.6-1.6008-1.6s-1.6009.7163-1.6009 1.6c0 .8836.7168 1.6 1.6009 1.6z"/></g></svg>