<svg fill="none" height="80" viewBox="0 0 80 80" width="80" xmlns="http://www.w3.org/2000/svg"><path d="m40 80c22.0914 0 40-17.9086 40-40s-17.9086-40-40-40-40 17.9086-40 40 17.9086 40 40 40z" fill="#f7aef8"/><path d="m54.2667 59.2h-28.5334c-.2255.0021-.4492-.0402-.6584-.1246-.2092-.0843-.3997-.2091-.5606-.3671-.161-.1579-.2892-.3461-.3775-.5536-.0882-.2076-.1347-.4305-.1368-.656v-34.9974c.0021-.2255.0486-.4484.1368-.656.0883-.2075.2165-.3957.3775-.5536.1609-.158.3514-.2828.5606-.3671.2092-.0844.4329-.1267.6584-.1246h28.5334c.2255-.0021.4492.0402.6584.1246.2092.0843.3997.2091.5606.3671.161.1579.2892.3461.3775.5536.0882.2076.1347.4305.1368.656v34.9974c-.0021.2255-.0486.4484-.1368.656-.0883.2075-.2165.3957-.3775.5536-.1609.158-.3514.2828-.5606.3671-.2092.0844-.4329.1267-.6584.1246z" fill="#f44747"/><path d="m51.6107 33.2906h-23.2213c-.2773-.0083-.5405-.1243-.7336-.3235-.1932-.1991-.3012-.4657-.3011-.7431v-7.264c-.0001-.2775.1079-.544.3011-.7432.1931-.1991.4563-.3152.7336-.3235h23.2213c.2774.0083.5405.1244.7337.3235.1932.1992.3011.4657.301.7432v7.2426c.0058.2812-.0997.5532-.2935.7569-.1937.2038-.4601.3228-.7412.3311z" fill="#fff"/><path d="m32.0374 40.5333h-3.7706c-.102 0-.203-.0202-.2972-.0593-.0942-.0392-.1797-.0967-.2516-.1691-.0718-.0723-.1287-.1582-.1672-.2527-.0386-.0944-.0581-.1955-.0574-.2975v-2.624c-.0007-.102.0188-.2032.0574-.2976.0385-.0945.0954-.1803.1672-.2527.0719-.0724.1574-.1298.2516-.169s.1952-.0594.2972-.0594h3.792c.1017 0 .2025.0202.2963.0595.0939.0392.1791.0967.2505.1692.0715.0724.1278.1584.1658.2528s.0568.1954.0554.2972v2.624c.0014.1035-.018.2063-.0573.3022-.0393.0958-.0976.1827-.1713.2555-.0738.0727-.1614.1298-.2578.1677-.0964.038-.1994.0561-.303.0532z" fill="#2a4494"/><path d="m32.0373 40.8h-3.7707c-.2829 0-.5542-.1124-.7542-.3124-.2001-.2-.3124-.4713-.3124-.7542v-2.6027c0-.2829.1123-.5542.3124-.7543.2-.2.4713-.3124.7542-.3124h3.792c.2773.0083.5405.1244.7337.3235.1931.1992.3011.4658.301.7432v2.624c-.0056.2773-.1189.5416-.3161.7368-.1971.1951-.4625.3058-.7399.3085zm-3.7707-4.1813c-.1414 0-.2771.0562-.3771.1562s-.1562.2357-.1562.3771v2.624c0 .1415.0562.2771.1562.3771.1.1001.2357.1563.3771.1563h3.792c.1358-.0082.2634-.068.3566-.1671.0932-.0992.145-.2302.1448-.3663v-2.6453c.0002-.1361-.0516-.2671-.1448-.3663-.0932-.0991-.2208-.1589-.3566-.167z" fill="#f44747"/><path d="m38.6081 40.5333h-3.7867c-.102 0-.203-.0202-.2971-.0594-.0942-.0391-.1797-.0966-.2516-.169-.0719-.0723-.1287-.1582-.1673-.2527-.0385-.0944-.058-.1955-.0573-.2975v-2.624c-.0007-.102.0188-.2032.0573-.2976.0386-.0945.0954-.1803.1673-.2527s.1574-.1298.2516-.169c.0941-.0392.1951-.0594.2971-.0594h3.7867c.102 0 .203.0202.2972.0594s.1797.0966.2515.169c.0719.0724.1288.1582.1673.2527.0386.0944.058.1956.0573.2976v2.624c.0007.102-.0187.2031-.0573.2975-.0385.0945-.0954.1804-.1673.2527-.0718.0724-.1573.1299-.2515.169-.0942.0392-.1952.0594-.2972.0594z" fill="#2a4494"/><path d="m38.608 40.8h-3.7867c-.2829 0-.5542-.1124-.7542-.3124-.2001-.2-.3125-.4713-.3125-.7542v-2.6027c0-.2829.1124-.5542.3125-.7543.2-.2.4713-.3124.7542-.3124h3.7867c.2829 0 .5542.1124.7542.3124.2001.2001.3124.4714.3124.7543v2.624c-.0055.2792-.1204.545-.3198.7405-.1995.1954-.4676.3049-.7468.3048zm-3.7867-4.1813c-.1414 0-.2771.0562-.3771.1562s-.1562.2357-.1562.3771v2.624c0 .1415.0562.2771.1562.3771.1.1001.2357.1563.3771.1563h3.7867c.1414 0 .2771-.0562.3771-.1563.1-.1.1562-.2356.1562-.3771v-2.6453c0-.1415-.0562-.2771-.1562-.3771-.1-.1001-.2357-.1562-.3771-.1562z" fill="#f44747"/><path d="m45.1841 40.5333h-3.792c-.1018 0-.2025-.0202-.2964-.0594-.0939-.0393-.179-.0968-.2505-.1693-.0714-.0724-.1278-.1584-.1657-.2528-.038-.0944-.0568-.1954-.0554-.2971v-2.624c-.0014-.1018.0174-.2028.0554-.2972.0379-.0944.0943-.1804.1657-.2528.0715-.0725.1566-.13.2505-.1692.0939-.0393.1946-.0595.2964-.0595h3.792c.102 0 .203.0202.2972.0594s.1796.0966.2515.169.1288.1582.1673.2527c.0386.0944.058.1956.0573.2976v2.624c.0007.102-.0187.2031-.0573.2975-.0385.0945-.0954.1804-.1673.2527-.0719.0724-.1573.1299-.2515.169-.0942.0392-.1952.0594-.2972.0594z" fill="#2a4494"/><path d="m45.1841 40.8h-3.792c-.2773-.0083-.5405-.1243-.7337-.3235-.1931-.1991-.3011-.4657-.301-.7431v-2.6027c-.0001-.2774.1079-.544.301-.7432.1932-.1991.4564-.3152.7337-.3235h3.792c.2829 0 .5542.1124.7542.3124.2001.2001.3125.4714.3125.7543v2.624c-.0056.2792-.1205.545-.3199.7405-.1994.1954-.4676.3049-.7468.3048zm-3.792-4.1813c-.1358.0082-.2634.0679-.3566.1671-.0932.0991-.145.2302-.1447.3662v2.624c-.0003.1361.0515.2671.1447.3663.0932.0991.2208.1589.3566.1671h3.792c.1414 0 .2771-.0562.3771-.1563.1-.1.1562-.2356.1562-.3771v-2.6453c0-.1415-.0562-.2771-.1562-.3771-.1-.1001-.2357-.1562-.3771-.1562z" fill="#f44747"/><path d="m51.7334 40.5333h-3.7867c-.102 0-.203-.0202-.2972-.0594-.0942-.0391-.1796-.0966-.2515-.169-.0719-.0723-.1288-.1582-.1673-.2527-.0386-.0944-.058-.1955-.0573-.2975v-2.624c-.0007-.102.0187-.2032.0573-.2976.0385-.0945.0954-.1803.1673-.2527s.1573-.1298.2515-.169.1952-.0594.2972-.0594h3.7867c.102 0 .203.0202.2971.0594.0942.0392.1797.0966.2516.169s.1287.1582.1673.2527c.0385.0944.058.1956.0573.2976v2.624c.0007.102-.0188.2031-.0573.2975-.0386.0945-.0954.1804-.1673.2527-.0719.0724-.1574.1299-.2516.169-.0941.0392-.1951.0594-.2971.0594z" fill="#2a4494"/><path d="m51.7335 40.8h-3.7867c-.2829 0-.5542-.1124-.7543-.3124-.2-.2-.3124-.4713-.3124-.7542v-2.6027c0-.2829.1124-.5542.3124-.7543.2001-.2.4714-.3124.7543-.3124h3.7867c.2782.007.5427.1224.737.3217s.303.4667.303.745v2.624c-.0055.2746-.1166.5366-.3103.7313-.1938.1947-.4551.3072-.7297.314zm-3.7867-4.1813c-.1415 0-.2771.0562-.3771.1562s-.1562.2357-.1562.3771v2.624c0 .1415.0562.2771.1562.3771.1.1001.2356.1563.3771.1563h3.7867c.1367-.0069.2656-.0661.36-.1654.0943-.0993.1468-.231.1466-.368v-2.6453c.0002-.137-.0523-.2687-.1466-.368-.0944-.0993-.2233-.1585-.36-.1653z" fill="#f44747"/><path d="m32.0374 45.8666h-3.7707c-.2055-.0014-.4022-.084-.5471-.2299s-.2262-.3431-.2262-.5487v-2.656c0-.1016.02-.2022.0589-.296.0388-.0938.0958-.1791.1676-.2509s.1571-.1287.2509-.1676.1944-.0589.2959-.0589h3.792c.1013 0 .2017.0201.2952.059s.1784.096.2498.1679c.0714.0718.1278.1571.1661.2509s.0576.1943.0569.2956v2.6293c.0044.1056-.0128.2109-.0508.3096-.0379.0986-.0956.1884-.1695.2639-.074.0755-.1626.135-.2605.1748-.0979.0399-.2028.0593-.3085.057z" fill="#2a4494"/><path d="m32.0373 46.1067h-3.7707c-.2829 0-.5542-.1124-.7542-.3124-.2001-.2001-.3124-.4714-.3124-.7543v-2.608c0-.2829.1123-.5542.3124-.7542.2-.2001.4713-.3124.7542-.3124h3.792c.2773.0083.5405.1243.7337.3235.1931.1991.3011.4657.301.7431v2.6294c-.0056.2773-.1189.5416-.3161.7367-.1971.1952-.4625.3059-.7399.3086zm-3.7707-4.1813c-.1414 0-.2771.0561-.3771.1562-.1.1-.1562.2356-.1562.3771v2.6293c0 .1415.0562.2771.1562.3771.1.1001.2357.1563.3771.1563h3.792c.1358-.0082.2634-.068.3566-.1671.0932-.0992.145-.2302.1448-.3663v-2.656c.0002-.1361-.0516-.2671-.1448-.3662-.0932-.0992-.2208-.1589-.3566-.1671z" fill="#f44747"/><path d="m38.6081 45.8666h-3.7867c-.2056-.0014-.4022-.084-.5471-.2299s-.2262-.3431-.2262-.5487v-2.656c0-.2051.0815-.4018.2265-.5469.145-.145.3417-.2265.5468-.2265h3.7867c.2051 0 .4018.0815.5468.2265.1451.1451.2265.3418.2265.5469v2.6293c.0036.104-.0137.2077-.0509.3049-.0372.0973-.0935.186-.1656.2611s-.1585.135-.2542.1761c-.0956.0411-.1985.0626-.3026.0632z" fill="#2a4494"/><path d="m38.608 46.1067h-3.7867c-.2829 0-.5542-.1124-.7542-.3124-.2001-.2001-.3125-.4714-.3125-.7543v-2.608c0-.2829.1124-.5542.3125-.7542.2-.2001.4713-.3124.7542-.3124h3.7867c.2829 0 .5542.1123.7542.3124.2001.2.3124.4713.3124.7542v2.6294c-.0055.2791-.1204.545-.3198.7405-.1995.1954-.4676.3048-.7468.3048zm-3.7867-4.1813c-.1414 0-.2771.0561-.3771.1562-.1.1-.1562.2356-.1562.3771v2.6293c0 .1415.0562.2771.1562.3771.1.1001.2357.1563.3771.1563h3.7867c.1414 0 .2771-.0562.3771-.1563.1-.1.1562-.2356.1562-.3771v-2.656c0-.1414-.0562-.2771-.1562-.3771s-.2357-.1562-.3771-.1562z" fill="#f44747"/><path d="m45.184 45.8666h-3.792c-.1015-.0007-.2019-.0214-.2955-.0609s-.1784-.097-.2497-.1693-.1277-.158-.1659-.2521c-.0383-.0941-.0576-.1948-.0569-.2963v-2.656c-.0007-.1013.0187-.2018.057-.2956.0382-.0938.0947-.1791.1661-.2509.0714-.0719.1563-.129.2498-.1679s.1938-.059.2951-.059h3.792c.2051 0 .4018.0815.5469.2265.145.1451.2265.3418.2265.5469v2.6293c.0035.104-.0138.2077-.051.3049-.0372.0973-.0935.186-.1656.2611s-.1585.135-.2541.1761c-.0957.0411-.1986.0626-.3027.0632z" fill="#2a4494"/><path d="m45.1841 46.1067h-3.792c-.2773-.0083-.5405-.1244-.7337-.3235-.1931-.1992-.3011-.4657-.301-.7432v-2.608c-.0001-.2774.1079-.544.301-.7431.1932-.1992.4564-.3152.7337-.3235h3.792c.2829 0 .5542.1123.7542.3124.2001.2.3125.4713.3125.7542v2.6294c-.0056.2791-.1205.545-.3199.7405-.1994.1954-.4676.3048-.7468.3048zm-3.792-4.1813c-.1358.0081-.2634.0679-.3566.167-.0932.0992-.145.2302-.1447.3663v2.6293c-.0003.1361.0515.2671.1447.3663.0932.0991.2208.1589.3566.1671h3.792c.1414 0 .2771-.0562.3771-.1563.1-.1.1562-.2356.1562-.3771v-2.656c0-.1414-.0562-.2771-.1562-.3771s-.2357-.1562-.3771-.1562z" fill="#f44747"/><path d="m51.7333 45.8666h-3.7866c-.2056-.0014-.4023-.084-.5472-.2299s-.2262-.3431-.2262-.5487v-2.656c0-.2051.0815-.4018.2265-.5469.1451-.145.3418-.2265.5469-.2265h3.7866c.2051 0 .4018.0815.5469.2265.145.1451.2265.3418.2265.5469v2.6293c.0035.104-.0138.2077-.051.3049-.0372.0973-.0935.186-.1656.2611s-.1585.135-.2541.1761c-.0957.0411-.1986.0626-.3027.0632z" fill="#2a4494"/><path d="m51.7335 46.1067h-3.7867c-.2829 0-.5542-.1124-.7543-.3124-.2-.2001-.3124-.4714-.3124-.7543v-2.608c0-.2829.1124-.5542.3124-.7542.2001-.2001.4714-.3124.7543-.3124h3.7867c.2782.0069.5427.1224.737.3217.1943.1992.303.4666.303.7449v2.6294c-.0055.2746-.1166.5365-.3103.7313-.1938.1947-.4551.3072-.7297.314zm-3.7867-4.1813c-.1415 0-.2771.0561-.3771.1562-.1.1-.1562.2356-.1562.3771v2.6293c0 .1415.0562.2771.1562.3771.1.1001.2356.1563.3771.1563h3.7867c.1367-.0069.2656-.0661.36-.1654.0943-.0993.1468-.231.1466-.368v-2.656c.0002-.1369-.0523-.2687-.1466-.368-.0944-.0993-.2233-.1585-.36-.1653z" fill="#f44747"/><path d="m32.0374 51.1414h-3.7707c-.1015 0-.2021-.02-.2959-.0589s-.1791-.0958-.2509-.1677c-.0718-.0718-.1288-.157-.1676-.2508-.0389-.0939-.0589-.1944-.0589-.296v-2.6293c0-.2056.0813-.4029.2262-.5487.1449-.1459.3416-.2286.5471-.23h3.792c.1016.0007.202.0214.2956.0609.0935.0395.1784.0971.2497.1694s.1277.1579.1659.252.0575.1948.0568.2964v2.6293c.0008.1031-.0192.2054-.0588.3006s-.098.1815-.1717.2536c-.0736.0722-.1611.1288-.2571.1665-.096.0376-.1986.0555-.3017.0527z" fill="#2a4494"/><path d="m32.0373 51.408h-3.7707c-.2829 0-.5542-.1124-.7542-.3124-.2001-.2001-.3124-.4714-.3124-.7543v-2.6026c0-.2829.1123-.5542.3124-.7543.2-.2.4713-.3124.7542-.3124h3.792c.2773.0083.5405.1244.7337.3235.1931.1992.3011.4657.301.7432v2.6293c.0007.1381-.0262.275-.0792.4026-.053.1275-.131.2432-.2295.3401-.0984.097-.2152.1732-.3436.2243-.1283.051-.2656.0758-.4037.073zm-3.7707-4.1813c-.1414 0-.2771.0562-.3771.1562s-.1562.2356-.1562.3771v2.6293c0 .1415.0562.2771.1562.3772.1.1.2357.1562.3771.1562h3.792c.1358-.0082.2634-.068.3566-.1671.0932-.0992.145-.2302.1448-.3663v-2.6506c.0002-.1361-.0516-.2671-.1448-.3663-.0932-.0991-.2208-.1589-.3566-.1671z" fill="#f44747"/><path d="m38.6081 51.1414h-3.7867c-.2051 0-.4018-.0815-.5468-.2266-.145-.145-.2265-.3417-.2265-.5468v-2.6293c0-.2056.0813-.4029.2262-.5487.1449-.1459.3415-.2286.5471-.23h3.7867c.2056.0014.4023.0841.5472.23.1448.1458.2261.3431.2261.5487v2.6293c0 .2051-.0814.4018-.2265.5468-.145.1451-.3417.2266-.5468.2266z" fill="#2a4494"/><path d="m38.608 51.408h-3.7867c-.2829 0-.5542-.1124-.7542-.3124-.2001-.2001-.3125-.4714-.3125-.7543v-2.6026c0-.2829.1124-.5542.3125-.7543.2-.2.4713-.3124.7542-.3124h3.7867c.2829 0 .5542.1124.7542.3124.2001.2001.3124.4714.3124.7543v2.6293c-.0069.2782-.1224.5428-.3217.7371-.1992.1943-.4666.303-.7449.3029zm-3.7867-4.1813c-.1414 0-.2771.0562-.3771.1562s-.1562.2356-.1562.3771v2.6293c0 .1415.0562.2771.1562.3772.1.1.2357.1562.3771.1562h3.7867c.1414 0 .2771-.0562.3771-.1562.1-.1001.1562-.2357.1562-.3772v-2.6506c0-.1415-.0562-.2771-.1562-.3772-.1-.1-.2357-.1562-.3771-.1562z" fill="#f44747"/><path d="m51.7333 51.1414h-3.7866c-.2051 0-.4018-.0815-.5469-.2266-.145-.145-.2265-.3417-.2265-.5468v-2.6293c0-.2056.0813-.4029.2262-.5487.1449-.1459.3416-.2286.5472-.23h3.7866c.2056.0014.4023.0841.5472.23.1449.1458.2262.3431.2262.5487v2.6293c0 .2051-.0815.4018-.2265.5468-.1451.1451-.3418.2266-.5469.2266z" fill="#2a4494"/><path d="m51.7335 51.408h-3.7867c-.2829 0-.5542-.1124-.7543-.3124-.2-.2001-.3124-.4714-.3124-.7543v-2.6026c0-.2829.1124-.5542.3124-.7543.2001-.2.4714-.3124.7543-.3124h3.7867c.2782.007.5427.1224.737.3217s.303.4666.303.745v2.6293c-.0068.2737-.1185.5343-.3121.7279s-.4542.3053-.7279.3121zm-3.7867-4.1813c-.1415 0-.2771.0562-.3771.1562s-.1562.2356-.1562.3771v2.6293c0 .1415.0562.2771.1562.3772.1.1.2356.1562.3771.1562h3.7867c.1367-.0069.2656-.0661.36-.1654.0943-.0993.1468-.231.1466-.368v-2.6506c.0002-.137-.0523-.2688-.1466-.368-.0944-.0993-.2233-.1585-.36-.1654z" fill="#f44747"/><path d="m32.0374 56.448h-3.7706c-.102 0-.203-.0202-.2972-.0594s-.1797-.0966-.2516-.169c-.0718-.0724-.1287-.1582-.1672-.2527-.0386-.0944-.0581-.1956-.0574-.2976v-2.624c-.0007-.102.0188-.2031.0574-.2976.0385-.0944.0954-.1803.1672-.2527.0719-.0723.1574-.1298.2516-.169s.1952-.0593.2972-.0593h3.792c.1017 0 .2025.0202.2963.0594.0939.0393.1791.0968.2505.1693.0715.0724.1278.1583.1658.2528.038.0944.0568.1954.0554.2971v2.624c.0014.1036-.018.2064-.0573.3022-.0393.0959-.0976.1828-.1713.2555-.0738.0728-.1614.1299-.2578.1678-.0964.038-.1994.0561-.303.0532z" fill="#2a4494"/><path d="m32.0373 56.7147h-3.7707c-.2829 0-.5542-.1124-.7542-.3124-.2001-.2001-.3124-.4714-.3124-.7543v-2.6026c0-.2829.1123-.5542.3124-.7543.2-.2.4713-.3124.7542-.3124h3.792c.2773.0083.5405.1244.7337.3235.1931.1992.3011.4657.301.7432v2.624c-.0056.2773-.1189.5416-.3161.7367-.1971.1952-.4625.3059-.7399.3086zm-3.7707-4.1813c-.1414 0-.2771.0562-.3771.1562s-.1562.2357-.1562.3771v2.624c0 .1414.0562.2771.1562.3771s.2357.1562.3771.1562h3.792c.1358-.0081.2634-.0679.3566-.1671.0932-.0991.145-.2301.1448-.3662v-2.6453c.0002-.1361-.0516-.2671-.1448-.3663-.0932-.0991-.2208-.1589-.3566-.1671z" fill="#f44747"/><path d="m38.6081 56.448h-3.7867c-.102 0-.203-.0202-.2971-.0594-.0942-.0392-.1797-.0966-.2516-.169s-.1287-.1582-.1673-.2527c-.0385-.0944-.058-.1956-.0573-.2976v-2.624c-.0007-.102.0188-.2031.0573-.2976.0386-.0944.0954-.1803.1673-.2527.0719-.0723.1574-.1298.2516-.169.0941-.0392.1951-.0593.2971-.0593h3.7867c.102 0 .203.0201.2972.0593s.1797.0967.2515.169c.0719.0724.1288.1583.1673.2527.0386.0945.058.1956.0573.2976v2.624c.0007.102-.0187.2032-.0573.2976-.0385.0945-.0954.1803-.1673.2527-.0718.0724-.1573.1298-.2515.169s-.1952.0594-.2972.0594z" fill="#2a4494"/><path d="m38.608 56.7147h-3.7867c-.2829 0-.5542-.1124-.7542-.3124-.2001-.2001-.3125-.4714-.3125-.7543v-2.6026c0-.2829.1124-.5542.3125-.7543.2-.2.4713-.3124.7542-.3124h3.7867c.2829 0 .5542.1124.7542.3124.2001.2001.3124.4714.3124.7543v2.624c-.0055.2791-.1204.545-.3198.7405-.1995.1954-.4676.3049-.7468.3048zm-3.7867-4.1813c-.1414 0-.2771.0562-.3771.1562s-.1562.2357-.1562.3771v2.624c0 .1414.0562.2771.1562.3771s.2357.1562.3771.1562h3.7867c.1414 0 .2771-.0562.3771-.1562s.1562-.2357.1562-.3771v-2.6453c0-.1415-.0562-.2771-.1562-.3772-.1-.1-.2357-.1562-.3771-.1562z" fill="#f44747"/><path d="m51.7334 56.448h-3.7867c-.102 0-.203-.0202-.2972-.0594s-.1796-.0966-.2515-.169-.1288-.1583-.1673-.2527c-.0386-.0944-.058-.1956-.0573-.2976v-2.624c-.0008-.1038.0194-.2067.0592-.3026.0399-.0958.0987-.1827.1728-.2554.0742-.0726.1622-.1296.2589-.1675.0966-.038.1999-.056.3037-.0531h3.7654c.102-.0001.203.0201.2971.0593.0942.0392.1797.0967.2516.169.0719.0724.1287.1583.1673.2527.0385.0945.058.1956.0573.2976v2.624c.0007.102-.0188.2032-.0573.2976-.0386.0944-.0954.1803-.1673.2527s-.1574.1298-.2516.169c-.0941.0392-.1951.0594-.2971.0594z" fill="#2a4494"/><path d="m51.7335 56.7147h-3.7867c-.2829 0-.5542-.1124-.7543-.3124-.2-.2001-.3124-.4714-.3124-.7543v-2.6026c0-.2829.1124-.5542.3124-.7543.2001-.2.4714-.3124.7543-.3124h3.7867c.2782.007.5427.1224.737.3217s.303.4666.303.745v2.624c-.0055.2746-.1166.5365-.3103.7313-.1938.1947-.4551.3072-.7297.314zm-3.7867-4.1813c-.1415 0-.2771.0562-.3771.1562s-.1562.2357-.1562.3771v2.624c0 .1414.0562.2771.1562.3771s.2356.1562.3771.1562h3.7867c.1367-.0068.2656-.066.36-.1653.0943-.0993.1468-.2311.1466-.368v-2.6453c.0002-.137-.0523-.2687-.1466-.368-.0944-.0993-.2233-.1585-.36-.1654z" fill="#f44747"/><path d="m45.008 51.1414h-3.7867c-.2051 0-.4018-.0815-.5468-.2266-.145-.145-.2265-.3417-.2265-.5468v-2.6293c0-.2056.0813-.4029.2262-.5487.1449-.1459.3415-.2286.5471-.23h3.7867c.2056.0014.4023.0841.5472.23.1448.1458.2261.3431.2261.5487v2.6293c0 .2051-.0814.4018-.2265.5468-.145.1451-.3417.2266-.5468.2266z" fill="#2a4494"/><path d="m45.0081 51.408h-3.7866c-.2829 0-.5543-.1124-.7543-.3124-.2-.2001-.3124-.4714-.3124-.7543v-2.6026c0-.2829.1124-.5542.3124-.7543.2-.2.4714-.3124.7543-.3124h3.7866c.2829 0 .5542.1124.7543.3124.2.2001.3124.4714.3124.7543v2.6293c-.007.2782-.1224.5428-.3217.7371s-.4666.303-.745.3029zm-3.7866-4.1813c-.1415 0-.2772.0562-.3772.1562s-.1562.2356-.1562.3771v2.6293c0 .1415.0562.2771.1562.3772.1.1.2357.1562.3772.1562h3.7866c.1415 0 .2771-.0562.3771-.1562.1001-.1001.1563-.2357.1563-.3772v-2.6506c0-.1415-.0562-.2771-.1563-.3772-.1-.1-.2356-.1562-.3771-.1562z" fill="#f44747"/><path d="m45.008 56.4747h-3.7867c-.2051 0-.4018-.0815-.5468-.2265-.145-.1451-.2265-.3418-.2265-.5469v-2.6293c0-.2056.0813-.4028.2262-.5487s.3415-.2286.5471-.23h3.7867c.2056.0014.4023.0841.5472.23.1448.1459.2261.3431.2261.5487v2.6293c0 .2051-.0814.4018-.2265.5469-.145.145-.3417.2265-.5468.2265z" fill="#2a4494"/><path d="m45.0081 56.7413h-3.7866c-.2829 0-.5543-.1124-.7543-.3124s-.3124-.4714-.3124-.7543v-2.6026c0-.2829.1124-.5542.3124-.7543.2-.2.4714-.3124.7543-.3124h3.7866c.2829 0 .5542.1124.7543.3124.2.2001.3124.4714.3124.7543v2.6293c-.007.2783-.1224.5428-.3217.7371s-.4666.303-.745.3029zm-3.7866-4.1813c-.1415 0-.2772.0562-.3772.1562s-.1562.2357-.1562.3771v2.6293c0 .1415.0562.2771.1562.3772.1.1.2357.1562.3772.1562h3.7866c.1415 0 .2771-.0562.3771-.1562.1001-.1001.1563-.2357.1563-.3772v-2.6506c0-.1415-.0562-.2771-.1563-.3771-.1-.1001-.2356-.1563-.3771-.1563z" fill="#f44747"/></svg>