<svg width="80" height="80" viewBox="0 0 80 80" fill="none" xmlns="http://www.w3.org/2000/svg">
<path d="M40 80C62.0914 80 80 62.0914 80 40C80 17.9086 62.0914 0 40 0C17.9086 0 0 17.9086 0 40C0 62.0914 17.9086 80 40 80Z" fill="#F7AEF8"/>
<path d="M54.2667 59.2H25.7333C25.5078 59.2021 25.2841 59.1598 25.0749 59.0754C24.8657 58.9911 24.6752 58.8663 24.5143 58.7083C24.3533 58.5504 24.2251 58.3622 24.1368 58.1547C24.0486 57.9471 24.0021 57.7242 24 57.4987V22.5013C24.0021 22.2758 24.0486 22.0529 24.1368 21.8453C24.2251 21.6378 24.3533 21.4496 24.5143 21.2917C24.6752 21.1337 24.8657 21.0089 25.0749 20.9246C25.2841 20.8402 25.5078 20.7979 25.7333 20.8H54.2667C54.4922 20.7979 54.7159 20.8402 54.9251 20.9246C55.1343 21.0089 55.3248 21.1337 55.4857 21.2917C55.6467 21.4496 55.7749 21.6378 55.8632 21.8453C55.9514 22.0529 55.9979 22.2758 56 22.5013V57.4987C55.9979 57.7242 55.9514 57.9471 55.8632 58.1547C55.7749 58.3622 55.6467 58.5504 55.4857 58.7083C55.3248 58.8663 55.1343 58.9911 54.9251 59.0754C54.7159 59.1598 54.4922 59.2021 54.2667 59.2Z" fill="#F44747"/>
<path d="M51.6107 33.2906H28.3894C28.1121 33.2823 27.8489 33.1663 27.6558 32.9671C27.4626 32.768 27.3546 32.5014 27.3547 32.224V24.96C27.3546 24.6825 27.4626 24.416 27.6558 24.2168C27.8489 24.0177 28.1121 23.9016 28.3894 23.8933H51.6107C51.8881 23.9016 52.1512 24.0177 52.3444 24.2168C52.5376 24.416 52.6455 24.6825 52.6454 24.96V32.2026C52.6512 32.4838 52.5457 32.7558 52.3519 32.9595C52.1582 33.1633 51.8918 33.2823 51.6107 33.2906Z" fill="white"/>
<path d="M32.0374 40.5333H28.2668C28.1648 40.5333 28.0638 40.5131 27.9696 40.474C27.8754 40.4348 27.7899 40.3773 27.718 40.3049C27.6462 40.2326 27.5893 40.1467 27.5508 40.0522C27.5122 39.9578 27.4927 39.8567 27.4934 39.7547V37.1307C27.4927 37.0287 27.5122 36.9275 27.5508 36.8331C27.5893 36.7386 27.6462 36.6528 27.718 36.5804C27.7899 36.508 27.8754 36.4506 27.9696 36.4114C28.0638 36.3722 28.1648 36.352 28.2668 36.352H32.0588C32.1605 36.352 32.2613 36.3722 32.3551 36.4115C32.449 36.4507 32.5342 36.5082 32.6056 36.5807C32.6771 36.6531 32.7334 36.7391 32.7714 36.8335C32.8094 36.9279 32.8282 37.0289 32.8268 37.1307V39.7547C32.8282 39.8582 32.8088 39.961 32.7695 40.0569C32.7302 40.1527 32.6719 40.2396 32.5982 40.3124C32.5244 40.3851 32.4368 40.4422 32.3404 40.4801C32.244 40.5181 32.141 40.5362 32.0374 40.5333Z" fill="#2A4494"/>
<path d="M32.0373 40.8H28.2666C27.9837 40.8 27.7124 40.6876 27.5124 40.4876C27.3123 40.2876 27.2 40.0163 27.2 39.7334V37.1307C27.2 36.8478 27.3123 36.5765 27.5124 36.3764C27.7124 36.1764 27.9837 36.064 28.2666 36.064H32.0586C32.3359 36.0723 32.5991 36.1884 32.7923 36.3875C32.9854 36.5867 33.0934 36.8533 33.0933 37.1307V39.7547C33.0877 40.032 32.9744 40.2963 32.7772 40.4915C32.5801 40.6866 32.3147 40.7973 32.0373 40.8ZM28.2666 36.6187C28.1252 36.6187 27.9895 36.6749 27.8895 36.7749C27.7895 36.8749 27.7333 37.0106 27.7333 37.152V39.776C27.7333 39.9175 27.7895 40.0531 27.8895 40.1531C27.9895 40.2532 28.1252 40.3094 28.2666 40.3094H32.0586C32.1944 40.3012 32.322 40.2414 32.4152 40.1423C32.5084 40.0431 32.5602 39.9121 32.56 39.776V37.1307C32.5602 36.9946 32.5084 36.8636 32.4152 36.7644C32.322 36.6653 32.1944 36.6055 32.0586 36.5974L28.2666 36.6187Z" fill="#F44747"/>
<path d="M38.6081 40.5333H34.8214C34.7194 40.5333 34.6184 40.5131 34.5243 40.4739C34.4301 40.4348 34.3446 40.3773 34.2727 40.3049C34.2008 40.2326 34.144 40.1467 34.1054 40.0522C34.0669 39.9578 34.0474 39.8567 34.0481 39.7547V37.1307C34.0474 37.0287 34.0669 36.9275 34.1054 36.8331C34.144 36.7386 34.2008 36.6528 34.2727 36.5804C34.3446 36.508 34.4301 36.4506 34.5243 36.4114C34.6184 36.3722 34.7194 36.352 34.8214 36.352H38.6081C38.7101 36.352 38.8111 36.3722 38.9053 36.4114C38.9995 36.4506 39.085 36.508 39.1568 36.5804C39.2287 36.6528 39.2856 36.7386 39.3241 36.8331C39.3627 36.9275 39.3821 37.0287 39.3814 37.1307V39.7547C39.3821 39.8567 39.3627 39.9578 39.3241 40.0522C39.2856 40.1467 39.2287 40.2326 39.1568 40.3049C39.085 40.3773 38.9995 40.4348 38.9053 40.4739C38.8111 40.5131 38.7101 40.5333 38.6081 40.5333Z" fill="#2A4494"/>
<path d="M38.608 40.8H34.8213C34.5384 40.8 34.2671 40.6876 34.0671 40.4876C33.867 40.2876 33.7546 40.0163 33.7546 39.7334V37.1307C33.7546 36.8478 33.867 36.5765 34.0671 36.3764C34.2671 36.1764 34.5384 36.064 34.8213 36.064H38.608C38.8909 36.064 39.1622 36.1764 39.3622 36.3764C39.5623 36.5765 39.6746 36.8478 39.6746 37.1307V39.7547C39.6691 40.0339 39.5542 40.2997 39.3548 40.4952C39.1553 40.6906 38.8872 40.8001 38.608 40.8ZM34.8213 36.6187C34.6799 36.6187 34.5442 36.6749 34.4442 36.7749C34.3442 36.8749 34.288 37.0106 34.288 37.152V39.776C34.288 39.9175 34.3442 40.0531 34.4442 40.1531C34.5442 40.2532 34.6799 40.3094 34.8213 40.3094H38.608C38.7494 40.3094 38.8851 40.2532 38.9851 40.1531C39.0851 40.0531 39.1413 39.9175 39.1413 39.776V37.1307C39.1413 36.9892 39.0851 36.8536 38.9851 36.7536C38.8851 36.6535 38.7494 36.5974 38.608 36.5974L34.8213 36.6187Z" fill="#F44747"/>
<path d="M45.1841 40.5333H41.3921C41.2903 40.5333 41.1896 40.5131 41.0957 40.4739C41.0018 40.4346 40.9167 40.3771 40.8452 40.3046C40.7738 40.2322 40.7174 40.1462 40.6795 40.0518C40.6415 39.9574 40.6227 39.8564 40.6241 39.7547V37.1307C40.6227 37.0289 40.6415 36.9279 40.6795 36.8335C40.7174 36.7391 40.7738 36.6531 40.8452 36.5807C40.9167 36.5082 41.0018 36.4507 41.0957 36.4115C41.1896 36.3722 41.2903 36.352 41.3921 36.352H45.1841C45.2861 36.352 45.3871 36.3722 45.4813 36.4114C45.5755 36.4506 45.6609 36.508 45.7328 36.5804C45.8047 36.6528 45.8616 36.7386 45.9001 36.8331C45.9387 36.9275 45.9581 37.0287 45.9574 37.1307V39.7547C45.9581 39.8567 45.9387 39.9578 45.9001 40.0522C45.8616 40.1467 45.8047 40.2326 45.7328 40.3049C45.6609 40.3773 45.5755 40.4348 45.4813 40.4739C45.3871 40.5131 45.2861 40.5333 45.1841 40.5333Z" fill="#2A4494"/>
<path d="M45.1841 40.8H41.3921C41.1148 40.7917 40.8516 40.6757 40.6584 40.4765C40.4653 40.2774 40.3573 40.0108 40.3574 39.7334V37.1307C40.3573 36.8533 40.4653 36.5867 40.6584 36.3875C40.8516 36.1884 41.1148 36.0723 41.3921 36.064H45.1841C45.467 36.064 45.7383 36.1764 45.9383 36.3764C46.1384 36.5765 46.2508 36.8478 46.2508 37.1307V39.7547C46.2452 40.0339 46.1303 40.2997 45.9309 40.4952C45.7315 40.6906 45.4633 40.8001 45.1841 40.8ZM41.3921 36.6187C41.2563 36.6269 41.1287 36.6866 41.0355 36.7858C40.9423 36.8849 40.8905 37.016 40.8908 37.152V39.776C40.8905 39.9121 40.9423 40.0431 41.0355 40.1423C41.1287 40.2414 41.2563 40.3012 41.3921 40.3094H45.1841C45.3255 40.3094 45.4612 40.2532 45.5612 40.1531C45.6612 40.0531 45.7174 39.9175 45.7174 39.776V37.1307C45.7174 36.9892 45.6612 36.8536 45.5612 36.7536C45.4612 36.6535 45.3255 36.5974 45.1841 36.5974L41.3921 36.6187Z" fill="#F44747"/>
<path d="M51.7334 40.5333H47.9467C47.8447 40.5333 47.7437 40.5131 47.6495 40.4739C47.5553 40.4348 47.4699 40.3773 47.398 40.3049C47.3261 40.2326 47.2692 40.1467 47.2307 40.0522C47.1921 39.9578 47.1727 39.8567 47.1734 39.7547V37.1307C47.1727 37.0287 47.1921 36.9275 47.2307 36.8331C47.2692 36.7386 47.3261 36.6528 47.398 36.5804C47.4699 36.508 47.5553 36.4506 47.6495 36.4114C47.7437 36.3722 47.8447 36.352 47.9467 36.352H51.7334C51.8354 36.352 51.9364 36.3722 52.0305 36.4114C52.1247 36.4506 52.2102 36.508 52.2821 36.5804C52.354 36.6528 52.4108 36.7386 52.4494 36.8331C52.4879 36.9275 52.5074 37.0287 52.5067 37.1307V39.7547C52.5074 39.8567 52.4879 39.9578 52.4494 40.0522C52.4108 40.1467 52.354 40.2326 52.2821 40.3049C52.2102 40.3773 52.1247 40.4348 52.0305 40.4739C51.9364 40.5131 51.8354 40.5333 51.7334 40.5333Z" fill="#2A4494"/>
<path d="M51.7335 40.8H47.9468C47.6639 40.8 47.3926 40.6876 47.1925 40.4876C46.9925 40.2876 46.8801 40.0163 46.8801 39.7334V37.1307C46.8801 36.8478 46.9925 36.5765 47.1925 36.3764C47.3926 36.1764 47.6639 36.064 47.9468 36.064H51.7335C52.0117 36.071 52.2762 36.1864 52.4705 36.3857C52.6648 36.585 52.7735 36.8524 52.7735 37.1307V39.7547C52.768 40.0293 52.6569 40.2913 52.4632 40.486C52.2694 40.6807 52.0081 40.7932 51.7335 40.8ZM47.9468 36.6187C47.8053 36.6187 47.6697 36.6749 47.5697 36.7749C47.4697 36.8749 47.4135 37.0106 47.4135 37.152V39.776C47.4135 39.9175 47.4697 40.0531 47.5697 40.1531C47.6697 40.2532 47.8053 40.3094 47.9468 40.3094H51.7335C51.8702 40.3025 51.9991 40.2433 52.0935 40.144C52.1878 40.0447 52.2403 39.913 52.2401 39.776V37.1307C52.2403 36.9937 52.1878 36.862 52.0935 36.7627C51.9991 36.6634 51.8702 36.6042 51.7335 36.5974L47.9468 36.6187Z" fill="#F44747"/>
<path d="M32.0374 45.8666H28.2667C28.0612 45.8652 27.8645 45.7826 27.7196 45.6367C27.5747 45.4908 27.4934 45.2936 27.4934 45.088V42.432C27.4934 42.3304 27.5134 42.2298 27.5523 42.136C27.5911 42.0422 27.6481 41.9569 27.7199 41.8851C27.7917 41.8133 27.877 41.7564 27.9708 41.7175C28.0646 41.6786 28.1652 41.6586 28.2667 41.6586H32.0587C32.16 41.6586 32.2604 41.6787 32.3539 41.7176C32.4474 41.7565 32.5323 41.8136 32.6037 41.8855C32.6751 41.9573 32.7315 42.0426 32.7698 42.1364C32.8081 42.2302 32.8274 42.3307 32.8267 42.432V45.0613C32.8311 45.1669 32.8139 45.2722 32.7759 45.3709C32.738 45.4695 32.6803 45.5593 32.6064 45.6348C32.5324 45.7103 32.4438 45.7698 32.3459 45.8096C32.248 45.8495 32.1431 45.8689 32.0374 45.8666Z" fill="#2A4494"/>
<path d="M32.0373 46.1067H28.2666C27.9837 46.1067 27.7124 45.9943 27.5124 45.7943C27.3123 45.5942 27.2 45.3229 27.2 45.04V42.432C27.2 42.1491 27.3123 41.8778 27.5124 41.6778C27.7124 41.4777 27.9837 41.3654 28.2666 41.3654H32.0586C32.3359 41.3737 32.5991 41.4897 32.7923 41.6889C32.9854 41.888 33.0934 42.1546 33.0933 42.432V45.0614C33.0877 45.3387 32.9744 45.603 32.7772 45.7981C32.5801 45.9933 32.3147 46.104 32.0373 46.1067ZM28.2666 41.9254C28.1252 41.9254 27.9895 41.9815 27.8895 42.0816C27.7895 42.1816 27.7333 42.3172 27.7333 42.4587V45.088C27.7333 45.2295 27.7895 45.3651 27.8895 45.4651C27.9895 45.5652 28.1252 45.6214 28.2666 45.6214H32.0586C32.1944 45.6132 32.322 45.5534 32.4152 45.4543C32.5084 45.3551 32.5602 45.2241 32.56 45.088V42.432C32.5602 42.2959 32.5084 42.1649 32.4152 42.0658C32.322 41.9666 32.1944 41.9069 32.0586 41.8987L28.2666 41.9254Z" fill="#F44747"/>
<path d="M38.6081 45.8666H34.8214C34.6158 45.8652 34.4192 45.7826 34.2743 45.6367C34.1294 45.4908 34.0481 45.2936 34.0481 45.088V42.432C34.0481 42.2269 34.1296 42.0302 34.2746 41.8851C34.4196 41.7401 34.6163 41.6586 34.8214 41.6586H38.6081C38.8132 41.6586 39.0099 41.7401 39.1549 41.8851C39.3 42.0302 39.3814 42.2269 39.3814 42.432V45.0613C39.385 45.1653 39.3677 45.269 39.3305 45.3662C39.2933 45.4635 39.237 45.5522 39.1649 45.6273C39.0928 45.7024 39.0064 45.7623 38.9107 45.8034C38.8151 45.8445 38.7122 45.866 38.6081 45.8666Z" fill="#2A4494"/>
<path d="M38.608 46.1067H34.8213C34.5384 46.1067 34.2671 45.9943 34.0671 45.7943C33.867 45.5942 33.7546 45.3229 33.7546 45.04V42.432C33.7546 42.1491 33.867 41.8778 34.0671 41.6778C34.2671 41.4777 34.5384 41.3654 34.8213 41.3654H38.608C38.8909 41.3654 39.1622 41.4777 39.3622 41.6778C39.5623 41.8778 39.6746 42.1491 39.6746 42.432V45.0614C39.6691 45.3405 39.5542 45.6064 39.3548 45.8019C39.1553 45.9973 38.8872 46.1067 38.608 46.1067ZM34.8213 41.9254C34.6799 41.9254 34.5442 41.9815 34.4442 42.0816C34.3442 42.1816 34.288 42.3172 34.288 42.4587V45.088C34.288 45.2295 34.3442 45.3651 34.4442 45.4651C34.5442 45.5652 34.6799 45.6214 34.8213 45.6214H38.608C38.7494 45.6214 38.8851 45.5652 38.9851 45.4651C39.0851 45.3651 39.1413 45.2295 39.1413 45.088V42.432C39.1413 42.2906 39.0851 42.1549 38.9851 42.0549C38.8851 41.9549 38.7494 41.8987 38.608 41.8987L34.8213 41.9254Z" fill="#F44747"/>
<path d="M45.184 45.8666H41.392C41.2905 45.8659 41.1901 45.8452 41.0965 45.8057C41.0029 45.7662 40.9181 45.7087 40.8468 45.6364C40.7755 45.5641 40.7191 45.4784 40.6809 45.3843C40.6426 45.2902 40.6233 45.1895 40.624 45.088V42.432C40.6233 42.3307 40.6427 42.2302 40.681 42.1364C40.7192 42.0426 40.7757 41.9573 40.8471 41.8855C40.9185 41.8136 41.0034 41.7565 41.0969 41.7176C41.1904 41.6787 41.2907 41.6586 41.392 41.6586H45.184C45.3891 41.6586 45.5858 41.7401 45.7309 41.8851C45.8759 42.0302 45.9574 42.2269 45.9574 42.432V45.0613C45.9609 45.1653 45.9436 45.269 45.9064 45.3662C45.8692 45.4635 45.8129 45.5522 45.7408 45.6273C45.6687 45.7024 45.5823 45.7623 45.4867 45.8034C45.391 45.8445 45.2881 45.866 45.184 45.8666Z" fill="#2A4494"/>
<path d="M45.1841 46.1067H41.3921C41.1148 46.0984 40.8516 45.9823 40.6584 45.7832C40.4653 45.584 40.3573 45.3175 40.3574 45.04V42.432C40.3573 42.1546 40.4653 41.888 40.6584 41.6889C40.8516 41.4897 41.1148 41.3737 41.3921 41.3654H45.1841C45.467 41.3654 45.7383 41.4777 45.9383 41.6778C46.1384 41.8778 46.2508 42.1491 46.2508 42.432V45.0614C46.2452 45.3405 46.1303 45.6064 45.9309 45.8019C45.7315 45.9973 45.4633 46.1067 45.1841 46.1067ZM41.3921 41.9254C41.2563 41.9335 41.1287 41.9933 41.0355 42.0924C40.9423 42.1916 40.8905 42.3226 40.8908 42.4587V45.088C40.8905 45.2241 40.9423 45.3551 41.0355 45.4543C41.1287 45.5534 41.2563 45.6132 41.3921 45.6214H45.1841C45.3255 45.6214 45.4612 45.5652 45.5612 45.4651C45.6612 45.3651 45.7174 45.2295 45.7174 45.088V42.432C45.7174 42.2906 45.6612 42.1549 45.5612 42.0549C45.4612 41.9549 45.3255 41.8987 45.1841 41.8987L41.3921 41.9254Z" fill="#F44747"/>
<path d="M51.7333 45.8666H47.9467C47.7411 45.8652 47.5444 45.7826 47.3995 45.6367C47.2546 45.4908 47.1733 45.2936 47.1733 45.088V42.432C47.1733 42.2269 47.2548 42.0302 47.3998 41.8851C47.5449 41.7401 47.7416 41.6586 47.9467 41.6586H51.7333C51.9384 41.6586 52.1351 41.7401 52.2802 41.8851C52.4252 42.0302 52.5067 42.2269 52.5067 42.432V45.0613C52.5102 45.1653 52.4929 45.269 52.4557 45.3662C52.4185 45.4635 52.3622 45.5522 52.2901 45.6273C52.218 45.7024 52.1316 45.7623 52.036 45.8034C51.9403 45.8445 51.8374 45.866 51.7333 45.8666Z" fill="#2A4494"/>
<path d="M51.7335 46.1067H47.9468C47.6639 46.1067 47.3926 45.9943 47.1925 45.7943C46.9925 45.5942 46.8801 45.3229 46.8801 45.04V42.432C46.8801 42.1491 46.9925 41.8778 47.1925 41.6778C47.3926 41.4777 47.6639 41.3654 47.9468 41.3654H51.7335C52.0117 41.3723 52.2762 41.4878 52.4705 41.6871C52.6648 41.8863 52.7735 42.1537 52.7735 42.432V45.0614C52.768 45.336 52.6569 45.5979 52.4632 45.7927C52.2694 45.9874 52.0081 46.0999 51.7335 46.1067ZM47.9468 41.9254C47.8053 41.9254 47.6697 41.9815 47.5697 42.0816C47.4697 42.1816 47.4135 42.3172 47.4135 42.4587V45.088C47.4135 45.2295 47.4697 45.3651 47.5697 45.4651C47.6697 45.5652 47.8053 45.6214 47.9468 45.6214H51.7335C51.8702 45.6145 51.9991 45.5553 52.0935 45.456C52.1878 45.3567 52.2403 45.225 52.2401 45.088V42.432C52.2403 42.2951 52.1878 42.1633 52.0935 42.064C51.9991 41.9647 51.8702 41.9055 51.7335 41.8987L47.9468 41.9254Z" fill="#F44747"/>
<path d="M32.0374 51.1414H28.2667C28.1652 51.1414 28.0646 51.1214 27.9708 51.0825C27.877 51.0436 27.7917 50.9867 27.7199 50.9148C27.6481 50.843 27.5911 50.7578 27.5523 50.664C27.5134 50.5701 27.4934 50.4696 27.4934 50.368V47.7387C27.4934 47.5331 27.5747 47.3358 27.7196 47.19C27.8645 47.0441 28.0612 46.9614 28.2667 46.96H32.0587C32.1603 46.9607 32.2607 46.9814 32.3543 47.0209C32.4478 47.0604 32.5327 47.118 32.604 47.1903C32.6753 47.2626 32.7317 47.3482 32.7699 47.4423C32.8081 47.5364 32.8274 47.6371 32.8267 47.7387V50.368C32.8275 50.4711 32.8075 50.5734 32.7679 50.6686C32.7283 50.7638 32.6699 50.8501 32.5962 50.9222C32.5226 50.9944 32.4351 51.051 32.3391 51.0887C32.2431 51.1263 32.1405 51.1442 32.0374 51.1414Z" fill="#2A4494"/>
<path d="M32.0373 51.408H28.2666C27.9837 51.408 27.7124 51.2956 27.5124 51.0956C27.3123 50.8955 27.2 50.6242 27.2 50.3413V47.7387C27.2 47.4558 27.3123 47.1845 27.5124 46.9844C27.7124 46.7844 27.9837 46.672 28.2666 46.672H32.0586C32.3359 46.6803 32.5991 46.7964 32.7923 46.9955C32.9854 47.1947 33.0934 47.4612 33.0933 47.7387V50.368C33.094 50.5061 33.0671 50.643 33.0141 50.7706C32.9611 50.8981 32.8831 51.0138 32.7846 51.1107C32.6862 51.2077 32.5694 51.2839 32.441 51.335C32.3127 51.386 32.1754 51.4108 32.0373 51.408ZM28.2666 47.2267C28.1252 47.2267 27.9895 47.2829 27.8895 47.3829C27.7895 47.4829 27.7333 47.6185 27.7333 47.76V50.3893C27.7333 50.5308 27.7895 50.6664 27.8895 50.7665C27.9895 50.8665 28.1252 50.9227 28.2666 50.9227H32.0586C32.1944 50.9145 32.322 50.8547 32.4152 50.7556C32.5084 50.6564 32.5602 50.5254 32.56 50.3893V47.7387C32.5602 47.6026 32.5084 47.4716 32.4152 47.3724C32.322 47.2733 32.1944 47.2135 32.0586 47.2053L28.2666 47.2267Z" fill="#F44747"/>
<path d="M38.6081 51.1414H34.8214C34.6163 51.1414 34.4196 51.0599 34.2746 50.9148C34.1296 50.7698 34.0481 50.5731 34.0481 50.368V47.7387C34.0481 47.5331 34.1294 47.3358 34.2743 47.19C34.4192 47.0441 34.6158 46.9614 34.8214 46.96H38.6081C38.8137 46.9614 39.0104 47.0441 39.1553 47.19C39.3001 47.3358 39.3814 47.5331 39.3814 47.7387V50.368C39.3814 50.5731 39.3 50.7698 39.1549 50.9148C39.0099 51.0599 38.8132 51.1414 38.6081 51.1414Z" fill="#2A4494"/>
<path d="M38.608 51.408H34.8213C34.5384 51.408 34.2671 51.2956 34.0671 51.0956C33.867 50.8955 33.7546 50.6242 33.7546 50.3413V47.7387C33.7546 47.4558 33.867 47.1845 34.0671 46.9844C34.2671 46.7844 34.5384 46.672 34.8213 46.672H38.608C38.8909 46.672 39.1622 46.7844 39.3622 46.9844C39.5623 47.1845 39.6746 47.4558 39.6746 47.7387V50.368C39.6677 50.6462 39.5522 50.9108 39.3529 51.1051C39.1537 51.2994 38.8863 51.4081 38.608 51.408ZM34.8213 47.2267C34.6799 47.2267 34.5442 47.2829 34.4442 47.3829C34.3442 47.4829 34.288 47.6185 34.288 47.76V50.3893C34.288 50.5308 34.3442 50.6664 34.4442 50.7665C34.5442 50.8665 34.6799 50.9227 34.8213 50.9227H38.608C38.7494 50.9227 38.8851 50.8665 38.9851 50.7665C39.0851 50.6664 39.1413 50.5308 39.1413 50.3893V47.7387C39.1413 47.5972 39.0851 47.4616 38.9851 47.3615C38.8851 47.2615 38.7494 47.2053 38.608 47.2053L34.8213 47.2267Z" fill="#F44747"/>
<path d="M51.7333 51.1414H47.9467C47.7416 51.1414 47.5449 51.0599 47.3998 50.9148C47.2548 50.7698 47.1733 50.5731 47.1733 50.368V47.7387C47.1733 47.5331 47.2546 47.3358 47.3995 47.19C47.5444 47.0441 47.7411 46.9614 47.9467 46.96H51.7333C51.9389 46.9614 52.1356 47.0441 52.2805 47.19C52.4254 47.3358 52.5067 47.5331 52.5067 47.7387V50.368C52.5067 50.5731 52.4252 50.7698 52.2802 50.9148C52.1351 51.0599 51.9384 51.1414 51.7333 51.1414Z" fill="#2A4494"/>
<path d="M51.7335 51.408H47.9468C47.6639 51.408 47.3926 51.2956 47.1925 51.0956C46.9925 50.8955 46.8801 50.6242 46.8801 50.3413V47.7387C46.8801 47.4558 46.9925 47.1845 47.1925 46.9844C47.3926 46.7844 47.6639 46.672 47.9468 46.672H51.7335C52.0117 46.679 52.2762 46.7944 52.4705 46.9937C52.6648 47.193 52.7735 47.4603 52.7735 47.7387V50.368C52.7667 50.6417 52.655 50.9023 52.4614 51.0959C52.2678 51.2895 52.0072 51.4012 51.7335 51.408ZM47.9468 47.2267C47.8053 47.2267 47.6697 47.2829 47.5697 47.3829C47.4697 47.4829 47.4135 47.6185 47.4135 47.76V50.3893C47.4135 50.5308 47.4697 50.6664 47.5697 50.7665C47.6697 50.8665 47.8053 50.9227 47.9468 50.9227H51.7335C51.8702 50.9158 51.9991 50.8566 52.0935 50.7573C52.1878 50.658 52.2403 50.5263 52.2401 50.3893V47.7387C52.2403 47.6017 52.1878 47.4699 52.0935 47.3707C51.9991 47.2714 51.8702 47.2122 51.7335 47.2053L47.9468 47.2267Z" fill="#F44747"/>
<path d="M32.0374 56.448H28.2668C28.1648 56.448 28.0638 56.4278 27.9696 56.3886C27.8754 56.3494 27.7899 56.292 27.718 56.2196C27.6462 56.1472 27.5893 56.0614 27.5508 55.9669C27.5122 55.8725 27.4927 55.7713 27.4934 55.6693V53.0453C27.4927 52.9433 27.5122 52.8422 27.5508 52.7477C27.5893 52.6533 27.6462 52.5674 27.718 52.495C27.7899 52.4227 27.8754 52.3652 27.9696 52.326C28.0638 52.2868 28.1648 52.2667 28.2668 52.2667H32.0588C32.1605 52.2667 32.2613 52.2869 32.3551 52.3261C32.449 52.3654 32.5342 52.4229 32.6056 52.4954C32.6771 52.5678 32.7334 52.6537 32.7714 52.7482C32.8094 52.8426 32.8282 52.9436 32.8268 53.0453V55.6693C32.8282 55.7729 32.8088 55.8757 32.7695 55.9715C32.7302 56.0674 32.6719 56.1543 32.5982 56.227C32.5244 56.2998 32.4368 56.3569 32.3404 56.3948C32.244 56.4328 32.141 56.4509 32.0374 56.448Z" fill="#2A4494"/>
<path d="M32.0373 56.7147H28.2666C27.9837 56.7147 27.7124 56.6023 27.5124 56.4023C27.3123 56.2022 27.2 55.9309 27.2 55.648V53.0454C27.2 52.7625 27.3123 52.4912 27.5124 52.2911C27.7124 52.0911 27.9837 51.9787 28.2666 51.9787H32.0586C32.3359 51.987 32.5991 52.1031 32.7923 52.3022C32.9854 52.5014 33.0934 52.7679 33.0933 53.0454V55.6694C33.0877 55.9467 32.9744 56.211 32.7772 56.4061C32.5801 56.6013 32.3147 56.712 32.0373 56.7147ZM28.2666 52.5334C28.1252 52.5334 27.9895 52.5896 27.8895 52.6896C27.7895 52.7896 27.7333 52.9253 27.7333 53.0667V55.6907C27.7333 55.8321 27.7895 55.9678 27.8895 56.0678C27.9895 56.1678 28.1252 56.224 28.2666 56.224H32.0586C32.1944 56.2159 32.322 56.1561 32.4152 56.0569C32.5084 55.9578 32.5602 55.8268 32.56 55.6907V53.0454C32.5602 52.9093 32.5084 52.7783 32.4152 52.6791C32.322 52.58 32.1944 52.5202 32.0586 52.512L28.2666 52.5334Z" fill="#F44747"/>
<path d="M38.6081 56.448H34.8214C34.7194 56.448 34.6184 56.4278 34.5243 56.3886C34.4301 56.3494 34.3446 56.292 34.2727 56.2196C34.2008 56.1472 34.144 56.0614 34.1054 55.9669C34.0669 55.8725 34.0474 55.7713 34.0481 55.6693V53.0453C34.0474 52.9433 34.0669 52.8422 34.1054 52.7477C34.144 52.6533 34.2008 52.5674 34.2727 52.495C34.3446 52.4227 34.4301 52.3652 34.5243 52.326C34.6184 52.2868 34.7194 52.2667 34.8214 52.2667H38.6081C38.7101 52.2667 38.8111 52.2868 38.9053 52.326C38.9995 52.3652 39.085 52.4227 39.1568 52.495C39.2287 52.5674 39.2856 52.6533 39.3241 52.7477C39.3627 52.8422 39.3821 52.9433 39.3814 53.0453V55.6693C39.3821 55.7713 39.3627 55.8725 39.3241 55.9669C39.2856 56.0614 39.2287 56.1472 39.1568 56.2196C39.085 56.292 38.9995 56.3494 38.9053 56.3886C38.8111 56.4278 38.7101 56.448 38.6081 56.448Z" fill="#2A4494"/>
<path d="M38.608 56.7147H34.8213C34.5384 56.7147 34.2671 56.6023 34.0671 56.4023C33.867 56.2022 33.7546 55.9309 33.7546 55.648V53.0454C33.7546 52.7625 33.867 52.4912 34.0671 52.2911C34.2671 52.0911 34.5384 51.9787 34.8213 51.9787H38.608C38.8909 51.9787 39.1622 52.0911 39.3622 52.2911C39.5623 52.4912 39.6746 52.7625 39.6746 53.0454V55.6694C39.6691 55.9485 39.5542 56.2144 39.3548 56.4099C39.1553 56.6053 38.8872 56.7148 38.608 56.7147ZM34.8213 52.5334C34.6799 52.5334 34.5442 52.5896 34.4442 52.6896C34.3442 52.7896 34.288 52.9253 34.288 53.0667V55.6907C34.288 55.8321 34.3442 55.9678 34.4442 56.0678C34.5442 56.1678 34.6799 56.224 34.8213 56.224H38.608C38.7494 56.224 38.8851 56.1678 38.9851 56.0678C39.0851 55.9678 39.1413 55.8321 39.1413 55.6907V53.0454C39.1413 52.9039 39.0851 52.7683 38.9851 52.6682C38.8851 52.5682 38.7494 52.512 38.608 52.512L34.8213 52.5334Z" fill="#F44747"/>
<path d="M51.7334 56.448H47.9467C47.8447 56.448 47.7437 56.4278 47.6495 56.3886C47.5553 56.3494 47.4699 56.292 47.398 56.2196C47.3261 56.1472 47.2692 56.0613 47.2307 55.9669C47.1921 55.8725 47.1727 55.7713 47.1734 55.6693V53.0453C47.1726 52.9415 47.1928 52.8386 47.2326 52.7427C47.2725 52.6469 47.3313 52.56 47.4054 52.4873C47.4796 52.4147 47.5676 52.3577 47.6643 52.3198C47.7609 52.2818 47.8642 52.2638 47.968 52.2667H51.7334C51.8354 52.2666 51.9364 52.2868 52.0305 52.326C52.1247 52.3652 52.2102 52.4227 52.2821 52.495C52.354 52.5674 52.4108 52.6533 52.4494 52.7477C52.4879 52.8422 52.5074 52.9433 52.5067 53.0453V55.6693C52.5074 55.7713 52.4879 55.8725 52.4494 55.9669C52.4108 56.0613 52.354 56.1472 52.2821 56.2196C52.2102 56.292 52.1247 56.3494 52.0305 56.3886C51.9364 56.4278 51.8354 56.448 51.7334 56.448Z" fill="#2A4494"/>
<path d="M51.7335 56.7147H47.9468C47.6639 56.7147 47.3926 56.6023 47.1925 56.4023C46.9925 56.2022 46.8801 55.9309 46.8801 55.648V53.0454C46.8801 52.7625 46.9925 52.4912 47.1925 52.2911C47.3926 52.0911 47.6639 51.9787 47.9468 51.9787H51.7335C52.0117 51.9857 52.2762 52.1011 52.4705 52.3004C52.6648 52.4997 52.7735 52.767 52.7735 53.0454V55.6694C52.768 55.944 52.6569 56.2059 52.4632 56.4007C52.2694 56.5954 52.0081 56.7079 51.7335 56.7147ZM47.9468 52.5334C47.8053 52.5334 47.6697 52.5896 47.5697 52.6896C47.4697 52.7896 47.4135 52.9253 47.4135 53.0667V55.6907C47.4135 55.8321 47.4697 55.9678 47.5697 56.0678C47.6697 56.1678 47.8053 56.224 47.9468 56.224H51.7335C51.8702 56.2172 51.9991 56.158 52.0935 56.0587C52.1878 55.9594 52.2403 55.8276 52.2401 55.6907V53.0454C52.2403 52.9084 52.1878 52.7767 52.0935 52.6774C51.9991 52.5781 51.8702 52.5189 51.7335 52.512L47.9468 52.5334Z" fill="#F44747"/>
<path d="M45.008 51.1414H41.2213C41.0162 51.1414 40.8195 51.0599 40.6745 50.9148C40.5295 50.7698 40.448 50.5731 40.448 50.368V47.7387C40.448 47.5331 40.5293 47.3358 40.6742 47.19C40.8191 47.0441 41.0157 46.9614 41.2213 46.96H45.008C45.2136 46.9614 45.4103 47.0441 45.5552 47.19C45.7 47.3358 45.7813 47.5331 45.7813 47.7387V50.368C45.7813 50.5731 45.6999 50.7698 45.5548 50.9148C45.4098 51.0599 45.2131 51.1414 45.008 51.1414Z" fill="#2A4494"/>
<path d="M45.0081 51.408H41.2215C40.9386 51.408 40.6672 51.2956 40.4672 51.0956C40.2672 50.8955 40.1548 50.6242 40.1548 50.3413V47.7387C40.1548 47.4558 40.2672 47.1845 40.4672 46.9844C40.6672 46.7844 40.9386 46.672 41.2215 46.672H45.0081C45.291 46.672 45.5623 46.7844 45.7624 46.9844C45.9624 47.1845 46.0748 47.4558 46.0748 47.7387V50.368C46.0678 50.6462 45.9524 50.9108 45.7531 51.1051C45.5538 51.2994 45.2865 51.4081 45.0081 51.408ZM41.2215 47.2267C41.08 47.2267 40.9443 47.2829 40.8443 47.3829C40.7443 47.4829 40.6881 47.6185 40.6881 47.76V50.3893C40.6881 50.5308 40.7443 50.6664 40.8443 50.7665C40.9443 50.8665 41.08 50.9227 41.2215 50.9227H45.0081C45.1496 50.9227 45.2852 50.8665 45.3852 50.7665C45.4853 50.6664 45.5415 50.5308 45.5415 50.3893V47.7387C45.5415 47.5972 45.4853 47.4616 45.3852 47.3615C45.2852 47.2615 45.1496 47.2053 45.0081 47.2053L41.2215 47.2267Z" fill="#F44747"/>
<path d="M45.008 56.4747H41.2213C41.0162 56.4747 40.8195 56.3932 40.6745 56.2482C40.5295 56.1031 40.448 55.9064 40.448 55.7013V53.072C40.448 52.8664 40.5293 52.6692 40.6742 52.5233C40.8191 52.3774 41.0157 52.2947 41.2213 52.2933H45.008C45.2136 52.2947 45.4103 52.3774 45.5552 52.5233C45.7 52.6692 45.7813 52.8664 45.7813 53.072V55.7013C45.7813 55.9064 45.6999 56.1031 45.5548 56.2482C45.4098 56.3932 45.2131 56.4747 45.008 56.4747Z" fill="#2A4494"/>
<path d="M45.0081 56.7413H41.2215C40.9386 56.7413 40.6672 56.6289 40.4672 56.4289C40.2672 56.2289 40.1548 55.9575 40.1548 55.6746V53.072C40.1548 52.7891 40.2672 52.5178 40.4672 52.3177C40.6672 52.1177 40.9386 52.0053 41.2215 52.0053H45.0081C45.291 52.0053 45.5623 52.1177 45.7624 52.3177C45.9624 52.5178 46.0748 52.7891 46.0748 53.072V55.7013C46.0678 55.9796 45.9524 56.2441 45.7531 56.4384C45.5538 56.6327 45.2865 56.7414 45.0081 56.7413ZM41.2215 52.56C41.08 52.56 40.9443 52.6162 40.8443 52.7162C40.7443 52.8162 40.6881 52.9519 40.6881 53.0933V55.7226C40.6881 55.8641 40.7443 55.9997 40.8443 56.0998C40.9443 56.1998 41.08 56.256 41.2215 56.256H45.0081C45.1496 56.256 45.2852 56.1998 45.3852 56.0998C45.4853 55.9997 45.5415 55.8641 45.5415 55.7226V53.072C45.5415 52.9305 45.4853 52.7949 45.3852 52.6949C45.2852 52.5948 45.1496 52.5386 45.0081 52.5386L41.2215 52.56Z" fill="#F44747"/>
</svg>
