<svg fill="none" height="80" viewBox="0 0 80 80" width="80" xmlns="http://www.w3.org/2000/svg"><path d="m40 80c22.0914 0 40-17.9086 40-40s-17.9086-40-40-40-40 17.9086-40 40 17.9086 40 40 40z" fill="#b5e2fa"/><path d="m18.6346 44.0266c1.006 1.4937 1.5715 3.2402 1.632 5.04-.0562 1.8014-.62 3.5503-1.6266 5.0453h31.312l6.4-1.7813.1173-6.128-6.5387-2.1333z" fill="#fff"/><path d="m21.5306 25.8827c.9297 1.2349 1.4634 2.7224 1.5307 4.2667-.0673 1.5442-.601 3.0318-1.5307 4.2666h24.7627l3.584-1.8133v-5.2693l-3.072-1.4347z" fill="#fff"/><path d="m18.6347 54.4907c-.099 0-.194-.0394-.264-.1094s-.1093-.165-.1093-.264v-2.1333c0-.099.0393-.194.1093-.264s.165-.1093.264-.1093h34.9067c.2826-.064 2.2026-.592 2.2026-2.5334 0-2.5333-2.1333-2.7413-2.192-2.752l-34.9173.1974c-.0979-.0041-.1909-.044-.2613-.112-.0351-.034-.0631-.0746-.0823-.1195-.0192-.0448-.0293-.0931-.0297-.1419v-2.1333c-.0001-.0488.0096-.0971.0285-.1421.0188-.045.0464-.0858.0811-.12.0348-.0343.076-.0613.1212-.0794.0453-.0182.0937-.0272.1425-.0265h34.944c.08 0 4.8587.4213 4.8587 5.4133s-4.8 5.4134-4.832 5.4187z" fill="#1855d1"/><path d="m61.3813 35.2c-.9211 1.1576-1.4547 2.5756-1.5253 4.0533.0706 1.4777.6042 2.8957 1.5253 4.0533h-29.4187l-5.7013-1.456-.128-4.9173 5.8293-1.7333z" fill="#fff"/><path d="m61.3333 43.6587h-2.0107l-30.7093-.0373c-.064 0-2.192.1173-3.6107-1.2107-.4073-.4048-.7247-.891-.9315-1.4267-.2068-.5358-.2982-1.1091-.2685-1.6826-.0266-.5796.0662-1.1584.2727-1.7007.2064-.5422.522-1.0362.9273-1.4513 1.0079-.8726 2.2989-1.3484 3.632-1.3387h32.7093c.0485-.0006.0966.0085.1415.0269.0449.0183.0857.0454.1199.0798.0698.0692.11.1629.112.2613v2.1333c0 .0976-.0388.1912-.1078.2602-.069.0691-.1626.1078-.2602.1078l-32.72.2667c-.0587 0-1.7547.0907-1.7547 1.344s1.7707 1.456 1.7867 1.456l32.688.0373c.0981.0027.1915.0429.261.1124.0694.0694.1096.1628.1123.261v2.1333c-.0007.0499-.0114.0993-.0314.145-.0201.0458-.0491.087-.0854.1213-.0364.0343-.0792.061-.126.0785-.0468.0174-.0966.0253-.1465.0232z" fill="#16d2aa"/><path d="m46.4001 34.8106h-24.8694c-.0976 0-.1912-.0387-.2602-.1078-.069-.069-.1078-.1626-.1078-.2602v-2.1333c0-.0976.0388-.1912.1078-.2602s.1626-.1078.2602-.1078h24.8c.5839.0477 1.1648-.1213 1.632-.4747.1711-.1707.3035-.3762.3881-.6026.0847-.2263.1197-.4683.1026-.7094.0108-.2482-.0285-.4961-.1155-.7288-.0871-.2328-.2201-.4456-.3912-.6258-.4634-.3849-1.0456-.5978-1.648-.6027l-24.7626.192c-.0986-.0037-.1928-.0414-.2667-.1067-.0684-.0698-.1067-.1636-.1067-.2613v-2.1333c0-.0981.0386-.1923.1075-.2622.0688-.0698.1624-.1098.2605-.1112h24.7627c1.3039-.0291 2.5732.4206 3.568 1.264.4393.4432.7807.9736 1.0021 1.557.2214.5833.3179 1.2067.2832 1.8297.0346.6222-.062 1.2447-.2834 1.8272s-.5628 1.112-1.0019 1.5541c-.9621.8276-2.1924 1.2769-3.4613 1.264z" fill="#1855d1"/></svg>