<svg fill="none" height="80" viewBox="0 0 80 80" width="80" xmlns="http://www.w3.org/2000/svg"><path d="m40 80c22.0914 0 40-17.9086 40-40s-17.9086-40-40-40-40 17.9086-40 40 17.9086 40 40 40z" fill="#ff8c5f"/><path d="m58.1334 27.8133c-.0015-.5083-.2044-.9953-.5643-1.3542s-.8475-.5605-1.3557-.5605h-32.3947c-.5083 0-.9959.2016-1.3558.5605s-.5628.8459-.5642 1.3542v6.768h36.2347z" fill="#f44747"/><path d="m21.8987 34.5813v21.632c0 .5092.2023.9976.5623 1.3577.3601.36.8485.5623 1.3577.5623h32.3947c.5092 0 .9975-.2023 1.3576-.5623.3601-.3601.5624-.8485.5624-1.3577v-21.632z" fill="#fff"/><g fill="#343440"><path d="m49.0241 30.6826c-.2005-.0014-.3923-.0816-.534-.2233s-.222-.3336-.2234-.534v-8.0587c0-.2008.0798-.3934.2218-.5355.1421-.142.3347-.2218.5356-.2218.2008 0 .3934.0798.5355.2218.142.1421.2218.3347.2218.5355v8.0587c-.0014.2004-.0816.3923-.2234.534-.1417.1417-.3335.2219-.5339.2233z"/><path d="m38.6187 41.0933c.4545.2065.8397.5399 1.1093.96.251.4031.3823.8692.3787 1.344.0091.4374-.0859.8707-.2773 1.264-.164.3392-.4096.6324-.7147.8534-.2538.1918-.5619.2983-.88.304.3755-.0055.745.0942 1.0667.288.3177.2045.5753.4898.7466.8266.2095.4198.3045.8874.2754 1.3556-.029.4682-.181.9204-.4407 1.3111-.3228.4515-.7665.8027-1.28 1.0133-.5991.2509-1.2439.3744-1.8933.3627-1.808 0-2.9974-.8053-3.584-2.416l1.4826-.7093c.1017.4997.355.956.7254 1.3066.411.3109.9206.4624 1.4346.4267.5112.0317 1.0162-.1259 1.4187-.4427.1724-.1455.3099-.328.4022-.5339.0923-.2058.1371-.4298.1311-.6554.0221-.2183-.0118-.4387-.0986-.6403s-.2236-.3777-.3974-.5117c-.4759-.2651-1.0195-.3838-1.5626-.3413h-.4534v-1.248h.4107c1.248 0 1.872-.5138 1.872-1.5414.0146-.2109-.0165-.4225-.091-.6204-.0746-.1979-.1909-.3773-.341-.5262-.3457-.2828-.7866-.4221-1.232-.3894-.4566-.0244-.9075.1114-1.2747.384-.3309.2798-.5488.6702-.6133 1.0987l-1.4827-.608c.1832-.6899.6142-1.288 1.2107-1.68.65-.4055 1.4048-.6113 2.1707-.592.6131-.0174 1.2223.1048 1.7813.3573z"/><path d="m46.1812 40.8907v9.9733h-1.6v-7.376c0-.3413 0-.608 0-.8-.3503.3373-.7429.6278-1.168.864-.4186.2404-.8694.42-1.3386.5334l-.2774-1.4187c.3563-.0571.7017-.1686 1.024-.3307.4153-.1898.8117-.4184 1.184-.6826.3051-.2088.5736-.4664.7947-.7627z"/><path d="m30.9334 30.6826c-.2005-.0014-.3923-.0816-.534-.2233s-.222-.3336-.2234-.534v-8.0587c0-.2008.0798-.3934.2218-.5355.1421-.142.3347-.2218.5356-.2218.2008 0 .3934.0798.5355.2218.142.1421.2218.3347.2218.5355v8.0587c-.0014.2004-.0816.3923-.2234.534-.1417.1417-.3335.2219-.5339.2233z"/></g></svg>