<svg fill="none" height="80" viewBox="0 0 80 80" width="80" xmlns="http://www.w3.org/2000/svg"><path d="m40 80c22.0914 0 40-17.9086 40-40s-17.9086-40-40-40-40 17.9086-40 40 17.9086 40 40 40z" fill="#54defd"/><path d="m54.9334 58.1334h-27.7333c-.1415 0-.2771-.0562-.3771-.1563-.1001-.1-.1563-.2356-.1563-.3771v-34.1333c0-.1415.0562-.2771.1563-.3771.1-.1001.2356-.1563.3771-.1563h27.7333c.1415 0 .2771.0562.3771.1563.1001.1.1562.2356.1562.3771v34.1333c0 .1415-.0561.2771-.1562.3771-.1.1001-.2356.1563-.3771.1563z" fill="#fff"/><path d="m64.6107 21.5178-1.3237-1.3237c-.6124-.6123-1.6052-.6123-2.2175 0l-2.5984 2.5984c-.6123.6124-.6123 1.6052 0 2.2175l1.3237 1.3237c.6123.6123 1.6051.6123 2.2175 0l2.5984-2.5984c.6123-.6123.6123-1.6051 0-2.2175z" fill="#f44747"/><path d="m63.1215 25.2172-3.5412-3.5412-18.0453 18.0454 3.5411 3.5412z" fill="#fed766"/><path d="m41.5361 39.7227 3.5413 3.5413-4.992 2.1333c-.0952.0344-.1983.0409-.2972.0189-.0988-.0221-.1893-.0718-.2609-.1434s-.1213-.1622-.1434-.261-.0155-.2019.0188-.2971z" fill="#e3f2fd"/><g fill="#343440"><path d="m63.1226 25.2168-3.5412-3.5411-1.1502 1.1502 3.5412 3.5412z"/><path d="m40.4373 42.2933 2.1653 2.0267-2.8907 1.2373c-.0656.0282-.1382.0361-.2084.0226s-.1347-.0477-.1852-.0982c-.0505-.0506-.0848-.1151-.0983-.1853-.0134-.0701-.0056-.1427.0226-.2084z"/></g></svg>