<svg fill="none" height="80" viewBox="0 0 80 80" width="80" xmlns="http://www.w3.org/2000/svg"><path d="m40 80c22.0914 0 40-17.9086 40-40s-17.9086-40-40-40-40 17.9086-40 40 17.9086 40 40 40z" fill="#9575cd"/><path d="m51.6381 59.2h-23.9434c-1.6382 0-2.8442-.5653-3.3938-1.6-.5497-1.0347-.3469-2.5227.6189-3.9947l10.7098-15.952v-14.256c0-.1414.0562-.2771.1562-.3771.1001-.1.2358-.1562.3774-.1562h7.5187c.1415 0 .2772.0562.3773.1562s.1563.2357.1563.3771v14.2614l10.8804 16.352c.9499 1.504 1.1687 2.7253.6671 3.6426-.5763 1.0134-1.9638 1.5467-4.1249 1.5467z" fill="#e3f2fd"/><path d="m51.8196 57.6h-23.5592c-1.1099 0-1.8517-.2987-2.2092-.88-.1523-.2975-.2245-.6295-.2095-.9633.0149-.3338.1166-.658.2949-.9407.0068-.0171.0158-.0332.0267-.048l8.6553-13.0133c.0686-.099.1687-.1718.284-.2066.1153-.0349.239-.0298.351.0146 1.3784.5484 2.8443.8446 4.3276.8746 1.4642-.0268 2.911-.3214 4.2689-.8693.1115-.0449.2348-.0508.35-.017.1153.0339.2157.1057.2851.2037l8.4952 12.8c.5816.9653.7043 1.728.3842 2.2986-.2242.3307-.6724.7467-1.745.7467z" fill="#16d2aa"/><path d="m44.2956 24.5333h-8.6126c-.4532-.0594-.8694-.2816-1.1708-.625-.3015-.3435-.4678-.7848-.4678-1.2416 0-.4569.1663-.8982.4678-1.2417.3014-.3434.7176-.5656 1.1708-.625h8.6126c.4533.0594.8694.2816 1.1709.625.3015.3435.4678.7848.4678 1.2417 0 .4568-.1663.8981-.4678 1.2416-.3015.3434-.7176.5656-1.1709.625z" fill="#b5e2fa"/><g fill="#fff"><path d="m44.9679 52.1173c0 .3165-.0938.6258-.2698.8889-.1759.2632-.4259.4682-.7184.5893s-.6144.1528-.9249.0911c-.3106-.0617-.5958-.2141-.8197-.4379s-.3763-.5089-.4381-.8192c-.0618-.3104-.0301-.6321.0911-.9245.1212-.2923.3263-.5422.5896-.718s.5728-.2697.8894-.2697c.4246 0 .8317.1686 1.132.4687.3002.3.4688.707.4688 1.1313z"/><path d="m40.7364 47.3653c0 .422-.1252.8344-.3598 1.1852-.2345.3509-.5679.6243-.9579.7858-.39.1614-.8192.2037-1.2332.1214-.4141-.0823-.7944-.2855-1.0929-.5839-.2985-.2983-.5018-.6785-.5842-1.0923-.0823-.4138-.0401-.8427.1215-1.2326.1615-.3898.4351-.723.7861-.9574s.7637-.3595 1.1859-.3595c.5661 0 1.109.2248 1.5093.6248.4003.4001.6252.9427.6252 1.5085z"/><path d="m36.0192 53.5253c0 .211-.0626.4172-.1798.5927-.1173.1754-.284.3121-.479.3928s-.4096.1019-.6166.0607c-.207-.0411-.3972-.1427-.5464-.2919-.1493-.1492-.2509-.3392-.2921-.5462-.0412-.2069-.0201-.4213.0607-.6162.0808-.195.2176-.3615.3931-.4788.1755-.1172.3818-.1797.5929-.1797.2831 0 .5545.1124.7547.3124.2001.2.3125.4713.3125.7542z"/></g></svg>