<svg fill="none" height="60" viewBox="0 0 60 60" width="60" xmlns="http://www.w3.org/2000/svg"><path d="m30 60c16.5685 0 30-13.4315 30-30s-13.4315-30-30-30-30 13.4315-30 30 13.4315 30 30 30z" fill="#e3f2fd"/><path d="m18 13 26 25" stroke="#593c33" stroke-width="2"/><circle cx="31.5" cy="25.5" fill="#1855d1" r="11.5"/><g fill="#16d2aa"><path d="m25.4274 18.1957-.0425-.6309c-.0501-.7433-.864-1.1632-1.4401-.6909-2.4184 1.9831-3.4186 4.619-3.7029 6.4138-.0516.3258.2199.6014.5492.5814.1678-.0102.3308.0578.4417.1841l1.4721 1.6772c.2039.2323.5037.3573.8122.3385l1.1587-.0704c.4423-.0268.8142-.3416.9138-.7735l.2458-1.0662c.0854-.3704.3733-.6603.7431-.7482l1.4297-.3401c.5879-.1398.9184-.7651.7028-1.3297l-.4052-1.0607c-.0795-.2082-.2263-.3839-.4171-.4992l-1.9807-1.1965c-.2793-.1687-.4587-.4631-.4806-.7887z"/><path d="m29.0889 26.4285-3.2838-.9218c-.7702-.2162-1.4699.5146-1.2204 1.2746l.7748 2.3607.6634 2.8549c.0756.3251.3082.591.6204.709l2.6466 1.0009c.4497.17.9569-.0041 1.2073-.4145l1.0192-1.6703c.2727-.4469.1546-1.0284-.2708-1.3335l-.5165-.3705c-.1923-.1378-.3294-.3393-.3871-.5687l-.5536-2.2018c-.0874-.3478-.3543-.6221-.6995-.719z"/><path d="m36.2646 20.7516-.5327-4.4505c-.0855-.7148.5814-1.2539 1.2217-.9248 1.5695.8067 3.6827 2.3386 4.7927 4.6364 1.8476 3.8249 1.3849 6.7022.801 8.3674-.1593.4544-.6486.686-1.1161.5705l-1.5177-.3752c-.3935-.0973-.6893-.4224-.7491-.8233l-.3626-2.4326c-.0192-.129-.0635-.253-.1303-.365l-2.2728-3.8094c-.0717-.1203-.1174-.2544-.1341-.3935z"/></g><path d="m30 40h3v3h-3z" fill="#593c33"/><path d="m37.0505 43h-11.3691c-1.9406 0-2.5883 2.5785-2.6773 3.9322h16.9959c0-2.983-1.9664-3.8644-2.9495-3.9322z" fill="#593c33"/><path d="m41 35.8822c-2.6366 2.6366-6.2125 4.1178-9.9411 4.1178-3.7287 0-7.3046-1.4812-9.9412-4.1178-2.6365-2.6365-4.1177-6.2124-4.1177-9.9411 0-3.7286 1.4812-7.3045 4.1177-9.9411" stroke="#593c33" stroke-width="2"/></svg>