<svg width="220" height="225" viewBox="0 0 220 225" fill="none" xmlns="http://www.w3.org/2000/svg">
<ellipse cx="108.5" cy="111" rx="91.5" ry="92" fill="#CFE2F9" fill-opacity="0.75"/>
<path d="M21.5 147C32.8218 147 42 137.822 42 126.5C42 115.178 32.8218 106 21.5 106C10.1782 106 1 115.178 1 126.5C1 137.822 10.1782 147 21.5 147Z" fill="#F584F6"/>
<path d="M20.5 145C31.8218 145 41 135.822 41 124.5C41 113.178 31.8218 104 20.5 104C9.17816 104 0 113.178 0 124.5C0 135.822 9.17816 145 20.5 145Z" fill="#F7AEF8"/>
<path d="M20.5 145C31.8218 145 41 135.822 41 124.5C41 113.178 31.8218 104 20.5 104C9.17816 104 0 113.178 0 124.5C0 135.822 9.17816 145 20.5 145Z" fill="#F7AEF8"/>
<path d="M16.4191 124.91H14.4866C14.3417 124.91 14.2026 124.852 14.1001 124.75C13.9976 124.647 13.94 124.508 13.94 124.363V123.029C13.94 122.884 13.9976 122.745 14.1001 122.643C14.2026 122.54 14.3417 122.483 14.4866 122.483H16.43C16.5722 122.487 16.707 122.547 16.806 122.649C16.905 122.751 16.9604 122.887 16.9603 123.029V124.374C16.9575 124.516 16.8994 124.652 16.7983 124.752C16.6973 124.852 16.5613 124.909 16.4191 124.91ZM14.4866 122.767C14.4141 122.767 14.3446 122.796 14.2934 122.847C14.2421 122.898 14.2133 122.968 14.2133 123.04V124.385C14.2133 124.458 14.2421 124.527 14.2934 124.578C14.3446 124.63 14.4141 124.659 14.4866 124.659H16.43C16.4997 124.654 16.565 124.624 16.6128 124.573C16.6606 124.522 16.6871 124.455 16.687 124.385V123.029C16.6871 122.96 16.6606 122.893 16.6128 122.842C16.565 122.791 16.4997 122.76 16.43 122.756L14.4866 122.767Z" fill="#F44747"/>
<path d="M19.7866 124.91H17.8459C17.7009 124.91 17.5619 124.852 17.4594 124.75C17.3569 124.647 17.2993 124.508 17.2993 124.363V123.029C17.2993 122.884 17.3569 122.745 17.4594 122.643C17.5619 122.54 17.7009 122.483 17.8459 122.483H19.7866C19.9316 122.483 20.0706 122.54 20.1731 122.643C20.2757 122.745 20.3333 122.884 20.3333 123.029V124.374C20.3304 124.517 20.2715 124.654 20.1693 124.754C20.0671 124.854 19.9297 124.91 19.7866 124.91ZM17.8459 122.767C17.7734 122.767 17.7039 122.796 17.6526 122.847C17.6014 122.898 17.5726 122.968 17.5726 123.04V124.385C17.5726 124.458 17.6014 124.527 17.6526 124.578C17.7039 124.63 17.7734 124.659 17.8459 124.659H19.7866C19.8591 124.659 19.9286 124.63 19.9799 124.578C20.0311 124.527 20.0599 124.458 20.0599 124.385V123.029C20.0599 122.957 20.0311 122.887 19.9799 122.836C19.9286 122.785 19.8591 122.756 19.7866 122.756L17.8459 122.767Z" fill="#F44747"/>
<path d="M23.1568 124.91H21.2134C21.0713 124.906 20.9364 124.846 20.8374 124.744C20.7384 124.642 20.6831 124.506 20.6832 124.363V123.029C20.6831 122.887 20.7384 122.751 20.8374 122.649C20.9364 122.547 21.0713 122.487 21.2134 122.483H23.1568C23.3018 122.483 23.4409 122.54 23.5434 122.643C23.6459 122.745 23.7035 122.884 23.7035 123.029V124.374C23.7006 124.517 23.6418 124.654 23.5396 124.754C23.4374 124.854 23.2999 124.91 23.1568 124.91ZM21.2134 122.767C21.1438 122.771 21.0784 122.802 21.0307 122.853C20.9829 122.904 20.9564 122.971 20.9565 123.04V124.385C20.9564 124.455 20.9829 124.522 21.0307 124.573C21.0784 124.624 21.1438 124.654 21.2134 124.659H23.1568C23.2293 124.659 23.2988 124.63 23.3501 124.578C23.4014 124.527 23.4302 124.458 23.4302 124.385V123.029C23.4302 122.957 23.4014 122.887 23.3501 122.836C23.2988 122.785 23.2293 122.756 23.1568 122.756L21.2134 122.767Z" fill="#F44747"/>
<path d="M26.5134 124.91H24.5727C24.4277 124.91 24.2887 124.852 24.1862 124.75C24.0837 124.647 24.0261 124.508 24.0261 124.363V123.029C24.0261 122.884 24.0837 122.745 24.1862 122.643C24.2887 122.54 24.4277 122.483 24.5727 122.483H26.5134C26.656 122.486 26.7916 122.546 26.8911 122.648C26.9907 122.75 27.0464 122.887 27.0464 123.029V124.374C27.0436 124.515 26.9867 124.649 26.8874 124.749C26.7881 124.849 26.6541 124.906 26.5134 124.91ZM24.5727 122.767C24.5002 122.767 24.4307 122.796 24.3795 122.847C24.3282 122.898 24.2994 122.968 24.2994 123.04V124.385C24.2994 124.458 24.3282 124.527 24.3795 124.578C24.4307 124.63 24.5002 124.659 24.5727 124.659H26.5134C26.5835 124.655 26.6496 124.625 26.6979 124.574C26.7462 124.523 26.7732 124.455 26.7731 124.385V123.029C26.7732 122.959 26.7462 122.892 26.6979 122.841C26.6496 122.79 26.5835 122.76 26.5134 122.756L24.5727 122.767Z" fill="#F44747"/>
<path d="M16.4191 127.63H14.4866C14.3417 127.63 14.2026 127.572 14.1001 127.47C13.9976 127.367 13.94 127.228 13.94 127.083V125.746C13.94 125.601 13.9976 125.462 14.1001 125.36C14.2026 125.257 14.3417 125.2 14.4866 125.2H16.43C16.5722 125.204 16.707 125.263 16.806 125.366C16.905 125.468 16.9604 125.604 16.9603 125.746V127.094C16.9575 127.236 16.8994 127.371 16.7983 127.472C16.6973 127.572 16.5613 127.628 16.4191 127.63ZM14.4866 125.487C14.4141 125.487 14.3446 125.516 14.2934 125.567C14.2421 125.618 14.2133 125.688 14.2133 125.76V127.108C14.2133 127.18 14.2421 127.25 14.2934 127.301C14.3446 127.352 14.4141 127.381 14.4866 127.381H16.43C16.4997 127.377 16.565 127.346 16.6128 127.295C16.6606 127.244 16.6871 127.177 16.687 127.108V125.746C16.6871 125.677 16.6606 125.609 16.6128 125.559C16.565 125.508 16.4997 125.477 16.43 125.473L14.4866 125.487Z" fill="#F44747"/>
<path d="M19.7866 127.63H17.8459C17.7009 127.63 17.5619 127.572 17.4594 127.47C17.3569 127.367 17.2993 127.228 17.2993 127.083V125.746C17.2993 125.601 17.3569 125.462 17.4594 125.36C17.5619 125.257 17.7009 125.2 17.8459 125.2H19.7866C19.9316 125.2 20.0706 125.257 20.1731 125.36C20.2757 125.462 20.3333 125.601 20.3333 125.746V127.094C20.3304 127.237 20.2715 127.373 20.1693 127.473C20.0671 127.574 19.9297 127.63 19.7866 127.63ZM17.8459 125.487C17.7734 125.487 17.7039 125.516 17.6526 125.567C17.6014 125.618 17.5726 125.688 17.5726 125.76V127.108C17.5726 127.18 17.6014 127.25 17.6526 127.301C17.7039 127.352 17.7734 127.381 17.8459 127.381H19.7866C19.8591 127.381 19.9286 127.352 19.9799 127.301C20.0311 127.25 20.0599 127.18 20.0599 127.108V125.746C20.0599 125.674 20.0311 125.604 19.9799 125.553C19.9286 125.502 19.8591 125.473 19.7866 125.473L17.8459 125.487Z" fill="#F44747"/>
<path d="M23.1568 127.63H21.2134C21.0713 127.625 20.9364 127.566 20.8374 127.464C20.7384 127.362 20.6831 127.225 20.6832 127.083V125.746C20.6831 125.604 20.7384 125.468 20.8374 125.366C20.9364 125.263 21.0713 125.204 21.2134 125.2H23.1568C23.3018 125.2 23.4409 125.257 23.5434 125.36C23.6459 125.462 23.7035 125.601 23.7035 125.746V127.094C23.7006 127.237 23.6418 127.373 23.5396 127.473C23.4374 127.574 23.2999 127.63 23.1568 127.63ZM21.2134 125.487C21.1438 125.491 21.0784 125.522 21.0307 125.572C20.9829 125.623 20.9564 125.69 20.9565 125.76V127.108C20.9564 127.177 20.9829 127.244 21.0307 127.295C21.0784 127.346 21.1438 127.377 21.2134 127.381H23.1568C23.2293 127.381 23.2988 127.352 23.3501 127.301C23.4014 127.25 23.4302 127.18 23.4302 127.108V125.746C23.4302 125.674 23.4014 125.604 23.3501 125.553C23.2988 125.502 23.2293 125.473 23.1568 125.473L21.2134 125.487Z" fill="#F44747"/>
<path d="M26.5134 127.63H24.5727C24.4277 127.63 24.2887 127.572 24.1862 127.47C24.0837 127.367 24.0261 127.228 24.0261 127.083V125.746C24.0261 125.601 24.0837 125.462 24.1862 125.36C24.2887 125.257 24.4277 125.2 24.5727 125.2H26.5134C26.656 125.203 26.7916 125.262 26.8911 125.365C26.9907 125.467 27.0464 125.604 27.0464 125.746V127.094C27.0436 127.235 26.9867 127.369 26.8874 127.469C26.7881 127.569 26.6541 127.626 26.5134 127.63ZM24.5727 125.487C24.5002 125.487 24.4307 125.516 24.3795 125.567C24.3282 125.618 24.2994 125.688 24.2994 125.76V127.108C24.2994 127.18 24.3282 127.25 24.3795 127.301C24.4307 127.352 24.5002 127.381 24.5727 127.381H26.5134C26.5835 127.377 26.6496 127.347 26.6979 127.296C26.7462 127.245 26.7732 127.178 26.7731 127.108V125.746C26.7732 125.676 26.7462 125.609 26.6979 125.558C26.6496 125.507 26.5835 125.477 26.5134 125.473L24.5727 125.487Z" fill="#F44747"/>
<path d="M16.4191 130.347H14.4866C14.3417 130.347 14.2026 130.289 14.1001 130.187C13.9976 130.084 13.94 129.945 13.94 129.8V128.466C13.94 128.321 13.9976 128.182 14.1001 128.08C14.2026 127.977 14.3417 127.919 14.4866 127.919H16.43C16.5722 127.924 16.707 127.983 16.806 128.085C16.905 128.187 16.9604 128.324 16.9603 128.466V129.814C16.9607 129.884 16.9469 129.955 16.9197 130.02C16.8926 130.085 16.8526 130.145 16.8021 130.194C16.7517 130.244 16.6918 130.283 16.626 130.309C16.5602 130.335 16.4899 130.348 16.4191 130.347ZM14.4866 128.204C14.4141 128.204 14.3446 128.232 14.2934 128.284C14.2421 128.335 14.2133 128.405 14.2133 128.477V129.825C14.2133 129.897 14.2421 129.967 14.2934 130.018C14.3446 130.069 14.4141 130.098 14.4866 130.098H16.43C16.4997 130.094 16.565 130.063 16.6128 130.012C16.6606 129.961 16.6871 129.894 16.687 129.825V128.466C16.6871 128.396 16.6606 128.329 16.6128 128.278C16.565 128.228 16.4997 128.197 16.43 128.193L14.4866 128.204Z" fill="#F44747"/>
<path d="M19.7866 130.347H17.8459C17.7009 130.347 17.5619 130.289 17.4594 130.187C17.3569 130.084 17.2993 129.945 17.2993 129.8V128.466C17.2993 128.321 17.3569 128.182 17.4594 128.08C17.5619 127.977 17.7009 127.919 17.8459 127.919H19.7866C19.9316 127.919 20.0706 127.977 20.1731 128.08C20.2757 128.182 20.3333 128.321 20.3333 128.466V129.814C20.3297 129.956 20.2705 130.092 20.1684 130.191C20.0663 130.291 19.9292 130.347 19.7866 130.347ZM17.8459 128.204C17.7734 128.204 17.7039 128.232 17.6526 128.284C17.6014 128.335 17.5726 128.405 17.5726 128.477V129.825C17.5726 129.897 17.6014 129.967 17.6526 130.018C17.7039 130.069 17.7734 130.098 17.8459 130.098H19.7866C19.8591 130.098 19.9286 130.069 19.9799 130.018C20.0311 129.967 20.0599 129.897 20.0599 129.825V128.466C20.0599 128.394 20.0311 128.324 19.9799 128.273C19.9286 128.222 19.8591 128.193 19.7866 128.193L17.8459 128.204Z" fill="#F44747"/>
<path d="M26.5134 130.347H24.5727C24.4277 130.347 24.2887 130.289 24.1862 130.187C24.0837 130.084 24.0261 129.945 24.0261 129.8V128.466C24.0261 128.321 24.0837 128.182 24.1862 128.08C24.2887 127.977 24.4277 127.919 24.5727 127.919H26.5134C26.656 127.923 26.7916 127.982 26.8911 128.084C26.9907 128.186 27.0464 128.323 27.0464 128.466V129.814C27.0429 129.954 26.9857 130.087 26.8864 130.187C26.7872 130.286 26.6537 130.343 26.5134 130.347ZM24.5727 128.204C24.5002 128.204 24.4307 128.232 24.3795 128.284C24.3282 128.335 24.2994 128.405 24.2994 128.477V129.825C24.2994 129.897 24.3282 129.967 24.3795 130.018C24.4307 130.069 24.5002 130.098 24.5727 130.098H26.5134C26.5835 130.094 26.6496 130.064 26.6979 130.013C26.7462 129.962 26.7732 129.895 26.7731 129.825V128.466C26.7732 128.396 26.7462 128.328 26.6979 128.277C26.6496 128.227 26.5835 128.196 26.5134 128.193L24.5727 128.204Z" fill="#F44747"/>
<path d="M16.4191 133.066H14.4866C14.3417 133.066 14.2026 133.009 14.1001 132.906C13.9976 132.804 13.94 132.665 13.94 132.52V131.186C13.94 131.041 13.9976 130.902 14.1001 130.799C14.2026 130.697 14.3417 130.639 14.4866 130.639H16.43C16.5722 130.643 16.707 130.703 16.806 130.805C16.905 130.907 16.9604 131.044 16.9603 131.186V132.531C16.9575 132.673 16.8994 132.808 16.7983 132.908C16.6973 133.008 16.5613 133.065 16.4191 133.066ZM14.4866 130.923C14.4141 130.923 14.3446 130.952 14.2934 131.003C14.2421 131.055 14.2133 131.124 14.2133 131.197V132.541C14.2133 132.614 14.2421 132.683 14.2934 132.735C14.3446 132.786 14.4141 132.815 14.4866 132.815H16.43C16.4997 132.811 16.565 132.78 16.6128 132.729C16.6606 132.678 16.6871 132.611 16.687 132.541V131.186C16.6871 131.116 16.6606 131.049 16.6128 130.998C16.565 130.947 16.4997 130.917 16.43 130.912L14.4866 130.923Z" fill="#F44747"/>
<path d="M19.7866 133.066H17.8459C17.7009 133.066 17.5619 133.009 17.4594 132.906C17.3569 132.804 17.2993 132.665 17.2993 132.52V131.186C17.2993 131.041 17.3569 130.902 17.4594 130.799C17.5619 130.697 17.7009 130.639 17.8459 130.639H19.7866C19.9316 130.639 20.0706 130.697 20.1731 130.799C20.2757 130.902 20.3333 131.041 20.3333 131.186V132.531C20.3304 132.674 20.2715 132.81 20.1693 132.91C20.0671 133.01 19.9297 133.066 19.7866 133.066ZM17.8459 130.923C17.7734 130.923 17.7039 130.952 17.6526 131.003C17.6014 131.055 17.5726 131.124 17.5726 131.197V132.541C17.5726 132.614 17.6014 132.683 17.6526 132.735C17.7039 132.786 17.7734 132.815 17.8459 132.815H19.7866C19.8591 132.815 19.9286 132.786 19.9799 132.735C20.0311 132.683 20.0599 132.614 20.0599 132.541V131.186C20.0599 131.113 20.0311 131.044 19.9799 130.992C19.9286 130.941 19.8591 130.912 19.7866 130.912L17.8459 130.923Z" fill="#F44747"/>
<path d="M26.5134 133.066H24.5727C24.4277 133.066 24.2887 133.009 24.1862 132.906C24.0837 132.804 24.0261 132.665 24.0261 132.52V131.186C24.0261 131.041 24.0837 130.902 24.1862 130.799C24.2887 130.697 24.4277 130.639 24.5727 130.639H26.5134C26.656 130.643 26.7916 130.702 26.8911 130.804C26.9907 130.906 27.0464 131.043 27.0464 131.186V132.531C27.0436 132.671 26.9867 132.806 26.8874 132.905C26.7881 133.005 26.6541 133.063 26.5134 133.066ZM24.5727 130.923C24.5002 130.923 24.4307 130.952 24.3795 131.003C24.3282 131.055 24.2994 131.124 24.2994 131.197V132.541C24.2994 132.614 24.3282 132.683 24.3795 132.735C24.4307 132.786 24.5002 132.815 24.5727 132.815H26.5134C26.5835 132.811 26.6496 132.781 26.6979 132.73C26.7462 132.679 26.7732 132.612 26.7731 132.541V131.186C26.7732 131.116 26.7462 131.048 26.6979 130.997C26.6496 130.946 26.5835 130.916 26.5134 130.912L24.5727 130.923Z" fill="#F44747"/>
<path d="M23.0666 130.347H21.126C20.981 130.347 20.8419 130.289 20.7394 130.187C20.6369 130.084 20.5793 129.945 20.5793 129.8V128.466C20.5793 128.321 20.6369 128.182 20.7394 128.08C20.8419 127.977 20.981 127.919 21.126 127.919H23.0666C23.2116 127.919 23.3507 127.977 23.4532 128.08C23.5557 128.182 23.6133 128.321 23.6133 128.466V129.814C23.6097 129.956 23.5506 130.092 23.4484 130.191C23.3463 130.291 23.2093 130.347 23.0666 130.347ZM21.126 128.204C21.0535 128.204 20.984 128.232 20.9327 128.284C20.8814 128.335 20.8526 128.405 20.8526 128.477V129.825C20.8526 129.897 20.8814 129.967 20.9327 130.018C20.984 130.069 21.0535 130.098 21.126 130.098H23.0666C23.1391 130.098 23.2087 130.069 23.2599 130.018C23.3112 129.967 23.34 129.897 23.34 129.825V128.466C23.34 128.394 23.3112 128.324 23.2599 128.273C23.2087 128.222 23.1391 128.193 23.0666 128.193L21.126 128.204Z" fill="#F44747"/>
<path d="M27.8117 134.34H13.1883C13.0727 134.341 12.9581 134.319 12.8509 134.276C12.7437 134.233 12.6461 134.169 12.5636 134.088C12.4811 134.007 12.4153 133.911 12.3701 133.804C12.3249 133.698 12.3011 133.584 12.3 133.468V115.532C12.3011 115.416 12.3249 115.302 12.3701 115.196C12.4153 115.089 12.4811 114.993 12.5636 114.912C12.6461 114.831 12.7437 114.767 12.8509 114.724C12.9581 114.681 13.0727 114.659 13.1883 114.66H27.8117C27.9272 114.659 28.0419 114.681 28.1491 114.724C28.2563 114.767 28.3539 114.831 28.4364 114.912C28.5189 114.993 28.5846 115.089 28.6299 115.196C28.6751 115.302 28.6989 115.416 28.7 115.532V133.468C28.6989 133.584 28.6751 133.698 28.6299 133.804C28.5846 133.911 28.5189 134.007 28.4364 134.088C28.3539 134.169 28.2563 134.233 28.1491 134.276C28.0419 134.319 27.9272 134.341 27.8117 134.34Z" fill="#F44747"/>
<path d="M26.4505 121.061H14.5496C14.4074 121.057 14.2726 120.998 14.1736 120.896C14.0746 120.794 14.0192 120.657 14.0193 120.515V116.792C14.0192 116.65 14.0746 116.513 14.1736 116.411C14.2726 116.309 14.4074 116.25 14.5496 116.245H26.4505C26.5926 116.25 26.7275 116.309 26.8265 116.411C26.9255 116.513 26.9808 116.65 26.9808 116.792V120.504C26.9837 120.648 26.9296 120.787 26.8303 120.892C26.731 120.996 26.5945 121.057 26.4505 121.061Z" fill="white"/>
<path d="M16.4192 124.773H14.4867C14.4344 124.773 14.3827 124.763 14.3344 124.743C14.2861 124.723 14.2423 124.693 14.2055 124.656C14.1686 124.619 14.1395 124.575 14.1198 124.527C14.1 124.478 14.09 124.427 14.0904 124.374V123.029C14.09 122.977 14.1 122.925 14.1198 122.877C14.1395 122.829 14.1686 122.785 14.2055 122.747C14.2423 122.71 14.2861 122.681 14.3344 122.661C14.3827 122.641 14.4344 122.63 14.4867 122.63H16.4301C16.4823 122.63 16.5339 122.641 16.582 122.661C16.6301 122.681 16.6738 122.71 16.7104 122.748C16.747 122.785 16.7759 122.829 16.7953 122.877C16.8148 122.926 16.8244 122.977 16.8237 123.029V124.374C16.8245 124.427 16.8145 124.48 16.7943 124.529C16.7742 124.578 16.7444 124.623 16.7066 124.66C16.6688 124.697 16.6238 124.727 16.5744 124.746C16.5251 124.766 16.4722 124.775 16.4192 124.773Z" fill="#2A4494"/>
<path d="M19.7867 124.773H17.846C17.7937 124.773 17.7419 124.763 17.6937 124.743C17.6454 124.723 17.6016 124.693 17.5648 124.656C17.5279 124.619 17.4988 124.575 17.479 124.527C17.4593 124.478 17.4493 124.427 17.4497 124.374V123.029C17.4493 122.977 17.4593 122.925 17.479 122.877C17.4988 122.829 17.5279 122.785 17.5648 122.747C17.6016 122.71 17.6454 122.681 17.6937 122.661C17.7419 122.641 17.7937 122.63 17.846 122.63H19.7867C19.8389 122.63 19.8907 122.641 19.939 122.661C19.9872 122.681 20.031 122.71 20.0679 122.747C20.1047 122.785 20.1339 122.829 20.1536 122.877C20.1734 122.925 20.1833 122.977 20.183 123.029V124.374C20.1833 124.427 20.1734 124.478 20.1536 124.527C20.1339 124.575 20.1047 124.619 20.0679 124.656C20.031 124.693 19.9872 124.723 19.939 124.743C19.8907 124.763 19.8389 124.773 19.7867 124.773Z" fill="#2A4494"/>
<path d="M23.1568 124.773H21.2134C21.1613 124.773 21.1096 124.763 21.0615 124.743C21.0134 124.723 20.9698 124.693 20.9332 124.656C20.8965 124.619 20.8677 124.575 20.8482 124.527C20.8288 124.478 20.8191 124.426 20.8198 124.374V123.029C20.8191 122.977 20.8288 122.926 20.8482 122.877C20.8677 122.829 20.8965 122.785 20.9332 122.748C20.9698 122.71 21.0134 122.681 21.0615 122.661C21.1096 122.641 21.1613 122.63 21.2134 122.63H23.1568C23.2091 122.63 23.2609 122.641 23.3091 122.661C23.3574 122.681 23.4012 122.71 23.4381 122.747C23.4749 122.785 23.504 122.829 23.5238 122.877C23.5435 122.925 23.5535 122.977 23.5532 123.029V124.374C23.5535 124.427 23.5435 124.478 23.5238 124.527C23.504 124.575 23.4749 124.619 23.4381 124.656C23.4012 124.693 23.3574 124.723 23.3091 124.743C23.2609 124.763 23.2091 124.773 23.1568 124.773Z" fill="#2A4494"/>
<path d="M26.5133 124.773H24.5727C24.5204 124.773 24.4686 124.763 24.4204 124.743C24.3721 124.723 24.3283 124.693 24.2915 124.656C24.2546 124.619 24.2255 124.575 24.2057 124.527C24.186 124.478 24.176 124.427 24.1763 124.374V123.029C24.176 122.977 24.186 122.925 24.2057 122.877C24.2255 122.829 24.2546 122.785 24.2915 122.747C24.3283 122.71 24.3721 122.681 24.4204 122.661C24.4686 122.641 24.5204 122.63 24.5727 122.63H26.5133C26.5656 122.63 26.6174 122.641 26.6656 122.661C26.7139 122.681 26.7577 122.71 26.7946 122.747C26.8314 122.785 26.8605 122.829 26.8803 122.877C26.9 122.925 26.91 122.977 26.9097 123.029V124.374C26.91 124.427 26.9 124.478 26.8803 124.527C26.8605 124.575 26.8314 124.619 26.7946 124.656C26.7577 124.693 26.7139 124.723 26.6656 124.743C26.6174 124.763 26.5656 124.773 26.5133 124.773Z" fill="#2A4494"/>
<path d="M16.4192 127.507H14.4867C14.3813 127.506 14.2805 127.463 14.2063 127.389C14.132 127.314 14.0904 127.213 14.0904 127.108V125.746C14.0904 125.694 14.1006 125.643 14.1205 125.595C14.1404 125.547 14.1696 125.503 14.2064 125.466C14.2432 125.429 14.2869 125.4 14.335 125.38C14.3831 125.36 14.4346 125.35 14.4867 125.35H16.4301C16.482 125.35 16.5334 125.36 16.5814 125.38C16.6293 125.4 16.6728 125.429 16.7094 125.466C16.746 125.503 16.7749 125.547 16.7945 125.595C16.8141 125.643 16.8241 125.694 16.8237 125.746V127.094C16.8259 127.148 16.8171 127.202 16.7977 127.252C16.7782 127.303 16.7487 127.349 16.7108 127.388C16.6728 127.426 16.6274 127.457 16.5773 127.477C16.5271 127.498 16.4733 127.508 16.4192 127.507Z" fill="#2A4494"/>
<path d="M19.7866 127.507H17.846C17.7406 127.506 17.6398 127.463 17.5656 127.389C17.4913 127.314 17.4496 127.213 17.4496 127.108V125.746C17.4496 125.641 17.4914 125.54 17.5657 125.466C17.6401 125.392 17.7409 125.35 17.846 125.35H19.7866C19.8918 125.35 19.9926 125.392 20.0669 125.466C20.1412 125.54 20.183 125.641 20.183 125.746V127.094C20.1848 127.147 20.1759 127.2 20.1569 127.25C20.1378 127.3 20.1089 127.345 20.072 127.384C20.035 127.422 19.9908 127.453 19.9417 127.474C19.8927 127.495 19.84 127.506 19.7866 127.507Z" fill="#2A4494"/>
<path d="M23.1568 127.507H21.2134C21.1614 127.506 21.1099 127.496 21.0619 127.475C21.014 127.455 20.9705 127.426 20.934 127.389C20.8974 127.352 20.8685 127.308 20.8489 127.259C20.8293 127.211 20.8194 127.16 20.8198 127.108V125.746C20.8194 125.694 20.8294 125.643 20.849 125.595C20.8686 125.547 20.8975 125.503 20.9341 125.466C20.9707 125.429 21.0142 125.4 21.0621 125.38C21.1101 125.36 21.1615 125.35 21.2134 125.35H23.1568C23.2619 125.35 23.3627 125.392 23.4371 125.466C23.5114 125.54 23.5531 125.641 23.5531 125.746V127.094C23.555 127.147 23.5461 127.2 23.527 127.25C23.508 127.3 23.4791 127.345 23.4422 127.384C23.4052 127.422 23.3609 127.453 23.3119 127.474C23.2629 127.495 23.2102 127.506 23.1568 127.507Z" fill="#2A4494"/>
<path d="M26.5133 127.507H24.5727C24.4673 127.506 24.3665 127.463 24.2922 127.389C24.218 127.314 24.1763 127.213 24.1763 127.108V125.746C24.1763 125.641 24.2181 125.54 24.2924 125.466C24.3667 125.392 24.4676 125.35 24.5727 125.35H26.5133C26.6184 125.35 26.7193 125.392 26.7936 125.466C26.8679 125.54 26.9097 125.641 26.9097 125.746V127.094C26.9115 127.147 26.9026 127.2 26.8835 127.25C26.8645 127.3 26.8356 127.345 26.7987 127.384C26.7617 127.422 26.7174 127.453 26.6684 127.474C26.6194 127.495 26.5667 127.506 26.5133 127.507Z" fill="#2A4494"/>
<path d="M16.4192 130.21H14.4867C14.4346 130.21 14.3831 130.2 14.335 130.18C14.2869 130.16 14.2432 130.131 14.2064 130.094C14.1696 130.057 14.1404 130.013 14.1205 129.965C14.1006 129.917 14.0904 129.866 14.0904 129.814V128.466C14.0904 128.361 14.132 128.26 14.2063 128.185C14.2805 128.11 14.3813 128.068 14.4867 128.067H16.4301C16.4821 128.067 16.5336 128.078 16.5816 128.098C16.6295 128.118 16.673 128.148 16.7095 128.185C16.7461 128.222 16.775 128.266 16.7946 128.314C16.8142 128.362 16.8241 128.414 16.8237 128.466V129.814C16.8241 129.866 16.8138 129.919 16.7935 129.968C16.7732 130.016 16.7433 130.061 16.7056 130.098C16.6678 130.135 16.623 130.164 16.5738 130.183C16.5246 130.202 16.472 130.211 16.4192 130.21Z" fill="#2A4494"/>
<path d="M19.7866 130.21H17.846C17.7409 130.21 17.6401 130.168 17.5657 130.094C17.4914 130.02 17.4496 129.919 17.4496 129.814V128.466C17.4496 128.361 17.4913 128.26 17.5656 128.185C17.6398 128.11 17.7406 128.068 17.846 128.067H19.7866C19.892 128.068 19.9928 128.11 20.0671 128.185C20.1413 128.26 20.183 128.361 20.183 128.466V129.814C20.183 129.919 20.1412 130.02 20.0669 130.094C19.9926 130.168 19.8918 130.21 19.7866 130.21Z" fill="#2A4494"/>
<path d="M26.5133 130.21H24.5727C24.4676 130.21 24.3667 130.168 24.2924 130.094C24.2181 130.02 24.1763 129.919 24.1763 129.814V128.466C24.1763 128.361 24.218 128.26 24.2922 128.185C24.3665 128.11 24.4673 128.068 24.5727 128.067H26.5133C26.6187 128.068 26.7195 128.11 26.7937 128.185C26.868 128.26 26.9097 128.361 26.9097 128.466V129.814C26.9097 129.919 26.8679 130.02 26.7936 130.094C26.7193 130.168 26.6184 130.21 26.5133 130.21Z" fill="#2A4494"/>
<path d="M16.4192 132.93H14.4867C14.4344 132.93 14.3827 132.919 14.3344 132.899C14.2861 132.879 14.2423 132.85 14.2055 132.813C14.1686 132.775 14.1395 132.731 14.1198 132.683C14.1 132.635 14.09 132.583 14.0904 132.53V131.186C14.09 131.133 14.1 131.082 14.1198 131.033C14.1395 130.985 14.1686 130.941 14.2055 130.904C14.2423 130.867 14.2861 130.837 14.3344 130.817C14.3827 130.797 14.4344 130.787 14.4867 130.787H16.4301C16.4823 130.787 16.5339 130.797 16.582 130.817C16.6301 130.837 16.6738 130.867 16.7104 130.904C16.747 130.941 16.7759 130.985 16.7953 131.033C16.8148 131.082 16.8244 131.134 16.8237 131.186V132.53C16.8245 132.584 16.8145 132.636 16.7943 132.685C16.7742 132.734 16.7444 132.779 16.7066 132.816C16.6688 132.854 16.6238 132.883 16.5744 132.902C16.5251 132.922 16.4722 132.931 16.4192 132.93Z" fill="#2A4494"/>
<path d="M19.7867 132.93H17.846C17.7937 132.93 17.7419 132.919 17.6937 132.899C17.6454 132.879 17.6016 132.85 17.5648 132.813C17.5279 132.775 17.4988 132.731 17.479 132.683C17.4593 132.635 17.4493 132.583 17.4497 132.53V131.186C17.4493 131.133 17.4593 131.082 17.479 131.033C17.4988 130.985 17.5279 130.941 17.5648 130.904C17.6016 130.867 17.6454 130.837 17.6937 130.817C17.7419 130.797 17.7937 130.787 17.846 130.787H19.7867C19.8389 130.787 19.8907 130.797 19.939 130.817C19.9872 130.837 20.031 130.867 20.0679 130.904C20.1047 130.941 20.1339 130.985 20.1536 131.033C20.1734 131.082 20.1833 131.133 20.183 131.186V132.53C20.1833 132.583 20.1734 132.635 20.1536 132.683C20.1339 132.731 20.1047 132.775 20.0679 132.813C20.031 132.85 19.9872 132.879 19.939 132.899C19.8907 132.919 19.8389 132.93 19.7867 132.93Z" fill="#2A4494"/>
<path d="M26.5133 132.93H24.5727C24.5204 132.93 24.4686 132.919 24.4204 132.899C24.3721 132.879 24.3283 132.85 24.2915 132.813C24.2546 132.775 24.2255 132.731 24.2057 132.683C24.186 132.635 24.176 132.583 24.1763 132.531V131.186C24.176 131.133 24.1863 131.08 24.2067 131.031C24.2272 130.982 24.2573 130.937 24.2953 130.9C24.3333 130.863 24.3784 130.833 24.4279 130.814C24.4775 130.794 24.5304 130.785 24.5836 130.787H26.5133C26.5656 130.787 26.6174 130.797 26.6656 130.817C26.7139 130.837 26.7577 130.867 26.7946 130.904C26.8314 130.941 26.8605 130.985 26.8803 131.033C26.9 131.082 26.91 131.133 26.9097 131.186V132.531C26.91 132.583 26.9 132.635 26.8803 132.683C26.8605 132.731 26.8314 132.775 26.7946 132.813C26.7577 132.85 26.7139 132.879 26.6656 132.899C26.6174 132.919 26.5656 132.93 26.5133 132.93Z" fill="#2A4494"/>
<path d="M23.0666 130.21H21.1259C21.0208 130.21 20.92 130.168 20.8457 130.094C20.7713 130.02 20.7296 129.919 20.7296 129.814V128.466C20.7296 128.361 20.7713 128.26 20.8455 128.185C20.9198 128.11 21.0206 128.068 21.1259 128.067H23.0666C23.172 128.068 23.2728 128.11 23.347 128.185C23.4213 128.26 23.4629 128.361 23.4629 128.466V129.814C23.4629 129.919 23.4212 130.02 23.3468 130.094C23.2725 130.168 23.1717 130.21 23.0666 130.21Z" fill="#2A4494"/>
<path d="M23.0666 132.943H21.1259C21.0208 132.943 20.92 132.901 20.8457 132.827C20.7713 132.753 20.7296 132.652 20.7296 132.547V131.199C20.7296 131.094 20.7713 130.993 20.8455 130.918C20.9198 130.843 21.0206 130.801 21.1259 130.8H23.0666C23.172 130.801 23.2728 130.843 23.347 130.918C23.4213 130.993 23.4629 131.094 23.4629 131.199V132.547C23.4629 132.652 23.4212 132.753 23.3468 132.827C23.2725 132.901 23.1717 132.943 23.0666 132.943Z" fill="#2A4494"/>
<path d="M23.0666 133.08H21.126C20.981 133.08 20.8419 133.022 20.7394 132.92C20.6369 132.817 20.5793 132.678 20.5793 132.533V131.199C20.5793 131.054 20.6369 130.915 20.7394 130.813C20.8419 130.71 20.981 130.653 21.126 130.653H23.0666C23.2116 130.653 23.3507 130.71 23.4532 130.813C23.5557 130.915 23.6133 131.054 23.6133 131.199V132.547C23.6097 132.69 23.5506 132.825 23.4484 132.925C23.3463 133.024 23.2093 133.08 23.0666 133.08ZM21.126 130.937C21.0535 130.937 20.984 130.966 20.9327 131.017C20.8814 131.068 20.8526 131.138 20.8526 131.21V132.558C20.8526 132.63 20.8814 132.7 20.9327 132.751C20.984 132.802 21.0535 132.831 21.126 132.831H23.0666C23.1391 132.831 23.2087 132.802 23.2599 132.751C23.3112 132.7 23.34 132.63 23.34 132.558V131.199C23.34 131.127 23.3112 131.057 23.2599 131.006C23.2087 130.955 23.1391 130.926 23.0666 130.926L21.126 130.937Z" fill="#F44747"/>
<path d="M29.5 85C40.8218 85 50 75.598 50 64C50 52.402 40.8218 43 29.5 43C18.1782 43 9 52.402 9 64C9 75.598 18.1782 85 29.5 85Z" fill="#F7C32E"/>
<path d="M28.5 83C39.8218 83 49 73.598 49 62C49 50.402 39.8218 41 28.5 41C17.1782 41 8 50.402 8 62C8 73.598 17.1782 83 28.5 83Z" fill="#FED766"/>
<path d="M28.6969 70.3748C22.4069 70.3748 20.1972 67.4488 20.1069 67.3256C20.0746 67.2822 20.0573 67.229 20.0577 67.1744V60.2668C20.0577 60.2335 20.0641 60.2005 20.0767 60.1697C20.0892 60.1389 20.1076 60.111 20.1307 60.0876C20.1539 60.0642 20.1813 60.0457 20.2115 60.0332C20.2417 60.0207 20.274 60.0144 20.3066 60.0148H37.3689C37.4015 60.0144 37.4338 60.0207 37.464 60.0332C37.4941 60.0457 37.5216 60.0642 37.5447 60.0876C37.5679 60.111 37.5863 60.1389 37.5988 60.1697C37.6113 60.2005 37.6178 60.2335 37.6178 60.2668V67.1744C37.617 67.2336 37.5968 67.2908 37.5604 67.3368C37.4564 67.46 34.976 70.3748 28.6969 70.3748Z" fill="#2A4494"/>
<path d="M27.8656 66.3792C27.8286 66.3792 27.7921 66.3706 27.7589 66.354L14.9683 60.3676C14.9242 60.3486 14.8866 60.3166 14.8601 60.2758C14.8336 60.2349 14.8195 60.187 14.8195 60.138C14.8195 60.089 14.8336 60.0411 14.8601 60.0002C14.8866 59.9594 14.9242 59.9275 14.9683 59.9084L28.5903 54.1796C28.6528 54.1553 28.7219 54.1553 28.7845 54.1796L42.0236 59.9084C42.0683 59.9276 42.1065 59.9599 42.1334 60.0013C42.1602 60.0426 42.1746 60.0912 42.1746 60.1408C42.1746 60.1905 42.1602 60.239 42.1334 60.2804C42.1065 60.3217 42.0683 60.354 42.0236 60.3732L27.964 66.3596C27.9327 66.3723 27.8993 66.379 27.8656 66.3792Z" fill="#1855D1"/>
<path d="M36.2914 72.64H34.6287C34.5906 72.6397 34.5531 72.6304 34.519 72.6129C34.485 72.5954 34.4553 72.5701 34.4323 72.539C34.4093 72.5079 34.3936 72.4718 34.3864 72.4335C34.3792 72.3952 34.3807 72.3557 34.3907 72.318L35.2112 69.4172C35.2261 69.3645 35.2574 69.3182 35.3003 69.2854C35.3433 69.2525 35.3955 69.2349 35.4491 69.2352C35.5031 69.2348 35.5557 69.2522 35.5991 69.2851C35.6425 69.3179 35.6743 69.3643 35.6898 69.4172L36.5102 72.318C36.5203 72.3559 36.5217 72.3956 36.5144 72.4341C36.507 72.4727 36.4911 72.5089 36.4678 72.5401C36.4445 72.5713 36.4145 72.5965 36.3801 72.6138C36.3457 72.6312 36.3079 72.6401 36.2695 72.64H36.2914Z" fill="white"/>
<path d="M35.7089 69.6216H35.2139V63.2404L28.8856 60.04L29.1071 59.5892L35.5722 62.8568C35.6132 62.878 35.6477 62.9104 35.6718 62.9505C35.696 62.9905 35.7088 63.0366 35.7089 63.0836V69.6216Z" fill="white"/>
<path d="M29.9522 59.8161C29.9522 60.2305 29.5091 60.5693 28.9595 60.5693C28.4098 60.5693 27.964 60.2305 27.964 59.8161C27.964 59.4017 28.4098 59.0601 28.9595 59.0601C29.5091 59.0601 29.9522 59.3989 29.9522 59.8161Z" fill="white"/>
<path d="M77.5 44C88.8218 44 98 34.598 98 23C98 11.402 88.8218 2 77.5 2C66.1782 2 57 11.402 57 23C57 34.598 66.1782 44 77.5 44Z" fill="#03CFFC"/>
<path d="M77.5 42C88.8218 42 98 32.598 98 21C98 9.40202 88.8218 0 77.5 0C66.1782 0 57 9.40202 57 21C57 32.598 66.1782 42 77.5 42Z" fill="#54DEFD"/>
<path d="M85.1534 30.5199H70.9401C70.8676 30.5199 70.798 30.4904 70.7468 30.4379C70.6955 30.3854 70.6667 30.3142 70.6667 30.2399V12.3199C70.6667 12.2457 70.6955 12.1744 70.7468 12.1219C70.798 12.0694 70.8676 12.0399 70.9401 12.0399H85.1534C85.2259 12.0399 85.2954 12.0694 85.3467 12.1219C85.3979 12.1744 85.4267 12.2457 85.4267 12.3199V30.2399C85.4267 30.3142 85.3979 30.3854 85.3467 30.4379C85.2954 30.4904 85.2259 30.5199 85.1534 30.5199Z" fill="white"/>
<path d="M90.113 11.2968L89.4346 10.6019C89.1207 10.2804 88.6119 10.2804 88.2981 10.6019L86.9664 11.966C86.6526 12.2875 86.6526 12.8087 86.9664 13.1302L87.6448 13.8251C87.9587 14.1466 88.4675 14.1466 88.7813 13.8251L90.113 12.461C90.4268 12.1395 90.4268 11.6183 90.113 11.2968Z" fill="#F44747"/>
<path d="M89.3498 13.239L87.5349 11.3799L78.2867 20.8537L80.1015 22.7128L89.3498 13.239Z" fill="#FED766"/>
<path d="M78.2873 20.8544L80.1022 22.7136L77.5438 23.8336C77.495 23.8516 77.4421 23.855 77.3915 23.8435C77.3408 23.8319 77.2945 23.8058 77.2578 23.7682C77.2211 23.7306 77.1956 23.6831 77.1843 23.6312C77.173 23.5793 77.1763 23.5252 77.1939 23.4752L78.2873 20.8544Z" fill="#E3F2FD"/>
<path d="M89.3504 13.2388L87.5355 11.3796L86.946 11.9835L88.7609 13.8426L89.3504 13.2388Z" fill="#343440"/>
<path d="M77.7241 22.204L78.8338 23.268L77.3524 23.9176C77.3187 23.9324 77.2815 23.9365 77.2455 23.9294C77.2096 23.9223 77.1765 23.9044 77.1506 23.8779C77.1247 23.8513 77.1072 23.8175 77.1003 23.7806C77.0934 23.7438 77.0974 23.7057 77.1118 23.6712L77.7241 22.204Z" fill="#343440"/>
<path d="M141.5 46C152.822 46 162 36.598 162 25C162 13.402 152.822 4 141.5 4C130.178 4 121 13.402 121 25C121 36.598 130.178 46 141.5 46Z" fill="#7846CE"/>
<path d="M142 44C153.598 44 163 34.598 163 23C163 11.402 153.598 2 142 2C130.402 2 121 11.402 121 23C121 34.598 130.402 44 142 44Z" fill="#9575CD"/>
<path d="M148.11 33.0801H135.54C134.68 33.0801 134.047 32.7833 133.758 32.2401C133.469 31.6969 133.576 30.9157 134.083 30.1429L139.706 21.7681V14.2837C139.706 14.2094 139.735 14.1382 139.788 14.0857C139.84 14.0332 139.911 14.0037 139.986 14.0037H143.933C144.007 14.0037 144.079 14.0332 144.131 14.0857C144.184 14.1382 144.213 14.2094 144.213 14.2837V21.7709L149.925 30.3557C150.424 31.1453 150.539 31.7865 150.276 32.2681C149.973 32.8001 149.245 33.0801 148.11 33.0801Z" fill="#E3F2FD"/>
<path d="M148.205 32.2401H135.837C135.254 32.2401 134.865 32.0833 134.677 31.7781C134.597 31.6219 134.559 31.4476 134.567 31.2723C134.575 31.0971 134.628 30.9269 134.722 30.7785C134.725 30.7695 134.73 30.761 134.736 30.7533L139.28 23.9213C139.316 23.8693 139.368 23.8311 139.429 23.8128C139.489 23.7945 139.554 23.7972 139.613 23.8205C140.337 24.1083 141.106 24.2639 141.885 24.2797C142.654 24.2656 143.413 24.1109 144.126 23.8233C144.185 23.7997 144.25 23.7966 144.31 23.8143C144.371 23.8321 144.423 23.8698 144.46 23.9213L148.92 30.6413C149.225 31.1481 149.289 31.5485 149.121 31.8481C149.004 32.0217 148.768 32.2401 148.205 32.2401Z" fill="#16D2AA"/>
<path d="M144.255 14.88H139.734C139.496 14.8488 139.277 14.7322 139.119 14.5519C138.961 14.3716 138.873 14.1399 138.873 13.9C138.873 13.6602 138.961 13.4285 139.119 13.2482C139.277 13.0679 139.496 12.9512 139.734 12.92H144.255C144.493 12.9512 144.712 13.0679 144.87 13.2482C145.028 13.4285 145.115 13.6602 145.115 13.9C145.115 14.1399 145.028 14.3716 144.87 14.5519C144.712 14.7322 144.493 14.8488 144.255 14.88Z" fill="#B5E2FA"/>
<path d="M144.608 29.3616C144.608 29.5277 144.559 29.6901 144.467 29.8283C144.374 29.9664 144.243 30.0741 144.089 30.1377C143.936 30.2012 143.767 30.2179 143.604 30.1855C143.441 30.1531 143.291 30.0731 143.173 29.9556C143.056 29.8381 142.976 29.6884 142.943 29.5255C142.911 29.3625 142.928 29.1936 142.991 29.0402C143.055 28.8867 143.163 28.7555 143.301 28.6632C143.439 28.5709 143.601 28.5216 143.768 28.5216C143.991 28.5216 144.204 28.6101 144.362 28.7676C144.52 28.9252 144.608 29.1388 144.608 29.3616Z" fill="white"/>
<path d="M142.387 26.8668C142.387 27.0883 142.321 27.3049 142.198 27.4891C142.075 27.6732 141.9 27.8168 141.695 27.9016C141.49 27.9863 141.265 28.0085 141.047 27.9653C140.83 27.9221 140.63 27.8154 140.474 27.6588C140.317 27.5021 140.21 27.3026 140.167 27.0853C140.124 26.8681 140.146 26.6429 140.231 26.4382C140.316 26.2336 140.459 26.0586 140.643 25.9356C140.828 25.8125 141.044 25.7468 141.266 25.7468C141.563 25.7468 141.848 25.8648 142.058 26.0749C142.269 26.2849 142.387 26.5698 142.387 26.8668Z" fill="white"/>
<path d="M139.91 30.1009C139.91 30.2117 139.877 30.3199 139.816 30.412C139.754 30.5041 139.667 30.5759 139.564 30.6183C139.462 30.6606 139.349 30.6717 139.24 30.6501C139.132 30.6285 139.032 30.5752 138.954 30.4969C138.875 30.4186 138.822 30.3188 138.8 30.2101C138.779 30.1015 138.79 29.9889 138.832 29.8866C138.875 29.7843 138.946 29.6968 139.039 29.6353C139.131 29.5737 139.239 29.5409 139.35 29.5409C139.498 29.5409 139.641 29.5999 139.746 29.7049C139.851 29.8099 139.91 29.9524 139.91 30.1009Z" fill="white"/>
<path d="M198.5 141C209.822 141 219 131.822 219 120.5C219 109.178 209.822 100 198.5 100C187.178 100 178 109.178 178 120.5C178 131.822 187.178 141 198.5 141Z" fill="#5CC0F6"/>
<path d="M199.5 139C210.822 139 220 129.822 220 118.5C220 107.178 210.822 98 199.5 98C188.178 98 179 107.178 179 118.5C179 129.822 188.178 139 199.5 139Z" fill="#B5E2FA"/>
<path d="M188.55 120.564C189.066 121.329 189.356 122.224 189.387 123.147C189.358 124.07 189.069 124.966 188.553 125.732H204.6L207.88 124.819L207.941 121.679L204.589 120.585L188.55 120.564Z" fill="white"/>
<path d="M190.034 111.265C190.511 111.898 190.784 112.66 190.819 113.452C190.784 114.243 190.511 115.005 190.034 115.638H202.725L204.562 114.709V112.008L202.988 111.273L190.034 111.265Z" fill="white"/>
<path d="M188.55 125.926C188.5 125.926 188.451 125.906 188.415 125.87C188.379 125.834 188.359 125.786 188.359 125.735V124.642C188.359 124.591 188.379 124.542 188.415 124.506C188.451 124.471 188.5 124.45 188.55 124.45H206.44C206.585 124.418 207.569 124.147 207.569 123.152C207.569 121.854 206.475 121.747 206.445 121.742L188.55 121.843C188.5 121.841 188.452 121.82 188.416 121.785C188.398 121.768 188.384 121.747 188.374 121.724C188.364 121.701 188.359 121.676 188.359 121.651V120.558C188.359 120.533 188.364 120.508 188.374 120.485C188.383 120.462 188.397 120.441 188.415 120.424C188.433 120.406 188.454 120.392 188.477 120.383C188.5 120.374 188.525 120.369 188.55 120.37H206.459C206.5 120.37 208.949 120.585 208.949 123.144C208.949 125.702 206.489 125.918 206.473 125.921L188.55 125.926Z" fill="#1855D1"/>
<path d="M210.458 116.04C209.986 116.633 209.712 117.36 209.676 118.117C209.712 118.875 209.986 119.601 210.458 120.195H195.381L192.459 119.448L192.393 116.928L195.381 116.04H210.458Z" fill="white"/>
<path d="M210.433 120.375H209.403L193.664 120.356C193.631 120.356 192.541 120.416 191.814 119.736C191.605 119.528 191.442 119.279 191.336 119.004C191.23 118.73 191.184 118.436 191.199 118.142C191.185 117.845 191.233 117.548 191.339 117.27C191.444 116.993 191.606 116.739 191.814 116.527C192.33 116.079 192.992 115.836 193.675 115.841H210.439C210.464 115.84 210.488 115.845 210.511 115.854C210.534 115.864 210.555 115.878 210.573 115.895C210.608 115.931 210.629 115.979 210.63 116.029V117.122C210.63 117.172 210.61 117.22 210.575 117.256C210.539 117.291 210.492 117.311 210.441 117.311L193.672 117.448C193.642 117.448 192.773 117.494 192.773 118.137C192.773 118.779 193.681 118.883 193.689 118.883L210.441 118.902C210.492 118.903 210.54 118.924 210.575 118.959C210.611 118.995 210.631 119.043 210.633 119.093V120.187C210.632 120.212 210.627 120.237 210.617 120.261C210.606 120.284 210.592 120.305 210.573 120.323C210.554 120.341 210.532 120.354 210.508 120.363C210.484 120.372 210.459 120.376 210.433 120.375Z" fill="#16D2AA"/>
<path d="M202.78 115.84H190.034C189.984 115.84 189.936 115.821 189.901 115.785C189.866 115.75 189.846 115.702 189.846 115.652V114.559C189.846 114.508 189.866 114.461 189.901 114.425C189.936 114.39 189.984 114.37 190.034 114.37H202.744C203.044 114.394 203.341 114.308 203.581 114.127C203.669 114.039 203.736 113.934 203.78 113.818C203.823 113.702 203.841 113.578 203.832 113.454C203.838 113.327 203.818 113.2 203.773 113.081C203.729 112.961 203.66 112.852 203.573 112.76C203.335 112.563 203.037 112.454 202.728 112.451L190.037 112.55C189.987 112.548 189.938 112.528 189.901 112.495C189.866 112.459 189.846 112.411 189.846 112.361V111.268C189.846 111.217 189.866 111.169 189.901 111.133C189.936 111.097 189.984 111.077 190.034 111.076H202.725C203.394 111.061 204.044 111.292 204.554 111.724C204.779 111.951 204.954 112.223 205.068 112.522C205.181 112.821 205.23 113.14 205.213 113.46C205.23 113.779 205.181 114.098 205.067 114.396C204.954 114.695 204.779 114.966 204.554 115.193C204.061 115.617 203.43 115.847 202.78 115.84Z" fill="#1855D1"/>
<ellipse cx="126" cy="211.5" rx="63" ry="13.5" fill="#DBDFDF"/>
<path d="M63.6924 137.313C63.6924 137.313 49.5948 85.959 87.1842 81.6978C111.889 78.8979 127.993 88.2997 136.129 95.0763C140.542 98.749 143.575 103.819 144.697 109.463C145.672 114.345 147.304 124.032 145.356 129.095C145.356 129.095 145.394 135.095 161.331 147.814C161.331 147.814 174.022 154.649 179.964 165.609C185.906 176.569 183.881 191.183 183.881 191.183C183.881 191.183 182.397 208.506 164.705 211.209C147.014 213.918 142.426 211.209 142.426 211.209C142.426 211.209 139.187 209.314 144.994 205.796C150.801 202.279 154.446 200.656 154.446 200.656C154.446 200.656 129.6 202.143 121.231 201.871C121.231 201.871 119.07 214.455 107.592 215.677C96.1138 216.899 106.914 201.063 106.914 201.063C106.914 201.063 93.5459 201.47 86.3906 196.058C86.3906 196.058 87.4036 208.241 77.3449 210.536C67.2862 212.832 64.0473 207.426 66.2023 205.531C68.3637 203.637 72.9511 200.662 72.9511 200.662L68.2992 170.42C68.2992 170.42 64.5247 167.898 64.2731 142.822L63.6924 137.313Z" fill="#E4B652"/>
<path d="M183.845 177.778C183.845 177.778 186.747 174.96 188.817 169.923C190.881 164.886 194.668 167.971 195.187 170.489C195.693 172.962 198.038 179.157 184.338 185.867L182.307 181.461L183.845 177.778Z" fill="#E4B652"/>
<path d="M79.7108 82.0972C79.7108 82.0972 64.3413 87.3882 58.5616 88.6852C52.7819 89.9821 49.0561 89.5176 49.244 98.893C49.4319 108.262 54.4341 114.921 56.4363 115.36C58.5162 115.811 61.3543 115.695 62.6631 109.398C63.9785 103.1 65.229 95.3119 70.1211 90.8532C74.255 87.085 78.2399 84.6395 79.3803 83.9684C79.646 83.8136 79.8857 83.6264 80.1061 83.4071C80.6892 82.8134 81.5121 81.781 79.7108 82.0972Z" fill="#544B43"/>
<path d="M116.83 84.5539C116.83 84.5539 115.117 81.5393 121.489 83.6154C127.855 85.6915 133.031 87.1763 138.796 87.6712C144.567 88.1661 147.746 88.4618 149.142 93.3082C150.538 98.1546 147.152 106.465 143.669 111.511C141.756 114.288 140.108 113.831 139.016 112.854C138.169 112.096 137.658 111.035 137.478 109.917C137.187 108.072 136.211 103.952 133.038 99.935C130.666 96.9398 122.517 86.977 116.83 84.5539Z" fill="#544B43"/>
<path d="M77.6311 115.518C77.6311 115.518 85.8098 107.463 96.8933 107.056C107.977 106.649 114.077 115.518 114.077 115.518" stroke="#544B43" stroke-miterlimit="10" stroke-linecap="round" stroke-linejoin="round"/>
<path d="M96.2643 111.105C96.2643 111.105 89.2338 110.316 89.9769 116.253C90.0674 116.962 90.5003 117.605 91.1659 117.823C91.9607 118.082 93.2853 117.982 95.379 116.545C95.379 116.545 96.1221 115.849 97.0009 116.578C97.8797 117.307 98.7908 118.539 100.917 117.87C101.789 117.598 102.287 116.955 102.571 116.299C103.146 114.961 102.81 113.351 101.692 112.443C100.736 111.681 99.101 111.005 96.2643 111.105Z" fill="#544B43"/>
<path d="M63.6458 137.23C63.6458 137.23 102.771 152.786 146.66 131.622L152.43 138.619C152.43 138.619 101.177 161.879 63.7555 143.83L63.6458 137.23Z" fill="#16D2AA"/>
<path d="M86.3649 196.249C86.3649 196.249 86.107 184.77 86.8039 183.381C87.5008 181.991 89.3545 182.868 86.3649 196.249Z" fill="#C48F2C"/>
<path d="M107.084 201.122C107.084 201.122 108.302 188.055 108.208 184.333C108.108 180.377 109.626 191.946 107.084 201.122Z" fill="#C48F2C"/>
<path d="M121.281 201.971C121.281 201.971 122.534 187.898 124.451 186.387C126.368 184.869 121.281 201.971 121.281 201.971Z" fill="#C48F2C"/>
<path d="M154.548 200.7C154.548 200.7 146.695 198.416 146.936 191.742C147.177 185.068 152.653 179.298 152.653 179.298C152.653 179.298 137.612 196.237 154.548 200.7Z" fill="#C48F2C"/>
<path d="M80.9125 109.584C82.1413 109.584 83.1374 108.54 83.1374 107.253C83.1374 105.966 82.1413 104.922 80.9125 104.922C79.6837 104.922 78.6876 105.966 78.6876 107.253C78.6876 108.54 79.6837 109.584 80.9125 109.584Z" fill="#544B43"/>
<path d="M111.746 109.372C113.033 109.372 114.077 108.329 114.077 107.042C114.077 105.754 113.033 104.711 111.746 104.711C110.459 104.711 109.415 105.754 109.415 107.042C109.415 108.329 110.459 109.372 111.746 109.372Z" fill="#544B43"/>
<path d="M98.5895 166.637C102.547 166.637 105.756 163.215 105.756 158.993C105.756 154.771 102.547 151.348 98.5895 151.348C94.6316 151.348 91.4231 154.771 91.4231 158.993C91.4231 163.215 94.6316 166.637 98.5895 166.637Z" fill="white"/>
<path d="M98.5889 151.173C94.1689 151.173 90.5825 154.759 90.5825 159.179C90.5825 163.599 94.1689 167.186 98.5889 167.186C103.009 167.186 106.595 163.599 106.595 159.179C106.589 154.759 103.009 151.173 98.5889 151.173ZM98.5889 166.074C94.7763 166.074 91.694 162.985 91.694 159.179C91.694 155.367 94.7828 152.284 98.5889 152.284C102.401 152.284 105.484 155.373 105.484 159.179C105.484 162.985 102.395 166.074 98.5889 166.074Z" fill="#16D2AA"/>
<path d="M98.5899 166.077C102.398 166.077 105.485 162.99 105.485 159.182C105.485 155.374 102.398 152.287 98.5899 152.287C94.7819 152.287 91.695 155.374 91.695 159.182C91.695 162.99 94.7819 166.077 98.5899 166.077Z" fill="white"/>
<path d="M95.1248 160.844C95.3445 161.116 95.6417 161.258 96.0165 161.258C96.3913 161.258 96.6821 161.122 96.9018 160.844C97.1215 160.573 97.2314 160.198 97.2314 159.72V157.239L98.5561 156.444V159.759C98.5561 160.618 98.317 161.277 97.8453 161.736C97.3735 162.195 96.7597 162.428 96.023 162.428C95.2799 162.428 94.6724 162.195 94.1942 161.73C93.7161 161.264 93.477 160.605 93.477 159.752V157.232L94.8017 156.437V159.713C94.7952 160.198 94.9051 160.573 95.1248 160.844Z" fill="#16D2AA"/>
<path d="M103.081 156.98C103.494 157.336 103.701 157.878 103.701 158.609C103.701 159.339 103.488 159.875 103.061 160.218C102.635 160.56 101.982 160.728 101.11 160.728H100.321V161.588L98.9966 162.382V156.457H101.09C102.001 156.45 102.661 156.625 103.081 156.98ZM102.105 159.313C102.26 159.132 102.344 158.874 102.344 158.531C102.344 158.189 102.241 157.943 102.034 157.801C101.827 157.659 101.504 157.588 101.071 157.588H100.315V159.578H101.207C101.646 159.578 101.95 159.488 102.105 159.313Z" fill="#16D2AA"/>
<path d="M98.6462 150.105C98.6462 150.105 99.52 151.574 98.6806 152.373C97.848 153.172 99.114 152.637 99.114 152.637C99.114 152.637 99.8846 151.174 99.114 150.105C99.1209 150.105 98.9558 149.522 98.6462 150.105Z" fill="#B5DFD5"/>
<path d="M97.5471 150.741L97.9709 150.693V151.294L97.5471 151.329V150.741Z" fill="#B5DFD5"/>
<path d="M94.2052 122.288C94.2052 122.288 94.6147 124.851 96.0849 125.052C97.5524 125.255 98.2424 122.784 98.2424 122.784L96.1586 121.032L94.2052 122.288Z" fill="#DA4351"/>
<path d="M96.0659 116.365V120.722C96.0659 120.722 97.0797 122.811 100.776 122.933C101.032 122.939 101.289 122.907 101.539 122.843C102.341 122.632 104.086 122.055 104.754 120.838" stroke="#544B43" stroke-miterlimit="10" stroke-linecap="round" stroke-linejoin="round"/>
<path d="M96.0651 120.604C96.0651 120.604 94.3643 123.811 91.6316 123.022C88.8989 122.232 88.8607 120.604 88.8607 120.604" stroke="#544B43" stroke-miterlimit="10" stroke-linecap="round" stroke-linejoin="round"/>
<circle cx="189" cy="62" r="21" fill="#5CC0F6"/>
<path d="M189.5 81C200.822 81 210 71.8218 210 60.5C210 49.1782 200.822 40 189.5 40C178.178 40 169 49.1782 169 60.5C169 71.8218 178.178 81 189.5 81Z" fill="#E3F2FD"/>
<path d="M181.3 48.8833L199.067 65.9666" stroke="#593C33" stroke-width="2"/>
<ellipse cx="190.525" cy="57.425" rx="7.85833" ry="7.85833" fill="#1855D1"/>
<path d="M187.964 53.734L186.794 53.0269C186.546 52.8776 186.388 52.6172 186.368 52.3291C186.324 51.6715 185.604 51.303 185.114 51.7439C183.64 53.0701 183.016 54.7502 182.832 55.9133C182.797 56.1359 182.982 56.3242 183.207 56.3105C183.322 56.3036 183.433 56.35 183.509 56.4364L184.413 57.4658C184.617 57.6981 184.916 57.8231 185.225 57.8044L185.626 57.78C186.068 57.7531 186.44 57.4383 186.539 57.0065L186.61 56.7C186.695 56.3296 186.983 56.0397 187.353 55.9518L187.787 55.8484C188.375 55.7086 188.706 55.0833 188.49 54.5188L188.381 54.2331C188.302 54.0249 188.155 53.8492 187.964 53.734Z" fill="#16D2AA"/>
<path d="M188.701 58.0098L187.205 57.59C186.435 57.3738 185.735 58.1045 185.985 58.8646L186.329 59.9137L186.744 61.6998C186.82 62.0248 187.052 62.2907 187.364 62.4088L188.769 62.94C189.219 63.1101 189.726 62.936 189.977 62.5255L190.383 61.8592C190.656 61.4124 190.538 60.8308 190.112 60.5257L190.092 60.5115C189.9 60.3737 189.763 60.1721 189.705 59.9428L189.4 58.7287C189.313 58.381 189.046 58.1067 188.701 58.0098Z" fill="#16D2AA"/>
<path d="M193.773 54.1135L193.474 51.6184C193.389 50.9036 194.054 50.3749 194.674 50.7402C195.679 51.3317 196.864 52.3038 197.527 53.6753C198.701 56.1069 198.509 57.978 198.156 59.1432C198.016 59.604 197.523 59.8353 197.056 59.7198L196.48 59.5774C196.087 59.4802 195.791 59.155 195.731 58.7541L195.524 57.3635C195.505 57.2345 195.46 57.1106 195.393 56.9986L193.907 54.507C193.835 54.3866 193.789 54.2526 193.773 54.1135Z" fill="#16D2AA"/>
<rect x="189.5" y="67.3333" width="2.05" height="2.05" fill="#593C33"/>
<path d="M194.318 69.3833H186.549C185.223 69.3833 184.78 71.1453 184.719 72.0703H196.333C196.333 70.0319 194.99 69.4296 194.318 69.3833Z" fill="#593C33"/>
<path d="M197.017 64.5196C195.215 66.3212 192.771 67.3333 190.224 67.3333C187.676 67.3333 185.232 66.3212 183.43 64.5196C181.629 62.7179 180.617 60.2744 180.617 57.7265C180.617 55.1785 181.629 52.735 183.43 50.9333" stroke="#593C33" stroke-width="2"/>
</svg>
