<svg fill="none" height="352" viewBox="0 0 352 352" width="352" xmlns="http://www.w3.org/2000/svg"><path d="m176 352c97.202 0 176-78.798 176-176 0-97.2021-78.798-176-176-176-97.2021 0-176 78.7979-176 176 0 97.202 78.7979 176 176 176z" fill="#fedf85"/><path d="m153.813 254.013-12.044 2.662c.456 1.743 2.24 7.095 5.735 14.562 4.369 9.334 23.352 11.742 31.738 10.911 8.386-.832 15.646-12.448 18.267-17.902 2.097-4.363 2.329-17.13 2.183-22.968l-12.492 3.836c-1.361 6.966-6.028 21.768-13.813 25.25-7.784 3.482-16.293-9.45-19.574-16.351z" fill="#2c967a"/><path d="m199.85 249.635s.046 28.434-25.019 32.72c-25.065 4.287-33.884-25.716-33.884-25.716" stroke="#000" stroke-linecap="round" stroke-linejoin="round" stroke-miterlimit="10" stroke-width="6"/><path d="m74.5742 262.033c-9.9554 4.66-26.0101-2.356-32.8552-16.98-6.8452-14.624-2.7651-31.871 7.1903-36.531 9.9553-4.66 35.6202 48.851 25.6649 53.511z" fill="#16d2aa" stroke="#000" stroke-linejoin="round" stroke-width="8"/><path d="m302.029 201.852-73.923-136.9463h-3.317l-175.3296 145.0023 8.5296 31.275 19.4284 20.376z" fill="#85e8d3"/><path d="m223.841 64.4322 2.542 3.0879-168.4904 138.6769c-2.9912 2.985-4.0718 6.326-3.9941 10.226.1041 5.223 2.304 11.611 5.9951 19.496 3.5794 7.647 7.6909 13.355 11.9951 16.694 3.5734 2.771 7.1865 3.868 10.9688 3.222l217.6855-56.905 1.012 3.87 1.011 3.869-215.4146 56.312.0068.021c-.871.277-1.7358.493-2.5918.655l-10.4023 2.719-1.0078-3.855c-2.1602-.864-4.2244-2.077-6.1699-3.586-5.7024-4.422-10.4845-11.39-14.3389-19.624-3.7425-7.995-6.6069-15.699-6.7471-22.728-.0489-2.458.2369-4.808.8926-7.036l-2.2451-2.727 8.0254-6.607c.9221-.887 1.9471-1.739 3.0791-2.554l.0088.012 165.6388-136.3277z" fill="#000"/><ellipse cx="27.8006" cy="85.0935" fill="#16d2aa" rx="27.8006" ry="85.0935" transform="matrix(.84501 -.534751 .48229 .876011 211.355 65.7328)"/><g stroke="#000" stroke-linejoin="round" stroke-width="8"><ellipse cx="20.8862" cy="85.0935" fill="#2c967a" rx="20.8862" ry="85.0935" transform="matrix(.84501 -.534751 .48229 .876011 223.041 58.3379)"/><path d="m241.054 47.2768c-3.347-1.5774-10.394 5.5392-12.455 6.8431-9.747 6.1684.725 44.5429 23.391 85.7121 22.666 41.169 43.245 66.918 58.689 63.374 4.628-1.062 13.513-4.994 13.466-10.396"/><path d="m187.431 185.03s.301 13.081-12.834 16.6c-13.148 3.523-19.415-7.959-19.415-7.959" stroke-linecap="round" stroke-miterlimit="10"/><path d="m197.222 163.862s-.216-9.288 9.124-11.791 13.798 5.649 13.798 5.649" stroke-linecap="round" stroke-miterlimit="10"/><path d="m113.336 186.339s-.215-9.288 9.125-11.791 13.797 5.649 13.797 5.649" stroke-linecap="round" stroke-miterlimit="10"/></g></svg>