<svg fill="none" height="40" viewBox="0 0 40 40" width="40" xmlns="http://www.w3.org/2000/svg" xmlns:xlink="http://www.w3.org/1999/xlink"><mask id="a" height="40" maskUnits="userSpaceOnUse" width="40" x="0" y="0"><path d="m20 40c11.0463 0 20-8.9537 20-20 0-11.04626-8.9537-20-20-20-11.04626 0-20 8.95374-20 20 0 11.0463 8.95374 20 20 20z" fill="#f9bef9"/><path d="m11.0463 37.8681s1.3512-5.0591 8.7801-5.0591c7.4288 0 8.7932 5.2415 8.7932 5.2415" fill="#f9bef9"/></mask><path d="m20 40c11.0463 0 20-8.9537 20-20 0-11.04626-8.9537-20-20-20-11.04626 0-20 8.95374-20 20 0 11.0463 8.95374 20 20 20z" fill="#f9bef9"/><path d="m11.0463 37.8681s1.3512-5.0591 8.7801-5.0591c7.4288 0 8.7932 5.2415 8.7932 5.2415" fill="#f9bef9"/><g mask="url(#a)" stroke="#000" stroke-miterlimit="10"><path d="m32.4561 19.4595h-24.73686v21.944h24.73686z" fill="#fed766"/><path d="m7.77767 19.4538 12.33863-16.64679 12.3398 16.64679-2.8387 3.5852-3.3275-3.5852-2.8387 3.5852-3.3274-3.5852-2.7718 3.5852-3.3285-3.5852-2.9758 3.5852-3.32846-3.5852h.00212z" fill="#fff5d9" stroke-linecap="round" stroke-linejoin="round"/><path d="m20.0878 2.80701-3.2456 4.5133h6.4912z" fill="#565961"/><g stroke-linecap="round" stroke-linejoin="round"><path d="m21.7716 32.142s-.3516 1.2816-1.897 1.2816c-1.5453 0-1.8969-1.2816-1.8969-1.2816"/><path d="m23.6073 29.7214s.2495-.91 1.3483-.91 1.3483.91 1.3483.91"/><path d="m13.7386 29.7214s.2496-.91 1.3484-.91 1.3483.91 1.3483.91"/></g></g></svg>