<svg fill="none" height="111" viewBox="0 0 80 111" width="80" xmlns="http://www.w3.org/2000/svg"><path d="m13.0605 97.5305s3.4899-13.0661 22.6764-13.0661c19.1866 0 22.7104 13.5372 22.7104 13.5372" fill="#f9bef9"/><g stroke="#000" stroke-miterlimit="10" stroke-width="2"><path d="m68.4664 50.3152h-63.85312v66.3738h63.85312z" fill="#fed766"/><path d="m4.61966 49.9719 31.86714-42.99363 31.8699 42.99363-7.3316 9.2597-8.5937-9.2597-7.3316 9.2597-8.5938-9.2597-7.1587 9.2597-8.5965-9.2597-7.6855 9.2597-8.59655-9.2597h.00549z" fill="#fff5d9" stroke-linecap="round" stroke-linejoin="round"/><path d="m36.4118 6.97827-8.3825 11.65653h16.7649z" fill="#565961"/><path d="m40.7616 82.7419s-.9083 3.3098-4.8994 3.3098c-3.991 0-4.8993-3.3098-4.8993-3.3098" stroke-linecap="round" stroke-linejoin="round"/><path d="m45.502 76.4902s.6444-2.3503 3.4823-2.3503c2.8378 0 3.4823 2.3503 3.4823 2.3503" stroke-linecap="round" stroke-linejoin="round"/><path d="m20.0156 76.4902s.6445-2.3503 3.4823-2.3503c2.8379 0 3.4823 2.3503 3.4823 2.3503" stroke-linecap="round" stroke-linejoin="round"/></g></svg>