<svg fill="none" height="40" viewBox="0 0 40 40" width="40" xmlns="http://www.w3.org/2000/svg"><path d="m20 40c11.0463 0 20-8.9537 20-20 0-11.04626-8.9537-20-20-20-11.04626 0-20 8.95374-20 20 0 11.0463 8.95374 20 20 20z" fill="#76e5fd"/><g stroke-miterlimit="10"><path d="m19.9126 13.3333c.7521-5.24692-3.5968-8.24559-3.5968-8.24559" stroke="#000" stroke-linecap="round" stroke-linejoin="round"/><path d="m20.7019 13.0917s4.4556-2.8315 9.8031.3459c5.3474 3.1773 2.3322 13.3334 2.3322 13.3334s-3.3586 9.1183-6.9259 9.1183c-1.8762.3388-4.3884-.8273-4.3884-.8273s-1.7836-1.0377-3.3585-.0678c-1.5784.9664-3.9071 2.0042-5.9632 0-1.9111-1.8686-7.43903-8.1483-5.17406-17.0741.58748-2.3144 2.15526-4.2935 4.33886-5.2278 1.2032-.5135 2.7144-.7988 4.5476-.5064.5309.0856 1.0476.2496 1.5395.4671.7821.3495 2.2649.8844 3.2488.4387z" fill="#f44747" stroke="#000" stroke-linecap="round" stroke-linejoin="round"/><path d="m21.7172 25.158s-.3517 1.4446-1.897 1.4446-1.897-1.4446-1.897-1.4446" stroke="#010101" stroke-linecap="round" stroke-linejoin="round"/><path d="m23.5529 22.4293s.2495-1.0258 1.3483-1.0258 1.3483 1.0258 1.3483 1.0258" stroke="#000" stroke-linecap="round" stroke-linejoin="round"/><path d="m13.6842 22.4293s.2495-1.0258 1.3483-1.0258 1.3483 1.0258 1.3483 1.0258" stroke="#000" stroke-linecap="round" stroke-linejoin="round"/><path d="m20 11.4376s-.0585-6.01865 5.5707-7.92881c0 0 1.7535 6.25693-4.6681 8.92121l-.9026.377z" fill="#16d2aa" stroke="#000"/></g></svg>