<svg fill="none" height="86" viewBox="0 0 72 86" width="72" xmlns="http://www.w3.org/2000/svg"><g stroke-miterlimit="10" stroke-width="2"><g stroke-linecap="round" stroke-linejoin="round"><path d="m35.6326 26.7354c1.9047-13.2882-9.1092-20.88262-9.1092-20.88262" stroke="#000"/><path d="m37.6303 26.1234s11.2842-7.1708 24.827.876c13.5428 8.0469 5.9065 33.7679 5.9065 33.7679s-8.5057 23.0929-17.5402 23.0929c-4.7518.8579-11.114-2.0952-11.114-2.0952s-4.5172-2.6281-8.5057-.1716c-3.9974 2.4475-9.8949 5.0756-15.1023 0-4.84-4.7324-18.8399-20.6364-13.10369-43.2417 1.48783-5.8613 5.45836-10.8736 10.98839-13.2398 3.0474-1.3005 6.8745-2.023 11.5173-1.2824 1.3444.2167 2.653.6322 3.8988 1.1831 1.9808.885 5.7362 2.2397 8.2279 1.1108z" fill="#f44747" stroke="#000"/><path d="m40.2003 56.6829s-.8906 3.6586-4.8043 3.6586c-3.9136 0-4.8042-3.6586-4.8042-3.6586" stroke="#010101"/><path d="m44.8496 49.7723s.632-2.598 3.4147-2.598c2.7828 0 3.4147 2.598 3.4147 2.598" stroke="#000"/><path d="m19.8574 49.7723s.632-2.598 3.4147-2.598c2.7828 0 3.4147 2.598 3.4147 2.598" stroke="#000"/></g><path d="m35.8516 21.9345s-.1483-15.24262 14.1082-20.08025c0 0 4.4409 15.84615-11.8223 22.59365l-2.2859.9549z" fill="#16d2aa" stroke="#000"/></g></svg>