<svg fill="none" height="104" viewBox="0 0 75 104" width="75" xmlns="http://www.w3.org/2000/svg" xmlns:xlink="http://www.w3.org/1999/xlink"><mask id="a" height="104" maskUnits="userSpaceOnUse" width="75" x="0" y="0"><path d="m0 7.99999c0-4.41828 3.58172-7.99999 8-7.99999h58.1037c4.4182 0 7.9999 3.58172 7.9999 8v95.272h-74.1036z" fill="#ffeaff"/></mask><g mask="url(#a)"><path d="m11.8694 90.8137s3.2745-12.26 21.2773-12.26 21.3092 12.7021 21.3092 12.7021" fill="#f9bef9"/><path d="m64 50h-60v59h60z" fill="#76e5fd" stroke="#000" stroke-miterlimit="10" stroke-width="2"/><path d="m37.8608 76.938s-.8523 3.1056-4.5971 3.1056-4.5971-3.1056-4.5971-3.1056" fill="#76e5fd"/><path d="m37.8608 76.938s-.8523 3.1056-4.5971 3.1056-4.5971-3.1056-4.5971-3.1056" stroke="#000" stroke-linecap="round" stroke-linejoin="round" stroke-miterlimit="10" stroke-width="2"/><path d="m42.3092 71.072s.6047-2.2053 3.2675-2.2053c2.6627 0 3.2674 2.2053 3.2674 2.2053" fill="#76e5fd"/><path d="m42.3092 71.072s.6047-2.2053 3.2675-2.2053c2.6627 0 3.2674 2.2053 3.2674 2.2053" stroke="#000" stroke-linecap="round" stroke-linejoin="round" stroke-miterlimit="10" stroke-width="2"/><path d="m18.3939 71.072s.6047-2.2053 3.2675-2.2053c2.6627 0 3.2674 2.2053 3.2674 2.2053" fill="#76e5fd"/><g stroke="#000" stroke-width="2"><path d="m18.3939 71.072s.6047-2.2053 3.2675-2.2053c2.6627 0 3.2674 2.2053 3.2674 2.2053" stroke-linecap="round" stroke-linejoin="round" stroke-miterlimit="10"/><path d="m64 48.0648v3.9352c0 .5523-.4477 1-1 1h-58c-.55228 0-1-.4477-1-1v-3.8592c0-1.8193 1.00033-3.4784 2.53453-4.4562 9.40157-5.9917 15.88487-14.6348 17.71277-19.0197.1649-.3955.541-.6649.9696-.6649h16.8939c.5071 0 .9282.3773 1.0728.8634 1.5531 5.2226 11.3996 14.0891 18.3915 18.7976 1.4754.9935 2.4249 2.6251 2.4249 4.4038z" fill="#343440" stroke-linecap="square"/><path d="m25 8.399v14.601c0 .5523.4477 1 1 1h15c.5523 0 1-.4477 1-1v-9.4694c0-.4276-.2718-.8078-.6763-.9462l-15-5.13156c-.649-.22201-1.3237.26029-1.3237.94616z" fill="#76e5fd" stroke-linecap="square"/></g></g></svg>