<svg fill="none" height="80" viewBox="0 0 80 80" width="80" xmlns="http://www.w3.org/2000/svg" xmlns:xlink="http://www.w3.org/1999/xlink"><mask id="a" height="80" maskUnits="userSpaceOnUse" width="80" x="0" y="0"><path d="m40 80c22.0925 0 40-17.9075 40-40s-17.9075-40-40-40-40 17.9075-40 40 17.9075 40 40 40z" fill="#fedf85"/></mask><path d="m40 80c22.0925 0 40-17.9075 40-40s-17.9075-40-40-40-40 17.9075-40 40 17.9075 40 40 40z" fill="#fedf85"/><g mask="url(#a)"><path d="m65.8155 41.9843h-48.8155v48.0019h48.8155z" fill="#76e5fd" stroke="#000" stroke-miterlimit="10" stroke-width="2"/><path d="m44.5488 63.9007s-.6934 2.5267-3.7401 2.5267c-3.0468 0-3.7402-2.5267-3.7402-2.5267" fill="#76e5fd"/><path d="m44.5488 63.9007s-.6934 2.5267-3.7401 2.5267c-3.0468 0-3.7402-2.5267-3.7402-2.5267" stroke="#000" stroke-linecap="round" stroke-linejoin="round" stroke-miterlimit="10" stroke-width="2"/><path d="m48.168 59.1281s.492-1.7942 2.6584-1.7942 2.6584 1.7942 2.6584 1.7942" fill="#76e5fd"/><path d="m48.168 59.1281s.492-1.7942 2.6584-1.7942 2.6584 1.7942 2.6584 1.7942" stroke="#000" stroke-linecap="round" stroke-linejoin="round" stroke-miterlimit="10" stroke-width="2"/><path d="m28.7108 59.1281s.492-1.7942 2.6584-1.7942 2.6584 1.7942 2.6584 1.7942" fill="#76e5fd"/><g stroke="#000" stroke-width="2"><path d="m28.7108 59.1281s.492-1.7942 2.6584-1.7942 2.6584 1.7942 2.6584 1.7942" stroke-linecap="round" stroke-linejoin="round" stroke-miterlimit="10"/><path d="m65.8155 40.9455v2.4797c0 .5523-.4478 1-1 1h-46.8155c-.5523 0-1-.4477-1-1v-2.4038c0-1.8193 1.0022-3.4747 2.5229-4.4733 7.3128-4.8023 12.3729-11.5204 13.8972-15.0513.1698-.3935.5468-.6657.9754-.6657h13.4454c.507 0 .9297.3821 1.0891.8634 1.3764 4.1567 8.8877 10.9815 14.4676 14.8293 1.4644 1.0097 2.4179 2.643 2.4179 4.4217z" fill="#343440" stroke-linecap="square"/><path d="m34.0854 8.399v11.432c0 .5523.4477 1 1 1h11.831c.5523 0 1-.4477 1-1v-7.3845c0-.4276-.2718-.8078-.6763-.9462l-11.831-4.04746c-.649-.22201-1.3237.26029-1.3237.94616z" fill="#76e5fd" stroke-linecap="square"/></g></g></svg>