<svg width="486" height="269" viewBox="0 0 486 269" fill="none" xmlns="http://www.w3.org/2000/svg">
<path d="M163.751 76.1613C168.503 66.0324 186.56 45.6996 220.773 45.3995C263.539 45.0243 290.174 31.8943 290.925 17.2637C291.675 2.63307 268.041 -2.99409 259.038 7.1348C250.034 17.2637 252.66 26.2672 301.804 76.1613" stroke="#1855D1" stroke-opacity="0.2" stroke-width="3" stroke-linecap="round" stroke-linejoin="round" stroke-dasharray="7 7"/>
<path d="M323.787 205.309C288.023 211.061 222.123 228.568 244.632 252.577C272.767 282.589 282.521 206.435 239.005 210.936C195.488 215.438 196.614 254.453 184.234 262.331C171.854 270.209 142.968 275.461 142.593 213.937" stroke="black" stroke-opacity="0.2" stroke-width="3" stroke-linecap="round" stroke-linejoin="round" stroke-dasharray="7 7"/>
<circle cx="378.752" cy="136.101" r="106.502" fill="#F7F6E2"/>
<path fill-rule="evenodd" clip-rule="evenodd" d="M457.736 207.544C438.248 229.076 410.079 242.603 378.75 242.603C347.422 242.603 319.252 229.076 299.765 207.544H457.736Z" fill="#4B423B"/>
<circle cx="106.502" cy="155.317" r="106.502" fill="#CFE2F9"/>
<path d="M53.0693 129.289C57.5145 102.618 74.6783 105.52 82.7045 110.304L85.2013 131.701C86.2817 148.988 77.519 179.299 73.4441 190.412C69.3693 201.526 56.9287 202.452 51.2177 201.526C56.4039 198.562 55.5391 191.03 54.4584 187.634C52.1432 179.299 48.624 155.961 53.0693 129.289Z" fill="#51422B"/>
<path fill-rule="evenodd" clip-rule="evenodd" d="M93.8371 260.841L91.5066 227.736C90.123 208.083 103.399 190.336 122.632 186.13C145.178 181.199 167.647 194.377 174.337 216.454L179.466 233.381C164.228 249.52 143.405 260.283 119.784 262.29C110.895 263.045 102.187 262.511 93.8371 260.841Z" fill="#FEDF85"/>
<path d="M135.945 206.611C128.63 202.875 129.732 192.096 137.652 189.918L175.913 179.396L171.35 189.503L169.013 203.011L140.546 208.961L135.945 206.611Z" fill="#FEDF85"/>
<path d="M208.631 159.976C212.423 163.332 212.502 169.224 208.803 172.682L193.487 186.995C191.614 188.746 189.101 189.644 186.542 189.478C178.126 188.93 174.737 178.352 181.27 173.017L197.505 159.755C200.767 157.091 205.478 157.185 208.631 159.976Z" fill="#FEDF85"/>
<path d="M205.975 156.668C208.379 160.288 193.731 182.537 187.312 186.8C185.964 187.695 171.297 187.732 171.297 187.732C168.892 184.111 174.158 177.715 182.743 173.064C189.518 169.394 203.57 153.047 205.975 156.668Z" fill="#FEDF85"/>
<path d="M162.823 143.552C162.686 166.848 148.87 183.125 126.337 182.992C103.804 182.86 85.648 163.867 85.7851 140.572C85.9221 117.276 104.3 98.4981 126.833 98.6307C149.366 98.7632 162.961 120.256 162.823 143.552Z" fill="#E6A178"/>
<circle cx="116.334" cy="144.639" r="2.50419" transform="rotate(0.337069 116.334 144.639)" fill="#343440"/>
<circle cx="142.808" cy="137.482" r="2.50419" transform="rotate(0.337069 142.808 137.482)" fill="#343440"/>
<path d="M121.684 158.578C126.261 162.823 137.886 163.557 140.074 156.821" stroke="black" stroke-width="2" stroke-linecap="round"/>
<path d="M130.594 138.356C133.643 141.442 138.819 148.145 135.125 150.271" stroke="#443824" stroke-width="2" stroke-linecap="round"/>
<path d="M134.561 130.519C136.105 128.738 140.571 125.722 146.081 127.902" stroke="#443824" stroke-width="2" stroke-linecap="round"/>
<path d="M106.469 138.693C107.708 136.689 111.633 132.996 117.421 134.266" stroke="#443824" stroke-width="2" stroke-linecap="round"/>
<path d="M194.943 184.952L163.919 189.119L165.771 203.474C169.167 202.702 176.143 201.529 178.737 201.158C181.33 200.788 192.474 189.891 194.943 184.952Z" fill="#FEDF85"/>
<path d="M127.762 107.483C133.215 103.8 127.598 99.0269 123.083 97.095C64.0775 87.4617 61.4215 165.962 105.425 174.945C104.421 172.439 98.1415 168.769 97.0596 166.301C89.4637 148.973 92.2143 148.356 97.07 130.88C101.926 113.403 120.945 112.088 127.762 107.483Z" fill="#62533A"/>
<path d="M163.183 138.252C161.674 103.798 144.977 93.9647 125.216 97.7822L131.954 106.627C145.294 122.004 147.545 111.8 158.04 133.404C159.32 136.039 160.117 138.9 160.504 141.804L161.372 148.325C160.973 145.089 163.253 139.861 163.183 138.252Z" fill="#62533A"/>
<path d="M103.119 121.162C107.189 117.198 116.62 106.567 128.861 105.922C127.379 109.377 111.07 118.943 108.243 120.742C104.699 122.997 100.173 125.413 98.7005 127.539C98.6558 126.445 99.9641 124.234 103.119 121.162Z" fill="#62533A"/>
<path d="M86.1271 107.622C83.6575 109.474 78.3479 115.772 76.8661 126.144C75.1683 121.514 74.6435 111.326 86.1271 107.622Z" fill="#F44747"/>
<ellipse cx="89.9229" cy="155.607" rx="5.52131" ry="8.85748" transform="rotate(-22.4418 89.9229 155.607)" fill="#E6A078"/>
<path d="M93.6071 154.544C93.8477 152.735 91.9024 149.914 90.8997 148.729C89.9371 139.944 94.1084 133.225 96.3144 129.349C93.9079 134.517 96.3144 143.884 96.3144 148.729C96.3144 153.575 93.3062 156.805 93.6071 154.544Z" fill="#62533A"/>
<path d="M116.882 181.537C116.785 180.994 117.147 180.474 117.691 180.377L134.183 177.438C134.727 177.341 135.246 177.703 135.343 178.247L136.364 183.977C137.174 188.521 134.146 192.862 129.602 193.672L127.598 194.029C123.053 194.839 118.713 191.812 117.903 187.267L116.882 181.537Z" fill="#E6A178"/>
<ellipse cx="346.341" cy="84.8883" rx="5.95351" ry="8.93026" fill="#565961"/>
<path d="M337.808 106.522C338.729 110.95 341.713 114.075 344.473 113.501C347.233 112.927 348.725 108.872 347.804 104.444C346.883 100.016 343.899 96.8915 341.139 97.4655C338.379 98.0395 336.887 102.094 337.808 106.522Z" fill="#CB8B66"/>
<path d="M438.383 182.948C434.479 161.173 415.327 145.465 393.21 145.898L386.206 146.035C362.019 146.508 342.534 166.019 342.093 190.207L341.565 219.223L444.979 219.743L438.383 182.948Z" fill="#5B507D"/>
<path d="M345.305 111.638C350.615 132.511 367.054 143.935 387.928 138.624C408.802 133.314 421.418 112.087 416.108 91.2136C410.797 70.3399 389.571 57.7235 368.697 63.034C347.823 68.3445 339.994 90.7639 345.305 111.638Z" fill="#C48763"/>
<path d="M382.993 122.047C379.831 126.876 372.956 127.747 369.493 122.189" stroke="black" stroke-width="2" stroke-linecap="round"/>
<ellipse cx="5.10474" cy="8.18921" rx="5.10474" ry="8.18921" transform="matrix(-0.989003 -0.147895 -0.147895 0.989003 423.814 101.38)" fill="#C48763"/>
<path d="M394.995 135.569C394.958 135.018 394.481 134.601 393.93 134.638L378.627 135.662C378.076 135.699 377.659 136.176 377.696 136.727L378.008 141.392C378.317 145.997 382.301 149.481 386.906 149.173L387.526 149.131C392.132 148.823 395.615 144.839 395.307 140.233L394.995 135.569Z" fill="#C48763"/>
<path d="M373.07 99.7998C369.879 104.594 364.905 114.521 370.543 115.874" stroke="#443824" stroke-width="2" stroke-linecap="round"/>
<path d="M365.205 90.8155C363.423 89.5617 358.744 87.8499 354.285 91.0327" stroke="#443824" stroke-width="2" stroke-linecap="round"/>
<path d="M397.845 92.5459C396.287 91.0228 391.942 88.5837 387.032 91.0114" stroke="#443824" stroke-width="2" stroke-linecap="round"/>
<ellipse cx="354.279" cy="80.9185" rx="5.95351" ry="8.93026" fill="#565961"/>
<ellipse cx="364.863" cy="80.2574" rx="5.95351" ry="8.93026" fill="#565961"/>
<ellipse cx="374.786" cy="80.9185" rx="5.95351" ry="8.93026" fill="#565961"/>
<ellipse cx="385.37" cy="80.2574" rx="5.95351" ry="8.93026" fill="#565961"/>
<ellipse cx="396.616" cy="80.9185" rx="5.95351" ry="8.93026" fill="#565961"/>
<path d="M411.882 95.6767C407.905 91.4027 404.106 84.1015 402.704 80.9851L399.262 73.9731L423.737 80.9851C423.125 93.2726 417.363 104.803 414.559 109.033C415.171 101.019 413.029 96.7897 411.882 95.6767Z" fill="#565961"/>
<path d="M336.237 88.4328C336.237 88.4328 350.931 78.5821 374.534 88.4328C374.534 88.4328 391.493 94.1527 405.599 85.072C405.599 85.072 373.173 66.7079 347.06 79.6953C320.946 92.6826 336.237 88.4328 336.237 88.4328Z" fill="#4FCDB0"/>
<path d="M405.599 85.0729C405.599 85.0729 415.418 85.7732 423.372 88.7838C424.894 89.3509 423.618 48.4493 379.577 51.6349C351.177 53.6933 347.403 79.8711 347.403 79.8711" fill="#4FCDB0"/>
<path d="M405.935 85.072C405.935 85.072 373.51 66.7079 347.403 79.6953L405.935 85.072Z" fill="#4FCDB0"/>
<path d="M405.935 85.072C405.935 85.072 373.51 66.7079 347.403 79.6953" stroke="#53A383" stroke-width="2" stroke-miterlimit="10"/>
<rect x="300.033" y="154.544" width="70.3837" height="27.783" fill="#5B507D"/>
<rect x="267.941" y="133.243" width="70.3837" height="27.783" rx="6" transform="rotate(20.176 267.941 133.243)" fill="#5B507D"/>
<rect x="377.059" y="213.991" width="60.0128" height="5.91676" fill="#A7A7A7"/>
<path d="M296.329 159.051H382.456L386.36 219.909H301.835L296.329 159.051Z" fill="#C4C4C4"/>
<path d="M340.341 193.163C335.984 193.163 332.447 196.899 332.447 201.515C332.447 206.124 335.979 209.866 340.341 209.866C344.699 209.866 348.235 206.13 348.235 201.515C348.235 196.899 344.699 193.163 340.341 193.163ZM340.341 208.707C336.585 208.707 333.538 205.483 333.538 201.509C333.538 197.536 336.58 194.311 340.341 194.311C344.097 194.311 347.145 197.53 347.145 201.509C347.145 205.488 344.097 208.707 340.341 208.707Z" fill="#16D2AA"/>
<path d="M340.342 208.712C344.1 208.712 347.146 205.489 347.146 201.514C347.146 197.539 344.1 194.316 340.342 194.316C336.585 194.316 333.539 197.539 333.539 201.514C333.539 205.489 336.585 208.712 340.342 208.712Z" fill="white"/>
<path d="M340.342 209.289C344.246 209.289 347.41 205.719 347.41 201.315C347.41 196.911 344.246 193.341 340.342 193.341C336.438 193.341 333.273 196.911 333.273 201.315C333.273 205.719 336.438 209.289 340.342 209.289Z" fill="white"/>
<path d="M336.934 203.248C337.153 203.534 337.444 203.679 337.81 203.679C338.177 203.679 338.468 203.534 338.682 203.248C338.896 202.962 339.003 202.569 339.003 202.078V199.49L340.308 198.66V202.121C340.308 203.016 340.073 203.706 339.604 204.186C339.135 204.666 338.539 204.908 337.805 204.908C337.077 204.908 336.475 204.666 336.001 204.181C335.532 203.695 335.293 203.011 335.293 202.121V199.49L336.598 198.66V202.073C336.608 202.574 336.715 202.962 336.934 203.248Z" fill="#16D2AA"/>
<path d="M344.768 199.215C345.176 199.582 345.385 200.148 345.385 200.913C345.385 201.679 345.176 202.234 344.753 202.59C344.33 202.946 343.688 203.118 342.827 203.118H342.047V204.013L340.742 204.844V198.66H342.806C343.703 198.665 344.355 198.848 344.768 199.215ZM343.81 201.647C343.968 201.463 344.045 201.188 344.045 200.832C344.045 200.477 343.943 200.223 343.739 200.072C343.535 199.921 343.219 199.846 342.791 199.846H342.047V201.927H342.923C343.357 201.927 343.652 201.835 343.81 201.647Z" fill="#16D2AA"/>
<ellipse cx="258.359" cy="135.558" rx="7.40881" ry="19.9112" fill="#C48763"/>
<path d="M356.988 101.754C358.069 99.9016 360.878 97.216 363.471 101.291" stroke="black" stroke-width="1.5" stroke-linecap="round"/>
<path d="M385.234 102.499C386.315 100.647 389.124 97.9616 391.717 102.036" stroke="black" stroke-width="1.5" stroke-linecap="round"/>
<ellipse cx="210.272" cy="134.473" rx="7.81958" ry="20.2389" fill="#E6A178"/>
<path d="M195.029 80.3315L212.805 101.978" stroke="#1855D1" stroke-width="5" stroke-linecap="round"/>
<path d="M242.261 59.957L241.554 90.4787" stroke="#1855D1" stroke-width="5" stroke-linecap="round"/>
<path d="M287.64 83.1099L265.249 102.222" stroke="#1855D1" stroke-width="5" stroke-linecap="round"/>
</svg>
