<svg width="541" height="362" viewBox="0 0 541 362" fill="none" xmlns="http://www.w3.org/2000/svg">
<circle cx="275.477" cy="161" r="121" fill="#16D2AA" fill-opacity="0.15"/>
<path d="M-6.28207 33.0189L-8.82031 41.3022L-2.4347 43.6201L0.103537 35.3368L-6.28207 33.0189Z" fill="#FED766"/>
<path d="M211.141 175.628L205.519 178.158L209.918 187.026L215.541 184.496L211.141 175.628Z" fill="#FED766"/>
<path d="M319.133 83.9304L311.576 89.3428L315.623 94.8992L323.18 89.4869L319.133 83.9304Z" fill="#FED766"/>
<path d="M179.825 117.445L173.794 118.615L177.145 131.562L183.177 130.392L179.825 117.445Z" fill="#FED766"/>
<path d="M325.391 144.128L318.206 152.245L323.287 156.87L330.472 148.752L325.391 144.128Z" fill="#FED766"/>
<path d="M72.4444 7.01317L66.4668 8.66797L69.3206 17.2124L75.2982 15.5576L72.4444 7.01317Z" fill="#FED766"/>
<path d="M162.189 22.4507L156.212 24.1055L159.066 32.6499L165.043 30.9951L162.189 22.4507Z" fill="#FED766"/>
<path d="M301.292 -8.45063L296.698 1.88672L302.834 4.91592L307.428 -5.42143L301.292 -8.45063Z" fill="#FED766"/>
<path d="M270.134 267.011L265.54 277.349L271.676 280.378L276.27 270.04L270.134 267.011Z" fill="#FED766"/>
<path d="M360.588 67.1509L355.994 77.4883L362.13 80.5175L366.724 70.1801L360.588 67.1509Z" fill="#FED766"/>
<path d="M73.427 187.888L68.833 198.226L74.9688 201.255L79.5628 190.917L73.427 187.888Z" fill="#FED766"/>
<path d="M305.736 239.403L301.142 249.741L307.277 252.77L311.871 242.433L305.736 239.403Z" fill="#FED766"/>
<path d="M126.488 59.3953L117.987 67.999L122.842 72.9007L131.343 64.2969L126.488 59.3953Z" fill="#FED766"/>
<path d="M97.8121 98.4161L94.0459 106.853L100.149 109.868L103.916 101.431L97.8121 98.4161Z" fill="#FED766"/>
<path d="M25.0929 60.18L19.0713 61.3916L22.453 74.128L28.4747 72.9164L25.0929 60.18Z" fill="#FED766"/>
<path d="M68.1326 75.1043L63.5732 86.0591L69.7815 88.9601L74.3409 78.0054L68.1326 75.1043Z" fill="#FED766"/>
<path d="M223.653 20.0867L218.915 32.27L225.188 35.0413L229.926 22.858L223.653 20.0867Z" fill="#FED766"/>
<path d="M446.072 142.634L441.334 154.817L447.607 157.588L452.345 145.405L446.072 142.634Z" fill="#FED766"/>
<path d="M109.784 223.921L103.726 224.94L106.788 237.959L112.847 236.94L109.784 223.921Z" fill="#FED766"/>
<path d="M365.772 8.37L359.714 9.38916L362.777 22.4081L368.835 21.389L365.772 8.37Z" fill="#FED766"/>
<path d="M126.585 0.279522L122.886 11.9629L129.307 14.3626L133.006 2.67928L126.585 0.279522Z" fill="#FED766"/>
<path d="M427.012 52.4933L421.22 54.5254L426.048 66.4528L431.84 64.4208L427.012 52.4933Z" fill="#FED766"/>
<path d="M152.031 213.341C153.758 214.649 150.968 217.243 151.264 219.084C151.404 219.951 154.524 223.632 154.49 223.674C152.954 225.611 156.2 227.688 157.728 225.767C158.725 224.505 158.682 222.952 157.918 221.561C157.176 220.215 155.119 219.447 155.402 217.993C155.509 217.43 156.182 216.788 156.366 216.189C156.588 215.482 156.64 214.668 156.533 213.932C156.29 212.306 155.425 211.12 154.135 210.141C152.159 208.635 150.066 211.851 152.031 213.341Z" fill="#5280DD"/>
<path d="M43.2324 32.9765C40.5347 33.8959 36.3585 35.9028 36.5615 38.6988C36.6458 39.8853 37.4705 40.4106 38.3155 41.2727C39.0074 41.9742 39.7492 42.2232 39.2132 43.2151C38.6466 44.269 36.7015 44.3712 35.4765 44.4155C32.6441 44.519 32.4346 48.134 35.2992 48.0284C39.0896 47.8899 43.2066 46.8089 43.9039 43.3707C44.1586 42.1151 43.8428 40.8688 42.84 39.8498C41.9468 38.9407 41.1371 39.1397 41.7925 37.9634C42.2663 37.1139 44.3352 36.5478 45.3311 36.2087C47.9496 35.3115 45.8507 32.083 43.2324 32.9765Z" fill="#5280DD"/>
<path d="M18.6756 121.164C19.1131 121.177 20.4643 120.824 20.8645 120.965C22.4002 121.514 21.3976 122.507 21.0759 123.609C20.5947 125.277 20.6125 126.496 21.2007 128.1C21.5736 129.114 22.9037 129.427 23.7335 128.952C24.308 128.625 24.7622 133.432 24.9031 134.118C25.1572 135.34 25.641 136.544 26.4937 137.419C27.9741 138.937 30.1783 139.216 31.8766 137.952C33.8487 136.482 32.1531 132.87 30.153 134.358C28.7041 135.439 28.3578 129.774 28.2405 129.161C28.0306 128.066 27.6811 126.969 26.9381 126.149C25.5845 124.655 23.6896 124.395 22.0101 125.355C22.853 125.639 23.6999 125.924 24.5429 126.208C24.1086 125.023 25.2739 123.321 25.4725 122.117C25.6559 120.987 25.6624 119.828 25.1589 118.79C23.7394 115.873 21.2562 117.171 18.8746 117.108C16.4582 117.044 16.2517 121.095 18.6756 121.164Z" fill="#5280DD"/>
<path d="M109.813 128.516C108.08 129.967 104.956 132.391 105.253 135.226C105.589 138.405 108.043 137.7 109.966 138.4C112.925 139.476 110.435 144.045 111.971 146.758C112.414 147.54 113.091 147.87 113.687 148.419C115.923 150.484 115.123 151.749 115.265 154.777C115.38 157.282 118.994 157.488 118.876 154.954C118.752 152.314 119.847 149.299 118.3 146.938C117.662 145.964 117.326 146.13 116.732 145.463C115.513 145.245 114.923 144.338 114.96 142.746C115.072 142 115.179 141.253 115.276 140.502C115.363 138.718 115.178 136.859 113.924 135.611C112.854 134.542 112.304 134.804 110.904 134.398C109.328 134.987 109.011 134.699 109.944 133.53C110.649 132.751 111.415 132.049 112.236 131.423C114.086 129.871 111.656 126.972 109.813 128.516Z" fill="#5280DD"/>
<path d="M389.668 132.423C389.239 130.925 389.007 129.551 389 127.959C388.369 128.615 387.738 129.268 387.111 129.925C389.1 129.997 390.651 128.889 391.65 126.9C393.05 124.117 392.209 121.147 392.71 118.166C392.111 118.642 391.511 119.118 390.911 119.589C392.225 119.628 393.539 119.667 394.849 119.706C397.151 119.776 397.36 115.665 395.05 115.594C393.737 115.555 392.423 115.516 391.113 115.477C390.415 115.456 389.46 116.02 389.313 116.9C389.021 118.647 389.74 125.898 387.313 125.809C386.387 125.776 385.42 126.65 385.424 127.775C385.429 129.706 385.641 131.499 386.168 133.338C386.87 135.825 390.384 134.932 389.668 132.423Z" fill="#5280DD"/>
<path d="M187.968 70.7395C187.672 69.5268 187.275 68.6147 188.506 67.7544C188.993 67.4165 190.126 67.4359 190.726 67.0392C191.73 66.3768 192.382 65.3433 192.711 64.1895C193.634 60.9178 191.537 58.2498 189.354 56.1164L189.219 58.8678C190.873 57.192 192.563 56.2577 194.83 55.786C197.245 55.2813 196.416 51.4774 193.997 51.9819C191.127 52.5809 188.72 53.882 186.65 55.9837C185.956 56.6854 185.738 57.9774 186.515 58.7352C186.997 59.2091 187.508 59.6684 187.941 60.1922C189.186 61.7007 188.503 63.0583 187.17 64.0664C186.431 64.6252 185.528 64.6009 184.851 65.4362C183.454 67.1648 183.739 69.5791 184.232 71.5935C184.82 74.0226 188.564 73.181 187.968 70.7395Z" fill="#5280DD"/>
<path d="M108.302 -22.2362C111.804 -17.968 106.699 -18.8383 106.134 -15.4962C105.545 -12.0116 110.391 -11.4085 108.065 -7.84088C106.555 -5.52613 103.794 -5.0993 103.199 -1.9762C102.773 0.260352 103.567 2.06836 105.398 3.25823C107.514 4.63032 109.643 1.29523 107.528 -0.0768672C105.801 -1.19592 111.021 -5.1921 111.561 -5.89621C112.316 -6.88121 112.872 -7.90881 112.994 -9.17111C113.243 -11.716 111.353 -12.1248 110.812 -14.101C110.366 -15.7318 111.244 -14.9827 112.416 -16.2018C112.889 -16.6957 113.298 -17.3365 113.518 -17.9865C114.424 -20.6675 112.776 -22.9812 111.19 -24.9143C109.573 -26.8776 106.693 -24.195 108.302 -22.2362Z" fill="#5280DD"/>
<path d="M269.416 147.649C268.623 149.349 267.67 151.414 267.75 153.374C267.812 154.977 268.478 155.169 269.18 156.202C269.468 156.31 269.757 156.418 270.049 156.527C270.489 158.067 270.424 159.549 269.853 160.986C269.741 161.864 269.566 162.711 269.603 163.601C269.704 165.975 271.447 168.246 271.03 170.615C270.591 173.094 274.098 174.346 274.542 171.843C274.869 169.985 274.79 168.655 274.231 166.815C273.945 165.88 273.447 164.907 273.347 163.911C273.143 161.917 274.074 160.452 274.237 158.611C274.521 155.384 273.085 153.451 270.357 152.434C270.764 152.916 271.172 153.398 271.58 153.881C271.518 152.421 271.832 151.066 272.52 149.806C273.57 147.542 270.482 145.364 269.416 147.649Z" fill="#5280DD"/>
<path d="M524.749 159.743C522.252 158.108 518.673 159.456 517.792 161.867C517.22 163.436 517.819 165.016 518.468 166.49C519.003 167.705 520.208 169.326 518.593 170.246C517.804 170.697 516.482 170.625 515.585 170.6C512.761 170.527 512.564 174.263 515.401 174.337C518.148 174.406 521.327 173.987 522.955 171.895C523.749 170.873 523.971 169.603 523.78 168.398C523.666 167.679 523.39 167.013 523.096 166.335C522.8 165.711 522.508 165.088 522.217 164.464C521.744 163.831 521.793 163.297 522.368 162.859C524.637 164.343 526.996 161.215 524.749 159.743Z" fill="#5280DD"/>
<path d="M265.511 21.5477C265.002 23.5572 263.598 26.4991 263.939 28.5871C264.181 30.0737 264.811 29.8187 265.518 30.9441C267.652 34.3456 265.157 34.7379 264.724 37.4334C264.342 39.8127 267.054 42.1558 265.995 44.5101C264.973 46.7722 267.905 48.9382 268.931 46.6559C269.799 44.7294 270.264 42.9384 269.685 40.8224C269.467 40.0233 268.487 38.9089 268.465 38.2542C268.431 37.17 269.334 36.3686 269.777 35.3323C270.473 33.7119 270.795 31.971 270.211 30.2511C269.492 28.1323 268.087 28.2105 266.665 27.0091C266.927 27.5898 267.189 28.1746 267.45 28.7594C267.558 26.7874 268.363 24.6617 268.844 22.7653C269.469 20.308 266.132 19.0862 265.511 21.5477Z" fill="#5280DD"/>
<path d="M474.475 84.3368C477.269 84.7932 474.453 89.2034 475.089 91.1383C475.904 93.602 478.795 93.1706 478.453 96.1957C478.249 98.0034 476.899 99.976 478.075 101.774C479.155 103.423 481.684 103.408 483.253 102.806C485.496 101.949 484.72 98.063 482.445 98.934C480.924 99.5184 482.327 96.5413 482.428 95.9076C482.571 95.0345 482.637 94.1657 482.373 93.3094C481.786 91.3974 479.006 90.614 479.002 89.181C479.003 88.4605 479.728 87.4848 479.788 86.6404C479.857 85.6284 479.654 84.5704 479.231 83.6572C478.314 81.6839 476.653 80.6977 474.67 80.3752C472.288 79.9799 472.112 83.9506 474.475 84.3368Z" fill="#5280DD"/>
<path d="M322.041 35.2151C320.406 36.6393 318.819 38.6322 319.403 41.1531C319.961 43.557 321.519 43.9269 323.399 43.9572C322.996 43.7431 322.589 43.5248 322.185 43.3107C323.038 44.2866 321.723 47.9089 321.36 48.8789C320.465 51.2653 323.813 52.4793 324.699 50.1091C325.573 47.7713 326.358 44.4371 325.605 41.9492C325.358 41.1312 324.793 40.3553 324.06 40.0507C324.028 40.0367 322.667 39.8584 322.7 39.9964C322.608 39.5868 324.172 38.3616 324.392 38.1699C326.202 36.5889 323.844 33.6462 322.041 35.2151Z" fill="#5280DD"/>
<path d="M331.116 189.282C329.481 190.706 327.894 192.699 328.478 195.22C329.036 197.624 330.594 197.994 332.475 198.024C332.071 197.81 331.664 197.592 331.26 197.378C332.113 198.354 330.799 201.976 330.435 202.946C329.541 205.332 332.888 206.546 333.775 204.176C334.649 201.838 335.433 198.504 334.68 196.016C334.433 195.198 333.868 194.422 333.135 194.118C333.103 194.104 331.742 193.925 331.775 194.063C331.683 193.654 333.247 192.429 333.467 192.237C335.277 190.656 332.919 187.713 331.116 189.282Z" fill="#5280DD"/>
<path d="M67.8585 130.377C66.2231 131.801 64.636 133.794 65.2206 136.315C65.7783 138.719 67.3366 139.089 69.2168 139.119C68.8132 138.905 68.4062 138.686 68.0026 138.472C68.8555 139.448 67.5409 143.071 67.1772 144.04C66.2828 146.427 69.6305 147.641 70.5169 145.271C71.3907 142.933 72.1755 139.599 71.4221 137.111C71.1753 136.293 70.6104 135.517 69.877 135.212C69.845 135.198 68.4844 135.02 68.5175 135.158C68.425 134.748 69.9889 133.523 70.209 133.332C72.0193 131.751 69.6609 128.808 67.8585 130.377Z" fill="#5280DD"/>
<path d="M377.738 229.185C376.985 228.965 380.018 225.141 380.19 224.773C380.558 223.975 380.881 223.021 380.725 222.135C380.218 219.306 377.994 220.564 376.347 219.05C374.36 217.216 378.74 211.88 376.812 209.213C375.323 207.155 371.237 207.502 368.954 207.274C366.15 206.991 365.962 211.004 368.758 211.287C370.488 211.463 372.549 211.502 374.198 212.042C373.712 211.55 373.226 211.058 372.74 210.566C374.003 213.731 370.681 216.994 372.275 220.403C373.465 222.947 375.126 222.863 377.612 223.656C377.125 223.164 376.639 222.672 376.153 222.18C376.902 224.21 372.776 226.758 373.048 229.327C373.249 231.206 374.484 232.443 376.385 233C379.079 233.791 380.431 229.975 377.738 229.185Z" fill="#5280DD"/>
<path d="M509.636 40.5838C509.203 39.1594 508.968 37.8536 508.957 36.341C508.328 36.9634 507.699 37.5816 507.073 38.2041C509.061 38.2775 510.61 37.2285 511.604 35.3419C512.997 32.7008 512.149 29.8771 512.643 27.0466C512.044 27.4971 511.446 27.9475 510.847 28.3939C512.161 28.4342 513.474 28.4745 514.784 28.5145C517.087 28.5872 517.286 24.6819 514.976 24.6089C513.662 24.5686 512.349 24.5283 511.039 24.4882C510.341 24.4661 509.388 24.9999 509.243 25.8355C508.955 27.4947 509.692 34.3853 507.265 34.2944C506.339 34.2611 505.374 35.0887 505.381 36.1575C505.391 37.9926 505.607 39.6966 506.138 41.4444C506.842 43.8094 510.354 42.9737 509.636 40.5838Z" fill="#5280DD"/>
<path d="M43.6334 235.459C44.6368 234.964 43.0705 238.186 42.9747 238.611C42.76 239.59 43.0116 240.575 43.7226 241.284C44.4415 242.002 45.5307 242.051 46.2057 242.816C47.1018 243.829 47.0561 245.184 46.3088 246.235C44.8226 248.332 48.2122 250.494 49.698 248.404C50.9873 246.583 51.2498 244.376 50.473 242.29C49.5897 239.912 47.972 239.51 46.1272 238.132C46.4154 238.543 46.7079 238.949 46.9961 239.36C46.9105 238.98 48.0979 237.113 48.1594 236.453C48.2643 235.334 48.0374 234.187 47.3704 233.259C46.0557 231.437 43.7542 230.96 41.7686 231.942C39.4417 233.086 41.3063 236.608 43.6334 235.459Z" fill="#5280DD"/>
<ellipse cx="287.659" cy="287.415" rx="85.2964" ry="18.12" fill="#DBDFDF"/>
<path d="M230.751 252.444L225.791 237.594C225.791 237.594 219.785 225.709 217.177 198.463L216.398 191.212C216.398 191.212 197.734 123.547 247.502 117.931C280.211 114.244 301.526 126.634 312.299 135.561C318.12 140.386 319.404 147.031 320.893 154.432C322.191 160.872 315.988 173.221 318.591 179.92C329.795 208.733 331.653 210.6 334.672 214.369C336.394 216.522 342.488 221.286 346.409 228.489C354.272 242.93 352.441 264.976 352.441 264.976L273.797 279.029C273.797 279.029 249.094 282.559 239.618 275.423L238.901 267.491" fill="#E4B652"/>
<path d="M246.949 117.264C246.949 117.264 225.837 120.686 218.054 121.064C210.272 121.442 205.563 119.985 203.668 132.32C201.774 144.654 206.742 154.529 209.236 155.56C211.825 156.632 215.526 157.126 218.661 149.162C221.795 141.198 225.196 131.275 232.549 126.548C238.764 122.555 244.482 120.253 246.11 119.635C246.492 119.491 246.846 119.298 247.173 119.065C248.059 118.432 249.354 117.264 246.949 117.264Z" fill="#544B43"/>
<path d="M294.409 126.294C294.409 126.294 292.889 121.997 300.617 126.132C308.344 130.266 314.659 133.359 321.974 135.301C329.289 137.243 333.321 138.353 334.01 144.95C334.706 151.548 328.465 161.563 322.838 167.314C319.745 170.481 317.732 169.513 316.55 168.005C315.632 166.834 315.213 165.338 315.24 163.85C315.287 161.393 314.963 155.831 311.788 149.903C309.411 145.471 301.184 130.72 294.409 126.294Z" fill="#544B43"/>
<path d="M235.067 158.266C235.067 158.266 247.676 149.822 262.03 152.139C276.385 154.455 281.914 167.647 281.914 167.647" stroke="#544B43" stroke-width="1.6" stroke-miterlimit="10" stroke-linecap="round" stroke-linejoin="round"/>
<path d="M260.269 157.514C260.269 157.514 251.507 154.856 250.984 162.126C250.923 162.991 251.319 163.868 252.105 164.287C253.058 164.79 254.763 164.997 257.785 163.791C257.785 163.791 258.906 163.145 259.839 164.229C260.779 165.313 261.632 167.01 264.505 166.732C265.687 166.616 266.479 165.977 267.003 165.261C268.07 163.803 268.037 161.797 266.835 160.442C265.828 159.301 263.908 158.094 260.269 157.514Z" fill="#544B43"/>
<path d="M216.505 191.511C216.505 191.511 260.417 206.583 318.523 179.137L323.457 189.343C323.457 189.343 265.816 217.233 216.648 200.074L216.505 191.511Z" fill="#16D2AA"/>
<path d="M259.977 226.637C265.193 226.637 269.422 222.13 269.422 216.57C269.422 211.01 265.193 206.503 259.977 206.503C254.761 206.503 250.532 211.01 250.532 216.57C250.532 222.13 254.761 226.637 259.977 226.637Z" fill="white"/>
<path d="M259.975 206.279C254.153 206.279 249.427 210.996 249.427 216.823C249.427 222.643 254.146 227.367 259.975 227.367C265.797 227.367 270.523 222.649 270.523 216.823C270.523 210.996 265.797 206.279 259.975 206.279ZM259.975 225.903C254.956 225.903 250.884 221.833 250.884 216.816C250.884 211.8 254.949 207.729 259.975 207.729C264.993 207.729 269.066 211.793 269.066 216.816C269.066 221.839 264.993 225.903 259.975 225.903Z" fill="#16D2AA"/>
<path d="M259.977 225.909C264.997 225.909 269.067 221.841 269.067 216.822C269.067 211.804 264.997 207.735 259.977 207.735C254.956 207.735 250.886 211.804 250.886 216.822C250.886 221.841 254.956 225.909 259.977 225.909Z" fill="white"/>
<path d="M255.42 219.011C255.713 219.372 256.101 219.556 256.591 219.556C257.082 219.556 257.47 219.372 257.756 219.011C258.042 218.651 258.185 218.154 258.185 217.534V214.267L259.928 213.219V217.589C259.928 218.719 259.615 219.59 258.988 220.196C258.362 220.801 257.565 221.108 256.585 221.108C255.611 221.108 254.807 220.801 254.174 220.189C253.548 219.576 253.228 218.712 253.228 217.589V214.267L254.971 213.219V217.527C254.984 218.16 255.127 218.651 255.42 219.011Z" fill="#16D2AA"/>
<path d="M265.891 213.92C266.436 214.383 266.715 215.097 266.715 216.064C266.715 217.031 266.436 217.732 265.871 218.181C265.306 218.63 264.448 218.848 263.297 218.848H262.255V219.978L260.512 221.026V213.219H263.27C264.468 213.226 265.34 213.457 265.891 213.92ZM264.611 216.99C264.822 216.758 264.924 216.411 264.924 215.962C264.924 215.513 264.788 215.193 264.516 215.002C264.243 214.812 263.821 214.716 263.249 214.716H262.255V217.344H263.426C264.005 217.344 264.4 217.228 264.611 216.99Z" fill="#16D2AA"/>
<path d="M260.021 205.08C260.021 205.08 260.743 206.834 260.053 207.781C259.359 208.735 260.414 208.097 260.414 208.097C260.414 208.097 261.058 206.356 260.414 205.08C260.414 205.08 260.277 204.384 260.021 205.08Z" fill="#B5DFD5"/>
<path d="M225.518 201.56L203.752 191.681C200.494 189.656 195.148 191.039 192.396 194.835C189.323 199.075 193.57 216.943 223.314 224.141" fill="#E4B652"/>
<path d="M224.786 201.027L219.575 198.459C217.837 197.601 216.072 196.778 214.318 195.942L209.045 193.448L203.736 191.007L203.771 191.029C202.231 190.06 200.086 189.793 197.933 190.317C195.784 190.811 193.64 192.17 192.244 193.95C191.511 194.845 191.103 195.909 190.939 196.87C190.779 197.842 190.807 198.777 190.931 199.66C191.193 201.439 191.864 203.028 192.683 204.505C194.386 207.436 196.765 209.872 199.399 212.014C202.048 214.15 205.013 215.959 208.129 217.545C205.161 215.771 202.319 213.855 199.788 211.637C197.247 209.437 194.997 206.947 193.419 204.051C192.632 202.606 192.009 201.053 191.781 199.372C191.557 197.722 191.684 195.825 192.933 194.314C194.17 192.755 196.048 191.606 197.952 191.133C199.861 190.651 201.771 190.864 203.162 191.722L203.183 191.731L203.204 191.741L208.557 194.124L213.945 196.455C215.747 197.224 217.532 198.016 219.35 198.763L224.786 201.027Z" fill="#C58F2C"/>
<path d="M300.658 200.008L279.083 190.219C275.854 188.213 270.555 189.582 267.827 193.343C264.781 197.544 269.538 211.943 290.655 220.146" fill="#E4B652"/>
<path d="M300.257 199.666L295.046 197.098C293.308 196.24 291.543 195.417 289.789 194.582L284.516 192.087L279.207 189.646L279.242 189.668C277.702 188.699 275.557 188.433 273.404 188.956C271.254 189.451 269.111 190.809 267.715 192.589C266.981 193.484 266.573 194.548 266.409 195.509C266.25 196.481 266.278 197.416 266.402 198.299C266.664 200.078 267.335 201.667 268.153 203.144C269.856 206.075 272.235 208.511 274.87 210.653C277.518 212.789 280.484 214.598 283.6 216.185C280.632 214.41 277.79 212.494 275.258 210.276C272.718 208.077 270.468 205.586 268.89 202.69C268.102 201.245 267.48 199.692 267.251 198.011C267.028 196.361 267.155 194.464 268.404 192.953C269.641 191.394 271.518 190.246 273.423 189.772C275.332 189.29 277.242 189.503 278.633 190.361L278.654 190.37L278.675 190.38L284.027 192.764L289.416 195.094C291.217 195.863 293.003 196.655 294.821 197.402L300.257 199.666Z" fill="#C58F2C"/>
<path d="M352.626 264.875C352.626 264.875 349.929 274.119 342.029 281.82C339.842 283.952 337.257 285.965 334.22 287.631C330.892 289.457 327.021 290.867 322.537 291.558C299.175 295.163 293.117 291.558 293.117 291.558C293.117 291.558 288.837 289.036 296.504 284.343C304.171 279.65 308.989 277.493 308.989 277.493C308.989 277.493 276.181 279.478 265.12 279.113" fill="#E4B652"/>
<path d="M282.798 278.645C282.798 278.645 262.872 281.49 239.613 285.957C227.648 288.252 221.881 288.028 219.229 287.532C217.439 287.193 215.95 285.821 215.669 284.036C215.41 282.352 216.107 280.091 219.947 277.783C227.634 273.167 228.024 274.239 228.024 274.239C218.587 264.117 230.839 252.501 230.839 252.501C230.839 252.501 244.204 272.712 263.501 275.685" fill="#E4B652"/>
<path d="M230.647 252.501C236.14 263.84 254.839 271.533 266.887 276.366L230.647 252.501Z" fill="#E4B652"/>
<path d="M230.647 252.501C236.14 263.84 254.839 271.533 266.887 276.366" stroke="#C58F2C" stroke-width="1.302" stroke-miterlimit="10"/>
<path d="M308.76 277.629C305.798 276.071 303.245 273.6 301.767 270.51C301.038 268.964 300.657 267.249 300.616 265.541C300.575 263.825 300.875 262.117 301.399 260.49C301.944 258.863 302.747 257.366 303.612 255.902C304.538 254.487 305.512 253.098 306.649 251.846C308.869 249.3 311.368 247.04 314.017 244.984L312.185 246.7C311.566 247.258 311.001 247.884 310.401 248.469C309.795 249.048 309.244 249.674 308.679 250.287C308.1 250.886 307.582 251.539 307.051 252.186C305.996 253.472 305.029 254.827 304.143 256.229C303.319 257.665 302.55 259.136 302.046 260.701C301.528 262.26 301.215 263.887 301.242 265.52C301.256 267.154 301.624 268.774 302.25 270.292C302.897 271.803 303.837 273.185 304.954 274.417C306.05 275.649 307.337 276.738 308.76 277.629Z" fill="#C48F2C"/>
<path d="M198.131 196.375C199.117 197.363 200.332 197.749 200.845 197.237C201.357 196.726 200.972 195.51 199.986 194.523C198.999 193.535 197.784 193.149 197.272 193.66C196.76 194.172 197.144 195.387 198.131 196.375Z" fill="#C58F2C"/>
<path d="M193.923 196.873C194.69 197.641 195.691 197.885 196.159 197.418C196.626 196.951 196.383 195.95 195.616 195.182C194.849 194.413 193.848 194.169 193.38 194.636C192.912 195.103 193.156 196.104 193.923 196.873Z" fill="#C58F2C"/>
<path d="M193.827 200.409C194.667 201.25 195.689 201.592 196.109 201.173C196.529 200.753 196.188 199.731 195.348 198.889C194.508 198.048 193.486 197.706 193.066 198.125C192.646 198.545 192.986 199.567 193.827 200.409Z" fill="#C58F2C"/>
<path d="M198.219 202.554C199.694 204.031 201.631 204.488 202.546 203.574C203.461 202.661 203.006 200.723 201.531 199.246C200.056 197.769 198.119 197.312 197.204 198.226C196.29 199.139 196.744 201.077 198.219 202.554Z" fill="#C58F2C"/>
<path d="M273.785 194.786C274.632 195.895 275.786 196.439 276.361 196C276.937 195.56 276.716 194.305 275.869 193.195C275.022 192.085 273.869 191.542 273.293 191.981C272.718 192.42 272.938 193.676 273.785 194.786Z" fill="#C58F2C"/>
<path d="M269.814 194.52C270.473 195.383 271.373 195.803 271.825 195.458C272.278 195.112 272.11 194.133 271.451 193.27C270.792 192.407 269.891 191.987 269.439 192.332C268.987 192.677 269.155 193.657 269.814 194.52Z" fill="#C58F2C"/>
<path d="M269.276 197.519C269.871 198.299 270.62 198.727 270.949 198.476C271.278 198.225 271.062 197.389 270.467 196.61C269.871 195.83 269.122 195.401 268.793 195.652C268.465 195.903 268.681 196.739 269.276 197.519Z" fill="#C58F2C"/>
<path d="M273.017 200.873C274.263 202.504 276.105 203.19 277.133 202.406C278.16 201.622 277.984 199.663 276.738 198.032C275.493 196.401 273.65 195.715 272.623 196.499C271.595 197.283 271.772 199.242 273.017 200.873Z" fill="#C58F2C"/>
<path d="M282.073 153.867C282.073 153.867 281.646 150.196 278.87 149.83C276.087 149.472 275.323 152.043 275.323 152.043" stroke="#1E1C1A" stroke-width="2" stroke-miterlimit="10" stroke-linecap="round" stroke-linejoin="round"/>
<path d="M244.903 149.165C244.903 149.165 243.859 146.116 241.09 146.496C238.315 146.875 238.019 149.265 238.019 149.265" stroke="#1E1C1A" stroke-width="2" stroke-miterlimit="10" stroke-linecap="round" stroke-linejoin="round"/>
<path d="M259.112 164.111L258.049 169.704C258.049 169.704 258.785 172.645 263.275 173.747C263.589 173.821 263.909 173.847 264.23 173.827C265.267 173.767 267.541 173.465 268.656 172.075" stroke="#544B43" stroke-width="1.6" stroke-miterlimit="10" stroke-linecap="round" stroke-linejoin="round"/>
<path d="M258.048 169.414C258.048 169.414 255.751 172.762 252.066 171.934C248.38 171.106 248.325 169.414 248.325 169.414" stroke="#544B43" stroke-width="1.6" stroke-miterlimit="10" stroke-linecap="round" stroke-linejoin="round"/>
<rect x="197.06" y="157.04" width="1.7678" height="48.6145" rx="0.8839" fill="#C4C4C4"/>
<path d="M197.059 182.256V160.13C197.059 159.466 196.425 158.987 195.787 159.167L155.486 170.566C154.508 170.842 154.519 172.233 155.501 172.494L195.802 183.222C196.437 183.391 197.059 182.913 197.059 182.256Z" fill="#1855D1"/>
<path d="M345.035 247.067C345.035 247.067 349.077 243.322 351.95 236.641C354.824 229.959 360.092 234.05 360.812 237.394C361.518 240.676 364.776 248.898 345.727 257.804L342.903 251.952L345.035 247.067Z" fill="#E4B652"/>
<circle cx="270.307" cy="336.913" r="22.3073" fill="#F2FBF9" stroke="#16D2AA" stroke-width="4"/>
<path fill-rule="evenodd" clip-rule="evenodd" d="M268.547 344.202L267.708 343.362L266.868 344.202C267.332 344.665 268.084 344.665 268.547 344.202ZM267.708 341.683L262.216 336.192C261.752 335.728 261.001 335.728 260.537 336.192C260.074 336.655 260.074 337.407 260.537 337.87L266.868 344.202L267.708 343.362C268.547 344.202 268.547 344.202 268.547 344.202L280.762 331.986C281.226 331.523 281.226 330.771 280.762 330.308C280.299 329.844 279.547 329.844 279.084 330.308L267.708 341.683Z" fill="#16D2AA"/>
<path d="M267.708 343.362L268.547 344.202M267.708 343.362L266.868 344.202M267.708 343.362C268.547 344.202 268.547 344.202 268.547 344.202M268.547 344.202C268.084 344.665 267.332 344.665 266.868 344.202M268.547 344.202L280.762 331.986C281.226 331.523 281.226 330.771 280.762 330.308C280.299 329.844 279.547 329.844 279.084 330.308L267.708 341.683L262.216 336.192C261.752 335.728 261.001 335.728 260.537 336.192C260.074 336.655 260.074 337.407 260.537 337.87L266.868 344.202" stroke="#16D2AA" stroke-width="2" stroke-linecap="round" stroke-linejoin="round"/>
</svg>
