<svg width="481" height="327" viewBox="0 0 481 327" fill="none" xmlns="http://www.w3.org/2000/svg">
<circle cx="210.557" cy="131.744" r="137.557" fill="#B8D6FA"/>
<ellipse cx="250.206" cy="70.7253" rx="48.5161" ry="51.3025" fill="white"/>
<ellipse cx="219.127" cy="123.898" rx="48.5161" ry="51.3025" fill="white"/>
<ellipse cx="230.755" cy="162.909" rx="36.8901" ry="39.0113" fill="white"/>
<ellipse cx="298.724" cy="39.0113" rx="36.8901" ry="39.0113" fill="white"/>
<ellipse cx="358.859" cy="49.0835" rx="36.8901" ry="39.0113" fill="white"/>
<ellipse cx="418.11" cy="67.1675" rx="36.8901" ry="39.0113" fill="white"/>
<ellipse cx="443.149" cy="127.104" rx="36.8901" ry="39.0113" fill="white"/>
<ellipse cx="432.641" cy="175.201" rx="36.8901" ry="39.0113" fill="white"/>
<ellipse cx="372.498" cy="183.484" rx="36.8901" ry="39.0113" fill="white"/>
<ellipse cx="287.093" cy="183.484" rx="36.8901" ry="39.0113" fill="white"/>
<ellipse cx="331.811" cy="175.201" rx="36.8901" ry="39.0113" fill="white"/>
<ellipse cx="336.508" cy="115.88" rx="95.0199" ry="59.3185" fill="white"/>
<ellipse cx="10.9354" cy="10.5351" rx="10.9354" ry="10.5351" transform="matrix(0.504567 0.863373 -0.87199 0.489524 154.792 135)" fill="white"/>
<path d="M134.106 174.642C130.506 176.663 125.889 175.396 123.794 171.811C121.699 168.226 122.919 163.681 126.52 161.66C130.12 159.639 134.737 160.906 136.832 164.491C138.927 168.076 137.707 172.62 134.106 174.642Z" fill="white"/>
<ellipse cx="6.83462" cy="6.45698" rx="6.83462" ry="6.45698" transform="matrix(0.504567 0.863373 -0.87199 0.489524 111.261 171.876)" fill="white"/>
<path d="M203.527 74.5223L332.953 35.2221L434.538 177.75L346.246 214.169L341.835 210.739L332.524 213.679L319.781 213.679L309.98 209.759L302.138 216.62L292.827 221.468L285.594 222.501L203.527 74.5223Z" fill="#D8DEE6"/>
<path d="M205.863 74.5858L337.663 35.2864L441.112 177.811L350.202 214.483L345.617 211.289L343.792 212.204L341.624 212.759L339.628 213.249L337.226 213.74L334.138 214.229L331.144 214.229L324.25 213.74L319.166 212.269L314.269 209.819L310.182 213.739L306.283 216.68L302.197 219.13L296.801 221.529L289.435 222.562L205.863 74.5858Z" fill="#E3F2FD"/>
<path d="M227.895 83.2901C227.599 83.3839 227.336 83.3835 227.182 83.0284C227.956 82.6936 228.25 81.9394 227.946 81.0133C227.617 80.0159 226.842 79.5799 225.927 79.8701C225.017 80.1589 224.648 80.9578 224.976 81.9552C225.279 82.8766 225.963 83.3208 226.787 83.1538C227.013 83.7952 227.508 83.9217 228.032 83.7554C228.304 83.6692 228.577 83.4932 228.691 83.3103L228.402 82.9297C228.321 83.0815 228.138 83.213 227.895 83.2901ZM225.51 81.7859C225.265 81.0402 225.482 80.4993 226.073 80.3119C226.668 80.1229 227.166 80.4369 227.412 81.1826C227.657 81.9283 227.44 82.4691 226.845 82.6581C226.254 82.8456 225.755 82.5315 225.51 81.7859ZM230.016 79.4648L230.438 80.7472C230.603 81.2507 230.37 81.5659 230.008 81.6808C229.708 81.7761 229.473 81.7035 229.328 81.2618L228.858 79.8322L228.348 79.994L228.862 81.5566C229.065 82.174 229.526 82.2953 230.002 82.1441C230.388 82.0217 230.64 81.7949 230.704 81.4443L230.854 81.8215L231.307 81.6778L230.526 79.303L230.016 79.4648ZM233.815 79.4922C233.589 78.8035 233.041 78.4525 232.327 78.6793C231.583 78.9151 231.315 79.5089 231.57 80.2831C231.825 81.0573 232.419 81.3774 233.172 81.1385C233.697 80.9722 233.96 80.6684 234.016 80.2625L233.534 80.2213C233.526 80.4545 233.354 80.635 233.04 80.7348C232.654 80.8572 232.332 80.7126 232.138 80.3128L233.882 79.7594C233.871 79.6947 233.845 79.5824 233.815 79.4922ZM232.459 79.083C232.817 78.9696 233.117 79.1313 233.296 79.5151L232.014 79.9218C231.932 79.4967 232.083 79.2024 232.459 79.083ZM235.746 80.3219C236.404 80.1133 236.687 79.6931 236.549 79.2752C236.42 78.8809 236.109 78.7538 235.387 78.8465C234.913 78.9079 234.745 78.8615 234.689 78.6905C234.64 78.5433 234.793 78.3373 235.089 78.2436C235.399 78.1453 235.643 78.199 235.856 78.4462L236.13 78.0653C235.838 77.754 235.482 77.6783 234.953 77.8461C234.314 78.0487 234.068 78.5151 234.194 78.8998C234.325 79.2988 234.64 79.4244 235.394 79.3321C235.836 79.2813 236.002 79.3229 236.05 79.4702C236.103 79.6317 235.973 79.8096 235.634 79.9169C235.301 80.0228 234.983 80.0027 234.766 79.7571L234.519 80.1604C234.834 80.4436 235.284 80.4686 235.746 80.3219ZM238.642 78.7686C238.569 78.8968 238.468 78.9916 238.306 79.043C238.096 79.1096 237.924 79.0489 237.847 78.8162L237.432 77.5528L238.266 77.2882L238.134 76.8892L237.3 77.1538L237.071 76.4557L236.608 76.7599L236.79 77.3156L236.338 77.4592L236.469 77.8582L236.922 77.7146L237.365 79.0634C237.531 79.5511 237.907 79.6366 238.317 79.5066C238.574 79.4249 238.773 79.2779 238.883 79.1012L238.642 78.7686ZM238.755 76.2517C238.975 76.1821 239.055 76.0256 238.989 75.8261C238.923 75.6266 238.767 75.5504 238.548 75.62C238.328 75.6895 238.242 75.8428 238.308 76.0423C238.373 76.2418 238.536 76.3212 238.755 76.2517ZM239.139 76.5705L238.629 76.7323L239.411 79.107L239.921 78.9453L239.139 76.5705ZM240.97 75.9372C240.227 76.1731 239.935 76.7744 240.19 77.5486C240.444 78.3228 241.039 78.6429 241.783 78.407C242.526 78.1712 242.818 77.5698 242.563 76.7957C242.308 76.0215 241.713 75.7014 240.97 75.9372ZM241.101 76.3362C241.53 76.2001 241.876 76.4207 242.053 76.9574C242.23 77.4941 242.08 77.872 241.651 78.0081C241.222 78.1441 240.881 77.922 240.704 77.3853C240.528 76.8486 240.672 76.4723 241.101 76.3362ZM244.094 74.9463C243.751 75.0551 243.494 75.2834 243.435 75.6482L243.28 75.2568L242.827 75.4005L243.609 77.7752L244.119 77.6135L243.705 76.3548C243.525 75.8086 243.793 75.5033 244.107 75.4035C244.398 75.3113 244.669 75.3985 244.824 75.8687L245.277 77.2461L245.787 77.0843L245.28 75.5454C245.085 74.9517 244.599 74.786 244.094 74.9463ZM246.077 74.3171C245.858 74.3866 245.759 74.565 245.827 74.774C245.896 74.9829 246.084 75.0753 246.304 75.0058C246.523 74.9362 246.616 74.7546 246.547 74.5456C246.478 74.3367 246.296 74.2475 246.077 74.3171ZM246.663 76.0982C246.444 76.1677 246.345 76.3461 246.413 76.555C246.482 76.764 246.67 76.8564 246.89 76.7868C247.109 76.7173 247.202 76.5357 247.133 76.3267C247.064 76.1178 246.882 76.0286 246.663 76.0982ZM250.599 73.4805L250.519 72.7087L250.524 72.7072L250.918 73.3792L252.038 75.1013L252.638 74.9108L252.527 71.4843L252.002 71.6506L252.211 74.6056L250.615 72.0906L250.091 72.2569L250.299 75.2071L248.714 72.6938L248.161 72.8692L250.117 75.7106L250.722 75.5186L250.599 73.4805ZM254.57 71.6227C254.237 71.7285 253.999 71.9507 253.939 72.295L253.462 70.8464L252.952 71.0082L254.085 74.4516L254.595 74.2899L254.183 73.036C254.003 72.4898 254.27 72.1797 254.584 72.0799C254.875 71.9877 255.146 72.0749 255.3 72.5451L255.753 73.9225L256.263 73.7607L255.757 72.2218C255.562 71.6281 255.076 71.4624 254.57 71.6227ZM258.986 72.5299C258.857 72.5707 258.791 72.5289 258.751 72.4101L258.398 71.3367C258.211 70.7668 257.712 70.6261 257.116 70.8151C256.597 70.9799 256.309 71.3385 256.318 71.75L256.783 71.8335C256.784 71.5025 256.961 71.3047 257.257 71.211C257.567 71.1127 257.804 71.242 257.898 71.527L257.938 71.6505L257.369 71.9517C256.781 72.259 256.565 72.6265 256.685 72.9922C256.821 73.4055 257.219 73.5101 257.667 73.368C258.019 73.2561 258.282 73.0311 258.355 72.7563C258.493 73.0008 258.701 73.0399 258.958 72.9583C259.077 72.9205 259.17 72.865 259.235 72.8075L259.156 72.455C259.108 72.4858 259.048 72.5103 258.986 72.5299ZM257.65 72.9485C257.426 73.0196 257.261 72.9669 257.203 72.7912C257.141 72.6012 257.267 72.4405 257.57 72.276L258.056 72.0067L258.149 72.2917C258.243 72.5766 257.969 72.8472 257.65 72.9485ZM260.913 71.7035C260.839 71.8318 260.739 71.9266 260.577 71.978C260.367 72.0445 260.194 71.9838 260.118 71.7511L259.702 70.4877L260.536 70.2232L260.405 69.8242L259.571 70.0888L259.341 69.3906L258.878 69.6949L259.061 70.2506L258.608 70.3942L258.739 70.7932L259.192 70.6495L259.636 71.9984C259.802 72.4861 260.177 72.5715 260.587 72.4415C260.844 72.3599 261.043 72.2128 261.154 72.0362L260.913 71.7035ZM262.576 68.6949C262.795 68.6254 262.875 68.4688 262.809 68.2694C262.744 68.0699 262.587 67.9937 262.368 68.0632C262.149 68.1328 262.062 68.2861 262.128 68.4856C262.193 68.685 262.356 68.7645 262.576 68.6949ZM262.96 69.0138L262.45 69.1755L263.231 71.5503L263.741 71.3885L262.96 69.0138ZM265.417 70.9092C266.075 70.7006 266.358 70.2804 266.22 69.8625C266.09 69.4682 265.78 69.3411 265.058 69.4338C264.583 69.4952 264.415 69.4488 264.359 69.2778C264.311 69.1306 264.464 68.9246 264.76 68.8309C265.069 68.7326 265.313 68.7863 265.526 69.0335L265.801 68.6526C265.509 68.3413 265.153 68.2656 264.624 68.4334C263.985 68.636 263.738 69.1024 263.865 69.4871C263.996 69.8861 264.311 70.0117 265.065 69.9194C265.506 69.8686 265.673 69.9103 265.721 70.0575C265.774 70.219 265.643 70.3969 265.305 70.5042C264.971 70.6101 264.654 70.59 264.436 70.3444L264.19 70.7477C264.504 71.0309 264.955 71.0559 265.417 70.9092ZM269.788 68.8878C269.715 69.0161 269.614 69.1109 269.452 69.1623C269.243 69.2288 269.07 69.1682 268.993 68.9354L268.578 67.6721L269.412 67.4075L269.281 67.0085L268.446 67.2731L268.217 66.5749L267.754 66.8792L267.937 67.4349L267.484 67.5785L267.615 67.9775L268.068 67.8338L268.512 69.1827C268.677 69.6704 269.053 69.7558 269.463 69.6258C269.72 69.5442 269.919 69.3971 270.029 69.2205L269.788 68.8878ZM271.06 66.3914C270.727 66.4972 270.489 66.7194 270.429 67.0638L269.952 65.6152L269.442 65.777L270.575 69.2204L271.085 69.0586L270.673 67.8047C270.493 67.2585 270.759 66.9485 271.074 66.8487C271.365 66.7564 271.635 66.8436 271.79 67.3138L272.243 68.6912L272.753 68.5294L272.247 66.9906C272.052 66.3969 271.566 66.2311 271.06 66.3914ZM275.242 66.3498C275.016 65.6611 274.469 65.3102 273.754 65.5369C273.01 65.7728 272.742 66.3666 272.997 67.1407C273.252 67.9149 273.847 68.235 274.6 67.9961C275.124 67.8298 275.387 67.526 275.443 67.1201L274.961 67.0789C274.954 67.3121 274.781 67.4926 274.467 67.5924C274.081 67.7149 273.76 67.5703 273.565 67.1705L275.309 66.6171C275.298 66.5523 275.272 66.4401 275.242 66.3498ZM273.887 65.9407C274.244 65.8273 274.545 65.9889 274.724 66.3728L273.442 66.7795C273.36 66.3544 273.51 66.0601 273.887 65.9407ZM278.33 64.0851C277.987 64.194 277.731 64.4222 277.672 64.7871L277.517 64.3957L277.064 64.5393L277.845 66.9141L278.355 66.7523L277.941 65.4937C277.761 64.9475 278.029 64.6422 278.344 64.5424C278.635 64.4502 278.905 64.5373 279.06 65.0075L279.513 66.3849L280.023 66.2231L279.517 64.6843C279.322 64.0906 278.835 63.9248 278.33 64.0851ZM281.048 63.2231C280.304 63.459 280.012 64.0603 280.267 64.8345C280.522 65.6086 281.117 65.9287 281.86 65.6929C282.604 65.457 282.895 64.8557 282.641 64.0815C282.386 63.3073 281.791 62.9872 281.048 63.2231ZM281.179 63.6221C281.608 63.486 281.954 63.7066 282.131 64.2433C282.307 64.78 282.158 65.1578 281.729 65.2939C281.3 65.43 280.958 65.2079 280.782 64.6712C280.605 64.1345 280.75 63.7581 281.179 63.6221ZM284.119 62.2487C283.752 62.3652 283.552 62.6068 283.525 62.9563L283.339 62.5487L282.905 62.6863L283.686 65.0611L284.196 64.8993L283.782 63.6407C283.623 63.1562 283.862 62.8285 284.148 62.7377C284.277 62.6969 284.39 62.6874 284.469 62.7042L284.397 62.2131C284.319 62.201 284.214 62.2185 284.119 62.2487ZM287.737 61.1011C287.417 61.2024 287.119 61.4647 287.068 61.8376C286.819 61.56 286.45 61.5093 286.111 61.6167C285.802 61.7149 285.553 61.9512 285.485 62.3033L285.331 61.9166L284.878 62.0603L285.66 64.4351L286.17 64.2733L285.754 63.0099C285.579 62.4779 285.844 62.1631 286.13 62.0724C286.411 61.9832 286.672 62.0734 286.8 62.4629L287.28 63.921L287.79 63.7592L287.365 62.4673C287.213 62.0066 287.417 61.6642 287.75 61.5584C288.031 61.4691 288.293 61.5594 288.421 61.9488L288.9 63.4069L289.41 63.2452L288.904 61.7063C288.71 61.1016 288.194 60.9559 287.737 61.1011ZM292.133 62.0143C292.004 62.0551 291.938 62.0132 291.899 61.8945L291.546 60.8211C291.358 60.2511 290.859 60.1104 290.264 60.2994C289.744 60.4642 289.457 60.8229 289.466 61.2344L289.93 61.3179C289.932 60.9869 290.109 60.7891 290.404 60.6954C290.714 60.5971 290.951 60.7264 291.045 61.0113L291.086 61.1348L290.516 61.4361C289.928 61.7434 289.712 62.1109 289.832 62.4766C289.968 62.8898 290.366 62.9945 290.814 62.8523C291.167 62.7405 291.429 62.5155 291.502 62.2406C291.641 62.4852 291.848 62.5243 292.106 62.4426C292.225 62.4048 292.317 62.3493 292.382 62.2919L292.303 61.9393C292.255 61.9702 292.195 61.9946 292.133 62.0143ZM290.797 62.4329C290.573 62.5039 290.408 62.4513 290.35 62.2755C290.288 62.0855 290.414 61.9249 290.718 61.7603L291.203 61.4911L291.297 61.776C291.39 62.061 291.116 62.3316 290.797 62.4329ZM292.264 58.5369L291.754 58.6987L292.683 61.52C292.834 61.9807 293.098 62.1277 293.522 61.9931C293.661 61.9492 293.804 61.8724 293.891 61.7869L293.814 61.3603C293.706 61.4471 293.639 61.484 293.52 61.5218C293.329 61.5823 293.246 61.5197 293.169 61.2869L292.264 58.5369ZM295.517 58.3494C295.428 58.0787 295.543 57.9163 295.81 57.8316C295.925 57.7954 296.018 57.7919 296.105 57.8167L296.079 57.416C295.965 57.3735 295.784 57.3837 295.593 57.4441C295.064 57.612 294.852 57.989 295.009 58.4687L295.122 58.8106L294.674 58.9527L294.805 59.3517L295.253 59.2096L295.903 61.1854L296.413 61.0236L295.763 59.0478L296.521 58.8074L296.39 58.4084L295.618 58.6534L295.517 58.3494ZM297.831 57.8988C297.087 58.1347 296.796 58.736 297.05 59.5102C297.305 60.2844 297.9 60.6045 298.643 60.3686C299.387 60.1327 299.678 59.5314 299.424 58.7572C299.169 57.9831 298.574 57.663 297.831 57.8988ZM297.962 58.2978C298.391 58.1617 298.737 58.3823 298.914 58.919C299.09 59.4557 298.941 59.8336 298.512 59.9696C298.083 60.1057 297.742 59.8836 297.565 59.3469C297.388 58.8102 297.533 58.4339 297.962 58.2978ZM300.902 56.9245C300.535 57.0409 300.336 57.2825 300.308 57.6321L300.122 57.2245L299.688 57.362L300.469 59.7368L300.979 59.575L300.565 58.3164C300.406 57.832 300.645 57.5042 300.931 57.4135C301.06 57.3727 301.173 57.3631 301.252 57.38L301.18 56.8888C301.102 56.8767 300.997 56.8942 300.902 56.9245ZM302.634 56.3751C301.89 56.6109 301.599 57.2123 301.853 57.9864C302.108 58.7606 302.703 59.0807 303.456 58.8418C304.009 58.6664 304.276 58.2776 304.267 57.803L303.748 57.7945C303.783 58.1086 303.642 58.3368 303.314 58.4411C302.894 58.5742 302.546 58.3646 302.37 57.8279C302.193 57.2912 302.342 56.9134 302.767 56.7788C303.062 56.6851 303.295 56.7843 303.473 57.0531L303.887 56.7119C303.611 56.3693 303.21 56.1921 302.634 56.3751ZM306.798 56.3391C306.571 55.6505 306.024 55.2995 305.309 55.5263C304.566 55.7621 304.298 56.3559 304.553 57.1301C304.808 57.9042 305.402 58.2243 306.155 57.9855C306.68 57.8191 306.943 57.5153 306.999 57.1094L306.517 57.0683C306.509 57.3014 306.337 57.482 306.023 57.5817C305.636 57.7042 305.315 57.5596 305.121 57.1598L306.865 56.6064C306.854 56.5416 306.828 56.4294 306.798 56.3391ZM305.442 55.93C305.8 55.8166 306.1 55.9783 306.279 56.3621L304.997 56.7688C304.915 56.3437 305.066 56.0494 305.442 55.93ZM311.117 54.969C310.891 54.2803 310.343 53.9293 309.629 54.1561C308.885 54.3919 308.617 54.9857 308.872 55.7599C309.127 56.5341 309.721 56.8542 310.474 56.6153C310.999 56.449 311.262 56.1451 311.318 55.7392L310.836 55.6981C310.828 55.9312 310.656 56.1118 310.342 56.2116C309.956 56.334 309.634 56.1894 309.44 55.7896L311.184 55.2362C311.173 55.1715 311.147 55.0592 311.117 54.969ZM309.761 54.5598C310.119 54.4464 310.419 54.6081 310.598 54.9919L309.316 55.3986C309.234 54.9735 309.385 54.6792 309.761 54.5598ZM314.174 55.3891L312.905 54.4594L313.379 53.0189L312.792 53.2048L312.508 54.2444L311.653 53.5662L311.043 53.7597L312.284 54.667L311.777 56.1496L312.354 55.9667L312.679 54.8772L313.574 55.5796L314.174 55.3891ZM316.297 53.3256C316.071 52.6369 315.524 52.2859 314.809 52.5127C314.065 52.7486 313.797 53.3424 314.052 54.1165C314.307 54.8907 314.902 55.2108 315.655 54.9719C316.179 54.8056 316.442 54.5018 316.498 54.0959L316.016 54.0547C316.009 54.2879 315.836 54.4684 315.522 54.5682C315.136 54.6907 314.814 54.5461 314.62 54.1462L316.364 53.5929C316.353 53.5281 316.327 53.4158 316.297 53.3256ZM314.942 52.9164C315.299 52.8031 315.6 52.9647 315.778 53.3486L314.496 53.7553C314.414 53.3302 314.565 53.0359 314.942 52.9164ZM317.783 51.5692C317.416 51.6856 317.216 51.9272 317.189 52.2768L317.003 51.8692L316.569 52.0068L317.35 54.3816L317.86 54.2198L317.446 52.9611C317.287 52.4767 317.526 52.1489 317.812 52.0582C317.941 52.0174 318.054 52.0079 318.133 52.0247L318.061 51.5335C317.983 51.5215 317.878 51.539 317.783 51.5692ZM320.454 52.8146C320.381 52.9429 320.28 53.0377 320.118 53.0891C319.908 53.1556 319.736 53.095 319.659 52.8622L319.244 51.5989L320.078 51.3343L319.946 50.9353L319.112 51.1999L318.883 50.5017L318.42 50.806L318.602 51.3617L318.15 51.5053L318.281 51.9043L318.734 51.7606L319.177 53.1095C319.343 53.5972 319.719 53.6826 320.129 53.5526C320.386 53.471 320.585 53.3239 320.695 53.1473L320.454 52.8146ZM322.939 51.2186C322.712 50.53 322.165 50.179 321.45 50.4058C320.707 50.6416 320.439 51.2354 320.694 52.0096C320.948 52.7837 321.543 53.1038 322.296 52.865C322.82 52.6986 323.084 52.3948 323.14 51.9889L322.658 51.9478C322.65 52.1809 322.478 52.3615 322.163 52.4612C321.777 52.5837 321.456 52.4391 321.261 52.0393L323.006 51.4859C322.995 51.4211 322.969 51.3089 322.939 51.2186ZM321.583 50.8095C321.941 50.6961 322.241 50.8578 322.42 51.2416L321.138 51.6483C321.056 51.2232 321.207 50.9289 321.583 50.8095ZM324.556 48.2929L325.034 49.7463C324.805 49.5304 324.477 49.4456 324.124 49.5575C323.476 49.7631 323.218 50.3538 323.474 51.1328C323.729 51.9069 324.284 52.2344 324.932 52.0288C325.309 51.9093 325.535 51.6224 325.581 51.2983L325.75 51.7167L326.198 51.5746L325.066 48.1311L324.556 48.2929ZM324.912 51.584C324.502 51.714 324.153 51.4839 323.982 50.9662C323.812 50.4485 323.96 50.066 324.37 49.9359C324.77 49.8089 325.126 50.0265 325.288 50.5205L325.307 50.5774C325.471 51.0762 325.312 51.457 324.912 51.584ZM328.791 48.0771C328.047 48.313 327.755 48.9143 328.01 49.6885C328.265 50.4627 328.86 50.7828 329.603 50.5469C330.347 50.3111 330.638 49.7097 330.384 48.9356C330.129 48.1614 329.534 47.8413 328.791 48.0771ZM328.922 48.4761C329.351 48.34 329.697 48.5606 329.874 49.0973C330.05 49.634 329.901 50.0119 329.472 50.148C329.043 50.284 328.701 50.0619 328.525 49.5252C328.348 48.9885 328.493 48.6122 328.922 48.4761ZM331.914 47.0862C331.571 47.195 331.315 47.4233 331.256 47.7881L331.101 47.3967L330.648 47.5404L331.429 49.9151L331.939 49.7534L331.525 48.4947C331.345 47.9485 331.613 47.6432 331.928 47.5434C332.219 47.4512 332.489 47.5384 332.644 48.0086L333.097 49.386L333.607 49.2242L333.101 47.6853C332.906 47.0916 332.42 46.9259 331.914 47.0862ZM337.879 47.5017C337.751 47.5426 337.684 47.5007 337.645 47.3819L337.292 46.3085C337.105 45.7386 336.606 45.5979 336.01 45.7869C335.49 45.9517 335.203 46.3103 335.212 46.7218L335.677 46.8053C335.678 46.4744 335.855 46.2766 336.151 46.1828C336.46 46.0846 336.698 46.2138 336.792 46.4988L336.832 46.6223L336.263 46.9236C335.674 47.2309 335.458 47.5984 335.579 47.9641C335.715 48.3773 336.112 48.4819 336.56 48.3398C336.913 48.2279 337.176 48.0029 337.249 47.7281C337.387 47.9727 337.595 48.0117 337.852 47.9301C337.971 47.8923 338.063 47.8368 338.129 47.7793L338.049 47.4268C338.002 47.4577 337.941 47.4821 337.879 47.5017ZM336.543 47.9203C336.319 47.9914 336.155 47.9387 336.097 47.763C336.034 47.573 336.16 47.4124 336.464 47.2478L336.949 46.9785L337.043 47.2635C337.137 47.5485 336.863 47.819 336.543 47.9203ZM229.502 85.8696C229.149 85.9815 228.934 86.2387 228.877 86.5452L228.399 85.0919L227.889 85.2537L229.022 88.6971L229.47 88.555L229.35 88.1104C229.583 88.3563 229.938 88.4588 230.319 88.3379C230.968 88.1322 231.223 87.5478 230.968 86.7736C230.712 85.9947 230.15 85.664 229.502 85.8696ZM230.071 87.9657C229.67 88.0927 229.315 87.8751 229.151 87.3764L229.132 87.3194C228.969 86.8255 229.128 86.4446 229.529 86.3176C229.938 86.1876 230.286 86.4129 230.457 86.9306C230.627 87.4483 230.481 87.8357 230.071 87.9657ZM231.382 84.1456L230.872 84.3073L231.8 87.1286C231.952 87.5893 232.216 87.7363 232.64 87.6017C232.778 87.5579 232.921 87.481 233.009 87.3955L232.932 86.9689C232.824 87.0557 232.757 87.0926 232.638 87.1304C232.447 87.1909 232.363 87.1283 232.287 86.8955L231.382 84.1456ZM233.755 84.5203C233.012 84.7562 232.72 85.3575 232.975 86.1317C233.23 86.9058 233.825 87.2259 234.568 86.9901C235.311 86.7542 235.603 86.1529 235.348 85.3787C235.094 84.6046 234.499 84.2845 233.755 84.5203ZM233.887 84.9193C234.316 84.7832 234.662 85.0038 234.838 85.5405C235.015 86.0772 234.866 86.455 234.437 86.5911C234.008 86.7272 233.666 86.5051 233.49 85.9684C233.313 85.4317 233.458 85.0554 233.887 84.9193ZM236.646 83.6034C235.902 83.8393 235.611 84.4406 235.865 85.2148C236.12 85.9889 236.715 86.309 237.468 86.0702C238.021 85.8948 238.287 85.5059 238.279 85.0314L237.76 85.0228C237.795 85.3369 237.654 85.5651 237.325 85.6695C236.906 85.8025 236.558 85.5929 236.382 85.0562C236.205 84.5195 236.354 84.1417 236.779 84.0071C237.074 83.9134 237.307 84.0127 237.485 84.2814L237.899 83.9403C237.623 83.5977 237.222 83.4205 236.646 83.6034ZM240.809 84.9576L241.4 84.7702L239.958 83.6332L240.562 82.4135L239.961 82.604L239.205 84.129L238.471 81.8967L237.961 82.0585L239.094 85.5019L239.604 85.3402L239.397 84.7132L239.708 84.0743L240.809 84.9576ZM243.58 81.4034C242.837 81.6393 242.545 82.2406 242.8 83.0148C243.055 83.789 243.65 84.1091 244.393 83.8732C245.137 83.6373 245.428 83.036 245.173 82.2618C244.919 81.4877 244.324 81.1676 243.58 81.4034ZM243.712 81.8024C244.141 81.6663 244.487 81.8869 244.664 82.4236C244.84 82.9603 244.691 83.3382 244.262 83.4742C243.833 83.6103 243.491 83.3882 243.315 82.8515C243.138 82.3148 243.283 81.9385 243.712 81.8024ZM245.982 80.3583C245.893 80.0876 246.008 79.9252 246.275 79.8405C246.389 79.8043 246.483 79.8008 246.57 79.8256L246.543 79.4249C246.429 79.3824 246.249 79.3926 246.058 79.453C245.529 79.6209 245.316 79.9978 245.474 80.4776L245.586 80.8195L245.138 80.9616L245.27 81.3606L245.718 81.2185L246.368 83.1943L246.878 83.0325L246.228 81.0567L246.985 80.8163L246.854 80.4173L246.082 80.6623L245.982 80.3583ZM251.563 78.8709C251.244 78.9722 250.946 79.2346 250.895 79.6075C250.646 79.3298 250.277 79.2792 249.938 79.3865C249.628 79.4848 249.38 79.721 249.311 80.0732L249.158 79.6865L248.705 79.8301L249.486 82.2049L249.996 82.0431L249.581 80.7798C249.406 80.2478 249.671 79.933 249.957 79.8423C250.238 79.7531 250.499 79.8433 250.627 80.2327L251.107 81.6909L251.617 81.5291L251.192 80.2372C251.04 79.7765 251.243 79.434 251.577 79.3282C251.858 79.239 252.119 79.3292 252.248 79.7187L252.727 81.1768L253.237 81.015L252.731 79.4762C252.537 78.8715 252.021 78.7258 251.563 78.8709ZM255.96 79.7841C255.831 79.8249 255.765 79.7831 255.726 79.6643L255.373 78.5909C255.185 78.021 254.686 77.8803 254.09 78.0693C253.571 78.2341 253.284 78.5927 253.293 79.0042L253.757 79.0877C253.759 78.7567 253.936 78.559 254.231 78.4652C254.541 78.3669 254.778 78.4962 254.872 78.7812L254.913 78.9047L254.343 79.206C253.755 79.5133 253.539 79.8807 253.659 80.2465C253.795 80.6597 254.193 80.7643 254.641 80.6222C254.993 80.5103 255.256 80.2853 255.329 80.0105C255.467 80.2551 255.675 80.2941 255.932 80.2125C256.052 80.1747 256.144 80.1192 256.209 80.0617L256.13 79.7092C256.082 79.7401 256.022 79.7645 255.96 79.7841ZM254.624 80.2027C254.4 80.2738 254.235 80.2211 254.177 80.0454C254.115 79.8554 254.241 79.6948 254.545 79.5302L255.03 79.2609L255.124 79.5459C255.217 79.8309 254.943 80.1014 254.624 80.2027ZM257.607 79.6813C258.264 79.4727 258.547 79.0525 258.41 78.6345C258.28 78.2403 257.97 78.1132 257.248 78.2059C256.773 78.2673 256.605 78.2209 256.549 78.0499C256.5 77.9027 256.654 77.6967 256.949 77.6029C257.259 77.5047 257.503 77.5584 257.716 77.8056L257.991 77.4247C257.699 77.1134 257.342 77.0377 256.813 77.2055C256.175 77.4081 255.928 77.8745 256.055 78.2592C256.186 78.6581 256.501 78.7838 257.255 78.6915C257.696 78.6407 257.862 78.6823 257.911 78.8295C257.964 78.991 257.833 79.169 257.494 79.2763C257.161 79.3821 256.844 79.3621 256.626 79.1164L256.38 79.5198C256.694 79.803 257.144 79.828 257.607 79.6813ZM260.129 78.881C260.787 78.6724 261.07 78.2522 260.932 77.8343C260.803 77.44 260.492 77.3129 259.77 77.4056C259.296 77.467 259.128 77.4206 259.071 77.2496C259.023 77.1024 259.176 76.8964 259.472 76.8027C259.782 76.7044 260.026 76.7581 260.239 77.0053L260.513 76.6244C260.221 76.3131 259.865 76.2374 259.336 76.4052C258.697 76.6078 258.451 77.0742 258.577 77.4589C258.708 77.8579 259.023 77.9835 259.777 77.8912C260.219 77.8404 260.385 77.882 260.433 78.0293C260.486 78.1908 260.355 78.3687 260.017 78.476C259.683 78.5819 259.366 78.5618 259.149 78.3162L258.902 78.7195C259.217 79.0027 259.667 79.0277 260.129 78.881ZM265.581 73.6373L264.837 73.8732L264.805 75.8871L264.826 76.7038L264.817 76.7069L264.352 76.0307L263.121 74.4175L262.364 74.6579L263.395 77.7926L263.867 77.6429L263.27 75.8286L262.947 74.9763L262.952 74.9747L264.791 77.3496L265.216 77.215L265.292 74.2324L265.297 74.2309L265.548 75.1059L266.145 76.9202L266.612 76.772L265.581 73.6373ZM269.505 73.1791C269.153 73.291 268.937 73.5481 268.88 73.8547L268.402 72.4014L267.892 72.5631L269.025 76.0066L269.473 75.8644L269.353 75.4199C269.586 75.6658 269.941 75.7683 270.323 75.6473C270.971 75.4417 271.226 74.8572 270.971 74.0831C270.715 73.3041 270.153 72.9735 269.505 73.1791ZM270.074 75.2752C269.673 75.4022 269.318 75.1846 269.154 74.6859L269.135 74.6289C268.972 74.1349 269.131 73.7541 269.532 73.6271C269.941 73.497 270.289 73.7224 270.46 74.2401C270.63 74.7578 270.484 75.1451 270.074 75.2752ZM273.297 72.0286L272.768 72.1964L272.749 73.8023L272.748 74.3429L272.463 73.9403L271.448 72.6152L270.876 72.7967L272.212 74.3609L272.653 74.8712L272.633 75.1609C272.619 75.4697 272.507 75.5785 272.331 75.6344C272.183 75.6813 272.037 75.6857 271.884 75.5874L271.864 76.0238C272.051 76.1114 272.241 76.114 272.489 76.0354C272.918 75.8993 273.098 75.6322 273.127 75.0147L273.297 72.0286ZM277.918 72.818C277.79 72.8588 277.723 72.8169 277.684 72.6982L277.331 71.6248C277.144 71.0549 276.645 70.9142 276.049 71.1032C275.53 71.268 275.242 71.6266 275.251 72.0381L275.716 72.1216C275.717 71.7906 275.894 71.5928 276.19 71.4991C276.5 71.4008 276.737 71.5301 276.831 71.8151L276.871 71.9386L276.302 72.2398C275.714 72.5471 275.498 72.9146 275.618 73.2803C275.754 73.6935 276.151 73.7982 276.599 73.6561C276.952 73.5442 277.215 73.3192 277.288 73.0443C277.426 73.2889 277.634 73.328 277.891 73.2463C278.01 73.2085 278.102 73.153 278.168 73.0956L278.089 72.7431C278.041 72.7739 277.98 72.7983 277.918 72.818ZM276.582 73.2366C276.358 73.3076 276.194 73.255 276.136 73.0793C276.073 72.8893 276.2 72.7286 276.503 72.5641L276.988 72.2948L277.082 72.5798C277.176 72.8647 276.902 73.1353 276.582 73.2366ZM281.027 72.2516C281.684 72.0429 281.967 71.6227 281.83 71.2048C281.7 70.8106 281.39 70.6834 280.668 70.7762C280.193 70.8375 280.025 70.7911 279.969 70.6202C279.921 70.4729 280.074 70.2669 280.369 70.1732C280.679 70.0749 280.923 70.1286 281.136 70.3758L281.411 69.9949C281.119 69.6836 280.762 69.6079 280.233 69.7757C279.595 69.9783 279.348 70.4447 279.475 70.8294C279.606 71.2284 279.921 71.354 280.675 71.2617C281.116 71.2109 281.282 71.2526 281.331 71.3998C281.384 71.5613 281.253 71.7392 280.915 71.8465C280.581 71.9524 280.264 71.9323 280.046 71.6867L279.8 72.09C280.114 72.3732 280.564 72.3982 281.027 72.2516ZM283.539 68.7796L283.961 70.0619C284.126 70.5654 283.893 70.8806 283.531 70.9955C283.231 71.0908 282.996 71.0183 282.851 70.5766L282.381 69.147L281.871 69.3087L282.385 70.8713C282.588 71.4888 283.049 71.61 283.526 71.4589C283.912 71.3364 284.163 71.1097 284.227 70.759L284.377 71.1362L284.83 70.9925L284.049 68.6178L283.539 68.7796ZM286.055 67.929C285.688 68.0454 285.488 68.287 285.461 68.6366L285.274 68.229L284.841 68.3666L285.622 70.7414L286.132 70.5796L285.718 69.3209C285.558 68.8365 285.798 68.5087 286.084 68.418C286.213 68.3772 286.325 68.3677 286.404 68.3845L286.332 67.8933C286.255 67.8813 286.15 67.8988 286.055 67.929ZM287.405 67.2174C287.316 66.9467 287.431 66.7844 287.697 66.6997C287.812 66.6634 287.905 66.6599 287.993 66.6847L287.966 66.284C287.852 66.2415 287.671 66.2517 287.481 66.3122C286.952 66.48 286.739 66.857 286.897 67.3367L287.009 67.6787L286.561 67.8208L286.692 68.2197L287.14 68.0776L287.79 70.0534L288.3 69.8917L287.65 67.9158L288.408 67.6754L288.277 67.2765L287.505 67.5214L287.405 67.2174ZM291.346 68.5583C291.217 68.5991 291.151 68.5572 291.112 68.4385L290.759 67.3651C290.571 66.7952 290.072 66.6545 289.476 66.8434C288.957 67.0082 288.67 67.3669 288.679 67.7784L289.143 67.8619C289.145 67.5309 289.322 67.3331 289.617 67.2394C289.927 67.1411 290.164 67.2704 290.258 67.5554L290.299 67.6789L289.729 67.9801C289.141 68.2874 288.925 68.6549 289.045 69.0206C289.181 69.4338 289.579 69.5385 290.027 69.3964C290.38 69.2845 290.642 69.0595 290.715 68.7846C290.853 69.0292 291.061 69.0683 291.318 68.9866C291.438 68.9488 291.53 68.8933 291.595 68.8359L291.516 68.4833C291.468 68.5142 291.408 68.5386 291.346 68.5583ZM290.01 68.9769C289.786 69.0479 289.621 68.9953 289.563 68.8196C289.501 68.6296 289.627 68.4689 289.931 68.3044L290.416 68.0351L290.51 68.32C290.603 68.605 290.329 68.8756 290.01 68.9769ZM292.361 65.9282C291.618 66.1641 291.326 66.7654 291.581 67.5396C291.836 68.3137 292.43 68.6338 293.184 68.395C293.736 68.2196 294.003 67.8307 293.994 67.3562L293.476 67.3476C293.511 67.6617 293.37 67.8899 293.041 67.9943C292.622 68.1273 292.274 67.9177 292.097 67.381C291.921 66.8443 292.07 66.4665 292.494 66.3319C292.79 66.2382 293.022 66.3375 293.2 66.6062L293.614 66.2651C293.339 65.9225 292.938 65.7453 292.361 65.9282ZM296.526 65.8923C296.299 65.2036 295.752 64.8526 295.037 65.0794C294.294 65.3153 294.026 65.909 294.28 66.6832C294.535 67.4574 295.13 67.7775 295.883 67.5386C296.407 67.3723 296.67 67.0685 296.726 66.6626L296.244 66.6214C296.237 66.8546 296.065 67.0351 295.75 67.1349C295.364 67.2573 295.043 67.1127 294.848 66.7129L296.592 66.1595C296.582 66.0948 296.555 65.9825 296.526 65.8923ZM295.17 65.4831C295.527 65.3697 295.828 65.5314 296.007 65.9152L294.725 66.3219C294.643 65.8968 294.793 65.6026 295.17 65.4831ZM301.309 63.142L301.394 65.208L300.175 63.5019L299.67 63.6622L299.698 65.7462L298.536 64.022L297.983 64.1974L299.56 66.3197L300.118 66.1428L300.099 64.166L301.29 65.7708L301.848 65.5939L301.862 62.9667L301.309 63.142ZM303.658 62.3445C303.324 62.4503 303.087 62.6725 303.027 63.0169L302.55 61.5683L302.04 61.73L303.173 65.1735L303.683 65.0117L303.27 63.7578C303.091 63.2116 303.357 62.9015 303.672 62.8018C303.962 62.7095 304.233 62.7967 304.388 63.2669L304.841 64.6443L305.351 64.4825L304.845 62.9437C304.649 62.35 304.163 62.1842 303.658 62.3445ZM305.469 61.382C305.688 61.3124 305.768 61.1559 305.702 60.9564C305.637 60.7569 305.48 60.6807 305.261 60.7503C305.041 60.8198 304.955 60.9731 305.021 61.1726C305.086 61.3721 305.249 61.4515 305.469 61.382ZM305.852 61.7008L305.342 61.8626L306.124 64.2374L306.634 64.0756L305.852 61.7008ZM307.683 61.0676C306.94 61.3034 306.648 61.9048 306.903 62.6789C307.157 63.4531 307.752 63.7732 308.505 63.5343C309.058 63.3589 309.325 62.9701 309.316 62.4955L308.797 62.487C308.832 62.8011 308.692 63.0293 308.363 63.1336C307.943 63.2667 307.596 63.0571 307.419 62.5204C307.242 61.9837 307.392 61.6058 307.816 61.4713C308.111 61.3775 308.344 61.4768 308.522 61.7456L308.936 61.4044C308.66 61.0618 308.26 60.8846 307.683 61.0676ZM310.616 60.1371C310.282 60.243 310.045 60.4651 309.985 60.8095L309.508 59.3609L308.998 59.5227L310.131 62.9661L310.641 62.8043L310.228 61.5504C310.049 61.0042 310.315 60.6942 310.63 60.5944C310.92 60.5022 311.191 60.5893 311.346 61.0596L311.799 62.4369L312.309 62.2751L311.803 60.7363C311.607 60.1426 311.121 59.9769 310.616 60.1371ZM313.976 58.6829C314.196 58.6134 314.276 58.4569 314.21 58.2574C314.144 58.0579 313.988 57.9817 313.769 58.0513C313.549 58.1208 313.463 58.2741 313.529 58.4736C313.594 58.6731 313.757 58.7525 313.976 58.6829ZM314.36 59.0018L313.85 59.1635L314.632 61.5383L315.142 61.3765L314.36 59.0018ZM316.818 60.8973C317.475 60.6886 317.758 60.2684 317.621 59.8505C317.491 59.4563 317.181 59.3291 316.459 59.4219C315.984 59.4832 315.816 59.4368 315.76 59.2659C315.711 59.1186 315.865 58.9126 316.16 58.8189C316.47 58.7206 316.714 58.7743 316.927 59.0215L317.202 58.6406C316.91 58.3294 316.553 58.2536 316.024 58.4214C315.386 58.624 315.139 59.0904 315.266 59.4751C315.397 59.8741 315.712 59.9997 316.466 59.9074C316.907 59.8566 317.073 59.8983 317.122 60.0455C317.175 60.207 317.044 60.3849 316.706 60.4923C316.372 60.5981 316.055 60.5781 315.837 60.3324L315.591 60.7357C315.905 61.0189 316.355 61.0439 316.818 60.8973ZM319.357 56.9761C319.576 56.9066 319.656 56.75 319.59 56.5505C319.525 56.3511 319.368 56.2749 319.149 56.3444C318.93 56.414 318.843 56.5673 318.909 56.7667C318.975 56.9662 319.137 57.0457 319.357 56.9761ZM319.741 57.2949L319.231 57.4567L320.012 59.8315L320.522 59.6697L319.741 57.2949ZM321.805 56.5876C321.462 56.6965 321.205 56.9247 321.146 57.2896L320.991 56.8982L320.538 57.0418L321.32 59.4166L321.83 59.2548L321.416 57.9962C321.236 57.45 321.504 57.1447 321.818 57.0449C322.109 56.9527 322.38 57.0398 322.535 57.51L322.988 58.8874L323.498 58.7256L322.991 57.1868C322.796 56.5931 322.31 56.4273 321.805 56.5876ZM324.522 55.7256C323.779 55.9615 323.487 56.5628 323.742 57.3369C323.996 58.1111 324.591 58.4312 325.344 58.1923C325.897 58.017 326.164 57.6281 326.155 57.1535L325.636 57.145C325.671 57.4591 325.531 57.6873 325.202 57.7916C324.782 57.9247 324.435 57.7151 324.258 57.1784C324.081 56.6417 324.231 56.2639 324.655 56.1293C324.95 56.0356 325.183 56.1348 325.361 56.4036L325.775 56.0624C325.499 55.7198 325.099 55.5426 324.522 55.7256ZM326.333 54.0235L325.823 54.1852L326.751 57.0065C326.903 57.4672 327.167 57.6142 327.591 57.4796C327.729 57.4358 327.872 57.3589 327.96 57.2734L327.883 56.8468C327.774 56.9336 327.708 56.9705 327.588 57.0083C327.398 57.0688 327.314 57.0062 327.237 56.7734L326.333 54.0235ZM327.799 54.2977C328.019 54.2282 328.099 54.0716 328.033 53.8722C327.968 53.6727 327.811 53.5965 327.592 53.666C327.372 53.7356 327.286 53.8889 327.352 54.0884C327.417 54.2879 327.58 54.3673 327.799 54.2977ZM328.183 54.6166L327.673 54.7783L328.455 57.1531L328.965 56.9913L328.183 54.6166ZM330.248 53.9092C329.904 54.0181 329.648 54.2463 329.589 54.6112L329.434 54.2198L328.981 54.3634L329.763 56.7382L330.272 56.5764L329.858 55.3178C329.679 54.7716 329.947 54.4663 330.261 54.3665C330.552 54.2743 330.823 54.3615 330.977 54.8317L331.431 56.209L331.941 56.0473L331.434 54.5084C331.239 53.9147 330.753 53.749 330.248 53.9092ZM334.43 53.8677C334.203 53.179 333.656 52.828 332.941 53.0548C332.198 53.2906 331.93 53.8844 332.184 54.6586C332.439 55.4328 333.034 55.7528 333.787 55.514C334.311 55.3477 334.574 55.0438 334.63 54.6379L334.148 54.5968C334.141 54.8299 333.969 55.0105 333.654 55.1103C333.268 55.2327 332.947 55.0881 332.752 54.6883L334.496 54.1349C334.486 54.0702 334.459 53.9579 334.43 53.8677ZM333.074 53.4585C333.431 53.3451 333.732 53.5068 333.911 53.8906L332.629 54.2973C332.547 53.8722 332.697 53.5779 333.074 53.4585ZM336.046 50.9419L336.524 52.3953C336.296 52.1794 335.968 52.0946 335.615 52.2065C334.967 52.4121 334.709 53.0029 334.965 53.7818C335.219 54.556 335.775 54.8834 336.423 54.6778C336.799 54.5583 337.026 54.2714 337.072 53.9473L337.241 54.3657L337.689 54.2236L336.556 50.7801L336.046 50.9419ZM336.403 54.233C335.993 54.3631 335.644 54.133 335.473 53.6153C335.303 53.0976 335.451 52.715 335.861 52.5849C336.261 52.4579 336.617 52.6755 336.779 53.1695L336.798 53.2265C336.962 53.7252 336.803 54.106 336.403 54.233ZM341.979 52.4954C341.851 52.5363 341.784 52.4944 341.745 52.3756L341.392 51.3022C341.204 50.7323 340.705 50.5916 340.11 50.7806C339.59 50.9454 339.303 51.304 339.312 51.7155L339.776 51.799C339.778 51.4681 339.955 51.2703 340.251 51.1765C340.56 51.0783 340.798 51.2075 340.891 51.4925L340.932 51.616L340.363 51.9173C339.774 52.2246 339.558 52.5921 339.679 52.9578C339.815 53.371 340.212 53.4756 340.66 53.3335C341.013 53.2216 341.276 52.9966 341.348 52.7218C341.487 52.9664 341.694 53.0054 341.952 52.9238C342.071 52.886 342.163 52.8305 342.228 52.773L342.149 52.4205C342.102 52.4514 342.041 52.4758 341.979 52.4954ZM340.643 52.914C340.419 52.9851 340.255 52.9324 340.197 52.7567C340.134 52.5667 340.26 52.4061 340.564 52.2415L341.049 51.9722L341.143 52.2572C341.237 52.5422 340.963 52.8127 340.643 52.914ZM343.906 51.669C343.833 51.7973 343.732 51.8921 343.57 51.9435C343.361 52.01 343.188 51.9494 343.111 51.7166L342.696 50.4533L343.53 50.1887L343.399 49.7897L342.564 50.0543L342.335 49.3561L341.872 49.6604L342.055 50.2161L341.602 50.3597L341.733 50.7587L342.186 50.615L342.63 51.9639C342.795 52.4516 343.171 52.5371 343.581 52.407C343.838 52.3254 344.037 52.1783 344.147 52.0017L343.906 51.669ZM234.396 92.9192C234.268 92.9601 234.201 92.9182 234.162 92.7995L233.809 91.7261C233.622 91.1561 233.123 91.0154 232.527 91.2044C232.007 91.3692 231.72 91.7279 231.729 92.1394L232.193 92.2228C232.195 91.8919 232.372 91.6941 232.668 91.6003C232.977 91.5021 233.215 91.6314 233.308 91.9163L233.349 92.0398L232.78 92.3411C232.191 92.6484 231.975 93.0159 232.096 93.3816C232.232 93.7948 232.629 93.8995 233.077 93.7573C233.43 93.6454 233.693 93.4204 233.766 93.1456C233.904 93.3902 234.111 93.4292 234.369 93.3476C234.488 93.3098 234.58 93.2543 234.646 93.1969L234.566 92.8443C234.519 92.8752 234.458 92.8996 234.396 92.9192ZM233.06 93.3378C232.836 93.4089 232.672 93.3562 232.614 93.1805C232.551 92.9905 232.677 92.8299 232.981 92.6653L233.466 92.396L233.56 92.681C233.654 92.966 233.38 93.2365 233.06 93.3378ZM235.65 90.2136C235.307 90.3225 235.05 90.5507 234.991 90.9156L234.836 90.5242L234.384 90.6678L235.165 93.0426L235.675 92.8808L235.261 91.6222C235.081 91.076 235.349 90.7707 235.664 90.6709C235.954 90.5787 236.225 90.6658 236.38 91.136L236.833 92.5134L237.343 92.3516L236.837 90.8128C236.641 90.2191 236.155 90.0533 235.65 90.2136ZM241.615 90.6292C241.486 90.67 241.42 90.6281 241.381 90.5094L241.028 89.436C240.84 88.8661 240.341 88.7254 239.746 88.9144C239.226 89.0792 238.939 89.4378 238.948 89.8493L239.412 89.9328C239.414 89.6018 239.591 89.404 239.886 89.3103C240.196 89.212 240.433 89.3413 240.527 89.6263L240.568 89.7498L239.998 90.051C239.41 90.3583 239.194 90.7258 239.314 91.0915C239.45 91.5047 239.848 91.6094 240.296 91.4673C240.649 91.3554 240.911 91.1304 240.984 90.8555C241.123 91.1001 241.33 91.1392 241.588 91.0575C241.707 91.0197 241.799 90.9642 241.864 90.9068L241.785 90.5543C241.737 90.5851 241.677 90.6095 241.615 90.6292ZM240.279 91.0478C240.055 91.1188 239.89 91.0662 239.832 90.8905C239.77 90.7005 239.896 90.5398 240.2 90.3753L240.685 90.106L240.779 90.391C240.872 90.6759 240.598 90.9465 240.279 91.0478ZM242.869 87.9236C242.526 88.0324 242.269 88.2607 242.21 88.6255L242.055 88.2341L241.602 88.3778L242.384 90.7525L242.894 90.5908L242.479 89.3321C242.3 88.7859 242.568 88.4806 242.882 88.3808C243.173 88.2886 243.444 88.3758 243.599 88.846L244.052 90.2234L244.562 90.0616L244.055 88.5227C243.86 87.929 243.374 87.7633 242.869 87.9236ZM246.599 89.006L245.803 89.2585C245.622 89.316 245.481 89.2715 245.433 89.1243C245.388 88.9865 245.426 88.8799 245.576 88.7905C245.704 88.7812 245.838 88.7546 245.985 88.7077C246.61 88.5097 246.915 88.0614 246.756 87.577C246.67 87.3157 246.48 87.1398 246.224 87.0638C246.242 86.8797 246.393 86.732 246.706 86.6432L246.491 86.2762C246.097 86.3907 245.938 86.6612 245.964 87.0257C245.81 87.022 245.638 87.0449 245.457 87.1024C244.838 87.2989 244.528 87.7487 244.687 88.2331C244.781 88.5181 244.985 88.7053 245.268 88.7674C245.069 88.9145 244.971 89.1133 245.053 89.3603C245.125 89.5788 245.321 89.6791 245.535 89.7057C245.287 89.8631 245.19 90.0824 245.261 90.2962C245.376 90.6476 245.809 90.7938 246.595 90.5443C247.286 90.325 247.724 89.866 247.562 89.372C247.437 88.9921 247.081 88.8533 246.599 89.006ZM245.574 87.4586C245.87 87.3648 246.149 87.4758 246.236 87.7418C246.325 88.0125 246.165 88.2625 245.87 88.3562C245.579 88.4485 245.3 88.3375 245.211 88.0668C245.124 87.8008 245.284 87.5508 245.574 87.4586ZM246.518 90.1492C246.012 90.3095 245.727 90.2583 245.658 90.0494C245.607 89.8926 245.714 89.7538 246.004 89.6616L246.648 89.4574C246.962 89.3577 247.092 89.4161 247.142 89.5681C247.203 89.7534 247.004 89.995 246.518 90.1492ZM247.336 85.3786L246.826 85.5404L247.754 88.3616C247.906 88.8223 248.17 88.9693 248.594 88.8347C248.732 88.7909 248.876 88.714 248.963 88.6285L248.886 88.2019C248.778 88.2887 248.711 88.3256 248.592 88.3634C248.401 88.4239 248.317 88.3613 248.241 88.1286L247.336 85.3786ZM251.174 86.5738C250.948 85.8851 250.401 85.5341 249.686 85.7609C248.942 85.9968 248.674 86.5905 248.929 87.3647C249.184 88.1389 249.779 88.459 250.532 88.2201C251.056 88.0538 251.319 87.75 251.375 87.3441L250.893 87.3029C250.886 87.5361 250.713 87.7166 250.399 87.8164C250.013 87.9389 249.692 87.7943 249.497 87.3944L251.241 86.8411C251.23 86.7763 251.204 86.664 251.174 86.5738ZM249.819 86.1646C250.176 86.0512 250.477 86.2129 250.656 86.5968L249.373 87.0035C249.292 86.5784 249.442 86.2841 249.819 86.1646ZM254.894 86.8363C255.69 86.5838 255.925 85.8903 255.578 84.8359C255.231 83.7815 254.627 83.3541 253.831 83.6066C253.035 83.8591 252.805 84.5511 253.152 85.6055C253.499 86.6599 254.098 87.0888 254.894 86.8363ZM254.751 86.4041C254.294 86.5492 253.931 86.2291 253.671 85.4407C253.412 84.6523 253.516 84.184 253.973 84.0388C254.431 83.8937 254.799 84.2123 255.058 85.0007C255.318 85.7891 255.209 86.259 254.751 86.4041ZM260.269 84.7114C260.14 84.7522 260.074 84.7103 260.035 84.5916L259.682 83.5182C259.494 82.9482 258.995 82.8075 258.4 82.9965C257.88 83.1613 257.593 83.52 257.602 83.9315L258.066 84.015C258.068 83.684 258.245 83.4862 258.54 83.3925C258.85 83.2942 259.088 83.4235 259.181 83.7085L259.222 83.832L258.653 84.1332C258.064 84.4405 257.848 84.808 257.969 85.1737C258.104 85.5869 258.502 85.6916 258.95 85.5495C259.303 85.4376 259.566 85.2126 259.638 84.9377C259.777 85.1823 259.984 85.2214 260.242 85.1397C260.361 85.1019 260.453 85.0464 260.518 84.989L260.439 84.6364C260.392 84.6673 260.331 84.6917 260.269 84.7114ZM258.933 85.13C258.709 85.201 258.544 85.1484 258.487 84.9726C258.424 84.7827 258.55 84.622 258.854 84.4575L259.339 84.1882L259.433 84.4731C259.527 84.7581 259.252 85.0287 258.933 85.13ZM261.518 82.0073C261.165 82.1191 260.95 82.3763 260.893 82.6829L260.415 81.2295L259.905 81.3913L261.038 84.8347L261.486 84.6926L261.366 84.2481C261.599 84.494 261.954 84.5965 262.335 84.4755C262.984 84.2699 263.239 83.6854 262.984 82.9112C262.728 82.1323 262.166 81.8016 261.518 82.0073ZM262.087 84.1033C261.686 84.2303 261.33 84.0128 261.166 83.5141L261.148 83.4571C260.985 82.9631 261.144 82.5822 261.544 82.4552C261.954 82.3252 262.302 82.5506 262.472 83.0683C262.643 83.586 262.496 83.9733 262.087 84.1033ZM264.287 81.129C263.543 81.3648 263.251 81.9661 263.506 82.7403C263.761 83.5145 264.356 83.8346 265.099 83.5987C265.843 83.3629 266.134 82.7616 265.88 81.9874C265.625 81.2132 265.03 80.8931 264.287 81.129ZM264.418 81.5279C264.847 81.3919 265.193 81.6125 265.37 82.1492C265.546 82.6859 265.397 83.0637 264.968 83.1998C264.539 83.3358 264.197 83.1137 264.021 82.577C263.844 82.0403 263.989 81.664 264.418 81.5279ZM267.698 80.0992L267.652 82.28L266.335 80.5316L265.773 80.71L267.507 82.7824L268.065 82.6055L268.232 79.9298L267.698 80.0992ZM271.15 80.2367C270.924 79.548 270.377 79.197 269.662 79.4238C268.918 79.6596 268.65 80.2534 268.905 81.0276C269.16 81.8018 269.755 82.1219 270.508 81.883C271.032 81.7167 271.295 81.4128 271.351 81.007L270.869 80.9658C270.862 81.199 270.689 81.3795 270.375 81.4793C269.989 81.6017 269.667 81.4571 269.473 81.0573L271.217 80.5039C271.206 80.4392 271.18 80.3269 271.15 80.2367ZM269.795 79.8275C270.152 79.7141 270.453 79.8758 270.631 80.2596L269.349 80.6663C269.267 80.2412 269.418 79.9469 269.795 79.8275ZM274.93 79.8453C274.857 79.9735 274.756 80.0683 274.594 80.1197C274.384 80.1863 274.212 80.1256 274.135 79.8929L273.72 78.6295L274.554 78.3649L274.422 77.966L273.588 78.2305L273.359 77.5324L272.896 77.8366L273.078 78.3923L272.626 78.536L272.757 78.9349L273.21 78.7913L273.653 80.1402C273.819 80.6278 274.195 80.7133 274.605 80.5833C274.862 80.5016 275.061 80.3546 275.171 80.1779L274.93 79.8453ZM276.202 77.3489C275.869 77.4547 275.631 77.6769 275.571 78.0213L275.094 76.5726L274.584 76.7344L275.717 80.1778L276.227 80.0161L275.815 78.7622C275.635 78.216 275.901 77.9059 276.216 77.8061C276.507 77.7139 276.777 77.8011 276.932 78.2713L277.385 79.6487L277.895 79.4869L277.389 77.948C277.194 77.3543 276.707 77.1886 276.202 77.3489ZM280.384 77.3073C280.158 76.6186 279.611 76.2676 278.896 76.4944C278.152 76.7303 277.884 77.324 278.139 78.0982C278.394 78.8724 278.989 79.1925 279.742 78.9536C280.266 78.7873 280.529 78.4835 280.585 78.0776L280.103 78.0364C280.096 78.2696 279.923 78.4501 279.609 78.5499C279.223 78.6723 278.901 78.5277 278.707 78.1279L280.451 77.5745C280.44 77.5098 280.414 77.3975 280.384 77.3073ZM279.028 76.8981C279.386 76.7847 279.687 76.9464 279.865 77.3302L278.583 77.7369C278.501 77.3118 278.652 77.0176 279.028 76.8981ZM283.472 75.0426C283.139 75.1484 282.901 75.3706 282.841 75.715L282.364 74.2663L281.854 74.4281L282.987 77.8715L283.497 77.7098L283.084 76.4559C282.905 75.9097 283.171 75.5996 283.486 75.4998C283.776 75.4076 284.047 75.4948 284.202 75.965L284.655 77.3424L285.165 77.1806L284.659 75.6417C284.463 75.048 283.977 74.8823 283.472 75.0426ZM286.189 74.1805C285.446 74.4164 285.154 75.0177 285.409 75.7919C285.664 76.5661 286.258 76.8862 287.002 76.6503C287.745 76.4145 288.037 75.8131 287.782 75.039C287.528 74.2648 286.933 73.9447 286.189 74.1805ZM286.321 74.5795C286.75 74.4434 287.096 74.664 287.272 75.2007C287.449 75.7374 287.3 76.1153 286.871 76.2514C286.442 76.3874 286.1 76.1653 285.924 75.6286C285.747 75.0919 285.892 74.7156 286.321 74.5795ZM289.261 73.2062C288.894 73.3226 288.694 73.5642 288.667 73.9138L288.48 73.5062L288.047 73.6438L288.828 76.0185L289.338 75.8568L288.924 74.5981C288.765 74.1137 289.004 73.7859 289.29 73.6952C289.419 73.6544 289.531 73.6449 289.611 73.6617L289.539 73.1705C289.461 73.1584 289.356 73.1759 289.261 73.2062ZM290.146 72.5371C290.366 72.4676 290.446 72.311 290.38 72.1116C290.314 71.9121 290.158 71.8359 289.938 71.9054C289.719 71.975 289.633 72.1283 289.698 72.3278C289.764 72.5272 289.927 72.6067 290.146 72.5371ZM290.53 72.8559L290.02 73.0177L290.801 75.3925L291.311 75.2307L290.53 72.8559ZM291.957 75.026L294.006 74.3759L293.875 73.9769L292.845 74.3035L292.396 74.4566L292.585 74.0714L293.298 72.3662L293.182 72.0147L291.185 72.6482L291.316 73.0472L292.341 72.7221L292.748 72.5826L292.559 72.9677L291.841 74.6745L291.957 75.026ZM294.846 71.4343C294.103 71.6701 293.811 72.2714 294.066 73.0456C294.321 73.8198 294.915 74.1399 295.659 73.904C296.402 73.6682 296.694 73.0668 296.439 72.2927C296.185 71.5185 295.59 71.1984 294.846 71.4343ZM294.978 71.8332C295.406 71.6971 295.753 71.9177 295.929 72.4544C296.106 72.9911 295.956 73.369 295.528 73.5051C295.099 73.6411 294.757 73.419 294.581 72.8823C294.404 72.3456 294.549 71.9693 294.978 71.8332ZM297.97 70.4433C297.627 70.5521 297.37 70.7804 297.312 71.1452L297.156 70.7538L296.704 70.8975L297.485 73.2722L297.995 73.1105L297.581 71.8518C297.401 71.3056 297.669 71.0003 297.984 70.9005C298.274 70.8083 298.545 70.8955 298.7 71.3657L299.153 72.7431L299.663 72.5813L299.157 71.0424C298.961 70.4487 298.475 70.283 297.97 70.4433ZM301.659 71.3657C301.586 71.494 301.485 71.5888 301.323 71.6402C301.114 71.7067 300.941 71.6461 300.864 71.4133L300.449 70.15L301.283 69.8854L301.152 69.4864L300.318 69.751L300.088 69.0528L299.625 69.3571L299.808 69.9128L299.355 70.0564L299.486 70.4554L299.939 70.3117L300.383 71.6606C300.548 72.1483 300.924 72.2337 301.334 72.1037C301.591 72.0221 301.79 71.875 301.9 71.6984L301.659 71.3657ZM304.391 70.7141C304.263 70.755 304.196 70.7131 304.157 70.5944L303.804 69.521C303.616 68.951 303.117 68.8103 302.522 68.9993C302.002 69.1641 301.715 69.5228 301.724 69.9343L302.188 70.0177C302.19 69.6868 302.367 69.489 302.662 69.3952C302.972 69.297 303.21 69.4263 303.303 69.7112L303.344 69.8347L302.775 70.136C302.186 70.4433 301.97 70.8108 302.091 71.1765C302.227 71.5897 302.624 71.6944 303.072 71.5522C303.425 71.4403 303.688 71.2153 303.76 70.9405C303.899 71.1851 304.106 71.2241 304.364 71.1425C304.483 71.1047 304.575 71.0492 304.64 70.9918L304.561 70.6392C304.514 70.6701 304.453 70.6945 304.391 70.7141ZM303.055 71.1327C302.831 71.2038 302.666 71.1511 302.609 70.9754C302.546 70.7854 302.672 70.6248 302.976 70.4602L303.461 70.1909L303.555 70.4759C303.649 70.7609 303.374 71.0314 303.055 71.1327ZM304.523 67.2368L304.013 67.3986L304.941 70.2198C305.092 70.6805 305.356 70.8275 305.781 70.693C305.919 70.6491 306.062 70.5723 306.15 70.4867L306.072 70.0601C305.964 70.1469 305.897 70.1839 305.778 70.2217C305.588 70.2821 305.504 70.2195 305.427 69.9868L304.523 67.2368ZM306.458 66.9114C305.781 67.1261 305.491 67.5904 305.554 68.1003L306.099 68.1738C306.014 67.7865 306.195 67.4879 306.571 67.3685C306.971 67.2415 307.22 67.3567 307.309 67.6275C307.417 67.9552 307.23 68.2033 306.631 68.4773L306.876 69.1915L307.362 69.0373L307.219 68.553C307.702 68.342 308.016 67.9538 307.829 67.3839C307.655 66.8567 307.101 66.7073 306.458 66.9114ZM307.24 69.4801C307.02 69.5496 306.921 69.728 306.988 69.9322C307.055 70.1364 307.244 70.2288 307.463 70.1593C307.677 70.0912 307.77 69.9097 307.703 69.7054C307.636 69.5012 307.454 69.4121 307.24 69.4801Z" fill="#565961"/>
<path d="M379.553 127.424C371.018 132.103 364.113 130.977 363.148 125.45C367.195 107.173 397.796 102.846 412.869 103.288L414.78 126.07C410.99 123.385 401.839 118.321 399.423 116.123C397.007 113.925 394.447 115.083 393.887 115.793C392.065 118.101 388.089 122.744 379.553 127.424Z" fill="#874723"/>
<path d="M376.418 122.409C367.196 127.089 358.593 124.834 358.266 120.927C362.759 102.861 396.239 98.0221 412.458 98.3492L414.343 120.817C410.283 118.195 401.519 112.413 398.935 110.261C396.351 108.11 394.487 108.982 393.879 109.687C391.901 111.978 385.64 117.729 376.418 122.409Z" fill="#A4582D"/>
<path d="M354.165 113.882C353.627 121.794 362.282 121.093 366.676 119.754L395.917 98.2113L432.754 107.525C430.688 100.807 411.02 81.2537 404.847 79.2944C399.908 77.727 378.797 87.1387 368.859 92.0405C364.185 96.0247 354.703 105.971 354.165 113.882Z" fill="#BF764C"/>
<path d="M385.771 111.376C381.268 105.446 375.117 108.265 371.772 110.175C371.903 111.738 373.989 116.716 375.493 118.725C378.054 123.927 378.334 122.992 386.569 144.749C394.805 166.506 414.52 171.501 423.348 171.278L444.942 213.788L455.588 206.811C471.559 194.069 471.767 171.526 470.061 169.565C465.796 164.661 457.599 154.88 456.937 153.809C455.778 151.936 442.382 117.614 441.434 112.282C440.676 108.016 433.14 102.954 429.467 100.957C421.977 89.2692 407.767 81.0756 402.133 79.5644C397.626 78.3555 384.252 83.3057 378.128 85.932C374.867 86.8514 366.734 90.9843 360.293 100.16C352.241 111.63 363.886 113.146 366.87 112.905C369.258 112.712 376.299 105.913 379.521 102.538C383.225 100.927 391.33 97.6492 394.115 97.4238L399.587 96.9812C402.372 102.329 408.564 114.449 411.045 120.149C414.147 127.275 410.464 129.664 403.998 130.187C397.531 130.711 391.401 118.788 385.771 111.376Z" fill="#CC865D"/>
<rect width="89.0361" height="14.2353" rx="2" transform="matrix(-0.625682 0.778169 -0.791472 -0.613628 419.463 72.6904)" fill="#FBCACA"/>
<rect width="81.0008" height="14.3435" transform="matrix(-0.625682 0.778169 -0.791472 -0.613628 414.526 79.0073)" fill="#8B939F"/>
<rect width="76.5441" height="14.3515" transform="matrix(-0.625682 0.778169 -0.791472 -0.613628 411.747 82.4824)" fill="#FEDF85"/>
<path d="M352.335 133.12L363.927 141.787L350.005 147.799L352.335 133.12Z" fill="#343440"/>
<path d="M352.342 133.123L363.934 141.79L353.834 146.281L350.522 143.805L352.342 133.123Z" fill="white"/>
<path d="M349.935 148.33L355.689 145.283L350.922 141.427L349.935 148.33Z" fill="#565961"/>
<path d="M385.756 111.218C381.252 105.289 375.101 108.107 371.756 110.017C371.887 111.58 373.974 116.558 375.478 118.567C378.039 123.769 378.319 122.835 386.554 144.592L403.982 130.03C397.516 130.553 391.385 118.631 385.756 111.218Z" fill="#CC865D"/>
<path d="M286.358 85.8387L286.037 85.9278L285.99 86.8905L285.977 87.2148L285.815 86.9671L285.237 86.1502L284.89 86.2465L285.655 87.2139L285.909 87.5296L285.89 87.7029C285.875 87.8878 285.805 87.9506 285.698 87.9803C285.609 88.0052 285.521 88.0046 285.431 87.9424L285.41 88.2037C285.52 88.2603 285.634 88.266 285.784 88.2242C286.044 88.152 286.158 87.9957 286.189 87.626L286.358 85.8387Z" fill="black"/>
<path d="M319.69 80.4262L318.95 79.8408L319.266 78.9872L318.91 79.0859L318.717 79.7032L318.219 79.2778L317.849 79.3806L318.573 79.9518L318.236 80.83L318.586 80.7328L318.805 80.0865L319.325 80.5273L319.69 80.4262Z" fill="black"/>
<path d="M294.615 129.551C295.414 129.306 295.656 128.615 295.32 127.557C294.984 126.499 294.384 126.066 293.586 126.31C292.787 126.555 292.55 127.245 292.886 128.303C293.222 129.36 293.817 129.795 294.615 129.551ZM294.478 129.117C294.019 129.258 293.659 128.934 293.407 128.143C293.156 127.352 293.265 126.885 293.724 126.744C294.183 126.603 294.547 126.926 294.799 127.717C295.05 128.508 294.937 128.976 294.478 129.117Z" fill="black"/>
<path d="M307.796 113.839L307.645 113.405L305.383 114.159L306.461 117.278L306.969 117.109L306.505 115.767L307.88 115.308L307.728 114.869L306.353 115.327L306.041 114.425L307.796 113.839Z" fill="black"/>
<path d="M309.629 116.926L309.437 116.37L310.262 116.095L310.174 115.84L309.349 116.115L309.162 115.576L310.218 115.224L310.128 114.963L308.768 115.417L309.415 117.288L310.815 116.821L310.725 116.56L309.629 116.926Z" fill="black"/>
<path d="M293.825 92.567L293.675 92.1322L291.412 92.8867L292.491 96.0055L292.998 95.8362L292.534 94.4942L293.91 94.0355L293.758 93.5961L292.382 94.0548L292.07 93.1522L293.825 92.567Z" fill="black"/>
<path d="M296.337 93.631L296.056 93.725L296.473 94.9328L296.595 95.2465L296.592 95.2475L296.286 94.9604L295.156 94.0248L294.798 94.1444L295.445 96.0157L295.724 95.9227L295.306 94.7149L295.185 94.4011L295.188 94.4002L295.49 94.6853L296.623 95.6228L296.985 95.5023L296.337 93.631Z" fill="black"/>
<path d="M316.843 80.8633L315.267 81.582L316.677 82.5874L316.843 80.8633ZM299.375 105.367L299.267 105.471L299.392 105.601L299.497 105.454L299.375 105.367ZM281.408 86.7442L281.826 88.425L283.073 87.2224L281.408 86.7442ZM281.646 87.2065C281.703 87.2661 281.798 87.2678 281.858 87.2103C281.917 87.1528 281.919 87.0578 281.862 86.9982L281.646 87.2065ZM282.553 87.7145C282.495 87.6548 282.4 87.6531 282.341 87.7107C282.281 87.7682 282.279 87.8631 282.337 87.9228L282.553 87.7145ZM283.028 88.639C283.085 88.6986 283.18 88.7004 283.24 88.6428C283.3 88.5853 283.301 88.4904 283.244 88.4307L283.028 88.639ZM283.935 89.147C283.877 89.0874 283.782 89.0857 283.723 89.1432C283.663 89.2007 283.661 89.2957 283.719 89.3553L283.935 89.147ZM284.41 90.0716C284.467 90.1312 284.562 90.1329 284.622 90.0754C284.682 90.0178 284.683 89.9229 284.626 89.8633L284.41 90.0716ZM285.317 90.5795C285.259 90.5199 285.164 90.5182 285.105 90.5757C285.045 90.6333 285.043 90.7282 285.101 90.7878L285.317 90.5795ZM285.792 91.5041C285.849 91.5637 285.944 91.5654 286.004 91.5079C286.064 91.4504 286.065 91.3554 286.008 91.2958L285.792 91.5041ZM286.699 92.0121C286.641 91.9524 286.546 91.9507 286.487 92.0083C286.427 92.0658 286.425 92.1607 286.483 92.2204L286.699 92.0121ZM287.174 92.9366C287.232 92.9963 287.327 92.998 287.386 92.9404C287.446 92.8829 287.447 92.788 287.39 92.7283L287.174 92.9366ZM288.081 93.4446C288.023 93.385 287.928 93.3833 287.869 93.4408C287.809 93.4983 287.808 93.5933 287.865 93.6529L288.081 93.4446ZM288.556 94.3692C288.614 94.4288 288.709 94.4305 288.768 94.373C288.828 94.3155 288.83 94.2205 288.772 94.1609L288.556 94.3692ZM289.463 94.8771C289.406 94.8175 289.311 94.8158 289.251 94.8733C289.191 94.9309 289.19 95.0258 289.247 95.0854L289.463 94.8771ZM289.938 95.8017C289.996 95.8613 290.091 95.863 290.15 95.8055C290.21 95.748 290.212 95.653 290.154 95.5934L289.938 95.8017ZM290.845 96.3097C290.788 96.2501 290.693 96.2484 290.633 96.3059C290.573 96.3634 290.572 96.4583 290.629 96.518L290.845 96.3097ZM291.32 97.2342C291.378 97.2939 291.473 97.2956 291.532 97.238C291.592 97.1805 291.594 97.0856 291.536 97.0259L291.32 97.2342ZM292.227 97.7422C292.17 97.6826 292.075 97.6809 292.015 97.7384C291.955 97.7959 291.954 97.8909 292.011 97.9505L292.227 97.7422ZM292.702 98.6668C292.76 98.7264 292.855 98.7281 292.914 98.6706C292.974 98.6131 292.976 98.5181 292.918 98.4585L292.702 98.6668ZM293.609 99.1747C293.552 99.1151 293.457 99.1134 293.397 99.1709C293.338 99.2285 293.336 99.3234 293.393 99.383L293.609 99.1747ZM294.084 100.099C294.142 100.159 294.237 100.161 294.296 100.103C294.356 100.046 294.358 99.9506 294.3 99.891L294.084 100.099ZM294.991 100.607C294.934 100.548 294.839 100.546 294.779 100.603C294.72 100.661 294.718 100.756 294.775 100.816L294.991 100.607ZM295.466 101.532C295.524 101.591 295.619 101.593 295.679 101.536C295.738 101.478 295.74 101.383 295.682 101.324L295.466 101.532ZM296.373 102.04C296.316 101.98 296.221 101.978 296.161 102.036C296.102 102.094 296.1 102.188 296.157 102.248L296.373 102.04ZM296.849 102.964C296.906 103.024 297.001 103.026 297.061 102.968C297.12 102.911 297.122 102.816 297.064 102.756L296.849 102.964ZM297.755 103.472C297.698 103.413 297.603 103.411 297.543 103.469C297.484 103.526 297.482 103.621 297.54 103.681L297.755 103.472ZM298.231 104.397C298.288 104.457 298.383 104.458 298.443 104.401C298.502 104.343 298.504 104.248 298.446 104.189L298.231 104.397ZM299.138 104.905C299.08 104.845 298.985 104.844 298.925 104.901C298.866 104.959 298.864 105.054 298.922 105.113L299.138 104.905ZM299.788 105.046C299.836 104.978 299.821 104.885 299.753 104.837C299.686 104.789 299.592 104.804 299.544 104.872L299.788 105.046ZM300.126 104.055C300.078 104.122 300.094 104.216 300.161 104.264C300.229 104.312 300.323 104.296 300.371 104.229L300.126 104.055ZM300.953 103.412C301.001 103.345 300.985 103.251 300.918 103.203C300.85 103.155 300.757 103.171 300.709 103.238L300.953 103.412ZM301.291 102.421C301.243 102.489 301.258 102.582 301.326 102.631C301.393 102.679 301.487 102.663 301.535 102.595L301.291 102.421ZM302.117 101.779C302.165 101.711 302.15 101.618 302.082 101.569C302.015 101.521 301.921 101.537 301.873 101.605L302.117 101.779ZM302.455 100.788C302.407 100.855 302.423 100.949 302.49 100.997C302.558 101.045 302.652 101.029 302.7 100.962L302.455 100.788ZM303.282 100.145C303.33 100.078 303.314 99.9839 303.247 99.9358C303.179 99.8878 303.086 99.9035 303.038 99.9709L303.282 100.145ZM303.62 99.1541C303.572 99.2216 303.588 99.3152 303.655 99.3633C303.722 99.4114 303.816 99.3957 303.864 99.3283L303.62 99.1541ZM304.446 98.5115C304.495 98.444 304.479 98.3503 304.411 98.3023C304.344 98.2542 304.25 98.2699 304.202 98.3373L304.446 98.5115ZM304.784 97.5205C304.736 97.588 304.752 97.6817 304.819 97.7297C304.887 97.7778 304.981 97.7621 305.029 97.6947L304.784 97.5205ZM305.611 96.8779C305.659 96.8104 305.643 96.7168 305.576 96.6687C305.508 96.6206 305.415 96.6363 305.367 96.7037L305.611 96.8779ZM305.949 95.8869C305.901 95.9544 305.917 96.0481 305.984 96.0962C306.051 96.1442 306.145 96.1285 306.193 96.0611L305.949 95.8869ZM306.775 95.2443C306.824 95.1768 306.808 95.0832 306.74 95.0351C306.673 94.987 306.579 95.0027 306.531 95.0701L306.775 95.2443ZM307.113 94.2533C307.065 94.3208 307.081 94.4145 307.149 94.4626C307.216 94.5106 307.31 94.4949 307.358 94.4275L307.113 94.2533ZM307.94 93.6107C307.988 93.5432 307.972 93.4496 307.905 93.4015C307.837 93.3534 307.744 93.3691 307.696 93.4366L307.94 93.6107ZM308.278 92.6198C308.23 92.6872 308.246 92.7809 308.313 92.829C308.381 92.8771 308.474 92.8614 308.522 92.7939L308.278 92.6198ZM309.105 91.9771C309.153 91.9096 309.137 91.816 309.069 91.7679C309.002 91.7198 308.908 91.7355 308.86 91.803L309.105 91.9771ZM309.443 90.9862C309.394 91.0536 309.41 91.1473 309.478 91.1954C309.545 91.2435 309.639 91.2278 309.687 91.1603L309.443 90.9862ZM310.269 90.3435C310.317 90.2761 310.301 90.1824 310.234 90.1343C310.167 90.0862 310.073 90.1019 310.025 90.1694L310.269 90.3435ZM310.607 89.3526C310.559 89.42 310.575 89.5137 310.642 89.5618C310.71 89.6099 310.803 89.5942 310.851 89.5267L310.607 89.3526ZM311.434 88.7099C311.482 88.6425 311.466 88.5488 311.398 88.5007C311.331 88.4526 311.237 88.4683 311.189 88.5358L311.434 88.7099ZM311.772 87.719C311.723 87.7864 311.739 87.8801 311.807 87.9282C311.874 87.9763 311.968 87.9606 312.016 87.8931L311.772 87.719ZM312.598 87.0763C312.646 87.0089 312.63 86.9152 312.563 86.8671C312.496 86.819 312.402 86.8347 312.354 86.9022L312.598 87.0763ZM312.936 86.0854C312.888 86.1528 312.904 86.2465 312.971 86.2946C313.039 86.3427 313.132 86.327 313.18 86.2595L312.936 86.0854ZM313.763 85.4427C313.811 85.3753 313.795 85.2816 313.728 85.2335C313.66 85.1854 313.566 85.2011 313.518 85.2686L313.763 85.4427ZM314.101 84.4518C314.052 84.5193 314.068 84.6129 314.136 84.661C314.203 84.7091 314.297 84.6934 314.345 84.6259L314.101 84.4518ZM314.927 83.8091C314.975 83.7417 314.96 83.648 314.892 83.5999C314.825 83.5518 314.731 83.5675 314.683 83.635L314.927 83.8091ZM315.265 82.8182C315.217 82.8857 315.233 82.9793 315.3 83.0274C315.368 83.0755 315.461 83.0598 315.509 82.9923L315.265 82.8182ZM316.092 82.1756C316.14 82.1081 316.124 82.0144 316.057 81.9663C315.989 81.9183 315.895 81.934 315.847 82.0014L316.092 82.1756ZM316.43 81.1846C316.382 81.2521 316.397 81.3457 316.465 81.3938C316.532 81.4419 316.626 81.4262 316.674 81.3588L316.43 81.1846ZM282.337 87.9228L283.028 88.639L283.244 88.4307L282.553 87.7145L282.337 87.9228ZM283.719 89.3553L284.41 90.0716L284.626 89.8633L283.935 89.147L283.719 89.3553ZM285.101 90.7878L285.792 91.5041L286.008 91.2958L285.317 90.5795L285.101 90.7878ZM286.483 92.2204L287.174 92.9366L287.39 92.7283L286.699 92.0121L286.483 92.2204ZM287.865 93.6529L288.556 94.3692L288.772 94.1609L288.081 93.4446L287.865 93.6529ZM289.247 95.0854L289.938 95.8017L290.154 95.5934L289.463 94.8771L289.247 95.0854ZM290.629 96.518L291.32 97.2342L291.536 97.0259L290.845 96.3097L290.629 96.518ZM292.011 97.9505L292.702 98.6668L292.918 98.4585L292.227 97.7422L292.011 97.9505ZM293.393 99.383L294.084 100.099L294.3 99.891L293.609 99.1747L293.393 99.383ZM294.775 100.816L295.466 101.532L295.682 101.324L294.991 100.607L294.775 100.816ZM296.157 102.248L296.849 102.964L297.064 102.756L296.373 102.04L296.157 102.248ZM297.54 103.681L298.231 104.397L298.446 104.189L297.755 103.472L297.54 103.681ZM298.922 105.113L299.267 105.471L299.483 105.263L299.138 104.905L298.922 105.113ZM299.497 105.454L299.788 105.046L299.544 104.872L299.253 105.28L299.497 105.454ZM300.371 104.229L300.953 103.412L300.709 103.238L300.126 104.055L300.371 104.229ZM301.535 102.595L302.117 101.779L301.873 101.605L301.291 102.421L301.535 102.595ZM302.7 100.962L303.282 100.145L303.038 99.9709L302.455 100.788L302.7 100.962ZM303.864 99.3283L304.446 98.5115L304.202 98.3373L303.62 99.1541L303.864 99.3283ZM305.029 97.6947L305.611 96.8779L305.367 96.7037L304.784 97.5205L305.029 97.6947ZM306.193 96.0611L306.775 95.2443L306.531 95.0701L305.949 95.8869L306.193 96.0611ZM307.358 94.4275L307.94 93.6107L307.696 93.4366L307.113 94.2533L307.358 94.4275ZM308.522 92.7939L309.105 91.9771L308.86 91.803L308.278 92.6198L308.522 92.7939ZM309.687 91.1603L310.269 90.3435L310.025 90.1694L309.443 90.9862L309.687 91.1603ZM310.851 89.5267L311.434 88.7099L311.189 88.5358L310.607 89.3526L310.851 89.5267ZM312.016 87.8931L312.598 87.0763L312.354 86.9022L311.772 87.719L312.016 87.8931ZM313.18 86.2595L313.763 85.4427L313.518 85.2686L312.936 86.0854L313.18 86.2595ZM314.345 84.6259L314.927 83.8091L314.683 83.635L314.101 84.4518L314.345 84.6259ZM315.509 82.9923L316.092 82.1756L315.847 82.0014L315.265 82.8182L315.509 82.9923Z" fill="black"/>
<path d="M320.336 82.8232L282.905 135.752L347.287 115.168" stroke="black"/>
<path d="M297.379 114.679L290.891 106.837L299.375 94.5854L305.863 103.407" stroke="black"/>
<path d="M284.901 90.1743L285.581 92.98L287.671 90.9888L284.901 90.1743ZM299.375 105.367L299.615 105.297L299.598 105.238L299.556 105.194L299.375 105.367ZM304.365 122.519L305.053 119.716L302.281 120.522L304.365 122.519ZM286.272 91.9758L299.194 105.539L299.556 105.194L286.634 91.631L286.272 91.9758ZM299.135 105.437L303.497 120.429L303.977 120.289L299.615 105.297L299.135 105.437Z" fill="black"/>
<path d="M277.073 162.095C277.998 162.687 279.054 163.474 279.677 164.398C279.952 164.805 280.442 165.011 280.739 165.338C281.076 165.71 281.903 166.124 282.343 166.44" stroke="#494949" stroke-width="0.6" stroke-linecap="round"/>
<path d="M280.661 161.692C280.275 163.935 279.623 166.018 279.243 168.225" stroke="#494949" stroke-width="0.6" stroke-linecap="round"/>
<path d="M283.854 163.009C284.29 162.805 284.802 162.481 285.299 162.483" stroke="#494949" stroke-width="0.6" stroke-linecap="round"/>
<path d="M284.584 165.021C284.891 164.814 285.193 164.563 285.579 164.628" stroke="#494949" stroke-width="0.6" stroke-linecap="round"/>
<path d="M288.149 161.282C288.516 161.113 288.972 160.849 289.374 160.788" stroke="#494949" stroke-width="0.6" stroke-linecap="round"/>
<path d="M293.602 163.531C293.874 161.807 293.553 160.107 293.026 158.453C292.943 158.191 292.866 157.927 292.798 157.66C292.733 157.402 292.836 157.616 292.965 157.747C294.3 159.095 295.779 160.29 297.089 161.657C297.167 161.738 297.534 162.16 297.673 162.156C297.805 162.152 297.789 160.895 297.788 160.865C297.771 159.418 297.757 157.856 297.389 156.442C297.171 155.609 298.107 158.014 298.413 158.82C298.754 159.715 299.099 160.586 299.591 161.414C299.702 161.599 299.809 161.846 300.006 161.95" stroke="#494949" stroke-width="0.6" stroke-linecap="round"/>
<path d="M301.993 158.293C301.648 158.235 301.344 158.086 301.072 158.348C300.72 158.688 300.676 159.273 300.606 159.724C300.521 160.271 300.794 160.702 301.331 160.896C301.881 161.095 302.171 160.669 302.322 160.2C302.431 159.865 302.618 159.477 302.322 159.189C302.185 159.055 302.062 158.969 301.996 158.784C301.95 158.658 301.88 158.536 301.846 158.409C301.803 158.241 301.88 158.405 301.909 158.458C302.121 158.846 302.374 159.22 302.591 159.607C303.169 160.641 303.575 161.821 303.9 162.954C304.014 163.351 304.063 164.125 303.766 164.472C303.632 164.627 302.99 164.574 302.923 164.4C302.87 164.265 302.713 164.141 302.632 164.016C302.566 163.913 302.574 163.758 302.489 163.697" stroke="#494949" stroke-width="0.6" stroke-linecap="round"/>
<path d="M306.601 155.57C306.375 155.532 306.08 155.4 305.914 155.605C305.713 155.854 305.54 156.108 305.461 156.42C305.277 157.143 305.457 157.761 306.026 158.269C306.41 158.612 306.94 158.788 307.445 158.861C307.853 158.921 308.099 158.527 308.282 158.233" stroke="#494949" stroke-width="0.6" stroke-linecap="round"/>
<path d="M309.165 155.162C308.931 155.841 308.978 156.175 309.567 156.559C310.064 156.884 310.511 156.776 310.742 156.267C311 155.698 310.63 154.867 309.983 154.739C309.61 154.666 309.212 154.476 309.131 154.946" stroke="#494949" stroke-width="0.6" stroke-linecap="round"/>
<path d="M312.242 153.02C312.104 153.416 311.953 153.702 312.25 154.036C312.494 154.312 312.983 154.335 313.325 154.392C313.761 154.466 313.443 155.224 313.238 155.428C312.884 155.778 312.459 155.997 311.958 155.912" stroke="#494949" stroke-width="0.6" stroke-linecap="round"/>
<path d="M316.33 148.955C316.187 149.789 315.912 150.711 315.938 151.561C315.954 152.09 315.918 152.881 316.22 153.334C316.825 154.239 317.604 155.377 318.588 155.895" stroke="#494949" stroke-width="0.6" stroke-linecap="round"/>
<path d="M319.719 150.618C318.595 150.429 318.202 151.315 318.284 152.344C318.363 153.343 319.278 154.152 320.252 154.316C320.785 154.405 320.915 154.337 321.072 153.798C321.238 153.226 321.406 152.755 321.289 152.14C321.134 151.33 320.402 150.952 319.683 150.831" stroke="#494949" stroke-width="0.6" stroke-linecap="round"/>
<path d="M319.326 148.366C320.508 148.565 321.219 148.714 321.678 149.904C322.029 150.812 322.352 151.656 322.581 152.607C322.77 153.395 322.803 154.049 322.668 154.832" stroke="#494949" stroke-width="0.6" stroke-linecap="round"/>
<path d="M323.333 149.697C323.63 149.694 324.409 149.643 324.615 149.367" stroke="#494949" stroke-width="0.6" stroke-linecap="round"/>
<path d="M324.334 151.615C324.721 151.533 326.094 151.298 326.339 150.969" stroke="#494949" stroke-width="0.6" stroke-linecap="round"/>
<path d="M327.564 152C327.851 149.949 327.176 148.148 326.616 146.222C326.544 145.977 326.447 145.701 326.324 145.475C325.976 144.84 327.385 146.478 327.835 147.047C328.589 148.004 329.383 148.98 330.213 149.871C330.463 150.139 330.482 148.707 330.485 148.617C330.508 147.779 330.454 146.943 330.471 146.107C330.48 145.705 330.35 145.219 330.152 144.869C329.713 144.092 331.206 146.339 331.513 147.175C331.886 148.192 332.144 149.262 332.783 150.146" stroke="#494949" stroke-width="0.6" stroke-linecap="round"/>
<path d="M336.438 146.327C336.06 146.264 335.489 146.064 335.09 146.106C334.815 146.136 334.764 146.993 334.73 147.188C334.598 147.959 334.965 148.861 335.958 148.755C336.525 148.694 336.357 146.759 336.199 146.421C336.189 146.4 335.97 146.115 336.077 146.23C336.363 146.537 336.564 146.925 336.836 147.245C337.165 147.631 337.511 148.204 337.967 148.443" stroke="#494949" stroke-width="0.6" stroke-linecap="round"/>
<path d="M339.771 146.342L339.406 148.467" stroke="#494949" stroke-width="0.6" stroke-linecap="round"/>
<path d="M281.635 173.067C283.121 173.635 284.791 174.177 285.97 175.269" stroke="#494949" stroke-width="0.6" stroke-linecap="round"/>
<path d="M285.622 170.898C285.429 172.019 285.091 173.3 285.667 174.351C285.967 174.9 286.099 175.259 286.288 175.867C286.543 176.689 287.098 177.427 287.6 178.122" stroke="#494949" stroke-width="0.6" stroke-linecap="round"/>
<path d="M287.888 172.409C288.231 172.092 288.958 171.732 289.214 171.39" stroke="#494949" stroke-width="0.6" stroke-linecap="round"/>
<path d="M288.801 173.806C289.118 173.644 289.381 173.417 289.697 173.279" stroke="#494949" stroke-width="0.6" stroke-linecap="round"/>
<path d="M293.994 168.829C293.403 169.141 292.858 169.551 292.311 169.931C292.153 170.041 291.761 170.226 291.842 170.459C292.014 170.955 292.431 171.447 292.728 171.875C293.194 172.548 293.651 173.226 294.113 173.901C294.427 174.36 294.735 175.059 295.19 175.386" stroke="#494949" stroke-width="0.6" stroke-linecap="round"/>
<path d="M293.345 172.632C294.055 172.335 294.653 171.816 295.364 171.505" stroke="#494949" stroke-width="0.6" stroke-linecap="round"/>
<path d="M297.494 175.041C297.49 174.532 297.593 173.96 297.195 173.646C297.058 173.539 297.062 173.334 297.005 173.166C296.897 172.845 297.27 173.3 297.44 173.403C297.854 173.652 298.139 174.098 298.56 174.365C298.774 174.501 298.997 174.892 298.927 174.432C298.818 173.715 298.583 173.009 298.374 172.338" stroke="#494949" stroke-width="0.6" stroke-linecap="round"/>
<path d="M298.849 170.055C299.315 169.88 299.75 169.524 300.209 169.388" stroke="#494949" stroke-width="0.6" stroke-linecap="round"/>
<path d="M305.489 171.5C305.334 170.159 305.274 168.59 304.578 167.39C304.392 167.07 304.068 166.713 303.986 166.358C303.936 166.145 304.653 166.531 304.698 166.559C305.298 166.936 305.903 167.303 306.507 167.674C306.82 167.866 307.054 168.089 307.321 168.305C307.429 168.392 307.425 167.967 307.439 167.858C307.56 166.9 307.304 165.934 307.276 164.975C307.268 164.684 307.242 164.409 307.191 164.127C307.077 163.496 307.886 165.215 308.193 165.781C308.792 166.881 309.736 168.068 310.107 169.263" stroke="#494949" stroke-width="0.6" stroke-linecap="round"/>
<path d="M312.43 166.395C311.923 166.309 311.573 166.135 311.199 166.531C310.663 167.099 310.983 167.663 311.512 168.114C312.24 168.735 312.809 168.366 313.126 167.553C313.247 167.241 313.228 167.008 313.035 166.741C312.91 166.568 312.634 166.348 312.939 166.652C313.825 167.535 314.694 168.526 315.369 169.574C315.728 170.13 316.032 170.545 315.919 171.201C315.835 171.692 315.106 171.451 314.737 171.341C314.402 171.242 314.267 170.672 314.318 170.379" stroke="#494949" stroke-width="0.6" stroke-linecap="round"/>
<path d="M316.269 163.862C316.112 164.16 315.735 164.888 315.99 165.241C316.301 165.672 316.933 165.522 317.381 165.597C317.85 165.676 318.011 166.005 317.711 166.468C317.465 166.847 316.744 166.695 316.571 166.928" stroke="#494949" stroke-width="0.6" stroke-linecap="round"/>
<path d="M317.949 163.249C318.382 163.617 318.925 164.062 319.148 164.592C319.275 164.895 319.635 165.108 319.733 165.423" stroke="#494949" stroke-width="0.6" stroke-linecap="round"/>
<path d="M316.273 161.418C317.358 161.654 316.208 162.278 316.327 161.59" stroke="#494949" stroke-width="0.6" stroke-linecap="round"/>
<path d="M319.462 162.2C320.123 162.551 320.527 162.889 320.949 163.473C321.166 163.774 321.366 164.109 321.612 164.386C321.746 164.537 321.375 164.067 321.317 163.934C321.043 163.3 320.843 162.855 320.961 162.167C320.995 161.972 321.065 161.431 321.269 161.345C321.676 161.174 322.111 161.299 322.432 161.605C322.874 162.025 322.909 162.621 323.227 163.096C323.369 163.31 323.594 163.568 323.667 163.804" stroke="#494949" stroke-width="0.6" stroke-linecap="round"/>
<path d="M324.947 157.337C324.831 158.011 324.538 158.848 324.653 159.528C324.755 160.13 325.009 160.658 325.369 161.156C326.021 162.059 326.992 163.046 328.229 162.86" stroke="#494949" stroke-width="0.6" stroke-linecap="round"/>
<path d="M328.762 157.819C328.458 157.768 327.856 157.57 327.596 157.84C327.285 158.164 327.169 158.886 327.352 159.288C327.68 160.009 328.457 160.818 329.321 160.842C329.635 160.851 329.747 160.292 329.786 160.069C329.85 159.694 329.712 159.258 329.5 158.939C329.225 158.526 328.727 158.235 328.52 157.778" stroke="#494949" stroke-width="0.6" stroke-linecap="round"/>
<path d="M328.611 155.756C329.353 155.881 330.087 156.034 330.577 156.658C331.073 157.289 331.507 157.809 331.707 158.613C331.901 159.394 331.948 160 331.814 160.777" stroke="#494949" stroke-width="0.6" stroke-linecap="round"/>
<path d="M333.418 156.322C333.772 155.95 334.005 155.659 334.468 155.521" stroke="#494949" stroke-width="0.6" stroke-linecap="round"/>
<path d="M333.63 157.988C333.929 157.787 334.558 157.283 334.923 157.228" stroke="#494949" stroke-width="0.6" stroke-linecap="round"/>
<path d="M338.215 158.352C337.979 157.502 337.694 156.68 337.376 155.857C337.06 155.036 336.584 154.182 336.378 153.326C336.344 153.184 336.48 153.274 336.538 153.307C337.134 153.647 337.693 154.084 338.244 154.486C338.903 154.968 339.539 155.475 340.182 155.976C340.513 156.234 340.277 155.299 340.27 155.249C340.163 154.464 340.032 153.685 339.956 152.896C339.917 152.491 339.954 152.04 339.868 151.641C339.79 151.282 339.724 151.096 340.013 151.548C340.652 152.547 341.238 153.579 341.88 154.578C342.228 155.121 342.45 155.67 342.913 156.128" stroke="#494949" stroke-width="0.6" stroke-linecap="round"/>
<path d="M345.383 151.411C345.034 151.353 344.628 151.221 344.273 151.242C343.95 151.262 343.865 151.736 343.809 151.979C343.718 152.378 343.728 152.843 343.974 153.193C344.227 153.554 344.869 153.828 345.252 153.508C345.788 153.06 345.997 152.055 345.594 151.497C344.979 150.646 347.125 153.024 348.108 153.418" stroke="#494949" stroke-width="0.6" stroke-linecap="round"/>
<path d="M348.043 151.86C348.253 151.896 349.519 152.277 349.704 152.122C349.844 152.004 349.571 151.053 349.552 150.888C349.529 150.697 349.497 150.127 349.47 150.317C349.203 152.186 349.963 154.069 350.252 155.899" stroke="#494949" stroke-width="0.6" stroke-linecap="round"/>
<path d="M349.677 148.807C349.984 148.527 350.257 148.307 350.632 148.142" stroke="#494949" stroke-width="0.6" stroke-linecap="round"/>
<path d="M351.483 150.083C351.858 149.753 352.428 149.607 352.711 149.229" stroke="#494949" stroke-width="0.6" stroke-linecap="round"/>
<path d="M338.384 146.854C338.78 146.921 339.186 146.968 339.559 147.122C339.853 147.243 340.109 147.424 340.377 147.588C340.594 147.722 341.068 147.918 341.068 147.918" stroke="#494949" stroke-width="0.6" stroke-linecap="round"/>
<path d="M185.485 269.029C184.086 265.998 176.321 266.559 172.613 267.219L183.33 275.285L185.485 269.029Z" fill="#B6886D"/>
<path d="M13.7773 249.452L108.396 217.215L122.405 278.243L30.1205 297.42L13.7773 249.452Z" fill="#50442F"/>
<path d="M21.1942 294.135C22.9539 285.551 29.9751 279.034 38.6663 277.918L68.7011 274.063C89.8692 271.345 110.035 283.87 116.981 304.05L119.529 311.453L17.6009 311.663L21.1942 294.135Z" fill="#FEDF85"/>
<path d="M101.221 225.08C101.068 251.11 85.1102 269.294 59.0804 269.141C33.0506 268.988 12.0735 247.762 12.2266 221.733C12.3798 195.703 33.6052 174.726 59.6349 174.879C85.6647 175.032 101.374 199.05 101.221 225.08Z" fill="#C69172"/>
<circle cx="49.2737" cy="226.295" r="2.79806" transform="rotate(0.337069 49.2737 226.295)" fill="#343440"/>
<circle cx="78.8538" cy="218.3" r="2.79806" transform="rotate(0.337069 78.8538 218.3)" fill="#343440"/>
<path d="M55.2514 241.868C60.3653 246.611 73.3549 247.432 75.7987 239.905" stroke="black" stroke-width="2" stroke-linecap="round"/>
<path d="M66.5174 186.184C72.5629 182.304 67.8247 177.413 62.7199 174.71C61.3504 173.984 59.7756 173.581 58.2378 173.389C-11.0637 164.746 -8.50434 260.838 16.897 303.718C18.7044 306.769 22.056 308.467 25.6022 308.488C33.474 308.534 39.032 300.441 36.3267 293.048C34.0406 286.802 31.1027 278.609 27.4717 268.222C16.5157 236.878 21.6673 235.193 27.7893 214.234C33.9113 193.274 57.9154 191.703 66.5174 186.184Z" fill="#62533A"/>
<path d="M111.189 220.683C98.6749 179.765 81.7907 170.051 57.087 173.698L64.954 185.031C94.4124 188.977 105.783 243.693 110.215 279.838C110.772 284.384 115.199 287.424 119.623 286.239C123.088 285.311 125.416 282.049 124.949 278.493C123.761 269.454 120.503 251.138 111.189 220.683Z" fill="#62533A"/>
<ellipse cx="15.6247" cy="242.692" rx="6.16926" ry="9.89694" transform="rotate(-22.4418 15.6247 242.692)" fill="#C69172"/>
<path d="M49.8659 267.408C49.769 266.865 50.1312 266.345 50.6749 266.248L69.3337 262.923C69.8774 262.826 70.3967 263.188 70.4936 263.732L71.8274 271.215C72.6374 275.76 69.6099 280.101 65.0654 280.91L60.8948 281.654C56.3503 282.464 52.0096 279.436 51.1997 274.892L49.8659 267.408Z" fill="#C69172"/>
<path d="M65.209 219.277C68.6165 222.725 74.3998 230.214 70.2724 232.589L65.209 219.277Z" fill="#C69172"/>
<path d="M65.209 219.277C68.6165 222.725 74.3998 230.214 70.2724 232.589" stroke="#443824" stroke-width="2" stroke-linecap="round"/>
<path d="M69.6406 210.516C71.3662 208.527 76.3564 205.157 82.5122 207.593" stroke="#443824" stroke-width="2" stroke-linecap="round"/>
<path d="M38.2534 219.65C39.6381 217.41 44.0242 213.284 50.4906 214.702" stroke="#443824" stroke-width="2" stroke-linecap="round"/>
<path d="M23.747 245.864C24.0667 243.626 21.4819 240.135 20.1495 238.669C18.8703 227.797 24.4132 219.483 27.3445 214.686C24.1467 221.082 27.3445 232.674 27.3445 238.669C27.3445 244.665 23.3472 248.663 23.747 245.864Z" fill="#62533A"/>
<path d="M35.9895 203.614C41.0391 198.697 52.7397 185.506 67.9277 184.707C66.089 188.992 45.854 200.862 42.3468 203.094C37.9498 205.892 32.3345 208.89 30.5069 211.527C30.4515 210.169 32.0747 207.427 35.9895 203.614Z" fill="#62533A"/>
<path d="M92.8871 283.014C96.4695 279.693 102.047 279.837 105.454 283.337L132.798 311.425L120.407 311.425L107.216 311.425L86.4294 289L92.8871 283.014Z" fill="#FEDF85"/>
<path d="M176.367 285.039L148.386 311.421L119.605 311.421L163.974 274.246L176.367 285.039Z" fill="#FEDF85"/>
<path d="M164.349 276.71C167.036 280.756 150.668 305.615 143.496 310.379C141.989 311.379 125.601 311.42 125.601 311.42C122.915 307.374 128.798 300.227 138.39 295.031C145.961 290.931 161.662 272.664 164.349 276.71Z" fill="#FEDF85"/>
<path d="M198.352 266.983C196.354 266.183 194.488 266.983 193.156 267.782L188.759 273.378L200.351 268.581L198.352 266.983Z" fill="#B58567"/>
<path d="M193.955 263.361C191.717 264.64 189.558 267.358 188.759 268.557L189.558 273.354L197.153 263.361C197.02 262.828 196.194 262.081 193.955 263.361Z" fill="#B98B70"/>
<path d="M166.375 267.451C166.375 270.009 165.042 273.047 164.376 274.246C164.376 277.444 170.505 280.642 173.57 281.841C177.434 280.109 185.641 276.485 187.56 275.845C189.479 275.205 189.692 272.914 189.559 271.848L188.359 263.054C186.76 261.775 185.561 264.653 185.162 266.252C185.295 268.916 184.442 273.447 179.965 270.249C175.488 267.051 171.971 267.051 170.772 267.451C170.772 265.212 169.972 262.787 169.572 261.855C166.375 254.82 164.776 256.259 164.376 257.857C165.042 259.989 166.375 264.893 166.375 267.451Z" fill="#C69172"/>
<rect x="177.979" y="239.15" width="12.7912" height="15.1895" rx="2" fill="#9D9D9D"/>
<rect x="177.18" y="239.95" width="14.39" height="3.19779" rx="1.59889" fill="#C4C4C4"/>
<rect x="177.18" y="244.746" width="14.39" height="3.19779" rx="1.59889" fill="#C4C4C4"/>
<rect x="177.18" y="249.543" width="14.39" height="3.19779" rx="1.59889" fill="#C4C4C4"/>
<path fill-rule="evenodd" clip-rule="evenodd" d="M193.865 231.156C197.807 228.171 200.364 223.374 200.364 217.965C200.364 208.914 193.205 201.576 184.375 201.576C175.544 201.576 168.386 208.914 168.386 217.965C168.386 223.374 170.942 228.171 174.884 231.156H174.781C177.34 233.266 178.512 237.898 178.779 239.95H189.971C189.651 237.136 192.236 232.914 193.968 231.156H193.865Z" fill="#F8D264"/>
<path d="M181.975 239.15C181.975 236.621 181.725 232.5 180.916 229.645M180.916 229.645C180.415 227.879 179.701 226.598 178.7 226.477C175.426 226.08 178.038 230.833 180.916 229.645ZM180.916 229.645C182.724 229.381 186.268 227.823 185.977 223.704C185.613 218.555 181.975 221.328 182.338 223.308C182.702 225.288 183.794 229.645 188.159 229.645C191.652 229.645 191.798 227.533 191.434 226.477C190.585 225.684 188.742 225.446 188.159 230.832C187.577 236.219 187.432 238.622 187.432 239.15" stroke="#565961"/>
<path fill-rule="evenodd" clip-rule="evenodd" d="M200.364 217.965C200.364 223.374 197.807 228.171 193.865 231.156H193.968C192.437 232.71 190.241 236.187 189.971 238.916L188.372 239.15C188.811 234.977 190.216 233.097 191.791 230.99C193.082 229.262 194.487 227.382 195.567 223.961C197.425 218.076 194.934 208.717 193.323 204.381C197.571 207.327 200.364 212.311 200.364 217.965Z" fill="#FAC11C"/>
<path d="M150.798 239.95L162.79 231.955" stroke="#FABA01" stroke-width="4" stroke-linecap="round"/>
<path d="M146 215.162L160.461 216.324" stroke="#FABA01" stroke-width="4" stroke-linecap="round"/>
<path d="M158.056 190.223L167.854 200.921" stroke="#FABA01" stroke-width="4" stroke-linecap="round"/>
<path d="M217.152 240.749L205.161 232.754" stroke="#FABA01" stroke-width="4" stroke-linecap="round"/>
<path d="M224.418 215.162L209.957 216.324" stroke="#FABA01" stroke-width="4" stroke-linecap="round"/>
<path d="M210.851 189.268L201.403 200.277" stroke="#FABA01" stroke-width="4" stroke-linecap="round"/>
<path d="M184.307 180L184.546 194.506" stroke="#FABA01" stroke-width="4" stroke-linecap="round"/>
<g filter="url(#filter0_f_3_5503)">
<ellipse cx="38.195" cy="239.617" rx="7.19502" ry="5.59613" fill="#F44747" fill-opacity="0.15"/>
</g>
<g filter="url(#filter1_f_3_5503)">
<ellipse cx="89.7592" cy="225.627" rx="6.7953" ry="5.99585" fill="#F44747" fill-opacity="0.15"/>
</g>
<defs>
<filter id="filter0_f_3_5503" x="27" y="230.021" width="22.3896" height="19.1924" filterUnits="userSpaceOnUse" color-interpolation-filters="sRGB">
<feFlood flood-opacity="0" result="BackgroundImageFix"/>
<feBlend mode="normal" in="SourceGraphic" in2="BackgroundImageFix" result="shape"/>
<feGaussianBlur stdDeviation="2" result="effect1_foregroundBlur_3_5503"/>
</filter>
<filter id="filter1_f_3_5503" x="78.9639" y="215.631" width="21.5908" height="19.9917" filterUnits="userSpaceOnUse" color-interpolation-filters="sRGB">
<feFlood flood-opacity="0" result="BackgroundImageFix"/>
<feBlend mode="normal" in="SourceGraphic" in2="BackgroundImageFix" result="shape"/>
<feGaussianBlur stdDeviation="2" result="effect1_foregroundBlur_3_5503"/>
</filter>
</defs>
</svg>
