<svg width="520" height="293" viewBox="0 0 520 293" fill="none" xmlns="http://www.w3.org/2000/svg">
<circle cx="295.276" cy="128.074" r="127.723" fill="#E3F2FD" fill-opacity="0.5"/>
<path d="M1 54.4456H420C426.627 54.4456 432 59.8182 432 66.4456V171.401C432 178.029 426.627 183.401 420 183.401H347.14C340.513 183.401 335.14 178.029 335.14 171.401V168.216C335.14 161.589 329.768 156.216 323.14 156.216H160.431C153.804 156.216 148.431 161.589 148.431 168.216V231C148.431 237.627 143.058 243 136.431 243H74.4043C67.7769 243 62.4043 237.627 62.4043 231V207.949C62.4043 201.321 67.7769 195.949 74.4043 195.949H261.329C267.956 195.949 273.329 190.576 273.329 183.949V40.3059C273.329 33.6785 278.701 28.3059 285.329 28.3059H293.19C299.818 28.3059 305.19 33.6785 305.19 40.3059V91.2397C305.19 97.8671 310.563 103.24 317.19 103.24H331.425C338.052 103.24 343.425 97.8671 343.425 91.2397V40.3059C343.425 33.6785 348.797 28.3059 355.425 28.3059H362.012C368.639 28.3059 374.012 33.6785 374.012 40.3059V91.2397C374.012 97.8671 379.384 103.24 386.012 103.24H405.344C411.971 103.24 417.344 97.8671 417.344 91.2397V18C417.344 11.3726 411.971 6 405.344 6H251.555C244.928 6 239.555 11.3726 239.555 18V58.4779C239.555 65.1054 234.183 70.4779 227.555 70.4779H185.283C178.656 70.4779 173.283 75.8505 173.283 82.4779V163.385C173.283 170.013 167.91 175.385 161.283 175.385H124.535H1" stroke="#7495D8" stroke-opacity="0.5" stroke-width="3"/>
<path d="M304 93L304 293" stroke="#7495D8" stroke-width="3"/>
<path d="M0 256H220.234C226.861 256 232.234 250.627 232.234 244V187.474C232.234 180.847 237.607 175.474 244.234 175.474H334.383C341.01 175.474 346.383 180.847 346.383 187.474V220.69C346.383 227.317 351.756 232.69 358.383 232.69H506C512.627 232.69 518 227.317 518 220.69V96C518 89.3726 512.627 84 506 84H0" stroke="#F2FBF9" stroke-width="3"/>
<path d="M280.818 232.282C207.826 200.591 202.476 99.4005 202.084 84.7376C202.056 83.6959 202.869 82.894 203.907 82.8048C250.777 78.7777 277.088 67.4491 280.577 65.8658C280.85 65.7419 281.132 65.6812 281.432 65.6812H281.564C281.87 65.6812 282.156 65.7441 282.434 65.8729C285.927 67.4942 311.953 78.9526 358.717 83.307C359.768 83.4049 360.582 84.2325 360.529 85.2868C359.785 100.283 352.075 204.154 280.684 232.237" fill="#1855D1"/>
<path d="M281.782 215.32C281.245 215.584 280.599 215.585 280.06 215.324C225.577 188.918 219.149 110.887 218.453 97.9166C218.396 96.858 219.212 96.0119 220.268 95.9189C259.953 92.4219 281.241 82.3421 281.353 82.2888C281.357 82.2872 281.355 82.2876 281.359 82.2855C281.39 82.2661 281.42 82.2599 281.454 82.2757C282.546 82.7944 303.68 92.6326 342.39 96.3211C343.444 96.4215 344.254 97.2725 344.191 98.3293C343.425 111.222 336.583 188.494 281.782 215.32Z" fill="#AED9F9" stroke="white" stroke-width="8"/>
<path d="M280.966 211.038C280.964 211.827 280.488 211.915 279.774 211.579C231.211 188.775 222.755 113.573 221.649 100.621C221.557 99.5392 222.385 98.6426 223.466 98.547C263.111 95.0417 281.237 85.1342 281.237 85.1342C281.237 85.1337 281.238 85.1334 281.237 85.1334C281.22 85.1319 240.265 81.4981 281.237 85.1342C281.237 85.1342 281.002 198.025 280.966 211.038Z" fill="#90CEFB"/>
<path d="M264.506 123.328C264.506 113.711 272.302 105.915 281.919 105.915C291.536 105.915 299.333 113.711 299.333 123.328V140.741H264.506V123.328Z" stroke="white" stroke-width="10"/>
<rect x="252.702" y="131.587" width="57.9894" height="43.1326" rx="13" fill="#FF8C5F"/>
<path d="M277.274 164.755L280.356 149.337H283.78L287.205 164.755H277.274Z" fill="#E1612F"/>
<ellipse cx="281.978" cy="147.117" rx="5.74906" ry="5.6184" fill="#E1612F"/>
<circle cx="147.505" cy="195.505" r="4.50532" fill="#728FDE" stroke="#A9BAE8" stroke-width="2"/>
<circle cx="344.239" cy="54.2394" r="5.23936" fill="#728FDE" stroke="#A9BAE8" stroke-width="2"/>
<circle cx="351.947" cy="228.947" r="12.4468" fill="#DCCDF5" stroke="#FFF2CE" stroke-width="3"/>
<path fill-rule="evenodd" clip-rule="evenodd" d="M350.652 232.688L350.185 232.221L349.718 232.688C349.976 232.946 350.394 232.946 350.652 232.688ZM350.185 231.287L347.129 228.231C346.871 227.973 346.452 227.973 346.194 228.231C345.936 228.489 345.936 228.907 346.194 229.165L349.718 232.688L350.185 232.221C350.652 232.688 350.652 232.688 350.652 232.688L357.45 225.89C357.708 225.632 357.708 225.214 357.45 224.956C357.192 224.698 356.774 224.698 356.516 224.956L350.185 231.287Z" fill="#FFF2CE"/>
<path d="M350.185 232.221L350.652 232.688M350.185 232.221L349.718 232.688M350.185 232.221C350.652 232.688 350.652 232.688 350.652 232.688M350.652 232.688C350.394 232.946 349.976 232.946 349.718 232.688M350.652 232.688L357.45 225.89C357.708 225.632 357.708 225.214 357.45 224.956C357.192 224.698 356.774 224.698 356.516 224.956L350.185 231.287L347.129 228.231C346.871 227.973 346.452 227.973 346.194 228.231C345.936 228.489 345.936 228.907 346.194 229.165L349.718 232.688" stroke="#FFF2CE" stroke-width="2" stroke-linecap="round" stroke-linejoin="round"/>
<circle cx="113.947" cy="55.9468" r="12.4468" fill="#DCCDF5" stroke="#76E5FD" stroke-width="3"/>
<path fill-rule="evenodd" clip-rule="evenodd" d="M112.652 59.6883L112.185 59.2212L111.718 59.6883C111.976 59.9463 112.394 59.9463 112.652 59.6883ZM112.185 58.2869L109.129 55.2307C108.871 54.9727 108.452 54.9727 108.194 55.2307C107.936 55.4886 107.936 55.9069 108.194 56.1649L111.718 59.6883L112.185 59.2212C112.652 59.6883 112.652 59.6884 112.652 59.6883L119.45 52.8904C119.708 52.6324 119.708 52.2141 119.45 51.9561C119.192 51.6981 118.774 51.6981 118.516 51.9561L112.185 58.2869Z" fill="#E3F2FD"/>
<path d="M112.185 59.2212L112.652 59.6883M112.185 59.2212L111.718 59.6883M112.185 59.2212C112.652 59.6883 112.652 59.6884 112.652 59.6883M112.652 59.6883C112.394 59.9463 111.976 59.9463 111.718 59.6883M112.652 59.6883L119.45 52.8904C119.708 52.6324 119.708 52.2141 119.45 51.9561C119.192 51.6981 118.774 51.6981 118.516 51.9561L112.185 58.2869L109.129 55.2307C108.871 54.9727 108.452 54.9727 108.194 55.2307C107.936 55.4886 107.936 55.9069 108.194 56.1649L111.718 59.6883" stroke="#76E5FD" stroke-width="2" stroke-linecap="round" stroke-linejoin="round"/>
<circle cx="429.947" cy="124.947" r="12.4468" fill="#DCCDF5" stroke="#FF8C5F" stroke-width="3"/>
<path fill-rule="evenodd" clip-rule="evenodd" d="M428.652 128.688L428.185 128.221L427.718 128.688C427.976 128.946 428.394 128.946 428.652 128.688ZM428.185 127.287L425.129 124.231C424.871 123.973 424.452 123.973 424.194 124.231C423.936 124.489 423.936 124.907 424.194 125.165L427.718 128.688L428.185 128.221C428.652 128.688 428.652 128.688 428.652 128.688L435.45 121.89C435.708 121.632 435.708 121.214 435.45 120.956C435.192 120.698 434.774 120.698 434.516 120.956L428.185 127.287Z" fill="#FF8C5F"/>
<path d="M428.185 128.221L428.652 128.688M428.185 128.221L427.718 128.688M428.185 128.221C428.652 128.688 428.652 128.688 428.652 128.688M428.652 128.688C428.394 128.946 427.976 128.946 427.718 128.688M428.652 128.688L435.45 121.89C435.708 121.632 435.708 121.214 435.45 120.956C435.192 120.698 434.774 120.698 434.516 120.956L428.185 127.287L425.129 124.231C424.871 123.973 424.452 123.973 424.194 124.231C423.936 124.489 423.936 124.907 424.194 125.165L427.718 128.688" stroke="#FF8C5F" stroke-width="2" stroke-linecap="round" stroke-linejoin="round"/>
</svg>
