<svg height="32" viewBox="0 0 32 32" width="32" xmlns="http://www.w3.org/2000/svg"><path d="m16 24.664c-.085.002-.169-.014-.247-.045s-.15-.079-.21-.138c-.06-.06-.107-.131-.138-.209s-.047-.163-.045-.247v-16.64c0-.135.043-.267.124-.375s.194-.188.324-.226c2.119-.672 4.296-1.147 6.502-1.421 2.154-.248 4.327-.295 6.49-.141.161.013.311.086.42.205s.17.274.169.435v16.986c.003.094-.016.187-.056.271s-.1.158-.174.215c-.069.062-.15.108-.239.134s-.182.033-.273.019c-2.101-.243-4.223-.243-6.323 0-2.092.153-4.159.553-6.157 1.19-.056.003-.112-.001-.166-.013zm.64-16.832v15.36c1.839-.502 3.72-.836 5.619-.998 1.963-.178 3.938-.178 5.901 0v-15.744c-1.9-.102-3.805-.051-5.696.154-1.971.256-3.918.667-5.824 1.229zm-.64 16.832c-.072.013-.146.013-.218 0-2.005-.651-4.081-1.063-6.182-1.229-2.101-.243-4.222-.243-6.323 0-.091.015-.185.008-.274-.018s-.17-.073-.238-.135c-.074-.057-.134-.131-.174-.215s-.059-.177-.056-.271v-16.934c0-.086.017-.172.051-.251s.083-.151.145-.211.136-.106.216-.137c.081-.031.167-.045.253-.041 2.179-.166 4.369-.127 6.541.115 2.21.276 4.391.752 6.515 1.421.126.043.236.123.314.231s.12.237.121.37v16.64c.002.085-.014.169-.045.247s-.079.15-.138.209c-.06.06-.131.107-.209.138s-.162.047-.247.045zm-9.51-2.65c.934 0 2.022 0 3.251.141 1.899.162 3.78.497 5.619.998v-15.36c-1.886-.546-3.812-.944-5.76-1.19-1.913-.208-3.839-.259-5.76-.154v15.68c.881-.084 1.765-.123 2.65-.115zm9.51 4.864c-.241.013-.482-.03-.704-.126s-.419-.241-.576-.425h-14.08c-.17 0-.333-.067-.453-.187s-.187-.283-.187-.453v-18.534c0-.17.067-.333.187-.453s.283-.187.453-.187h1.856c.17 0 .333.067.453.187s.187.283.187.453-.067.333-.187.453-.283.187-.453.187h-1.28v17.254h13.901c.13.001.256.042.362.118s.185.182.227.305c.034.044.079.079.131.102s.108.031.164.026c.046-.163.145-.306.282-.406s.304-.151.473-.144h13.965v-17.254h-1.216c-.17 0-.333-.067-.453-.187s-.187-.283-.187-.453.067-.333.187-.453.283-.187.453-.187h1.856c.17 0 .333.067.453.187s.187.283.187.453v18.534c0 .17-.067.333-.187.453s-.283.187-.453.187h-14.208c-.133.178-.307.322-.508.418s-.422.141-.644.133z"/></svg>