<svg height="32" viewBox="0 0 32 32" width="32" xmlns="http://www.w3.org/2000/svg"><path d="m13.494 16.803c.604 0 1.12.107 1.547.32.435.204.764.484.987.84s.333.751.333 1.187c0 .418-.084.791-.253 1.12-.16.32-.369.569-.627.747-.249.178-.507.267-.773.267v.027c.338 0 .644.084.92.253.284.169.511.409.68.72s.253.671.253 1.08c0 .48-.134.911-.4 1.293s-.644.68-1.133.893c-.48.213-1.036.32-1.667.32-1.591 0-2.644-.711-3.16-2.133l1.307-.627c.134.515.347.902.64 1.16.293.249.716.373 1.267.373.533 0 .951-.129 1.253-.387.302-.267.454-.618.454-1.053 0-.48-.147-.818-.44-1.013-.284-.205-.742-.307-1.373-.307h-.4v-1.133h.36c1.102 0 1.653-.453 1.653-1.36 0-.445-.129-.782-.387-1.013-.249-.231-.604-.347-1.067-.347-.471 0-.849.115-1.133.347-.276.222-.454.542-.533.96l-1.307-.533c.186-.64.547-1.133 1.08-1.48.542-.347 1.182-.52 1.92-.52zm8.226.134v8.8h-1.4v-6.507c0-.302.004-.538.015-.707-.302.293-.649.547-1.04.76-.383.213-.773.364-1.173.453l-.267-1.24c.231-.027.529-.125.893-.293.373-.169.724-.369 1.053-.6s.569-.453.72-.667zm1.96-8.835c-.17 0-.333-.067-.453-.187s-.187-.283-.187-.453v-6.822c0-.17.068-.333.187-.453s.283-.187.453-.187.333.067.453.187.187.283.187.453v6.822c0 .17-.068.333-.187.453s-.283.187-.453.187zm7.68 3.943h-30.72c-.17 0-.333-.067-.453-.187s-.187-.283-.187-.453.068-.333.187-.453.283-.187.453-.187h30.72c.17 0 .333.067.453.187s.187.283.187.453-.068.332-.187.453-.283.187-.453.187zm-1.626 19.955h-27.443c-.601 0-1.177-.239-1.602-.664s-.664-1.001-.664-1.602v-24.051c0-.298.058-.592.172-.867s.281-.525.491-.735c.425-.425 1.001-.664 1.602-.664h27.443c.297 0 .592.059.867.172s.525.281.735.491c.211.21.377.46.491.735s.172.569.172.867v24.051c0 .601-.239 1.177-.664 1.602s-1.001.664-1.602.664zm-27.443-27.302c-.262 0-.512.104-.697.289s-.289.436-.289.697v24.051c.003.26.108.509.292.693s.433.289.693.292h27.443c.262 0 .512-.104.697-.289s.289-.435.289-.697v-24.051c.002-.13-.02-.259-.072-.379s-.121-.23-.213-.322-.201-.164-.322-.213c-.12-.049-.249-.073-.379-.072zm6.029 3.404c-.17 0-.333-.067-.453-.187s-.187-.283-.187-.453v-6.822c0-.17.068-.333.187-.453s.283-.187.453-.187.333.067.453.187.187.283.187.453v6.822c0 .17-.068.333-.187.453s-.283.187-.453.187z"/></svg>