<svg height="32" viewBox="0 0 32 32" width="32" xmlns="http://www.w3.org/2000/svg"><path d="m.632 5.12c-.002 0-.003.003-.005.003-.116.002-.223.042-.321.102-.01.007-.025.005-.04.013-.01.007-.01.019-.02.026-.02.016-.045.025-.065.044-.065.065-.111.145-.143.229-.001.002-.002.003-.003.005-.002.005.002.011 0 .016-.02.066-.04.133-.04.203v20.479c0 .076.02.149.045.219.03.087.077.168.143.234.02.02.045.03.07.047.01.006.01.018.02.024s.025.004.035.011c.1.062.211.107.331.107h30.719c.005 0 .01-.003.015-.003.113-.002.217-.044.312-.102.015-.008.03-.004.045-.013.01-.008.015-.023.025-.031.02-.015.04-.022.06-.039.064-.064.109-.141.141-.224.002-.004.005-.006.01-.011.003-.01 0-.021.003-.031.02-.061.035-.123.035-.188v-20.479c0-.17-.068-.333-.187-.453-.02-.022-.051-.031-.076-.049-.005-.006-.01-.016-.015-.021-.01-.006-.02-.005-.03-.011-.101-.063-.213-.107-.333-.107h-.003zm1.768 1.281h27.188l-13.594 11.328-2.659-2.216h-.003zm-1.127.719 10.656 8.88-10.656 8.88zm29.44 0v17.755l-10.654-8.878zm-17.792 9.711 2.664 2.216c.112.098.258.152.406.154h.003c.074-.001.146-.016.214-.042.071-.026.137-.062.196-.112l2.664-2.216 10.521 8.768h-27.188z"/></svg>