<svg height="32" viewBox="0 0 32 32" width="32" xmlns="http://www.w3.org/2000/svg"><path d="m2.025 2.56c-.276.01-.546.075-.797.19s-.476.277-.664.479-.336.439-.432.698c-.095.259-.14.534-.13.81v22.527c-.01.276.035.551.13.81.096.259.244.496.432.698s.413.364.664.479.521.18.797.19h1.896.005s.003 0 .005 0h22.876c.669-.024 1.308-.285 1.805-.734s.819-1.06.909-1.724l2.432-12.647c.08-.449.06-.91-.055-1.351s-.323-.854-.612-1.208c-.248-.305-.56-.551-.914-.721s-.74-.259-1.133-.263h-1.716v-2.893c.01-.547-.192-1.078-.565-1.479s-.886-.642-1.432-.672h-10.957c-.302-.002-.592-.122-.807-.333l-2.341-2.213c-.406-.402-.952-.631-1.523-.641zm0 1.281h7.872c.119 0 .236.024.346.07s.211.113.294.198l2.341 2.213c.456.434 1.061.678 1.69.68h10.931c.216.023.416.129.555.297s.208.382.187.599v2.893h-17.522c-.619.016-1.215.247-1.682.654s-.777.962-.878 1.573l-2.732 14.952-.035.19h-1.367c-.216-.023-.416-.129-.555-.297s-.208-.382-.187-.599v-22.527c-.02-.217.05-.431.187-.599.139-.167.339-.274.555-.297zm6.923 8.228h20.287c.205.002.407.052.591.143s.345.221.471.383c.173.215.299.465.367.732.066.267.079.546.03.818l-2.442 12.632c-.04.363-.21.701-.474.953s-.609.405-.974.43h-22.105l2.804-14.72c.04-.362.21-.697.474-.948s.607-.4.971-.422z"/></svg>