<svg height="32" viewBox="0 0 32 32" width="32" xmlns="http://www.w3.org/2000/svg"><path d="m16.009 2.569c-.247 0-.488.084-.68.24l-14.929 11.91c-.18.132-.309.323-.367.539-.057.216-.04.446.05.651.068.197.195.367.364.487s.373.18.581.177h4.019v12.217c0 .17.068.333.187.453s.281.188.451.188h7.024c.169 0 .331-.068.451-.188s.187-.284.187-.453v-8.954h5.31v8.954c0 .17.068.333.187.453s.281.188.451.188h7.035c.17 0 .333-.068.453-.188s.187-.284.187-.453v-12.267h4.016c.208.003.414-.06.583-.18s.297-.29.364-.487c.076-.199.086-.417.03-.622-.057-.205-.18-.386-.349-.516l-14.929-11.91c-.192-.156-.43-.24-.677-.24zm0 1.328 14.225 11.462h-3.901c-.168.003-.329.071-.448.19s-.189.279-.193.448v12.155h-5.756v-8.957c0-.17-.068-.331-.187-.451s-.283-.188-.453-.188h-6.587c-.168.003-.329.071-.448.19s-.19.279-.193.448v8.957h-5.743v-12.217c-.003-.169-.073-.329-.193-.448s-.279-.189-.448-.193h-3.901z"/></svg>