<svg height="32" viewBox="0 0 32 32" width="32" xmlns="http://www.w3.org/2000/svg"><path d="m13.432 1.708c-7.434 0-13.432 4.861-13.432 10.849.05 1.678.514 3.318 1.357 4.771s2.033 2.672 3.466 3.547c-.04.73-.239 1.441-.589 2.083-.74 1.016-1.666 1.885-2.727 2.56-.116.074-.202.186-.252.315s-.056.269-.015.401c.051.135.145.249.268.323s.269.104.411.086c1.98.02 3.953-.216 5.872-.703 1.219-.574 2.347-1.316 3.37-2.19 1.136 1.14 2.469 2.065 3.953 2.698 1.651.704 3.435 1.046 5.229 1.003.461 0 .934-.076 1.458-.076.993.947 2.133 1.724 3.378 2.302 1.672.425 3.392.631 5.117.615.13.01.258-.022.37-.089s.204-.166.258-.284c.04-.132.04-.274-.01-.404s-.141-.239-.258-.313c-.904-.569-1.694-1.302-2.328-2.161-.29-.527-.454-1.115-.474-1.716 1.233-.768 2.256-1.827 2.979-3.086s1.126-2.679 1.167-4.13c-.092-1.793-.699-3.52-1.747-4.977-.987-1.371-2.333-2.432-3.88-3.102-1.375-4.762-6.58-8.323-12.94-8.323zm.003 1.278c6.602 0 11.974 4.312 11.974 9.583s-5.425 9.544-12.091 9.544c-.614 0-1.893-.115-1.893-.115-.091-.01-.182.003-.268.034s-.165.08-.229.146c-1.095 1.036-2.342 1.897-3.698 2.557-1.116.326-2.268.512-3.43.552.587-.494 1.092-1.078 1.497-1.729.525-.946.785-2.015.755-3.096-.01-.1-.04-.195-.091-.281s-.119-.161-.203-.216c-1.303-.766-2.392-1.849-3.164-3.148s-1.2-2.776-1.25-4.286c0-5.259 5.425-9.544 12.091-9.544zm-5.722 8.214c-.707 0-1.279.572-1.279 1.279s.572 1.281 1.279 1.281 1.281-.575 1.281-1.281-.575-1.279-1.281-1.279zm5.12 0c-.707 0-1.281.572-1.281 1.279s.575 1.281 1.281 1.281c.707 0 1.279-.575 1.279-1.281s-.572-1.279-1.279-1.279zm5.118 0c-.707 0-1.279.572-1.279 1.279s.572 1.281 1.279 1.281 1.279-.575 1.279-1.281-.572-1.279-1.279-1.279zm8.731.403c.968.562 1.814 1.316 2.477 2.229.907 1.25 1.438 2.734 1.526 4.276-.045 1.305-.419 2.579-1.091 3.698s-1.616 2.049-2.747 2.701c-.105.067-.189.162-.239.276s-.064.242-.045.365c-.005.894.211 1.773.638 2.557.31.48.691.913 1.128 1.281-.906-.039-1.805-.189-2.674-.448-1.103-.52-2.115-1.216-2.995-2.06-.057-.12-.151-.22-.268-.284s-.25-.091-.383-.076c-.547.073-1.099.111-1.651.115-1.615.036-3.218-.273-4.703-.909-1.153-.494-2.211-1.18-3.138-2.018.33.021.643.049.917.049 7.306 0 13.307-4.863 13.307-10.826 0-.313-.025-.621-.057-.927z"/></svg>