<svg width="281" height="200" viewBox="0 0 281 200" fill="none" xmlns="http://www.w3.org/2000/svg">
<path d="M31.2086 125.604C31.2086 125.604 53.6118 43.089 157.76 25.5356C224.96 14.216 251.57 31.8613 261.995 45.8062C267.632 53.3456 267.642 64.7558 262.149 72.6013C257.363 79.4347 249.357 87.5756 236.431 92.9839C205.518 105.932 244.487 150.474 205.794 168.036C183.73 178.055 71.4419 205.882 57.8716 189.724C45.9454 170.608 67.9387 160.075 56.8561 155.057C45.7656 150.038 27.3143 143.854 31.2086 125.604Z" fill="#F2FBF9"/>
<rect x="111.699" y="5.17383" width="75.4734" height="144.825" rx="13.9081" transform="rotate(3.91673 111.699 5.17383)" fill="#1855D1"/>
<rect x="141.517" y="12.4224" width="17.216" height="1.81222" rx="0.906108" transform="rotate(4.03764 141.517 12.4224)" fill="#C4C4C4"/>
<rect x="114.612" y="18.6479" width="68.0917" height="116.141" transform="rotate(3.78353 114.612 18.6479)" fill="white"/>
<rect x="124.153" y="37.7939" width="18.3252" height="6.54669" rx="3.27334" transform="rotate(3.78353 124.153 37.7939)" fill="#F1F3F6"/>
<mask id="mask0_1432_992" style="mask-type:alpha" maskUnits="userSpaceOnUse" x="117" y="38" width="6" height="6">
<ellipse cx="119.895" cy="41.2203" rx="2.19567" ry="2.40638" transform="rotate(3.78353 119.895 41.2203)" fill="#C4C4C4"/>
</mask>
<g mask="url(#mask0_1432_992)">
<path d="M122.245 38.9641L117.863 38.6743L117.546 43.4766L121.927 43.7664L122.245 38.9641Z" fill="#4677DA"/>
<path d="M118.006 39.8828L117.777 39.9741L117.546 43.4764L121.927 43.7662L121.939 43.5901L119.182 42.0251L118.006 39.8828Z" fill="#F9BEF9"/>
<path d="M121.667 42.3151L121.484 42.1487L121.162 41.7408L120.648 41.5847L119.947 41.623L119.768 41.3988L119.456 41.1269L119.328 40.8633L118.865 40.6695L118.459 40.2104L118.003 39.8811L118.042 40.3767L118.02 40.7115L118.155 41.0071L118.364 41.2394L118.351 41.4367L118.449 41.5838L118.62 41.7881L118.877 41.871L118.991 42.0024L119.103 42.1422L119.164 42.3787L119.385 42.538L119.693 42.7023L120.2 42.8484L120.451 43.2114L120.658 43.4273L120.765 43.6893L121.927 43.7661L121.971 43.0938L121.667 42.3151Z" fill="#5569A9"/>
<path d="M121.75 41.1678L121.615 41.0951L121.293 41.2825L121.055 41.3259L120.744 41.5032L120.493 41.6297L120.386 41.8183L120.037 42.1228L119.939 42.3254L119.709 42.4435L119.331 42.438L119.006 42.6002L118.734 42.711L118.547 42.7513L117.765 43.4912L121.928 43.7665L122.077 41.5054" fill="#AA91D7"/>
</g>
<mask id="mask1_1432_992" style="mask-type:alpha" maskUnits="userSpaceOnUse" x="112" y="112" width="5" height="6">
<ellipse cx="114.746" cy="114.641" rx="2.19567" ry="2.40638" transform="rotate(3.78353 114.746 114.641)" fill="#C4C4C4"/>
</mask>
<g mask="url(#mask1_1432_992)">
<path d="M117.096 112.384L112.714 112.094L112.396 116.897L116.778 117.187L117.096 112.384Z" fill="#4677DA"/>
<path d="M112.856 113.303L112.628 113.394L112.396 116.897L116.778 117.186L116.79 117.01L114.032 115.445L112.856 113.303Z" fill="#F9BEF9"/>
<path d="M116.518 115.735L116.335 115.569L116.013 115.161L115.5 115.005L114.799 115.043L114.619 114.819L114.307 114.547L114.179 114.283L113.717 114.09L113.311 113.631L112.854 113.301L112.894 113.797L112.872 114.132L113.006 114.427L113.216 114.66L113.203 114.857L113.301 115.004L113.472 115.208L113.729 115.291L113.843 115.423L113.954 115.562L114.016 115.799L114.236 115.958L114.545 116.122L115.052 116.269L115.303 116.632L115.509 116.848L115.616 117.109L116.778 117.186L116.823 116.514L116.518 115.735Z" fill="#5569A9"/>
<path d="M116.601 114.588L116.465 114.515L116.143 114.703L115.905 114.746L115.595 114.923L115.344 115.05L115.236 115.238L114.887 115.543L114.79 115.746L114.559 115.864L114.182 115.858L113.856 116.02L113.585 116.131L113.398 116.171L112.616 116.911L116.778 117.187L116.928 114.926" fill="#AA91D7"/>
</g>
<mask id="mask2_1432_992" style="mask-type:alpha" maskUnits="userSpaceOnUse" x="115" y="78" width="5" height="6">
<ellipse cx="117.464" cy="81.1149" rx="2.19567" ry="2.40638" transform="rotate(3.78353 117.464 81.1149)" fill="#C4C4C4"/>
</mask>
<g mask="url(#mask2_1432_992)">
<path d="M119.813 78.8586L115.432 78.5688L115.114 83.3711L119.496 83.6609L119.813 78.8586Z" fill="#4677DA"/>
<path d="M115.574 79.7773L115.346 79.8686L115.114 83.371L119.496 83.6607L119.507 83.4847L116.75 81.9197L115.574 79.7773Z" fill="#F9BEF9"/>
<path d="M119.235 82.2096L119.052 82.0432L118.73 81.6353L118.216 81.4792L117.515 81.5175L117.336 81.2933L117.024 81.0214L116.896 80.7578L116.434 80.564L116.027 80.1049L115.571 79.7756L115.611 80.2713L115.589 80.606L115.723 80.9016L115.932 81.134L115.919 81.3313L116.017 81.4783L116.189 81.6826L116.445 81.7655L116.559 81.8969L116.671 82.0367L116.733 82.2732L116.953 82.4325L117.261 82.5968L117.769 82.7429L118.02 83.1059L118.226 83.3219L118.333 83.5838L119.495 83.6606L119.54 82.9883L119.235 82.2096Z" fill="#5569A9"/>
<path d="M119.318 81.0623L119.183 80.9896L118.861 81.177L118.623 81.2204L118.313 81.3977L118.062 81.5243L117.954 81.7128L117.605 82.0174L117.507 82.2199L117.277 82.338L116.9 82.3325L116.574 82.4947L116.302 82.6055L116.116 82.6458L115.333 83.3858L119.496 83.661L119.645 81.3999" fill="#AA91D7"/>
</g>
<rect x="122.123" y="71.4419" width="38.3326" height="13.0216" rx="3.97375" transform="rotate(3.78353 122.123 71.4419)" fill="#F1F3F6"/>
<rect x="128.338" y="51.3252" width="48.7376" height="15.0334" rx="3.97375" transform="rotate(3.78353 128.338 51.3252)" fill="#E3F2FD"/>
<path d="M108.318 123.421L175.37 127.951" stroke="#D6E0EF" stroke-width="0.496719"/>
<rect x="119.74" y="110.282" width="11.7088" height="8.31759" rx="3.97375" transform="rotate(3.78353 119.74 110.282)" fill="#F1F3F6"/>
<ellipse opacity="0.5" cx="123.063" cy="114.88" rx="0.525346" ry="0.575763" transform="rotate(3.78353 123.063 114.88)" fill="#737387"/>
<ellipse opacity="0.75" cx="125.609" cy="115.049" rx="0.525346" ry="0.575763" transform="rotate(3.78353 125.609 115.049)" fill="#737387"/>
<ellipse cx="128.155" cy="115.217" rx="0.525346" ry="0.575763" transform="rotate(3.78353 128.155 115.217)" fill="#737387"/>
<path d="M113.68 31.3665L181.785 35.8704L182.648 22.8311L114.542 18.3272L113.68 31.3665Z" fill="#16D2AA"/>
<path d="M125.99 26.865L125.327 26.611C125.235 26.9583 125.046 27.1082 124.725 27.087C124.304 27.0592 124.096 26.7064 124.139 26.0692C124.181 25.4272 124.45 25.1107 124.867 25.1382C125.162 25.1577 125.319 25.2923 125.375 25.6877L126.05 25.4409C125.946 24.837 125.482 24.5341 124.883 24.4945C124.02 24.4374 123.442 25.0058 123.375 26.0187C123.308 27.0315 123.802 27.6707 124.674 27.7284C125.281 27.7686 125.778 27.5101 125.99 26.865Z" fill="white"/>
<path d="M127.496 25.4315C126.771 25.3835 126.32 25.8122 126.268 26.5921C126.217 27.3719 126.608 27.8563 127.332 27.9042C128.057 27.9521 128.508 27.5234 128.559 26.7436C128.611 25.9637 128.22 25.4794 127.496 25.4315ZM127.458 26.0069C127.731 26.0249 127.853 26.2288 127.822 26.6948C127.791 27.1608 127.644 27.3469 127.37 27.3288C127.097 27.3107 126.975 27.1069 127.006 26.6409C127.037 26.1748 127.184 25.9888 127.458 26.0069Z" fill="white"/>
<path d="M131.009 27.6363C130.905 27.6294 130.857 27.5642 130.865 27.4405L130.922 26.5751C130.963 25.9616 130.614 25.6377 129.946 25.5935C129.356 25.5545 128.999 25.8126 128.895 26.2595L129.481 26.4893C129.543 26.2164 129.701 26.1361 129.909 26.1499C130.104 26.1628 130.208 26.3081 130.194 26.5221L130.188 26.6077L129.691 26.6799C129.066 26.7723 128.819 27.0091 128.793 27.4038C128.768 27.789 128.997 28.0143 129.426 28.0427C129.826 28.0691 130.086 27.9478 130.223 27.7276C130.271 27.9887 130.468 28.1116 130.758 28.1308C130.867 28.138 130.968 28.1208 131.058 28.0742L131.145 27.6262C131.105 27.6379 131.061 27.6398 131.009 27.6363ZM129.73 27.5374C129.595 27.5285 129.522 27.452 129.531 27.3189C129.54 27.1857 129.618 27.124 129.803 27.0885L130.161 27.0214L130.147 27.2259C130.133 27.4446 129.912 27.5495 129.73 27.5374Z" fill="white"/>
<path d="M132.584 25.768C131.864 25.7204 131.413 26.149 131.361 26.9289C131.31 27.7087 131.692 28.1925 132.451 28.2427C133.059 28.2829 133.431 27.9923 133.519 27.5826L132.871 27.3057C132.819 27.5507 132.693 27.6808 132.485 27.6671C132.225 27.6498 132.067 27.4579 132.098 26.9872C132.129 26.5212 132.295 26.3267 132.572 26.3451C132.768 26.358 132.867 26.4983 132.879 26.7761L133.581 26.5742C133.537 26.1844 133.287 25.8145 132.584 25.768Z" fill="white"/>
<path d="M135.449 25.9574C135.133 25.9365 134.883 26.0824 134.732 26.3876L134.827 24.9516L134.09 24.9028L133.866 28.2885L134.603 28.3373L134.686 27.0867C134.712 26.6872 134.901 26.5373 135.114 26.5514C135.296 26.5634 135.414 26.6859 135.392 27.0235L135.302 28.3835L136.039 28.4323L136.144 26.8488C136.181 26.2972 135.896 25.987 135.449 25.9574Z" fill="white"/>
<path d="M162.881 29.203L162.91 28.7751L163.696 28.8271L163.723 28.4308L162.936 28.3788L162.964 27.954L163.953 28.0194L163.981 27.5978L162.494 27.4995L162.356 29.5918L163.88 29.6926L163.908 29.2709L162.881 29.203Z" fill="white"/>
<path d="M165.202 28.1561C164.973 28.141 164.789 28.2435 164.685 28.4626L164.69 28.1541L164.251 28.1251L164.146 29.7102L164.638 29.7427L164.693 28.9057C164.71 28.6426 164.836 28.5459 164.978 28.5552C165.099 28.5633 165.178 28.6417 165.163 28.8668L165.103 29.7735L165.595 29.806L165.665 28.7503C165.689 28.3826 165.5 28.1758 165.202 28.1561Z" fill="white"/>
<path d="M167.064 27.6361L167.002 28.5776C166.935 28.3918 166.793 28.2613 166.582 28.2474C166.212 28.2229 165.966 28.5123 165.931 29.0386C165.897 29.5553 166.097 29.871 166.473 29.8959C166.695 29.9106 166.869 29.7883 166.963 29.594L166.964 29.8965L167.406 29.9258L167.556 27.6686L167.064 27.6361ZM166.67 29.5109C166.502 29.4998 166.406 29.3629 166.426 29.0649C166.446 28.7669 166.558 28.6438 166.726 28.6549C166.897 28.6662 166.982 28.8215 166.965 29.0847L166.968 29.0785L166.966 29.1197L166.963 29.1164C166.945 29.389 166.834 29.5218 166.67 29.5109Z" fill="white"/>
<path d="M169.505 27.9313C168.982 27.8966 168.665 28.1654 168.639 28.5585C168.612 28.9675 168.894 29.1326 169.339 29.2607C169.596 29.3318 169.702 29.393 169.695 29.4913C169.687 29.6117 169.579 29.6746 169.365 29.6604C169.11 29.6436 168.93 29.5585 168.789 29.3104L168.51 29.674C168.683 29.9146 168.911 30.0571 169.363 30.087C169.823 30.1174 170.185 29.9057 170.212 29.4968C170.236 29.1291 170.043 28.9284 169.521 28.7888C169.253 28.7169 169.152 28.653 169.16 28.5452C169.167 28.4247 169.28 28.3431 169.486 28.3566C169.729 28.3727 169.884 28.4817 169.998 28.6993L170.302 28.3628C170.1 28.0788 169.864 27.955 169.505 27.9313Z" fill="white"/>
<path d="M171.908 29.4052C171.941 28.9043 171.709 28.5865 171.238 28.5553C170.755 28.5233 170.463 28.8065 170.428 29.3296C170.394 29.8527 170.648 30.172 171.155 30.2055C171.49 30.2277 171.745 30.1044 171.847 29.8342L171.458 29.6683C171.418 29.7772 171.324 29.8346 171.18 29.8251C171.015 29.8142 170.913 29.7247 170.895 29.5165L171.882 29.5817C171.893 29.5411 171.904 29.459 171.908 29.4052ZM171.21 28.9323C171.363 28.9425 171.446 29.0562 171.458 29.2608L170.915 29.2248C170.955 29.011 171.054 28.922 171.21 28.9323Z" fill="white"/>
<path d="M172.725 30.3094C173.191 30.3402 173.429 30.1266 173.448 29.835C173.466 29.5623 173.305 29.4021 172.883 29.2913C172.683 29.2367 172.622 29.1913 172.626 29.1279C172.631 29.0645 172.71 29.0124 172.854 29.022C173.028 29.0335 173.151 29.1053 173.234 29.2604L173.506 29.0046C173.394 28.8093 173.21 28.6857 172.863 28.6628C172.392 28.6316 172.149 28.883 172.131 29.1429C172.114 29.4029 172.263 29.5687 172.696 29.6929C172.887 29.7501 172.954 29.7928 172.95 29.853C172.946 29.9196 172.862 29.9586 172.726 29.9496C172.541 29.9374 172.389 29.8605 172.313 29.6962L172.038 29.9837C172.173 30.19 172.407 30.2883 172.725 30.3094Z" fill="white"/>
<path d="M174.268 30.4114C174.733 30.4422 174.971 30.2286 174.991 29.937C175.009 29.6643 174.848 29.5041 174.425 29.3933C174.225 29.3387 174.164 29.2933 174.169 29.2299C174.173 29.1665 174.252 29.1144 174.396 29.124C174.57 29.1354 174.693 29.2073 174.776 29.3624L175.048 29.1066C174.936 28.9113 174.753 28.7877 174.406 28.7648C173.934 28.7336 173.691 28.985 173.674 29.2449C173.657 29.5049 173.805 29.6707 174.239 29.7949C174.43 29.8521 174.497 29.8948 174.493 29.955C174.488 30.0216 174.404 30.0606 174.268 30.0516C174.083 30.0394 173.931 29.9625 173.855 29.7982L173.58 30.0857C173.715 30.292 173.95 30.3903 174.268 30.4114Z" fill="white"/>
<path d="M175.576 28.6894C175.776 28.7026 175.868 28.629 175.88 28.4515C175.892 28.2708 175.81 28.1858 175.61 28.1726C175.411 28.1594 175.319 28.2329 175.307 28.4136C175.295 28.5912 175.377 28.6762 175.576 28.6894ZM175.81 28.8895L175.318 28.857L175.213 30.4421L175.705 30.4746L175.81 28.8895Z" fill="white"/>
<path d="M176.856 28.9268C176.373 28.8949 176.073 29.1807 176.038 29.7006C176.004 30.2205 176.264 30.5434 176.747 30.5753C177.23 30.6073 177.531 30.3215 177.565 29.8016C177.6 29.2817 177.339 28.9588 176.856 28.9268ZM176.831 29.3104C177.013 29.3225 177.094 29.4584 177.074 29.7691C177.053 30.0797 176.955 30.2038 176.773 30.1917C176.59 30.1797 176.509 30.0438 176.53 29.7331C176.55 29.4224 176.649 29.2984 176.831 29.3104Z" fill="white"/>
<path d="M178.851 29.0588C178.622 29.0436 178.438 29.1461 178.334 29.3653L178.34 29.0568L177.9 29.0277L177.795 30.6128L178.287 30.6453L178.342 29.8084C178.36 29.5453 178.485 29.4485 178.627 29.4579C178.748 29.4659 178.828 29.5444 178.813 29.7694L178.753 30.6761L179.244 30.7086L179.314 29.653C179.339 29.2852 179.149 29.0785 178.851 29.0588Z" fill="white"/>
<mask id="mask3_1432_992" style="mask-type:alpha" maskUnits="userSpaceOnUse" x="117" y="23" width="5" height="5">
<ellipse cx="119.278" cy="25.6913" rx="2.20869" ry="2.25409" transform="rotate(3.78353 119.278 25.6913)" fill="#C4C4C4"/>
</mask>
<g mask="url(#mask3_1432_992)">
<path d="M121.629 23.5876L117.222 23.2961L116.924 27.7945L121.332 28.086L121.629 23.5876Z" fill="#4677DA"/>
<path d="M117.37 24.4293L117.141 24.5137L116.924 27.7945L121.332 28.086L121.343 27.921L118.563 26.442L117.37 24.4293Z" fill="#F9BEF9"/>
<path d="M121.064 26.7251L120.879 26.5683L120.553 26.1847L120.036 26.0361L119.331 26.0688L119.15 25.8579L118.835 25.6017L118.705 25.3541L118.239 25.1704L117.828 24.7384L117.368 24.4277L117.41 24.8923L117.389 25.2059L117.526 25.4835L117.738 25.7022L117.725 25.887L117.824 26.0252L117.998 26.2174L118.256 26.2962L118.372 26.4199L118.485 26.5514L118.547 26.7733L118.77 26.9236L119.081 27.0789L119.592 27.2181L119.846 27.5594L120.054 27.7627L120.163 28.0086L121.332 28.0859L121.374 27.4561L121.064 26.7251Z" fill="#5569A9"/>
<path d="M121.142 25.6499L121.006 25.5812L120.683 25.7553L120.443 25.7949L120.132 25.9595L119.88 26.077L119.773 26.2532L119.423 26.537L119.326 26.7263L119.095 26.8359L118.716 26.829L118.389 26.9795L118.116 27.0821L117.928 27.1191L117.145 27.8088L121.332 28.0857L121.473 25.9677" fill="#AA91D7"/>
</g>
<path d="M112.604 128.071L110.796 127.952L110.778 128.227L111.548 128.278L111.406 130.425L111.674 130.443L111.816 128.296L112.586 128.347L112.604 128.071Z" fill="#343440"/>
<path d="M114.127 128.762L113.839 128.743L113.371 129.877L113.226 130.232L113.144 129.899L112.805 128.675L112.5 128.654L113.079 130.532L112.976 130.765C112.876 131.001 112.769 131.05 112.652 131.042C112.558 131.036 112.459 131 112.39 130.877L112.28 131.12C112.366 131.237 112.471 131.288 112.638 131.299C112.886 131.315 113.044 131.204 113.199 130.853L114.127 128.762Z" fill="#343440"/>
<path d="M115.323 128.804C115.058 128.787 114.837 128.92 114.726 129.122L114.731 128.802L114.496 128.786L114.324 131.392L114.592 131.41L114.662 130.353C114.753 130.551 114.945 130.696 115.196 130.713C115.662 130.743 115.983 130.407 116.023 129.809C116.062 129.211 115.788 128.835 115.323 128.804ZM115.183 130.454C114.865 130.433 114.675 130.158 114.702 129.744L114.705 129.7C114.732 129.285 114.957 129.038 115.275 129.059C115.604 129.081 115.783 129.365 115.755 129.791C115.727 130.217 115.511 130.475 115.183 130.454Z" fill="#343440"/>
<path d="M117.988 129.843C118.019 129.37 117.78 128.967 117.294 128.935C116.789 128.901 116.48 129.242 116.441 129.837C116.402 130.431 116.683 130.811 117.188 130.844C117.55 130.868 117.768 130.731 117.911 130.49L117.695 130.347C117.624 130.519 117.45 130.604 117.205 130.587C116.897 130.567 116.707 130.337 116.698 129.964L117.961 130.048C117.971 129.997 117.982 129.927 117.988 129.843ZM117.277 129.191C117.562 129.21 117.719 129.431 117.734 129.771L116.719 129.704C116.782 129.361 116.979 129.172 117.277 129.191Z" fill="#343440"/>
<path d="M120.958 130.843C120.864 130.837 120.834 130.79 120.84 130.702L120.899 129.8C120.928 129.374 120.663 129.157 120.281 129.132C119.956 129.111 119.68 129.269 119.575 129.535L119.762 129.706C119.868 129.481 120.043 129.374 120.264 129.389C120.515 129.406 120.645 129.576 120.629 129.819L120.622 129.921L120.172 129.973C119.734 130.025 119.499 130.227 119.481 130.502C119.459 130.832 119.703 131.011 120.018 131.031C120.232 131.046 120.456 130.961 120.575 130.795C120.591 131.003 120.694 131.076 120.858 131.087C120.942 131.093 121.013 131.079 121.061 131.064L121.093 130.833C121.052 130.842 121.002 130.846 120.958 130.843ZM120.048 130.775C119.857 130.763 119.749 130.674 119.759 130.52C119.77 130.348 119.928 130.251 120.226 130.212L120.607 130.16L120.59 130.413C120.574 130.655 120.316 130.793 120.048 130.775Z" fill="#343440"/>
<path d="M124.6 129.418C124.389 129.404 124.114 129.496 123.994 129.739C123.899 129.486 123.676 129.357 123.441 129.341C123.234 129.327 123.02 129.413 122.884 129.629L122.886 129.341L122.652 129.326L122.531 131.161L122.799 131.178L122.863 130.199C122.893 129.743 123.18 129.582 123.401 129.596C123.622 129.611 123.787 129.758 123.765 130.092L123.689 131.237L123.957 131.255L124.024 130.249C124.05 129.857 124.298 129.656 124.56 129.673C124.781 129.688 124.946 129.835 124.924 130.169L124.848 131.314L125.116 131.332L125.194 130.157C125.226 129.673 124.921 129.439 124.6 129.418Z" fill="#343440"/>
<path d="M127.226 130.454C127.257 129.98 127.018 129.578 126.533 129.545C126.027 129.512 125.719 129.853 125.679 130.447C125.64 131.042 125.921 131.422 126.426 131.455C126.788 131.479 127.006 131.342 127.149 131.101L126.934 130.958C126.862 131.13 126.688 131.214 126.443 131.198C126.135 131.178 125.945 130.948 125.936 130.575L127.199 130.659C127.209 130.608 127.22 130.538 127.226 130.454ZM126.516 129.802C126.8 129.821 126.957 130.042 126.972 130.382L125.957 130.315C126.02 129.972 126.218 129.783 126.516 129.802Z" fill="#343440"/>
<path d="M128.235 131.575C128.664 131.603 128.95 131.397 128.971 131.078C128.991 130.777 128.833 130.612 128.37 130.496C128.033 130.411 127.928 130.323 127.938 130.166C127.947 130.03 128.123 129.909 128.347 129.924C128.558 129.937 128.703 130.036 128.761 130.283L128.998 130.151C128.925 129.844 128.723 129.69 128.364 129.667C127.956 129.64 127.688 129.876 127.668 130.174C127.648 130.482 127.813 130.636 128.282 130.763C128.612 130.852 128.711 130.939 128.702 131.075C128.692 131.225 128.553 131.338 128.279 131.32C128.038 131.304 127.837 131.191 127.771 130.962L127.542 131.112C127.651 131.403 127.927 131.554 128.235 131.575Z" fill="#343440"/>
<path d="M130.001 131.692C130.429 131.72 130.715 131.514 130.737 131.195C130.756 130.894 130.599 130.729 130.136 130.613C129.799 130.528 129.693 130.44 129.704 130.282C129.713 130.147 129.889 130.025 130.113 130.04C130.324 130.054 130.469 130.152 130.527 130.399L130.764 130.268C130.69 129.961 130.489 129.807 130.13 129.783C129.722 129.756 129.454 129.993 129.434 130.29C129.414 130.599 129.579 130.753 130.048 130.88C130.378 130.968 130.477 131.056 130.468 131.192C130.458 131.342 130.319 131.455 130.045 131.436C129.803 131.421 129.602 131.308 129.537 131.079L129.308 131.229C129.417 131.52 129.693 131.671 130.001 131.692Z" fill="#343440"/>
<path d="M132.587 131.612C132.493 131.606 132.462 131.56 132.468 131.471L132.528 130.569C132.556 130.143 132.291 129.926 131.91 129.901C131.585 129.88 131.309 130.038 131.204 130.304L131.391 130.475C131.496 130.25 131.672 130.143 131.893 130.158C132.144 130.175 132.274 130.345 132.258 130.588L132.251 130.69L131.8 130.742C131.363 130.794 131.128 130.996 131.109 131.271C131.088 131.601 131.331 131.78 131.646 131.8C131.86 131.815 132.085 131.73 132.203 131.564C132.22 131.772 132.323 131.845 132.487 131.856C132.57 131.862 132.642 131.848 132.69 131.833L132.722 131.602C132.681 131.611 132.63 131.615 132.587 131.612ZM131.676 131.544C131.486 131.532 131.377 131.443 131.387 131.289C131.399 131.117 131.556 131.02 131.855 130.981L132.235 130.929L132.218 131.182C132.202 131.424 131.944 131.562 131.676 131.544Z" fill="#343440"/>
<path d="M134.046 131.686L133.49 131.65C133.36 131.641 133.274 131.565 133.283 131.437C133.291 131.312 133.349 131.242 133.485 131.218C133.558 131.245 133.644 131.262 133.741 131.268C134.143 131.295 134.444 131.057 134.468 130.693C134.481 130.502 134.415 130.336 134.288 130.217C134.344 130.088 134.476 130.027 134.7 130.041L134.657 129.78C134.405 129.764 134.24 129.875 134.16 130.124C134.062 130.069 133.95 130.036 133.823 130.028C133.421 130.001 133.12 130.239 133.096 130.602C133.081 130.815 133.153 131.001 133.307 131.121C133.156 131.167 133.044 131.274 133.032 131.464C133.021 131.626 133.114 131.743 133.237 131.817C133.049 131.86 132.93 131.985 132.919 132.154C132.901 132.429 133.128 132.654 133.657 132.689C134.109 132.719 134.499 132.52 134.523 132.157C134.541 131.892 134.364 131.707 134.046 131.686ZM133.807 130.266C134.038 130.281 134.206 130.447 134.191 130.675C134.175 130.902 133.988 131.045 133.757 131.03C133.526 131.014 133.358 130.848 133.373 130.621C133.389 130.393 133.576 130.251 133.807 130.266ZM133.704 132.445C133.335 132.421 133.159 132.291 133.171 132.111C133.18 131.972 133.296 131.891 133.507 131.905L133.956 131.935C134.207 131.951 134.282 132.041 134.273 132.173C134.262 132.335 134.058 132.469 133.704 132.445Z" fill="#343440"/>
<path d="M136.438 131.063C136.469 130.59 136.23 130.187 135.745 130.155C135.239 130.121 134.931 130.462 134.891 131.057C134.852 131.651 135.133 132.031 135.638 132.064C136 132.088 136.218 131.952 136.361 131.71L136.146 131.567C136.074 131.739 135.9 131.824 135.655 131.808C135.347 131.787 135.157 131.557 135.148 131.184L136.411 131.268C136.421 131.217 136.432 131.147 136.438 131.063ZM135.728 130.412C136.012 130.43 136.169 130.651 136.184 130.991L135.169 130.924C135.232 130.582 135.43 130.392 135.728 130.412Z" fill="#343440"/>
<path d="M137.043 131.678C136.913 131.669 136.819 131.759 136.81 131.902C136.8 132.045 136.881 132.147 137.012 132.155C137.142 132.164 137.236 132.074 137.245 131.931C137.254 131.788 137.174 131.687 137.043 131.678Z" fill="#343440"/>
<path d="M137.933 131.737C137.802 131.728 137.709 131.818 137.699 131.961C137.69 132.104 137.77 132.205 137.901 132.214C138.032 132.223 138.125 132.133 138.134 131.99C138.144 131.847 138.063 131.746 137.933 131.737Z" fill="#343440"/>
<path d="M138.822 131.796C138.691 131.787 138.598 131.877 138.589 132.02C138.579 132.163 138.66 132.264 138.791 132.273C138.921 132.281 139.014 132.192 139.024 132.049C139.033 131.906 138.953 131.804 138.822 131.796Z" fill="#343440"/>
<path d="M132.336 55.484L132.273 56.4355L131.115 56.359L131.178 55.4075L130.92 55.3904L130.776 57.5709L131.034 57.588L131.099 56.6068L132.256 56.6833L132.191 57.6646L132.45 57.6817L132.594 55.5011L132.336 55.484Z" fill="#343440"/>
<path d="M134.52 56.9027C134.548 56.4765 134.316 56.1127 133.847 56.0817C133.359 56.0494 133.062 56.355 133.027 56.8902C132.992 57.4255 133.264 57.7687 133.753 57.801C134.102 57.8241 134.311 57.7019 134.449 57.4853L134.24 57.3554C134.171 57.5101 134.004 57.5853 133.768 57.5697C133.47 57.55 133.286 57.3421 133.276 57.0063L134.495 57.0868C134.504 57.041 134.515 56.9787 134.52 56.9027ZM133.832 56.313C134.106 56.3311 134.259 56.5304 134.274 56.8367L133.295 56.7719C133.354 56.4639 133.544 56.294 133.832 56.313Z" fill="#343440"/>
<path d="M135.356 55.4515L135.098 55.4344L134.965 57.4365C134.945 57.7372 135.062 57.8876 135.324 57.9049C135.408 57.9104 135.496 57.8997 135.566 57.8745L135.625 57.6228C135.529 57.653 135.473 57.6593 135.386 57.6535C135.253 57.6447 135.215 57.5891 135.226 57.4206L135.356 55.4515Z" fill="#343440"/>
<path d="M136.344 55.5169L136.086 55.4998L135.953 57.5019C135.933 57.8025 136.05 57.9529 136.312 57.9702C136.396 57.9758 136.484 57.965 136.554 57.9398L136.613 57.6882C136.517 57.7183 136.461 57.7246 136.374 57.7188C136.242 57.7101 136.203 57.6544 136.214 57.4859L136.344 55.5169Z" fill="#343440"/>
<path d="M137.721 56.3379C137.233 56.3056 136.917 56.6099 136.882 57.1452C136.846 57.6804 137.119 58.0236 137.607 58.0559C138.095 58.0882 138.411 57.7839 138.446 57.2486C138.482 56.7134 138.209 56.3702 137.721 56.3379ZM137.706 56.5659C138.032 56.5875 138.214 56.8384 138.188 57.2315C138.162 57.6247 137.949 57.8495 137.622 57.8279C137.296 57.8063 137.114 57.5554 137.14 57.1623C137.166 56.7691 137.379 56.5443 137.706 56.5659Z" fill="#343440"/>
<path d="M139.313 55.9455L139.042 55.9275L138.979 56.8724L138.982 57.4234L139.176 57.4362L139.251 56.8904L139.313 55.9455ZM139.059 57.7205C138.933 57.7122 138.844 57.7926 138.835 57.9214C138.827 58.0502 138.905 58.1417 139.031 58.15C139.157 58.1584 139.247 58.078 139.255 57.9492C139.264 57.8203 139.185 57.7289 139.059 57.7205Z" fill="#343440"/>
<path d="M141.328 56.0787L141.069 56.0616L140.925 58.2421L141.184 58.2592L141.328 56.0787Z" fill="#343440"/>
<path d="M143.832 56.7421C143.609 56.7273 143.397 56.7962 143.27 56.9969L143.271 56.7381L143.044 56.7231L142.935 58.375L143.194 58.3921L143.252 57.5133C143.28 57.0904 143.555 56.956 143.791 56.9716C144.014 56.9864 144.18 57.1201 144.156 57.4869L144.092 58.4516L144.351 58.4687L144.421 57.4115C144.449 56.9853 144.178 56.7649 143.832 56.7421Z" fill="#343440"/>
<path d="M146.384 57.6873C146.412 57.2611 146.18 56.8973 145.711 56.8663C145.223 56.834 144.926 57.1396 144.891 57.6748C144.856 58.21 145.128 58.5533 145.617 58.5856C145.966 58.6086 146.175 58.4864 146.313 58.2699L146.104 58.14C146.035 58.2947 145.868 58.3699 145.632 58.3543C145.334 58.3346 145.15 58.1267 145.14 57.7908L146.359 57.8714C146.368 57.8256 146.379 57.7633 146.384 57.6873ZM145.695 57.0976C145.97 57.1157 146.123 57.3149 146.138 57.6213L145.159 57.5565C145.218 57.2485 145.408 57.0785 145.695 57.0976Z" fill="#343440"/>
<path d="M148.262 57.8115C148.29 57.3853 148.058 57.0215 147.589 56.9905C147.101 56.9582 146.805 57.2638 146.769 57.7991C146.734 58.3343 147.007 58.6775 147.495 58.7098C147.844 58.7329 148.054 58.6107 148.191 58.3941L147.982 58.2642C147.914 58.4189 147.746 58.4941 147.51 58.4785C147.213 58.4588 147.029 58.2509 147.018 57.9151L148.237 57.9957C148.247 57.9498 148.257 57.8875 148.262 57.8115ZM147.574 57.2218C147.849 57.24 148.001 57.4392 148.017 57.7455L147.037 57.6807C147.096 57.3727 147.286 57.2028 147.574 57.2218Z" fill="#343440"/>
<path d="M150.03 56.4219L149.962 57.4395C149.874 57.261 149.687 57.1293 149.445 57.1132C148.996 57.0835 148.687 57.385 148.651 57.9235C148.615 58.462 148.882 58.8015 149.331 58.8312C149.587 58.8481 149.799 58.7294 149.905 58.5473L149.903 58.8358L150.129 58.8508L150.288 56.439L150.03 56.4219ZM149.376 58.6019C149.059 58.5809 148.884 58.3238 148.91 57.9406C148.935 57.5573 149.142 57.3255 149.459 57.3464C149.766 57.3667 149.951 57.6146 149.926 57.9879L149.924 58.0275C149.899 58.4009 149.683 58.6222 149.376 58.6019Z" fill="#343440"/>
<path d="M152.729 57.3304C152.509 57.3158 152.309 57.3856 152.183 57.5764L152.25 56.5687L151.991 56.5516L151.832 58.9634L152.09 58.9805L152.148 58.105C152.176 57.6821 152.451 57.5443 152.687 57.5599C152.91 57.5747 153.077 57.7085 153.053 58.0752L152.989 59.0399L153.247 59.057L153.317 57.9998C153.346 57.5736 153.074 57.3533 152.729 57.3304Z" fill="#343440"/>
<path d="M155.28 58.2756C155.308 57.8494 155.076 57.4856 154.607 57.4546C154.119 57.4223 153.823 57.7279 153.787 58.2632C153.752 58.7984 154.025 59.1416 154.513 59.1739C154.862 59.197 155.072 59.0748 155.209 58.8582L155 58.7283C154.932 58.883 154.764 58.9582 154.528 58.9426C154.231 58.923 154.047 58.715 154.036 58.3792L155.255 58.4598C155.265 58.4139 155.275 58.3516 155.28 58.2756ZM154.592 57.6859C154.867 57.7041 155.019 57.9033 155.035 58.2096L154.055 58.1448C154.114 57.8368 154.304 57.6669 154.592 57.6859Z" fill="#343440"/>
<path d="M156.117 56.8244L155.858 56.8073L155.726 58.8094C155.706 59.1101 155.822 59.2605 156.084 59.2778C156.168 59.2834 156.257 59.2726 156.327 59.2474L156.385 58.9957C156.289 59.0259 156.234 59.0322 156.146 59.0264C156.014 59.0176 155.975 58.962 155.986 58.7935L156.117 56.8244Z" fill="#343440"/>
<path d="M157.606 57.653C157.351 57.6361 157.139 57.7547 157.032 57.9369L157.035 57.6484L156.809 57.6334L156.654 59.9791L156.912 59.9962L156.975 59.0447C157.064 59.2231 157.25 59.3549 157.493 59.3709C157.942 59.4007 158.251 59.0992 158.287 58.5607C158.322 58.0222 158.056 57.6827 157.606 57.653ZM157.479 59.1377C157.172 59.1174 156.987 58.8696 157.012 58.4963L157.014 58.4566C157.039 58.0833 157.255 57.862 157.562 57.8823C157.879 57.9032 158.053 58.1603 158.028 58.5436C158.003 58.9268 157.796 59.1587 157.479 59.1377Z" fill="#343440"/>
<path d="M161.934 57.9723L161.437 59.29L161.087 57.9163L160.828 57.8992L160.299 59.2148L159.981 57.8432L159.693 57.8241L160.147 59.5133L160.405 59.5304L160.922 58.2439L161.291 59.5889L161.55 59.606L162.221 57.9913L161.934 57.9723Z" fill="#343440"/>
<path d="M162.793 57.7106C162.91 57.7183 162.992 57.6441 163 57.5252C163.008 57.4063 162.936 57.3218 162.819 57.3141C162.703 57.3064 162.62 57.3806 162.612 57.4995C162.605 57.6185 162.677 57.7029 162.793 57.7106ZM162.902 58.0363L162.643 58.0192L162.534 59.6711L162.792 59.6882L162.902 58.0363Z" fill="#343440"/>
<path d="M164.313 59.4504C164.234 59.5214 164.147 59.5621 164.031 59.5544C163.888 59.545 163.793 59.4591 163.804 59.2972L163.868 58.3292L164.466 58.3687L164.481 58.1408L163.883 58.1012L163.914 57.6321L163.651 57.6877L163.625 58.0841L163.301 58.0628L163.286 58.2907L163.609 58.3121L163.542 59.3264C163.524 59.647 163.723 59.783 163.962 59.7988C164.14 59.8105 164.283 59.7636 164.389 59.6777L164.313 59.4504Z" fill="#343440"/>
<path d="M165.644 58.1845C165.424 58.1699 165.225 58.2397 165.098 58.4305L165.165 57.4228L164.906 57.4057L164.747 59.8175L165.005 59.8346L165.063 58.9591C165.091 58.5362 165.367 58.3984 165.603 58.414C165.826 58.4288 165.992 58.5626 165.968 58.9293L165.904 59.894L166.163 59.9111L166.233 58.8539C166.261 58.4277 165.99 58.2074 165.644 58.1845Z" fill="#343440"/>
<path d="M169.84 58.462C169.636 58.4485 169.371 58.5305 169.256 58.7485C169.164 58.5201 168.948 58.403 168.721 58.388C168.521 58.3747 168.314 58.4507 168.185 58.6445L168.186 58.3858L167.959 58.3708L167.85 60.0227L168.109 60.0398L168.167 59.1577C168.194 58.748 168.47 58.6037 168.683 58.6178C168.897 58.6319 169.057 58.7652 169.037 59.0659L168.969 60.0967L169.227 60.1138L169.287 59.2085C169.311 58.855 169.55 58.6751 169.802 58.6917C170.015 58.7058 170.175 58.8392 170.155 59.1399L170.087 60.1706L170.346 60.1877L170.416 59.1305C170.445 58.6944 170.15 58.4825 169.84 58.462Z" fill="#343440"/>
<path d="M172.37 58.6625L172.092 58.6441L171.645 59.6631L171.507 59.9825L171.426 59.6818L171.093 58.5781L170.799 58.5586L171.366 60.2519L171.268 60.4611C171.172 60.6738 171.069 60.7167 170.956 60.7092C170.865 60.7032 170.77 60.6704 170.703 60.5598L170.597 60.7784C170.681 60.8835 170.782 60.93 170.944 60.9407C171.183 60.9565 171.336 60.8571 171.483 60.5417L172.37 58.6625Z" fill="#343440"/>
<path d="M131.873 62.6209L132.148 62.6391L131.465 60.4038L131.158 60.3835L130.183 62.5091L130.454 62.5271L130.721 61.9374L131.687 62.0013L131.873 62.6209ZM130.831 61.6958L131.173 60.9321L131.287 60.6442L131.293 60.6447L131.373 60.9552L131.61 61.7474L130.831 61.6958Z" fill="#343440"/>
<path d="M132.939 60.269L132.68 60.2519L132.548 62.254C132.528 62.5547 132.644 62.7051 132.906 62.7224C132.99 62.728 133.079 62.7172 133.149 62.692L133.207 62.4403C133.111 62.4705 133.056 62.4768 132.968 62.471C132.836 62.4622 132.797 62.4066 132.808 62.2381L132.939 60.269Z" fill="#343440"/>
<path d="M134.437 62.5781L133.901 62.5426C133.775 62.5343 133.692 62.4657 133.699 62.3501C133.707 62.2378 133.763 62.1751 133.894 62.1539C133.964 62.1785 134.047 62.1939 134.141 62.2001C134.529 62.2258 134.819 62.0127 134.841 61.6856C134.852 61.5138 134.787 61.3635 134.665 61.2559C134.718 61.1399 134.845 61.0853 135.061 61.0996L135.018 60.8645C134.776 60.8484 134.617 60.9474 134.54 61.1713C134.446 61.122 134.338 61.0916 134.215 61.0834C133.827 61.0578 133.537 61.2709 133.515 61.598C133.503 61.7896 133.573 61.9568 133.721 62.0662C133.576 62.1063 133.469 62.2021 133.457 62.3739C133.448 62.5193 133.538 62.6248 133.657 62.6924C133.476 62.7302 133.362 62.8421 133.351 62.9941C133.335 63.2419 133.555 63.4456 134.066 63.4793C134.503 63.5082 134.878 63.3306 134.9 63.0035C134.915 62.7657 134.745 62.5984 134.437 62.5781ZM134.201 61.2982C134.424 61.3129 134.586 61.463 134.572 61.6679C134.559 61.8727 134.378 62.0001 134.155 61.9854C133.932 61.9706 133.77 61.8205 133.784 61.6157C133.797 61.4109 133.978 61.2834 134.201 61.2982ZM134.11 63.2599C133.754 63.2364 133.584 63.1189 133.594 62.957C133.603 62.8315 133.714 62.7593 133.918 62.7727L134.351 62.8014C134.594 62.8174 134.666 62.8985 134.658 63.0175C134.649 63.1628 134.453 63.2826 134.11 63.2599Z" fill="#343440"/>
<path d="M136.743 62.0271C136.771 61.6009 136.539 61.2371 136.07 61.2061C135.582 61.1738 135.286 61.4794 135.25 62.0147C135.215 62.5499 135.488 62.8931 135.976 62.9254C136.325 62.9485 136.534 62.8263 136.672 62.6097L136.463 62.4798C136.394 62.6345 136.227 62.7097 135.991 62.6941C135.694 62.6744 135.509 62.4665 135.499 62.1307L136.718 62.2113C136.727 62.1654 136.738 62.1031 136.743 62.0271ZM136.055 61.4374C136.329 61.4556 136.482 61.6548 136.497 61.9611L135.518 61.8963C135.577 61.5883 135.767 61.4184 136.055 61.4374Z" fill="#343440"/>
<path d="M138.081 61.3391C137.838 61.3231 137.637 61.4292 137.525 61.5944L137.592 60.5768L137.334 60.5597L137.174 62.9715L137.4 62.9864L137.436 62.7001C137.517 62.8946 137.712 63.0402 137.967 63.0571C138.417 63.0868 138.726 62.7854 138.761 62.2468C138.797 61.7083 138.53 61.3688 138.081 61.3391ZM137.953 62.8239C137.646 62.8036 137.461 62.5558 137.486 62.1824L137.489 62.1428C137.513 61.7695 137.729 61.5481 138.037 61.5684C138.353 61.5894 138.528 61.8465 138.503 62.2297C138.477 62.613 138.27 62.8448 137.953 62.8239Z" fill="#343440"/>
<path d="M140.085 61.4716C139.833 61.455 139.651 61.5458 139.547 61.7414L139.53 61.4681L139.32 61.4542L139.21 63.1061L139.469 63.1232L139.528 62.2312C139.553 61.8612 139.797 61.7015 139.991 61.7143C140.075 61.7198 140.145 61.7411 140.192 61.7707L140.26 61.5164C140.214 61.4868 140.14 61.4753 140.085 61.4716Z" fill="#343440"/>
<path d="M141.824 63.0865C141.733 63.0805 141.704 63.0387 141.709 62.9594L141.763 62.1467C141.788 61.7635 141.532 61.5673 141.163 61.5429C140.849 61.5222 140.584 61.6639 140.483 61.9028L140.665 62.0575C140.766 61.8551 140.934 61.7601 141.148 61.7742C141.39 61.7902 141.516 61.9446 141.502 62.1626L141.496 62.2551L141.061 62.2994C140.639 62.3445 140.413 62.5253 140.397 62.7731C140.377 63.0704 140.613 63.2321 140.917 63.2522C141.124 63.2658 141.34 63.1905 141.454 63.0421C141.47 63.229 141.57 63.2953 141.728 63.3058C141.809 63.3112 141.878 63.2991 141.924 63.2856L141.954 63.0785C141.915 63.0859 141.866 63.0893 141.824 63.0865ZM140.945 63.0217C140.761 63.0096 140.656 62.9296 140.665 62.7908C140.675 62.6356 140.827 62.5494 141.115 62.5153L141.482 62.4699L141.467 62.6978C141.452 62.9159 141.204 63.0388 140.945 63.0217Z" fill="#343440"/>
<path d="M144.24 61.7464C144.02 61.7319 143.821 61.8016 143.694 61.9924L143.761 60.9847L143.502 60.9676L143.343 63.3794L143.602 63.3965L143.659 62.521C143.687 62.0981 143.963 61.9604 144.199 61.976C144.422 61.9907 144.588 62.1245 144.564 62.4912L144.5 63.4559L144.759 63.473L144.829 62.4158C144.857 61.9896 144.586 61.7693 144.24 61.7464Z" fill="#343440"/>
<path d="M146.138 61.8719C145.65 61.8397 145.334 62.144 145.299 62.6792C145.264 63.2144 145.536 63.5576 146.024 63.5899C146.513 63.6222 146.828 63.3179 146.864 62.7827C146.899 62.2474 146.626 61.9042 146.138 61.8719ZM146.123 62.0999C146.449 62.1215 146.631 62.3724 146.605 62.7656C146.579 63.1587 146.366 63.3835 146.04 63.362C145.713 63.3404 145.532 63.0894 145.558 62.6963C145.584 62.3031 145.796 62.0783 146.123 62.0999Z" fill="#343440"/>
<path d="M149.301 62.0811C149.097 62.0676 148.832 62.1496 148.717 62.3677C148.625 62.1393 148.409 62.0221 148.182 62.0071C147.982 61.9939 147.776 62.0698 147.646 62.2637L147.647 62.0049L147.421 61.9899L147.311 63.6418L147.57 63.6589L147.628 62.7768C147.655 62.3671 147.931 62.2228 148.145 62.2369C148.358 62.251 148.518 62.3844 148.498 62.685L148.43 63.7158L148.688 63.7329L148.748 62.8277C148.772 62.4742 149.011 62.2942 149.263 62.3109C149.476 62.325 149.636 62.4583 149.617 62.759L149.548 63.7898L149.807 63.8069L149.877 62.7497C149.906 62.3136 149.611 62.1016 149.301 62.0811Z" fill="#343440"/>
<path d="M151.84 63.0255C151.868 62.5993 151.635 62.2355 151.167 62.2045C150.679 62.1722 150.382 62.4778 150.347 63.013C150.312 63.5482 150.584 63.8915 151.072 63.9238C151.422 63.9468 151.631 63.8246 151.769 63.6081L151.56 63.4781C151.491 63.6329 151.324 63.7081 151.088 63.6925C150.79 63.6728 150.606 63.4648 150.596 63.129L151.815 63.2096C151.824 63.1638 151.835 63.1015 151.84 63.0255ZM151.151 62.4358C151.426 62.4539 151.579 62.6531 151.594 62.9594L150.615 62.8947C150.674 62.5867 150.864 62.4167 151.151 62.4358Z" fill="#343440"/>
<path d="M154.402 62.4516L153.905 63.7693L153.555 62.3956L153.296 62.3785L152.767 63.6941L152.449 62.3225L152.161 62.3034L152.615 63.9925L152.873 64.0096L153.39 62.7232L153.759 64.0682L154.018 64.0853L154.689 62.4706L154.402 62.4516Z" fill="#343440"/>
<path d="M155.745 62.5072C155.257 62.475 154.941 62.7793 154.906 63.3145C154.87 63.8497 155.143 64.1929 155.631 64.2252C156.119 64.2575 156.435 63.9532 156.47 63.418C156.506 62.8827 156.233 62.5395 155.745 62.5072ZM155.73 62.7352C156.056 62.7568 156.238 63.0077 156.212 63.4009C156.186 63.794 155.973 64.0189 155.646 63.9973C155.32 63.9757 155.138 63.7248 155.164 63.3316C155.19 62.9384 155.403 62.7136 155.73 62.7352Z" fill="#343440"/>
<path d="M157.792 62.6427C157.54 62.626 157.359 62.7168 157.255 62.9124L157.237 62.6391L157.027 62.6252L156.918 64.2771L157.177 64.2942L157.236 63.4022C157.26 63.0322 157.504 62.8725 157.698 62.8853C157.782 62.8909 157.853 62.9121 157.899 62.9417L157.968 62.6874C157.921 62.6578 157.847 62.6463 157.792 62.6427Z" fill="#343440"/>
<path d="M159.382 64.4401L159.696 64.4608L159.093 63.4089L159.766 62.8064L159.443 62.785L158.549 63.5853L158.656 61.9697L158.397 61.9526L158.238 64.3644L158.496 64.3815L158.527 63.9157L158.893 63.5881L159.382 64.4401Z" fill="#343440"/>
<path d="M160.227 64.0978C160.101 64.0895 160.012 64.1698 160.003 64.2987C159.995 64.4275 160.073 64.519 160.199 64.5273C160.325 64.5356 160.415 64.4553 160.423 64.3264C160.432 64.1976 160.353 64.1061 160.227 64.0978Z" fill="#343440"/>
<path d="M128.004 40.5281L127.94 41.4939L126.783 41.4173L126.847 40.4515L126.588 40.4344L126.442 42.6477L126.7 42.6648L126.766 41.6688L127.923 41.7454L127.858 42.7413L128.116 42.7585L128.263 40.5452L128.004 40.5281Z" fill="#343440"/>
<path d="M129.029 40.8114C129.145 40.8191 129.228 40.7438 129.236 40.623C129.244 40.5023 129.172 40.4167 129.055 40.409C128.939 40.4013 128.856 40.4767 128.848 40.5974C128.84 40.7181 128.912 40.8037 129.029 40.8114ZM129.137 41.1419L128.878 41.1248L128.767 42.8015L129.026 42.8186L129.137 41.1419Z" fill="#343440"/>
<path d="M132.334 40.8144L130.588 40.699L130.572 40.9505L131.315 40.9997L131.186 42.9614L131.444 42.9785L131.574 41.0168L132.318 41.066L132.334 40.8144Z" fill="#343440"/>
<path d="M133.426 41.3919C133.206 41.3773 133.006 41.4483 132.88 41.642L132.948 40.6193L132.689 40.6022L132.527 43.0502L132.786 43.0673L132.845 42.1786C132.873 41.7494 133.148 41.6093 133.384 41.6249C133.608 41.6396 133.774 41.7753 133.749 42.1475L133.685 43.1267L133.943 43.1438L134.014 42.0707C134.043 41.6381 133.772 41.4147 133.426 41.3919Z" fill="#343440"/>
<path d="M135.977 42.3487C136.005 41.9161 135.773 41.5471 135.305 41.5161C134.816 41.4838 134.52 41.7943 134.484 42.3375C134.448 42.8808 134.72 43.2289 135.209 43.2612C135.558 43.2842 135.767 43.16 135.905 42.9401L135.696 42.8084C135.628 42.9655 135.46 43.042 135.224 43.0264C134.927 43.0068 134.743 42.7959 134.733 42.455L135.951 42.5356C135.961 42.4891 135.972 42.4258 135.977 42.3487ZM135.289 41.7508C135.564 41.769 135.716 41.9711 135.731 42.2819L134.752 42.2171C134.811 41.9045 135.001 41.7318 135.289 41.7508Z" fill="#343440"/>
<path d="M137.283 41.6469C137.031 41.6303 136.85 41.7227 136.746 41.9213L136.728 41.6439L136.518 41.63L136.407 43.3067L136.666 43.3238L136.726 42.4184C136.75 42.0428 136.995 41.8805 137.189 41.8933C137.273 41.8989 137.343 41.9203 137.39 41.9504L137.459 41.6922C137.412 41.6622 137.338 41.6506 137.283 41.6469Z" fill="#343440"/>
<path d="M139.124 42.5568C139.153 42.1242 138.921 41.7552 138.452 41.7242C137.964 41.692 137.667 42.0024 137.631 42.5457C137.596 43.0889 137.868 43.437 138.356 43.4693C138.705 43.4924 138.915 43.3682 139.053 43.1483L138.844 43.0166C138.775 43.1737 138.608 43.2502 138.372 43.2346C138.074 43.2149 137.89 43.004 137.88 42.6632L139.099 42.7438C139.109 42.6973 139.119 42.634 139.124 42.5568ZM138.437 41.959C138.711 41.9772 138.864 42.1792 138.879 42.4901L137.899 42.4253C137.959 42.1126 138.149 41.94 138.437 41.959Z" fill="#343440"/>
<path d="M139.976 41.3198L139.704 41.3018L139.641 42.2609L139.643 42.8202L139.837 42.833L139.912 42.2789L139.976 41.3198ZM139.72 43.1217C139.594 43.1133 139.504 43.195 139.496 43.3257C139.487 43.4565 139.565 43.5493 139.691 43.5576C139.818 43.566 139.907 43.4843 139.916 43.3535C139.925 43.2228 139.846 43.13 139.72 43.1217Z" fill="#343440"/>
<path d="M125.686 74.5614L125.428 74.5443L125.273 76.8826L125.532 76.8997L125.686 74.5614Z" fill="#343440"/>
<path d="M128.085 75.2537C127.597 75.2215 127.279 75.5492 127.241 76.1232C127.203 76.6971 127.475 77.0638 127.963 77.0961C128.306 77.1188 128.551 76.9393 128.683 76.6206L128.449 76.5127C128.386 76.7433 128.225 76.8643 127.973 76.8477C127.649 76.8263 127.472 76.5619 127.5 76.1403C127.528 75.7187 127.739 75.4799 128.062 75.5013C128.285 75.5161 128.416 75.6493 128.469 75.8805L128.723 75.7692C128.622 75.4708 128.418 75.2758 128.085 75.2537Z" fill="#343440"/>
<path d="M130.447 77.0184C130.356 77.0124 130.327 76.9677 130.332 76.8827L130.39 76.0111C130.417 75.6001 130.162 75.3911 129.793 75.3667C129.479 75.346 129.213 75.4991 129.111 75.7558L129.292 75.9207C129.394 75.7033 129.563 75.6006 129.777 75.6147C130.019 75.6308 130.145 75.7956 130.129 76.0295L130.123 76.1287L129.687 76.1782C129.265 76.2286 129.038 76.4235 129.02 76.6892C128.999 77.0081 129.235 77.1802 129.539 77.2003C129.746 77.214 129.962 77.1322 130.076 76.9725C130.092 77.1729 130.192 77.2435 130.35 77.254C130.431 77.2593 130.5 77.2461 130.546 77.2314L130.577 77.0092C130.538 77.0173 130.489 77.0212 130.447 77.0184ZM129.568 76.9532C129.384 76.941 129.279 76.8558 129.289 76.7069C129.3 76.5404 129.452 76.4473 129.74 76.4094L130.107 76.359L130.091 76.6034C130.076 76.8373 129.827 76.9703 129.568 76.9532Z" fill="#343440"/>
<path d="M131.844 75.5023C131.621 75.4876 131.408 75.5625 131.28 75.7782L131.282 75.5008L131.056 75.4858L130.939 77.2573L131.197 77.2744L131.26 76.332C131.29 75.8785 131.566 75.733 131.802 75.7486C132.025 75.7634 132.191 75.906 132.165 76.2993L132.096 77.3339L132.355 77.351L132.43 76.2172C132.46 75.7601 132.19 75.5252 131.844 75.5023Z" fill="#343440"/>
<path d="M134.947 75.7076C134.727 75.693 134.528 75.7688 134.4 75.9739L134.472 74.8933L134.213 74.8762L134.042 77.4625L134.301 77.4797L134.363 76.5408C134.393 76.0873 134.669 75.9383 134.905 75.9539C135.128 75.9686 135.294 76.1112 135.268 76.5045L135.2 77.5391L135.458 77.5562L135.533 76.4224C135.563 75.9654 135.293 75.7304 134.947 75.7076Z" fill="#343440"/>
<path d="M137.495 76.7088C137.525 76.2517 137.295 75.8628 136.826 75.8318C136.338 75.7995 136.04 76.1286 136.002 76.7025C135.964 77.2765 136.235 77.6432 136.723 77.6754C137.073 77.6985 137.283 77.5665 137.421 77.3337L137.213 77.1954C137.144 77.3616 136.976 77.443 136.74 77.4274C136.442 77.4078 136.259 77.1857 136.25 76.8257L137.469 76.9063C137.479 76.8571 137.49 76.7902 137.495 76.7088ZM136.81 76.0798C137.084 76.098 137.236 76.3108 137.25 76.6391L136.27 76.5744C136.331 76.2439 136.522 76.0608 136.81 76.0798Z" fill="#343440"/>
<path d="M138.339 75.149L138.08 75.1319L137.938 77.2789C137.917 77.6014 138.033 77.762 138.295 77.7794C138.379 77.7849 138.467 77.773 138.537 77.7456L138.597 77.4755C138.501 77.5083 138.445 77.5153 138.358 77.5095C138.226 77.5008 138.187 77.4413 138.199 77.2606L138.339 75.149Z" fill="#343440"/>
<path d="M139.825 76.0301C139.57 76.0132 139.357 76.1415 139.249 76.3373L139.254 76.0279L139.027 76.013L138.861 78.5285L139.12 78.5456L139.187 77.5252C139.275 77.7161 139.461 77.8565 139.703 77.8725C140.153 77.9022 140.463 77.5776 140.501 77.0001C140.539 76.4226 140.274 76.0599 139.825 76.0301ZM139.69 77.6226C139.383 77.6023 139.2 77.3374 139.226 76.9371L139.229 76.8946C139.255 76.4942 139.472 76.2559 139.78 76.2762C140.096 76.2972 140.27 76.572 140.243 76.983C140.215 77.3939 140.007 77.6435 139.69 77.6226Z" fill="#343440"/>
<path d="M143.457 76.3059L143.179 76.2875L142.727 77.3821L142.587 77.7252L142.508 77.4032L142.18 76.2215L141.886 76.202L142.445 78.0147L142.346 78.2394C142.249 78.4679 142.146 78.5144 142.032 78.5069C141.942 78.501 141.847 78.4662 141.78 78.3479L141.674 78.5828C141.757 78.6951 141.858 78.7445 142.019 78.7552C142.259 78.771 142.412 78.6637 142.561 78.3248L143.457 76.3059Z" fill="#343440"/>
<path d="M144.498 76.3392C144.01 76.3069 143.693 76.6346 143.655 77.2086C143.617 77.7826 143.888 78.1492 144.376 78.1815C144.864 78.2138 145.181 77.886 145.219 77.3121C145.257 76.7381 144.986 76.3714 144.498 76.3392ZM144.482 76.5836C144.808 76.6052 144.989 76.8734 144.961 77.295C144.933 77.7166 144.719 77.9587 144.392 77.9371C144.066 77.9155 143.885 77.6473 143.913 77.2257C143.941 76.8041 144.155 76.562 144.482 76.5836Z" fill="#343440"/>
<path d="M146.921 76.535L146.858 77.4987C146.83 77.9168 146.576 78.0779 146.301 78.0597C146.068 78.0443 145.927 77.9247 145.951 77.5597L146.023 76.4756L145.764 76.4585L145.687 77.617C145.657 78.0847 145.919 78.2836 146.239 78.3047C146.498 78.3219 146.711 78.2434 146.838 78.0383L146.837 78.3087L147.063 78.3236L147.18 76.5521L146.921 76.535Z" fill="#343440"/>
<path d="M150.87 76.7962L150.368 78.2112L150.023 76.7401L149.765 76.723L149.23 78.136L148.918 76.667L148.63 76.648L149.075 78.4567L149.334 78.4738L149.857 77.0921L150.22 78.5324L150.478 78.5495L151.158 76.8152L150.87 76.7962Z" fill="#343440"/>
<path d="M151.731 76.5115C151.848 76.5192 151.931 76.4393 151.939 76.3117C151.948 76.1842 151.876 76.094 151.76 76.0863C151.643 76.0786 151.56 76.1585 151.552 76.2861C151.543 76.4136 151.615 76.5038 151.731 76.5115ZM151.838 76.8602L151.58 76.8431L151.462 78.6146L151.721 78.6317L151.838 76.8602Z" fill="#343440"/>
<path d="M153.244 78.3694C153.164 78.446 153.077 78.49 152.96 78.4823C152.818 78.4729 152.723 78.3813 152.735 78.2077L152.804 77.1696L153.402 77.2091L153.418 76.9646L152.82 76.9251L152.853 76.422L152.589 76.4828L152.561 76.908L152.238 76.8866L152.222 77.1311L152.545 77.1524L152.473 78.2402C152.454 78.584 152.652 78.7288 152.891 78.7446C153.069 78.7564 153.212 78.7054 153.319 78.6128L153.244 78.3694Z" fill="#343440"/>
<path d="M154.581 77.0059C154.361 76.9914 154.161 77.0672 154.034 77.2722L154.105 76.1916L153.847 76.1745L153.676 78.7609L153.934 78.778L153.996 77.8391C154.026 77.3856 154.302 77.2366 154.538 77.2522C154.761 77.267 154.927 77.4096 154.901 77.8029L154.833 78.8375L155.091 78.8546L155.166 77.7208C155.197 77.2638 154.926 77.0288 154.581 77.0059Z" fill="#343440"/>
<path d="M125.796 81.892C125.716 81.9686 125.629 82.0126 125.512 82.0049C125.37 81.9955 125.276 81.9038 125.287 81.7302L125.356 80.6921L125.954 80.7317L125.97 80.4872L125.372 80.4477L125.405 79.9446L125.141 80.0054L125.113 80.4306L124.79 80.4092L124.774 80.6537L125.097 80.675L125.025 81.7627C125.006 82.1066 125.204 82.2514 125.443 82.2672C125.621 82.279 125.764 82.2279 125.871 82.1354L125.796 81.892Z" fill="#343440"/>
<path d="M127.133 80.5285C126.913 80.514 126.713 80.5897 126.586 80.7948L126.657 79.7142L126.399 79.6971L126.228 82.2835L126.486 82.3006L126.548 81.3617C126.578 80.9082 126.854 80.7592 127.09 80.7748C127.313 80.7896 127.479 80.9322 127.453 81.3255L127.385 82.36L127.644 82.3772L127.719 81.2434C127.749 80.7863 127.479 80.5514 127.133 80.5285Z" fill="#343440"/>
<path d="M129.568 82.298C129.478 82.2921 129.448 82.2474 129.454 82.1624L129.511 81.2908C129.539 80.8798 129.283 80.6707 128.914 80.6464C128.601 80.6256 128.334 80.7788 128.233 81.0354L128.413 81.2004C128.515 80.9829 128.685 80.8803 128.898 80.8944C129.14 80.9104 129.266 81.0753 129.25 81.3091L129.244 81.4083L128.809 81.4578C128.387 81.5082 128.159 81.7031 128.142 81.9688C128.121 82.2877 128.356 82.4599 128.66 82.48C128.867 82.4936 129.083 82.4119 129.198 82.2522C129.214 82.4525 129.313 82.5231 129.471 82.5336C129.552 82.539 129.621 82.5257 129.668 82.511L129.699 82.2889C129.659 82.2969 129.61 82.3008 129.568 82.298ZM128.689 82.2328C128.505 82.2206 128.4 82.1354 128.41 81.9866C128.421 81.8201 128.573 81.7269 128.862 81.6891L129.229 81.6386L129.212 81.8831C129.197 82.1169 128.948 82.2499 128.689 82.2328Z" fill="#343440"/>
<path d="M130.92 82.2308C130.84 82.3074 130.753 82.3515 130.636 82.3438C130.494 82.3344 130.399 82.2427 130.411 82.0691L130.48 81.031L131.078 81.0705L131.094 80.8261L130.496 80.7865L130.529 80.2834L130.265 80.3442L130.237 80.7694L129.914 80.748L129.898 80.9925L130.221 81.0139L130.149 82.1016C130.129 82.4455 130.328 82.5902 130.567 82.6061C130.745 82.6178 130.888 82.5668 130.994 82.4742L130.92 82.2308Z" fill="#343440"/>
<path d="M131.781 80.3021L131.509 80.2842L131.442 81.2975L131.442 81.8882L131.636 81.901L131.714 81.3154L131.781 80.3021ZM131.519 82.2064C131.392 82.1981 131.302 82.2846 131.293 82.4228C131.284 82.561 131.362 82.6586 131.488 82.667C131.614 82.6753 131.704 82.5888 131.713 82.4506C131.723 82.3124 131.645 82.2147 131.519 82.2064Z" fill="#343440"/>
<path d="M133.631 80.9583C133.505 80.95 133.415 81.0365 133.406 81.1747C133.397 81.3129 133.475 81.4105 133.601 81.4189C133.727 81.4272 133.817 81.3407 133.826 81.2025C133.835 81.0643 133.757 80.9666 133.631 80.9583ZM133.54 82.3401C133.414 82.3317 133.324 82.4183 133.315 82.5565C133.305 82.6946 133.383 82.7923 133.509 82.8007C133.636 82.809 133.726 82.7224 133.735 82.5843C133.744 82.4461 133.666 82.3484 133.54 82.3401Z" fill="#343440"/>
<path d="M134.408 80.1521L134.249 80.3052C134.647 80.7622 134.768 81.1971 134.725 81.8455C134.682 82.4939 134.505 82.9092 134.05 83.3097L134.188 83.4825C134.672 83.0804 134.946 82.5291 134.99 81.863C135.034 81.197 134.836 80.6145 134.408 80.1521Z" fill="#343440"/>
<path d="M125.106 45.5396C125.032 45.6368 124.812 45.7464 124.726 45.7527L124.755 45.9007C124.869 45.8783 124.988 45.8181 125.078 45.7359C125.072 45.7916 125.067 45.8453 125.064 45.8891L125 46.8537L125.146 46.8633L125.233 45.548L125.106 45.5396Z" fill="#343440"/>
<path d="M125.896 46.933C126.187 46.9522 126.359 46.7254 126.388 46.2849C126.417 45.8445 126.276 45.597 125.985 45.5778C125.695 45.5585 125.522 45.7853 125.493 46.2258C125.464 46.6662 125.605 46.9137 125.896 46.933ZM125.905 46.7895C125.713 46.7767 125.621 46.5825 125.644 46.2358C125.667 45.889 125.783 45.7085 125.976 45.7213C126.169 45.734 126.26 45.9282 126.237 46.275C126.214 46.6217 126.098 46.8022 125.905 46.7895Z" fill="#343440"/>
<path d="M126.799 45.9518C126.728 45.9471 126.678 45.9958 126.672 46.0736C126.667 46.1513 126.711 46.2062 126.782 46.2109C126.853 46.2156 126.904 46.1669 126.909 46.0892C126.914 46.0115 126.87 45.9565 126.799 45.9518ZM126.748 46.7291C126.677 46.7244 126.626 46.7731 126.621 46.8508C126.616 46.9285 126.66 46.9835 126.731 46.9882C126.802 46.9929 126.852 46.9442 126.857 46.8664C126.863 46.7887 126.819 46.7338 126.748 46.7291Z" fill="#343440"/>
<path d="M127.135 46.9949L127.943 47.0483L127.953 46.8988L127.533 46.8711C127.496 46.8687 127.392 46.8658 127.352 46.8651L127.352 46.8631C127.802 46.5786 127.962 46.371 127.978 46.1239C127.994 45.8808 127.849 45.701 127.604 45.6848C127.36 45.6687 127.206 45.8206 127.16 46.0477L127.282 46.1399C127.311 45.9436 127.423 45.823 127.588 45.8339C127.745 45.8442 127.836 45.9583 127.826 46.1138C127.81 46.347 127.65 46.5105 127.144 46.8654L127.135 46.9949Z" fill="#343440"/>
<path d="M128.579 45.7693C128.505 45.8665 128.286 45.9761 128.2 45.9824L128.228 46.1304C128.343 46.108 128.462 46.0478 128.551 45.9656C128.546 46.0213 128.541 46.075 128.538 46.1188L128.474 47.0834L128.619 47.0931L128.706 45.7777L128.579 45.7693Z" fill="#343440"/>
<path d="M129.489 46.1297C129.345 46.1202 129.225 46.1923 129.165 46.3025L129.167 46.1285L129.04 46.1201L128.947 47.535L129.092 47.5447L129.13 46.9707C129.18 47.0781 129.284 47.157 129.42 47.166C129.673 47.1828 129.848 47.0001 129.869 46.6753C129.891 46.3504 129.742 46.1464 129.489 46.1297ZM129.413 47.0254C129.24 47.014 129.137 46.8651 129.152 46.6399L129.153 46.6159C129.168 46.3907 129.29 46.2567 129.463 46.2681C129.641 46.2799 129.739 46.4345 129.724 46.6657C129.708 46.8968 129.591 47.0372 129.413 47.0254Z" fill="#343440"/>
<path d="M131.243 46.2457C131.129 46.2382 130.979 46.2883 130.914 46.4201C130.863 46.2826 130.741 46.2125 130.614 46.2041C130.501 46.1967 130.385 46.243 130.312 46.3603L130.313 46.2042L130.186 46.1958L130.12 47.1923L130.265 47.2019L130.3 46.6698C130.317 46.4226 130.472 46.3349 130.592 46.3428C130.712 46.3507 130.802 46.4307 130.79 46.6121L130.749 47.2339L130.894 47.2435L130.93 46.6974C130.945 46.4842 131.08 46.375 131.221 46.3844C131.341 46.3923 131.431 46.4723 131.419 46.6537L131.378 47.2755L131.523 47.2851L131.566 46.6474C131.583 46.3843 131.418 46.2573 131.243 46.2457Z" fill="#343440"/>
<path d="M167.693 70.4571C167.619 70.5543 167.4 70.6639 167.314 70.6702L167.343 70.8182C167.457 70.7957 167.576 70.7356 167.666 70.6534C167.66 70.7091 167.655 70.7628 167.652 70.8066L167.588 71.7712L167.734 71.7808L167.821 70.4655L167.693 70.4571Z" fill="#343440"/>
<path d="M168.484 71.8504C168.775 71.8697 168.947 71.6429 168.976 71.2024C169.005 70.762 168.864 70.5145 168.573 70.4952C168.282 70.476 168.11 70.7028 168.081 71.1433C168.052 71.5837 168.193 71.8312 168.484 71.8504ZM168.493 71.707C168.3 71.6942 168.209 71.5 168.232 71.1532C168.255 70.8065 168.371 70.626 168.564 70.6387C168.757 70.6515 168.848 70.8457 168.825 71.1924C168.802 71.5392 168.686 71.7197 168.493 71.707Z" fill="#343440"/>
<path d="M169.387 70.8693C169.316 70.8646 169.265 70.9133 169.26 70.991C169.255 71.0688 169.299 71.1237 169.37 71.1284C169.441 71.1331 169.492 71.0844 169.497 71.0067C169.502 70.929 169.458 70.874 169.387 70.8693ZM169.336 71.6466C169.265 71.6419 169.214 71.6906 169.209 71.7683C169.204 71.846 169.248 71.901 169.319 71.9056C169.389 71.9103 169.44 71.8616 169.445 71.7839C169.45 71.7062 169.407 71.6513 169.336 71.6466Z" fill="#343440"/>
<path d="M169.723 71.9124L170.531 71.9658L170.541 71.8163L170.121 71.7885C170.084 71.7861 169.98 71.7833 169.94 71.7826L169.94 71.7806C170.39 71.4961 170.55 71.2885 170.566 71.0414C170.582 70.7982 170.437 70.6185 170.192 70.6023C169.948 70.5862 169.794 70.7381 169.748 70.9652L169.869 71.0573C169.899 70.8611 170.011 70.7404 170.176 70.7514C170.333 70.7617 170.424 70.8758 170.414 71.0313C170.398 71.2645 170.238 71.428 169.732 71.7829L169.723 71.9124Z" fill="#343440"/>
<path d="M170.784 71.9825L171.591 72.0359L171.601 71.8864L171.181 71.8587C171.144 71.8563 171.04 71.8534 171 71.8527L171 71.8507C171.45 71.5662 171.61 71.3586 171.626 71.1115C171.643 70.8684 171.497 70.6886 171.252 70.6724C171.008 70.6563 170.854 70.8082 170.808 71.0353L170.93 71.1275C170.959 70.9312 171.071 70.8105 171.237 70.8215C171.393 70.8318 171.484 70.9459 171.474 71.1014C171.458 71.3346 171.298 71.4981 170.792 71.853L170.784 71.9825Z" fill="#343440"/>
<path d="M172.393 71.0681C172.249 71.0586 172.129 71.1307 172.069 71.2408L172.071 71.0669L171.944 71.0584L171.851 72.4734L171.996 72.483L172.034 71.9091C172.083 72.0164 172.188 72.0954 172.324 72.1044C172.577 72.1211 172.752 71.9385 172.773 71.6137C172.795 71.2888 172.646 71.0848 172.393 71.0681ZM172.317 71.9638C172.144 71.9524 172.041 71.8035 172.056 71.5782L172.057 71.5543C172.072 71.3291 172.194 71.1951 172.367 71.2065C172.545 71.2183 172.643 71.3729 172.628 71.6041C172.612 71.8352 172.495 71.9756 172.317 71.9638Z" fill="#343440"/>
<path d="M174.147 71.1841C174.033 71.1765 173.883 71.2267 173.818 71.3585C173.767 71.221 173.645 71.1509 173.518 71.1425C173.405 71.1351 173.289 71.1814 173.216 71.2987L173.217 71.1426L173.09 71.1342L173.024 72.1307L173.169 72.1403L173.204 71.6082C173.221 71.361 173.376 71.2732 173.496 71.2812C173.616 71.2891 173.706 71.3691 173.694 71.5505L173.653 72.1723L173.798 72.1819L173.834 71.6358C173.848 71.4226 173.984 71.3134 174.125 71.3228C174.245 71.3307 174.335 71.4107 174.323 71.5921L174.282 72.2139L174.427 72.2235L174.47 71.5857C174.487 71.3227 174.322 71.1957 174.147 71.1841Z" fill="#343440"/>
<path d="M113.487 120.984L113.345 120.914C113.281 121.088 113.149 121.17 112.989 121.159C112.74 121.143 112.599 120.935 112.621 120.604C112.643 120.271 112.821 120.087 113.066 120.103C113.226 120.114 113.319 120.2 113.362 120.355L113.511 120.291C113.447 120.086 113.298 119.968 113.065 119.953C112.731 119.931 112.495 120.178 112.468 120.594C112.44 121.011 112.638 121.286 112.979 121.308C113.205 121.323 113.395 121.204 113.487 120.984Z" fill="#343440"/>
<path d="M114.167 120.346C113.893 120.328 113.714 120.512 113.693 120.835C113.672 121.158 113.824 121.364 114.099 121.382C114.373 121.401 114.552 121.216 114.573 120.893C114.594 120.571 114.442 120.364 114.167 120.346ZM114.158 120.484C114.342 120.496 114.443 120.647 114.428 120.884C114.412 121.121 114.292 121.257 114.108 121.245C113.924 121.233 113.823 121.082 113.838 120.845C113.854 120.608 113.975 120.472 114.158 120.484Z" fill="#343440"/>
<path d="M115.576 121.344C115.525 121.341 115.508 121.316 115.512 121.268L115.544 120.777C115.559 120.546 115.415 120.429 115.208 120.415C115.032 120.403 114.882 120.489 114.825 120.634L114.926 120.727C114.984 120.604 115.079 120.547 115.199 120.554C115.335 120.563 115.406 120.656 115.397 120.788L115.393 120.844L115.149 120.871C114.911 120.9 114.783 121.009 114.774 121.159C114.762 121.338 114.894 121.435 115.065 121.446C115.181 121.454 115.303 121.408 115.368 121.318C115.377 121.431 115.432 121.471 115.521 121.477C115.567 121.48 115.606 121.472 115.632 121.464L115.649 121.339C115.627 121.343 115.6 121.346 115.576 121.344ZM115.082 121.307C114.978 121.3 114.919 121.253 114.925 121.169C114.931 121.075 115.016 121.023 115.178 121.001L115.385 120.973L115.376 121.111C115.367 121.242 115.227 121.317 115.082 121.307Z" fill="#343440"/>
<path d="M116.304 120.487C116.029 120.469 115.851 120.654 115.829 120.976C115.808 121.299 115.96 121.506 116.235 121.524C116.428 121.536 116.566 121.436 116.64 121.256L116.509 121.196C116.473 121.325 116.382 121.393 116.241 121.384C116.059 121.372 115.959 121.223 115.975 120.986C115.99 120.749 116.109 120.615 116.291 120.627C116.416 120.635 116.49 120.71 116.52 120.84L116.662 120.777C116.606 120.609 116.491 120.5 116.304 120.487Z" fill="#343440"/>
<path d="M117.388 120.559C117.265 120.551 117.152 120.594 117.081 120.709L117.121 120.101L116.975 120.091L116.879 121.546L117.025 121.556L117.059 121.028C117.076 120.773 117.232 120.689 117.364 120.698C117.49 120.706 117.583 120.786 117.569 121.007L117.53 121.589L117.676 121.599L117.718 120.961C117.735 120.704 117.583 120.572 117.388 120.559Z" fill="#343440"/>
<path d="M118.776 120.479C118.841 120.483 118.888 120.438 118.893 120.366C118.898 120.295 118.857 120.244 118.792 120.24C118.726 120.235 118.68 120.28 118.675 120.352C118.67 120.424 118.711 120.474 118.776 120.479ZM118.836 120.675L118.691 120.665L118.625 121.662L118.77 121.671L118.836 120.675Z" fill="#343440"/>
<path d="M119.416 121.734C119.648 121.749 119.804 121.638 119.815 121.464C119.826 121.301 119.741 121.211 119.489 121.148C119.306 121.102 119.249 121.054 119.254 120.969C119.259 120.895 119.355 120.829 119.477 120.837C119.591 120.845 119.67 120.898 119.701 121.032L119.83 120.961C119.79 120.794 119.68 120.711 119.486 120.698C119.264 120.683 119.119 120.812 119.108 120.973C119.097 121.141 119.186 121.225 119.441 121.293C119.621 121.341 119.674 121.389 119.669 121.463C119.664 121.544 119.588 121.605 119.439 121.596C119.308 121.587 119.199 121.526 119.164 121.401L119.039 121.483C119.098 121.641 119.248 121.723 119.416 121.734Z" fill="#343440"/>
<path d="M121.17 121.626C121.125 121.669 121.076 121.694 121.01 121.689C120.93 121.684 120.877 121.633 120.884 121.535L120.922 120.951L121.259 120.973L121.268 120.836L120.931 120.813L120.95 120.53L120.802 120.565L120.786 120.804L120.604 120.792L120.595 120.929L120.777 120.941L120.736 121.553C120.725 121.747 120.837 121.828 120.971 121.837C121.071 121.844 121.152 121.815 121.212 121.763L121.17 121.626Z" fill="#343440"/>
<path d="M122.251 120.901L122.095 120.89L121.841 121.506L121.762 121.699L121.718 121.518L121.533 120.853L121.368 120.842L121.682 121.862L121.626 121.988C121.572 122.117 121.514 122.143 121.45 122.139C121.399 122.135 121.346 122.116 121.308 122.049L121.248 122.182C121.295 122.245 121.352 122.272 121.443 122.278C121.577 122.287 121.663 122.227 121.747 122.036L122.251 120.901Z" fill="#343440"/>
<path d="M122.9 120.924C122.757 120.914 122.637 120.986 122.577 121.096L122.579 120.922L122.452 120.914L122.358 122.329L122.504 122.339L122.542 121.765C122.591 121.872 122.696 121.951 122.832 121.96C123.085 121.977 123.259 121.794 123.281 121.469C123.302 121.144 123.153 120.94 122.9 120.924ZM122.825 121.819C122.652 121.808 122.549 121.659 122.564 121.434L122.565 121.41C122.58 121.185 122.702 121.051 122.875 121.062C123.053 121.074 123.151 121.228 123.135 121.46C123.12 121.691 123.003 121.831 122.825 121.819Z" fill="#343440"/>
<path d="M123.683 120.803C123.748 120.808 123.795 120.763 123.8 120.691C123.804 120.619 123.764 120.568 123.698 120.564C123.633 120.56 123.586 120.605 123.581 120.676C123.577 120.748 123.617 120.799 123.683 120.803ZM123.743 120.999L123.597 120.99L123.531 121.986L123.677 121.996L123.743 120.999Z" fill="#343440"/>
<path d="M124.523 121.031C124.398 121.023 124.278 121.065 124.206 121.186L124.207 121.03L124.08 121.022L124.014 122.018L124.16 122.028L124.195 121.498C124.212 121.243 124.367 121.161 124.5 121.17C124.625 121.178 124.718 121.258 124.704 121.479L124.665 122.061L124.811 122.071L124.853 121.433C124.87 121.176 124.718 121.044 124.523 121.031Z" fill="#343440"/>
<path d="M125.656 121.999L125.354 121.979C125.283 121.974 125.237 121.933 125.241 121.863C125.246 121.795 125.277 121.757 125.351 121.744C125.391 121.759 125.437 121.768 125.49 121.771C125.708 121.786 125.872 121.657 125.885 121.459C125.892 121.356 125.856 121.265 125.787 121.201C125.817 121.131 125.889 121.097 126.011 121.105L125.987 120.964C125.851 120.955 125.761 121.015 125.718 121.15C125.665 121.12 125.604 121.102 125.535 121.098C125.316 121.083 125.153 121.213 125.14 121.41C125.132 121.526 125.171 121.626 125.254 121.692C125.172 121.716 125.112 121.775 125.105 121.878C125.099 121.966 125.15 122.029 125.217 122.07C125.115 122.093 125.05 122.161 125.044 122.252C125.034 122.402 125.157 122.524 125.445 122.543C125.69 122.559 125.902 122.451 125.915 122.254C125.924 122.11 125.829 122.01 125.656 121.999ZM125.526 121.227C125.652 121.236 125.742 121.326 125.734 121.449C125.726 121.573 125.624 121.65 125.499 121.642C125.373 121.634 125.282 121.544 125.291 121.42C125.299 121.296 125.401 121.219 125.526 121.227ZM125.47 122.411C125.27 122.397 125.174 122.327 125.18 122.229C125.185 122.154 125.249 122.11 125.363 122.117L125.607 122.134C125.743 122.143 125.784 122.191 125.779 122.263C125.773 122.351 125.663 122.423 125.47 122.411Z" fill="#343440"/>
<path d="M126.227 121.924C126.156 121.92 126.105 121.968 126.1 122.046C126.095 122.124 126.139 122.179 126.21 122.183C126.28 122.188 126.331 122.139 126.336 122.062C126.341 121.984 126.298 121.929 126.227 121.924Z" fill="#343440"/>
<path d="M126.71 121.956C126.639 121.952 126.588 122 126.583 122.078C126.578 122.156 126.622 122.211 126.693 122.215C126.764 122.22 126.814 122.171 126.819 122.094C126.824 122.016 126.781 121.961 126.71 121.956Z" fill="#343440"/>
<path d="M127.193 121.988C127.122 121.983 127.071 122.032 127.066 122.11C127.061 122.188 127.105 122.243 127.176 122.247C127.247 122.252 127.297 122.203 127.302 122.126C127.308 122.048 127.264 121.993 127.193 121.988Z" fill="#343440"/>
<path d="M104.654 109.048L106.573 85.8805L99.891 94.5858L91.698 118.08L104.654 109.048Z" fill="#BA6D40"/>
<path d="M95.6641 85.2376C98.615 79.0559 104.586 74.9253 107.009 72.6668L106.658 85.7771L103.338 91.2043L98.8513 107.048L99.3277 108.756C101.023 110.159 106.991 105.997 107.645 105.333C108.463 104.503 119.298 93.9785 120.917 94.1963C122.536 94.4141 127.33 95.5292 123.468 103.233C121.831 106.067 117.579 112.356 113.666 114.837C109.753 117.318 108.679 122.154 108.631 124.262C108.458 127.294 106.203 135.308 98.5595 143.114C90.9164 150.92 92.531 183.389 93.6454 193.771L74.7729 194.402L73.8701 156.861C73.4718 153.988 73.0948 144.774 74.7729 130.902C76.4511 117.03 81.0254 107.703 82.9077 106.547C86.4638 101.7 92.6415 91.5695 95.6641 85.2376Z" fill="#CB8B66"/>
<path d="M180.09 108.378L181.087 85.7188L186.352 94.975L191.252 118.731L180.09 108.378Z" fill="#BA6D40"/>
<path d="M191.739 86.561C189.663 80.2306 184.424 75.5048 182.37 73.0252L181.087 85.7187L183.613 91.3668L185.973 107.21L185.303 108.799C183.498 109.943 178.266 105.187 177.718 104.466C177.033 103.564 167.903 92.0651 166.317 92.0746C164.731 92.0841 159.977 92.5656 162.743 100.478C163.969 103.415 167.285 110.01 170.745 112.889C174.206 115.768 174.642 120.568 174.428 122.608C174.219 125.554 175.4 133.566 181.794 142.045C188.187 150.525 187.66 165.474 185.303 175.353L205.417 168.162L203.865 158.37C204.604 155.647 206.107 146.804 206.206 133.211C206.306 119.619 203.055 110.052 201.386 108.703C198.562 103.585 193.866 93.0452 191.739 86.561Z" fill="#CB8B66"/>
</svg>
