<svg fill="none" height="169" viewBox="0 0 244 169" width="244" xmlns="http://www.w3.org/2000/svg"><path d="m236.375 153.703-195.8192 8.625 13.3468-39.812c.5941 1.173 10.4795-16.507 10.4795-16.507.5331-1.15 2.1476-1.23 2.795-.138l6.4316 10.876c.6778 1.142 2.3914.986 2.8445-.259l17.4251-47.8657c.4798-1.3252 2.3419-1.3937 2.9245-.1105l11.0852 24.4964c.453 1.0015 1.778 1.2414 2.559.4608l10.517-10.5023c.834-.8339 2.262-.4912 2.62.6283l8.023 24.908c.427 1.329 2.258 1.481 2.906.24l7.128-13.6975c.647-1.2452 2.491-1.0853 2.909.2513l6.116 19.5082c.491 1.573 2.784 1.42 3.061-.202l8.248-48.2998c.294-1.7211 2.784-1.744 3.108-.0266l1.896 10.0415c.312 1.6641 2.692 1.7174 3.085.0724l7.124-29.9266c.381-1.6069 2.685-1.6069 3.069 0l11.089 46.1407c.411 1.7136 2.917 1.5498 3.103-.198l3.032-28.6394c.171-1.6146 2.399-1.9345 3.027-.4379l16.751 40.0027 19.131 50.371z" fill="#214c45"/><path d="m38.3501 150.641s102.5609-18.417 168.1649-1.828c0 0 39.27 3.278 37.422 7.773-1.849 4.496-155.6918 14.864-198.1973 9.678-42.5014-5.186-7.3937-15.623-7.3937-15.623" fill="#e4e7b5"/><path d="m78.4565 139.907-.4113 4.809c-.0495.571.2704 1.074.6816 1.074h.8226c.4112 0 .7273-.503.6778-1.074l-.4113-4.809c-.0419-.484-.3313-.846-.6816-.846s-.6397.366-.6778.846" fill="#33343f"/><path d="m87.7816 138.463-.3198 4.738c-.0381.563.2094 1.058.5293 1.058h.6397c.3199 0 .5674-.495.5293-1.058l-.3199-4.738c-.0304-.476-.2589-.833-.5293-.833-.2703 0-.495.357-.5293.833z" fill="#33343f"/><path d="m47.0216 148.958.2817 4.893c.08.583-.4341 1.093-1.0928 1.093h-1.3214c-.6588 0-1.1728-.51-1.0929-1.093l.2818-4.893c.0686-.491.9139-.86 1.4699-.86.5559 0 1.4051.369 1.4698.86" fill="#33343f"/><path d="m59.2838 126.034c.0152-.224 1.4166 1.299 1.4356 1.078.0343-.415-1.3061-2.57-1.2604-2.97.9367-7.825 4.0935-12.677 5.4834-8.846 1.5003 4.132 7.8253 26.895 1.9991 27.577-5.8299.678-7.494-.148-7.6615-5.103-.1561-4.664-.2475-7.604-.0419-11.073.0114-.217.0267-.438.0419-.659" fill="#2b6059"/><path d="m73.6168 116.545c-2.2239-4.116-5.7957 18.457-5.533 24.394.2628 5.936 8.3013 6.873 8.4308 0 .1295-6.874-.7768-20.464-2.8978-24.394" fill="#2b6059"/><path d="m81.5561 115.616c-2.2733 5.666-5.8147 16.481-4.7066 21.564 1.1081 5.084 3.3205 6.428 4.7066 6.428s4.8894-1.169 4.5695-10.78c-.3198-9.615-1.2452-25.487-4.5695-17.208" fill="#2b6059"/><path d="m45.3578 149.27c14.9842-.655 15.9857-4.44 15.9857-8.583 0-8.449-6.7096-14.714-15.9857-14.714s-14.6034 4.699-14.6034 15.662c0 5.876 9.2418 7.871 14.6034 7.635" fill="#2b6059"/><path d="m16.8213 92.3771c-21.43868-.2666-21.43868-1.6908-5.3616-12.4101 16.0809-10.7193 13.9218 5.5177 25.3379 6.2031 11.4162.6855 2.0601-9.5007 22.1698-1.824 20.1059 7.673 18.8493 7.2046-3.5871 8.031-22.4325.8263-31.8457.0837-38.559 0" fill="#f2f3f3"/><path d="m136.375 154.853c-.046.556 0 .948.43.803.431-.144 1.47-.274 1.436-.598-.034-.327-.533-.129-.933-.285-.366-.141-.933.08-.933.08z" fill="#33343f"/><path d="m134.239 155.211c-.145.632 0 .773.453.712.449-.061 1.23.015 1.325-.48.061-.324-.48-.133-.818-.282-.362-.156-.96.05-.96.05" fill="#33343f"/><path d="m133.146 145.268c-.088 0-.152.08-.129.164.3 1.081.864 4.055 1.001 5.274.126 1.135.118 3.861.114 4.505 0 .076.065.133.137.129l1.032-.061c.065 0 .115-.049.122-.114.076-.598.442-3.579.442-5.16v-2.501s.4 1.591.457 2.73c.049 1.001.011 3.979 0 4.684 0 .08.068.14.148.129l.975-.137.111-.103c.114-.582.738-3.861.853-5.255.11-1.329.251-3.454.289-4.006.004-.076-.053-.133-.126-.137l-5.43-.137z" fill="#4b6fb0"/><path d="m133.13 137.698c-1.035.514-3.019 2.273-3.766 3.279-.746 1.005 1.988 3.633 3.1 3.96l.499-.754s-1.676-1.565-1.778-2.517c-.103-.952 1.778-1.919 1.778-1.919" fill="#2c3273"/><path d="m138.911 145.516c.975-.29-.86-6.268-.925-7.559-.061-1.291-2.361-1.386-4.147-.861-1.786.526-2.311 5.015-1.31 8.05.217.659 4.212 1.013 6.382.37z" fill="#2c3273"/><path d="m136.981 132.858c.354 1.478.32 3.717-2.118 3.804-1.332.046-2.006-1.397-2.159-2.364z" fill="#bf98c1"/><path d="m136.931 136.959c-4.638-.403-4.638-.537-4.909.537-.27 1.078.735 1.211 2.453 1.482 1.717.27 2.212.434 2.452.335s0-2.354 0-2.354" fill="#de5550"/><path d="m137.54 138.136c0-.651-.274-1.177-.609-1.177s-.609.53-.609 1.177.274 1.177.609 1.177.609-.526.609-1.177z" fill="#b54d4a"/><path d="m138.397 132.276c-.049-.157-.217-.244-.373-.198l-1.051.327c-.434-1.169-1.714-1.809-2.921-1.436-1.249.389-1.949 1.714-1.561 2.967l.05.16.034.106c.03.099.137.153.236.126l.107-.034 5.285-1.641c.156-.05.248-.217.198-.374" fill="#2c3273"/><path d="m131.859 139.198c.552-.453 2.201-.297 3.755.118 1.549.416 2.075.358 2.132.884.057.525.259 3.614-.206 4.2-.464.583-.818.537-1.283.746-.465.206-4.398-5.944-4.398-5.944" fill="#b54d4a"/><path d="m132.061 139.111c1.294-.084 4.333.483 4.459 1.112.129.628.708 4.524-.263 4.916s-3.724-.259-4.196-.48c-.473-.221-1.101-5.476 0-5.548" fill="#de5550"/><path d="m133.382 141.666c.814 0 1.412.232 1.576.407.16.176.251 1.763-.137 1.809-.388.042-1.816.175-1.847-.788-.03-.963.015-1.428.408-1.428" fill="#fad678"/><path d="m145.263 135.196-.602 3.306v.038 2.094l-.35 3.37v.008l-.381 4.98-.495 3.085-.51 3.419c-.015.111.061.217.171.233.111.015.217-.061.232-.172l.511-3.415.495-3.092v-.016l.381-4.984.35-3.378v-.023-2.086l.598-3.287c.019-.11-.054-.217-.164-.236s-.217.053-.236.164" fill="#33343f"/><path d="m143.873 139.343c.503-.087.849-.293 1.241.244.217.293-.327.674-1.096.674" fill="#bf98c1"/><path d="m137.674 137.294c.723.842 2.117 2.373 3.461 2.327 1.04-.034 2.353-.327 2.887-.457.133-.034.266.053.289.191l.145.792c.019.114-.038.224-.145.266-.632.248-2.787 1.017-4.337.663-1.836-.423-1.462-.202-1.836-.423" fill="#2c3273"/><path d="m176.514 86.5233c6.036 0 7.711 1.9116 9.246 3.233 0 0 1.534-3.6671 6.839-3.9717 0 0-5.864 4.204-6.839 6.2755 0 0-3.412-4.6267-9.246-5.5406" fill="#73737a"/><path d="m93.9733 142.013h31.1067v8.008c0 1.009-.818 1.831-1.831 1.831h-29.2795v-9.839z" fill="#e06762"/><path d="m82.7896 116.256c-.118-.183-.3198-.294-.5369-.294h-.9139c-.2513 0-.4798.145-.5826.37l-11.5723 25.159c-.1219.236-.118.521.019.758.1409.247.4075.399.6931.399h.6359c.2513 0 .476-.144.5826-.369l11.7208-25.418c.0914-.198.0762-.426-.0419-.605" fill="#ad403b"/><path d="m82.2526 116.598-11.5532 25.129c-.1105.186-.1714.404-.1714.624v8.275c0 .678.556 1.23 1.2376 1.23h22.2078v-9.84z" fill="#de5550"/><path d="m99.2938 149.366v-4.227c0-.465.3769-.838.8382-.838h7.745c.464 0 .838.377.838.838v4.227c0 .464-.377.837-.838.837h-7.745c-.4651 0-.8382-.377-.8382-.837z" fill="#e18c89"/><path d="m110.698 149.366v-4.227c0-.465.377-.838.838-.838h7.745c.465 0 .838.377.838.838v4.227c0 .464-.377.837-.838.837h-7.745c-.465 0-.838-.377-.838-.837z" fill="#e18c89"/><path d="m84.4198 150.87h-4.3372v.982h4.3372z" fill="#873330"/><path d="m99.3502 167.647v.138c0 .186.1523.338.3389.338h24.8469c.186 0 .339-.152.339-.338v-.138c0-.186-.153-.338-.339-.338h-24.8469c-.1866 0-.3389.152-.3389.338z" fill="#873330"/><path d="m99.3502 163.874v.137c0 .186.1523.339.3389.339h24.8469c.186 0 .339-.153.339-.339v-.137c0-.187-.153-.339-.339-.339h-24.8469c-.1866 0-.3389.152-.3389.339z" fill="#873330"/><path d="m101.453 160.1v.137c0 .187.152.339.338.339h21.55c.186 0 .338-.152.338-.339v-.137c0-.186-.152-.339-.338-.339h-21.55c-.186 0-.338.153-.338.339" fill="#873330"/><path d="m105.713 152.549v.137c0 .187.153.339.339.339h13.031c.186 0 .339-.152.339-.339v-.137c0-.187-.153-.339-.339-.339h-13.031c-.186 0-.339.152-.339.339" fill="#873330"/><path d="m80.0823 150.87v-4.76c0-.423.3427-.766.7654-.766h2.8027c.4226 0 .7654.343.7654.766v4.76z" fill="#ad403b"/><path d="m80.493 126.518c0-.963.7883-1.744 1.7593-1.744s1.7593.781 1.7593 1.744h-3.5148z" fill="#ad403b"/><path d="m107.69 111.732h2.741c.606 0 1.097-.491 1.097-1.097 0-.605-.491-1.097-1.097-1.097h-2.741c-.606 0-1.097.492-1.097 1.097 0 .606.491 1.097 1.097 1.097z" fill="#73737a"/><path d="m109.377 108.784h4.181c.605 0 1.096-.491 1.096-1.096 0-.606-.491-1.097-1.096-1.097h-4.181c-.606 0-1.097.491-1.097 1.097 0 .605.491 1.096 1.097 1.096z" fill="#73737a"/><path d="m108.417 105.837h4.516c.606 0 1.097-.491 1.097-1.097 0-.605-.491-1.096-1.097-1.096h-4.516c-.606 0-1.097.491-1.097 1.096 0 .606.491 1.097 1.097 1.097z" fill="#73737a"/><path d="m109.266 114.1h-3.8c-.145 0-.259.118-.259.259v1.881c0 .408.331.739.738.739h2.841c.408 0 .739-.331.739-.739v-1.881c0-.144-.118-.259-.259-.259z" fill="#de5550"/><g fill="#33343f"><path d="m67.4403 156.981v-4.021c0-.202-.1638-.365-.3656-.365s-.3655.163-.3655.365v4.021c0 .202.1637.366.3655.366s.3656-.164.3656-.366z"/><path d="m81.2204 153.337h-3.6404c-.2018 0-.3655.164-.3655.366s.1637.365.3655.365h3.6404c.2018 0 .3656-.163.3656-.365s-.1638-.366-.3656-.366z"/><path d="m79.1988 154.335h-3.6404c-.2019 0-.3656.164-.3656.365 0 .202.1637.366.3656.366h3.6404c.2018 0 .3655-.164.3655-.366 0-.201-.1637-.365-.3655-.365z"/><path d="m77.1763 155.333h-3.6403c-.2019 0-.3656.163-.3656.365s.1637.366.3656.366h3.6403c.2019 0 .3656-.164.3656-.366s-.1637-.365-.3656-.365z"/><path d="m75.1547 156.616h-3.6404c-.2018 0-.3656.164-.3656.365 0 .202.1638.366.3656.366h3.6404c.2018 0 .3655-.164.3655-.366 0-.201-.1637-.365-.3655-.365z"/><path d="m83.2429 152.34h-3.6404c-.2018 0-.3656.163-.3656.365s.1638.366.3656.366h3.6404c.2018 0 .3655-.164.3655-.366s-.1637-.365-.3655-.365z"/><path d="m68.7154 152.96h-3.2825c-.2894 0-.5216-.232-.5216-.521v-1.219c0-.289.2322-.522.5216-.522h3.2825c.2894 0 .5217.233.5217.522v1.219c0 .289-.2323.521-.5217.521z"/></g><path d="m67.2037 152.031 1.3404-1.329c.0723-.072.0723-.186 0-.259-.0724-.072-.1866-.072-.2589 0l-1.3404 1.329c-.0724.073-.0724.187 0 .259.0723.072.1866.072.2589 0z" fill="#de5550"/><path d="m66.1189 151.049h-.5407c-.1637 0-.297.133-.297.297v.967c0 .164.1333.297.297.297h.5407c.1638 0 .2971-.133.2971-.297v-.967c0-.164-.1333-.297-.2971-.297z" fill="#64646b"/><path d="m109.715 114.508h-4.691c-.183 0-.335-.149-.335-.335v-.56c0-.183.148-.331.335-.331h4.691c.183 0 .335.148.335.331v.56c0 .182-.148.335-.335.335z" fill="#de5550"/><path d="m126.447 141.495-11.572-25.159c-.103-.225-.331-.374-.583-.374h-32.9573c-.2171 0-.4227.111-.5369.294-.1181.182-.1333.411-.0419.605l11.6751 25.338.0305.061c.1447.24.4074.388.6892.388h32.5883c.286 0 .552-.152.693-.399.133-.233.141-.518.019-.754" fill="#e18c89"/><path d="m83.4294 118.083c.0952.206.3009.339.5293.339h29.7663l-.064-.137c-.096-.205-.301-.339-.53-.339h-29.7701l.0647.137z" fill="#de7e7b"/><path d="m115.523 122.329c-.096-.205-.301-.339-.53-.339h-29.7663l.0648.137c.0952.206.3008.339.5293.339h29.7662z" fill="#de7e7b"/><path d="m117.385 126.373c-.096-.205-.301-.339-.53-.339h-29.7624l.0647.137c.0952.206.3009.339.5293.339h29.7624z" fill="#de7e7b"/><path d="m119.243 130.417c-.096-.205-.301-.339-.53-.339h-29.7586l.0647.137c.0952.206.3009.339.5293.339h29.7586z" fill="#de7e7b"/><path d="m121.105 134.461c-.096-.205-.301-.339-.53-.339h-29.7548l.0647.138c.0952.205.3009.338.5293.338h29.7548z" fill="#de7e7b"/><path d="m122.978 138.532c-.186-.118-.384-.248-.571-.366h-29.721l.0648.138c.0952.205.3008.338.5293.338h29.5039c.084 0 .156-.045.198-.11" fill="#de7e7b"/><path d="m126.154 150.378-.232 2.613c-.027.312.152.582.381.582h.461c.232 0 .411-.274.38-.582l-.232-2.613c-.023-.262-.187-.46-.385-.46s-.358.198-.38.46" fill="#33343f"/><path d="m126.524 132.759c-.789-.221-1.645 8.442-2.152 12.311-.502 3.873-1.496 6.18 1.836 6.18 3.331 0 3.271.724 2.779-4.839-.491-5.564-1.473-13.378-2.467-13.656" fill="#2b6059"/><path d="m113.798 152.705c-.259.012-1.969-.464-1.9-1.344.068-.884.156-2.136 1.561-2.498 1.336-.343 3.183-.168 3.183 1.919s-1.256 1.862-2.844 1.923" fill="#2b6059"/><path d="m109.81 152.659c-2.806-.091-2.151-1.226-1.538-2.631.617-1.405 3.941-.967 3.941 1.333 0 1.173-1.885 1.314-2.406 1.298" fill="#2b6059"/><path d="m118.87 152.473c-1.683.103-2.658-2.056-1.047-2.997 1.614-.944 4.01-.453 3.579 1.466-.43 1.923-.24 1.39-2.536 1.531" fill="#2b6059"/><path d="m120.762 150.744-.244 2.985c-.03.355.16.667.408.667h.491c.244 0 .434-.312.408-.667l-.248-2.985c-.023-.301-.198-.525-.407-.525-.21 0-.381.224-.408.525" fill="#33343f"/><path d="m122.229 131.548c-.731-.502-5.069 12.696-4.284 16.074.7 3.034 2.323 4.561 3.355 4.474 1.9-.16 2.539-1.992 3.088-4.265.548-2.273-1.287-15.681-2.156-16.283" fill="#2b6059"/><path d="m188.09 144.667-.232 2.612c-.027.312.152.582.381.582h.464c.232 0 .411-.274.381-.582l-.232-2.612c-.023-.263-.187-.461-.381-.461s-.358.198-.381.461z" fill="#33343f"/><path d="m188.459 127.051c-.788-.221-1.645 8.442-2.151 12.311-.503 3.873-1.497 6.18 1.835 6.18s3.271.724 2.78-4.839c-.491-5.564-1.473-13.378-2.467-13.656" fill="#2b6059"/><path d="m182.695 145.032-.248 2.986c-.03.354.16.666.408.666h.491c.243 0 .434-.312.407-.666l-.247-2.986c-.027-.301-.198-.525-.408-.525-.209 0-.381.224-.407.525" fill="#33343f"/><path d="m184.165 125.84c-.732-.502-5.069 12.696-4.284 16.073.7 3.035 2.322 4.562 3.354 4.475 1.901-.16 2.54-1.992 3.089-4.265.548-2.273-1.287-15.681-2.156-16.283" fill="#2b6059"/><path d="m198.619 144.396-.373 4.159c-.046.495.244.929.617.929h.746c.373 0 .663-.434.617-.929l-.373-4.159c-.038-.419-.301-.731-.617-.731s-.579.316-.617.731" fill="#33343f"/><path d="m64.089 143.57-.3732 4.158c-.0457.495.2437.929.6169.929h.7464c.3731 0 .6625-.434.6168-.929l-.3731-4.158c-.0381-.419-.3009-.731-.6169-.731-.3161 0-.5788.312-.6169.731" fill="#33343f"/><path d="m199.979 145.07c-4.97.069-6.12-4.725-5.034-10.201 1.085-5.476 4.554-12.981 3.674-17.014-.879-4.033 4.28-.377 4.753 9.093.072 1.421.144 2.818.205 4.174.019.438-1.424.872-1.409 1.302.019.484 1.497.967 1.508 1.436.164 6.37-.327 11.168-3.701 11.214" fill="#2b6059"/><path d="m160.369 101.53v50.303c0 .91.735 1.645 1.645 1.645s1.645-.735 1.645-1.645v-50.303c0-.91-.735-1.6447-1.645-1.6447s-1.645.7347-1.645 1.6447" fill="#33343f"/><path d="m200.302 124.82h-32.702c-1.021 0-1.847-.827-1.847-1.847v-21.458c0-1.02.826-1.8467 1.847-1.8467h32.702c1.021 0 1.847.8267 1.847 1.8467v21.458c0 1.02-.826 1.847-1.847 1.847z" fill="#fff"/><path d="m176.773 115.136c.457.564 1.074.845 1.847.845s1.386-.281 1.839-.845c.454-.563.678-1.336.678-2.311v-5.103l2.746-1.637v6.827c0 1.771-.491 3.127-1.478 4.079-.986.948-2.246 1.424-3.781 1.424s-2.803-.476-3.793-1.432-1.489-2.311-1.489-4.067v-5.19l2.746-1.638v6.74c0 .979.228 1.748.685 2.312" fill="#6abba3"/><path d="m191.255 111.976c.328-.366.491-.903.491-1.607 0-.705-.213-1.204-.643-1.501-.431-.297-1.093-.445-1.996-.445h-1.565v4.101h1.847c.914 0 1.535-.183 1.866-.548m2.014-4.802c.861.727 1.291 1.847 1.291 3.351s-.441 2.608-1.329 3.309c-.887.697-2.239 1.047-4.055 1.047h-1.638v1.767l-2.745 1.637v-12.204h4.345c1.889 0 3.263.365 4.128 1.093" fill="#6abba3"/><path d="m114.839 34.4884c0 19.0473-15.5627 34.4884-34.7585 34.4884s-34.7588-15.4411-34.7588-34.4884c0-19.0472 15.563-34.4884 34.7588-34.4884s34.7585 15.4412 34.7585 34.4884z" fill="#fad678"/><path d="m114.309 68.8778c17.029-.1104 38.883 1.6793 38.719-1.7783-.16-3.4576-8.465-1.2376-14.531-3.3776-6.062-2.1363-7.585-4.1926-12.406-1.8469s-3.579 4.4172-8.865 2.5323c-5.281-1.8849-17.699 4.5619-2.924 4.4667" fill="#f2f3f3"/><path d="m46.045 46.6852c15.8029.2437 30.1054 2.1819 25.1513-3.1111-1.2375-1.3213-8.0233-4.063-15.9552-2.5932-7.9281 1.4661-7.2312 3.2482-19.1158 1.9497-10.3728-1.1348-10.1976 2.0905-3.29 3.1644 4.4324.6892 6.7057.4912 13.2097.5902" fill="#f2f3f3"/><path d="m50.1461 66.5474c6.0089 0 7.951 1.7097 8.8192 3.0615 0 0 1.1804-2.8331 6.9685-3.6556 0 0-4.5467 2.5285-6.9152 6.0508 0 0-5.5025-5.2206-8.8725-5.4567" fill="#73737a"/></svg>