<svg width="244" height="169" viewBox="0 0 244 169" fill="none" xmlns="http://www.w3.org/2000/svg">
  <path d="M236.375 153.703L40.5558 162.328L53.9026 122.516C54.4967 123.689 64.3821 106.009 64.3821 106.009C64.9152 104.859 66.5297 104.779 67.1771 105.871L73.6087 116.747C74.2865 117.889 76.0001 117.733 76.4532 116.488L93.8783 68.6223C94.3581 67.2971 96.2202 67.2286 96.8028 68.5118L107.888 93.0082C108.341 94.0097 109.666 94.2496 110.447 93.469L120.964 82.9667C121.798 82.1328 123.226 82.4755 123.584 83.595L131.607 108.503C132.034 109.832 133.865 109.984 134.513 108.743L141.641 95.0455C142.288 93.8003 144.132 93.9602 144.55 95.2968L150.666 114.805C151.157 116.378 153.45 116.225 153.727 114.603L161.975 66.3032C162.269 64.5821 164.759 64.5592 165.083 66.2766L166.979 76.3181C167.291 77.9822 169.671 78.0355 170.064 76.3905L177.188 46.4639C177.569 44.857 179.873 44.857 180.257 46.4639L191.346 92.6046C191.757 94.3182 194.263 94.1544 194.449 92.4066L197.481 63.7672C197.652 62.1526 199.88 61.8327 200.508 63.3293L217.259 103.332L236.39 153.703H236.375Z" fill="#214C45"/>
  <path d="M38.3501 150.641C38.3501 150.641 140.911 132.224 206.515 148.813C206.515 148.813 245.785 152.091 243.937 156.586C242.088 161.082 88.2452 171.45 45.7397 166.264C3.2383 161.078 38.346 150.641 38.346 150.641" fill="#E4E7B5"/>
  <path d="M78.4565 139.907L78.0452 144.716C77.9957 145.287 78.3156 145.79 78.7268 145.79H79.5494C79.9606 145.79 80.2767 145.287 80.2272 144.716L79.8159 139.907C79.774 139.423 79.4846 139.061 79.1343 139.061C78.784 139.061 78.4946 139.427 78.4565 139.907" fill="#33343F"/>
  <path d="M87.7816 138.463L87.4618 143.201C87.4237 143.764 87.6712 144.259 87.9911 144.259H88.6308C88.9507 144.259 89.1982 143.764 89.1601 143.201L88.8402 138.463C88.8098 137.987 88.5813 137.63 88.3109 137.63C88.0406 137.63 87.8159 137.987 87.7816 138.463Z" fill="#33343F"/>
  <path d="M47.0216 148.958L47.3033 153.851C47.3833 154.434 46.8692 154.944 46.2105 154.944H44.8891C44.2303 154.944 43.7163 154.434 43.7962 153.851L44.078 148.958C44.1466 148.467 44.9919 148.098 45.5479 148.098C46.1038 148.098 46.953 148.467 47.0177 148.958" fill="#33343F"/>
  <path d="M59.2838 126.034C59.299 125.81 60.7004 127.333 60.7194 127.112C60.7537 126.697 59.4133 124.542 59.459 124.142C60.3957 116.317 63.5525 111.465 64.9424 115.296C66.4427 119.428 72.7677 142.191 66.9415 142.873C61.1116 143.551 59.4475 142.725 59.28 137.77C59.1239 133.106 59.0325 130.166 59.2381 126.697C59.2495 126.48 59.2648 126.259 59.28 126.038" fill="#2B6059"/>
  <path d="M73.6168 116.545C71.3929 112.429 67.8211 135.002 68.0838 140.939C68.3466 146.875 76.3851 147.812 76.5146 140.939C76.6441 134.065 75.7378 120.475 73.6168 116.545" fill="#2B6059"/>
  <path d="M81.5561 115.616C79.2828 121.282 75.7414 132.097 76.8495 137.18C77.9576 142.264 80.17 143.608 81.5561 143.608C82.9422 143.608 86.4455 142.439 86.1256 132.828C85.8058 123.213 84.8804 107.341 81.5561 115.62" fill="#2B6059"/>
  <path d="M45.3578 149.27C60.342 148.615 61.3435 144.83 61.3435 140.687C61.3435 132.238 54.6339 125.973 45.3578 125.973C36.0817 125.973 30.7544 130.672 30.7544 141.635C30.7544 147.511 39.9962 149.506 45.3578 149.27" fill="#2B6059"/>
  <path d="M16.8213 92.3771C-4.61738 92.1105 -4.61738 90.6863 11.4597 79.967C27.5406 69.2477 25.3815 85.4847 36.7976 86.1701C48.2138 86.8556 38.8577 76.6694 58.9674 84.3461C79.0733 92.0191 77.8167 91.5507 55.3803 92.3771C32.9478 93.2034 23.5346 92.4608 16.8213 92.3771" fill="#F2F3F3"/>
  <path d="M136.375 154.853C136.329 155.409 136.375 155.801 136.805 155.656C137.236 155.512 138.275 155.382 138.241 155.058C138.207 154.731 137.708 154.929 137.308 154.773C136.942 154.632 136.375 154.853 136.375 154.853Z" fill="#33343F"/>
  <path d="M134.239 155.211C134.094 155.843 134.239 155.984 134.692 155.923C135.141 155.862 135.922 155.938 136.017 155.443C136.078 155.119 135.537 155.31 135.199 155.161C134.837 155.005 134.239 155.211 134.239 155.211" fill="#33343F"/>
  <path d="M133.146 145.268C133.058 145.268 132.994 145.348 133.017 145.432C133.317 146.513 133.881 149.487 134.018 150.706C134.144 151.841 134.136 154.567 134.132 155.211C134.132 155.287 134.197 155.344 134.269 155.34L135.301 155.279C135.366 155.279 135.416 155.23 135.423 155.165C135.499 154.567 135.865 151.586 135.865 150.005V147.504C135.865 147.504 136.265 149.095 136.322 150.234C136.371 151.235 136.333 154.213 136.322 154.918C136.322 154.998 136.39 155.058 136.47 155.047L137.445 154.91L137.556 154.807C137.67 154.225 138.294 150.946 138.409 149.552C138.519 148.223 138.66 146.098 138.698 145.546C138.702 145.47 138.645 145.413 138.572 145.409L133.142 145.272L133.146 145.268Z" fill="#4B6FB0"/>
  <path d="M133.13 137.698C132.095 138.212 130.111 139.971 129.364 140.977C128.618 141.982 131.352 144.61 132.464 144.937L132.963 144.183C132.963 144.183 131.287 142.618 131.185 141.666C131.082 140.714 132.963 139.747 132.963 139.747" fill="#2C3273"/>
  <path d="M138.911 145.516C139.886 145.226 138.051 139.248 137.986 137.957C137.925 136.666 135.625 136.571 133.839 137.096C132.053 137.622 131.528 142.111 132.529 145.146C132.746 145.805 136.741 146.159 138.911 145.516Z" fill="#2C3273"/>
  <path d="M136.981 132.858C137.335 134.336 137.301 136.575 134.863 136.662C133.531 136.708 132.857 135.265 132.704 134.298L136.981 132.858V132.858Z" fill="#BF98C1"/>
  <path d="M136.931 136.959C132.293 136.556 132.293 136.422 132.022 137.496C131.752 138.574 132.757 138.707 134.475 138.978C136.192 139.248 136.687 139.412 136.927 139.313C137.167 139.214 136.927 136.959 136.927 136.959" fill="#DE5550"/>
  <path d="M137.54 138.136C137.54 137.485 137.266 136.959 136.931 136.959C136.596 136.959 136.322 137.489 136.322 138.136C136.322 138.783 136.596 139.313 136.931 139.313C137.266 139.313 137.54 138.787 137.54 138.136Z" fill="#B54D4A"/>
  <path d="M138.397 132.276C138.348 132.119 138.18 132.032 138.024 132.078L136.973 132.405C136.539 131.236 135.259 130.596 134.052 130.969C132.803 131.358 132.103 132.683 132.491 133.936L132.541 134.096L132.575 134.202C132.605 134.301 132.712 134.355 132.811 134.328L132.918 134.294L138.203 132.653C138.359 132.603 138.451 132.436 138.401 132.279" fill="#2C3273"/>
  <path d="M131.859 139.198C132.411 138.745 134.06 138.901 135.614 139.316C137.163 139.732 137.689 139.674 137.746 140.2C137.803 140.725 138.005 143.814 137.54 144.4C137.076 144.983 136.722 144.937 136.257 145.146C135.792 145.352 131.859 139.202 131.859 139.202" fill="#B54D4A"/>
  <path d="M132.061 139.111C133.355 139.027 136.394 139.594 136.52 140.223C136.649 140.851 137.228 144.747 136.257 145.139C135.286 145.531 132.533 144.88 132.061 144.659C131.588 144.438 130.96 139.183 132.061 139.111" fill="#DE5550"/>
  <path d="M133.382 141.666C134.196 141.666 134.794 141.898 134.958 142.073C135.118 142.249 135.209 143.836 134.821 143.882C134.433 143.924 133.005 144.057 132.974 143.094C132.944 142.131 132.989 141.666 133.382 141.666" fill="#FAD678"/>
  <path d="M145.263 135.196L144.661 138.502V138.54V140.634L144.311 144.004V144.012L143.93 148.992L143.435 152.077L142.925 155.496C142.91 155.607 142.986 155.713 143.096 155.729C143.207 155.744 143.313 155.668 143.328 155.557L143.839 152.142L144.334 149.05V149.034L144.715 144.05L145.065 140.672V140.649V138.563L145.663 135.276C145.682 135.166 145.609 135.059 145.499 135.04C145.389 135.021 145.282 135.093 145.263 135.204" fill="#33343F"/>
  <path d="M143.873 139.343C144.376 139.256 144.722 139.05 145.114 139.587C145.331 139.88 144.787 140.261 144.018 140.261" fill="#BF98C1"/>
  <path d="M137.674 137.294C138.397 138.136 139.791 139.667 141.135 139.621C142.175 139.587 143.488 139.294 144.022 139.164C144.155 139.13 144.288 139.217 144.311 139.355L144.456 140.147C144.475 140.261 144.418 140.371 144.311 140.413C143.679 140.661 141.524 141.43 139.974 141.076C138.138 140.653 138.512 140.874 138.138 140.653" fill="#2C3273"/>
  <path d="M176.514 86.5233C182.55 86.5233 184.225 88.4349 185.76 89.7563C185.76 89.7563 187.294 86.0892 192.599 85.7846C192.599 85.7846 186.735 89.9886 185.76 92.0601C185.76 92.0601 182.348 87.4334 176.514 86.5195" fill="#73737A"/>
  <path d="M93.9733 142.013H125.08V150.021C125.08 151.03 124.262 151.852 123.249 151.852H93.9695V142.013H93.9733Z" fill="#E06762"/>
  <path d="M82.7896 116.256C82.6716 116.073 82.4698 115.962 82.2527 115.962H81.3388C81.0875 115.962 80.859 116.107 80.7562 116.332L69.1839 141.491C69.062 141.727 69.0659 142.012 69.2029 142.249C69.3438 142.496 69.6104 142.648 69.896 142.648H70.5319C70.7832 142.648 71.0079 142.504 71.1145 142.279L82.8353 116.861C82.9267 116.663 82.9115 116.435 82.7934 116.256" fill="#AD403B"/>
  <path d="M82.2526 116.598L70.6994 141.727C70.5889 141.913 70.528 142.131 70.528 142.351V150.626C70.528 151.304 71.084 151.856 71.7656 151.856H93.9734V142.016L82.2526 116.598V116.598Z" fill="#DE5550"/>
  <path d="M99.2938 149.366V145.139C99.2938 144.674 99.6707 144.301 100.132 144.301H107.877C108.341 144.301 108.715 144.678 108.715 145.139V149.366C108.715 149.83 108.338 150.203 107.877 150.203H100.132C99.6669 150.203 99.2938 149.826 99.2938 149.366Z" fill="#E18C89"/>
  <path d="M110.698 149.366V145.139C110.698 144.674 111.075 144.301 111.536 144.301H119.281C119.746 144.301 120.119 144.678 120.119 145.139V149.366C120.119 149.83 119.742 150.203 119.281 150.203H111.536C111.071 150.203 110.698 149.826 110.698 149.366Z" fill="#E18C89"/>
  <path d="M84.4198 150.87H80.0826V151.852H84.4198V150.87Z" fill="#873330"/>
  <path d="M99.3502 167.647V167.785C99.3502 167.971 99.5025 168.123 99.6891 168.123H124.536C124.722 168.123 124.875 167.971 124.875 167.785V167.647C124.875 167.461 124.722 167.309 124.536 167.309H99.6891C99.5025 167.309 99.3502 167.461 99.3502 167.647Z" fill="#873330"/>
  <path d="M99.3502 163.874V164.011C99.3502 164.197 99.5025 164.35 99.6891 164.35H124.536C124.722 164.35 124.875 164.197 124.875 164.011V163.874C124.875 163.687 124.722 163.535 124.536 163.535H99.6891C99.5025 163.535 99.3502 163.687 99.3502 163.874Z" fill="#873330"/>
  <path d="M101.453 160.1V160.237C101.453 160.424 101.605 160.576 101.791 160.576H123.341C123.527 160.576 123.679 160.424 123.679 160.237V160.1C123.679 159.914 123.527 159.761 123.341 159.761H101.791C101.605 159.761 101.453 159.914 101.453 160.1" fill="#873330"/>
  <path d="M105.713 152.549V152.686C105.713 152.873 105.866 153.025 106.052 153.025H119.083C119.269 153.025 119.422 152.873 119.422 152.686V152.549C119.422 152.362 119.269 152.21 119.083 152.21H106.052C105.866 152.21 105.713 152.362 105.713 152.549" fill="#873330"/>
  <path d="M80.0823 150.87V146.11C80.0823 145.687 80.425 145.344 80.8477 145.344H83.6504C84.073 145.344 84.4158 145.687 84.4158 146.11V150.87H80.0823Z" fill="#AD403B"/>
  <path d="M80.493 126.518C80.493 125.555 81.2813 124.774 82.2523 124.774C83.2233 124.774 84.0116 125.555 84.0116 126.518H80.4968H80.493Z" fill="#AD403B"/>
  <path d="M107.69 111.732H110.431C111.037 111.732 111.528 111.241 111.528 110.635C111.528 110.03 111.037 109.538 110.431 109.538H107.69C107.084 109.538 106.593 110.03 106.593 110.635C106.593 111.241 107.084 111.732 107.69 111.732Z" fill="#73737A"/>
  <path d="M109.377 108.784H113.558C114.163 108.784 114.654 108.293 114.654 107.688C114.654 107.082 114.163 106.591 113.558 106.591H109.377C108.771 106.591 108.28 107.082 108.28 107.688C108.28 108.293 108.771 108.784 109.377 108.784Z" fill="#73737A"/>
  <path d="M108.417 105.837H112.933C113.539 105.837 114.03 105.346 114.03 104.74C114.03 104.135 113.539 103.644 112.933 103.644H108.417C107.811 103.644 107.32 104.135 107.32 104.74C107.32 105.346 107.811 105.837 108.417 105.837Z" fill="#73737A"/>
  <path d="M109.266 114.1H105.466C105.321 114.1 105.207 114.218 105.207 114.359V116.24C105.207 116.648 105.538 116.979 105.945 116.979H108.786C109.194 116.979 109.525 116.648 109.525 116.24V114.359C109.525 114.215 109.407 114.1 109.266 114.1Z" fill="#DE5550"/>
  <path d="M67.4403 156.981V152.96C67.4403 152.758 67.2765 152.595 67.0747 152.595C66.8729 152.595 66.7092 152.758 66.7092 152.96V156.981C66.7092 157.183 66.8729 157.347 67.0747 157.347C67.2765 157.347 67.4403 157.183 67.4403 156.981Z" fill="#33343F"/>
  <path d="M81.2204 153.337H77.58C77.3782 153.337 77.2145 153.501 77.2145 153.703C77.2145 153.905 77.3782 154.068 77.58 154.068H81.2204C81.4222 154.068 81.586 153.905 81.586 153.703C81.586 153.501 81.4222 153.337 81.2204 153.337Z" fill="#33343F"/>
  <path d="M79.1988 154.335H75.5584C75.3565 154.335 75.1928 154.499 75.1928 154.7C75.1928 154.902 75.3565 155.066 75.5584 155.066H79.1988C79.4006 155.066 79.5643 154.902 79.5643 154.7C79.5643 154.499 79.4006 154.335 79.1988 154.335Z" fill="#33343F"/>
  <path d="M77.1763 155.333H73.536C73.3341 155.333 73.1704 155.496 73.1704 155.698C73.1704 155.9 73.3341 156.064 73.536 156.064H77.1763C77.3782 156.064 77.5419 155.9 77.5419 155.698C77.5419 155.496 77.3782 155.333 77.1763 155.333Z" fill="#33343F"/>
  <path d="M75.1547 156.616H71.5143C71.3125 156.616 71.1487 156.78 71.1487 156.981C71.1487 157.183 71.3125 157.347 71.5143 157.347H75.1547C75.3565 157.347 75.5202 157.183 75.5202 156.981C75.5202 156.78 75.3565 156.616 75.1547 156.616Z" fill="#33343F"/>
  <path d="M83.2429 152.34H79.6025C79.4007 152.34 79.2369 152.503 79.2369 152.705C79.2369 152.907 79.4007 153.071 79.6025 153.071H83.2429C83.4447 153.071 83.6084 152.907 83.6084 152.705C83.6084 152.503 83.4447 152.34 83.2429 152.34Z" fill="#33343F"/>
  <path d="M68.7154 152.96H65.4329C65.1435 152.96 64.9113 152.728 64.9113 152.439V151.22C64.9113 150.931 65.1435 150.698 65.4329 150.698H68.7154C69.0048 150.698 69.2371 150.931 69.2371 151.22V152.439C69.2371 152.728 69.0048 152.96 68.7154 152.96Z" fill="#33343F"/>
  <path d="M67.2037 152.031L68.5441 150.702C68.6164 150.63 68.6164 150.516 68.5441 150.443C68.4717 150.371 68.3575 150.371 68.2852 150.443L66.9448 151.772C66.8724 151.845 66.8724 151.959 66.9448 152.031C67.0171 152.103 67.1314 152.103 67.2037 152.031Z" fill="#DE5550"/>
  <path d="M66.1189 151.049H65.5782C65.4145 151.049 65.2812 151.182 65.2812 151.346V152.313C65.2812 152.477 65.4145 152.61 65.5782 152.61H66.1189C66.2827 152.61 66.416 152.477 66.416 152.313V151.346C66.416 151.182 66.2827 151.049 66.1189 151.049Z" fill="#64646B"/>
  <path d="M109.715 114.508H105.024C104.841 114.508 104.689 114.359 104.689 114.173V113.613C104.689 113.43 104.837 113.282 105.024 113.282H109.715C109.898 113.282 110.05 113.43 110.05 113.613V114.173C110.05 114.355 109.902 114.508 109.715 114.508Z" fill="#DE5550"/>
  <path d="M126.447 141.495L114.875 116.336C114.772 116.111 114.544 115.962 114.292 115.962H81.3347C81.1176 115.962 80.912 116.073 80.7978 116.256C80.6797 116.438 80.6645 116.667 80.7559 116.861L92.431 142.199L92.4615 142.26C92.6062 142.5 92.8689 142.648 93.1507 142.648H125.739C126.025 142.648 126.291 142.496 126.432 142.249C126.565 142.016 126.573 141.731 126.451 141.495" fill="#E18C89"/>
  <path d="M83.4294 118.083C83.5246 118.289 83.7303 118.422 83.9587 118.422H113.725L113.661 118.285C113.565 118.08 113.36 117.946 113.131 117.946H83.3609L83.4256 118.083H83.4294Z" fill="#DE7E7B"/>
  <path d="M115.523 122.329C115.427 122.124 115.222 121.99 114.993 121.99H85.2267L85.2915 122.127C85.3867 122.333 85.5923 122.466 85.8208 122.466H115.587L115.523 122.329V122.329Z" fill="#DE7E7B"/>
  <path d="M117.385 126.373C117.289 126.168 117.084 126.034 116.855 126.034H87.0926L87.1573 126.171C87.2525 126.377 87.4582 126.51 87.6866 126.51H117.449L117.385 126.373V126.373Z" fill="#DE7E7B"/>
  <path d="M119.243 130.417C119.147 130.212 118.942 130.078 118.713 130.078H88.9544L89.0191 130.215C89.1143 130.421 89.32 130.554 89.5484 130.554H119.307L119.243 130.417V130.417Z" fill="#DE7E7B"/>
  <path d="M121.105 134.461C121.009 134.256 120.804 134.122 120.575 134.122H90.8202L90.8849 134.26C90.9801 134.465 91.1858 134.598 91.4142 134.598H121.169L121.105 134.461Z" fill="#DE7E7B"/>
  <path d="M122.978 138.532C122.792 138.414 122.594 138.284 122.407 138.166H92.686L92.7508 138.304C92.846 138.509 93.0516 138.642 93.2801 138.642H122.784C122.868 138.642 122.94 138.597 122.982 138.532" fill="#DE7E7B"/>
  <path d="M126.154 150.378L125.922 152.991C125.895 153.303 126.074 153.573 126.303 153.573H126.764C126.996 153.573 127.175 153.299 127.144 152.991L126.912 150.378C126.889 150.116 126.725 149.918 126.527 149.918C126.329 149.918 126.169 150.116 126.147 150.378" fill="#33343F"/>
  <path d="M126.524 132.759C125.735 132.538 124.879 141.201 124.372 145.07C123.87 148.943 122.876 151.25 126.208 151.25C129.539 151.25 129.479 151.974 128.987 146.411C128.496 140.847 127.514 133.033 126.52 132.755" fill="#2B6059"/>
  <path d="M113.798 152.705C113.539 152.717 111.829 152.241 111.898 151.361C111.966 150.477 112.054 149.225 113.459 148.863C114.795 148.52 116.642 148.695 116.642 150.782C116.642 152.869 115.386 152.644 113.798 152.705" fill="#2B6059"/>
  <path d="M109.81 152.659C107.004 152.568 107.659 151.433 108.272 150.028C108.889 148.623 112.213 149.061 112.213 151.361C112.213 152.534 110.328 152.675 109.807 152.659" fill="#2B6059"/>
  <path d="M118.87 152.473C117.187 152.576 116.212 150.417 117.823 149.476C119.437 148.532 121.833 149.023 121.402 150.942C120.972 152.865 121.162 152.332 118.866 152.473" fill="#2B6059"/>
  <path d="M120.762 150.744L120.518 153.729C120.488 154.084 120.678 154.396 120.926 154.396H121.417C121.661 154.396 121.851 154.084 121.825 153.729L121.577 150.744C121.554 150.443 121.379 150.219 121.17 150.219C120.96 150.219 120.789 150.443 120.762 150.744" fill="#33343F"/>
  <path d="M122.229 131.548C121.498 131.046 117.16 144.244 117.945 147.622C118.645 150.656 120.268 152.183 121.3 152.096C123.2 151.936 123.839 150.104 124.388 147.831C124.936 145.558 123.101 132.15 122.232 131.548" fill="#2B6059"/>
  <path d="M188.09 144.667L187.858 147.279C187.831 147.591 188.01 147.861 188.239 147.861H188.703C188.935 147.861 189.114 147.587 189.084 147.279L188.852 144.667C188.829 144.404 188.665 144.206 188.471 144.206C188.277 144.206 188.113 144.404 188.09 144.667Z" fill="#33343F"/>
  <path d="M188.459 127.051C187.671 126.83 186.814 135.493 186.308 139.362C185.805 143.235 184.811 145.542 188.143 145.542C191.475 145.542 191.414 146.266 190.923 140.703C190.432 135.139 189.45 127.325 188.456 127.047" fill="#2B6059"/>
  <path d="M182.695 145.032L182.447 148.018C182.417 148.372 182.607 148.684 182.855 148.684H183.346C183.589 148.684 183.78 148.372 183.753 148.018L183.506 145.032C183.479 144.731 183.308 144.507 183.098 144.507C182.889 144.507 182.717 144.731 182.691 145.032" fill="#33343F"/>
  <path d="M184.165 125.84C183.433 125.338 179.096 138.536 179.881 141.913C180.581 144.948 182.203 146.475 183.235 146.388C185.136 146.228 185.775 144.396 186.324 142.123C186.872 139.85 185.037 126.442 184.168 125.84" fill="#2B6059"/>
  <path d="M198.619 144.396L198.246 148.555C198.2 149.05 198.49 149.484 198.863 149.484H199.609C199.982 149.484 200.272 149.05 200.226 148.555L199.853 144.396C199.815 143.977 199.552 143.665 199.236 143.665C198.92 143.665 198.657 143.981 198.619 144.396" fill="#33343F"/>
  <path d="M64.089 143.57L63.7158 147.728C63.6701 148.223 63.9595 148.657 64.3327 148.657H65.0791C65.4522 148.657 65.7416 148.223 65.6959 147.728L65.3228 143.57C65.2847 143.151 65.0219 142.839 64.7059 142.839C64.3898 142.839 64.1271 143.151 64.089 143.57" fill="#33343F"/>
  <path d="M199.979 145.07C195.009 145.139 193.859 140.345 194.945 134.869C196.03 129.393 199.499 121.888 198.619 117.855C197.74 113.822 202.899 117.478 203.372 126.948C203.444 128.369 203.516 129.766 203.577 131.122C203.596 131.56 202.153 131.994 202.168 132.424C202.187 132.908 203.665 133.391 203.676 133.86C203.84 140.23 203.349 145.028 199.975 145.074" fill="#2B6059"/>
  <path d="M160.369 101.53V151.833C160.369 152.743 161.104 153.478 162.014 153.478C162.924 153.478 163.659 152.743 163.659 151.833V101.53C163.659 100.62 162.924 99.8853 162.014 99.8853C161.104 99.8853 160.369 100.62 160.369 101.53" fill="#33343F"/>
  <path d="M200.302 124.82H167.6C166.579 124.82 165.753 123.993 165.753 122.973V101.515C165.753 100.495 166.579 99.6683 167.6 99.6683H200.302C201.323 99.6683 202.149 100.495 202.149 101.515V122.973C202.149 123.993 201.323 124.82 200.302 124.82Z" fill="white"/>
  <path d="M176.773 115.136C177.23 115.7 177.847 115.981 178.62 115.981C179.393 115.981 180.006 115.7 180.459 115.136C180.913 114.573 181.137 113.8 181.137 112.825V107.722L183.883 106.085V112.912C183.883 114.683 183.392 116.039 182.405 116.991C181.419 117.939 180.159 118.415 178.624 118.415C177.089 118.415 175.821 117.939 174.831 116.983C173.841 116.027 173.342 114.672 173.342 112.916V107.726L176.088 106.088V112.828C176.088 113.807 176.316 114.576 176.773 115.14" fill="#6ABBA3"/>
  <path d="M191.255 111.976C191.583 111.61 191.746 111.073 191.746 110.369C191.746 109.664 191.533 109.165 191.103 108.868C190.672 108.571 190.01 108.423 189.107 108.423H187.542V112.524H189.389C190.303 112.524 190.924 112.341 191.255 111.976M193.269 107.174C194.13 107.901 194.56 109.021 194.56 110.525C194.56 112.029 194.119 113.133 193.231 113.834C192.344 114.531 190.992 114.881 189.176 114.881H187.538V116.648L184.793 118.285V106.081H189.138C191.027 106.081 192.401 106.446 193.266 107.174" fill="#6ABBA3"/>
  <path d="M114.839 34.4884C114.839 53.5357 99.2763 68.9768 80.0805 68.9768C60.8847 68.9768 45.3217 53.5357 45.3217 34.4884C45.3217 15.4412 60.8847 0 80.0805 0C99.2763 0 114.839 15.4412 114.839 34.4884Z" fill="#FAD678"/>
  <path d="M114.309 68.8778C131.338 68.7674 153.192 70.5571 153.028 67.0995C152.868 63.6419 144.563 65.8619 138.497 63.7219C132.435 61.5856 130.912 59.5293 126.091 61.875C121.27 64.2207 122.512 66.2922 117.226 64.4073C111.945 62.5224 99.527 68.9692 114.302 68.874" fill="#F2F3F3"/>
  <path d="M46.045 46.6852C61.8479 46.9289 76.1504 48.8671 71.1963 43.5741C69.9588 42.2528 63.173 39.5111 55.2411 40.9809C47.313 42.447 48.0099 44.2291 36.1253 42.9306C25.7525 41.7958 25.9277 45.0211 32.8353 46.095C37.2677 46.7842 39.541 46.5862 46.045 46.6852" fill="#F2F3F3"/>
  <path d="M50.1461 66.5474C56.155 66.5474 58.0971 68.2571 58.9653 69.6089C58.9653 69.6089 60.1457 66.7758 65.9338 65.9533C65.9338 65.9533 61.3871 68.4818 59.0186 72.0041C59.0186 72.0041 53.5161 66.7835 50.1461 66.5474" fill="#73737A"/>
</svg>
