<svg width="244" height="144" viewBox="0 0 244 144" fill="none" xmlns="http://www.w3.org/2000/svg">
  <path d="M119.754 73.396C119.754 73.396 121.12 81.3775 120.437 86.7021C121.334 87.5081 127.461 91.9945 127.461 91.9945L133.946 88.2657C133.946 88.2657 133.317 77.5574 133.317 72.9528C133.317 68.3481 119.754 73.396 119.754 73.396Z" fill="#DE8F5C"/>
  <path d="M169.678 31.9274C169.678 31.9274 170.345 22.6563 170.016 21.2163C169.686 19.7764 169.617 17.1356 171.497 17.6272C173.376 18.1188 173.103 22.7906 173.103 22.7906C173.103 22.7906 175.278 19.8354 176.962 19.8354C178.646 19.8354 181.967 23.6987 182.226 26.1058C182.486 28.5129 180.59 29.171 178.507 32.3975C176.424 35.624 169.678 31.9274 169.678 31.9274Z" fill="#F8A474"/>
  <path d="M74.7274 39.06C74.7274 39.06 72.4646 30.0442 72.5423 28.5827C72.62 27.1213 72.2263 24.494 70.4617 25.3053C68.697 26.1166 69.7602 30.6783 69.7602 30.6783C69.7602 30.6783 67.1092 28.153 65.449 28.4458C63.7887 28.7386 61.1886 33.1229 61.3493 35.5381C61.5099 37.9532 64.1207 38.5443 66.3433 41.0454C67.1065 41.9024 69.8244 43.5035 71.2892 43.13C72.6575 42.7701 74.7274 39.06 74.7274 39.06Z" fill="#F8A474"/>
  <path d="M68.8763 45.5157C68.8763 45.5157 73.8811 38.6436 77.3595 40.5563C80.8379 42.4691 83.8424 51.7026 94.765 66.3601C105.688 81.0176 113.148 80.08 115.86 81.9095C118.573 83.739 119.173 86.9977 123.586 86.9977C127.375 92.9966 127.643 93.7569 132.409 86.0843C136.798 85.4234 153.831 67.3138 157.195 60.4955C166.336 42.0259 166.835 35.0034 168.859 34.0739C172.584 33.4184 177.484 36.841 177.484 36.841C177.484 36.841 180.62 61.9489 177.007 74.3658C173.438 86.6296 148.81 137.668 148.81 137.668H106.622C106.622 137.668 86.4023 93.4937 78.0637 78.6213C71.3693 66.6987 68.8763 45.5157 68.8763 45.5157Z" fill="#FDD157"/>
  <path d="M68.8763 45.4996C68.8763 45.4996 73.8811 38.6276 77.3595 40.5404C80.8379 42.4531 83.8451 51.6892 94.765 66.3494C105.685 81.0096 113.148 80.0693 115.858 81.9015C118.568 83.7337 119.173 86.9897 123.586 86.9897C127.375 92.9913 127.643 93.7489 132.409 86.0763C136.798 85.4154 153.831 67.3031 157.195 60.4848C166.336 42.0098 166.835 34.9846 168.859 34.0578C172.586 33.4023 177.562 37.6227 177.562 37.6227C177.562 37.6227 179.771 56.4524 178.432 61.9946C173.682 81.7 153.186 86.6458 145.581 94.9175C136.819 104.449 108.124 125.957 108.124 125.957L106.62 137.668C106.62 137.668 86.4024 93.4856 78.0611 78.6132C71.3694 66.6798 68.8763 45.4996 68.8763 45.4996Z" fill="#FDC757"/>
  <g opacity="0.33">
    <path opacity="0.33" d="M75.9724 46.5958L78.784 51.4314H73.1607L75.9724 46.5958Z" fill="white"/>
    <path opacity="0.33" d="M85.3446 61.6401L88.1562 66.4758H82.5329L85.3446 61.6401Z" fill="white"/>
    <path opacity="0.33" d="M172.372 72.386L175.184 77.2217H169.561L172.372 72.386Z" fill="white"/>
    <path opacity="0.33" d="M86.9512 78.2963L89.7629 83.132H84.1396L86.9512 78.2963Z" fill="white"/>
    <path opacity="0.33" d="M122.833 96.2958L125.645 101.131H120.022L122.833 96.2958Z" fill="white"/>
    <path opacity="0.33" d="M102.482 83.132L105.294 87.9677H99.6707L102.482 83.132Z" fill="white"/>
    <path opacity="0.33" d="M148.272 115.37L151.084 120.206H145.461L148.272 115.37Z" fill="white"/>
    <path opacity="0.33" d="M102.215 99.7882L105.026 104.624H99.4029L102.215 99.7882Z" fill="white"/>
    <path opacity="0.33" d="M127.921 107.848L130.733 112.683H125.109L127.921 107.848Z" fill="white"/>
    <path opacity="0.33" d="M153.896 74.2666L156.707 79.1022H151.084L153.896 74.2666Z" fill="white"/>
    <path opacity="0.33" d="M130.599 122.623L133.411 127.459H127.787L130.599 122.623Z" fill="white"/>
    <path opacity="0.33" d="M166.213 52.7747L169.025 57.6104H163.402L166.213 52.7747Z" fill="white"/>
    <path opacity="0.33" d="M157.644 93.072L160.456 97.9077H154.833L157.644 93.072Z" fill="white"/>
  </g>
  <path opacity="0.51" d="M116.541 118.325H136.624C136.624 118.325 135.309 126.384 141.712 128.507C141.599 128.719 140.509 136.862 140.509 136.862" stroke="white" stroke-width="0.537297" stroke-linecap="round" stroke-linejoin="round"/>
  <path d="M67.3342 42.3832C67.31 42.3267 67.3058 42.2637 67.3224 42.2045C67.339 42.1454 67.3752 42.0937 67.4252 42.0581L74.5052 37.0451C74.5626 37.0049 74.6334 36.9888 74.7025 37.0004C74.7716 37.0119 74.8334 37.0502 74.8747 37.1069L77.2473 40.4194C77.268 40.4481 77.2827 40.4806 77.2908 40.5151C77.2989 40.5496 77.3002 40.5854 77.2945 40.6203C77.2888 40.6553 77.2762 40.6888 77.2575 40.7188C77.2388 40.7489 77.2145 40.7749 77.1857 40.7954H77.1722L69.155 45.8998C69.1253 45.9187 69.0923 45.9315 69.0576 45.9376C69.023 45.9436 68.9874 45.9427 68.9531 45.9349C68.9188 45.9272 68.8863 45.9127 68.8576 45.8924C68.8288 45.8721 68.8043 45.8463 68.7855 45.8165C68.7773 45.8036 68.7702 45.7902 68.7641 45.7762L67.3342 42.3832Z" fill="#FDC757"/>
  <path d="M169.151 31.3256C169.173 31.2611 169.218 31.2071 169.277 31.1747C169.337 31.1423 169.407 31.1338 169.472 31.151L178.234 33.3969C178.303 33.414 178.362 33.4579 178.399 33.5188C178.436 33.5798 178.447 33.6528 178.43 33.7219L177.514 37.5099C177.506 37.5443 177.491 37.5768 177.47 37.6055C177.449 37.6342 177.423 37.6584 177.393 37.6769C177.363 37.6953 177.329 37.7077 177.295 37.7132C177.26 37.7187 177.224 37.7171 177.19 37.7087H177.174L168.227 34.9308C168.159 34.9098 168.103 34.8626 168.07 34.7996C168.037 34.7367 168.03 34.6631 168.051 34.595L169.151 31.3256Z" fill="#FDC757"/>
  <path d="M168.185 35.7852C168.185 35.7852 171.438 38.2326 176.617 38.0069" stroke="white" stroke-width="0.268649" stroke-linecap="round" stroke-linejoin="round"/>
  <path d="M174.793 33.5608L174.073 36.747" stroke="white" stroke-width="0.268649" stroke-linecap="round" stroke-linejoin="round"/>
  <path d="M176.394 33.6629L175.323 37.0075" stroke="white" stroke-width="0.268649" stroke-linecap="round" stroke-linejoin="round"/>
  <path d="M177.441 34.6891L176.614 37.1929" stroke="white" stroke-width="0.268649" stroke-linecap="round" stroke-linejoin="round"/>
  <path d="M173.524 33.3673L172.373 36.1344" stroke="white" stroke-width="0.268649" stroke-linecap="round" stroke-linejoin="round"/>
  <path d="M171.947 32.8139L171.435 35.5542" stroke="white" stroke-width="0.268649" stroke-linecap="round" stroke-linejoin="round"/>
  <path d="M170.784 32.4968L169.981 35.452" stroke="white" stroke-width="0.268649" stroke-linecap="round" stroke-linejoin="round"/>
  <path d="M169.727 32.1664L168.736 34.8987" stroke="white" stroke-width="0.268649" stroke-linecap="round" stroke-linejoin="round"/>
  <path d="M124.453 81.904C124.453 81.904 120.265 82.2534 120.972 83.5348C121.679 84.8163 125.053 86.2212 127.19 90.1596C129.228 85.8854 133.143 83.5348 133.143 83.5348L132.795 78.5782C132.795 78.5782 135.071 78.237 138.399 79.5292C141.728 80.8214 147.201 85.6355 141.128 86.0304C135.055 86.4254 127.562 92.8032 127.562 92.8032C127.562 92.8032 122.694 88.8029 115.124 86.8176C107.554 84.8323 111.988 80.6065 114.736 79.0671C117.483 77.5277 124.456 79.0671 124.456 79.0671L124.453 81.904Z" fill="#F89C53"/>
  <path d="M124.405 81.904C124.405 81.904 117.598 82.2534 118.3 83.5348C119.002 84.8163 124.681 86.7317 126.81 90.6728C128.88 85.9446 133.057 83.5348 133.057 83.5348L132.712 78.5782C132.712 78.5782 134.98 78.237 138.295 79.5292C141.61 80.8214 143.085 84.33 137.031 84.7222C130.976 85.1145 127.498 92.8032 127.498 92.8032C127.498 92.8032 122.646 88.8029 115.105 86.8176C107.565 84.8323 111.98 80.6065 114.717 79.0671C117.454 77.5277 124.405 79.0671 124.405 79.0671V81.904Z" fill="#EF8B3C"/>
  <path d="M119.754 73.3798C120.322 76.7092 120.68 80.0714 120.825 83.4461C121.709 84.2521 127.699 82.1404 127.699 82.1404L133.135 83.4461C133.135 83.4461 133.708 78.0543 133.135 72.9527C132.562 67.8511 119.754 73.3798 119.754 73.3798Z" fill="#DE8F5C"/>
  <path d="M119.754 73.3423C119.754 73.3423 120.431 77.7965 120.627 80.3271C120.705 81.3614 133.143 75.2228 133.143 72.4853C133.143 69.7478 119.754 73.3423 119.754 73.3423Z" fill="#D48857"/>
  <path d="M112.246 51.0579C112.246 51.0579 110.39 52.3662 110.692 54.4133C110.995 56.4604 113.863 57.3416 113.863 57.3416V49.0135L112.246 51.0579Z" fill="#291B23"/>
  <path d="M125.19 75.8784C131.011 75.8784 135.365 72.668 138.456 61.8764C141.546 51.0848 142.277 42.7675 122.225 42.8346C115.046 42.8346 112.91 48.8442 112.853 56.764C112.106 66.8383 119.371 75.8784 125.19 75.8784Z" fill="#F8A474"/>
  <path d="M125.198 75.8784C130.963 75.8784 133.721 67.4858 135.786 60.6837C137.85 53.8815 142.263 42.7675 122.397 42.8347C115.285 42.8347 113.169 48.8442 113.105 56.764C112.382 66.8383 119.433 75.8784 125.198 75.8784Z" fill="#F49D6C"/>
  <path d="M138.327 60.8528C138.327 60.8528 138.48 58.9293 140.287 59.7218C142.095 60.5143 139.567 65.6697 137.829 65.6697C136.091 65.6697 136.86 64.0766 136.86 64.0766L138.327 60.8528Z" fill="#F8A474"/>
  <path d="M111.126 47.2431C111.126 47.2431 108.925 50.2465 110.663 51.7268C112.401 53.207 114.412 51.2164 114.412 51.2164C114.412 51.2164 114.792 53.2098 117.205 53.6155C119.618 54.0211 121.034 51.7349 121.034 51.7349C121.034 51.7349 122.783 54.0882 124.987 54.0882C127.19 54.0882 128.861 51.7349 128.861 51.7349C128.861 51.7349 129.86 54.6632 132.993 54.6632C136.126 54.6632 136.011 52.1351 136.011 52.1351C136.011 52.1351 137.792 52.9922 138.758 51.7349C139.725 50.4776 137.821 48.898 137.821 48.898C137.821 48.898 142.569 47.286 141.096 44.0139C140.041 41.365 136.611 42.6224 136.611 42.6224C136.611 42.6224 136.147 39.737 134.131 38.9552C132.115 38.1734 129.579 40.1508 129.579 40.1508C129.579 40.1508 129.089 37.4643 125.951 37.4643C122.812 37.4643 121.867 40.7283 121.867 40.7283C121.867 40.7283 119.738 38.1896 117.21 38.9498C113.893 39.694 114.021 42.617 114.021 42.617C114.021 42.617 110.808 42.0796 110.066 44.0085C109.324 45.9374 111.126 47.2431 111.126 47.2431Z" fill="#3E2D37"/>
  <path d="M111.389 47.2566C111.389 47.2566 109.198 50.2546 110.928 51.7322C112.658 53.2097 114.655 51.2218 114.655 51.2218C114.655 51.2218 115.033 53.2097 117.435 53.6181C119.837 54.0264 121.245 51.7375 121.245 51.7375C121.245 51.7375 122.983 54.0882 125.176 54.0882C127.369 54.0882 129.032 51.7375 129.032 51.7375C129.032 51.7375 130.026 54.6604 133.143 54.6604C132.179 54.2274 131.317 53.5952 130.614 52.8049C129.911 52.0146 129.382 51.0842 129.062 50.0746C129.062 50.0746 123.54 50.3137 120.648 46.7004C117.756 43.0871 122.067 40.7578 122.067 40.7578C122.067 40.7578 119.949 38.2246 117.435 38.9849C114.133 39.729 114.262 42.6465 114.262 42.6465C114.262 42.6465 111.048 42.1093 110.325 44.0328C109.602 45.9563 111.389 47.2566 111.389 47.2566Z" fill="#35232E"/>
  <path d="M124.574 57.6103C124.574 57.6103 125.487 56.627 126.633 56.627C127.779 56.627 130.465 57.4329 130.465 57.4329C129.4 56.8283 128.227 56.4369 127.013 56.2804C126.518 56.2066 126.012 56.2963 125.572 56.5362C125.132 56.7761 124.782 57.1531 124.574 57.6103Z" fill="#543921" stroke="#543921" stroke-width="0.268649" stroke-linecap="round" stroke-linejoin="round"/>
  <path d="M118.951 57.3417C118.951 57.3417 117.952 56.6807 116.98 56.6807C116.008 56.6807 114.131 57.3417 114.131 57.3417C114.131 57.3417 114.891 56.5008 116.46 56.2966C116.929 56.2475 117.403 56.3174 117.839 56.5001C118.274 56.6827 118.656 56.9721 118.951 57.3417V57.3417Z" fill="#543921" stroke="#543921" stroke-width="0.268649" stroke-linecap="round" stroke-linejoin="round"/>
  <path d="M121.275 59.7595C120.806 61.5164 118.75 63.0128 118.967 63.9853C119.403 65.9303 121.896 65.6293 121.896 65.6293" stroke="#7C5430" stroke-width="0.268649" stroke-linecap="round" stroke-linejoin="round"/>
  <path d="M115.71 60.7185C115.863 61.2907 117.207 61.1403 117.711 61.0033C118.214 60.8663 117.925 59.9018 117.711 59.3914C117.497 58.8809 116.656 58.881 116.155 59.0153C115.654 59.1496 115.555 60.1436 115.71 60.7185Z" fill="#543921"/>
  <path d="M125.503 60.7695C125.658 61.3444 127.003 61.1912 127.503 61.0569C128.004 60.9226 127.718 59.9555 127.503 59.445C127.289 58.9346 126.446 58.9346 125.948 59.0689C125.449 59.2033 125.35 60.1892 125.503 60.7695Z" fill="#543921"/>
  <path d="M116.053 60.6593C116.155 60.8339 116.46 60.8018 116.632 60.7561C116.803 60.7104 116.822 60.3746 116.747 60.1973C116.689 60.1138 116.602 60.0546 116.503 60.0308C116.405 60.0071 116.301 60.0204 116.211 60.0684C116.118 60.1306 116.05 60.225 116.021 60.3339C115.992 60.4427 116.003 60.5584 116.053 60.6593V60.6593Z" fill="#F7F7F7"/>
  <path d="M125.846 60.7024C125.95 60.8797 126.253 60.8475 126.427 60.7991C126.601 60.7507 126.615 60.4203 126.54 60.243C126.465 60.0657 126.189 60.0254 126.004 60.1113C125.911 60.174 125.843 60.2684 125.814 60.3771C125.785 60.4858 125.796 60.6014 125.846 60.7024V60.7024Z" fill="#F7F7F7"/>
  <path d="M0.146091 140.021C0.0854158 139.934 0.042407 139.837 0.0193934 139.733C-0.00362025 139.63 -0.0062119 139.523 0.0119406 139.419C0.0300931 139.315 0.0686165 139.215 0.125171 139.125C0.181725 139.036 0.25522 138.959 0.341563 138.898C0.475837 138.801 0.637023 138.75 0.802197 138.75H243.197C243.41 138.75 243.614 138.835 243.765 138.986C243.915 139.137 244 139.342 244 139.556C244 139.731 243.944 139.9 243.839 140.04L241.625 142.995C241.55 143.095 241.453 143.176 241.341 143.232C241.23 143.288 241.107 143.317 240.982 143.317H2.87472C2.74841 143.315 2.62434 143.283 2.51268 143.224C2.40101 143.164 2.30492 143.08 2.23208 142.976L0.146091 140.021Z" fill="#4B423B"/>
  <path d="M43.7052 125.847H17.1953C15.2727 125.847 13.7142 127.411 13.7142 129.339V135.25C13.7142 137.179 15.2727 138.742 17.1953 138.742H43.7052C45.6278 138.742 47.1863 137.179 47.1863 135.25V129.339C47.1863 127.411 45.6278 125.847 43.7052 125.847Z" fill="#48A8D4"/>
  <path d="M26.5675 106.773H46.1152C46.7544 106.773 47.3674 107.028 47.8194 107.481C48.2714 107.935 48.5252 108.55 48.5252 109.191V112.415C48.5252 113.056 48.2714 113.671 47.8194 114.124C47.3674 114.578 46.7544 114.832 46.1152 114.832H26.5675C25.6442 114.832 24.7588 114.465 24.106 113.81C23.4531 113.155 23.0864 112.266 23.0864 111.34V110.265C23.0864 109.339 23.4531 108.451 24.106 107.796C24.7588 107.141 25.6442 106.773 26.5675 106.773V106.773Z" fill="#EAA844"/>
  <path d="M34.8685 128.265C34.8685 127.624 35.1225 127.009 35.5745 126.555C36.0264 126.102 36.6394 125.847 37.2785 125.847H56.2693C56.701 125.847 57.1152 126.019 57.4205 126.325C57.7258 126.632 57.8974 127.047 57.8974 127.48H56.1141C56.1141 127.48 55.2625 129.012 55.2625 132.295C55.2625 135.578 56.1141 137.13 56.1141 137.13H57.8974C57.8974 137.558 57.7281 137.968 57.4268 138.27C57.1255 138.572 56.7168 138.742 56.2907 138.742H37.2785C36.6394 138.742 36.0264 138.487 35.5745 138.034C35.1225 137.581 34.8685 136.966 34.8685 136.324V128.265Z" fill="#63BEDB"/>
  <path d="M44.2408 108.385C44.2408 107.957 44.0715 107.547 43.7702 107.245C43.4689 106.943 43.0602 106.773 42.6341 106.773H22.0153C21.7312 106.773 21.4588 106.886 21.258 107.088C21.0571 107.289 20.9442 107.563 20.9442 107.848H22.749C22.749 107.848 23.6086 108.75 23.6086 110.803C23.6086 112.855 22.749 113.758 22.749 113.758H20.9442C20.9442 114.043 21.0571 114.316 21.258 114.518C21.4588 114.719 21.7312 114.832 22.0153 114.832H42.6341C43.0602 114.832 43.4689 114.663 43.7702 114.36C44.0715 114.058 44.2408 113.648 44.2408 113.221V108.385Z" fill="#C6841E"/>
  <path d="M52.8096 120.34C52.8096 118.879 52.2312 117.478 51.2017 116.445C50.1723 115.413 48.776 114.832 47.3201 114.832H19.0697C18.7146 114.832 18.374 114.974 18.1229 115.226C17.8718 115.478 17.7308 115.819 17.7308 116.176H19.3642C19.3642 116.176 20.1461 117.535 20.1461 120.34C20.1461 123.144 19.3642 124.412 19.3642 124.412H17.7308C17.7308 124.793 17.8814 125.158 18.1496 125.427C18.4177 125.696 18.7816 125.847 19.1608 125.847H47.3201C48.776 125.847 50.1723 125.267 51.2017 124.234C52.2312 123.201 52.8096 121.8 52.8096 120.34Z" fill="#E74F56"/>
  <path d="M36.5076 129.108C36.5026 128.897 36.5393 128.686 36.6155 128.489C36.6916 128.291 36.8058 128.111 36.9515 127.957C37.0972 127.804 37.2716 127.681 37.4647 127.596C37.6578 127.51 37.8657 127.464 38.0767 127.459H56.2856C56.2856 127.459 55.4983 128.996 55.4983 132.295C55.4983 135.594 56.2856 137.13 56.2856 137.13H38.2642C37.8445 137.13 37.4415 136.966 37.1412 136.671C36.841 136.377 36.6674 135.977 36.6576 135.556L36.5076 129.108Z" fill="#F3EBDA"/>
  <path d="M43.1696 108.922C43.1696 108.637 43.0568 108.364 42.8559 108.162C42.6551 107.961 42.3826 107.848 42.0985 107.848H21.4797C21.4797 107.848 22.3205 108.791 22.3205 110.803C22.3205 112.815 21.4797 113.758 21.4797 113.758H42.0985C42.3826 113.758 42.6551 113.645 42.8559 113.443C43.0568 113.242 43.1696 112.968 43.1696 112.683V108.922Z" fill="#F3EBDA"/>
  <path d="M51.369 120.34C51.3956 119.262 50.9944 118.218 50.2537 117.437C49.513 116.656 48.4934 116.202 47.4193 116.176H19.0697C19.0697 116.176 19.7954 117.5 19.7954 120.334C19.7954 123.169 19.0697 124.504 19.0697 124.504H47.114C48.2246 124.504 49.2914 124.069 50.0865 123.291C50.8815 122.513 51.3417 121.454 51.369 120.34V120.34Z" fill="#F3EBDA"/>
  <path d="M187.77 90.1168C188.764 90.1168 189.717 90.513 190.421 91.2183C191.124 91.9236 191.519 92.8804 191.519 93.8779V93.8779V99.5195H184.021V93.8779C184.021 92.8804 184.416 91.9236 185.119 91.2183C185.822 90.513 186.775 90.1168 187.77 90.1168V90.1168Z" fill="#0B0C15"/>
  <path d="M184.021 99.7882H191.519V105.43C191.519 106.427 191.124 107.384 190.421 108.089C189.717 108.795 188.764 109.191 187.77 109.191V109.191C186.775 109.191 185.822 108.795 185.119 108.089C184.416 107.384 184.021 106.427 184.021 105.43V99.7882Z" fill="#4E4564"/>
  <path d="M187.77 96.2957C189.101 96.2957 190.18 95.2132 190.18 93.8778C190.18 92.5425 189.101 91.46 187.77 91.46C186.439 91.46 185.36 92.5425 185.36 93.8778C185.36 95.2132 186.439 96.2957 187.77 96.2957Z" fill="white"/>
  <path d="M187.636 102.206C189.66 102.206 191.601 103.013 193.032 104.448C194.463 105.884 195.267 107.832 195.267 109.863V137.399C195.267 137.827 195.098 138.236 194.797 138.539C194.496 138.841 194.087 139.011 193.661 139.011H181.611C181.185 139.011 180.776 138.841 180.475 138.539C180.173 138.236 180.004 137.827 180.004 137.399V109.863C180.004 107.832 180.808 105.884 182.239 104.448C183.671 103.013 185.612 102.206 187.636 102.206Z" fill="#615486"/>
  <path d="M180.004 109.588C180.004 109.303 180.117 109.03 180.318 108.829C180.519 108.627 180.791 108.514 181.075 108.514C181.306 108.514 181.531 108.588 181.717 108.727C181.902 108.865 182.038 109.06 182.104 109.282L187.288 126.782C187.518 127.558 187.87 128.292 188.329 128.958L194.395 137.745C194.455 137.833 194.497 137.931 194.52 138.034C194.542 138.138 194.544 138.245 194.525 138.349C194.506 138.454 194.467 138.553 194.41 138.642C194.352 138.731 194.278 138.808 194.191 138.868C194.057 138.961 193.898 139.011 193.736 139.011H181.611C181.185 139.011 180.776 138.841 180.475 138.539C180.173 138.236 180.004 137.827 180.004 137.399V109.588Z" fill="#4E4564"/>
  <path d="M177.276 107.783C177.256 107.642 177.181 107.515 177.067 107.429C176.954 107.343 176.811 107.306 176.67 107.326L175.08 107.549C174.939 107.569 174.812 107.645 174.727 107.758C174.642 107.872 174.605 108.015 174.625 108.157L175.482 114.276L178.132 113.903L177.276 107.783Z" fill="#393939"/>
  <path d="M177.867 113.927L175.752 114.231L177.091 123.808L179.211 123.507L177.867 113.927Z" fill="#1D1D1D"/>
  <path d="M176.885 108.369L177.881 108.229L178.451 112.299" stroke="#393939" stroke-width="0.537297" stroke-linecap="round" stroke-linejoin="round"/>
  <path d="M183.217 106.3L186.588 106.716C186.729 106.734 186.857 106.807 186.944 106.918C187.031 107.03 187.071 107.172 187.054 107.313L183.758 134.245L179.324 133.708L182.62 106.776C182.628 106.705 182.649 106.636 182.683 106.574C182.718 106.512 182.764 106.457 182.82 106.413C182.875 106.368 182.939 106.336 183.007 106.316C183.075 106.297 183.147 106.292 183.217 106.3Z" fill="#F2ECE0" stroke="#D7CDB8" stroke-width="0.268649" stroke-miterlimit="10"/>
  <path d="M180.135 131.123L183.081 107.138C183.095 107.028 183.152 106.928 183.239 106.86C183.326 106.792 183.437 106.762 183.547 106.776L184.58 106.902C184.69 106.916 184.789 106.973 184.857 107.061C184.925 107.148 184.955 107.259 184.942 107.369V107.369L181.996 131.352C181.981 131.474 181.942 131.593 181.882 131.7C181.821 131.808 181.74 131.902 181.643 131.978C181.546 132.055 181.435 132.111 181.317 132.144C181.198 132.177 181.074 132.186 180.952 132.171V132.171C180.705 132.14 180.481 132.013 180.328 131.816C180.175 131.62 180.106 131.371 180.135 131.123Z" fill="#FCF9F1"/>
  <path d="M183.549 108.535L182.666 108.428" stroke="#D7CDB8" stroke-width="0.537297" stroke-linecap="square" stroke-linejoin="round"/>
  <path d="M183.273 110.803L182.387 110.693" stroke="#D7CDB8" stroke-width="0.537297" stroke-linecap="square" stroke-linejoin="round"/>
  <path d="M182.751 115.069L181.865 114.959" stroke="#D7CDB8" stroke-width="0.537297" stroke-linecap="square" stroke-linejoin="round"/>
  <path d="M182.229 119.335L181.343 119.228" stroke="#D7CDB8" stroke-width="0.537297" stroke-linecap="square" stroke-linejoin="round"/>
  <path d="M181.967 121.468L181.08 121.361" stroke="#D7CDB8" stroke-width="0.537297" stroke-linecap="square" stroke-linejoin="round"/>
  <path d="M181.707 123.601L180.821 123.494" stroke="#D7CDB8" stroke-width="0.537297" stroke-linecap="square" stroke-linejoin="round"/>
  <path d="M182.489 117.202L181.602 117.092" stroke="#D7CDB8" stroke-width="0.537297" stroke-linecap="square" stroke-linejoin="round"/>
  <path d="M183.011 112.936L182.125 112.826" stroke="#D7CDB8" stroke-width="0.537297" stroke-linecap="square" stroke-linejoin="round"/>
  <path d="M173.54 110.658L172.268 111.079L176.533 123.51L177.805 123.088L173.54 110.658Z" fill="#423462"/>
  <path d="M173.7 110.3C173.678 110.233 173.642 110.172 173.595 110.119C173.548 110.066 173.491 110.022 173.428 109.991C173.365 109.961 173.296 109.942 173.225 109.938C173.155 109.934 173.084 109.944 173.018 109.967L172.26 110.236C172.126 110.282 172.015 110.38 171.953 110.508C171.891 110.636 171.882 110.784 171.928 110.918L172.538 112.697L174.311 112.084L173.7 110.3Z" fill="#E95D4F"/>
  <path d="M174.308 112.081L172.535 112.694" stroke="#DFDFDF" stroke-width="0.537297" stroke-miterlimit="10" stroke-linecap="square"/>
  <path d="M186.966 117.957H173.309L174.916 138.911H185.852L186.966 117.957Z" fill="#4FCDB0"/>
  <path d="M173.309 117.957H186.966L186.607 122.639L177.974 125.863L174.905 138.949L173.309 117.957Z" fill="#34BD98"/>
  <path d="M187.437 117.957H172.774L172.894 122.355H187.501L187.437 117.957Z" fill="#52D7B8"/>
  <path d="M213.714 71.0669L227.992 99.686L219.667 134.111" stroke="#AFD1C9" stroke-width="1.34324" stroke-miterlimit="10"/>
  <path d="M227.695 102.373C229.248 102.373 230.507 101.11 230.507 99.5517C230.507 97.9938 229.248 96.7309 227.695 96.7309C226.142 96.7309 224.883 97.9938 224.883 99.5517C224.883 101.11 226.142 102.373 227.695 102.373Z" fill="#CDF0E8"/>
  <path d="M227.695 101.298C228.656 101.298 229.436 100.516 229.436 99.5517C229.436 98.5873 228.656 97.8055 227.695 97.8055C226.734 97.8055 225.955 98.5873 225.955 99.5517C225.955 100.516 226.734 101.298 227.695 101.298Z" fill="#AFD1C9"/>
  <path d="M233.185 138.774C233.185 136.77 227.071 135.148 219.528 135.148C211.985 135.148 205.871 136.76 205.871 138.774C208.921 138.742 232.079 138.836 233.185 138.774Z" fill="#CDF0E8"/>
  <path d="M229.168 136.357C229.168 134.352 224.913 132.73 219.662 132.73C214.411 132.73 210.156 134.342 210.156 136.357C212.279 136.324 228.399 136.418 229.168 136.357Z" fill="#AFD1C9"/>
  <path opacity="0.67" d="M133.119 73.0307L190.198 66.9082L203.766 92.4164L166.588 138.441C166.588 138.441 147.911 139.298 137.269 116.783C126.628 94.2674 133.119 73.0307 133.119 73.0307Z" fill="url(#paint0_linear_1_560)"/>
  <path d="M217.217 68.8775C217.489 69.3912 217.658 69.9538 217.713 70.533C217.769 71.1123 217.71 71.6969 217.54 72.2533C217.37 72.8097 217.093 73.327 216.723 73.7757C216.354 74.2244 215.9 74.5957 215.388 74.8683L212.314 76.5071C211.801 76.78 211.241 76.949 210.663 77.0045C210.086 77.06 209.504 77.0009 208.949 76.8305C208.395 76.6601 207.879 76.3818 207.432 76.0115C206.984 75.6411 206.614 75.186 206.342 74.6722C206.07 74.1582 205.901 73.5954 205.845 73.0159C205.79 72.4365 205.849 71.8518 206.019 71.2952C206.188 70.7385 206.466 70.2209 206.835 69.7719C207.205 69.323 207.659 68.9514 208.171 68.6786L211.245 67.0398C211.758 66.767 212.318 66.5981 212.896 66.5428C213.473 66.4875 214.056 66.5469 214.61 66.7175C215.165 66.8882 215.681 67.1668 216.128 67.5374C216.575 67.908 216.945 68.3633 217.217 68.8775V68.8775Z" fill="#AFD1C9"/>
  <path d="M205.044 92.548C208.586 90.6594 211.236 87.4365 212.411 83.588C213.586 79.7396 213.188 75.5807 211.307 72.0259C209.425 68.4717 206.212 65.8131 202.376 64.6348C198.54 63.4564 194.395 63.8547 190.852 65.7422C187.076 67.8054 201.035 94.6676 205.044 92.548Z" fill="#CDF0E8"/>
  <path d="M22.8186 109.594L41.6969 109.728" stroke="#D7CABA" stroke-width="0.268649" stroke-linecap="round" stroke-linejoin="round"/>
  <path d="M22.1492 118.728L45.2503 118.862" stroke="#D7CABA" stroke-width="0.268649" stroke-linecap="round" stroke-linejoin="round"/>
  <path d="M22.1492 121.952L45.2503 122.086" stroke="#D7CABA" stroke-width="0.268649" stroke-linecap="round" stroke-linejoin="round"/>
  <path d="M39.0191 128.668L54.3815 128.601" stroke="#D7CABA" stroke-width="0.268649" stroke-linecap="round" stroke-linejoin="round"/>
  <path d="M39.0191 135.653L54.3815 135.586" stroke="#D7CABA" stroke-width="0.268649" stroke-linecap="round" stroke-linejoin="round"/>
  <path d="M176.849 21.0741C176.849 21.0741 175.184 23.2554 175.184 24.2333C175.184 25.2112 177.661 28.2228 178.737 28.7654C179.813 29.3081 181.918 27.4974 182.146 27.0703" stroke="#DF8652" stroke-width="0.268649" stroke-linecap="round" stroke-linejoin="round"/>
  <path d="M66.1717 29.9126C66.1717 29.9126 66.3913 32.3303 68.1399 32.9778C69.8885 33.6252 65.8718 39.2051 64.2919 39.0923C61.5365 39.0923 61.5928 36.4058 61.4883 35.8444" fill="#F8A474"/>
  <path d="M66.1717 29.9126C66.1717 29.9126 66.3913 32.3303 68.1399 32.9778C69.8885 33.6252 65.8718 39.2051 64.2919 39.0923C61.5365 39.0923 61.5928 36.4058 61.4883 35.8444" stroke="#DF8652" stroke-width="0.268649" stroke-linecap="round" stroke-linejoin="round"/>
  <path d="M69.4118 46.0584C69.4118 46.0584 74.4996 43.877 76.9096 41.4914" stroke="white" stroke-width="0.268649" stroke-linecap="round" stroke-linejoin="round"/>
  <path d="M72.2719 39.6699L74.1034 42.3751" stroke="white" stroke-width="0.268649" stroke-linecap="round" stroke-linejoin="round"/>
  <path d="M73.4394 38.5657L75.1531 41.6229" stroke="white" stroke-width="0.268649" stroke-linecap="round" stroke-linejoin="round"/>
  <path d="M74.481 38.1761L76.3072 40.4624" stroke="white" stroke-width="0.268649" stroke-linecap="round" stroke-linejoin="round"/>
  <path d="M71.2543 40.4624L72.4861 43.1945" stroke="white" stroke-width="0.268649" stroke-linecap="round" stroke-linejoin="round"/>
  <path d="M69.7867 41.2522L71.4363 43.4955" stroke="white" stroke-width="0.268649" stroke-linecap="round" stroke-linejoin="round"/>
  <path d="M68.7612 41.8862L70.3678 44.5001" stroke="white" stroke-width="0.268649" stroke-linecap="round" stroke-linejoin="round"/>
  <path d="M67.7999 42.4369L69.1173 45.0295" stroke="white" stroke-width="0.268649" stroke-linecap="round" stroke-linejoin="round"/>
  <path d="M131.804 51.2164C131.804 51.2164 136.386 58.3088 137.392 61.3714C138.731 59.4908 138.731 59.7353 139.173 59.5982C139.593 58.255 140.836 53.7954 140.836 53.7954C140.836 53.7954 143.621 49.9349 139.631 47.7427C135.641 45.5505 131.804 51.2164 131.804 51.2164Z" fill="#3E2D37"/>
  <path d="M133.678 55.281L139.034 55.3697" stroke="#F49D6C" stroke-width="0.805946" stroke-linecap="round" stroke-linejoin="round"/>
  <path d="M133.143 56.9387L138.431 56.8715" stroke="#F49D6C" stroke-width="0.805946" stroke-linecap="round" stroke-linejoin="round"/>
  <path d="M117.879 59.1738C117.556 59.0234 117.202 58.9482 116.846 58.9535C116.461 58.9558 116.081 59.0477 115.737 59.2222" stroke="#543921" stroke-width="0.268649" stroke-linecap="round" stroke-linejoin="round"/>
  <path d="M127.787 59.3699C127.441 59.1119 127.024 58.9666 126.593 58.9535C126.137 58.9838 125.707 59.1741 125.377 59.4908" stroke="#543921" stroke-width="0.268649" stroke-linecap="round" stroke-linejoin="round"/>
  <path d="M119.853 68.2541C120.26 68.3669 122.753 68.8263 124.601 68.5388C125.894 68.2953 127.146 67.8722 128.323 67.2816C128.323 67.2816 126.933 72.386 121.599 72.386C120.367 71.529 119.443 68.1385 119.853 68.2541Z" fill="#543921"/>
  <path d="M123.709 70.4678C124.617 70.0031 127.11 69.4442 126.459 70.1749C125.308 71.4779 123.658 72.0555 122.418 72.2382C121.942 72.3054 122.799 70.9326 123.709 70.4678Z" fill="#F26061"/>
  <path d="M120.338 68.4314C121.699 68.6841 123.089 68.7348 124.464 68.5819C125.42 68.4385 126.356 68.1824 127.252 67.8189C126.906 68.2246 126.449 68.6249 125.335 69.1622C124.221 69.6995 120.718 69.8445 120.606 69.5839C120.295 68.8666 120.234 68.4153 120.338 68.4314Z" fill="#F9EDE2"/>
  <path d="M140.105 60.8393C139.936 60.6877 139.718 60.604 139.492 60.604C139.265 60.604 139.047 60.6877 138.878 60.8393C138.515 61.1499 138.283 61.5881 138.23 62.0644C138.23 62.0644 138.994 61.6534 139.168 62.0644C139.342 62.4754 139.168 63.7892 138.463 63.7892" stroke="#A35F38" stroke-width="0.268649" stroke-linecap="round" stroke-linejoin="round"/>
  <path d="M130.197 62.7146C130.335 62.8492 130.459 62.9977 130.567 63.1578C130.674 63.3507 130.732 63.568 130.733 63.7892" stroke="#543921" stroke-width="0.268649" stroke-linecap="round" stroke-linejoin="round"/>
  <path d="M131.268 62.446C131.413 62.5765 131.537 62.7277 131.638 62.8946C131.745 63.0856 131.801 63.3013 131.801 63.5205" stroke="#543921" stroke-width="0.268649" stroke-linecap="round" stroke-linejoin="round"/>
  <path d="M129.126 62.7146C129.267 62.8868 129.39 63.072 129.496 63.2679C129.605 63.5167 129.662 63.7858 129.662 64.0578" stroke="#543921" stroke-width="0.268649" stroke-linecap="round" stroke-linejoin="round"/>
  <path d="M115.807 64.3237C117.655 64.2593 119.087 62.3411 119.007 60.0415C118.927 57.7419 117.368 55.9339 115.526 55.9984C113.684 56.0629 112.246 57.9837 112.326 60.2806C112.406 62.5776 113.96 64.3909 115.807 64.3237Z" stroke="#231F20" stroke-width="0.268649" stroke-miterlimit="10"/>
  <path d="M126.947 64.861C129.164 64.7885 130.883 62.685 130.789 60.165C130.696 57.6451 128.824 55.6598 126.607 55.7323C124.39 55.8049 122.67 57.9057 122.764 60.4283C122.858 62.9509 124.732 64.9335 126.947 64.861Z" stroke="#231F20" stroke-width="0.268649" stroke-miterlimit="10"/>
  <path d="M119.013 60.5655C119.013 60.5655 120.678 58.9536 122.762 60.5655" stroke="#231F20" stroke-width="0.268649" stroke-miterlimit="10"/>
  <path d="M131.001 60.5654L138.432 59.7595" stroke="#231F20" stroke-width="0.268649" stroke-miterlimit="10"/>
  <path d="M161.393 136.862C161.642 136.862 161.88 136.961 162.056 137.137C162.232 137.313 162.331 137.553 162.331 137.802V137.802C162.331 138.051 162.232 138.29 162.056 138.467C161.88 138.643 161.642 138.742 161.393 138.742H130.331L128.58 136.862H161.393Z" fill="#988189"/>
  <path d="M111.424 102.206C111.62 102.206 111.814 102.26 111.982 102.363C112.15 102.466 112.287 102.613 112.377 102.789L130.733 138.742H75.0353C74.843 138.742 74.6544 138.69 74.489 138.592C74.3236 138.494 74.1877 138.353 74.0954 138.183L55.2841 103.796C55.2165 103.673 55.174 103.536 55.1588 103.396C55.1437 103.256 55.1562 103.114 55.1957 102.978C55.2352 102.843 55.301 102.717 55.3892 102.607C55.4774 102.497 55.5864 102.405 55.7098 102.338C55.8675 102.251 56.0443 102.206 56.2239 102.206H111.424Z" fill="url(#paint1_linear_1_560)"/>
  <path d="M95.5523 126.462C97.5901 125.925 98.5648 124.504 98.8165 122.809C98.8165 121.183 98.8166 118.086 95.9862 116.509C94.3474 115.531 92.2373 115.117 90.403 115.609C87.1629 116.482 85.9446 119.467 86.8309 122.782C87.7172 126.097 92.3122 127.335 95.5523 126.462Z" fill="#CDC3C1"/>
  <path opacity="0.66" d="M95.1506 125.635C95.8733 125.475 96.5279 125.092 97.0226 124.54C97.5173 123.988 97.827 123.294 97.9087 122.556C97.9087 121.189 97.9087 118.583 95.5255 117.261C94.1438 116.439 92.3577 116.092 90.8126 116.509C88.0759 117.245 87.045 119.757 87.7894 122.545C88.5338 125.334 92.4247 126.371 95.1506 125.635Z" stroke="#E4E3E3" stroke-width="0.268649" stroke-miterlimit="10" stroke-linecap="round" stroke-dasharray="1.34 1.34"/>
  <path opacity="0.66" d="M89.4337 119.988C89.4337 119.988 90.1487 123.177 91.8437 122.964C93.5387 122.752 91.7126 119.754 91.7126 119.754" stroke="#E4E3E3" stroke-width="0.805946" stroke-linecap="round" stroke-linejoin="round"/>
  <path opacity="0.66" d="M94.3046 123.246L92.9149 119.141C92.9149 119.141 95.1187 118.572 95.7293 119.679C96.3398 120.786 94.144 120.958 94.144 120.958" stroke="#E4E3E3" stroke-width="0.805946" stroke-linecap="round" stroke-linejoin="round"/>
  <path opacity="0.63" d="M42.4335 13.0146C42.4335 13.0146 37.7795 16.3512 40.318 19.223C42.8566 22.0949 53.1124 21.6086 50.8899 19.223C48.6673 16.8374 42.7494 21.0364 43.3921 25.0285C44.0348 29.0206 49.5242 28.1825 49.5242 28.1825" stroke="#F5A623" stroke-width="1.34324" stroke-miterlimit="10"/>
  <path opacity="0.63" d="M210.327 23.4543C210.327 23.4543 215.618 29.0959 218.36 27.6022C221.102 26.1085 218.092 15.6204 215.222 19.6179C212.351 23.6154 220.786 24.8834 223.523 21.9229C226.259 18.9624 219.873 14.1697 219.873 14.1697" stroke="#F8E71C" stroke-width="1.34324" stroke-miterlimit="10"/>
  <path opacity="0.63" d="M150.977 18.8201C150.977 18.8201 156.22 16.5285 154.332 13.1784C152.444 9.82839 142.314 8.17622 143.99 10.9728C145.667 13.7695 152.329 10.8976 152.535 6.85982C152.741 2.82203 147.193 2.4969 147.193 2.4969" stroke="#7ED321" stroke-width="1.34324" stroke-miterlimit="10"/>
  <path opacity="0.63" d="M57.0675 70.1722C57.0675 70.1722 62.2169 67.7813 60.5085 64.6515C58.8001 61.5218 50.333 65.3769 52.3172 66.5321C54.3015 67.6873 57.4318 63.6333 56.1893 61.0838C54.9468 58.5343 51.4122 60.2348 51.4122 60.2348" stroke="#4A90E2" stroke-width="1.34324" stroke-miterlimit="10"/>
  <path opacity="0.63" d="M105.227 15.6822C105.227 15.6822 102.745 23.1292 99.3359 24.9695" stroke="#9013FE" stroke-width="4.02973" stroke-miterlimit="10"/>
  <path opacity="0.63" d="M77.18 2C77.18 2 72.4885 8.8424 77.4129 15.6822" stroke="#B8E986" stroke-width="4.02973" stroke-miterlimit="10"/>
  <path opacity="0.63" d="M190.42 25.222C190.42 25.222 197.299 28.9831 198.513 32.6609" stroke="#50E3C2" stroke-width="4.02973" stroke-miterlimit="10"/>
  <path d="M23.3541 110.668H41.8307" stroke="#D7CABA" stroke-width="0.268649" stroke-linecap="round" stroke-linejoin="round"/>
  <path d="M22.9525 112.818H41.82" stroke="#D7CABA" stroke-width="0.268649" stroke-linecap="round" stroke-linejoin="round"/>
  <path d="M23.2927 119.937H45.2504" stroke="#D7CABA" stroke-width="0.268649" stroke-linecap="round" stroke-linejoin="round"/>
  <path d="M39.0191 130.28H53.4791" stroke="#D7CABA" stroke-width="0.268649" stroke-linecap="round" stroke-linejoin="round"/>
  <path d="M39.0191 132.698H52.9435" stroke="#D7CABA" stroke-width="0.268649" stroke-linecap="round" stroke-linejoin="round"/>
  <path d="M134.383 58.7842H137.596" stroke="#F49D6C" stroke-width="0.805946" stroke-linecap="round" stroke-linejoin="round"/>
  <defs>
    <linearGradient id="paint0_linear_1_560" x1="198.062" y1="79.4935" x2="145.972" y2="106.815" gradientUnits="userSpaceOnUse">
      <stop stop-color="#FFFEF7"/>
      <stop offset="1" stop-color="#D8D8D8" stop-opacity="0"/>
    </linearGradient>
    <linearGradient id="paint1_linear_1_560" x1="87.231" y1="102.152" x2="89.1919" y2="139.026" gradientUnits="userSpaceOnUse">
      <stop stop-color="#D1C6C6"/>
      <stop offset="1" stop-color="#988189"/>
    </linearGradient>
  </defs>
</svg>
