<svg fill="none" height="144" viewBox="0 0 244 144" width="244" xmlns="http://www.w3.org/2000/svg" xmlns:xlink="http://www.w3.org/1999/xlink"><linearGradient id="a" gradientUnits="userSpaceOnUse" x1="198.062" x2="145.972" y1="79.4935" y2="106.815"><stop offset="0" stop-color="#fffef7"/><stop offset="1" stop-color="#d8d8d8" stop-opacity="0"/></linearGradient><linearGradient id="b" gradientUnits="userSpaceOnUse" x1="87.231" x2="89.1919" y1="102.152" y2="139.026"><stop offset="0" stop-color="#d1c6c6"/><stop offset="1" stop-color="#988189"/></linearGradient><path d="m119.754 73.396s1.366 7.9815.683 13.3061c.897.806 7.024 5.2924 7.024 5.2924l6.485-3.7288s-.629-10.7083-.629-15.3129c0-4.6047-13.563.4432-13.563.4432z" fill="#de8f5c"/><path d="m169.678 31.9274s.667-9.2711.338-10.7111c-.33-1.4399-.399-4.0807 1.481-3.5891 1.879.4916 1.606 5.1634 1.606 5.1634s2.175-2.9552 3.859-2.9552 5.005 3.8633 5.264 6.2704c.26 2.4071-1.636 3.0652-3.719 6.2917s-8.829-.4701-8.829-.4701z" fill="#f8a474"/><path d="m74.7274 39.06s-2.2628-9.0158-2.1851-10.4773c.0777-1.4614-.316-4.0887-2.0806-3.2774-1.7647.8113-.7015 5.373-.7015 5.373s-2.651-2.5253-4.3112-2.2325c-1.6603.2928-4.2604 4.6771-4.0997 7.0923.1606 2.4151 2.7714 3.0062 4.994 5.5073.7632.857 3.4811 2.4581 4.9459 2.0846 1.3683-.3599 3.4382-4.07 3.4382-4.07z" fill="#f8a474"/><path d="m68.8763 45.5157s5.0048-6.8721 8.4832-4.9594c3.4784 1.9128 6.4829 11.1463 17.4055 25.8038 10.923 14.6575 18.383 13.7199 21.095 15.5494 2.713 1.8295 3.313 5.0882 7.726 5.0882 3.789 5.9989 4.057 6.7592 8.823-.9134 4.389-.6609 21.422-18.7705 24.786-25.5888 9.141-18.4696 9.64-25.4921 11.664-26.4216 3.725-.6555 8.625 2.7671 8.625 2.7671s3.136 25.1079-.477 37.5248c-3.569 12.2638-28.197 63.3022-28.197 63.3022h-42.188s-20.2197-44.1743-28.5583-59.0467c-6.6944-11.9226-9.1874-33.1056-9.1874-33.1056z" fill="#fdd157"/><path d="m68.8763 45.4996s5.0048-6.872 8.4832-4.9592c3.4784 1.9127 6.4856 11.1488 17.4055 25.809 10.92 14.6602 18.383 13.7199 21.093 15.5521s3.315 5.0882 7.728 5.0882c3.789 6.0016 4.057 6.7592 8.823-.9134 4.389-.6609 21.422-18.7732 24.786-25.5915 9.141-18.475 9.64-25.5002 11.664-26.427 3.727-.6555 8.703 3.5649 8.703 3.5649s2.209 18.8297.87 24.3719c-4.75 19.7054-25.246 24.6512-32.851 32.9229-8.762 9.5315-37.457 31.0395-37.457 31.0395l-1.504 11.711s-20.2176-44.1824-28.5589-59.0548c-6.6917-11.9334-9.1848-33.1136-9.1848-33.1136z" fill="#fdc757"/><g fill="#fff" opacity=".33"><path d="m75.9724 46.5958 2.8116 4.8356h-5.6233z" opacity=".33"/><path d="m85.3446 61.6401 2.8116 4.8357h-5.6233z" opacity=".33"/><path d="m172.372 72.386 2.812 4.8357h-5.623z" opacity=".33"/><path d="m86.9512 78.2963 2.8117 4.8357h-5.6233z" opacity=".33"/><path d="m122.833 96.2958 2.812 4.8352h-5.623z" opacity=".33"/><path d="m102.482 83.132 2.812 4.8357h-5.6233z" opacity=".33"/><path d="m148.272 115.37 2.812 4.836h-5.623z" opacity=".33"/><path d="m102.215 99.7882 2.811 4.8358h-5.6231z" opacity=".33"/><path d="m127.921 107.848 2.812 4.835h-5.624z" opacity=".33"/><path d="m153.896 74.2666 2.811 4.8356h-5.623z" opacity=".33"/><path d="m130.599 122.623 2.812 4.836h-5.624z" opacity=".33"/><path d="m166.213 52.7747 2.812 4.8357h-5.623z" opacity=".33"/><path d="m157.644 93.072 2.812 4.8357h-5.623z" opacity=".33"/></g><path d="m116.541 118.325h20.083s-1.315 8.059 5.088 10.182c-.113.212-1.203 8.355-1.203 8.355" opacity=".51" stroke="#fff" stroke-linecap="round" stroke-linejoin="round" stroke-width=".537297"/><path d="m67.3342 42.3832c-.0242-.0565-.0284-.1195-.0118-.1787.0166-.0591.0528-.1108.1028-.1464l7.08-5.013c.0574-.0402.1282-.0563.1973-.0447.0691.0115.1309.0498.1722.1065l2.3726 3.3125c.0207.0287.0354.0612.0435.0957s.0094.0703.0037.1052c-.0057.035-.0183.0685-.037.0985-.0187.0301-.043.0561-.0718.0766h-.0135l-8.0172 5.1044c-.0297.0189-.0627.0317-.0974.0378-.0346.006-.0702.0051-.1045-.0027-.0343-.0077-.0668-.0222-.0955-.0425-.0288-.0203-.0533-.0461-.0721-.0759-.0082-.0129-.0153-.0263-.0214-.0403z" fill="#fdc757"/><path d="m169.151 31.3256c.022-.0645.067-.1185.126-.1509.06-.0324.13-.0409.195-.0237l8.762 2.2459c.069.0171.128.061.165.1219.037.061.048.134.031.2031l-.916 3.788c-.008.0344-.023.0669-.044.0956s-.047.0529-.077.0714c-.03.0184-.064.0308-.098.0363-.035.0055-.071.0039-.105-.0045h-.016l-8.947-2.7779c-.068-.021-.124-.0682-.157-.1312-.033-.0629-.04-.1365-.019-.2046z" fill="#fdc757"/><path d="m168.185 35.7852s3.253 2.4474 8.432 2.2217" stroke="#fff" stroke-linecap="round" stroke-linejoin="round" stroke-width=".268649"/><path d="m174.793 33.5608-.72 3.1862" stroke="#fff" stroke-linecap="round" stroke-linejoin="round" stroke-width=".268649"/><path d="m176.394 33.6629-1.071 3.3446" stroke="#fff" stroke-linecap="round" stroke-linejoin="round" stroke-width=".268649"/><path d="m177.441 34.6891-.827 2.5038" stroke="#fff" stroke-linecap="round" stroke-linejoin="round" stroke-width=".268649"/><path d="m173.524 33.3673-1.151 2.7671" stroke="#fff" stroke-linecap="round" stroke-linejoin="round" stroke-width=".268649"/><path d="m171.947 32.8139-.512 2.7403" stroke="#fff" stroke-linecap="round" stroke-linejoin="round" stroke-width=".268649"/><path d="m170.784 32.4968-.803 2.9552" stroke="#fff" stroke-linecap="round" stroke-linejoin="round" stroke-width=".268649"/><path d="m169.727 32.1664-.991 2.7323" stroke="#fff" stroke-linecap="round" stroke-linejoin="round" stroke-width=".268649"/><path d="m124.453 81.904s-4.188.3494-3.481 1.6308c.707 1.2815 4.081 2.6864 6.218 6.6248 2.038-4.2742 5.953-6.6248 5.953-6.6248l-.348-4.9566s2.276-.3412 5.604.951c3.329 1.2922 8.802 6.1063 2.729 6.5012-6.073.395-13.566 6.7728-13.566 6.7728s-4.868-4.0003-12.438-5.9856-3.136-6.2111-.388-7.7505c2.747-1.5394 9.72 0 9.72 0z" fill="#f89c53"/><path d="m124.405 81.904s-6.807.3494-6.105 1.6308c.702 1.2815 6.381 3.1969 8.51 7.138 2.07-4.7282 6.247-7.138 6.247-7.138l-.345-4.9566s2.268-.3412 5.583.951 4.79 4.8008-1.264 5.193c-6.055.3923-9.533 8.081-9.533 8.081s-4.852-4.0003-12.393-5.9856c-7.54-1.9853-3.125-6.2111-.388-7.7505s9.688 0 9.688 0z" fill="#ef8b3c"/><path d="m119.754 73.3798c.568 3.3294.926 6.6916 1.071 10.0663.884.806 6.874-1.3057 6.874-1.3057l5.436 1.3057s.573-5.3918 0-10.4934-13.381.4271-13.381.4271z" fill="#de8f5c"/><path d="m119.754 73.3423s.677 4.4542.873 6.9848c.078 1.0343 12.516-5.1043 12.516-7.8418s-13.389.857-13.389.857z" fill="#d48857"/><path d="m112.246 51.0579s-1.856 1.3083-1.554 3.3554c.303 2.0471 3.171 2.9283 3.171 2.9283v-8.3281z" fill="#291b23"/><path d="m125.19 75.8784c5.821 0 10.175-3.2104 13.266-14.002 3.09-10.7916 3.821-19.1089-16.231-19.0418-7.179 0-9.315 6.0096-9.372 13.9294-.747 10.0743 6.518 19.1144 12.337 19.1144z" fill="#f8a474"/><path d="m125.198 75.8784c5.765 0 8.523-8.3926 10.588-15.1947 2.064-6.8022 6.477-17.9162-13.389-17.849-7.112 0-9.228 6.0095-9.292 13.9293-.723 10.0743 6.328 19.1144 12.093 19.1144z" fill="#f49d6c"/><path d="m138.327 60.8528s.153-1.9235 1.96-1.131c1.808.7925-.72 5.9479-2.458 5.9479s-.969-1.5931-.969-1.5931z" fill="#f8a474"/><path d="m111.126 47.2431s-2.201 3.0034-.463 4.4837c1.738 1.4802 3.749-.5104 3.749-.5104s.38 1.9934 2.793 2.3991c2.413.4056 3.829-1.8806 3.829-1.8806s1.749 2.3533 3.953 2.3533c2.203 0 3.874-2.3533 3.874-2.3533s.999 2.9283 4.132 2.9283 3.018-2.5281 3.018-2.5281 1.781.8571 2.747-.4002c.967-1.2573-.937-2.8369-.937-2.8369s4.748-1.612 3.275-4.8841c-1.055-2.6489-4.485-1.3915-4.485-1.3915s-.464-2.8854-2.48-3.6672-4.552 1.1956-4.552 1.1956-.49-2.6865-3.628-2.6865c-3.139 0-4.084 3.264-4.084 3.264s-2.129-2.5387-4.657-1.7785c-3.317.7442-3.189 3.6672-3.189 3.6672s-3.213-.5374-3.955 1.3915 1.06 3.2346 1.06 3.2346z" fill="#3e2d37"/><path d="m111.389 47.2566s-2.191 2.998-.461 4.4756c1.73 1.4775 3.727-.5104 3.727-.5104s.378 1.9879 2.78 2.3963c2.402.4083 3.81-1.8806 3.81-1.8806s1.738 2.3507 3.931 2.3507 3.856-2.3507 3.856-2.3507.994 2.9229 4.111 2.9229c-.964-.433-1.826-1.0652-2.529-1.8555s-1.232-1.7207-1.552-2.7303c0 0-5.522.2391-8.414-3.3742s1.419-5.9426 1.419-5.9426-2.118-2.5332-4.632-1.7729c-3.302.7441-3.173 3.6616-3.173 3.6616s-3.214-.5372-3.937 1.3863 1.064 3.2238 1.064 3.2238z" fill="#35232e"/><path d="m124.574 57.6103s.913-.9833 2.059-.9833 3.832.8059 3.832.8059c-1.065-.6046-2.238-.996-3.452-1.1525-.495-.0738-1.001.0159-1.441.2558s-.79.6169-.998 1.0741z" fill="#543921" stroke="#543921" stroke-linecap="round" stroke-linejoin="round" stroke-width=".268649"/><path d="m118.951 57.3417s-.999-.661-1.971-.661-2.849.661-2.849.661.76-.8409 2.329-1.0451c.469-.0491.943.0208 1.379.2035.435.1826.817.472 1.112.8416z" fill="#543921" stroke="#543921" stroke-linecap="round" stroke-linejoin="round" stroke-width=".268649"/><path d="m121.275 59.7595c-.469 1.7569-2.525 3.2533-2.308 4.2258.436 1.945 2.929 1.644 2.929 1.644" stroke="#7c5430" stroke-linecap="round" stroke-linejoin="round" stroke-width=".268649"/><path d="m115.71 60.7185c.153.5722 1.497.4218 2.001.2848.503-.137.214-1.1015 0-1.6119-.214-.5105-1.055-.5104-1.556-.3761s-.6 1.1283-.445 1.7032z" fill="#543921"/><path d="m125.503 60.7695c.155.5749 1.5.4217 2 .2874.501-.1343.215-1.1014 0-1.6119-.214-.5104-1.057-.5104-1.555-.3761-.499.1344-.598 1.1203-.445 1.7006z" fill="#543921"/><path d="m116.053 60.6593c.102.1746.407.1425.579.0968.171-.0457.19-.3815.115-.5588-.058-.0835-.145-.1427-.244-.1665-.098-.0237-.202-.0104-.292.0376-.093.0622-.161.1566-.19.2655-.029.1088-.018.2245.032.3254z" fill="#f7f7f7"/><path d="m125.846 60.7024c.104.1773.407.1451.581.0967s.188-.3788.113-.5561-.351-.2176-.536-.1317c-.093.0627-.161.1571-.19.2658s-.018.2243.032.3253z" fill="#f7f7f7"/><path d="m.146091 140.021c-.0606752-.087-.103684-.184-.1266976-.288-.02301365-.103-.0256053-.21-.0074528-.314s.0566759-.204.1132304-.294c.056554-.089.130049-.166.216392-.227.134274-.097.29546-.148.460634-.148h242.394803c.213 0 .417.085.568.236.15.151.235.356.235.57 0 .175-.056.344-.161.484l-2.214 2.955c-.075.1-.172.181-.284.237-.111.056-.234.085-.359.085h-238.10728c-.12631-.002-.25038-.034-.36204-.093-.11167-.06-.20776-.144-.2806-.248z" fill="#4b423b"/><path d="m43.7052 125.847h-26.5099c-1.9226 0-3.4811 1.564-3.4811 3.492v5.911c0 1.929 1.5585 3.492 3.4811 3.492h26.5099c1.9226 0 3.4811-1.563 3.4811-3.492v-5.911c0-1.928-1.5585-3.492-3.4811-3.492z" fill="#48a8d4"/><path d="m26.5675 106.773h19.5477c.6392 0 1.2522.255 1.7042.708.452.454.7058 1.069.7058 1.71v3.224c0 .641-.2538 1.256-.7058 1.709-.452.454-1.065.708-1.7042.708h-19.5477c-.9233 0-1.8087-.367-2.4615-1.022-.6529-.655-1.0196-1.544-1.0196-2.47v-1.075c0-.926.3667-1.814 1.0196-2.469.6528-.655 1.5382-1.023 2.4615-1.023z" fill="#eaa844"/><path d="m34.8685 128.265c0-.641.254-1.256.706-1.71.4519-.453 1.0649-.708 1.704-.708h18.9908c.4317 0 .8459.172 1.1512.478.3053.307.4769.722.4769 1.155h-1.7833s-.8516 1.532-.8516 4.815.8516 4.835.8516 4.835h1.7833c0 .428-.1693.838-.4706 1.14s-.71.472-1.1361.472h-19.0122c-.6391 0-1.2521-.255-1.704-.708-.452-.453-.706-1.068-.706-1.71z" fill="#63bedb"/><path d="m44.2408 108.385c0-.428-.1693-.838-.4706-1.14s-.71-.472-1.1361-.472h-20.6188c-.2841 0-.5565.113-.7573.315-.2009.201-.3138.475-.3138.76h1.8048s.8596.902.8596 2.955c0 2.052-.8596 2.955-.8596 2.955h-1.8048c0 .285.1129.558.3138.76.2008.201.4732.314.7573.314h20.6188c.4261 0 .8348-.169 1.1361-.472.3013-.302.4706-.712.4706-1.139z" fill="#c6841e"/><path d="m52.8096 120.34c0-1.461-.5784-2.862-1.6079-3.895-1.0294-1.032-2.4257-1.613-3.8816-1.613h-28.2504c-.3551 0-.6957.142-.9468.394s-.3921.593-.3921.95h1.6334s.7819 1.359.7819 4.164c0 2.804-.7819 4.072-.7819 4.072h-1.6334c0 .381.1506.746.4188 1.015.2681.269.632.42 1.0112.42h28.1593c1.4559 0 2.8522-.58 3.8816-1.613 1.0295-1.033 1.6079-2.434 1.6079-3.894z" fill="#e74f56"/><path d="m36.5076 129.108c-.005-.211.0317-.422.1079-.619.0761-.198.1903-.378.336-.532.1457-.153.3201-.276.5132-.361.1931-.086.401-.132.612-.137h18.2089s-.7873 1.537-.7873 4.836.7873 4.835.7873 4.835h-18.0214c-.4197 0-.8227-.164-1.123-.459-.3002-.294-.4738-.694-.4836-1.115z" fill="#f3ebda"/><path d="m43.1696 108.922c0-.285-.1128-.558-.3137-.76-.2008-.201-.4733-.314-.7574-.314h-20.6188s.8408.943.8408 2.955-.8408 2.955-.8408 2.955h20.6188c.2841 0 .5566-.113.7574-.315.2009-.201.3137-.475.3137-.76z" fill="#f3ebda"/><path d="m51.369 120.34c.0266-1.078-.3746-2.122-1.1153-2.903s-1.7603-1.235-2.8344-1.261h-28.3496s.7257 1.324.7257 4.158c0 2.835-.7257 4.17-.7257 4.17h28.0443c1.1106 0 2.1774-.435 2.9725-1.213.795-.778 1.2552-1.837 1.2825-2.951z" fill="#f3ebda"/><path d="m187.77 90.1168c.994 0 1.947.3962 2.651 1.1015.703.7053 1.098 1.6621 1.098 2.6596v5.6416h-7.498v-5.6416c0-.9975.395-1.9543 1.098-2.6596s1.656-1.1015 2.651-1.1015z" fill="#0b0c15"/><path d="m184.021 99.7882h7.498v5.6418c0 .997-.395 1.954-1.098 2.659-.704.706-1.657 1.102-2.651 1.102-.995 0-1.948-.396-2.651-1.102-.703-.705-1.098-1.662-1.098-2.659z" fill="#4e4564"/><path d="m187.77 96.2957c1.331 0 2.41-1.0825 2.41-2.4179 0-1.3353-1.079-2.4178-2.41-2.4178s-2.41 1.0825-2.41 2.4178c0 1.3354 1.079 2.4179 2.41 2.4179z" fill="#fff"/><path d="m187.636 102.206c2.024 0 3.965.807 5.396 2.242 1.431 1.436 2.235 3.384 2.235 5.415v27.536c0 .428-.169.837-.47 1.14-.301.302-.71.472-1.136.472h-12.05c-.426 0-.835-.17-1.136-.472-.302-.303-.471-.712-.471-1.14v-27.536c0-2.031.804-3.979 2.235-5.415 1.432-1.435 3.373-2.242 5.397-2.242z" fill="#615486"/><path d="m180.004 109.588c0-.285.113-.558.314-.759.201-.202.473-.315.757-.315.231 0 .456.074.642.213.185.138.321.333.387.555l5.184 17.5c.23.776.582 1.51 1.041 2.176l6.066 8.787c.06.088.102.186.125.289.022.104.024.211.005.315-.019.105-.058.204-.115.293-.058.089-.132.166-.219.226-.134.093-.293.143-.455.143h-12.125c-.426 0-.835-.17-1.136-.472-.302-.303-.471-.712-.471-1.14z" fill="#4e4564"/><path d="m177.276 107.783c-.02-.141-.095-.268-.209-.354-.113-.086-.256-.123-.397-.103l-1.59.223c-.141.02-.268.096-.353.209-.085.114-.122.257-.102.399l.857 6.119 2.65-.373z" fill="#393939"/><path d="m177.867 113.927-2.115.304 1.339 9.577 2.12-.301z" fill="#1d1d1d"/><path d="m176.885 108.369.996-.14.57 4.07" stroke="#393939" stroke-linecap="round" stroke-linejoin="round" stroke-width=".537297"/><path d="m183.217 106.3 3.371.416c.141.018.269.091.356.202.087.112.127.254.11.395l-3.296 26.932-4.434-.537 3.296-26.932c.008-.071.029-.14.063-.202.035-.062.081-.117.137-.161.055-.045.119-.077.187-.097.068-.019.14-.024.21-.016z" fill="#f2ece0" stroke="#d7cdb8" stroke-miterlimit="10" stroke-width=".268649"/><path d="m180.135 131.123 2.946-23.985c.014-.11.071-.21.158-.278s.198-.098.308-.084l1.033.126c.11.014.209.071.277.159.068.087.098.198.085.308l-2.946 23.983c-.015.122-.054.241-.114.348-.061.108-.142.202-.239.278-.097.077-.208.133-.326.166-.119.033-.243.042-.365.027-.247-.031-.471-.158-.624-.355-.153-.196-.222-.445-.193-.693z" fill="#fcf9f1"/><path d="m183.549 108.535-.883-.107" stroke="#d7cdb8" stroke-linecap="square" stroke-linejoin="round" stroke-width=".537297"/><path d="m183.273 110.803-.886-.11" stroke="#d7cdb8" stroke-linecap="square" stroke-linejoin="round" stroke-width=".537297"/><path d="m182.751 115.069-.886-.11" stroke="#d7cdb8" stroke-linecap="square" stroke-linejoin="round" stroke-width=".537297"/><path d="m182.229 119.335-.886-.107" stroke="#d7cdb8" stroke-linecap="square" stroke-linejoin="round" stroke-width=".537297"/><path d="m181.967 121.468-.887-.107" stroke="#d7cdb8" stroke-linecap="square" stroke-linejoin="round" stroke-width=".537297"/><path d="m181.707 123.601-.886-.107" stroke="#d7cdb8" stroke-linecap="square" stroke-linejoin="round" stroke-width=".537297"/><path d="m182.489 117.202-.887-.11" stroke="#d7cdb8" stroke-linecap="square" stroke-linejoin="round" stroke-width=".537297"/><path d="m183.011 112.936-.886-.11" stroke="#d7cdb8" stroke-linecap="square" stroke-linejoin="round" stroke-width=".537297"/><path d="m173.54 110.658-1.272.421 4.265 12.431 1.272-.422z" fill="#423462"/><path d="m173.7 110.3c-.022-.067-.058-.128-.105-.181s-.104-.097-.167-.128c-.063-.03-.132-.049-.203-.053-.07-.004-.141.006-.207.029l-.758.269c-.134.046-.245.144-.307.272s-.071.276-.025.41l.61 1.779 1.773-.613z" fill="#e95d4f"/><path d="m174.308 112.081-1.773.613" stroke="#dfdfdf" stroke-linecap="square" stroke-miterlimit="10" stroke-width=".537297"/><path d="m186.966 117.957h-13.657l1.607 20.954h10.936z" fill="#4fcdb0"/><path d="m173.309 117.957h13.657l-.359 4.682-8.633 3.224-3.069 13.086z" fill="#34bd98"/><path d="m187.437 117.957h-14.663l.12 4.398h14.607z" fill="#52d7b8"/><path d="m213.714 71.0669 14.278 28.6191-8.325 34.425" stroke="#afd1c9" stroke-miterlimit="10" stroke-width="1.34324"/><path d="m227.695 102.373c1.553 0 2.812-1.263 2.812-2.8213 0-1.5579-1.259-2.8208-2.812-2.8208s-2.812 1.2629-2.812 2.8208c0 1.5583 1.259 2.8213 2.812 2.8213z" fill="#cdf0e8"/><path d="m227.695 101.298c.961 0 1.741-.782 1.741-1.7463 0-.9644-.78-1.7462-1.741-1.7462s-1.74.7818-1.74 1.7462c0 .9643.779 1.7463 1.74 1.7463z" fill="#afd1c9"/><path d="m233.185 138.774c0-2.004-6.114-3.626-13.657-3.626s-13.657 1.612-13.657 3.626c3.05-.032 26.208.062 27.314 0z" fill="#cdf0e8"/><path d="m229.168 136.357c0-2.005-4.255-3.627-9.506-3.627s-9.506 1.612-9.506 3.627c2.123-.033 18.243.061 19.012 0z" fill="#afd1c9"/><path d="m133.119 73.0307 57.079-6.1225 13.568 25.5082-37.178 46.0246s-18.677.857-29.319-21.658c-10.641-22.5156-4.15-43.7523-4.15-43.7523z" fill="url(#a)" opacity=".67"/><path d="m217.217 68.8775c.272.5137.441 1.0763.496 1.6555.056.5793-.003 1.1639-.173 1.7203s-.447 1.0737-.817 1.5224c-.369.4487-.823.82-1.335 1.0926l-3.074 1.6388c-.513.2729-1.073.4419-1.651.4974-.577.0555-1.159-.0036-1.714-.174-.554-.1704-1.07-.4487-1.517-.819-.448-.3704-.818-.8255-1.09-1.3393-.272-.514-.441-1.0768-.497-1.6563-.055-.5794.004-1.1641.174-1.7207.169-.5567.447-1.0743.816-1.5233.37-.4489.824-.8205 1.336-1.0933l3.074-1.6388c.513-.2728 1.073-.4417 1.651-.497.577-.0553 1.16.0041 1.714.1747.555.1707 1.071.4493 1.518.8199s.817.8259 1.089 1.3401z" fill="#afd1c9"/><path d="m205.044 92.548c3.542-1.8886 6.192-5.1115 7.367-8.96 1.175-3.8484.777-8.0073-1.104-11.5621-1.882-3.5542-5.095-6.2128-8.931-7.3911-3.836-1.1784-7.981-.7801-11.524 1.1074-3.776 2.0632 10.183 28.9254 14.192 26.8058z" fill="#cdf0e8"/><path d="m22.8186 109.594 18.8783.134" stroke="#d7caba" stroke-linecap="round" stroke-linejoin="round" stroke-width=".268649"/><path d="m22.1492 118.728 23.1011.134" stroke="#d7caba" stroke-linecap="round" stroke-linejoin="round" stroke-width=".268649"/><path d="m22.1492 121.952 23.1011.134" stroke="#d7caba" stroke-linecap="round" stroke-linejoin="round" stroke-width=".268649"/><path d="m39.0191 128.668 15.3624-.067" stroke="#d7caba" stroke-linecap="round" stroke-linejoin="round" stroke-width=".268649"/><path d="m39.0191 135.653 15.3624-.067" stroke="#d7caba" stroke-linecap="round" stroke-linejoin="round" stroke-width=".268649"/><path d="m176.849 21.0741s-1.665 2.1813-1.665 3.1592 2.477 3.9895 3.553 4.5321c1.076.5427 3.181-1.268 3.409-1.6951" stroke="#df8652" stroke-linecap="round" stroke-linejoin="round" stroke-width=".268649"/><path d="m66.1717 29.9126s.2196 2.4177 1.9682 3.0652c1.7486.6474-2.2681 6.2273-3.848 6.1145-2.7554 0-2.6991-2.6865-2.8036-3.2479" fill="#f8a474"/><g stroke-linecap="round"><path d="m66.1717 29.9126s.2196 2.4177 1.9682 3.0652c1.7486.6474-2.2681 6.2273-3.848 6.1145-2.7554 0-2.6991-2.6865-2.8036-3.2479" stroke="#df8652" stroke-linejoin="round" stroke-width=".268649"/><path d="m69.4118 46.0584s5.0878-2.1814 7.4978-4.567" stroke="#fff" stroke-linejoin="round" stroke-width=".268649"/><path d="m72.2719 39.6699 1.8315 2.7052" stroke="#fff" stroke-linejoin="round" stroke-width=".268649"/><path d="m73.4394 38.5657 1.7137 3.0572" stroke="#fff" stroke-linejoin="round" stroke-width=".268649"/><path d="m74.481 38.1761 1.8262 2.2863" stroke="#fff" stroke-linejoin="round" stroke-width=".268649"/><path d="m71.2543 40.4624 1.2318 2.7321" stroke="#fff" stroke-linejoin="round" stroke-width=".268649"/><path d="m69.7867 41.2522 1.6496 2.2433" stroke="#fff" stroke-linejoin="round" stroke-width=".268649"/><path d="m68.7612 41.8862 1.6066 2.6139" stroke="#fff" stroke-linejoin="round" stroke-width=".268649"/><path d="m67.7999 42.4369 1.3174 2.5926" stroke="#fff" stroke-linejoin="round" stroke-width=".268649"/></g><path d="m131.804 51.2164s4.582 7.0924 5.588 10.155c1.339-1.8806 1.339-1.6361 1.781-1.7732.42-1.3432 1.663-5.8028 1.663-5.8028s2.785-3.8605-1.205-6.0527-7.827 3.4737-7.827 3.4737z" fill="#3e2d37"/><path d="m133.678 55.281 5.356.0887" stroke="#f49d6c" stroke-linecap="round" stroke-linejoin="round" stroke-width=".805946"/><path d="m133.143 56.9387 5.288-.0672" stroke="#f49d6c" stroke-linecap="round" stroke-linejoin="round" stroke-width=".805946"/><path d="m117.879 59.1738c-.323-.1504-.677-.2256-1.033-.2203-.385.0023-.765.0942-1.109.2687" stroke="#543921" stroke-linecap="round" stroke-linejoin="round" stroke-width=".268649"/><path d="m127.787 59.3699c-.346-.258-.763-.4033-1.194-.4164-.456.0303-.886.2206-1.216.5373" stroke="#543921" stroke-linecap="round" stroke-linejoin="round" stroke-width=".268649"/><path d="m119.853 68.2541c.407.1128 2.9.5722 4.748.2847 1.293-.2435 2.545-.6666 3.722-1.2572 0 0-1.39 5.1044-6.724 5.1044-1.232-.857-2.156-4.2475-1.746-4.1319z" fill="#543921"/><path d="m123.709 70.4678c.908-.4647 3.401-1.0236 2.75-.2929-1.151 1.303-2.801 1.8806-4.041 2.0633-.476.0672.381-1.3056 1.291-1.7704z" fill="#f26061"/><path d="m120.338 68.4314c1.361.2527 2.751.3034 4.126.1505.956-.1434 1.892-.3995 2.788-.763-.346.4057-.803.806-1.917 1.3433s-4.617.6823-4.729.4217c-.311-.7173-.372-1.1686-.268-1.1525z" fill="#f9ede2"/><path d="m140.105 60.8393c-.169-.1516-.387-.2353-.613-.2353-.227 0-.445.0837-.614.2353-.363.3106-.595.7488-.648 1.2251 0 0 .764-.411.938 0s0 1.7248-.705 1.7248" stroke="#a35f38" stroke-linecap="round" stroke-linejoin="round" stroke-width=".268649"/><path d="m130.197 62.7146c.138.1346.262.2831.37.4432.107.1929.165.4102.166.6314" stroke="#543921" stroke-linecap="round" stroke-linejoin="round" stroke-width=".268649"/><path d="m131.268 62.446c.145.1305.269.2817.37.4486.107.191.163.4067.163.6259" stroke="#543921" stroke-linecap="round" stroke-linejoin="round" stroke-width=".268649"/><path d="m129.126 62.7146c.141.1722.264.3574.37.5533.109.2488.166.5179.166.7899" stroke="#543921" stroke-linecap="round" stroke-linejoin="round" stroke-width=".268649"/><path d="m115.807 64.3237c1.848-.0644 3.28-1.9826 3.2-4.2822s-1.639-4.1076-3.481-4.0431-3.28 1.9853-3.2 4.2822c.08 2.297 1.634 4.1103 3.481 4.0431z" stroke="#231f20" stroke-miterlimit="10" stroke-width=".268649"/><path d="m126.947 64.861c2.217-.0725 3.936-2.176 3.842-4.696-.093-2.5199-1.965-4.5052-4.182-4.4327-2.217.0726-3.937 2.1734-3.843 4.696s1.968 4.5052 4.183 4.4327z" stroke="#231f20" stroke-miterlimit="10" stroke-width=".268649"/><path d="m119.013 60.5655s1.665-1.6119 3.749 0" stroke="#231f20" stroke-miterlimit="10" stroke-width=".268649"/><path d="m131.001 60.5654 7.431-.8059" stroke="#231f20" stroke-miterlimit="10" stroke-width=".268649"/><path d="m161.393 136.862c.249 0 .487.099.663.275s.275.416.275.665c0 .249-.099.488-.275.665-.176.176-.414.275-.663.275h-31.062l-1.751-1.88z" fill="#988189"/><path d="m111.424 102.206c.196 0 .39.054.558.157s.305.25.395.426l18.356 35.953h-55.6977c-.1923 0-.3809-.052-.5463-.15s-.3013-.239-.3936-.409l-18.8113-34.387c-.0676-.123-.1101-.26-.1253-.4-.0151-.14-.0026-.282.0369-.418.0395-.135.1053-.261.1935-.371s.1972-.202.3206-.269c.1577-.087.3345-.132.5141-.132z" fill="url(#b)"/><path d="m95.5523 126.462c2.0378-.537 3.0125-1.958 3.2642-3.653 0-1.626.0001-4.723-2.8303-6.3-1.6388-.978-3.7489-1.392-5.5832-.9-3.2401.873-4.4584 3.858-3.5721 7.173s5.4813 4.553 8.7214 3.68z" fill="#cdc3c1"/><path d="m95.1506 125.635c.7227-.16 1.3773-.543 1.872-1.095s.8044-1.246.8861-1.984c0-1.367 0-3.973-2.3832-5.295-1.3817-.822-3.1678-1.169-4.7129-.752-2.7367.736-3.7676 3.248-3.0232 6.036.7444 2.789 4.6353 3.826 7.3612 3.09z" style="opacity:.66;stroke:#e4e3e3;stroke-width:.268649;stroke-miterlimit:10;stroke-linecap:round;stroke-dasharray:1.34 1.34"/><path d="m89.4337 119.988s.715 3.189 2.41 2.976c1.695-.212-.1311-3.21-.1311-3.21" opacity=".66" stroke="#e4e3e3" stroke-linecap="round" stroke-linejoin="round" stroke-width=".805946"/><path d="m94.3046 123.246-1.3897-4.105s2.2038-.569 2.8144.538c.6105 1.107-1.5853 1.279-1.5853 1.279" opacity=".66" stroke="#e4e3e3" stroke-linecap="round" stroke-linejoin="round" stroke-width=".805946"/><path d="m42.4335 13.0146s-4.654 3.3366-2.1155 6.2084c2.5386 2.8719 12.7944 2.3856 10.5719 0-2.2226-2.3856-8.1405 1.8134-7.4978 5.8055s6.1321 3.154 6.1321 3.154" opacity=".63" stroke="#f5a623" stroke-miterlimit="10" stroke-width="1.34324"/><path d="m210.327 23.4543s5.291 5.6416 8.033 4.1479-.268-11.9818-3.138-7.9843c-2.871 3.9975 5.564 5.2655 8.301 2.305 2.736-2.9605-3.65-7.7532-3.65-7.7532" opacity=".63" stroke="#f8e71c" stroke-miterlimit="10" stroke-width="1.34324"/><path d="m150.977 18.8201s5.243-2.2916 3.355-5.6417c-1.888-3.35001-12.018-5.00218-10.342-2.2056 1.677 2.7967 8.339-.0752 8.545-4.11298.206-4.03779-5.342-4.36292-5.342-4.36292" opacity=".63" stroke="#7ed321" stroke-miterlimit="10" stroke-width="1.34324"/><path d="m57.0675 70.1722s5.1494-2.3909 3.441-5.5207c-1.7084-3.1297-10.1755.7254-8.1913 1.8806 1.9843 1.1552 5.1146-2.8988 3.8721-5.4483s-4.7771-.849-4.7771-.849" opacity=".63" stroke="#4a90e2" stroke-miterlimit="10" stroke-width="1.34324"/><path d="m105.227 15.6822s-2.482 7.447-5.8911 9.2873" opacity=".63" stroke="#9013fe" stroke-miterlimit="10" stroke-width="4.02973"/><path d="m77.18 2s-4.6915 6.8424.2329 13.6822" opacity=".63" stroke="#b8e986" stroke-miterlimit="10" stroke-width="4.02973"/><path d="m190.42 25.222s6.879 3.7611 8.093 7.4389" opacity=".63" stroke="#50e3c2" stroke-miterlimit="10" stroke-width="4.02973"/><path d="m23.3541 110.668h18.4766" stroke="#d7caba" stroke-linecap="round" stroke-linejoin="round" stroke-width=".268649"/><path d="m22.9525 112.818h18.8675" stroke="#d7caba" stroke-linecap="round" stroke-linejoin="round" stroke-width=".268649"/><path d="m23.2927 119.937h21.9577" stroke="#d7caba" stroke-linecap="round" stroke-linejoin="round" stroke-width=".268649"/><path d="m39.0191 130.28h14.46" stroke="#d7caba" stroke-linecap="round" stroke-linejoin="round" stroke-width=".268649"/><path d="m39.0191 132.698h13.9244" stroke="#d7caba" stroke-linecap="round" stroke-linejoin="round" stroke-width=".268649"/><path d="m134.383 58.7842h3.213" stroke="#f49d6c" stroke-linecap="round" stroke-linejoin="round" stroke-width=".805946"/></svg>