<svg width="275" height="168" viewBox="0 0 275 168" fill="none" xmlns="http://www.w3.org/2000/svg">
<path d="M73.6226 154.908C103.676 155.131 133.917 155.242 164.082 155.192C170.651 155.181 177.235 155.217 183.81 155.192C186.902 155.181 190.055 154.923 193.111 154.908C202.215 154.872 211.359 154.639 220.448 154.624C238.32 154.593 256.244 155.232 274.132 154.908V160.828H25.8535V154.908C41.7748 154.994 57.7063 154.791 73.6226 154.908Z" fill="#4A7C9F"/>
<path d="M158.168 75.1591C163.637 95.617 192.864 96.8893 200.437 77.1308C211.984 79.3713 215.36 79.4473 220.728 90.5177C222.091 93.331 229.766 114.869 228.757 116.019C228.138 116.227 227.535 116.354 226.927 116.582C224.448 117.525 212.481 120.024 211.426 121.093L211.143 121.377L205.506 99.8191C204.599 114.818 202.348 129.599 199.023 144.202C195.581 144.537 193.189 145.231 189.585 144.765C183.918 144.03 178.124 139.133 172.959 139.691C170.86 139.919 167.114 141.891 164.93 142.509C161.797 131.226 158.664 119.943 155.912 108.553C154.559 106.018 152.333 106.586 149.992 106.439C144.685 106.11 138.982 106.201 133.645 106.155C135.49 99.2109 137.406 84.1208 143.65 79.9491C147.868 77.1308 153.484 75.9599 158.163 75.1591H158.168Z" fill="#F3732E"/>
<path d="M227.494 118.554C228.944 123.942 233.369 138.464 233.415 143.214C233.506 152.819 214.984 153.357 208.618 153.22C205.597 153.154 202.545 152.713 199.317 152.657C199.286 152.657 199.408 152.099 199.175 152.094C192.463 151.988 185.727 151.897 179.026 151.811C175.148 146.346 174.555 148.495 170.008 151.811C169.79 151.795 167.925 152.616 167.474 151.811C168.128 151.294 172.122 147.563 171.985 147.162C171.205 144.937 167.57 148.561 166.349 148.151C165.735 146.22 165.462 144.395 164.939 142.514C167.129 141.896 170.875 139.924 172.969 139.696C178.134 139.138 183.927 144.035 189.594 144.77C193.203 145.236 195.596 144.542 199.033 144.207C201.983 143.918 204.852 143.614 207.766 143.082C210.681 142.55 215.77 141.744 215.937 141.252C215.111 135.869 213.864 130.602 212.556 125.331L227.494 118.569V118.554Z" fill="#E59976"/>
<path d="M188.606 57.9654L189.169 75.2959C189.402 75.8231 193.695 76.1627 194.521 76.2843C188.155 89.6712 168.766 88.3736 164.088 74.3125C168.138 73.7246 168.954 75.0222 169.724 70.9316C175.964 73.1619 182.539 66.4102 185.225 61.3514C186.117 60.6114 187.227 59.7547 188.043 58.9539C188.084 58.9133 187.704 58.1783 188.043 57.8286C188.307 57.5548 188.469 58.1175 188.606 57.9705V57.9654Z" fill="#E59976"/>
<path d="M164.088 74.3126C168.772 88.3736 188.16 89.6712 194.522 76.2843C196.6 76.5885 198.283 76.7101 200.442 77.1308C192.864 96.8893 163.637 95.617 158.173 75.1591C160.175 74.8144 162.091 74.6015 164.093 74.3126H164.088Z" fill="white"/>
<path d="M229.75 68.1133C235.432 78.8441 241.85 90.5127 245.251 102.212C245.808 104.138 246.234 106.424 246.66 108.411C247.086 110.398 246.939 108.674 246.944 108.695C247.36 110.707 247.527 112.851 247.79 114.894C248.084 117.175 248.252 118.772 248.353 121.093C248.505 124.434 248.596 127.617 248.353 130.957C248.297 131.743 248.16 132.686 248.069 133.492C247.887 135.159 247.517 136.908 247.223 138.566C247.177 138.834 247.273 139.143 247.223 139.412C246.599 142.747 245.352 147.244 244.121 150.401C243.816 151.182 243.335 152.049 242.995 152.936C242.98 152.976 242.473 153.23 242.711 153.782C242.443 153.818 242.134 154 241.586 154.066C241.464 152.708 242.265 151.598 242.711 150.401C243.431 148.496 243.862 146.995 244.404 145.049C244.409 145.028 244.582 145.16 244.688 144.765C245.18 142.93 245.479 140.999 245.814 139.128C246.959 132.777 247.537 126.426 247.223 119.963C247.136 118.209 246.868 116.612 246.66 114.889C246.432 113.013 246.189 111.102 245.814 109.252C245.727 108.827 245.585 108.659 245.53 108.406C245.084 106.373 244.425 104.467 243.837 102.485C240.223 90.239 234.789 80.38 228.899 69.2336C221.6 55.4107 213.363 42.0897 207.199 27.6688C210.625 39.7428 214.67 51.7409 220.444 62.8975C222.122 66.1365 224.347 69.1474 226.08 72.3357C231.783 82.8384 237.455 91.3186 241.018 103.053C241.586 104.924 241.992 106.789 242.428 108.69C242.488 108.948 242.62 109.121 242.711 109.536C243.127 111.488 243.593 113.47 243.837 115.457C244.181 118.204 244.379 120.561 244.399 123.349C244.435 128.357 243.938 131.738 242.99 136.594C242.894 137.08 242.818 137.516 242.706 138.003C242.595 138.49 242.767 138.596 242.706 138.849C242.291 140.598 241.596 142.494 241.013 144.202C240.937 144.43 240.811 144.537 240.729 144.765C240.197 146.301 239.695 148.08 239.036 149.555C238.793 150.107 236.72 154.188 236.502 154.345C236.284 154.502 236.173 154.304 236.218 154.629C227.13 154.644 217.985 154.877 208.882 154.913L208.598 153.22C214.969 153.357 233.486 152.819 233.395 143.214C233.349 138.469 228.929 123.947 227.474 118.554C227.297 117.895 227.221 117.195 226.912 116.582C227.52 116.349 228.128 116.227 228.742 116.019C229.745 114.869 222.076 93.3259 220.712 90.5178C215.345 79.4524 211.969 79.3713 200.422 77.1309C198.262 76.7101 196.58 76.5885 194.501 76.2844C193.67 76.1627 189.382 75.8231 189.149 75.2959L188.586 57.9655C191.774 54.5541 193.488 52.0602 195.916 48.1014C197.254 56.1913 203.737 48.9885 200.706 45.2831C206.636 40.2041 203.215 28.1453 196.194 36.8282C194.192 30.6797 188.784 28.1655 184.642 23.4414C181.642 20.0249 178.281 15.5846 177.176 11.1848C176.025 19.371 165.725 22.2654 159.283 26.1228C156.951 27.5167 154.604 28.8752 152.237 30.2083C152.714 41.4511 156.48 56.7793 165.624 64.1647C166.993 65.2697 169.076 65.7969 169.993 67.2668C169.725 67.794 169.841 70.2271 169.709 70.9316C168.939 75.0222 168.123 73.7297 164.073 74.3126C162.076 74.6015 160.155 74.8144 158.152 75.1591C153.474 75.965 147.858 77.1309 143.64 79.9492C137.4 84.1208 135.479 99.2159 133.634 106.155C124.764 106.079 115.756 106.393 106.86 106.439C105.938 102.465 108.797 98.2985 109.395 95.024C110.094 91.1818 109.253 86.9543 110.804 83.3301C113.115 77.9317 122.559 70.7137 126.583 65.7158C145.06 42.8044 135.221 -3.37299 176.887 0.195496C205.187 2.61842 207.614 27.5674 219.019 49.3737C222.345 55.7301 226.374 61.7823 229.73 68.1133H229.75Z" fill="#331C25"/>
<path d="M140.558 34.8564C139.413 43.6763 138.166 54.6048 133.933 62.6136C128.677 72.5689 116.38 79.7971 111.245 90.3708C109.643 81.0744 120.313 74.8499 125.757 68.529C134.329 58.5788 138.237 47.6858 140.553 34.8514L140.558 34.8564Z" fill="white"/>
<path d="M228.904 69.2387L226.086 72.3408C224.352 69.1525 222.127 66.1365 220.449 62.9026C214.676 51.746 210.631 39.7479 207.204 27.6739C213.368 42.0948 221.605 55.4158 228.904 69.2387Z" fill="white"/>
<path d="M196.214 36.8282C196.062 37.0158 196.6 38.1664 195.089 37.5328C192.808 28.5153 181.429 25.0685 177.475 16.2537C173.384 20.1871 166.678 23.5731 161.412 25.8339C161.102 25.9657 159.521 26.6347 159.298 26.1177C165.74 22.2603 176.04 19.366 177.191 11.1797C178.301 15.5846 181.662 20.0199 184.657 23.4363C188.804 28.1605 194.207 30.6746 196.209 36.8232L196.214 36.8282Z" fill="#D68365"/>
<path d="M226.932 116.582C227.247 117.195 227.318 117.9 227.495 118.554L212.557 125.316C212.207 123.901 211.984 122.447 211.432 121.088C212.486 120.019 224.454 117.525 226.932 116.577V116.582Z" fill="#D68365"/>
<path d="M169.725 70.9316C169.856 70.227 169.735 67.794 170.008 67.2668C176.091 67.7433 180.699 65.1075 185.225 61.3464C182.539 66.4051 175.964 73.1568 169.725 70.9265V70.9316Z" fill="#C97259"/>
<path d="M200.721 45.2832C203.752 48.9885 197.269 56.1914 195.931 48.1015C196.899 46.52 196.656 44.2288 199.17 44.4367C199.256 44.4417 200.665 45.2122 200.721 45.2832Z" fill="white"/>
<path d="M208.613 153.22L208.897 154.913C205.84 154.923 202.687 155.181 199.595 155.197L199.312 152.662C202.535 152.718 205.592 153.159 208.613 153.225V153.22Z" fill="#CF4228"/>
<path d="M163.804 151.527C164.468 151.917 165.603 154.081 165.213 154.629C140.33 154.284 115.416 155.004 90.5332 154.487C97.3052 154.614 103.763 152.191 110.403 151.248C121.382 149.682 133.953 149.2 145.064 149.555C148.06 149.651 161.888 150.401 163.804 151.527Z" fill="#E2E3EC"/>
<path d="M164.935 142.509C165.457 144.39 165.731 146.215 166.344 148.146C166.648 149.099 166.491 151.172 167.469 151.811C167.921 152.617 169.791 151.795 170.004 151.811C173.152 152.044 175.945 151.775 179.021 151.811C185.722 151.892 192.464 151.983 199.17 152.094C199.398 152.094 199.282 152.657 199.312 152.657L199.596 155.192C193.027 155.217 186.442 155.181 179.868 155.192C175.022 154.928 170.06 154.695 165.214 154.629C165.604 154.087 164.469 151.917 163.805 151.527C164.124 151.065 163.926 150.194 163.805 149.697C161.123 138.566 157.509 120.672 153.662 110.525C152.846 108.375 152.07 107.498 149.997 106.439C152.339 106.586 154.559 106.018 155.918 108.553C158.67 119.943 161.802 131.231 164.935 142.509Z" fill="#BFC2D0"/>
<path d="M149.997 106.439C152.065 107.503 152.845 108.375 153.661 110.525C157.509 120.672 161.128 138.566 163.804 149.697C163.926 150.199 164.123 151.07 163.804 151.527C161.883 150.396 148.06 149.651 145.064 149.555C133.954 149.195 121.383 149.682 110.404 151.248C103.763 152.196 97.3106 154.619 90.5336 154.487C115.417 155.004 140.33 154.279 165.213 154.629C170.059 154.695 175.022 154.928 179.867 155.191C149.703 155.247 119.462 155.131 89.4083 154.908C89.3778 154.517 89.0889 154.771 88.8456 154.345C85.7942 148.962 76.7665 119.278 75.3168 112.354C74.7339 109.572 73.857 107.61 77.2886 106.718C82.91 105.258 100.007 106.469 106.881 106.434C115.771 106.393 124.784 106.074 133.654 106.15C138.992 106.196 144.689 106.104 150.002 106.434L149.997 106.439Z" fill="#E2E3EC"/>
<path d="M118.291 124.758C125.017 124.413 123.613 135.686 116.881 132.088C113.739 130.405 114.519 124.951 118.291 124.758Z" fill="white"/>
<path d="M211.148 121.372L207.767 143.072C204.852 143.604 201.983 143.913 199.033 144.197C202.353 129.589 204.609 114.808 205.516 99.8141L211.153 121.372H211.148Z" fill="#CF4228"/>
<path d="M212.557 125.321C213.864 130.592 215.111 135.859 215.938 141.242C215.77 141.734 208.861 142.874 207.767 143.072L211.148 121.372L211.431 121.088C211.984 122.447 212.207 123.901 212.557 125.316V125.321Z" fill="#331C25"/>
<path d="M179.021 151.811C175.945 151.775 173.152 152.044 170.004 151.811C174.551 148.496 175.144 146.346 179.021 151.811Z" fill="#CF4228"/>
<path d="M167.469 151.811C166.491 151.172 166.643 149.099 166.344 148.146C167.565 148.556 171.2 144.932 171.98 147.157C172.122 147.558 168.123 151.289 167.469 151.806V151.811Z" fill="#CF4228"/>
<path d="M196.214 36.8283C203.235 28.1453 206.656 40.2041 200.726 45.2832C200.67 45.2173 199.266 44.4468 199.175 44.4367C196.655 44.2288 196.904 46.52 195.936 48.1015C193.508 52.0602 191.794 54.5541 188.606 57.9655C188.464 58.1176 188.307 57.5498 188.043 57.8236C187.704 58.1733 188.084 58.9134 188.043 58.9488C187.227 59.7497 186.117 60.6013 185.225 61.3464C180.698 65.1025 176.091 67.7433 170.008 67.2669C169.096 65.802 167.007 65.2748 165.639 64.1647C156.495 56.7794 152.728 41.446 152.252 30.2083C154.619 28.8752 156.966 27.5168 159.298 26.1228C159.521 26.6398 161.102 25.9708 161.411 25.839C166.678 23.5732 173.384 20.1922 177.475 16.2588C181.428 25.0685 192.808 28.5153 195.089 37.5379C196.6 38.1715 196.062 37.0209 196.214 36.8333V36.8283Z" fill="#E59976"/>
<path d="M180.856 31.1967C184.11 30.7354 187.993 32.1294 190.294 34.4357C188.333 33.6906 177.703 35.4089 177.333 33.8731C177.049 32.7123 179.928 31.3285 180.856 31.1967Z" fill="#331C25"/>
<path d="M160.282 32.322C161.625 32.2054 167.642 33.128 165.918 35.1403C164.195 37.1526 155.051 35.4647 153.378 35.8449C154.985 34.2025 157.96 32.5197 160.282 32.322Z" fill="#331C25"/>
<path d="M181.702 36.5494C185.443 35.6979 185.666 44.9181 181.702 43.0325C179.629 42.0441 179.761 36.9955 181.702 36.5494Z" fill="#331C25"/>
<path d="M160.849 37.9586C164.752 36.8688 165.082 46.2867 161.133 44.4417C157.184 42.5966 158.979 38.4807 160.849 37.9586Z" fill="#331C25"/>
<path d="M169.583 42.7487C170.653 45.1158 167.535 47.0521 168.879 49.0898C170.024 50.8284 172.863 50.0681 174.515 49.6525C172.67 53.5606 166.248 50.0225 167.186 47.118C167.216 47.0217 168.448 46.0485 168.595 45.7089C169.132 44.467 168.635 43.7269 169.583 42.7487Z" fill="#D68365"/>
<path d="M200.3 36.5495C202.14 36.3264 199.479 38.8558 199.312 39.5097C199.145 40.1636 199.55 42.333 199.312 42.8906C199.14 43.2911 198.709 42.2773 198.323 42.4699C198.1 42.5814 197.259 43.6459 197.198 43.5952C195.601 42.3787 199.064 36.6965 200.3 36.5495Z" fill="#D68365"/>
<path d="M174.373 54.3006C176.142 54.2296 177.85 54.4831 179.589 54.7213C175.098 61.8836 170.303 63.1103 164.935 55.8466C166.932 54.1434 169.583 55.3143 171.56 55.142C171.808 55.1217 173.689 54.3259 174.378 54.2955L174.373 54.3006Z" fill="#AF5B4E"/>
<path d="M175.366 56.1675C175.61 56.1675 176.02 56.0864 176.071 56.3094C173.536 58.2265 171.084 58.6904 168.595 56.9821C170.627 57.1444 173.43 56.127 175.366 56.1675Z" fill="white"/>
<path fill-rule="evenodd" clip-rule="evenodd" d="M17.9596 23.5652C8.0408 23.5652 0 31.606 0 41.5248C0 51.4437 8.04082 59.4845 17.9596 59.4845H92.6645C94.3798 61.9335 99.8518 66.8624 109.239 68.4781C107.037 66.8305 102.952 63.0884 101.494 59.4845H109.957C119.876 59.4845 127.917 51.4437 127.917 41.5248C127.917 31.606 119.876 23.5652 109.957 23.5652H17.9596Z" fill="#DCDCDC"/>
<mask id="path-32-inside-1_1432_925" fill="white">
<path fill-rule="evenodd" clip-rule="evenodd" d="M17.9596 20.3621C8.0408 20.3621 0 28.4029 0 38.3218C0 48.2406 8.04082 56.2814 17.9596 56.2814H92.6644C94.3798 58.7304 99.8518 63.6594 109.239 65.275C107.037 63.6275 102.952 59.8854 101.494 56.2814H109.957C119.876 56.2814 127.917 48.2406 127.917 38.3218C127.917 28.4029 119.876 20.3621 109.957 20.3621H17.9596Z"/>
</mask>
<path fill-rule="evenodd" clip-rule="evenodd" d="M17.9596 20.3621C8.0408 20.3621 0 28.4029 0 38.3218C0 48.2406 8.04082 56.2814 17.9596 56.2814H92.6644C94.3798 58.7304 99.8518 63.6594 109.239 65.275C107.037 63.6275 102.952 59.8854 101.494 56.2814H109.957C119.876 56.2814 127.917 48.2406 127.917 38.3218C127.917 28.4029 119.876 20.3621 109.957 20.3621H17.9596Z" fill="white"/>
<path d="M92.6644 56.2814L92.9646 56.0711L92.8552 55.9149H92.6644V56.2814ZM109.239 65.275L109.177 65.6362L109.459 64.9816L109.239 65.275ZM101.494 56.2814V55.9149H100.951L101.155 56.4188L101.494 56.2814ZM0 38.3218H0.366523C0.366523 28.6054 8.24323 20.7286 17.9596 20.7286V20.3621V19.9956C7.83838 19.9956 -0.366523 28.2005 -0.366523 38.3218H0ZM17.9596 56.2814V55.9149C8.24324 55.9149 0.366523 48.0382 0.366523 38.3218H0H-0.366523C-0.366523 48.443 7.83839 56.6479 17.9596 56.6479V56.2814ZM92.6644 56.2814V55.9149H17.9596V56.2814V56.6479H92.6644V56.2814ZM109.239 65.275L109.301 64.9138C100.009 63.3146 94.6234 58.4393 92.9646 56.0711L92.6644 56.2814L92.3642 56.4917C94.1362 59.0215 99.6943 64.0042 109.177 65.6362L109.239 65.275ZM101.494 56.2814L101.155 56.4188C101.908 58.2812 103.328 60.1561 104.819 61.7613C106.314 63.3706 107.902 64.7326 109.02 65.5685L109.239 65.275L109.459 64.9816C108.374 64.1699 106.819 62.8371 105.356 61.2624C103.89 59.6837 102.539 57.8856 101.834 56.1439L101.494 56.2814ZM109.957 56.2814V55.9149H101.494V56.2814V56.6479H109.957V56.2814ZM127.917 38.3218H127.55C127.55 48.0382 119.673 55.9149 109.957 55.9149V56.2814V56.6479C120.078 56.6479 128.283 48.443 128.283 38.3218H127.917ZM109.957 20.3621V20.7286C119.673 20.7286 127.55 28.6054 127.55 38.3218H127.917H128.283C128.283 28.2005 120.078 19.9956 109.957 19.9956V20.3621ZM17.9596 20.3621V20.7286H109.957V20.3621V19.9956H17.9596V20.3621Z" fill="#DADDDD" mask="url(#path-32-inside-1_1432_925)"/>
<path d="M110.725 48.8109L110.232 48.3183C110.608 47.9782 110.904 47.6234 111.121 47.2539C111.344 46.8845 111.505 46.4886 111.605 46.0664C111.704 45.6383 111.754 45.1809 111.754 44.6941C111.754 44.1957 111.704 43.7382 111.605 43.3219C111.505 42.8996 111.344 42.5009 111.121 42.1255C110.904 41.7502 110.608 41.3954 110.232 41.0611L110.725 40.5685C111.364 41.0787 111.845 41.6798 112.168 42.3718C112.496 43.0638 112.66 43.8379 112.66 44.6941C112.66 45.5445 112.496 46.3156 112.168 47.0076C111.845 47.6938 111.364 48.2949 110.725 48.8109Z" fill="black"/>
<path d="M108.72 42.6533C108.92 42.6533 109.078 42.712 109.195 42.8293C109.318 42.9407 109.38 43.0931 109.38 43.2867C109.38 43.4802 109.318 43.6356 109.195 43.7529C109.078 43.8702 108.92 43.9288 108.72 43.9288C108.515 43.9288 108.351 43.8702 108.228 43.7529C108.11 43.6356 108.052 43.4802 108.052 43.2867C108.052 43.0931 108.11 42.9407 108.228 42.8293C108.351 42.712 108.515 42.6533 108.72 42.6533ZM108.72 45.952C108.92 45.952 109.078 46.0107 109.195 46.128C109.318 46.2394 109.38 46.3919 109.38 46.5854C109.38 46.7789 109.318 46.9343 109.195 47.0516C109.078 47.1689 108.92 47.2275 108.72 47.2275C108.515 47.2275 108.351 47.1689 108.228 47.0516C108.11 46.9343 108.052 46.7789 108.052 46.5854C108.052 46.3919 108.11 46.2394 108.228 46.128C108.351 46.0107 108.515 45.952 108.72 45.952Z" fill="black"/>
<path d="M102.099 41.2459C102.504 41.2459 102.856 41.3075 103.155 41.4306C103.46 41.5538 103.698 41.7327 103.868 41.9672C104.044 42.1959 104.132 42.4774 104.132 42.8117C104.132 43.1577 104.055 43.445 103.903 43.6738C103.756 43.8966 103.557 44.0667 103.305 44.184C103.052 44.2954 102.774 44.3687 102.469 44.4039L102.443 45.2923H101.537V43.964C101.953 43.9113 102.275 43.8409 102.504 43.7529C102.733 43.665 102.894 43.5565 102.988 43.4275C103.082 43.2926 103.129 43.1313 103.129 42.9436C103.129 42.7619 103.088 42.6064 103.006 42.4774C102.929 42.3425 102.809 42.2429 102.645 42.1783C102.487 42.108 102.284 42.0728 102.038 42.0728C101.692 42.0728 101.41 42.1695 101.193 42.3631C100.976 42.5566 100.847 42.8264 100.806 43.1724L99.9355 42.7765C100 42.4716 100.126 42.2047 100.314 41.976C100.501 41.7473 100.745 41.5685 101.044 41.4394C101.343 41.3104 101.695 41.2459 102.099 41.2459ZM101.985 45.9785C102.185 45.9785 102.343 46.0371 102.46 46.1544C102.583 46.2658 102.645 46.4154 102.645 46.603C102.645 46.7907 102.583 46.9402 102.46 47.0516C102.343 47.1631 102.185 47.2188 101.985 47.2188C101.792 47.2188 101.633 47.1631 101.51 47.0516C101.393 46.9402 101.334 46.7907 101.334 46.603C101.334 46.4154 101.393 46.2658 101.51 46.1544C101.633 46.0371 101.792 45.9785 101.985 45.9785Z" fill="black"/>
<path d="M99.5371 42.7413L97.6107 47.6586C97.4817 47.9987 97.3409 48.2685 97.1884 48.4679C97.0418 48.6673 96.8718 48.811 96.6782 48.8989C96.4847 48.9869 96.2589 49.0309 96.0009 49.0309C95.7898 49.0309 95.5933 49.0015 95.4115 48.9429C95.2356 48.8901 95.0802 48.8168 94.9453 48.723L95.174 47.9929C95.2854 48.0867 95.4027 48.1571 95.5259 48.204C95.6549 48.2509 95.7927 48.2744 95.9393 48.2744C96.0977 48.2744 96.2384 48.2304 96.3616 48.1424C96.4906 48.0603 96.6049 47.8932 96.7046 47.641L96.8982 47.166L96.4319 46.0752L95.0597 42.7413H96.1153L97.0917 45.5035L97.3468 46.3303L97.6371 45.4243L98.5607 42.7413H99.5371Z" fill="black"/>
<path d="M93.4672 44.3159C93.4672 44.0227 93.3851 43.7969 93.2209 43.6385C93.0626 43.4743 92.8427 43.3922 92.5612 43.3922C92.2973 43.3922 92.0715 43.4538 91.8838 43.577C91.6962 43.7001 91.5584 43.8995 91.4704 44.1751L90.6787 43.8409C90.7901 43.4831 91.0071 43.1958 91.3297 42.9788C91.6581 42.7618 92.0803 42.6533 92.5964 42.6533C92.9482 42.6533 93.259 42.712 93.5288 42.8293C93.7986 42.9407 94.0097 43.1107 94.1621 43.3395C94.3205 43.5682 94.3997 43.8614 94.3997 44.2191V46.1807C94.3997 46.3977 94.5082 46.5062 94.7251 46.5062C94.8307 46.5062 94.9333 46.4916 95.033 46.4622L94.9802 47.1132C94.8453 47.1777 94.6753 47.2099 94.47 47.2099C94.2824 47.2099 94.1123 47.1777 93.9598 47.1132C93.8132 47.0428 93.6959 46.9402 93.608 46.8053C93.5259 46.6645 93.4848 46.4916 93.4848 46.2863V46.2247L93.6783 46.2159C93.6256 46.4446 93.5171 46.6352 93.3529 46.7877C93.1887 46.9343 92.9981 47.0457 92.7811 47.122C92.5641 47.1923 92.3442 47.2275 92.1214 47.2275C91.8457 47.2275 91.5965 47.1835 91.3736 47.0956C91.1567 47.0076 90.9837 46.8757 90.8546 46.6997C90.7315 46.5179 90.6699 46.2951 90.6699 46.0312C90.6699 45.7028 90.7755 45.433 90.9866 45.2219C91.2036 45.0108 91.5085 44.8671 91.9014 44.7909L93.608 44.4566L93.5992 45.1164L92.3589 45.3715C92.1126 45.4184 91.9278 45.4858 91.8047 45.5738C91.6815 45.6617 91.6199 45.7908 91.6199 45.9608C91.6199 46.125 91.6815 46.257 91.8047 46.3567C91.9337 46.4505 92.1038 46.4974 92.3149 46.4974C92.4615 46.4974 92.6022 46.4798 92.7371 46.4446C92.8779 46.4095 93.0039 46.3537 93.1154 46.2775C93.2268 46.1954 93.3118 46.0928 93.3705 45.9696C93.435 45.8406 93.4672 45.6881 93.4672 45.5122V44.3159Z" fill="black"/>
<path d="M87.0983 47.2276C86.7347 47.2276 86.4034 47.1367 86.1043 46.9549C85.8111 46.7731 85.5795 46.5121 85.4094 46.172C85.2393 45.8318 85.1543 45.4243 85.1543 44.9492C85.1543 44.4566 85.2452 44.0403 85.427 43.7001C85.6088 43.36 85.8522 43.102 86.1571 42.926C86.462 42.7442 86.7963 42.6533 87.1599 42.6533C87.5352 42.6533 87.8519 42.756 88.1099 42.9612C88.368 43.1665 88.541 43.4333 88.6289 43.7617L88.5234 43.8585V40.7621H89.4646V47.1396H88.6289L88.5586 45.9433L88.6817 45.9521C88.6407 46.216 88.5439 46.4447 88.3914 46.6382C88.239 46.8258 88.0484 46.9725 87.8197 47.078C87.5968 47.1777 87.3564 47.2276 87.0983 47.2276ZM87.3007 46.4711C87.5528 46.4711 87.7698 46.4065 87.9516 46.2775C88.1334 46.1485 88.2741 45.9667 88.3738 45.7321C88.4735 45.4976 88.5234 45.2161 88.5234 44.8877C88.5234 44.5827 88.4735 44.3218 88.3738 44.1048C88.2741 43.8819 88.1334 43.7119 87.9516 43.5946C87.7757 43.4773 87.5704 43.4186 87.3358 43.4186C86.9429 43.4186 86.638 43.5535 86.421 43.8233C86.204 44.093 86.0955 44.4654 86.0955 44.9405C86.0955 45.4155 86.2011 45.7908 86.4122 46.0664C86.6233 46.3362 86.9195 46.4711 87.3007 46.4711Z" fill="black"/>
<path d="M82.0439 42.6533C82.472 42.6533 82.8502 42.7442 83.1786 42.926C83.507 43.1078 83.7621 43.3717 83.9439 43.7177C84.1316 44.0578 84.2254 44.4654 84.2254 44.9404C84.2254 45.4154 84.1316 45.8259 83.9439 46.1719C83.7621 46.5121 83.507 46.773 83.1786 46.9548C82.8502 47.1366 82.472 47.2275 82.0439 47.2275C81.6158 47.2275 81.2375 47.1366 80.9091 46.9548C80.5807 46.773 80.3227 46.5121 80.135 46.1719C79.9473 45.8259 79.8535 45.4154 79.8535 44.9404C79.8535 44.4654 79.9473 44.0578 80.135 43.7177C80.3227 43.3717 80.5807 43.1078 80.9091 42.926C81.2375 42.7442 81.6158 42.6533 82.0439 42.6533ZM82.0439 43.3922C81.78 43.3922 81.5542 43.4538 81.3665 43.577C81.1847 43.6942 81.044 43.8672 80.9443 44.096C80.8446 44.3247 80.7947 44.6062 80.7947 44.9404C80.7947 45.2688 80.8446 45.5503 80.9443 45.7849C81.044 46.0136 81.1847 46.1895 81.3665 46.3127C81.5542 46.43 81.78 46.4886 82.0439 46.4886C82.3078 46.4886 82.5306 46.43 82.7124 46.3127C82.8942 46.1895 83.0349 46.0136 83.1346 45.7849C83.2343 45.5503 83.2842 45.2688 83.2842 44.9404C83.2842 44.6062 83.2343 44.3247 83.1346 44.096C83.0349 43.8672 82.8942 43.6942 82.7124 43.577C82.5306 43.4538 82.3078 43.3922 82.0439 43.3922Z" fill="black"/>
<path d="M77.692 41.4482V45.8201C77.692 46.0371 77.7477 46.1955 77.8591 46.2951C77.9764 46.3948 78.1318 46.4447 78.3253 46.4447C78.4836 46.4447 78.6215 46.4212 78.7387 46.3743C78.856 46.3215 78.9645 46.2512 79.0642 46.1632L79.2753 46.8493C79.1404 46.9666 78.9733 47.0604 78.7739 47.1308C78.5804 47.1953 78.3634 47.2276 78.123 47.2276C77.8708 47.2276 77.6392 47.1865 77.4281 47.1044C77.2169 47.0223 77.0527 46.8904 76.9354 46.7086C76.8182 46.5209 76.7566 46.2776 76.7507 45.9785V41.7121L77.692 41.4482ZM79.205 42.7413V43.4802H75.9062V42.7413H79.205Z" fill="black"/>
<path d="M68.2373 47.1396V40.7621H69.1785V43.445C69.3251 43.1694 69.5216 42.97 69.7679 42.8469C70.0201 42.7179 70.2986 42.6533 70.6036 42.6533C70.9144 42.6533 71.1929 42.7149 71.4393 42.8381C71.6914 42.9554 71.8908 43.1342 72.0374 43.3747C72.184 43.6151 72.2573 43.92 72.2573 44.2895V47.1396H71.3161V44.5886C71.3161 44.1546 71.2252 43.8526 71.0434 43.6825C70.8675 43.5125 70.6446 43.4274 70.3749 43.4274C70.1872 43.4274 69.9995 43.4744 69.8119 43.5682C69.6301 43.6562 69.4776 43.8028 69.3545 44.008C69.2372 44.2074 69.1785 44.4772 69.1785 44.8173V47.1396H68.2373Z" fill="black"/>
<path d="M65.7593 41.4482V45.8201C65.7593 46.0371 65.815 46.1955 65.9265 46.2951C66.0438 46.3948 66.1992 46.4447 66.3927 46.4447C66.551 46.4447 66.6888 46.4212 66.8061 46.3743C66.9234 46.3215 67.0319 46.2512 67.1316 46.1632L67.3427 46.8493C67.2078 46.9666 67.0407 47.0604 66.8413 47.1308C66.6478 47.1953 66.4308 47.2276 66.1904 47.2276C65.9382 47.2276 65.7066 47.1865 65.4954 47.1044C65.2843 47.0223 65.1201 46.8904 65.0028 46.7086C64.8855 46.5209 64.824 46.2776 64.8181 45.9785V41.7121L65.7593 41.4482ZM67.2723 42.7413V43.4802H63.9736V42.7413H67.2723Z" fill="black"/>
<path d="M62.5357 42.0024C62.3304 42.0024 62.1721 41.9526 62.0607 41.8529C61.9551 41.7473 61.9023 41.6007 61.9023 41.413C61.9023 41.2254 61.9551 41.0817 62.0607 40.982C62.1721 40.8823 62.3304 40.8325 62.5357 40.8325C62.7351 40.8325 62.8876 40.8823 62.9931 40.982C63.1045 41.0817 63.1603 41.2254 63.1603 41.413C63.1603 41.6007 63.1045 41.7473 62.9931 41.8529C62.8876 41.9526 62.7351 42.0024 62.5357 42.0024ZM63.0019 42.7413V47.1396H62.0607V42.7413H63.0019Z" fill="black"/>
<path d="M60.1302 42.7413H61.1506L59.6728 47.1396H58.6436L57.5352 43.8761L56.4885 47.1396H55.4593L53.9902 42.7413H55.0018L56.0046 46.216L57.0954 42.7413H58.0367L59.1274 46.216L60.1302 42.7413Z" fill="black"/>
<path d="M110.075 36.2458C109.787 36.2458 109.52 36.193 109.274 36.0874C109.034 35.9819 108.84 35.8118 108.694 35.5772C108.547 35.3427 108.474 35.0377 108.474 34.6624V31.7595H109.415V34.4249C109.415 34.8237 109.5 35.0993 109.67 35.2518C109.84 35.3984 110.078 35.4717 110.382 35.4717C110.529 35.4717 110.67 35.4482 110.805 35.4013C110.945 35.3485 111.072 35.2693 111.183 35.1638C111.294 35.0524 111.379 34.9116 111.438 34.7416C111.503 34.5715 111.535 34.3721 111.535 34.1434V31.7595H112.476V36.1578H111.649L111.605 35.4453C111.453 35.7209 111.247 35.9232 110.989 36.0522C110.731 36.1813 110.426 36.2458 110.075 36.2458Z" fill="black"/>
<path d="M105.143 31.6715C105.572 31.6715 105.95 31.7624 106.278 31.9442C106.607 32.126 106.862 32.3899 107.044 32.7359C107.231 33.076 107.325 33.4836 107.325 33.9586C107.325 34.4336 107.231 34.8441 107.044 35.1901C106.862 35.5303 106.607 35.7912 106.278 35.973C105.95 36.1548 105.572 36.2457 105.143 36.2457C104.715 36.2457 104.337 36.1548 104.009 35.973C103.68 35.7912 103.422 35.5303 103.235 35.1901C103.047 34.8441 102.953 34.4336 102.953 33.9586C102.953 33.4836 103.047 33.076 103.235 32.7359C103.422 32.3899 103.68 32.126 104.009 31.9442C104.337 31.7624 104.715 31.6715 105.143 31.6715ZM105.143 32.4104C104.88 32.4104 104.654 32.472 104.466 32.5951C104.284 32.7124 104.144 32.8854 104.044 33.1141C103.944 33.3429 103.894 33.6243 103.894 33.9586C103.894 34.287 103.944 34.5685 104.044 34.8031C104.144 35.0318 104.284 35.2077 104.466 35.3309C104.654 35.4482 104.88 35.5068 105.143 35.5068C105.407 35.5068 105.63 35.4482 105.812 35.3309C105.994 35.2077 106.135 35.0318 106.234 34.8031C106.334 34.5685 106.384 34.287 106.384 33.9586C106.384 33.6243 106.334 33.3429 106.234 33.1141C106.135 32.8854 105.994 32.7124 105.812 32.5951C105.63 32.472 105.407 32.4104 105.143 32.4104Z" fill="black"/>
<path d="M102.458 31.7595L100.532 36.6768C100.403 37.0169 100.262 37.2867 100.109 37.4861C99.9627 37.6855 99.7927 37.8291 99.5991 37.9171C99.4056 38.0051 99.1798 38.0491 98.9218 38.0491C98.7107 38.0491 98.5142 38.0197 98.3324 37.9611C98.1565 37.9083 98.0011 37.835 97.8662 37.7412L98.0949 37.0111C98.2063 37.1049 98.3236 37.1753 98.4468 37.2222C98.5758 37.2691 98.7136 37.2926 98.8602 37.2926C99.0186 37.2926 99.1593 37.2486 99.2825 37.1606C99.4115 37.0785 99.5258 36.9114 99.6255 36.6592L99.819 36.1842L99.3528 35.0934L97.9806 31.7595H99.0362L100.013 34.5216L100.268 35.3485L100.558 34.4425L101.482 31.7595H102.458Z" fill="black"/>
<path d="M90.4004 38.005V31.7595H91.2361L91.3064 32.991L91.1833 32.8415C91.2537 32.6127 91.3621 32.4104 91.5088 32.2345C91.6554 32.0586 91.8372 31.9207 92.0541 31.8211C92.277 31.7214 92.5204 31.6715 92.7843 31.6715C93.142 31.6715 93.4675 31.7624 93.7607 31.9442C94.0539 32.126 94.2855 32.387 94.4556 32.7271C94.6257 33.0614 94.7107 33.4689 94.7107 33.9498C94.7107 34.4307 94.6227 34.8441 94.4468 35.1901C94.2767 35.5303 94.0422 35.7912 93.7431 35.973C93.4499 36.1548 93.1215 36.2457 92.7579 36.2457C92.3825 36.2457 92.0629 36.149 91.799 35.9554C91.5351 35.756 91.3475 35.5039 91.2361 35.1989L91.3416 35.0494V38.005H90.4004ZM92.5555 35.4804C92.9367 35.4804 93.2329 35.3455 93.444 35.0758C93.661 34.806 93.7695 34.4336 93.7695 33.9586C93.7695 33.4836 93.6639 33.1112 93.4528 32.8415C93.2417 32.5658 92.9485 32.428 92.5731 32.428C92.3268 32.428 92.1099 32.4925 91.9222 32.6215C91.7404 32.7447 91.5967 32.9206 91.4912 33.1493C91.3915 33.3722 91.3416 33.6419 91.3416 33.9586C91.3416 34.2694 91.3915 34.5392 91.4912 34.7679C91.5909 34.9966 91.7316 35.1725 91.9134 35.2957C92.0952 35.4188 92.3092 35.4804 92.5555 35.4804Z" fill="black"/>
<path d="M88.575 29.7803V34.9263C88.575 35.1432 88.6131 35.2928 88.6894 35.3749C88.7656 35.457 88.8917 35.498 89.0676 35.498C89.1732 35.498 89.2612 35.4922 89.3315 35.4804C89.4078 35.4628 89.5016 35.4335 89.613 35.3925L89.5075 36.0962C89.4078 36.1431 89.2934 36.1783 89.1644 36.2018C89.0354 36.2311 88.9064 36.2457 88.7773 36.2457C88.3844 36.2457 88.0941 36.146 87.9065 35.9467C87.7247 35.7414 87.6338 35.4277 87.6338 35.0054V29.7803H88.575Z" fill="black"/>
<path d="M84.5107 36.2457C84.0708 36.2457 83.6838 36.1548 83.3495 35.973C83.0153 35.7912 82.7543 35.5303 82.5666 35.1901C82.3848 34.8441 82.2939 34.4336 82.2939 33.9586C82.2939 33.4836 82.3848 33.076 82.5666 32.7359C82.7543 32.3899 83.0123 32.126 83.3407 31.9442C83.6691 31.7624 84.0415 31.6715 84.4579 31.6715C84.886 31.6715 85.2496 31.7595 85.5487 31.9354C85.8478 32.1113 86.0765 32.3518 86.2348 32.6567C86.3931 32.9617 86.4723 33.3077 86.4723 33.6947C86.4723 33.8003 86.4694 33.9 86.4635 33.9938C86.4577 34.0876 86.4489 34.1697 86.4371 34.2401H82.9009V33.5188H86.0237L85.5575 33.6595C85.5575 33.2608 85.4578 32.9558 85.2584 32.7447C85.059 32.5277 84.7863 32.4192 84.4403 32.4192C84.1881 32.4192 83.9682 32.4779 83.7806 32.5951C83.5929 32.7124 83.4492 32.8884 83.3495 33.1229C83.2498 33.3517 83.2 33.6331 83.2 33.9674C83.2 34.2958 83.2528 34.5744 83.3583 34.8031C83.4639 35.0318 83.6134 35.2048 83.8069 35.3221C84.0005 35.4394 84.2292 35.498 84.4931 35.498C84.7863 35.498 85.0238 35.4423 85.2056 35.3309C85.3874 35.2195 85.5311 35.064 85.6366 34.8647L86.3843 35.2165C86.2788 35.4276 86.1351 35.6124 85.9533 35.7707C85.7774 35.9232 85.5663 36.0405 85.32 36.1226C85.0737 36.2047 84.8039 36.2457 84.5107 36.2457Z" fill="black"/>
<path d="M77.1289 36.1578V29.7803H78.0701V32.4632C78.2167 32.1876 78.4132 31.9882 78.6595 31.8651C78.9117 31.736 79.1902 31.6715 79.4952 31.6715C79.806 31.6715 80.0846 31.7331 80.3309 31.8563C80.583 31.9735 80.7824 32.1524 80.929 32.3929C81.0756 32.6333 81.1489 32.9382 81.1489 33.3077V36.1578H80.2077V33.6068C80.2077 33.1728 80.1168 32.8708 79.935 32.7007C79.7591 32.5307 79.5362 32.4456 79.2665 32.4456C79.0788 32.4456 78.8912 32.4925 78.7035 32.5864C78.5217 32.6743 78.3692 32.821 78.2461 33.0262C78.1288 33.2256 78.0701 33.4954 78.0701 33.8355V36.1578H77.1289Z" fill="black"/>
<path d="M72.6785 30.3521V36.1578H71.7373V30.3521H72.6785Z" fill="black"/>
<path d="M63.2979 36.1578V31.7595H64.1335L64.1951 32.903L64.0719 32.7799C64.154 32.5277 64.2713 32.3195 64.4238 32.1553C64.5822 31.9853 64.7669 31.8621 64.978 31.7859C65.195 31.7096 65.4237 31.6715 65.6641 31.6715C65.9749 31.6715 66.2535 31.7331 66.4998 31.8562C66.752 31.9735 66.9514 32.1524 67.098 32.3928C67.2446 32.6333 67.3179 32.9382 67.3179 33.3077V36.1578H66.3766V33.598C66.3766 33.164 66.2857 32.8649 66.104 32.7007C65.928 32.5306 65.7052 32.4456 65.4354 32.4456C65.2419 32.4456 65.0542 32.4925 64.8724 32.5864C64.6906 32.6743 64.5382 32.818 64.415 33.0174C64.2977 33.2168 64.2391 33.4836 64.2391 33.8179V36.1578H63.2979Z" fill="black"/>
<path d="M60.8237 33.3341C60.8237 33.0408 60.7416 32.8151 60.5774 32.6567C60.419 32.4925 60.1991 32.4104 59.9176 32.4104C59.6537 32.4104 59.428 32.472 59.2403 32.5951C59.0526 32.7183 58.9148 32.9177 58.8269 33.1933L58.0352 32.859C58.1466 32.5013 58.3636 32.214 58.6861 31.997C59.0145 31.78 59.4367 31.6715 59.9528 31.6715C60.3047 31.6715 60.6155 31.7302 60.8852 31.8474C61.155 31.9589 61.3661 32.1289 61.5186 32.3576C61.6769 32.5864 61.7561 32.8796 61.7561 33.2373V35.1989C61.7561 35.4159 61.8646 35.5244 62.0816 35.5244C62.1871 35.5244 62.2898 35.5097 62.3895 35.4804L62.3367 36.1314C62.2018 36.1959 62.0317 36.2281 61.8265 36.2281C61.6388 36.2281 61.4688 36.1959 61.3163 36.1314C61.1697 36.061 61.0524 35.9584 60.9644 35.8235C60.8823 35.6827 60.8413 35.5097 60.8413 35.3045V35.2429L61.0348 35.2341C60.982 35.4628 60.8735 35.6534 60.7093 35.8059C60.5451 35.9525 60.3545 36.0639 60.1375 36.1402C59.9206 36.2105 59.7006 36.2457 59.4778 36.2457C59.2022 36.2457 58.9529 36.2017 58.7301 36.1138C58.5131 36.0258 58.3401 35.8939 58.2111 35.7179C58.0879 35.5361 58.0264 35.3133 58.0264 35.0494C58.0264 34.721 58.1319 34.4512 58.343 34.2401C58.56 34.029 58.865 33.8853 59.2579 33.8091L60.9644 33.4748L60.9556 34.1345L59.7153 34.3896C59.469 34.4366 59.2843 34.504 59.1611 34.592C59.038 34.6799 58.9764 34.8089 58.9764 34.979C58.9764 35.1432 59.038 35.2752 59.1611 35.3749C59.2901 35.4687 59.4602 35.5156 59.6713 35.5156C59.8179 35.5156 59.9587 35.498 60.0936 35.4628C60.2343 35.4276 60.3604 35.3719 60.4718 35.2957C60.5832 35.2136 60.6683 35.111 60.7269 34.9878C60.7914 34.8588 60.8237 34.7063 60.8237 34.5304V33.3341Z" fill="black"/>
<path d="M55.2421 31.6715C55.594 31.6715 55.893 31.7243 56.1393 31.8298C56.3915 31.9295 56.6026 32.0732 56.7727 32.2609C56.9428 32.4485 57.0718 32.6626 57.1597 32.903L56.2713 33.2549C56.1951 32.9851 56.0719 32.7799 55.9018 32.6391C55.7376 32.4925 55.5207 32.4192 55.2509 32.4192C54.987 32.4192 54.7612 32.4808 54.5736 32.6039C54.3859 32.7212 54.2422 32.8942 54.1425 33.1229C54.0487 33.3517 54.0018 33.6331 54.0018 33.9674C54.0018 34.2958 54.0516 34.5744 54.1513 34.8031C54.251 35.0318 54.3947 35.2048 54.5824 35.3221C54.77 35.4394 54.9929 35.498 55.2509 35.498C55.4503 35.498 55.6233 35.4658 55.7699 35.4012C55.9165 35.3309 56.0367 35.2341 56.1305 35.111C56.2302 34.9819 56.2977 34.8265 56.3329 34.6447L57.1861 34.935C57.104 35.1989 56.975 35.4306 56.7991 35.63C56.629 35.8235 56.415 35.976 56.1569 36.0874C55.8989 36.1929 55.6028 36.2457 55.2685 36.2457C54.8345 36.2457 54.4504 36.1548 54.1161 35.973C53.7819 35.7912 53.5209 35.5303 53.3332 35.1901C53.1514 34.8441 53.0605 34.4336 53.0605 33.9586C53.0605 33.4836 53.1514 33.076 53.3332 32.7359C53.5209 32.3899 53.7789 32.126 54.1073 31.9442C54.4416 31.7624 54.8199 31.6715 55.2421 31.6715Z" fill="black"/>
<path d="M48.0377 30.4664V34.8383C48.0377 35.0552 48.0934 35.2136 48.2048 35.3133C48.3221 35.413 48.4775 35.4628 48.671 35.4628C48.8293 35.4628 48.9672 35.4394 49.0844 35.3924C49.2017 35.3397 49.3102 35.2693 49.4099 35.1813L49.621 35.8675C49.4862 35.9847 49.319 36.0786 49.1196 36.1489C48.9261 36.2135 48.7091 36.2457 48.4687 36.2457C48.2165 36.2457 47.9849 36.2047 47.7738 36.1226C47.5626 36.0405 47.3984 35.9085 47.2811 35.7267C47.1639 35.5391 47.1023 35.2957 47.0964 34.9966V30.7303L48.0377 30.4664ZM49.5507 31.7595V32.4984H46.252V31.7595H49.5507Z" fill="black"/>
<path d="M44.4506 33.3341C44.4506 33.0408 44.3685 32.8151 44.2043 32.6567C44.046 32.4925 43.8261 32.4104 43.5446 32.4104C43.2807 32.4104 43.0549 32.472 42.8672 32.5951C42.6796 32.7183 42.5418 32.9177 42.4538 33.1933L41.6621 32.859C41.7735 32.5013 41.9905 32.214 42.3131 31.997C42.6415 31.78 43.0637 31.6715 43.5798 31.6715C43.9316 31.6715 44.2424 31.7302 44.5122 31.8474C44.782 31.9589 44.9931 32.1289 45.1456 32.3576C45.3039 32.5864 45.3831 32.8796 45.3831 33.2373V35.1989C45.3831 35.4159 45.4916 35.5244 45.7085 35.5244C45.8141 35.5244 45.9167 35.5097 46.0164 35.4804L45.9636 36.1314C45.8288 36.1959 45.6587 36.2281 45.4534 36.2281C45.2658 36.2281 45.0957 36.1959 44.9432 36.1314C44.7966 36.061 44.6793 35.9584 44.5914 35.8235C44.5093 35.6827 44.4682 35.5097 44.4682 35.3045V35.2429L44.6617 35.2341C44.609 35.4628 44.5005 35.6534 44.3363 35.8059C44.1721 35.9525 43.9815 36.0639 43.7645 36.1402C43.5475 36.2105 43.3276 36.2457 43.1048 36.2457C42.8291 36.2457 42.5799 36.2017 42.357 36.1138C42.1401 36.0258 41.9671 35.8939 41.838 35.7179C41.7149 35.5361 41.6533 35.3133 41.6533 35.0494C41.6533 34.721 41.7589 34.4512 41.97 34.2401C42.187 34.029 42.4919 33.8853 42.8848 33.8091L44.5914 33.4748L44.5826 34.1345L43.3423 34.3896C43.096 34.4366 42.9112 34.504 42.7881 34.592C42.6649 34.6799 42.6033 34.8089 42.6033 34.979C42.6033 35.1432 42.6649 35.2752 42.7881 35.3749C42.9171 35.4687 43.0872 35.5156 43.2983 35.5156C43.4449 35.5156 43.5856 35.498 43.7205 35.4628C43.8613 35.4276 43.9873 35.3719 44.0988 35.2957C44.2102 35.2136 44.2952 35.111 44.3539 34.9878C44.4184 34.8588 44.4506 34.7063 44.4506 34.5304V33.3341Z" fill="black"/>
<path d="M36.4619 36.1578V29.7803H37.4031V32.4632C37.5498 32.1876 37.7462 31.9882 37.9925 31.8651C38.2447 31.736 38.5232 31.6715 38.8282 31.6715C39.139 31.6715 39.4176 31.7331 39.6639 31.8563C39.916 31.9735 40.1154 32.1524 40.262 32.3929C40.4086 32.6333 40.4819 32.9382 40.4819 33.3077V36.1578H39.5407V33.6068C39.5407 33.1728 39.4498 32.8708 39.268 32.7007C39.0921 32.5307 38.8692 32.4456 38.5995 32.4456C38.4118 32.4456 38.2242 32.4925 38.0365 32.5864C37.8547 32.6743 37.7022 32.821 37.5791 33.0262C37.4618 33.2256 37.4031 33.4954 37.4031 33.8355V36.1578H36.4619Z" fill="black"/>
<path d="M29.1372 36.1578L27.4307 30.3521H28.4247L29.7266 35.3397L30.9933 30.3521H31.9609L33.2364 35.3485L34.5295 30.3521H35.4883L33.7906 36.1578H32.6822L31.7586 32.6743L31.4683 31.3373H31.4595L31.1692 32.6743L30.2544 36.1578H29.1372Z" fill="black"/>
<path d="M23.7715 30.3521V32.6743L23.6483 34.3105H22.9094L22.7863 32.6743V30.3521H23.7715ZM23.2789 34.9966C23.4783 34.9966 23.6366 35.0553 23.7539 35.1726C23.877 35.284 23.9386 35.4335 23.9386 35.6212C23.9386 35.8088 23.877 35.9584 23.7539 36.0698C23.6366 36.1812 23.4783 36.2369 23.2789 36.2369C23.0854 36.2369 22.927 36.1812 22.8039 36.0698C22.6866 35.9584 22.6279 35.8088 22.6279 35.6212C22.6279 35.4335 22.6866 35.284 22.8039 35.1726C22.927 35.0553 23.0854 34.9966 23.2789 34.9966Z" fill="black"/>
<path d="M20.8384 31.0206C20.6332 31.0206 20.4748 30.9707 20.3634 30.871C20.2579 30.7655 20.2051 30.6189 20.2051 30.4312C20.2051 30.2436 20.2579 30.0999 20.3634 30.0002C20.4748 29.9005 20.6332 29.8506 20.8384 29.8506C21.0378 29.8506 21.1903 29.9005 21.2959 30.0002C21.4073 30.0999 21.463 30.2436 21.463 30.4312C21.463 30.6189 21.4073 30.7655 21.2959 30.871C21.1903 30.9707 21.0378 31.0206 20.8384 31.0206ZM21.3046 31.7595V36.1578H20.3634V31.7595H21.3046Z" fill="black"/>
<path d="M18.7775 30.3521V36.1578H17.8275V30.3521H18.7775ZM14.9598 30.3521V36.1578H14.0186V30.3521H14.9598ZM18.3025 32.8151V33.6244H14.4936V32.8151H18.3025Z" fill="black"/>
</svg>
