<svg width="115" height="122" viewBox="0 0 115 122" fill="none" xmlns="http://www.w3.org/2000/svg">
<circle cx="60.1051" cy="62.3385" r="54.8951" fill="#FCFCF8"/>
<path d="M99.0484 75.1907C98.9333 75.9804 99.0124 76.7851 99.2792 77.5399C99.5048 77.9242 99.6413 78.3513 99.6794 78.7913C99.6794 78.7913 100.192 79.0681 100.326 78.3856C100.411 78.0319 100.363 77.6608 100.192 77.3373C100.192 77.3373 101.285 78.6329 100.357 79.3946C99.428 80.1562 99.6024 80.448 99.6024 80.448C100.321 80.456 101.02 80.2217 101.578 79.7853C102.222 79.3332 102.69 78.6853 102.906 77.9456C102.906 77.9456 102.829 76.5458 102.788 76.1996C102.747 75.8534 101.578 74.4341 101.578 74.4341C100.858 74.9748 99.9589 75.2438 99.0484 75.1907Z" fill="#E2B983"/>
<path d="M100.5 80.4481C100.5 80.4481 101.617 79.6563 101.676 78.9988C101.712 78.6809 101.712 78.3604 101.676 78.0425" stroke="#CCA173" stroke-width="0.063269" stroke-linecap="round" stroke-linejoin="round"/>
<path opacity="0.69" d="M101.654 74.4341C101.654 74.4341 102.515 76.135 102.331 77.241C102.147 78.347 102.176 79.4085 101.103 80.1475C101.103 80.1475 102.718 79.3242 102.907 77.9554L102.796 76.2045C102.796 76.2045 102.689 75.7087 101.654 74.4341Z" fill="#D2A065"/>
<path d="M75.4833 33.7798C75.8462 34.2293 77.5735 33.7798 77.5735 33.7798C77.6194 33.5206 77.6307 33.2559 77.6074 32.9933C77.6201 32.6059 77.7214 32.2274 77.9026 31.8902C77.9888 31.7201 78.0368 31.5313 78.0429 31.3386C78.0731 30.8452 78.0173 30.3502 77.8784 29.878C77.5056 29.228 77.0763 28.6158 76.5961 28.0497L75.6865 26.7627C75.571 26.8254 75.4777 26.9257 75.4204 27.0487C75.2946 27.2785 75.5413 27.8045 75.5413 27.8045L75.101 27.0335C74.9867 27.1866 74.8983 27.3593 74.8397 27.5442C74.7952 28.0295 74.8246 28.5191 74.9268 28.9945L74.9897 29.1631L74.4671 28.591C74.4671 28.591 74.293 28.7954 74.8688 29.6533C75.0301 29.8593 75.1405 30.1043 75.1903 30.3663C75.2401 30.6283 75.2277 30.8991 75.1542 31.1548C75.1542 31.1548 74.5881 32.6818 75.4833 33.7798Z" fill="#E2B983"/>
<path opacity="0.69" d="M76.4681 32.4759C76.1919 32.0249 76.0064 31.5353 75.9197 31.0287L75.6455 30.3484C75.6455 30.3484 75.6456 30.0011 76.3146 30.4257C76.9837 30.8502 76.9397 31.2409 76.9397 31.2409C77.0704 31.1677 77.182 31.071 77.267 30.9571C77.3521 30.8431 77.4088 30.7145 77.4333 30.5799C77.4333 30.5799 77.5978 30.1941 76.8849 29.6731C76.6234 29.4566 76.4224 29.1897 76.2977 28.8934C76.1731 28.5971 76.1282 28.2795 76.1665 27.9653" stroke="#D2A065" stroke-width="0.0967643" stroke-miterlimit="10"/>
<path d="M92.0692 45.1431C92.0692 45.1431 93.8846 43.3568 93.8192 39.9937C93.8192 39.9937 97.1633 40.8271 98.8479 45.3528C100.533 49.8786 102.026 51.605 105.043 53.1519C108.061 54.6987 104.918 57.5279 103.811 57.9471C102.705 58.3662 102.972 58.2465 102.972 58.2465C102.972 58.2465 103.625 63.4259 99.1949 63.2363C99.1949 63.2363 97.8422 64.7333 95.9967 62.6126C94.1511 60.4919 90.6562 52.3686 90.6562 52.3686C90.6562 52.3686 89.942 49.3296 88.529 48.4064C87.1159 47.4833 92.0692 45.1431 92.0692 45.1431Z" fill="#372515"/>
<path d="M93.1386 45.707C93.1386 45.707 100.34 54.3462 102.106 62.0924L101.811 62.5264C101.494 62.8393 101.117 63.0823 100.703 63.2402C100.289 63.3982 99.8474 63.4676 99.4057 63.4441C99.0363 63.4263 98.675 63.3279 98.3465 63.1557C98.018 62.9836 97.7299 62.7418 97.502 62.4465L90.3789 50.3808L91.4267 46.54L93.1386 45.707Z" fill="#281A10"/>
<path d="M57.8893 105.537L83.5426 96.3301V98.0045L58.033 108.113L44.124 99.9646V97.5624L57.8893 105.537Z" fill="#387A64"/>
<path d="M44.124 97.5622L70.8192 91.4585L83.5426 96.3299L57.8893 105.537L44.124 97.5622Z" fill="#16D2AA"/>
<path d="M108.774 110.614L74.7402 118.307L108.774 110.614Z" fill="#6ABBA3"/>
<path d="M66.7637 108.859L74.7399 118.307L108.774 110.613L94.3526 102.536L66.7637 108.859Z" fill="#16D2AA"/>
<path d="M66.7637 111.185L74.7399 121.165L108.774 112.686V110.614L74.7399 118.307L66.7637 108.752V111.185Z" fill="#387A64"/>
<path d="M87.0874 40.0085C85.943 40.9763 85.6105 42.3814 85.3283 43.8082C85.1156 44.8572 85.2381 45.9422 85.6801 46.9251C85.6801 46.9897 85.7326 47.0543 85.7641 47.1188C86.1212 47.8732 86.746 48.315 88.1796 48.3795C89.6131 48.4441 90.7368 47.3868 91.0571 47.0592C91.3775 46.7316 91.8606 46.3345 91.8606 46.3345C91.8606 46.3345 94.6961 45.0788 92.706 44.3988C91.4667 43.9719 92.9633 42.6666 92.9633 42.6666C92.9633 42.6666 91.2358 37.5863 87.0874 40.0085Z" fill="#E2B983"/>
<path opacity="0.69" d="M87.9746 48.3879C87.9746 48.3879 91.3481 47.6108 91.4131 42.0986L92.7025 44.3944C92.7025 44.3944 93.817 44.6808 93.2023 45.4477C92.8357 45.8502 92.3915 46.1704 91.8979 46.3885C90.2636 48.2446 89.259 48.5106 87.9746 48.3879Z" fill="#D2A065"/>
<path d="M86.9721 42.911C87.0329 42.7568 87.0046 42.6015 86.909 42.5643C86.8133 42.527 86.6865 42.6218 86.6257 42.776C86.5649 42.9302 86.5932 43.0854 86.6889 43.1227C86.7845 43.1599 86.9114 43.0652 86.9721 42.911Z" fill="#0D0D0D"/>
<path d="M89.5935 43.5731C89.6522 43.4241 89.6223 43.273 89.5266 43.2358C89.431 43.1985 89.3058 43.2891 89.247 43.4381C89.1882 43.5872 89.2182 43.7382 89.3139 43.7755C89.4095 43.8128 89.5347 43.7222 89.5935 43.5731Z" fill="#0D0D0D"/>
<path d="M86.4718 45.4062C86.4718 45.4062 87.1757 45.9567 89.4777 45.7847C89.4777 45.7847 88.8252 46.9544 86.6619 46.5072C86.5259 46.1552 86.4613 45.7814 86.4718 45.4062Z" fill="#26221C"/>
<path d="M86.7715 45.4062V45.7783C87.5579 46.0841 88.3907 46.0841 89.1771 45.7783C89.1771 45.7783 87.5464 45.8955 86.7715 45.4062Z" fill="white"/>
<path d="M87.0723 46.5505C87.6422 46.3336 88.2653 46.2607 88.8765 46.3394C88.3204 46.6004 87.6822 46.675 87.0723 46.5505Z" fill="#D05735"/>
<path opacity="0.69" d="M89.495 45.4062C89.4788 45.4738 89.4738 45.5461 89.4803 45.617C89.4868 45.688 89.5046 45.7557 89.5323 45.8144C89.56 45.8732 89.5967 45.9214 89.6395 45.955C89.6822 45.9886 89.7298 46.0066 89.7782 46.0077" stroke="#85694C" stroke-width="0.0595473" stroke-linecap="round" stroke-linejoin="round"/>
<path d="M92.5774 39.6282C92.5774 39.6282 89.638 37.8216 87.1714 39.5161C86.9434 39.6832 86.7286 39.8675 86.529 40.0673C86.2776 40.3735 86.0779 40.7182 85.9381 41.0881C85.8507 41.328 85.8712 41.2767 85.8712 41.2767L86.2618 41.333C86.7097 41.3786 87.1461 41.5012 87.5516 41.6954C87.9782 41.9812 88.934 40.4091 89.2064 40.5112C89.2064 40.5112 88.3122 41.4657 88.343 41.8995C88.5567 41.5272 88.8331 41.194 89.1601 40.9144C89.1601 40.9144 88.6462 41.5167 88.6462 41.8995L92.0224 43.0887C92.0264 44.0641 91.9731 45.0387 91.8631 46.0079C92.1821 45.2798 92.5912 44.594 93.081 43.9664C93.672 43.3182 93.3534 39.9396 92.5774 39.6282Z" fill="#372515"/>
<path d="M91.5825 39.2842C91.5825 39.2842 89.6124 37.987 87.1625 39.6002C86.9361 39.7593 86.7228 39.9348 86.5245 40.125C86.2748 40.4165 86.0765 40.7447 85.9376 41.0968C85.8508 41.3252 85.8712 41.2764 85.8712 41.2764L86.2591 41.33C86.7039 41.3734 87.1374 41.4901 87.5402 41.675C87.9638 41.9471 88.9132 40.4504 89.1837 40.5476C89.1837 40.5476 88.2956 41.4563 88.3262 41.8693C88.5385 41.5149 88.8129 41.1976 89.1377 40.9314C89.1377 40.9314 88.6273 41.5049 88.6273 41.8693L91.0875 42.7002C91.0875 42.7002 90.9292 40.6107 91.5825 39.2842Z" fill="#563C29"/>
<path d="M91.582 39.3975C91.582 39.3975 92.6722 39.8396 92.802 44.1272L92.8435 44.2034C92.8435 44.2034 93.9856 43.4333 93.6118 40.2723C93.6118 40.2723 91.8727 39.3119 91.582 39.3975Z" fill="#E2D46F"/>
<path d="M92.4896 39.5346C92.4896 39.5346 93.7705 38.9933 94.2704 40.0206C94.6036 40.7832 94.8122 41.584 94.89 42.3991C94.89 42.3991 92.3542 40.3259 92.4896 39.5346Z" fill="#F9EE8C" stroke="#D3D16A" stroke-width="0.0297736" stroke-linecap="round" stroke-linejoin="round"/>
<path d="M92.2154 39.3922C92.2154 39.3922 90.1008 38.6645 89.7783 37.8887C90.3764 38.1266 90.9953 38.3184 91.6286 38.4621C92.2154 38.5392 92.5643 38.8765 92.4691 38.9729C92.3799 39.005 92.3058 39.0644 92.2595 39.1409C92.2132 39.2174 92.1976 39.3063 92.2154 39.3922Z" fill="#F9EE8C" stroke="#C4C473" stroke-width="0.0297736" stroke-linecap="round" stroke-linejoin="round"/>
<path d="M92.667 39.6903H92.5133C92.4409 39.6995 92.3675 39.6823 92.3084 39.6422C92.2493 39.6021 92.2091 39.5424 92.1961 39.4753C92.1529 39.2156 92.1961 38.8976 92.9505 39.2424C93.9741 39.7217 92.9025 39.6903 92.7199 39.6903H92.667Z" fill="#F9EE8C" stroke="#D3D16A" stroke-width="0.0297736" stroke-linecap="round" stroke-linejoin="round"/>
<path d="M86.6211 41.9484C86.6211 41.9484 86.8954 41.7688 87.4839 42.2555C87.4839 42.2555 87.5356 42.4054 87.4321 42.3625C87.1926 42.1685 86.9308 42.0614 86.6642 42.0484C86.5391 42.0913 86.6211 41.9484 86.6211 41.9484Z" fill="#372515" stroke="#362727" stroke-width="0.0744341"/>
<path d="M89.2107 42.7503C89.2107 42.7503 89.8112 42.5484 90.3672 42.9551C90.3672 42.9551 90.4283 43.0206 90.2893 42.995C90.1503 42.9694 89.6499 42.7817 89.2719 42.7988C89.1051 42.8044 89.2107 42.7503 89.2107 42.7503Z" fill="#372515" stroke="#362727" stroke-width="0.0744341"/>
<path opacity="0.69" d="M93.0858 44.9026C92.8403 44.6177 92.5621 45.0451 92.5621 45.0451C92.5621 45.0451 92.509 45.2611 92.734 45.2244C92.959 45.1876 92.4844 45.7068 92.4844 45.7068" stroke="#85694C" stroke-width="0.0595473" stroke-linecap="round" stroke-linejoin="round"/>
<path d="M91.7509 46.3086C91.7509 46.3086 89.5063 48.7765 87.0554 48.2055L86.6477 50.0257H84.9668C84.9668 50.0257 85.4701 52.6515 87.7549 53.1614C90.0398 53.6713 92.1837 50.9384 92.1837 50.9384L90.845 50.296C90.5984 48.9805 91.7509 46.3086 91.7509 46.3086Z" fill="#DDB278"/>
<path d="M93.7068 51.3142C93.7068 51.3142 95.8078 51.2289 96.7154 54.3247C97.6229 57.4205 99.4581 63.6975 99.4581 63.6975C99.4581 63.6975 100.22 66.432 100.667 68.434C101.409 71.7606 101.168 73.045 101.168 73.045L98.1996 73.9733C97.4925 73.7074 96.6151 71.6753 96.6151 71.6753L93.5213 63.9934L91.5156 66.6075C91.5156 66.6075 81.432 66.6929 80.5595 63.562C79.7673 60.707 79.6419 52.8444 79.6419 52.8444C79.2859 51.6854 78.8447 50.4111 78.4134 49.2219C77.2501 46.0408 75.9063 41.7208 75.5102 38.349L75.3447 34.8818C76.0216 36.4573 78.4636 35.4287 78.4636 35.4287C80.2611 39.0679 81.845 42.809 83.2071 46.6328L85.669 50.0047C85.669 50.0047 85.6339 50.7973 87.2084 51.6302C88.9233 52.5334 90.6532 51.816 92.1324 50.662L93.7068 51.3142Z" fill="#E1CAE7"/>
<path d="M75.2792 35.0696L75.0439 33.3779C75.9326 33.7965 76.9405 33.8443 77.8617 33.5113L78.3517 35.6282C78.3517 35.6282 76.0926 36.961 75.2792 35.0696Z" fill="#D0BAD6" stroke="#B698B7" stroke-width="0.0595473" stroke-miterlimit="10"/>
<path d="M98.1982 73.9082L98.9934 75.1757C98.9934 75.1757 100.869 75.1756 101.506 74.4831L101.261 73.0708L98.1982 73.9082Z" fill="#D0BAD6" stroke="#B698B7" stroke-width="0.0595473" stroke-miterlimit="10"/>
<path d="M80.8491 65.854C80.8491 65.854 72.591 75.0717 71.4355 78.982V92.1748C71.4355 92.1748 76.6575 92.6155 77.888 91.9396C77.888 91.9396 76.9676 83.0324 76.8276 82.1462C76.6875 81.26 84.2103 75.9527 84.2103 75.9527C84.2103 75.9527 83.7452 69.0635 84.3654 67.4663C84.4054 67.4663 81.3093 66.7602 80.8491 65.854Z" fill="#47516E"/>
<path d="M84.1426 67.6582L91.2683 68.6502C92.1472 72.1534 92.6193 75.7445 92.6754 79.3538L92.7606 85.3058C92.7606 85.3058 99.701 93.4598 99.701 96.1828L92.9408 97.4279C92.9408 97.4279 88.6944 91.3666 86.5612 88.2914C84.428 85.2163 83.9823 76.1892 83.9823 76.1892C83.9823 76.1892 83.3965 69.1214 84.1426 67.6582Z" fill="#47516E"/>
<path d="M95.173 98.7415C95.173 98.7415 94.5509 103.423 94.6369 103.701C94.7229 103.979 93.0031 105.045 93.0891 105.521C93.175 105.998 94.8594 105.913 95.6586 105.521C96.4578 105.13 97.0698 101.836 97.3379 101.489C97.606 101.142 98.8857 99.9715 98.7947 99.5053C98.7036 99.0391 97.6212 98.3301 97.6212 98.3301L95.173 98.7415Z" fill="#EAE9E8" stroke="#C4C4C4" stroke-width="0.115373" stroke-miterlimit="10"/>
<path d="M69.4131 81.6083L57.2646 78.7373L32.2939 83.7025L41.0606 89.6856L69.4131 81.6083Z" fill="#16D2AA"/>
<path d="M47.6367 68.7222L14.4922 72.5041L14.6584 75.9377L47.6367 71.2539V68.7222Z" fill="#39896F"/>
<path d="M17.6944 67.3874L38.0751 66.1372L47.6367 68.7225L14.4922 72.5044L17.6944 67.3874Z" fill="#16D2AA"/>
<path d="M0 58.0821L21.8762 59.2519L36.4589 60.4218L15.2923 57.5239L0 58.0821Z" fill="#39896F"/>
<path d="M36.8137 60.5691V58.3857L15.427 54.9878L0 55.5281V58.0821L15.2923 57.524L36.8137 60.5691Z" fill="#56A389"/>
<path d="M13.4463 44.9467L34.5366 44.3662L48.8184 49.2287L29.9601 47.9159L13.4463 44.9467Z" fill="#39896F"/>
<path d="M48.8184 49.2286V47.514L34.4872 41.9595L13.4463 43.4151V44.9466L34.5366 44.8127L48.8184 49.2286Z" fill="#16D2AA"/>
<path d="M46.14 6.24655L44.3602 11.8553C44.3442 11.903 44.3156 11.9456 44.2776 11.9785C44.2395 12.0114 44.1934 12.0333 44.1439 12.0422L36.4835 13.4791C36.431 13.4887 36.3824 13.5131 36.3433 13.5494C36.3043 13.5858 36.2763 13.6325 36.2629 13.6842C36.2495 13.7359 36.2511 13.7903 36.2675 13.8411C36.284 13.8919 36.3145 13.937 36.3556 13.9711L42.3836 19.1517C42.4133 19.1783 42.437 19.2108 42.4531 19.2473C42.4692 19.2838 42.4774 19.3235 42.4771 19.3634V26.1824C42.4763 26.2369 42.4916 26.2904 42.5212 26.3362C42.5508 26.3819 42.5933 26.4179 42.6433 26.4395C42.6932 26.4611 42.7485 26.4673 42.8021 26.4575C42.8556 26.4477 42.9051 26.4222 42.9441 26.3842L48.092 21.5822C48.1359 21.542 48.1913 21.5167 48.2504 21.5096C48.3094 21.5026 48.3693 21.5141 48.4214 21.5428L54.9853 25.2969C55.0332 25.3237 55.0879 25.3358 55.1427 25.3318C55.1974 25.3277 55.2497 25.3076 55.2931 25.2741C55.3366 25.2406 55.3693 25.1951 55.3871 25.1432C55.4049 25.0912 55.4071 25.0351 55.3934 24.982L53.1415 17.2625C53.1271 17.2166 53.1254 17.1676 53.1367 17.1208C53.148 17.074 53.1717 17.0311 53.2054 16.9968L57.7977 12.0473C57.845 12.0106 57.8792 11.9595 57.8949 11.9017C57.9106 11.8439 57.9071 11.7826 57.8849 11.727C57.8627 11.6714 57.8229 11.6244 57.7717 11.5934C57.7205 11.5625 57.6606 11.5491 57.6011 11.5553L50.4225 11.3141C50.3794 11.3142 50.3371 11.3035 50.2992 11.2828C50.2614 11.2622 50.2294 11.2324 50.2062 11.1961L46.6317 6.12355C46.5991 6.0804 46.5546 6.04786 46.5037 6.02985C46.4527 6.01185 46.3977 6.00929 46.3452 6.02241C46.2928 6.03552 46.2454 6.06373 46.2089 6.10361C46.1724 6.14348 46.1485 6.19315 46.14 6.24655Z" fill="#F7DF78"/>
<path d="M39.5025 8.11916C38.7293 7.56065 37.9708 6.98239 37.2074 6.40906L34.9465 4.66444C34.1693 4.11389 33.4258 3.51634 32.72 2.87518C32.0176 2.21195 31.3876 1.4745 30.8408 0.675652L30.9044 0.601562C31.7691 1.02371 32.589 1.53382 33.3512 2.12391C34.089 2.72644 34.7901 3.37341 35.4506 4.06135L37.5206 6.03837C38.2008 6.71055 38.8859 7.36807 39.5612 8.05014L39.5025 8.11916Z" fill="#F7C96A"/>
<path d="M52.4912 6.24179C52.9979 5.66905 53.5401 5.11087 54.062 4.54299L55.6681 2.87833C56.1733 2.2958 56.722 1.74908 57.3097 1.24257C57.9274 0.747565 58.6085 0.329988 59.3365 0L59.4074 0.072758C59.0296 0.753648 58.5594 1.3838 58.009 1.94646C57.4572 2.4864 56.8626 2.9845 56.2305 3.43645L54.4115 4.89256C53.7934 5.37793 53.1854 5.86339 52.5622 6.31478L52.4912 6.24179Z" fill="#F7C96A"/>
<path d="M58.2041 8.03052L61.5591 5.99811L64.929 4.02496C66.0572 3.36888 67.1457 2.63885 68.3286 2.08143C69.5081 1.49612 70.7311 1.00138 71.9868 0.601562L72.0365 0.6902C71.0199 1.52048 69.9398 2.27105 68.8058 2.93481C67.6924 3.62048 66.4797 4.12356 65.3265 4.70564L61.8076 6.43215L58.2687 8.11916L58.2041 8.03052Z" fill="#F7C96A"/>
<path d="M63.6172 13.3378C64.9396 13.201 66.2669 13.0951 67.5942 12.9892C68.9215 12.8833 70.2487 12.8128 71.5809 12.7466C72.9113 12.6399 74.2476 12.606 75.5825 12.6451C76.2544 12.6802 76.9238 12.7464 77.5881 12.8435C78.2646 12.9314 78.9255 13.0976 79.5545 13.3378V13.4216C78.2223 13.4216 76.9147 13.5056 75.5923 13.5277C74.27 13.5497 72.9475 13.4703 71.6203 13.4527C70.293 13.435 68.9657 13.4261 67.6384 13.4305H63.6467L63.6172 13.3378Z" fill="#F7C96A"/>
<path d="M60.6251 19.2451C61.5749 19.3235 62.5147 19.4364 63.4546 19.5441L66.2743 19.9262C67.222 20.0182 68.1613 20.182 69.084 20.4161C70.0208 20.6617 70.915 21.0465 71.7364 21.5577L71.702 21.6507C70.7521 21.6181 69.8054 21.5249 68.8676 21.3716C67.9326 21.2393 67.0419 20.9208 66.1217 20.7003L60.6104 19.348L60.6251 19.2451Z" fill="#F7C96A"/>
<path d="M49.0786 27.9653C49.1497 28.6699 49.1941 29.3695 49.2563 30.0691L49.3896 32.1777C49.4679 32.8753 49.4977 33.5785 49.4785 34.2813C49.4335 34.9998 49.2989 35.708 49.0786 36.385H48.9898C48.7653 35.7094 48.6306 35.0005 48.5899 34.2813C48.5663 33.5785 48.596 32.8749 48.6787 32.1777L48.812 30.0691C48.8698 29.3695 48.9187 28.6699 48.9898 27.9653H49.0786Z" fill="#F7C96A"/>
<path d="M36.855 22.9218C36.4425 23.4091 36.0093 23.8574 35.5865 24.3252L34.2819 25.6946C33.8781 26.1751 33.4294 26.6203 32.9412 27.0249C32.4211 27.422 31.8382 27.7394 31.2138 27.9655L31.1416 27.8972C31.4147 27.3192 31.7837 26.7861 32.2348 26.3182C32.688 25.8779 33.1834 25.4783 33.7147 25.1244L35.2307 23.9695C35.7464 23.5991 36.262 23.2141 36.7777 22.8535L36.855 22.9218Z" fill="#F7C96A"/>
<path d="M32.9457 19.3262C32.1514 19.7273 31.3423 20.1031 30.5431 20.494L28.1256 21.6059C27.3336 22.0131 26.516 22.3659 25.6782 22.6619C25.2513 22.7889 24.8244 22.9056 24.3826 22.9919C23.9362 23.0955 23.4802 23.1499 23.0225 23.1543V23.0529C23.744 22.5389 24.51 22.0936 25.3109 21.7226C26.1292 21.3788 26.9682 21.0888 27.8228 20.8545L30.3445 20.027C31.1934 19.7681 32.0373 19.4939 32.8861 19.2451L32.9457 19.3262Z" fill="#F7C96A"/>
<path d="M35.9473 9.92344L32.2487 9.83882L28.5601 9.71478C27.3322 9.66962 26.0943 9.71463 24.8764 9.55656C23.6454 9.41043 22.4235 9.17855 21.2178 8.86223V8.74921C22.4441 8.49674 23.6903 8.389 24.9363 8.42754C26.1675 8.48493 27.3953 8.61315 28.615 8.81151L32.2886 9.27431C33.5115 9.44931 34.7344 9.61301 35.9523 9.83882L35.9473 9.92344Z" fill="#F7C96A"/>
<path d="M60.6696 22.8535C61.1634 23.1094 61.6868 23.3805 62.1955 23.6464C62.7041 23.9124 63.1831 24.1933 63.6769 24.4744C64.1972 24.7163 64.6933 25.0088 65.1583 25.3476C65.6199 25.7206 66.0143 26.1721 66.3237 26.6823L66.2694 26.7627C65.6878 26.6689 65.1264 26.4737 64.6102 26.1856C64.1229 25.8847 63.6663 25.535 63.2473 25.1418C62.7979 24.7905 62.3535 24.4293 61.914 24.063C61.4745 23.6966 61.04 23.3252 60.6104 22.9388L60.6696 22.8535Z" fill="#F7C96A"/>
<path d="M72.6416 93.83L72.8928 92.3159H75.345V93.83C75.345 93.83 72.5348 94.4828 72.6416 93.83Z" fill="#D2A065"/>
<path d="M95.3041 98.6309L94.8906 97.2297L97.3231 96.8267L97.597 98.2566L95.3041 98.6309Z" fill="#D2A065"/>
<path d="M90.9399 50.1993C90.7594 49.3695 91.8835 46.3086 91.8835 46.3086C89.2381 48.7826 87.0723 48.1908 87.0723 48.1908C87.0723 48.1908 89.5114 50.3107 90.9399 50.2146V50.1993Z" fill="#C19764"/>
<path d="M76.5479 81.7915C76.5479 81.7915 81.8656 77.4653 84.0654 74.2739L83.9108 76.2481L76.5479 81.7915Z" fill="#354059"/>
<path d="M84.3127 74.2737C83.5633 72.1042 83.5814 69.8205 84.3651 67.6582" stroke="#354059" stroke-width="0.115373" stroke-miterlimit="10"/>
<path d="M83.5 67.3574C83.5 67.3574 82.5882 71.313 83.7645 71.868" stroke="#354059" stroke-width="0.115373" stroke-miterlimit="10"/>
<path d="M80.1562 66.7563C80.1562 66.7563 83.094 69.4836 91.583 69.4626" stroke="#354059" stroke-width="0.115373" stroke-miterlimit="10"/>
<path d="M98.82 96.526C98.4428 93.5233 92.1768 85.8214 92.1768 85.8214C92.9704 81.1722 90.9814 68.5605 90.9814 68.5605H91.4419C91.4419 68.5605 93.3722 73.2499 92.9117 85.386C92.9117 85.386 99.6382 93.3934 99.7019 96.3611L98.82 96.526Z" fill="#354059"/>
<path d="M88.2754 69.1621C88.2754 69.1621 89.4126 72.9209 91.5831 73.6727" stroke="#354059" stroke-width="0.115373" stroke-miterlimit="10"/>
<path d="M92.4844 96.8267H92.7851" stroke="#354059" stroke-width="0.0558256" stroke-linecap="round" stroke-linejoin="round"/>
<path d="M93.0859 96.8268L99.1 95.3232" stroke="#354059" stroke-width="0.0558256" stroke-linecap="round" stroke-linejoin="round" stroke-dasharray="0.24 0.24"/>
<path d="M99.4004 95.3232H99.7011" stroke="#354059" stroke-width="0.0558256" stroke-linecap="round" stroke-linejoin="round"/>
<path d="M92.4844 96.5259H92.7851" stroke="#354059" stroke-width="0.0558256" stroke-linecap="round" stroke-linejoin="round"/>
<path d="M93.0859 96.5261L99.1 95.3232" stroke="#354059" stroke-width="0.0558256" stroke-linecap="round" stroke-linejoin="round" stroke-dasharray="0.24 0.24"/>
<path d="M71.4355 91.6894C71.4355 91.6894 77.3628 91.8986 77.7503 91.1133" stroke="#354059" stroke-width="0.0558256" stroke-linecap="round" stroke-linejoin="round" stroke-dasharray="0.23 0.34"/>
<path d="M71.4355 91.4016C71.4355 91.4016 77.3628 91.5052 77.7503 91.1133" stroke="#354059" stroke-width="0.0558256" stroke-linecap="round" stroke-linejoin="round" stroke-dasharray="0.23 0.34"/>
<path d="M84.0654 74.5747L76.7155 81.0037C76.7155 81.0037 76.1205 81.3171 76.2717 82.5611C76.4229 83.8051 76.9593 92.0155 76.9593 92.0155" stroke="#354059" stroke-width="0.115373" stroke-miterlimit="10"/>
<path d="M78.3516 35.4829C78.3516 35.4829 82.1734 43.1595 83.1025 46.5779L85.5685 49.9167C85.5685 49.9167 81.8721 46.7219 81.5507 45.2761C81.2293 43.8302 78.6981 36.9785 78.3516 35.4829Z" fill="#C6AFCC"/>
<path opacity="0.69" d="M87.8323 43.1719C87.8323 43.1719 87.4349 43.5831 86.8868 44.0642C86.3386 44.5453 87.2841 44.6606 87.2841 44.6606" stroke="#56412B" stroke-width="0.186085" stroke-linecap="round" stroke-linejoin="round"/>
<path d="M80.7573 67.3574C80.0776 67.7926 79.375 68.1941 78.6523 68.5602" stroke="#354059" stroke-width="0.115373" stroke-miterlimit="10"/>
<path d="M92.5064 101.175C92.5709 101.175 92.6232 101.123 92.6232 101.058C92.6232 100.994 92.5709 100.942 92.5064 100.942C92.4419 100.942 92.3896 100.994 92.3896 101.058C92.3896 101.123 92.4419 101.175 92.5064 101.175Z" stroke="#D6D4D0" stroke-width="0.115373" stroke-miterlimit="10"/>
<path d="M92.439 101.675C92.5035 101.675 92.5558 101.623 92.5558 101.558C92.5558 101.494 92.5035 101.442 92.439 101.442C92.3745 101.442 92.3223 101.494 92.3223 101.558C92.3223 101.623 92.3745 101.675 92.439 101.675Z" stroke="#D6D4D0" stroke-width="0.115373" stroke-miterlimit="10"/>
<path d="M92.399 102.237C92.4635 102.237 92.5158 102.185 92.5158 102.121C92.5158 102.057 92.4635 102.005 92.399 102.005C92.3345 102.005 92.2822 102.057 92.2822 102.121C92.2822 102.185 92.3345 102.237 92.399 102.237Z" stroke="#D6D4D0" stroke-width="0.115373" stroke-miterlimit="10"/>
<path d="M92.3228 102.751C92.3873 102.751 92.4396 102.699 92.4396 102.635C92.4396 102.571 92.3873 102.519 92.3228 102.519C92.2583 102.519 92.2061 102.571 92.2061 102.635C92.2061 102.699 92.2583 102.751 92.3228 102.751Z" stroke="#D6D4D0" stroke-width="0.115373" stroke-miterlimit="10"/>
<path d="M95.5693 99.7842C95.5693 99.7842 95.5132 98.6924 95.1 98.7779L94.5898 103.442C94.879 103.026 95.0321 102.533 95.0285 102.028L95.2377 100.131C95.2377 100.131 95.2785 99.7339 95.7937 99.7842C96.309 99.8345 97.6608 98.7024 97.5945 98.3301" stroke="#D6D4D0" stroke-width="0.115373" stroke-miterlimit="10"/>
<path d="M92.3225 102.639H91.6309L92.3988 102.121L91.7027 102.067L92.4393 101.558L91.7701 101.442L92.5066 101.058L91.8375 100.982" stroke="#F9F9FA" stroke-width="0.115373" stroke-linecap="round" stroke-linejoin="round"/>
<path d="M72.4211 93.8198C72.4211 93.8198 68.272 94.2342 67.4381 95.0159C66.6043 95.7975 68.493 95.9248 68.493 95.9248C68.493 95.9248 72.622 95.4539 73.059 95.5527C73.496 95.6516 75.3446 95.388 75.3446 95.2656V93.8198C74.3965 94.1205 73.3692 94.1205 72.4211 93.8198Z" fill="#EAE9E8" stroke="#AFADAD" stroke-width="0.115373" stroke-miterlimit="10"/>
<path d="M72.1875 94.4208C72.2705 94.4208 72.3378 94.3535 72.3378 94.2705C72.3378 94.1874 72.2705 94.1201 72.1875 94.1201C72.1044 94.1201 72.0371 94.1874 72.0371 94.2705C72.0371 94.3535 72.1044 94.4208 72.1875 94.4208Z" stroke="#D6D4D0" stroke-width="0.115373" stroke-miterlimit="10"/>
<path d="M71.7363 94.4209C71.7363 94.4209 71.6689 94.4209 71.5859 94.4209C71.5029 94.4209 71.4355 94.4209 71.4355 94.4209C71.4355 94.4209 71.5029 94.4209 71.5859 94.4209C71.6689 94.4209 71.7363 94.4209 71.7363 94.4209Z" stroke="#D6D4D0" stroke-width="0.115373" stroke-miterlimit="10"/>
<path d="M70.6715 95.9817C70.7359 95.9817 70.7882 95.9297 70.7882 95.8656C70.7882 95.8015 70.7359 95.7495 70.6715 95.7495C70.607 95.7495 70.5547 95.8015 70.5547 95.8656C70.5547 95.9297 70.607 95.9817 70.6715 95.9817Z" stroke="#D6D4D0" stroke-width="0.115373" stroke-miterlimit="10"/>
<path d="M70.1636 96.1023C70.2281 96.1023 70.2804 96.0503 70.2804 95.9862C70.2804 95.9221 70.2281 95.8701 70.1636 95.8701C70.0992 95.8701 70.0469 95.9221 70.0469 95.9862C70.0469 96.0503 70.0992 96.1023 70.1636 96.1023Z" stroke="#D6D4D0" stroke-width="0.115373" stroke-miterlimit="10"/>
<path d="M69.334 94.3841C69.334 94.3841 69.2336 94.9178 70.1998 94.6435C71.166 94.3691 72.6297 93.8702 72.6297 93.8702C72.6297 93.8702 72.7206 93.4612 72.3283 93.526C71.9361 93.5909 69.334 94.3841 69.334 94.3841Z" fill="#EAE9E8" stroke="#C4C4C4" stroke-width="0.115373" stroke-miterlimit="10"/>
<path d="M70.5987 94.7219L70.2324 94.0456L71.2141 94.5963L70.838 93.7847L71.805 94.4079V93.519L72.3373 94.2823" stroke="#F9F9FA" stroke-width="0.115373" stroke-linecap="round" stroke-linejoin="round"/>
<path d="M67.2256 95.6819C67.2256 95.6819 67.4386 96.0802 68.4275 96.1082C69.4163 96.1362 72.6417 95.6819 72.6417 95.6819C73.5556 95.8096 74.4839 95.6865 75.3446 95.3232V95.884C74.4642 96.0387 73.5736 96.1117 72.6822 96.1025C72.6822 96.1025 69.4518 96.5679 68.4883 96.523C68.2277 96.5279 67.971 96.4516 67.7477 96.3029C67.5245 96.1541 67.3435 95.939 67.2256 95.6819Z" fill="#B7B3B3"/>
<path d="M98.7309 99.5332L99.1 100.236C98.6228 100.839 98.1092 101.415 97.5619 101.961C97.5619 101.961 96.5878 105.2 96.4237 105.402C96.2596 105.603 94.4292 106.655 93.0859 105.849V105.687C93.0859 105.687 94.9625 105.957 95.8597 105.259C95.8597 105.259 96.7518 103.205 97.2697 101.529C97.2543 101.514 98.5514 100.315 98.7309 99.5332Z" fill="#B7B3B3"/>
<path d="M13.4238 42.9418L34.4692 41.9595L34.5231 44.8127L13.4238 44.9198L13.4328 42.9686" fill="#56A389"/>
<path d="M80.7568 63.749L80.9889 66.0503C80.9889 66.0503 82.6475 68.0014 91.2815 68.5603V66.5281C91.2815 66.5281 83.0721 66.5433 80.7568 63.749Z" fill="#D0BAD6" stroke="#B698B7" stroke-width="0.0595473" stroke-miterlimit="10"/>
<path d="M91.3229 68.5606L91.4879 66.5692L93.6877 63.9754C93.1636 63.0668 92.8616 62.0666 92.8022 61.043C92.8022 61.043 89.871 66.0215 90.8994 68.5107" fill="#A88EB2"/>
<path d="M85.5693 49.917H86.3179C86.3179 49.917 88.0021 52.5956 91.3149 50.3377L92.1848 50.633C92.1848 50.633 90.5765 52.0849 89.0237 52.0198C87.471 51.9547 86.0043 51.3989 85.5693 49.917Z" fill="#D0BAD6" stroke="#B698B7" stroke-width="0.0595473" stroke-miterlimit="10"/>
<path d="M75.3447 33.3779L75.6454 35.4829" stroke="#B698B7" stroke-width="0.0595473" stroke-miterlimit="10"/>
<path d="M75.6455 33.6787V35.7836" stroke="#B698B7" stroke-width="0.0595473" stroke-miterlimit="10"/>
<path d="M75.6455 33.6787L75.9462 35.7836" stroke="#B698B7" stroke-width="0.0595473" stroke-miterlimit="10"/>
<path d="M75.9463 33.6787L76.247 35.7836" stroke="#B698B7" stroke-width="0.0595473" stroke-miterlimit="10"/>
<path d="M76.2471 33.6787L76.5478 36.0843" stroke="#B698B7" stroke-width="0.0595473" stroke-miterlimit="10"/>
<path d="M76.5479 33.6787L76.8486 36.0843" stroke="#B698B7" stroke-width="0.0595473" stroke-miterlimit="10"/>
<path d="M76.8477 33.6787L77.1484 36.0843" stroke="#B698B7" stroke-width="0.0595473" stroke-miterlimit="10"/>
<path d="M77.1484 33.6787L77.4491 35.7836" stroke="#B698B7" stroke-width="0.0595473" stroke-miterlimit="10"/>
<path d="M77.4502 33.6787L77.7509 35.7836" stroke="#B698B7" stroke-width="0.0595473" stroke-miterlimit="10"/>
<path d="M77.75 33.3779L78.0507 35.7836" stroke="#B698B7" stroke-width="0.0595473" stroke-miterlimit="10"/>
<path d="M78.0508 33.3779L78.3515 35.4829" stroke="#B698B7" stroke-width="0.0595473" stroke-miterlimit="10"/>
<path d="M81.0576 64.0498V66.4554" stroke="#B698B7" stroke-width="0.0595473" stroke-miterlimit="10"/>
<path d="M81.3594 64.3506V66.4555" stroke="#B698B7" stroke-width="0.0595473" stroke-miterlimit="10"/>
<path d="M81.3594 64.6514L81.6601 66.7563" stroke="#B698B7" stroke-width="0.0595473" stroke-miterlimit="10"/>
<path d="M81.6592 64.6514L81.9599 66.7563" stroke="#B698B7" stroke-width="0.0595473" stroke-miterlimit="10"/>
<path d="M81.96 64.9521L82.2607 66.7564" stroke="#B698B7" stroke-width="0.0595473" stroke-miterlimit="10"/>
<path d="M82.2607 64.9521L82.5614 67.0571" stroke="#B698B7" stroke-width="0.0595473" stroke-miterlimit="10"/>
<path d="M82.5615 65.2529L82.8622 67.0572" stroke="#B698B7" stroke-width="0.0558256" stroke-miterlimit="10"/>
<path d="M82.8623 65.2529V67.0572" stroke="#B698B7" stroke-width="0.0558256" stroke-miterlimit="10"/>
<path d="M83.1631 65.2529V67.3579" stroke="#B698B7" stroke-width="0.0558256" stroke-miterlimit="10"/>
<path d="M83.4629 65.5532V67.3574" stroke="#B698B7" stroke-width="0.0558256" stroke-miterlimit="10"/>
<path d="M83.4629 65.5532L83.7636 67.3574" stroke="#B698B7" stroke-width="0.0558256" stroke-miterlimit="10"/>
<path d="M83.7637 65.5532L84.0644 67.3574" stroke="#B698B7" stroke-width="0.0558256" stroke-miterlimit="10"/>
<path d="M84.0654 65.5532V67.6581" stroke="#B698B7" stroke-width="0.0558256" stroke-miterlimit="10"/>
<path d="M84.3662 65.854V67.6582" stroke="#B698B7" stroke-width="0.0558256" stroke-miterlimit="10"/>
<path d="M84.666 65.854V67.6582" stroke="#B698B7" stroke-width="0.0558256" stroke-miterlimit="10"/>
<path d="M84.666 65.854L84.9667 67.6582" stroke="#B698B7" stroke-width="0.0558256" stroke-miterlimit="10"/>
<path d="M84.9668 65.854L85.2675 67.9589" stroke="#B698B7" stroke-width="0.0558256" stroke-miterlimit="10"/>
<path d="M85.2686 65.854L85.5693 67.9589" stroke="#B698B7" stroke-width="0.0558256" stroke-miterlimit="10"/>
<path d="M85.5693 66.1548L85.87 67.959" stroke="#B698B7" stroke-width="0.0558256" stroke-miterlimit="10"/>
<path d="M85.8691 66.1548V67.959" stroke="#B698B7" stroke-width="0.0558256" stroke-miterlimit="10"/>
<path d="M86.1699 66.1548V67.959" stroke="#B698B7" stroke-width="0.0558256" stroke-miterlimit="10"/>
<path d="M86.4707 66.1548V67.959" stroke="#B698B7" stroke-width="0.0558256" stroke-miterlimit="10"/>
<path d="M86.4707 66.1548L86.7714 67.959" stroke="#B698B7" stroke-width="0.0558256" stroke-miterlimit="10"/>
<path d="M86.7715 66.1548L87.0722 68.2597" stroke="#B698B7" stroke-width="0.0558256" stroke-miterlimit="10"/>
<path d="M87.0723 66.1548L87.373 68.2597" stroke="#B698B7" stroke-width="0.0558256" stroke-miterlimit="10"/>
<path d="M87.373 66.4556L87.6738 68.2598" stroke="#B698B7" stroke-width="0.0558256" stroke-miterlimit="10"/>
<path d="M87.6729 66.4556V68.2598" stroke="#B698B7" stroke-width="0.0558256" stroke-miterlimit="10"/>
<path d="M87.9746 66.4556V68.2598" stroke="#B698B7" stroke-width="0.0558256" stroke-miterlimit="10"/>
<path d="M87.9746 66.4556L88.2753 68.2598" stroke="#B698B7" stroke-width="0.0558256" stroke-miterlimit="10"/>
<path d="M88.2754 66.4556L88.5761 68.2598" stroke="#B698B7" stroke-width="0.0558256" stroke-miterlimit="10"/>
<path d="M88.5752 66.4556L88.8759 68.2598" stroke="#B698B7" stroke-width="0.0558256" stroke-miterlimit="10"/>
<path d="M88.876 66.4556V68.2598" stroke="#B698B7" stroke-width="0.0558256" stroke-miterlimit="10"/>
<path d="M89.1777 66.4556V68.5605" stroke="#B698B7" stroke-width="0.0558256" stroke-miterlimit="10"/>
<path d="M89.1777 66.4556L89.4784 68.5605" stroke="#B698B7" stroke-width="0.0558256" stroke-miterlimit="10"/>
<path d="M89.4775 66.4556L89.7782 68.5605" stroke="#B698B7" stroke-width="0.0558256" stroke-miterlimit="10"/>
<path d="M89.7783 66.4556L90.079 68.5605" stroke="#B698B7" stroke-width="0.0558256" stroke-miterlimit="10"/>
<path d="M90.0791 66.4556V68.5605" stroke="#B698B7" stroke-width="0.0558256" stroke-miterlimit="10"/>
<path d="M90.3789 66.4556V68.5605" stroke="#B698B7" stroke-width="0.0558256" stroke-miterlimit="10"/>
<path d="M90.3789 66.4556L90.6796 68.5605" stroke="#B698B7" stroke-width="0.0558256" stroke-miterlimit="10"/>
<path d="M90.6807 66.4556L90.9814 68.5605" stroke="#B698B7" stroke-width="0.0558256" stroke-miterlimit="10"/>
<path d="M98.499 73.9731L99.1004 75.176" stroke="#B698B7" stroke-width="0.0595473" stroke-miterlimit="10"/>
<path d="M98.499 73.6724L99.4011 75.1759" stroke="#B698B7" stroke-width="0.0595473" stroke-miterlimit="10"/>
<path d="M98.7998 73.6724L99.7019 75.1759" stroke="#B698B7" stroke-width="0.0595473" stroke-miterlimit="10"/>
<path d="M99.1006 73.6724L99.702 75.1759" stroke="#B698B7" stroke-width="0.063269" stroke-miterlimit="10"/>
<path d="M99.4004 73.6724L100.002 75.1759" stroke="#B698B7" stroke-width="0.063269" stroke-miterlimit="10"/>
<path d="M99.4004 73.6724L100.303 75.1759" stroke="#B698B7" stroke-width="0.0595473" stroke-miterlimit="10"/>
<path d="M99.7012 73.3716L100.603 75.1758" stroke="#B698B7" stroke-width="0.063269" stroke-miterlimit="10"/>
<path d="M100.003 73.3716L100.604 74.8751" stroke="#B698B7" stroke-width="0.063269" stroke-miterlimit="10"/>
<path d="M100.304 73.3716L100.905 74.8751" stroke="#B698B7" stroke-width="0.0595473" stroke-miterlimit="10"/>
<path d="M100.304 73.3716L101.206 74.8751" stroke="#B698B7" stroke-width="0.0558256" stroke-miterlimit="10"/>
<path d="M100.604 73.0708L101.205 74.5743" stroke="#B698B7" stroke-width="0.0558256" stroke-miterlimit="10"/>
<path d="M100.904 73.0708L101.506 74.5743" stroke="#B698B7" stroke-width="0.0483821" stroke-miterlimit="10"/>
<path d="M85.5693 50.2178H86.4714" stroke="#B698B7" stroke-width="0.0595473" stroke-miterlimit="10"/>
<path d="M85.8691 50.2178H86.4705" stroke="#B698B7" stroke-width="0.0595473" stroke-miterlimit="10"/>
<path d="M85.8691 50.5181H86.7713" stroke="#B698B7" stroke-width="0.0595473" stroke-miterlimit="10"/>
<path d="M85.8691 50.8188L86.7713 50.5181" stroke="#B698B7" stroke-width="0.0595473" stroke-miterlimit="10"/>
<path d="M86.1699 50.8188L87.072 50.5181" stroke="#B698B7" stroke-width="0.0595473" stroke-miterlimit="10"/>
<path d="M86.1699 51.1196L87.072 50.8188" stroke="#B698B7" stroke-width="0.0595473" stroke-miterlimit="10"/>
<path d="M86.4707 51.1196L87.0721 50.8188" stroke="#B698B7" stroke-width="0.0595473" stroke-miterlimit="10"/>
<path d="M86.4707 51.4203L87.3728 50.8188" stroke="#B698B7" stroke-width="0.0595473" stroke-miterlimit="10"/>
<path d="M86.7715 51.4203L87.6736 51.1196" stroke="#B698B7" stroke-width="0.0595473" stroke-miterlimit="10"/>
<path d="M86.7715 51.721L87.6736 51.1196" stroke="#B698B7" stroke-width="0.0595473" stroke-miterlimit="10"/>
<path d="M87.0723 51.721L87.6737 51.1196" stroke="#B698B7" stroke-width="0.0595473" stroke-miterlimit="10"/>
<path d="M87.373 51.721L87.9745 51.1196" stroke="#B698B7" stroke-width="0.0595473" stroke-miterlimit="10"/>
<path d="M87.6729 52.0218L88.2743 51.4204" stroke="#B698B7" stroke-width="0.0595473" stroke-miterlimit="10"/>
<path d="M87.9746 52.0218L88.2753 51.4204" stroke="#B698B7" stroke-width="0.0595473" stroke-miterlimit="10"/>
<path d="M88.2754 52.0218L88.5761 51.4204" stroke="#B698B7" stroke-width="0.0595473" stroke-miterlimit="10"/>
<path d="M88.5752 52.0218V51.4204" stroke="#B698B7" stroke-width="0.0595473" stroke-miterlimit="10"/>
<path d="M88.5752 52.0218L88.8759 51.4204" stroke="#B698B7" stroke-width="0.0595473" stroke-miterlimit="10"/>
<path d="M88.876 52.0218L89.1767 51.4204" stroke="#B698B7" stroke-width="0.0595473" stroke-miterlimit="10"/>
<path d="M89.1777 52.0218V51.4204" stroke="#B698B7" stroke-width="0.0595473" stroke-miterlimit="10"/>
<path d="M89.4775 52.0218V51.4204" stroke="#B698B7" stroke-width="0.0595473" stroke-miterlimit="10"/>
<path d="M89.7783 52.0217V51.1196" stroke="#B698B7" stroke-width="0.0595473" stroke-miterlimit="10"/>
<path d="M90.079 52.0217L89.7783 51.1196" stroke="#B698B7" stroke-width="0.0595473" stroke-miterlimit="10"/>
<path d="M90.0791 52.0217V51.1196" stroke="#B698B7" stroke-width="0.0595473" stroke-miterlimit="10"/>
<path d="M90.3798 52.0217L90.0791 51.1196" stroke="#B698B7" stroke-width="0.0595473" stroke-miterlimit="10"/>
<path d="M90.6796 51.721L90.3789 51.1196" stroke="#B698B7" stroke-width="0.0595473" stroke-miterlimit="10"/>
<path d="M90.6796 51.721L90.3789 50.8188" stroke="#B698B7" stroke-width="0.0595473" stroke-miterlimit="10"/>
<path d="M90.9814 51.721L90.6807 50.8188" stroke="#B698B7" stroke-width="0.0595473" stroke-miterlimit="10"/>
<path d="M91.2821 51.4203L90.6807 50.8188" stroke="#B698B7" stroke-width="0.0595473" stroke-miterlimit="10"/>
<path d="M91.2821 51.4203L90.9814 50.8188" stroke="#B698B7" stroke-width="0.0595473" stroke-miterlimit="10"/>
<path d="M91.5829 51.1195L90.9814 50.5181" stroke="#B698B7" stroke-width="0.0595473" stroke-miterlimit="10"/>
<path d="M91.8836 51.1195L91.2822 50.5181" stroke="#B698B7" stroke-width="0.0595473" stroke-miterlimit="10"/>
<path d="M91.8836 50.8188L91.2822 50.5181" stroke="#B698B7" stroke-width="0.0595473" stroke-miterlimit="10"/>
<path d="M32.2939 83.7025L41.0606 89.6857L69.4131 81.6084V83.2828L41.0337 92.8202L32.2939 86.1003V83.7025Z" fill="#387A64"/>
<path d="M92.5994 56.5322C92.5297 58.1376 92.5994 59.7431 92.7851 61.3435H92.5452C92.4601 59.7431 92.4523 58.1376 92.5994 56.5322Z" fill="#A88EB2"/>
<path d="M93.0859 39.6929C93.0859 39.6929 93.6314 40.5349 93.9367 40.5925C94.242 40.65 93.0859 39.6929 93.0859 39.6929Z" fill="#E2D46F"/>
<path d="M92.1834 39.0917C91.9746 39.0648 91.7757 38.9776 91.6068 38.8387C91.4386 38.6478 92.1834 39.0917 92.1834 39.0917Z" fill="#E2D46F"/>
</svg>
