<svg width="154" height="121" viewBox="0 0 154 121" fill="none" xmlns="http://www.w3.org/2000/svg">
<g clip-path="url(#clip0_1446_3112)">
<ellipse cx="76.8088" cy="60.1665" rx="76.2853" ry="60.0708" fill="#FCFCF8"/>
<path d="M37.7383 82.5581C41.8701 82.6363 49.6802 82.5907 53.0687 82.5581C54.1618 83.2748 56.2988 85.529 56.102 88.8126C55.9052 92.0963 56.02 99.4975 56.102 102.788" stroke="url(#paint0_linear_1446_3112)" stroke-width="1.23539"/>
<path d="M40.1869 97.7514C39.5967 91.2612 39.5317 78.3026 43.9936 78.3891C48.4555 78.4756 56.8895 78.4252 60.5487 78.3891C61.7291 79.1823 64.0368 81.6774 63.8243 85.3119C63.6118 88.9464 63.7358 97.1384 63.8243 100.78" stroke="url(#paint1_linear_1446_3112)" stroke-width="1.23539"/>
<path d="M94.1035 96.7651C98.2353 96.8433 106.045 96.7977 109.434 96.7651C110.527 97.4818 112.664 99.736 112.467 103.02C112.27 106.303 112.385 113.704 112.467 116.995" stroke="url(#paint2_linear_1446_3112)" stroke-width="1.23539"/>
<path d="M100.436 92.5957C104.88 92.6822 113.281 92.6318 116.925 92.5957C118.101 93.389 120.4 95.8841 120.188 99.5187C119.976 103.153 120.1 111.345 120.188 114.987" stroke="url(#paint3_linear_1446_3112)" stroke-width="1.23539"/>
<path d="M121.128 93.6689C121.128 96.82 115.75 100.008 107.008 100.008C98.2661 100.008 89.4707 96.82 89.4707 93.6689C89.4707 90.5178 96.5573 87.9634 105.299 87.9634C114.041 87.9634 121.128 90.5178 121.128 93.6689Z" fill="#DAA75A"/>
<ellipse cx="105.146" cy="92.7498" rx="15.8284" ry="5.71368" fill="#DFBB85"/>
<path d="M64.7634 80.4693C64.7634 83.58 59.3593 86.7275 50.5749 86.7275C41.7904 86.7275 32.9521 83.58 32.9521 80.4693C32.9521 77.3586 40.0733 74.8369 48.8578 74.8369C57.6422 74.8369 64.7634 77.3586 64.7634 80.4693Z" fill="#DAA75A"/>
<ellipse cx="48.7045" cy="79.5471" rx="15.9056" ry="5.63647" fill="#DFBB85"/>
<path d="M77.4492 71.5749C77.4492 66.205 77.8073 64.9051 81.2091 62.2283L99.4125 53.5513C99.1893 55.0793 100.269 58.823 99.948 62.2283C99.6267 65.6336 92.7464 67.2462 88.9078 68.7197L87.1174 72.6456L88.0306 89.2417H78.5235C78.1217 84.7122 77.4492 76.9449 77.4492 71.5749Z" fill="url(#paint4_linear_1446_3112)"/>
<path d="M67.1807 68.0836C67.1807 62.8643 70.7523 59.5912 73.3402 59.1669L89.403 54.3931C89.1799 55.8782 88.6534 59.6761 88.3322 62.9859C88.0109 66.2957 80.2561 67.3627 76.4189 68.7948L75.714 71.6396V89.2417H68.7807C68.3791 84.8392 67.1807 73.303 67.1807 68.0836Z" fill="url(#paint5_linear_1446_3112)"/>
<path d="M93.1862 62.7243C100.675 62.7243 100.972 52.9174 98.3571 46.855H72.3242V58.9799C75.4149 60.1092 83.3426 62.7243 93.1862 62.7243Z" fill="#FBCDCD"/>
<path d="M83.2002 34.2531C83.2002 30.5325 86.4652 27.6563 90.1561 28.1254L98.8425 29.2296C101.928 29.6219 104.24 32.247 104.24 35.3573V40.2563C104.24 44.0801 100.801 46.9854 97.0313 46.3464L88.3449 44.8741C85.3742 44.3706 83.2002 41.7971 83.2002 38.784V34.2531Z" fill="#DAA75A"/>
<path d="M82.1299 34.2531C82.1299 30.5325 85.3949 27.6563 89.0858 28.1254L97.7721 29.2296C100.858 29.6219 103.17 32.247 103.17 35.3573V40.2563C103.17 44.0801 99.7311 46.9854 95.961 46.3464L87.2746 44.8741C84.3039 44.3706 82.1299 41.7971 82.1299 38.784V34.2531Z" fill="#DFBB85"/>
<path d="M59.1283 56.4835L58.6035 52.8428L97.4645 54.7603L97.2089 57.9561C96.0839 60.4104 92.4791 61.2797 90.8172 61.4075C83.4541 61.8166 66.7131 58.3584 59.1283 56.4835Z" fill="#DAA75A"/>
<path d="M61.2893 49.9028L69.4706 45.4287L96.1874 52.076C97.0396 52.7151 98.3127 54.0294 96.5742 56.4838C94.8357 58.9381 89.4419 58.9801 86.589 58.9801C78.4504 57.6165 61.4171 54.9139 59.3718 53.9935C57.3265 53.0731 59.7979 50.8829 61.2893 49.9028Z" fill="#DFBB85"/>
<path d="M89.355 14.7117C87.6922 8.94109 81.1649 10.9329 81.8618 13.1827C81.7665 12.0879 84.5889 11.4276 85.1796 21.3075C85.6386 28.9843 90.2406 35.4477 94.3018 34.0171C90.7867 32.7937 91.4334 21.9251 89.355 14.7117Z" fill="#382831"/>
<path d="M80.3926 21.2763C79.4483 15.3456 78.5945 8.65507 77.891 12.7362C77.9304 11.638 75.5779 11.2476 75.2759 21.1222C75.0104 29.8023 77.0792 35.6287 81.318 35.4645C79.2296 34.5319 81.573 28.6897 80.3926 21.2763Z" fill="#24161E"/>
<path d="M79.0992 28.8461C80.5888 27.2968 80.5771 25.5908 80.1174 24.571L86.6285 21.0353C85.7733 27.248 89.0745 27.8511 89.9761 28.4895L85.5977 33.1113C82.9893 32.5754 77.6096 30.3954 79.0992 28.8461Z" fill="#FFBC96"/>
<path d="M92.9863 37.5829C92.8592 38.3041 92.6511 39.9125 92.8361 40.5766" stroke="#F49E9E" stroke-width="0.154424"/>
<path d="M73.2807 43.7844L75.4194 34.7861L69.3807 42.3212L73.2807 43.7844Z" fill="#F49E9E"/>
<ellipse cx="86.9375" cy="19.0351" rx="1.18199" ry="1.92074" transform="rotate(7.31615 86.9375 19.0351)" fill="#FFBC96"/>
<path d="M88.2557 16.809C86.8705 21.5443 85.5597 24.0403 81.1503 25.6745C77.9865 25.6883 75.7291 21.7697 76.3533 16.3971C76.9774 11.0244 80.4326 11.4438 84.3428 11.0811C86.2336 11.9364 87.8138 12.0456 88.2557 16.809Z" fill="#FFBC96"/>
<path d="M78.5007 20.1251L78.2728 21.7421C78.3046 21.8493 78.5763 22.1846 79.1212 22.0231" stroke="black" stroke-width="0.154424" stroke-linecap="round"/>
<path d="M85.1835 22.4478C83.408 24.71 81.1352 25.5809 80.2339 25.5409C80.5946 27.4345 79.3608 28.2618 79.2742 28.6678L80.7563 28.182C81.272 28.013 81.734 27.7111 82.0959 27.3067L82.5999 26.7435C82.7379 26.5893 82.8601 26.4215 82.9646 26.2429L85.1835 22.4478Z" fill="#F4A176"/>
<path d="M81.1156 16.0263C79.6933 15.5321 79.4181 15.229 78.8817 14.2697C79.7835 9.85131 84.2626 9.15413 86.3928 10.9668C87.15 11.4019 87.9826 12.2425 88.44 12.9171C89.3614 14.2761 88.7223 18.4789 88.0512 17.9869C86.8004 17.0701 86.3068 18.632 85.9457 19.8618C86.0611 18.8433 86.0628 18.0234 85.5083 17.7597C85.5083 17.7597 83.4901 16.8513 81.1156 16.0263Z" fill="#382831"/>
<path d="M80.4886 18.1924C80.7039 17.9718 81.5539 17.6187 81.9947 18.3854" stroke="#5B4444" stroke-width="0.154424" stroke-linecap="round"/>
<path d="M76.581 18.7731C76.8612 18.456 77.3699 18.4211 77.6929 18.7748" stroke="#5B4444" stroke-width="0.154424" stroke-linecap="round"/>
<path d="M78.5635 23.2725C78.9608 23.583 80.3174 23.5182 80.9497 22.7556" stroke="#292828" stroke-width="0.154424" stroke-linecap="round"/>
<path d="M86.7923 17.9714C85.8707 18.2322 84.9234 17.0651 83.4805 16.8848C83.9313 17.2455 84.8172 17.3758 85.3952 18.1427C85.621 19.0968 85.9062 19.806 85.8845 20.1608L86.3253 18.5579L86.7923 17.9714Z" fill="#24161E"/>
<ellipse cx="77.2043" cy="19.9195" rx="0.347526" ry="0.470472" transform="rotate(-9.87651 77.2043 19.9195)" fill="#343440"/>
<ellipse cx="80.7964" cy="19.5885" rx="0.369397" ry="0.492529" transform="rotate(-9.92837 80.7964 19.5885)" fill="#343440"/>
<path d="M76.5369 13.3681C76.6046 14.7717 75.6108 18.8308 76.2666 17.6963C76.8075 15.0813 78.2503 15.0813 78.7913 14.1796C79.5127 10.9334 82.5214 10.1974 82.2178 10.2121C81.9141 10.2267 77.8894 10.0222 76.5369 13.3681Z" fill="#291D1D"/>
<path d="M72.389 49.1658C72.389 47.7393 62.6939 48.1032 67.1514 41.6841C72.2834 34.2938 72.632 31.697 77.1364 29.0243C79.8109 27.9545 79.632 28.1327 79.632 28.1327C79.632 28.1327 78.8425 29.6572 81.6765 30.427C84.3843 31.1616 87.0406 29.7575 89.1827 27.5562L91.3997 27.7761C94.431 28.4893 94.6093 29.5592 95.3225 29.9158C97.8076 31.6961 99.3796 35.7856 100.313 37.0481C102.137 40.8709 102.772 40.5644 102.276 47.5682L101.207 50.7778C97.7318 55.1961 85.7344 50.4282 85.7344 50.4282" fill="#849CCB"/>
<path d="M73.6518 46.2805V44.2967L70.3154 43.0343L72.9304 42.4933C74.2529 42.0124 74.1026 42.5835 75.9963 39.2471C76.8153 37.804 77.0677 37.0447 77.1253 36.8347C77.1405 36.7544 77.1481 36.7516 77.1253 36.8347C77.1072 36.931 77.0783 37.1387 77.0783 37.4437C75.9963 46.2805 76.898 44.0442 73.6518 46.2805Z" fill="#667BA2"/>
<path d="M78.5332 28.7147C78.7429 29.7372 79.0538 30.2824 79.991 30.9853C80.9234 31.6846 82.309 31.8769 83.7355 31.6986C87.4799 30.9853 88.6624 29.4462 90.1545 27.9541" stroke="#667BA3" stroke-width="0.154424" stroke-linecap="round"/>
<path d="M95.8605 44.8934C93.5782 44.4655 89.2037 45.3095 87.3018 45.785C87.7772 44.8934 90.503 43.9283 91.7594 43.8236C93.8294 43.6511 92.3394 37.0818 91.971 34.1246C91.9577 34.0261 91.9465 33.9306 91.9377 33.8384C91.9474 33.9294 91.9586 34.025 91.971 34.1246C92.3904 37.2234 94.9964 43.2805 95.8605 44.8934Z" fill="#667BA3"/>
<path d="M72.6279 42.5228C72.4659 42.0239 72.8378 41.5122 73.3623 41.5122L78.1765 41.5122C78.5136 41.5122 78.8117 41.7309 78.913 42.0525L81.049 48.8374C81.2092 49.3463 80.8174 49.8604 80.2843 49.8409L75.4799 49.665C75.1559 49.6532 74.8738 49.4402 74.7737 49.1319L72.6279 42.5228Z" fill="#343440"/>
<path d="M76.2168 44.1934C76.4688 44.1935 76.7339 44.3057 76.9365 44.4902C77.1389 44.6746 77.2725 44.9255 77.2725 45.1982C77.2725 45.4851 77.2003 45.7386 77.0684 45.918C76.9381 46.0949 76.748 46.2031 76.5 46.2031C76.2479 46.2031 75.982 46.0909 75.7793 45.9062C75.5771 45.7219 75.4434 45.4709 75.4434 45.1982C75.4434 44.9114 75.5165 44.6578 75.6484 44.4785C75.7787 44.3017 75.9689 44.1934 76.2168 44.1934Z" stroke="#16D2AA" stroke-width="0.154424"/>
<path d="M75.9065 44.9667C75.9065 45.0915 75.9014 45.2141 75.9379 45.3295C75.9717 45.436 76.0251 45.5671 76.1119 45.5577C76.1562 45.5529 76.1851 45.4995 76.2085 45.4444C76.2473 45.3529 76.2597 45.2395 76.2627 45.1317C76.2647 45.0608 76.2657 44.9905 76.2657 44.9195C76.2657 44.893 76.2694 44.8613 76.2618 44.8374" stroke="#16D2AA" stroke-width="0.154424" stroke-linecap="round"/>
<path d="M76.4754 45.5582C76.4754 45.4742 76.4764 45.3899 76.468 45.3061C76.461 45.2368 76.4497 45.1701 76.4497 45.1004C76.4497 45.0387 76.4386 44.9657 76.4771 44.9094C76.5032 44.8713 76.566 44.8508 76.617 44.8421C76.6869 44.8302 76.7589 44.8383 76.7853 44.8958C76.8083 44.946 76.8169 45.0077 76.799 45.0594C76.7701 45.1428 76.6721 45.1853 76.5679 45.1975" stroke="#16D2AA" stroke-width="0.154424" stroke-linecap="round"/>
<path d="M72.5637 49.7077C71.8075 49.7077 71.7445 47.4415 71.8075 46.3083C72.3747 45.8834 74.265 46.3083 75.0212 47.1582C75.6261 47.8381 75.2733 48.8579 75.0212 49.2828C74.5171 49.4245 73.3199 49.7077 72.5637 49.7077Z" fill="#FFBC96"/>
<path d="M83.5066 46.498L86.6263 47.1402C87.6542 47.3518 87.5439 49.2263 87.3602 50.1371H84.791C83.8735 50.3512 81.7448 50.6509 80.5703 50.1371C79.1021 49.4949 79.2857 47.7824 79.2857 47.1402C79.2857 46.6265 82.0996 46.498 83.5066 46.498Z" fill="#FFBC96"/>
<path d="M87.3897 45.7852L85.6182 46.1073C86.1335 47.2668 85.8329 49.4893 85.6182 50.4557L87.0676 50.7778C87.583 50.2624 87.4971 47.2346 87.3897 45.7852Z" fill="#849CCB" stroke="#667BA3" stroke-width="0.154424" stroke-linejoin="round"/>
<path d="M85.9404 46.7513L87.3899 46.4292" stroke="#667BA3" stroke-width="0.154424"/>
<path d="M85.9404 47.5566L87.3899 47.3955" stroke="#667BA3" stroke-width="0.154424"/>
<path d="M85.9404 48.3623H87.3899" stroke="#667BA3" stroke-width="0.154424"/>
<path d="M85.9404 49.1675L87.3899 49.3285" stroke="#667BA3" stroke-width="0.154424"/>
<path d="M85.7783 49.9727L87.2278 50.2948" stroke="#667BA3" stroke-width="0.154424"/>
<path d="M78.0439 95.8971C78.0439 89.6388 83.9496 84.0038 87.6727 83.495L110.782 77.771C110.461 79.5518 109.703 84.1056 109.241 88.0743C108.779 92.0429 97.6224 96.4695 92.102 98.1867L87.811 103.397L88.8963 119.877L79.8527 120.238C79.2749 114.959 78.0439 102.155 78.0439 95.8971Z" fill="url(#paint6_linear_1446_3112)"/>
<path d="M87.6182 97.4976C87.6182 91.257 93.4917 85.8283 97.1945 85.3209L117.496 78.8521C117.177 80.6278 118.722 84.9784 118.262 88.9359C117.803 92.8933 109.58 95.7852 104.089 97.4976L102.174 100.542L101.176 118.486L88.9739 119.929C88.3993 114.665 87.6182 103.738 87.6182 97.4976Z" fill="url(#paint7_linear_1446_3112)"/>
<path d="M27.7021 84.0787C27.7021 78.4949 31.5491 74.9932 34.3366 74.5393L51.6378 69.4321C51.3975 71.021 50.8304 75.084 50.4844 78.625C50.1384 82.1659 41.7857 83.3074 37.6526 84.8395L36.8934 87.883V109.737L29.6061 105.774C29.1736 101.064 27.7021 89.6625 27.7021 84.0787Z" fill="url(#paint8_linear_1446_3112)"/>
<path d="M38.7299 87.8264C38.7299 82.0699 39.1137 80.6764 42.7598 77.807L62.2708 68.5054C62.0316 70.1434 63.1892 74.1565 62.8448 77.807C62.5003 81.4574 55.1258 83.1861 51.0115 84.7656L49.0925 88.9741L47.1214 114.215L37.7383 110.244C37.7382 108.169 38.7299 93.5828 38.7299 87.8264Z" fill="url(#paint9_linear_1446_3112)"/>
<path d="M55.6137 78.3289C63.6361 78.3289 63.9544 67.8234 61.1529 61.3291H33.2656V74.3177C36.5764 75.5274 45.0689 78.3289 55.6137 78.3289Z" fill="#FBCDCD"/>
<path d="M44.916 47.3302C44.916 43.6096 48.181 40.7334 51.8719 41.2026L62.0571 42.4973C65.1425 42.8895 67.4551 45.5147 67.4551 48.6249V54.7814C67.4551 58.6053 64.016 61.5105 60.2459 60.8715L50.0607 59.1452C47.09 58.6417 44.916 56.0682 44.916 53.0551V47.3302Z" fill="#DAA75A"/>
<path d="M43.7705 47.3302C43.7705 43.6096 47.0355 40.7334 50.7264 41.2026L60.9116 42.4973C63.997 42.8895 66.3096 45.5147 66.3096 48.6249V54.7814C66.3096 58.6053 62.8705 61.5105 59.1004 60.8715L48.9152 59.1452C45.9445 58.6417 43.7705 56.0682 43.7705 53.0551V47.3302Z" fill="#DFBB85"/>
<path d="M19.1306 71.6433L18.5684 67.7432L60.1976 69.7972L59.9238 73.2207C58.7187 75.8499 54.857 76.7811 53.0768 76.918C45.1892 77.3562 27.2556 73.6517 19.1306 71.6433Z" fill="#DAA75A"/>
<path d="M21.4442 64.5936L30.2082 59.8008L58.8282 66.9216C59.7411 67.6063 61.1049 69.0141 59.2425 71.6433C57.3802 74.2726 51.6022 74.3175 48.546 74.3175C39.8277 72.8568 21.5811 69.9616 19.3901 68.9757C17.1991 67.9897 19.8465 65.6435 21.4442 64.5936Z" fill="#DFBB85"/>
<path d="M55.0269 24.8831C53.2457 18.7014 46.2534 20.8351 46.9999 23.2451C46.8979 22.0724 49.9213 21.365 50.5541 31.9487C51.0458 40.1723 52.7746 47.0351 57.1251 45.5026C53.3596 44.1921 57.2533 32.6103 55.0269 24.8831Z" fill="#3E2D37"/>
<path d="M46.9291 23.5187C46.9006 23.6887 46.8808 23.8791 46.8707 24.0906C46.8526 23.8833 46.8749 23.6705 46.9291 23.5187C47.4978 20.1267 51.5677 24.8183 53.2638 30.7049C55.4903 38.432 53.7644 44.9506 56.1069 45.6683C51.6218 46.3984 49.7838 41.3679 48.9286 32.1045C48.1276 23.4286 47.1815 22.8115 46.9291 23.5187Z" fill="#24161E"/>
<path d="M40.5233 42.0372C42.119 40.3775 42.1065 38.55 41.614 37.4576L48.5889 33.67C47.6728 40.3253 51.2091 40.9714 52.1749 41.6552L47.4847 46.6063C44.6905 46.0322 38.9276 43.6969 40.5233 42.0372Z" fill="#F8A474"/>
<path d="M55.3999 51.3966C55.2637 52.1692 55.0409 53.8922 55.239 54.6036" stroke="#F49E9E" stroke-width="0.154424"/>
<path d="M34.2905 58.0396L36.5815 48.4004L30.1126 56.4721L34.2905 58.0396Z" fill="#F49E9E"/>
<path d="M38.7554 28.2011C38.8284 29.7134 37.7581 31.1624 37.3339 31.1828C36.9097 31.2033 36.2103 30.0519 36.1373 28.5396C36.0642 27.0273 36.6451 25.7268 37.0694 25.7063C37.4936 25.6858 38.6823 26.6888 38.7554 28.2011Z" fill="#291D1D"/>
<path d="M36.8196 33.7551C37.9237 31.6808 36.7847 31.1526 36.287 29.0945L38.2433 26.2001C38.9454 29.41 37.5867 32.5742 36.8196 33.7551Z" fill="#291D1D"/>
<ellipse cx="48.9206" cy="31.5272" rx="1.26619" ry="2.05756" transform="rotate(7.31615 48.9206 31.5272)" fill="#F8A474"/>
<path d="M50.3326 29.1427C48.8487 34.2153 47.4445 36.8892 42.721 38.6398C39.3318 38.6546 36.9137 34.4569 37.5823 28.7015C38.2509 22.9461 41.9522 23.3954 46.141 23.0068C48.1664 23.9231 49.8592 24.04 50.3326 29.1427Z" fill="#F8A474"/>
<path d="M39.883 32.6944L39.6389 34.4265C39.6729 34.5414 39.9639 34.9006 40.5476 34.7276" stroke="black" stroke-width="0.154424" stroke-linecap="round"/>
<path d="M47.2345 35.1831C45.3325 37.6065 42.8378 38.5774 41.8723 38.5346C42.4607 40.1944 40.997 41.4112 40.9042 41.8462L42.548 41.3074C43.0637 41.1384 43.5257 40.8365 43.8876 40.4321L44.4816 39.7683C44.6197 39.6141 44.7418 39.4463 44.8463 39.2676L47.2345 35.1831Z" fill="#E47A44"/>
<path d="M44.7473 28.1173C39.763 29.212 38.0368 27.9546 37.7178 27.144L45.3353 26.4624L47.8422 30.6165C47.3238 30.6559 45.534 29.0201 44.7473 28.1173Z" fill="#CA5B22"/>
<path d="M42.684 28.3034C39.5383 29.0754 37.6025 27.2131 37.0278 26.1856C39.6623 20.0028 46.0552 20.9417 48.3372 22.8835C49.1483 23.3497 49.7545 24.4691 50.2445 25.1919C51.2315 26.6476 50.8326 30.9308 50.1137 30.4038C48.7738 29.4216 48.2451 31.0947 47.8582 32.4122C47.9818 31.3211 47.9837 30.4428 47.3897 30.1604C46.7957 29.878 45.6013 29.0936 45.2993 28.0931C45.2993 28.0931 45.2993 27.6617 42.684 28.3034Z" fill="#3E2D37"/>
<ellipse cx="3.8182" cy="2.86711" rx="3.8182" ry="2.86711" transform="matrix(0.997873 -0.0651938 0.0824159 0.996598 36.3203 22.5991)" fill="#3E2D37"/>
<path d="M45.4288 27.7233C42.4913 28.2747 37.5146 26.9084 36.5772 25.0855C36.2446 25.8768 37.0777 26.8434 37.3685 27.1214C39.4754 29.0869 43.6554 28.2876 45.4288 27.7233Z" fill="#24161E"/>
<path d="M42.0111 30.6244C42.2418 30.388 43.1524 30.0098 43.6246 30.8312" stroke="#5B4444" stroke-width="0.154424" stroke-linecap="round"/>
<path d="M37.8264 31.246C38.1266 30.9063 38.6716 30.8689 39.0176 31.2479" stroke="#5B4444" stroke-width="0.154424" stroke-linecap="round"/>
<path d="M39.9502 36.0669C40.3759 36.3996 41.8291 36.3302 42.5064 35.5132" stroke="#292828" stroke-width="0.154424" stroke-linecap="round"/>
<path d="M48.7652 30.3875C47.7778 30.6669 46.1225 29.0899 45.3584 27.7157C45.2736 28.8654 46.6493 29.7494 47.2685 30.571C47.5103 31.5931 47.8159 32.3528 47.7927 32.7329L48.2649 31.0157L48.7652 30.3875Z" fill="#24161E"/>
<ellipse cx="38.4932" cy="32.4742" rx="0.372282" ry="0.503986" transform="rotate(-9.87651 38.4932 32.4742)" fill="#343440"/>
<ellipse cx="42.3411" cy="32.1195" rx="0.395711" ry="0.527615" transform="rotate(-9.92837 42.3411 32.1195)" fill="#343440"/>
<path d="M35.5567 65.5308C35.5567 64.0027 22.9509 62.6657 27.726 55.7893C33.2235 47.8726 33.597 45.0908 38.4222 42.2277C41.2872 41.0817 41.0956 41.2726 41.0956 41.2726C41.0956 41.2726 40.2498 42.9057 43.2858 43.7304C46.1864 44.5173 49.032 43.0131 51.3267 40.655L53.7016 40.8906C56.9488 41.6546 57.1398 42.8007 57.9038 43.1827C60.5659 45.0899 62.25 49.4706 63.2496 50.8231C65.2042 54.9182 65.8845 54.5898 65.3532 62.0926L64.2071 65.5308C60.4847 70.2639 47.2076 65.5308 47.2076 65.5308" fill="#FBCDCD"/>
<path d="M39.916 41.8969C40.1406 42.9921 40.4736 43.5762 41.4777 44.3292C42.4764 45.0783 43.9608 45.2842 45.4889 45.0932C49.5 44.3292 50.7668 42.6804 52.3652 41.082" stroke="#F4A6A6" stroke-width="0.154424" stroke-linecap="round"/>
<path d="M58.478 59.2278C56.0331 58.7694 51.347 59.6735 49.3096 60.1828C49.8189 59.2278 52.7388 58.1939 54.0848 58.0818C56.3022 57.897 54.706 50.8597 54.3114 47.6919C54.2971 47.5864 54.2852 47.4841 54.2758 47.3853C54.2862 47.4828 54.2981 47.5851 54.3114 47.6919C54.7607 51.0114 57.5524 57.5 58.478 59.2278Z" fill="#F4A6A6"/>
<path d="M30.9199 52.407C30.7579 51.9082 31.1298 51.3965 31.6543 51.3965L41.677 51.3965C42.0141 51.3965 42.3122 51.6152 42.4134 51.9367L46.6793 65.4868C46.8395 65.9956 46.4477 66.5098 45.9146 66.4903L35.9065 66.1239C35.5825 66.1121 35.3004 65.8991 35.2003 65.5908L30.9199 52.407Z" fill="#343440"/>
<path d="M45.2443 60.9473L48.5863 61.6352C49.6874 61.8619 49.5692 63.8699 49.3725 64.8456H46.6202C45.6373 65.0749 43.357 65.3959 42.0988 64.8456C40.5261 64.1576 40.7227 62.3231 40.7227 61.6352C40.7227 61.0849 43.7371 60.9473 45.2443 60.9473Z" fill="#F8A474"/>
<path d="M33.5232 64.3851C32.7131 64.3851 32.6456 61.9574 32.7131 60.7435C33.3207 60.2883 35.3457 60.7435 36.1557 61.6539C36.8038 62.3822 36.4257 63.4747 36.1557 63.9299C35.6157 64.0817 34.3332 64.3851 33.5232 64.3851Z" fill="#F8A474"/>
<path d="M49.4036 60.1831L47.5059 60.5282C48.0579 61.7703 47.7359 64.1512 47.5059 65.1863L49.0586 65.5314C49.6107 64.9793 49.5186 61.7358 49.4036 60.1831Z" fill="#FBCDCD" stroke="#F4A6A6" stroke-width="0.154424" stroke-linejoin="round"/>
<path d="M47.8516 61.2181L49.4043 60.873" stroke="#F4A6A6" stroke-width="0.154424"/>
<path d="M47.8516 62.0807L49.4043 61.9082" stroke="#F4A6A6" stroke-width="0.154424"/>
<path d="M47.8516 62.9438H49.4043" stroke="#F4A6A6" stroke-width="0.154424"/>
<path d="M47.8516 63.8062L49.4043 63.9787" stroke="#F4A6A6" stroke-width="0.154424"/>
<path d="M47.6787 64.6689L49.2314 65.014" stroke="#F4A6A6" stroke-width="0.154424"/>
<path d="M38.041 57.2041C38.3871 57.2042 38.7507 57.365 39.0283 57.6299C39.3056 57.8945 39.4912 58.258 39.4912 58.6553C39.4912 59.0659 39.3917 59.4313 39.209 59.6914C39.028 59.9489 38.7645 60.1054 38.4229 60.1055C38.0766 60.1055 37.7123 59.9448 37.4346 59.6797C37.1575 59.4151 36.9718 59.0523 36.9717 58.6553C36.9717 58.2446 37.0712 57.8793 37.2539 57.6191C37.435 57.3613 37.6991 57.2041 38.041 57.2041Z" stroke="#16D2AA" stroke-width="0.154424"/>
<path d="M37.6594 58.4099C37.6594 58.542 37.654 58.672 37.6928 58.7941C37.7285 58.907 37.7851 59.0458 37.877 59.0358C37.924 59.0307 37.9546 58.9742 37.9793 58.9159C38.0204 58.8189 38.0335 58.6989 38.0367 58.5846C38.0388 58.5096 38.0399 58.4351 38.0399 58.3599C38.0399 58.3318 38.0438 58.2982 38.0358 58.2729" stroke="#16D2AA" stroke-width="0.154424" stroke-linecap="round"/>
<path d="M38.4516 59.0363C38.4516 58.9474 38.4527 58.8582 38.4438 58.7694C38.4364 58.6959 38.4244 58.6254 38.4244 58.5515C38.4244 58.4862 38.4127 58.4088 38.4534 58.3492C38.481 58.3088 38.5476 58.2871 38.6015 58.2779C38.6756 58.2654 38.7519 58.2739 38.7799 58.3348C38.8042 58.3879 38.8133 58.4533 38.7944 58.5081C38.7638 58.5964 38.6599 58.6414 38.5496 58.6543" stroke="#16D2AA" stroke-width="0.154424" stroke-linecap="round"/>
<path d="M47.2207 22.1408C47.5383 22.1408 47.7964 22.1345 48.0765 22.3005C48.3152 22.442 48.5356 22.6035 48.6811 22.8441C48.7097 22.8915 48.7744 23.0469 48.8175 23.0756C48.9431 23.1593 48.5915 22.8734 48.4963 22.7562C48.3072 22.5235 47.9982 22.4066 47.7553 22.2521C47.6306 22.1727 47.3677 22.0439 47.2207 22.0439" stroke="white" stroke-width="0.154424" stroke-linecap="round"/>
<path d="M111.91 89.2726C120.79 89.2726 121.142 77.6444 118.041 70.4561H87.1738V84.8328C90.8385 86.1718 100.238 89.2726 111.91 89.2726Z" fill="#FEDF85"/>
<path d="M100.192 54.13C100.192 50.4094 103.457 47.5332 107.148 48.0024L119.742 49.6033C122.828 49.9955 125.14 52.6207 125.14 55.7309V63.9083C125.14 67.7322 121.701 70.6374 117.931 69.9984L105.337 67.8638C102.366 67.3603 100.192 64.7869 100.192 61.7737V54.13Z" fill="#DAA75A"/>
<path d="M98.9238 54.2116C98.9238 50.491 102.189 47.6147 105.88 48.0839L118.474 49.6849C121.559 50.0771 123.872 52.7022 123.872 55.8125V63.9898C123.872 67.8137 120.433 70.7189 116.662 70.0799L104.069 67.9454C101.098 67.4419 98.9238 64.8684 98.9238 61.8553V54.2116Z" fill="#DFBB85"/>
<path d="M71.5295 81.8731L70.9072 77.5562L116.985 79.8297L116.682 83.6191C115.348 86.5293 111.074 87.56 109.104 87.7115C100.373 88.1966 80.5229 84.0961 71.5295 81.8731Z" fill="#DAA75A"/>
<path d="M74.0895 74.0697L83.7902 68.7646L115.469 76.6464C116.479 77.4043 117.989 78.9626 115.927 81.8728C113.866 84.783 107.471 84.8327 104.088 84.8327C94.4377 83.216 74.2411 80.0114 71.816 78.92C69.3908 77.8287 72.3212 75.2318 74.0895 74.0697Z" fill="#DFBB85"/>
<path d="M95.2076 49.1028C96.9739 47.2657 96.96 45.2429 96.4149 44.0337L104.135 39.8414C103.121 47.2079 107.035 47.9231 108.104 48.6799L102.913 54.1601C99.8202 53.5247 93.4414 50.9398 95.2076 49.1028Z" fill="#C27D56"/>
<path d="M111.674 59.4624C111.524 60.3175 111.277 62.2246 111.496 63.0121" stroke="#F49E9E" stroke-width="0.154424"/>
<path d="M88.3084 66.8154L90.8442 56.146L83.684 65.0804L88.3084 66.8154Z" fill="#F49E9E"/>
<path d="M89.71 75.1078C89.71 73.4164 75.757 71.9364 81.0423 64.3252C87.1274 55.5624 87.5408 52.4833 92.8817 49.3143C96.0529 48.0458 95.8407 48.2571 95.8407 48.2571C95.8407 48.2571 94.9046 50.0647 98.265 50.9775C101.476 51.8485 104.625 50.1836 107.165 47.5735L109.794 47.8343C113.388 48.6799 113.6 49.9485 114.445 50.3713C117.392 52.4823 119.256 57.3312 120.362 58.8282C122.526 63.361 123.279 62.9975 122.691 71.3021L121.422 75.1077C117.302 80.3467 102.606 75.1077 102.606 75.1077" fill="#FEDF85"/>
<path d="M88.6215 70.0344V68.0506L85.2852 66.7882L87.9001 66.2472C89.2227 65.7663 89.0724 66.3374 90.966 63.001C91.785 61.5579 92.0374 60.7987 92.0951 60.5886C92.1102 60.5083 92.1178 60.5056 92.0951 60.5886C92.0769 60.6849 92.048 60.8926 92.048 61.1976C90.966 70.0344 91.8677 67.7981 88.6215 70.0344Z" fill="#F8BB44"/>
<path d="M94.5361 48.9473C94.7847 50.1596 95.1534 50.8061 96.2647 51.6396C97.3702 52.4687 99.0132 52.6967 100.705 52.4853C105.144 51.6396 106.547 49.8146 108.316 48.0454" stroke="#F8BB44" stroke-width="0.154424" stroke-linecap="round"/>
<path d="M115.081 68.1306C112.375 67.6232 107.188 68.6239 104.933 69.1877C105.496 68.1306 108.728 66.9863 110.218 66.8621C112.673 66.6576 110.906 58.8682 110.469 55.3618C110.453 55.2451 110.44 55.1319 110.43 55.0225C110.441 55.1304 110.454 55.2437 110.469 55.3618C110.966 59.0361 114.056 66.2181 115.081 68.1306Z" fill="#F8BB44"/>
<path d="M100.432 70.0337L104.132 70.7952C105.35 71.046 105.22 73.2687 105.002 74.3486H101.955C100.867 74.6024 98.3435 74.9578 96.9508 74.3486C95.21 73.5872 95.4276 71.5566 95.4276 70.7952C95.4276 70.186 98.7642 70.0337 100.432 70.0337Z" fill="#C27D56"/>
<path d="M87.4576 73.8388C86.561 73.8388 86.4862 71.1516 86.561 69.808C87.2334 69.3042 89.4749 69.808 90.3715 70.8157C91.0887 71.6219 90.6703 72.8311 90.3715 73.3349C89.7737 73.5029 88.3541 73.8388 87.4576 73.8388Z" fill="#C27D56"/>
<path d="M105.038 69.188L102.938 69.5699C103.549 70.9448 103.192 73.5801 102.938 74.7259L104.656 75.1078C105.267 74.4967 105.165 70.9066 105.038 69.188Z" fill="#FEDF85" stroke="#F8BB44" stroke-width="0.154424" stroke-linejoin="round"/>
<path d="M103.318 70.3336L105.037 69.9517" stroke="#F8BB44" stroke-width="0.154424"/>
<path d="M103.318 71.2886L105.037 71.0977" stroke="#F8BB44" stroke-width="0.154424"/>
<path d="M103.318 72.2437H105.037" stroke="#F8BB44" stroke-width="0.154424"/>
<path d="M103.318 73.1978L105.037 73.3887" stroke="#F8BB44" stroke-width="0.154424"/>
<path d="M103.127 74.1528L104.846 74.5348" stroke="#F8BB44" stroke-width="0.154424"/>
<path d="M92.46 65.8818C92.8455 65.8818 93.2499 66.061 93.5586 66.3555C93.8668 66.6497 94.0742 67.0537 94.0742 67.4961C94.0742 67.9517 93.9641 68.3577 93.7607 68.6475C93.5589 68.9348 93.2641 69.1103 92.8828 69.1104C92.4971 69.1104 92.0929 68.9304 91.7842 68.6357C91.476 68.3416 91.2686 67.9384 91.2686 67.4961C91.2686 67.0404 91.3787 66.6344 91.582 66.3447C91.7838 66.0574 92.0786 65.8818 92.46 65.8818Z" stroke="#16D2AA" stroke-width="0.154424"/>
<path d="M92.0354 67.2254C92.0354 67.3716 92.0295 67.5154 92.0723 67.6506C92.1119 67.7755 92.1745 67.9292 92.2763 67.9182C92.3282 67.9125 92.3621 67.8499 92.3895 67.7854C92.4349 67.6781 92.4495 67.5452 92.453 67.4187C92.4554 67.3356 92.4566 67.2532 92.4566 67.17C92.4566 67.1389 92.4609 67.1017 92.452 67.0737" stroke="#16D2AA" stroke-width="0.0772119" stroke-linecap="round"/>
<path d="M92.9137 67.9187C92.9137 67.8202 92.9149 67.7215 92.905 67.6232C92.8968 67.5419 92.8836 67.4638 92.8836 67.382C92.8836 67.3097 92.8705 67.2241 92.9157 67.1581C92.9462 67.1134 93.0199 67.0894 93.0796 67.0793C93.1616 67.0653 93.2461 67.0748 93.277 67.1422C93.304 67.201 93.3141 67.2734 93.2931 67.334C93.2592 67.4317 93.1443 67.4816 93.0221 67.4959" stroke="#16D2AA" stroke-width="0.0772119" stroke-linecap="round"/>
<ellipse cx="104.502" cy="37.4696" rx="1.40151" ry="2.27745" transform="rotate(7.31615 104.502 37.4696)" fill="#C27D56"/>
<path d="M106.066 34.8303C104.423 40.445 102.869 43.4046 97.6408 45.3424C93.8894 45.3587 91.2129 40.7124 91.9529 34.3419C92.693 27.9715 96.7898 28.4687 101.426 28.0386C103.668 29.0529 105.542 29.1823 106.066 34.8303Z" fill="#C27D56"/>
<path d="M94.4984 38.7612L94.2282 40.6784C94.2659 40.8056 94.588 41.2032 95.2341 41.0116" stroke="black" stroke-width="0.154424" stroke-linecap="round"/>
<path d="M102.637 41.516C100.531 44.1983 97.7701 45.273 96.7015 45.2256C97.3527 47.0628 95.7326 48.4097 95.6299 48.8911L97.5335 48.2672C98.0491 48.0982 98.5112 47.7963 98.873 47.3919L99.6118 46.5664C99.7498 46.4122 99.872 46.2444 99.9765 46.0657L102.637 41.516Z" fill="#A36342"/>
<path d="M100.832 32.5982C95.3146 33.8099 93.404 32.4182 93.0508 31.521L101.482 30.7665L104.257 35.3645C103.683 35.4082 101.702 33.5975 100.832 32.5982Z" fill="#A26342"/>
<path d="M96.8552 36.4708C97.1105 36.2092 98.1184 35.7906 98.6411 36.6997" stroke="#5B4444" stroke-width="0.154424" stroke-linecap="round"/>
<path d="M92.2227 37.1589C92.5552 36.7826 93.1589 36.7412 93.5423 37.161" stroke="#5B4444" stroke-width="0.154424" stroke-linecap="round"/>
<path d="M94.5723 42.4941C95.0434 42.8624 96.6519 42.7856 97.4017 41.8813" stroke="#292828" stroke-width="0.154424" stroke-linecap="round"/>
<ellipse cx="92.9616" cy="38.518" rx="0.412067" ry="0.557847" transform="rotate(-9.87651 92.9616 38.518)" fill="#343440"/>
<ellipse cx="97.2206" cy="38.1252" rx="0.438001" ry="0.584001" transform="rotate(-9.92837 97.2206 38.1252)" fill="#343440"/>
<path d="M109.384 76.1537C109.465 76.1342 109.551 76.1497 109.623 76.1967C109.695 76.2437 109.747 76.3183 109.767 76.4042C109.788 76.4901 109.775 76.5802 109.732 76.6547C109.69 76.7291 109.62 76.7819 109.539 76.8014L99.3894 79.2302L98.6631 78.7192L109.384 76.1537Z" fill="#988189"/>
<path d="M109.779 76.2679L99.2584 78.8131L95.6953 72.7046L109.779 76.2679Z" fill="#988189"/>
<path d="M96.2721 64.8872C96.342 64.8917 96.4094 64.9153 96.4667 64.9556C96.5241 64.9959 96.5692 65.0512 96.5971 65.1155L99.359 79.3647L79.8957 76.4617C79.8277 76.4573 79.7622 76.4346 79.7059 76.3962C79.6496 76.3578 79.6047 76.305 79.5758 76.2433L76.4051 63.0758C76.3622 62.9845 76.3573 62.8799 76.3915 62.785C76.4257 62.69 76.4962 62.6126 76.5875 62.5696C76.6454 62.5426 76.7091 62.5305 76.7728 62.5346L96.2721 64.8872Z" fill="url(#paint10_linear_1446_3112)"/>
<path d="M86.8818 69.6216C87.2591 69.6216 87.6538 69.7848 87.9541 70.0513C88.2541 70.3175 88.4541 70.6811 88.4541 71.0776C88.4541 71.4885 88.3464 71.854 88.1494 72.1147C87.954 72.3733 87.6673 72.5327 87.2939 72.5327C86.917 72.5326 86.5228 72.3702 86.2227 72.104C85.9227 71.8379 85.7228 71.474 85.7227 71.0776C85.7227 70.6667 85.8293 70.3004 86.0264 70.0396C86.2217 69.781 86.5086 69.6217 86.8818 69.6216Z" stroke="#16D2AA" stroke-width="0.154424"/>
<path d="M86.3676 70.821C86.3676 71.008 86.3599 71.1921 86.4147 71.365C86.4654 71.5249 86.5455 71.7216 86.6757 71.7074C86.7422 71.7002 86.7855 71.6201 86.8205 71.5375C86.8787 71.4002 86.8974 71.2301 86.9019 71.0684C86.9048 70.9621 86.9064 70.8566 86.9064 70.7501C86.9064 70.7104 86.9119 70.6628 86.9006 70.627" stroke="#16D2AA" stroke-width="0.154424" stroke-linecap="round"/>
<path d="M87.3093 71.7081C87.3093 71.5821 87.3108 71.4558 87.2982 71.33C87.2877 71.226 87.2708 71.126 87.2708 71.0214C87.2708 70.9289 87.2541 70.8194 87.3119 70.7349C87.3509 70.6778 87.4452 70.647 87.5216 70.634C87.6266 70.6162 87.7346 70.6283 87.7742 70.7145C87.8087 70.7898 87.8216 70.8824 87.7947 70.96C87.7514 71.085 87.6043 71.1488 87.448 71.1671" stroke="#16D2AA" stroke-width="0.154424" stroke-linecap="round"/>
<path d="M104.995 36.2526C104.995 36.2526 104.32 36.1159 103.556 37.835C103.337 38.5148 102.983 36.498 102.983 36.498C102.983 36.498 102.43 35.9638 102.681 35.4185C102.681 35.4185 101.358 35.2786 101.264 34.2415C101.107 34.0325 100.5 35.0056 100.378 33.9784C99.7873 34.385 99.1125 33.8745 99.1125 33.8745C99.1125 33.8745 97.7229 33.5268 97.5448 32.6306C97.5448 32.6306 96.3255 34.2028 94.5246 33.3764C94.5246 33.3764 93.6124 35.3518 92.4932 34.2415C92.4932 34.2415 92.2861 35.3519 90.9491 34.9698C89.7042 34.3968 90.3761 33.3764 90.3761 33.3764C90.3761 33.3764 89.0392 32.6777 89.9942 31.5317C89.9942 31.5317 89.3557 29.7795 90.7589 29.6216C90.7589 29.6216 90.3761 27.1385 92.7703 27.6899C92.7703 27.6899 93.2415 25.7025 94.7077 26.3922C94.7077 26.3922 96.2232 24.9891 97.5448 25.9924C97.5448 25.9924 99.2645 25.1117 100.118 26.5655C100.118 26.5655 102.41 25.2284 103.174 27.1385C103.174 27.1385 105.005 27.116 105.275 29.0486C105.275 29.0486 106.845 29.9579 106.421 31.3407C106.421 31.3407 107.758 33.3764 106.23 34.2415C106.353 34.5867 106.34 34.9658 106.193 35.3016L105.778 36.2526L104.995 36.2526Z" fill="#272828"/>
</g>
<defs>
<linearGradient id="paint0_linear_1446_3112" x1="45.1142" y1="96.1948" x2="45.1142" y2="100.71" gradientUnits="userSpaceOnUse">
<stop stop-color="#667BA2"/>
<stop offset="1" stop-color="#667BA2" stop-opacity="0"/>
</linearGradient>
<linearGradient id="paint1_linear_1446_3112" x1="51.9602" y1="94.5502" x2="51.9602" y2="99.5161" gradientUnits="userSpaceOnUse">
<stop stop-color="#667BA2"/>
<stop offset="1" stop-color="#667BA2" stop-opacity="0"/>
</linearGradient>
<linearGradient id="paint2_linear_1446_3112" x1="101.479" y1="110.402" x2="101.479" y2="114.917" gradientUnits="userSpaceOnUse">
<stop stop-color="#667BA2"/>
<stop offset="1" stop-color="#667BA2" stop-opacity="0"/>
</linearGradient>
<linearGradient id="paint3_linear_1446_3112" x1="108.371" y1="108.757" x2="108.371" y2="113.723" gradientUnits="userSpaceOnUse">
<stop stop-color="#667BA2"/>
<stop offset="1" stop-color="#667BA2" stop-opacity="0"/>
</linearGradient>
<linearGradient id="paint4_linear_1446_3112" x1="86.9077" y1="82.4394" x2="86.4569" y2="89.7433" gradientUnits="userSpaceOnUse">
<stop stop-color="#33415E"/>
<stop offset="1" stop-color="#33415E" stop-opacity="0"/>
</linearGradient>
<linearGradient id="paint5_linear_1446_3112" x1="74.5552" y1="77.8407" x2="73.5633" y2="90.0139" gradientUnits="userSpaceOnUse">
<stop stop-color="#2F3541"/>
<stop offset="0.516202" stop-color="#2F3541" stop-opacity="0.540357"/>
<stop offset="1" stop-color="#2F3541" stop-opacity="0"/>
</linearGradient>
<linearGradient id="paint6_linear_1446_3112" x1="88.4441" y1="104.478" x2="88.0854" y2="111.052" gradientUnits="userSpaceOnUse">
<stop stop-color="#526A9B"/>
<stop offset="1" stop-color="#526A9B" stop-opacity="0"/>
</linearGradient>
<linearGradient id="paint7_linear_1446_3112" x1="99.0968" y1="104.871" x2="98.5571" y2="112.716" gradientUnits="userSpaceOnUse">
<stop stop-color="#5B77AF"/>
<stop offset="1" stop-color="#5B77AF" stop-opacity="0"/>
</linearGradient>
<linearGradient id="paint8_linear_1446_3112" x1="36.95" y1="96.4088" x2="36.6817" y2="100.101" gradientUnits="userSpaceOnUse">
<stop stop-color="#2F3541"/>
<stop offset="1" stop-color="#2F3541" stop-opacity="0"/>
</linearGradient>
<linearGradient id="paint9_linear_1446_3112" x1="47.4822" y1="97.9726" x2="46.9407" y2="102.575" gradientUnits="userSpaceOnUse">
<stop stop-color="#33415E"/>
<stop offset="1" stop-color="#33415E" stop-opacity="0"/>
</linearGradient>
<linearGradient id="paint10_linear_1446_3112" x1="86.3771" y1="64.0498" x2="86.2561" y2="76.999" gradientUnits="userSpaceOnUse">
<stop stop-color="#D1C6C6"/>
<stop offset="1" stop-color="#988189"/>
</linearGradient>
<clipPath id="clip0_1446_3112">
<rect width="154" height="121" fill="white"/>
</clipPath>
</defs>
</svg>
