<svg width="133" height="118" viewBox="0 0 133 118" fill="none" xmlns="http://www.w3.org/2000/svg">
<path opacity="0.1" d="M73.7061 117.636C106.251 117.636 132.635 91.3021 132.635 58.818C132.635 26.3339 106.251 0 73.7061 0C41.1608 0 14.7773 26.3339 14.7773 58.818C14.7773 91.3021 41.1608 117.636 73.7061 117.636Z" fill="#73E9CE"/>
<path opacity="0.7" d="M0.191141 78.9115C0.191141 78.9115 9.77712 31.69 59.5335 19.9775C91.638 12.4238 104.665 21.995 109.868 29.7371C112.682 33.9228 112.848 40.4005 110.322 44.9467C108.121 48.9065 104.48 52.0662 98.7266 56.6128C86.4037 66.35 94.338 78.2605 94.338 78.2605C94.338 78.2605 102.003 89.1445 91.5472 95.2026C81.0953 101.261 19.9001 125.52 13.9027 114.867C7.9053 104.214 18.3156 97.8657 12.9233 95.2026C7.52716 92.5394 -1.41976 89.3382 0.191141 78.9115Z" fill="#B4EFE1"/>
<path d="M98.4949 53.2642H41.4919C39.8881 53.2642 38.5879 54.5619 38.5879 56.1627V92.9647C38.5879 94.5655 39.8881 95.8632 41.4919 95.8632H98.4949C100.099 95.8632 101.399 94.5655 101.399 92.9647V56.1627C101.399 54.5619 100.099 53.2642 98.4949 53.2642Z" fill="#54C1BB"/>
<path d="M96.5319 56.9814H43.4557C42.5719 56.9814 41.8555 57.6966 41.8555 58.5787V76.9058C41.8555 77.7879 42.5719 78.5031 43.4557 78.5031H96.5319C97.4157 78.5031 98.1322 77.7879 98.1322 76.9058V58.5787C98.1322 57.6966 97.4157 56.9814 96.5319 56.9814Z" fill="#A9E0DD"/>
<path d="M79.5108 79.9263H60.4739C60.1345 79.9263 59.8594 80.2009 59.8594 80.5396V89.1441C59.8594 89.4828 60.1345 89.7574 60.4739 89.7574H79.5108C79.8501 89.7574 80.1253 89.4828 80.1253 89.1441V80.5396C80.1253 80.2009 79.8501 79.9263 79.5108 79.9263Z" fill="#A9E0DD"/>
<path d="M68.7613 91.0474H60.4864C60.1401 91.0474 59.8594 91.3276 59.8594 91.6733V92.5578C59.8594 92.9035 60.1401 93.1837 60.4864 93.1837H68.7613C69.1076 93.1837 69.3884 92.9035 69.3884 92.5578V91.6733C69.3884 91.3276 69.1076 91.0474 68.7613 91.0474Z" fill="#8F74B4"/>
<path d="M79.4986 91.0474H71.2237C70.8774 91.0474 70.5967 91.3276 70.5967 91.6733V92.5578C70.5967 92.9035 70.8774 93.1837 71.2237 93.1837H79.4986C79.8449 93.1837 80.1257 92.9035 80.1257 92.5578V91.6733C80.1257 91.3276 79.8449 91.0474 79.4986 91.0474Z" fill="#8F74B4"/>
<path d="M98.5103 53.2644H41.4764C40.0962 53.2644 38.8811 52.3835 38.4915 51.1005L33.2382 33.7964C32.7929 32.3296 33.9278 30.8599 35.5056 30.8599H104.481C106.059 30.8599 107.193 32.3296 106.748 33.7964L101.495 51.1005C101.105 52.3835 99.8901 53.2644 98.5099 53.2644H98.5103Z" fill="#29B1AA"/>
<path d="M104.192 33.5161L99.0469 50.4639C98.9854 50.6677 98.7595 50.8152 98.5102 50.8152H41.4763C41.2266 50.8152 41.0007 50.6677 40.9389 50.4639L35.7939 33.5161H104.192Z" fill="#F8E0C2"/>
<path d="M73.4688 31.4321H61.882C61.3755 31.4321 60.9648 31.842 60.9648 32.3476C60.9648 32.8531 61.3755 33.263 61.882 33.263H73.4688C73.9754 33.263 74.386 32.8531 74.386 32.3476C74.386 31.842 73.9754 31.4321 73.4688 31.4321Z" fill="#A9E0DD"/>
<path d="M73.4644 32.8668C73.7424 32.8668 73.9678 32.6418 73.9678 32.3643C73.9678 32.0868 73.7424 31.8618 73.4644 31.8618C73.1863 31.8618 72.9609 32.0868 72.9609 32.3643C72.9609 32.6418 73.1863 32.8668 73.4644 32.8668Z" fill="#FFFEFC"/>
<path d="M47.7822 58.5273H43.9295C43.6653 58.5273 43.4512 58.7411 43.4512 59.0047V59.9032C43.4512 60.1669 43.6653 60.3806 43.9295 60.3806H47.7822C48.0464 60.3806 48.2605 60.1669 48.2605 59.9032V59.0047C48.2605 58.7411 48.0464 58.5273 47.7822 58.5273Z" fill="#8F74B4"/>
<path d="M49.3865 58.5273H51.6267C51.8907 58.5273 52.105 58.7413 52.105 59.0047V59.9032C52.105 60.1667 51.8907 60.3806 51.6267 60.3806H49.3865C49.1225 60.3806 48.9082 60.1667 48.9082 59.9032V59.0047C48.9082 58.7413 49.1225 58.5273 49.3865 58.5273Z" fill="#8F74B4"/>
<path d="M47.9996 61.2192H43.7121C43.568 61.2192 43.4512 61.3358 43.4512 61.4796V63.5526C43.4512 63.6964 43.568 63.813 43.7121 63.813H47.9996C48.1437 63.813 48.2605 63.6964 48.2605 63.5526V61.4796C48.2605 61.3358 48.1437 61.2192 47.9996 61.2192Z" fill="#8F74B4"/>
<path d="M51.533 61.2192H49.1691C49.025 61.2192 48.9082 61.3358 48.9082 61.4796V63.5526C48.9082 63.6964 49.025 63.813 49.1691 63.813H51.533C51.6771 63.813 51.7939 63.6964 51.7939 63.5526V61.4796C51.7939 61.3358 51.6771 61.2192 51.533 61.2192Z" fill="#8F74B4"/>
<path d="M49.4535 64.2334H43.7121C43.568 64.2334 43.4512 64.35 43.4512 64.4938V66.5667C43.4512 66.7106 43.568 66.8271 43.7121 66.8271H49.4535C49.5976 66.8271 49.7144 66.7106 49.7144 66.5667V64.4938C49.7144 64.35 49.5976 64.2334 49.4535 64.2334Z" fill="#8F74B4"/>
<path d="M50.762 67.2476H43.7121C43.568 67.2476 43.4512 67.3641 43.4512 67.5079V69.5809C43.4512 69.7247 43.568 69.8413 43.7121 69.8413H50.762C50.9061 69.8413 51.0229 69.7247 51.0229 69.5809V67.5079C51.0229 67.3641 50.9061 67.2476 50.762 67.2476Z" fill="#8F74B4"/>
<path d="M54.967 67.2476H51.8595C51.7154 67.2476 51.5986 67.3641 51.5986 67.5079V69.5809C51.5986 69.7247 51.7154 69.8413 51.8595 69.8413H54.967C55.1111 69.8413 55.2279 69.7247 55.2279 69.5809V67.5079C55.2279 67.3641 55.1111 67.2476 54.967 67.2476Z" fill="#8F74B4"/>
<path d="M58.9689 67.2476H55.8615C55.7174 67.2476 55.6006 67.3641 55.6006 67.5079V69.5809C55.6006 69.7247 55.7174 69.8413 55.8615 69.8413H58.9689C59.113 69.8413 59.2298 69.7247 59.2298 69.5809V67.5079C59.2298 67.3641 59.113 67.2476 58.9689 67.2476Z" fill="#8F74B4"/>
<path d="M62.9719 67.2476H59.8644C59.7203 67.2476 59.6035 67.3641 59.6035 67.5079V69.5809C59.6035 69.7247 59.7203 69.8413 59.8644 69.8413H62.9719C63.116 69.8413 63.2328 69.7247 63.2328 69.5809V67.5079C63.2328 67.3641 63.116 67.2476 62.9719 67.2476Z" fill="#8F74B4"/>
<path d="M66.9738 67.2476H63.8664C63.7223 67.2476 63.6055 67.3641 63.6055 67.5079V69.5809C63.6055 69.7247 63.7223 69.8413 63.8664 69.8413H66.9738C67.1179 69.8413 67.2347 69.7247 67.2347 69.5809V67.5079C67.2347 67.3641 67.1179 67.2476 66.9738 67.2476Z" fill="#8F74B4"/>
<path d="M70.9777 67.2476H67.8703C67.7262 67.2476 67.6094 67.3641 67.6094 67.5079V69.5809C67.6094 69.7247 67.7262 69.8413 67.8703 69.8413H70.9777C71.1218 69.8413 71.2386 69.7247 71.2386 69.5809V67.5079C71.2386 67.3641 71.1218 67.2476 70.9777 67.2476Z" fill="#8F74B4"/>
<path d="M74.9816 67.2476H71.8742C71.7301 67.2476 71.6133 67.3641 71.6133 67.5079V69.5809C71.6133 69.7247 71.7301 69.8413 71.8742 69.8413H74.9816C75.1257 69.8413 75.2425 69.7247 75.2425 69.5809V67.5079C75.2425 67.3641 75.1257 67.2476 74.9816 67.2476Z" fill="#8F74B4"/>
<path d="M78.9826 67.2476H75.8751C75.7311 67.2476 75.6143 67.3641 75.6143 67.5079V69.5809C75.6143 69.7247 75.7311 69.8413 75.8751 69.8413H78.9826C79.1267 69.8413 79.2435 69.7247 79.2435 69.5809V67.5079C79.2435 67.3641 79.1267 67.2476 78.9826 67.2476Z" fill="#8F74B4"/>
<path d="M82.9865 67.2476H79.879C79.735 67.2476 79.6182 67.3641 79.6182 67.5079V69.5809C79.6182 69.7247 79.735 69.8413 79.879 69.8413H82.9865C83.1306 69.8413 83.2474 69.7247 83.2474 69.5809V67.5079C83.2474 67.3641 83.1306 67.2476 82.9865 67.2476Z" fill="#8F74B4"/>
<path d="M86.9885 67.2476H83.881C83.7369 67.2476 83.6201 67.3641 83.6201 67.5079V69.5809C83.6201 69.7247 83.7369 69.8413 83.881 69.8413H86.9885C87.1326 69.8413 87.2494 69.7247 87.2494 69.5809V67.5079C87.2494 67.3641 87.1326 67.2476 86.9885 67.2476Z" fill="#8F74B4"/>
<path d="M90.9914 67.2476H87.8839C87.7398 67.2476 87.623 67.3641 87.623 67.5079V69.5809C87.623 69.7247 87.7398 69.8413 87.8839 69.8413H90.9914C91.1355 69.8413 91.2523 69.7247 91.2523 69.5809V67.5079C91.2523 67.3641 91.1355 67.2476 90.9914 67.2476Z" fill="#8F74B4"/>
<path d="M96.0408 70.6802H89.1193C88.9752 70.6802 88.8584 70.7968 88.8584 70.9406V73.0135C88.8584 73.1573 88.9752 73.2739 89.1193 73.2739H96.0408C96.1849 73.2739 96.3017 73.1573 96.3017 73.0135V70.9406C96.3017 70.7968 96.1849 70.6802 96.0408 70.6802Z" fill="#8F74B4"/>
<path d="M88.0207 70.6802H84.9132C84.7691 70.6802 84.6523 70.7968 84.6523 70.9406V73.0135C84.6523 73.1573 84.7691 73.2739 84.9132 73.2739H88.0207C88.1648 73.2739 88.2816 73.1573 88.2816 73.0135V70.9406C88.2816 70.7968 88.1648 70.6802 88.0207 70.6802Z" fill="#8F74B4"/>
<path d="M84.0197 70.6802H80.9123C80.7682 70.6802 80.6514 70.7968 80.6514 70.9406V73.0135C80.6514 73.1573 80.7682 73.2739 80.9123 73.2739H84.0197C84.1638 73.2739 84.2806 73.1573 84.2806 73.0135V70.9406C84.2806 70.7968 84.1638 70.6802 84.0197 70.6802Z" fill="#8F74B4"/>
<path d="M80.0158 70.6802H76.9083C76.7643 70.6802 76.6475 70.7968 76.6475 70.9406V73.0135C76.6475 73.1573 76.7643 73.2739 76.9083 73.2739H80.0158C80.1599 73.2739 80.2767 73.1573 80.2767 73.0135V70.9406C80.2767 70.7968 80.1599 70.6802 80.0158 70.6802Z" fill="#8F74B4"/>
<path d="M76.0139 70.6802H72.9064C72.7623 70.6802 72.6455 70.7968 72.6455 70.9406V73.0135C72.6455 73.1573 72.7623 73.2739 72.9064 73.2739H76.0139C76.1579 73.2739 76.2748 73.1573 76.2748 73.0135V70.9406C76.2748 70.7968 76.1579 70.6802 76.0139 70.6802Z" fill="#8F74B4"/>
<path d="M72.01 70.6802H68.9025C68.7584 70.6802 68.6416 70.7968 68.6416 70.9406V73.0135C68.6416 73.1573 68.7584 73.2739 68.9025 73.2739H72.01C72.154 73.2739 72.2708 73.1573 72.2708 73.0135V70.9406C72.2708 70.7968 72.154 70.6802 72.01 70.6802Z" fill="#8F74B4"/>
<path d="M68.009 70.6802H64.9015C64.7574 70.6802 64.6406 70.7968 64.6406 70.9406V73.0135C64.6406 73.1573 64.7574 73.2739 64.9015 73.2739H68.009C68.1531 73.2739 68.2699 73.1573 68.2699 73.0135V70.9406C68.2699 70.7968 68.1531 70.6802 68.009 70.6802Z" fill="#8F74B4"/>
<path d="M64.0051 70.6802H60.8976C60.7535 70.6802 60.6367 70.7968 60.6367 70.9406V73.0135C60.6367 73.1573 60.7535 73.2739 60.8976 73.2739H64.0051C64.1492 73.2739 64.266 73.1573 64.266 73.0135V70.9406C64.266 70.7968 64.1492 70.6802 64.0051 70.6802Z" fill="#8F74B4"/>
<path d="M60.0031 70.6802H56.8956C56.7516 70.6802 56.6348 70.7968 56.6348 70.9406V73.0135C56.6348 73.1573 56.7516 73.2739 56.8956 73.2739H60.0031C60.1472 73.2739 60.264 73.1573 60.264 73.0135V70.9406C60.264 70.7968 60.1472 70.6802 60.0031 70.6802Z" fill="#8F74B4"/>
<path d="M56.0002 70.6802H52.8927C52.7486 70.6802 52.6318 70.7968 52.6318 70.9406V73.0135C52.6318 73.1573 52.7486 73.2739 52.8927 73.2739H56.0002C56.1443 73.2739 56.2611 73.1573 56.2611 73.0135V70.9406C56.2611 70.7968 56.1443 70.6802 56.0002 70.6802Z" fill="#8F74B4"/>
<path d="M51.9963 70.6802H48.8888C48.7447 70.6802 48.6279 70.7968 48.6279 70.9406V73.0135C48.6279 73.1573 48.7447 73.2739 48.8888 73.2739H51.9963C52.1404 73.2739 52.2572 73.1573 52.2572 73.0135V70.9406C52.2572 70.7968 52.1404 70.6802 51.9963 70.6802Z" fill="#8F74B4"/>
<path d="M47.5052 70.6802H43.5197C43.3756 70.6802 43.2588 70.7968 43.2588 70.9406V73.0135C43.2588 73.1573 43.3756 73.2739 43.5197 73.2739H47.5052C47.6493 73.2739 47.7661 73.1573 47.7661 73.0135V70.9406C47.7661 70.7968 47.6493 70.6802 47.5052 70.6802Z" fill="#8F74B4"/>
<path d="M49.4177 74.1133H43.5197C43.3756 74.1133 43.2588 74.2299 43.2588 74.3737V76.4466C43.2588 76.5904 43.3756 76.707 43.5197 76.707H49.4177C49.5618 76.707 49.6786 76.5904 49.6786 76.4466V74.3737C49.6786 74.2299 49.5618 74.1133 49.4177 74.1133Z" fill="#8F74B4"/>
<path d="M53.9708 74.1133H50.796C50.652 74.1133 50.5352 74.2299 50.5352 74.3737V76.4466C50.5352 76.5904 50.652 76.707 50.796 76.707H53.9708C54.1149 76.707 54.2317 76.5904 54.2317 76.4466V74.3737C54.2317 74.2299 54.1149 74.1133 53.9708 74.1133Z" fill="#8F74B4"/>
<path d="M58.5225 74.1133H55.3478C55.2037 74.1133 55.0869 74.2299 55.0869 74.3737V76.4466C55.0869 76.5904 55.2037 76.707 55.3478 76.707H58.5225C58.6666 76.707 58.7834 76.5904 58.7834 76.4466V74.3737C58.7834 74.2299 58.6666 74.1133 58.5225 74.1133Z" fill="#8F74B4"/>
<path d="M83.5954 74.1133H80.421C80.277 74.1133 80.1602 74.2299 80.1602 74.3737V76.4466C80.1602 76.5904 80.277 76.707 80.421 76.707H83.5954C83.7395 76.707 83.8563 76.5904 83.8563 76.4466V74.3737C83.8563 74.2299 83.7395 74.1133 83.5954 74.1133Z" fill="#8F74B4"/>
<path d="M87.9378 74.1133H84.9132C84.7691 74.1133 84.6523 74.2299 84.6523 74.3737V76.4466C84.6523 76.5904 84.7691 76.707 84.9132 76.707H87.9378C88.0819 76.707 88.1987 76.5904 88.1987 76.4466V74.3737C88.1987 74.2299 88.0819 74.1133 87.9378 74.1133Z" fill="#8F74B4"/>
<path d="M92.31 75.7524H88.7637V76.7069H92.31V75.7524Z" fill="#8F74B4"/>
<path d="M92.0491 74.2959H89.0246C88.8805 74.2959 88.7637 74.4125 88.7637 74.5563V74.9899C88.7637 75.1337 88.8805 75.2503 89.0246 75.2503H92.0491C92.1932 75.2503 92.31 75.1337 92.31 74.9899V74.5563C92.31 74.4125 92.1932 74.2959 92.0491 74.2959Z" fill="#8F74B4"/>
<path d="M96.1576 74.1133H93.133C92.9889 74.1133 92.8721 74.2299 92.8721 74.3737V76.4466C92.8721 76.5904 92.9889 76.707 93.133 76.707H96.1576C96.3016 76.707 96.4184 76.5904 96.4184 76.4466V74.3737C96.4184 74.2299 96.3016 74.1133 96.1576 74.1133Z" fill="#8F74B4"/>
<path d="M78.9573 74.1133H59.8898C59.7457 74.1133 59.6289 74.2299 59.6289 74.3737V76.4466C59.6289 76.5904 59.7457 76.707 59.8898 76.707H78.9573C79.1013 76.707 79.2181 76.5904 79.2181 76.4466V74.3737C79.2181 74.2299 79.1013 74.1133 78.9573 74.1133Z" fill="#8F74B4"/>
<path d="M53.3777 64.2334H51.0138C50.8697 64.2334 50.7529 64.35 50.7529 64.4938V66.5667C50.7529 66.7106 50.8697 66.8271 51.0138 66.8271H53.3777C53.5218 66.8271 53.6386 66.7106 53.6386 66.5667V64.4938C53.6386 64.35 53.5218 64.2334 53.3777 64.2334Z" fill="#8F74B4"/>
<path d="M56.5652 64.2334H54.2013C54.0572 64.2334 53.9404 64.35 53.9404 64.4938V66.5667C53.9404 66.7106 54.0572 66.8271 54.2013 66.8271H56.5652C56.7093 66.8271 56.8261 66.7106 56.8261 66.5667V64.4938C56.8261 64.35 56.7093 64.2334 56.5652 64.2334Z" fill="#8F74B4"/>
<path d="M59.7527 64.2334H57.3888C57.2447 64.2334 57.1279 64.35 57.1279 64.4938V66.5667C57.1279 66.7106 57.2447 66.8271 57.3888 66.8271H59.7527C59.8968 66.8271 60.0136 66.7106 60.0136 66.5667V64.4938C60.0136 64.35 59.8968 64.2334 59.7527 64.2334Z" fill="#8F74B4"/>
<path d="M62.9402 64.2334H60.5763C60.4322 64.2334 60.3154 64.35 60.3154 64.4938V66.5667C60.3154 66.7106 60.4322 66.8271 60.5763 66.8271H62.9402C63.0843 66.8271 63.2011 66.7106 63.2011 66.5667V64.4938C63.2011 64.35 63.0843 64.2334 62.9402 64.2334Z" fill="#8F74B4"/>
<path d="M66.1297 64.2334H63.7658C63.6217 64.2334 63.5049 64.35 63.5049 64.4938V66.5667C63.5049 66.7106 63.6217 66.8271 63.7658 66.8271H66.1297C66.2737 66.8271 66.3905 66.7106 66.3905 66.5667V64.4938C66.3905 64.35 66.2737 64.2334 66.1297 64.2334Z" fill="#8F74B4"/>
<path d="M69.3162 64.2334H66.9523C66.8082 64.2334 66.6914 64.35 66.6914 64.4938V66.5667C66.6914 66.7106 66.8082 66.8271 66.9523 66.8271H69.3162C69.4603 66.8271 69.5771 66.7106 69.5771 66.5667V64.4938C69.5771 64.35 69.4603 64.2334 69.3162 64.2334Z" fill="#8F74B4"/>
<path d="M72.5037 64.2334H70.1398C69.9957 64.2334 69.8789 64.35 69.8789 64.4938V66.5667C69.8789 66.7106 69.9957 66.8271 70.1398 66.8271H72.5037C72.6478 66.8271 72.7646 66.7106 72.7646 66.5667V64.4938C72.7646 64.35 72.6478 64.2334 72.5037 64.2334Z" fill="#8F74B4"/>
<path d="M75.6912 64.2334H73.3273C73.1832 64.2334 73.0664 64.35 73.0664 64.4938V66.5667C73.0664 66.7106 73.1832 66.8271 73.3273 66.8271H75.6912C75.8353 66.8271 75.9521 66.7106 75.9521 66.5667V64.4938C75.9521 64.35 75.8353 64.2334 75.6912 64.2334Z" fill="#8F74B4"/>
<path d="M78.8787 64.2334H76.5148C76.3707 64.2334 76.2539 64.35 76.2539 64.4938V66.5667C76.2539 66.7106 76.3707 66.8271 76.5148 66.8271H78.8787C79.0228 66.8271 79.1396 66.7106 79.1396 66.5667V64.4938C79.1396 64.35 79.0228 64.2334 78.8787 64.2334Z" fill="#8F74B4"/>
<path d="M82.0652 64.2334H79.7013C79.5572 64.2334 79.4404 64.35 79.4404 64.4938V66.5667C79.4404 66.7106 79.5572 66.8271 79.7013 66.8271H82.0652C82.2093 66.8271 82.3261 66.7106 82.3261 66.5667V64.4938C82.3261 64.35 82.2093 64.2334 82.0652 64.2334Z" fill="#8F74B4"/>
<path d="M85.2527 64.2334H82.8888C82.7447 64.2334 82.6279 64.35 82.6279 64.4938V66.5667C82.6279 66.7106 82.7447 66.8271 82.8888 66.8271H85.2527C85.3968 66.8271 85.5136 66.7106 85.5136 66.5667V64.4938C85.5136 64.35 85.3968 64.2334 85.2527 64.2334Z" fill="#8F74B4"/>
<path d="M88.4422 64.2334H86.0783C85.9342 64.2334 85.8174 64.35 85.8174 64.4938V66.5667C85.8174 66.7106 85.9342 66.8271 86.0783 66.8271H88.4422C88.5862 66.8271 88.703 66.7106 88.703 66.5667V64.4938C88.703 64.35 88.5862 64.2334 88.4422 64.2334Z" fill="#8F74B4"/>
<path d="M91.6297 64.2334H89.2658C89.1217 64.2334 89.0049 64.35 89.0049 64.4938V66.5667C89.0049 66.7106 89.1217 66.8271 89.2658 66.8271H91.6297C91.7737 66.8271 91.8905 66.7106 91.8905 66.5667V64.4938C91.8905 64.35 91.7737 64.2334 91.6297 64.2334Z" fill="#8F74B4"/>
<path d="M96.0417 64.2334H92.4533C92.3092 64.2334 92.1924 64.35 92.1924 64.4938V69.7816C92.1924 69.9254 92.3092 70.042 92.4533 70.042H96.0417C96.1858 70.042 96.3026 69.9254 96.3026 69.7816V64.4938C96.3026 64.35 96.1858 64.2334 96.0417 64.2334Z" fill="#8F74B4"/>
<path d="M54.99 61.2192H52.6261C52.482 61.2192 52.3652 61.3358 52.3652 61.4796V63.5526C52.3652 63.6964 52.482 63.813 52.6261 63.813H54.99C55.1341 63.813 55.2509 63.6964 55.2509 63.5526V61.4796C55.2509 61.3358 55.1341 61.2192 54.99 61.2192Z" fill="#8F74B4"/>
<path d="M58.4451 61.2192H56.0812C55.9371 61.2192 55.8203 61.3358 55.8203 61.4796V63.5526C55.8203 63.6964 55.9371 63.813 56.0812 63.813H58.4451C58.5892 63.813 58.706 63.6964 58.706 63.5526V61.4796C58.706 61.3358 58.5892 61.2192 58.4451 61.2192Z" fill="#8F74B4"/>
<path d="M61.9011 61.2192H59.5373C59.3932 61.2192 59.2764 61.3358 59.2764 61.4796V63.5526C59.2764 63.6964 59.3932 63.813 59.5373 63.813H61.9011C62.0452 63.813 62.162 63.6964 62.162 63.5526V61.4796C62.162 61.3358 62.0452 61.2192 61.9011 61.2192Z" fill="#8F74B4"/>
<path d="M65.3562 61.2192H62.9923C62.8482 61.2192 62.7314 61.3358 62.7314 61.4796V63.5526C62.7314 63.6964 62.8482 63.813 62.9923 63.813H65.3562C65.5003 63.813 65.6171 63.6964 65.6171 63.5526V61.4796C65.6171 61.3358 65.5003 61.2192 65.3562 61.2192Z" fill="#8F74B4"/>
<path d="M68.8133 61.2192H66.4494C66.3053 61.2192 66.1885 61.3358 66.1885 61.4796V63.5526C66.1885 63.6964 66.3053 63.813 66.4494 63.813H68.8133C68.9573 63.813 69.0741 63.6964 69.0741 63.5526V61.4796C69.0741 61.3358 68.9573 61.2192 68.8133 61.2192Z" fill="#8F74B4"/>
<path d="M72.2683 61.2192H69.9044C69.7604 61.2192 69.6436 61.3358 69.6436 61.4796V63.5526C69.6436 63.6964 69.7604 63.813 69.9044 63.813H72.2683C72.4124 63.813 72.5292 63.6964 72.5292 63.5526V61.4796C72.5292 61.3358 72.4124 61.2192 72.2683 61.2192Z" fill="#8F74B4"/>
<path d="M75.7244 61.2192H73.3605C73.2164 61.2192 73.0996 61.3358 73.0996 61.4796V63.5526C73.0996 63.6964 73.2164 63.813 73.3605 63.813H75.7244C75.8685 63.813 75.9853 63.6964 75.9853 63.5526V61.4796C75.9853 61.3358 75.8685 61.2192 75.7244 61.2192Z" fill="#8F74B4"/>
<path d="M79.1814 61.2192H76.8175C76.6734 61.2192 76.5566 61.3358 76.5566 61.4796V63.5526C76.5566 63.6964 76.6734 63.813 76.8175 63.813H79.1814C79.3255 63.813 79.4423 63.6964 79.4423 63.5526V61.4796C79.4423 61.3358 79.3255 61.2192 79.1814 61.2192Z" fill="#8F74B4"/>
<path d="M82.6365 61.2192H80.2726C80.1285 61.2192 80.0117 61.3358 80.0117 61.4796V63.5526C80.0117 63.6964 80.1285 63.813 80.2726 63.813H82.6365C82.7806 63.813 82.8974 63.6964 82.8974 63.5526V61.4796C82.8974 61.3358 82.7806 61.2192 82.6365 61.2192Z" fill="#8F74B4"/>
<path d="M86.0916 61.2192H83.7277C83.5836 61.2192 83.4668 61.3358 83.4668 61.4796V63.5526C83.4668 63.6964 83.5836 63.813 83.7277 63.813H86.0916C86.2357 63.813 86.3525 63.6964 86.3525 63.5526V61.4796C86.3525 61.3358 86.2357 61.2192 86.0916 61.2192Z" fill="#8F74B4"/>
<path d="M89.5496 61.2192H87.1857C87.0416 61.2192 86.9248 61.3358 86.9248 61.4796V63.5526C86.9248 63.6964 87.0416 63.813 87.1857 63.813H89.5496C89.6937 63.813 89.8105 63.6964 89.8105 63.5526V61.4796C89.8105 61.3358 89.6937 61.2192 89.5496 61.2192Z" fill="#8F74B4"/>
<path d="M96.0408 61.2192H90.7413C90.5973 61.2192 90.4805 61.3358 90.4805 61.4796V63.5526C90.4805 63.6964 90.5973 63.813 90.7413 63.813H96.0408C96.1849 63.813 96.3017 63.6964 96.3017 63.5526V61.4796C96.3017 61.3358 96.1849 61.2192 96.0408 61.2192Z" fill="#8F74B4"/>
<path d="M53.0642 58.5273H55.3045C55.5684 58.5273 55.7828 58.7413 55.7828 59.0047V59.9032C55.7828 60.1667 55.5684 60.3806 55.3045 60.3806H53.0642C52.8003 60.3806 52.5859 60.1667 52.5859 59.9032V59.0047C52.5859 58.7413 52.8003 58.5273 53.0642 58.5273Z" fill="#8F74B4"/>
<path d="M56.742 58.5273H58.9822C59.2461 58.5273 59.4605 58.7413 59.4605 59.0047V59.9032C59.4605 60.1667 59.2461 60.3806 58.9822 60.3806H56.742C56.478 60.3806 56.2637 60.1667 56.2637 59.9032V59.0047C56.2637 58.7413 56.478 58.5273 56.742 58.5273Z" fill="#8F74B4"/>
<path d="M62.6606 58.5273H60.4207C60.1565 58.5273 59.9424 58.7411 59.9424 59.0047V59.9032C59.9424 60.1669 60.1565 60.3806 60.4207 60.3806H62.6606C62.9247 60.3806 63.1389 60.1669 63.1389 59.9032V59.0047C63.1389 58.7411 62.9247 58.5273 62.6606 58.5273Z" fill="#8F74B4"/>
<path d="M66.3383 58.5273H64.0984C63.8343 58.5273 63.6201 58.7411 63.6201 59.0047V59.9032C63.6201 60.1669 63.8343 60.3806 64.0984 60.3806H66.3383C66.6025 60.3806 66.8166 60.1669 66.8166 59.9032V59.0047C66.8166 58.7411 66.6025 58.5273 66.3383 58.5273Z" fill="#8F74B4"/>
<path d="M70.016 58.5273H67.7761C67.512 58.5273 67.2979 58.7411 67.2979 59.0047V59.9032C67.2979 60.1669 67.512 60.3806 67.7761 60.3806H70.016C70.2802 60.3806 70.4943 60.1669 70.4943 59.9032V59.0047C70.4943 58.7411 70.2802 58.5273 70.016 58.5273Z" fill="#8F74B4"/>
<path d="M71.4539 58.5273H73.6941C73.9581 58.5273 74.1724 58.7413 74.1724 59.0047V59.9032C74.1724 60.1667 73.9581 60.3806 73.6941 60.3806H71.4539C71.1899 60.3806 70.9756 60.1667 70.9756 59.9032V59.0047C70.9756 58.7413 71.1899 58.5273 71.4539 58.5273Z" fill="#8F74B4"/>
<path d="M77.3715 58.5273H75.1316C74.8675 58.5273 74.6533 58.7411 74.6533 59.0047V59.9032C74.6533 60.1669 74.8675 60.3806 75.1316 60.3806H77.3715C77.6357 60.3806 77.8498 60.1669 77.8498 59.9032V59.0047C77.8498 58.7411 77.6357 58.5273 77.3715 58.5273Z" fill="#8F74B4"/>
<path d="M78.8084 58.5273H81.0486C81.3126 58.5273 81.5269 58.7413 81.5269 59.0047V59.9032C81.5269 60.1667 81.3126 60.3806 81.0486 60.3806H78.8084C78.5444 60.3806 78.3301 60.1667 78.3301 59.9032V59.0047C78.3301 58.7413 78.5444 58.5273 78.8084 58.5273Z" fill="#8F74B4"/>
<path d="M84.726 58.5273H82.4861C82.2219 58.5273 82.0078 58.7411 82.0078 59.0047V59.9032C82.0078 60.1669 82.2219 60.3806 82.4861 60.3806H84.726C84.9902 60.3806 85.2043 60.1669 85.2043 59.9032V59.0047C85.2043 58.7411 84.9902 58.5273 84.726 58.5273Z" fill="#8F74B4"/>
<path d="M88.4037 58.5273H86.1638C85.8997 58.5273 85.6855 58.7411 85.6855 59.0047V59.9032C85.6855 60.1669 85.8997 60.3806 86.1638 60.3806H88.4037C88.6679 60.3806 88.882 60.1669 88.882 59.9032V59.0047C88.882 58.7411 88.6679 58.5273 88.4037 58.5273Z" fill="#8F74B4"/>
<path d="M89.8416 58.5273H92.0818C92.3457 58.5273 92.5601 58.7413 92.5601 59.0047V59.9032C92.5601 60.1667 92.3457 60.3806 92.0818 60.3806H89.8416C89.5776 60.3806 89.3633 60.1667 89.3633 59.9032V59.0047C89.3633 58.7413 89.5776 58.5273 89.8416 58.5273Z" fill="#8F74B4"/>
<path d="M95.8237 58.5273H93.5838C93.3196 58.5273 93.1055 58.7411 93.1055 59.0047V59.9032C93.1055 60.1669 93.3196 60.3806 93.5838 60.3806H95.8237C96.0878 60.3806 96.302 60.1669 96.302 59.9032V59.0047C96.302 58.7411 96.0878 58.5273 95.8237 58.5273Z" fill="#8F74B4"/>
<path d="M92.3111 51.8574H47.6752C47.3816 51.8574 47.1436 52.095 47.1436 52.388V54.6732C47.1436 54.9663 47.3816 55.2039 47.6752 55.2039H92.3111C92.6047 55.2039 92.8427 54.9663 92.8427 54.6732V52.388C92.8427 52.095 92.6047 51.8574 92.3111 51.8574Z" fill="#A9E0DD"/>
<path d="M71.1243 33.5161L62.7367 50.8152H55.0723L60.0722 33.5161H71.1243Z" fill="#FFFEFC"/>
<path d="M79.382 33.5161L68.4634 50.8152H65.2051L74.6838 33.5161H79.382Z" fill="#FFFEFC"/>
<path d="M63.8756 78.6603C63.3538 79.9908 62.2637 82.1207 59.8523 84.2204C58.7714 85.8109 57.6905 87.4014 56.6096 88.9919L49.3443 117.604H27.042C32.3785 107.006 37.7154 96.4076 43.0519 85.8092C43.9592 81.5633 44.3356 78.1165 44.5109 75.7035C44.7677 72.1665 44.7069 69.2815 46.7657 67.5839C47.6265 66.8742 48.7696 66.4447 49.0648 66.7454C49.4731 67.1617 47.9322 68.6458 47.7383 70.9523C47.6248 72.3031 48.0124 73.4661 48.4013 74.2917C48.2264 72.595 48.1968 69.4988 50.1698 67.4076C51.0129 66.5142 52.2161 65.8096 52.4688 66.0395C52.7589 66.3033 51.5292 67.5513 51.2751 69.4815C51.0927 70.8669 51.4806 72.0922 51.894 72.9822C51.7908 71.4406 51.9164 69.0774 53.3975 67.0692C54.3011 65.8435 55.7519 64.6921 56.168 64.9803C56.5423 65.24 55.8657 66.5182 55.4312 68.3047C54.8809 70.5662 54.9495 72.69 55.2542 74.512C55.4547 73.0019 55.9414 70.8571 57.2438 68.6431C58.2428 66.9441 59.8479 64.9911 60.3387 65.2451C60.7151 65.44 60.2518 66.8366 59.4545 69.9671C58.0563 75.4563 57.3736 78.2118 58.1722 78.7485C59.4525 79.6087 63.3205 75.3007 64.2733 76.1008C64.7292 76.4833 64.2193 77.7839 63.8756 78.6603Z" fill="#F8E0C2"/>
<path d="M112.2 117.604H89.898L85.089 98.6667L82.6324 88.9919C81.5515 87.4014 80.4706 85.8109 79.3897 84.2204C76.9786 82.1207 75.8885 79.9908 75.3668 78.6603C75.023 77.7839 74.5128 76.4833 74.9687 76.1008C75.9215 75.3007 79.7899 79.6087 81.0698 78.7485C81.8688 78.2118 81.186 75.4563 79.7878 69.9671C78.9906 66.8366 78.5273 65.44 78.9036 65.2451C79.3945 64.9911 80.9992 66.9441 81.9985 68.6431C83.3006 70.8571 83.7873 73.0019 83.9878 74.512C84.2925 72.69 84.3614 70.5662 83.8111 68.3047C83.3763 66.5182 82.7 65.24 83.0743 64.9803C83.4901 64.6921 84.9413 65.8435 85.8448 67.0692C87.3256 69.0774 87.4516 71.4406 87.348 72.9822C87.7617 72.0922 88.1493 70.8669 87.9669 69.4815C87.7128 67.5513 86.4831 66.3033 86.7732 66.0395C87.0259 65.8096 88.2295 66.5142 89.0722 67.4076C91.0452 69.4988 91.0156 72.595 90.8407 74.2917C91.2296 73.4661 91.6175 72.3031 91.5037 70.9523C91.3098 68.6458 89.7689 67.1617 90.1776 66.7454C90.4728 66.4447 91.6158 66.8742 92.4766 67.5839C94.5355 69.2815 94.4743 72.1665 94.7315 75.7035C94.9068 78.1165 95.2831 81.5633 96.1904 85.8092C97.7754 88.957 99.3604 92.1044 100.945 95.2521C104.697 102.703 108.449 110.153 112.2 117.604Z" fill="#F8E0C2"/>
<path d="M51.8076 117.604L55.251 98.9453L54.1443 98.7069L38.2795 95.2906L36.545 94.917L24.8838 117.604H51.8076Z" fill="#FFFEFC"/>
<path d="M36.6315 93.1841L32.5264 98.8839L54.4465 105.597L56.2612 97.8376L36.6315 93.1841Z" fill="#5B77AF"/>
<path d="M114.164 117.604H87.24L83.7969 98.9453L85.0894 98.6669L100.946 95.2523L102.503 94.917L114.164 117.604Z" fill="#FFFEFC"/>
<path d="M102.414 93.1841L106.52 98.8839L84.5998 105.597L82.7852 97.8376L102.414 93.1841Z" fill="#5B77AF"/>
</svg>
