<svg width="123" height="89" viewBox="0 0 123 89" fill="none" xmlns="http://www.w3.org/2000/svg">
<path d="M54.6651 51.1442L51.3833 62.0364C51.1233 62.9078 50.9547 63.8073 50.8844 64.7138L50.1957 73.8562L45.1221 78.9791L64.1307 79.6678L64.9881 66.6533C65.0513 65.7047 65.22 64.763 65.494 63.8495L68.7547 53.0135L54.6721 51.1372L54.6651 51.1442Z" fill="#FF6666"/>
<path d="M74.2219 75.297L71.4391 67.1876C70.9894 65.8735 70.7575 64.4961 70.7575 63.1047V51.9033H84.9666L85.2195 63.161C85.2547 64.6367 85.5428 66.0913 86.0839 67.4616L91.2559 80.6728L69.5137 79.8717L74.2149 75.29L74.2219 75.297Z" fill="#FF6666"/>
<path d="M68.7553 53.0278L67.3779 57.5885C64.6233 58.9729 61.5032 59.7037 58.2355 59.7037C54.9678 59.7037 54.23 59.4156 52.3467 58.8534L54.6657 51.1445L68.7482 53.0208L68.7553 53.0278Z" fill="#231F20"/>
<path d="M85.1355 59.345C83.8777 59.5839 82.5846 59.7034 81.2846 59.7034C77.4548 59.7034 73.8287 58.6985 70.7578 56.8222V51.9102H84.9669L85.1355 59.352V59.345Z" fill="#231F20"/>
<path d="M105.374 30.0836C106.878 27.2305 107.728 23.984 107.728 20.5406C107.728 9.19162 98.5293 0 87.1874 0C75.8454 0 73.3929 3.85093 69.7669 9.64839C66.1338 3.85093 59.6898 0 52.3464 0C41.0044 0 31.8058 9.19162 31.8058 20.5406C31.8058 31.8896 32.656 27.2305 34.1599 30.0836C28.8965 32.002 25.1299 37.0476 25.1299 42.9715C25.1299 48.8955 31.2717 56.6887 38.84 56.6887C46.4083 56.6887 45.4737 55.4027 47.8841 53.2805C50.6458 55.4027 54.2718 56.6887 58.2422 56.6887C62.2126 56.6887 66.8998 54.9951 69.7669 52.2826C72.634 54.9881 76.7379 56.6887 81.2915 56.6887C85.8452 56.6887 88.888 55.4027 91.6497 53.2805C94.06 55.4027 97.2293 56.6887 100.694 56.6887C108.269 56.6887 114.404 50.5469 114.404 42.9715C114.404 35.3962 110.644 31.995 105.381 30.0836H105.374Z" fill="#FF6666"/>
<path d="M48.2635 53.6879C48.0668 53.6879 47.863 53.6106 47.7154 53.456C47.4273 53.1538 47.4413 52.676 47.7435 52.3878C48.3619 51.7976 48.9311 51.144 49.423 50.4483C49.6619 50.111 50.1328 50.0267 50.4771 50.2656C50.8214 50.5045 50.8987 50.9754 50.6598 51.3197C50.1117 52.0997 49.4792 52.8235 48.7835 53.4841C48.636 53.6246 48.4533 53.6879 48.2635 53.6879Z" fill="#F23D3D"/>
<path d="M44.3632 32.1497C41.988 31.3205 39.3809 32.1145 37.8419 34.0049C36.7597 32.8384 35.8181 31.5524 35.0451 30.168C34.8413 29.8026 34.3845 29.6761 34.0191 29.8799C33.6537 30.0837 33.5272 30.5405 33.731 30.9059C34.6305 32.5151 35.7408 34.0049 37.0267 35.333C36.1062 37.399 36.4435 39.8094 37.9192 41.5451C38.0668 41.7208 38.2846 41.8121 38.4954 41.8121C38.7063 41.8121 38.8398 41.7559 38.9803 41.6294C39.2965 41.3624 39.3387 40.8845 39.0646 40.5683C37.9192 39.2191 37.6943 37.3217 38.4884 35.7406C39.4792 33.78 41.7842 32.8454 43.8572 33.5692C44.2507 33.7097 44.6794 33.4989 44.8199 33.1054C44.9535 32.7119 44.7497 32.2832 44.3561 32.1427L44.3632 32.1497Z" fill="#F23D3D"/>
<path d="M91.2561 53.6879C91.0664 53.6879 90.8837 53.6176 90.7361 53.4841C90.0404 52.8305 89.415 52.0997 88.8598 51.3197C88.6209 50.9824 88.6982 50.5116 89.0426 50.2656C89.3799 50.0267 89.8507 50.104 90.0966 50.4483C90.5885 51.144 91.1578 51.7975 91.7761 52.3878C92.0783 52.6759 92.0924 53.1538 91.8043 53.456C91.6567 53.6106 91.4599 53.6879 91.2561 53.6879Z" fill="#F23D3D"/>
<path d="M105.472 29.9292C105.106 29.7254 104.65 29.8519 104.446 30.2173C103.68 31.5876 102.745 32.8525 101.677 34.005C100.138 32.1147 97.5381 31.3206 95.1559 32.1498C94.7623 32.2833 94.5515 32.719 94.6921 33.1125C94.8326 33.5061 95.2613 33.7169 95.6548 33.5763C97.7278 32.8525 100.033 33.7872 101.024 35.7478C101.818 37.3289 101.593 39.2262 100.447 40.5755C100.18 40.8917 100.215 41.3695 100.532 41.6366C100.672 41.756 100.848 41.8193 101.017 41.8193C101.185 41.8193 101.445 41.7279 101.593 41.5523C103.069 39.8165 103.406 37.4062 102.485 35.3402C103.757 34.0261 104.853 32.5574 105.753 30.9622C105.957 30.5968 105.83 30.14 105.465 29.9362L105.472 29.9292Z" fill="#F23D3D"/>
<path d="M57.9757 36.366C61.0689 36.366 63.5764 33.8584 63.5764 30.7653C63.5764 27.6721 61.0689 25.1646 57.9757 25.1646C54.8825 25.1646 52.375 27.6721 52.375 30.7653C52.375 33.8584 54.8825 36.366 57.9757 36.366Z" fill="#231F20"/>
<path d="M55.6562 30.2382C56.6459 30.2382 57.4481 29.4359 57.4481 28.4462C57.4481 27.4566 56.6459 26.6543 55.6562 26.6543C54.6665 26.6543 53.8643 27.4566 53.8643 28.4462C53.8643 29.4359 54.6665 30.2382 55.6562 30.2382Z" fill="white"/>
<path d="M81.5441 36.366C84.6373 36.366 87.1448 33.8584 87.1448 30.7653C87.1448 27.6721 84.6373 25.1646 81.5441 25.1646C78.4509 25.1646 75.9434 27.6721 75.9434 30.7653C75.9434 33.8584 78.4509 36.366 81.5441 36.366Z" fill="#231F20"/>
<path d="M79.2334 30.2382C80.223 30.2382 81.0253 29.4359 81.0253 28.4462C81.0253 27.4566 80.223 26.6543 79.2334 26.6543C78.2437 26.6543 77.4414 27.4566 77.4414 28.4462C77.4414 29.4359 78.2437 30.2382 79.2334 30.2382Z" fill="white"/>
<path d="M69.2955 41.0886C70.9915 41.0886 72.3664 39.204 72.3664 36.8792C72.3664 34.5545 70.9915 32.6699 69.2955 32.6699C67.5995 32.6699 66.2246 34.5545 66.2246 36.8792C66.2246 39.204 67.5995 41.0886 69.2955 41.0886Z" fill="#231F20"/>
<path d="M72.0578 38.7131C71.5588 40.1185 70.5118 41.0883 69.2961 41.0883C68.0804 41.0883 67.0263 40.1185 66.5273 38.7131C67.0263 37.3077 68.0733 36.3379 69.2961 36.3379C70.5188 36.3379 71.5659 37.3077 72.0578 38.7131Z" fill="#F23D3D"/>
<path d="M19.5359 33.625L12.0589 33.0699L7.89881 32.7607L6.27551 32.6412C4.39924 32.5007 2.86028 31.1163 2.51594 29.2752L0.0423576 15.9305C-0.210623 14.5672 0.695891 13.2531 2.05917 13.0001L2.22783 12.965C3.59111 12.712 4.90521 13.6115 5.15819 14.9818L7.16095 25.7826C7.37177 26.907 8.30639 27.7503 9.4448 27.8346L19.9013 28.6146C21.0397 28.6989 21.9744 29.5422 22.1852 30.6666C22.4873 32.2899 21.1662 33.7515 19.5218 33.6321L19.5359 33.625Z" fill="#5983FF"/>
<path d="M119.632 81.7545L17.8848 77.0392L12.5512 33.0066C12.516 32.7325 12.2701 32.5357 11.989 32.5709C11.7149 32.606 11.5182 32.852 11.5533 33.1331L16.8659 76.9971L13.7388 76.8495L8.39105 32.7044C8.35592 32.4303 8.10996 32.2336 7.82887 32.2687C7.55481 32.3038 7.35805 32.5498 7.39318 32.8309L12.7198 76.8073L10.6679 76.716C9.72622 76.6738 8.82674 77.0041 8.1451 77.6576C7.46346 78.3111 7.08398 79.1895 7.08398 80.1382V85.1838C7.08398 87.0741 8.62295 88.6131 10.5062 88.6131H119.464C120.377 88.6131 121.234 88.2547 121.888 87.6082C122.541 86.9617 122.893 86.1043 122.893 85.1838C122.893 83.3497 121.459 81.8458 119.625 81.7615L119.632 81.7545ZM121.185 86.8914C120.728 87.3482 120.117 87.6011 119.471 87.6011H10.5133C9.1781 87.6011 8.09591 86.5119 8.09591 85.1767V80.1312C8.09591 79.4636 8.36294 78.8382 8.84782 78.3814C9.30459 77.9457 9.88785 77.7138 10.5133 77.7138C11.1387 77.7138 10.5906 77.7138 10.6327 77.7138L13.2679 77.8333C13.2679 77.8333 13.268 77.8333 13.275 77.8333L17.3929 78.023H17.421L119.59 82.7594C120.883 82.8226 121.895 83.8837 121.895 85.1767C121.895 86.4698 121.642 86.4346 121.185 86.8914Z" fill="#231F20"/>
</svg>
