<svg width="135" height="120" viewBox="0 0 135 120" fill="none" xmlns="http://www.w3.org/2000/svg">
<g clip-path="url(#clip0_1446_3058)">
<path d="M134.572 81.5258C134.572 109.602 78.9056 101.674 50.8319 101.674C22.7582 101.674 0 78.9137 0 50.8371C0 22.7606 22.7582 0 50.8319 0C78.9056 0 134.572 53.4493 134.572 81.5258Z" fill="#F0F7F5"/>
<path d="M67.7842 33.2629C67.7842 33.2629 80.9895 27.3083 84.2845 29.0322C84.2845 29.0322 79.1507 20.1915 73.3407 25.4611C69.47 28.9719 67.7842 33.2629 67.7842 33.2629Z" fill="#3BAD39"/>
<path d="M43.6452 17.1638C43.532 17.1527 43.418 17.1423 43.3027 17.1328C43.3027 17.1328 44.3691 32.643 58.6631 34.1214C58.6631 34.1214 59.7617 18.7292 43.6452 17.1638Z" fill="#3BAD39"/>
<path d="M50.4072 24.3496C55.4683 28.5509 59.5964 33.9381 62.3951 39.9035C64.3714 44.121 65.7012 48.6349 66.3806 53.2454C66.4967 54.0329 66.598 54.8808 66.6778 55.6743C67.1658 59.8902 66.7966 64.7315 66.5086 68.9733C66.2575 67.8771 65.2697 63.8451 65.0858 62.8443C63.0996 52.8052 61.7261 34.2123 72.7167 28.9633C74.2464 28.2465 75.9223 27.8615 77.6029 27.7495C77.3828 27.7884 77.1623 27.8218 76.9438 27.8687C75.8555 28.0812 74.7859 28.4062 73.7763 28.8628C66.9933 31.8748 65.2833 40.0227 65.0667 46.7532C64.9046 52.27 65.5344 57.8027 66.6564 63.2011L66.7275 63.5221L66.8002 63.836L65.354 63.9619C65.642 59.4373 65.3599 54.8721 64.4958 50.4209C62.537 40.3608 57.6837 31.5447 50.4072 24.3504V24.3496Z" fill="#2C822B"/>
<path d="M48.9224 81.8307C45.8666 79.9923 44.4279 76.4228 45.3465 73.2486C46.0966 70.6565 48.3204 68.6691 51.0838 68.0732C50.6638 65.638 51.8951 63.2338 54.0311 62.2143C56.3848 61.0907 59.3285 61.8917 60.8634 64.1611C62.3426 59.2701 67.2221 56.4249 71.7058 57.4127C75.4553 58.2387 78.3804 61.6243 78.7809 65.7782C80.0026 64.7508 81.727 64.7126 82.8423 65.5859C84.1753 66.6297 84.4192 68.803 83.1486 70.2826C83.6322 70.3836 85.0037 70.7364 85.703 71.9204C86.4897 73.253 85.9402 74.8192 85.703 75.4963C84.2031 79.7738 75.5737 82.4215 70.6843 83.6695L50.9658 86.9391L48.9224 81.8307Z" fill="#8C4000"/>
<path d="M65.811 92.8409C65.4054 92.9664 65.0271 93.1464 64.6751 93.3757C59.0355 97.039 54.8708 110.104 55.4652 116.077L31.0293 119.196C32.849 114.589 37.63 102.595 41.7049 93.3757C43.883 88.4481 45.8592 84.3132 47.0738 82.5221C51.1603 76.494 64.238 69.4444 70.0615 70.3642C75.885 71.2835 63.9631 75.0636 63.5896 77.5159C63.2161 79.9678 78.2702 78.9669 83.0034 74.921C87.7363 70.8747 89.1666 70.5171 90.3419 71.7945C91.5168 73.0715 87.43 77.6689 87.43 77.6689C87.43 77.6689 90.4949 75.2679 91.4147 76.9028C92.3341 78.5374 74.229 90.2357 65.811 92.8409Z" fill="#FBC77B"/>
<path d="M58.3798 66.2428L58.1855 66.1045C58.2054 66.0767 58.6806 65.4159 59.6171 64.8776C60.4626 64.3913 61.8532 63.9236 63.7134 64.4171C63.7897 64.1354 64.0202 63.417 64.5427 62.7209C65.151 61.9096 66.2825 60.9854 68.2183 61.1893L68.1932 61.4265C66.7315 61.2727 65.5689 61.7538 64.7381 62.8576C64.1124 63.6888 63.9181 64.5804 63.9165 64.5895L63.8899 64.7143L63.7671 64.6793C62.2938 64.2605 60.9406 64.3952 59.745 65.0794C58.8507 65.5912 58.3846 66.2364 58.3798 66.2432V66.2428Z" fill="#603813"/>
<path d="M76.1384 64.3982C75.9219 63.7482 75.585 63.3381 75.138 63.1796C74.3918 62.915 73.5654 63.4339 73.5574 63.4391L73.4287 63.2384C73.4665 63.2142 74.3592 62.652 75.2162 62.9543C75.7371 63.1383 76.1233 63.5988 76.3649 64.3227L76.1388 64.3982H76.1384Z" fill="#603813"/>
<path d="M79.8635 67.9564C79.7658 67.3989 79.5302 67.0044 79.1631 66.7835C78.5122 66.3921 77.6481 66.6671 77.6397 66.6699L77.5654 66.4434C77.6048 66.4303 78.5389 66.1315 79.2846 66.5785C79.7145 66.8363 79.9887 67.2861 80.0987 67.9154L79.8639 67.9564H79.8635Z" fill="#603813"/>
<path d="M50.5186 72.6226L50.293 72.5463C50.3025 72.5177 50.5349 71.8411 51.0411 71.2431C51.7257 70.4342 52.5776 70.17 53.5049 70.4791L53.4294 70.7052C52.5923 70.4262 51.8513 70.6575 51.2267 71.3921C50.7483 71.9551 50.5206 72.6159 50.5186 72.6222V72.6226Z" fill="#603813"/>
<path d="M50.928 68.9971L50.6943 68.9491C50.6963 68.9383 50.9141 67.9319 51.8152 67.8477C51.8124 67.5688 51.8255 66.8409 52.0051 66.0729C52.3086 64.774 52.9483 64.0001 53.855 63.834L53.8979 64.0684C51.9284 64.4288 52.0548 67.9208 52.0563 67.9562L52.0615 68.0805H51.9371C51.1294 68.0805 50.9359 68.9598 50.9284 68.9971H50.928Z" fill="#603813"/>
<path d="M48.21 77.5296L47.9736 77.4982C47.9812 77.4426 48.1667 76.1271 49.1402 75.4894C49.692 75.1278 50.3818 75.0615 51.1895 75.2923L51.124 75.5216C50.3858 75.3106 49.762 75.367 49.2705 75.6888C48.3872 76.2673 48.2112 77.5173 48.2096 77.53L48.21 77.5296Z" fill="#603813"/>
<path d="M75.2626 73.2319L75.0957 73.0619C75.1378 73.0205 76.1414 72.0499 77.2651 72.1492C77.8305 72.1993 78.3215 72.5116 78.7244 73.0778L78.5301 73.216C78.1698 72.7098 77.7375 72.4309 77.2452 72.3868C76.2316 72.2962 75.2721 73.2228 75.2626 73.2319Z" fill="#603813"/>
<path d="M56.8903 69.6729C56.4302 69.6729 56.4294 70.388 56.8903 70.388C57.3512 70.388 57.3512 69.6729 56.8903 69.6729Z" fill="#603813"/>
<path d="M55.6647 65.8931C55.2046 65.8931 55.2038 66.6082 55.6647 66.6082C56.1256 66.6082 56.1256 65.8931 55.6647 65.8931Z" fill="#603813"/>
<path d="M64.8083 67.374C64.3482 67.374 64.3474 68.0892 64.8083 68.0892C65.2692 68.0892 65.2692 67.374 64.8083 67.374Z" fill="#603813"/>
<path d="M74.1833 67.4253C73.7232 67.4253 73.7224 68.1405 74.1833 68.1405C74.6442 68.1405 74.6442 67.4253 74.1833 67.4253Z" fill="#603813"/>
<path d="M71.7301 74.9346C71.27 74.9346 71.2692 75.6497 71.7301 75.6497C72.191 75.6497 72.191 74.9346 71.7301 74.9346Z" fill="#603813"/>
<path d="M82.9948 83.5021C82.8843 83.5021 82.7771 83.4445 82.7187 83.342C82.6316 83.1894 82.6845 82.9955 82.8371 82.9081C83.8816 82.3113 86.2099 78.9361 87.0188 77.6857C87.1142 77.5383 87.3109 77.4962 87.4583 77.5916C87.6057 77.6869 87.6478 77.8836 87.5524 78.031C87.4301 78.2197 84.5443 82.6641 83.1521 83.46C83.1025 83.4886 83.048 83.5021 82.9948 83.5021Z" fill="#B96E51"/>
<path d="M67.3242 70.4724C67.3242 70.4724 67.3965 71.4951 67.652 71.8018C67.9075 72.1085 70.0359 71.2908 70.2914 70.8311C70.5469 70.3714 68.0013 70.1136 67.3242 70.4724Z" fill="#B96E51"/>
</g>
<defs>
<clipPath id="clip0_1446_3058">
<rect width="134.572" height="119.196" fill="white"/>
</clipPath>
</defs>
</svg>
