<svg fill="none" height="125" viewBox="0 0 244 125" width="244" xmlns="http://www.w3.org/2000/svg" xmlns:xlink="http://www.w3.org/1999/xlink"><linearGradient id="a" gradientUnits="userSpaceOnUse" x1="96.4079" x2="112.159" y1="55.7271" y2="80.9875"><stop offset="0" stop-color="#fff"/><stop offset="1" stop-color="#fff" stop-opacity="0"/></linearGradient><path d="m235 108.139h-226v16.021h226z" fill="#eba7a6"/><path d="m192.553 70.4322c-3.397-10.3991-9.988-17.2726-9.988-17.2726s-1.085 9.9864 2.312 20.3856 9.988 17.2726 9.988 17.2726 1.084-9.9864-2.312-20.3856z" fill="#a3d3ca"/><path d="m204.854 73.5452c3.396-10.3992 2.312-20.3856 2.312-20.3856s-6.592 6.8735-9.988 17.2726c-3.397 10.3992-2.313 20.3856-2.313 20.3856s6.592-6.8734 9.989-17.2726z" fill="#a3d3ca"/><path d="m198.95 64.4533c0-11.0667-4.084-20.0373-4.084-20.0373s-4.083 8.9706-4.083 20.0373 4.083 20.0374 4.083 20.0374 4.084-8.9707 4.084-20.0374z" fill="#81c4b4"/><path d="m207.404 73.1014h-25.031c-.518 0-.938.4677-.938 1.0447v6.0501c0 .577.42 1.0447.938 1.0447h25.031c.518 0 .938-.4677.938-1.0447v-6.0501c0-.577-.42-1.0447-.938-1.0447z" fill="#eba7a6"/><path d="m202.47 103.124h-15.162c-.624 0-1.146-.526-1.209-1.218l-2.025-22.2839c-.073-.7977.489-1.4909 1.209-1.4909h19.213c.72 0 1.282.6932 1.209 1.4909l-2.025 22.2839c-.063.692-.585 1.218-1.209 1.218z" fill="#eba7a6"/><path d="m48.0924 92.6338s1.6208 2.5009 1.6208 5.6069c0 3.1063-1.6208 5.6073-1.6208 5.6073h31.2283l6.4053-1.982.1173-6.8112-6.5226-2.3999-31.2283-.0219z" fill="#deeffa"/><path d="m50.9833 72.4702s1.5232 2.1192 1.5232 4.7516-1.5232 4.7525-1.5232 4.7525h24.6892l3.5777-2.0157v-5.8745l-3.0645-1.5955-25.2016-.0184z" fill="#deeffa"/><path d="m48.0924 104.261c-.2046 0-.3707-.185-.3707-.413v-2.379c0-.228.1661-.413.3707-.413h34.8077c.2865-.076 2.197-.66 2.197-2.8162 0-2.8201-2.0971-3.0499-2.186-3.0578l-34.8163.2149c-.085.0017-.1936-.0421-.2637-.1202-.0701-.0772-.1094-.1825-.1094-.293v-2.3517c0-.228.1661-.4131.3707-.4131h34.8478c.0763.0052 4.8419.4728 4.8419 6.02 0 5.5471-4.7655 6.0151-4.8136 6.0191h-34.8761z" fill="#93aad4"/><path d="m90.7209 82.8024s-1.5224 2.0079-1.5224 4.5026c0 2.4946 1.5224 4.5025 1.5224 4.5025h-29.3359l-5.689-1.5912-.1102-5.4701 5.7992-1.9271 29.3359-.0176z" fill="#deeffa"/><path d="m90.6966 92.2206h-2.0073l-30.623-.0421c-.0653.0053-2.1884.1351-3.5998-1.342-.795-.8325-1.1981-1.9956-1.1981-3.4579 0-1.4622.4023-2.6359 1.195-3.4981 1.409-1.5325 3.5313-1.4947 3.621-1.4912h32.6208c.0984 0 .1929.043.2622.121.0692.0772.1086.1825.1086.2921l-.0016 2.3789c0 .2263-.1637.4105-.3676.4123l-32.6295.2956c-.0606.0026-1.7522.0965-1.7522 1.4894 0 1.393 1.7664 1.6202 1.7845 1.6219l32.5964.0404c.0984 0 .1929.0438.2622.1219.0692.0772.1078.1833.1078.293l-.0087 2.3543c-.0008.2272-.1661.4114-.3707.4114z" fill="#6475ab"/><path d="m75.7858 82.3901c-.0748 0-.1212-.0026-.1331-.0026h-24.6695c-.2046 0-.3707-.1842-.3707-.4123v-2.3789c0-.228.1661-.4131.3707-.4131h24.6892c.0134 0 .0268 0 .0402.0026.0094.0009 1.0154.1097 1.6271-.5043.3243-.3255.4888-.8167.4888-1.4579s-.1708-1.1702-.5077-1.5359c-.6203-.6755-1.6295-.6676-1.6405-.6658l-24.6947.214c-.1063-.0114-.1936-.0421-.2637-.1202-.0701-.0771-.1094-.1833-.1094-.2929v-2.3517c0-.2281.1661-.4132.3707-.4132h24.6892c.0693-.0044 2.1396-.1035 3.5628 1.4053.8486.8991 1.2792 2.1639 1.2792 3.7604s-.4306 2.8613-1.2792 3.7604c-1.2351 1.3088-2.9574 1.407-3.4486 1.407z" fill="#617db9"/><path d="m67.9059 54.5456c-.9036 0-1.6495-.2459-1.7074-.2659-.1088-.0367-.1847-.1457-.1887-.2692-.002-.0612-.0239-1.522 1.4897-2.9261 1.6105-1.4942 3.7121-.8211 3.801-.791.0839.0278.1498.099.1767.1891.016.0534.3754 1.3373-1.0443 3.0251-.6919.8222-1.6804 1.0391-2.528 1.0391z" fill="#a3d3ca"/><path d="m65.9799 57.8544h-.7079c-.1019 0-.1837-.1302-.1837-.2915v-7.1527c0-.1613.0818-.2915.1837-.2915h.7079c.1018 0 .1837.1302.1837.2915v7.1527c0 .1613-.0819.2915-.1837.2915z" fill="#6475ab"/><path d="m68.2643 71.6725c-1.2531 0-1.7573-.4528-2.1257-.7844-.2196-.1969-.3335-.2915-.5172-.2959-.1817-.0067-.2985.0923-.5231.2926-.3705.3315-.8787.7866-2.1117.7866-2.8685 0-5.4215-5.1134-5.4215-9.1442 0-4.0309 2.1067-7.0237 5.0081-7.0237 1.1193 0 1.8561.3972 2.3943.6876.2665.1435.4982.2681.6549.2681h.002c.1758 0 .4913-.1469.8247-.3004.5991-.277 1.4208-.6553 2.3493-.6553 2.8326 0 4.8883 2.9428 4.8883 6.9981s-2.5529 9.1698-5.4224 9.1698z" fill="#e37b79"/><path d="m244 103.133h-244v7.009h244z" fill="#e37b79"/><path d="m72.7277 99.8831 2.8175 2.8809c.2247.229.4813.35.7438.35h94.389c.39 0 .772-.177 1.108-.513l2.912-2.9182v-1.592h-101.9703v1.7934z" fill="#4c6fb0"/><path d="m84.2226 34.286h78.9814c1.037 0 1.878.9379 1.878 2.0928v61.4405c0 .6164-.449 1.117-1.002 1.117h-80.733c-.5532 0-1.0025-.5006-1.0025-1.117v-61.4405c0-1.1549.8417-2.0928 1.8781-2.0928z" fill="#4c6fb0"/><path d="m173.923 95.2637h-100.4205c-.6469 0-1.1712.5843-1.1712 1.3051v2.0916c0 .7208.5243 1.305 1.1712 1.305h100.4205c.647 0 1.171-.5842 1.171-1.305v-2.0916c0-.7208-.524-1.3051-1.171-1.3051z" fill="#6588c1"/><path d="m161.129 38.694h-74.8327v52.896h74.8327z" fill="#deeffa"/><path d="m123.712 54.2622c-5.717 0-10.353 5.169-10.353 11.5452 0 6.3761 4.635 11.5451 10.353 11.5451s10.353-5.169 10.353-11.5451c0-6.3762-4.635-11.5452-10.353-11.5452zm0 21.4938c-4.926 0-8.92-4.4537-8.92-9.9486 0-5.495 3.994-9.9486 8.92-9.9486s8.92 4.4536 8.92 9.9486c0 5.4949-3.994 9.9486-8.92 9.9486z" fill="#81c4b4"/><path d="m119.238 68.2139c.286.3949.669.593 1.151.593.483 0 .865-.1981 1.147-.593.281-.395.422-.9357.422-1.621v-3.5747l1.711-1.146v4.7818c0 1.2394-.307 2.1918-.921 2.856s-1.4.9969-2.359.9969c-.958 0-1.745-.3338-2.363-1.0025-.618-.6686-.926-1.6187-.926-2.8492v-3.6359l1.71-1.146v4.7207c0 .6853.143 1.2249.427 1.621z" fill="#81c4b4"/><path d="m129.519 62.6376c.537.5096.806 1.2928.806 2.3487 0 1.0558-.276 1.829-.828 2.3174-.552.4896-1.395.7343-2.528.7343h-1.02v1.2383l-1.711 1.146v-8.549h2.709c1.177 0 2.035.2548 2.572.7643zm-1.256 3.3633c.205-.257.308-.6319.308-1.1248 0-.4928-.134-.8444-.401-1.0514-.266-.208-.682-.3115-1.245-.3115h-.976v2.8738h1.151c.57 0 .957-.128 1.162-.385z" fill="#81c4b4"/><path d="m134.495 74.7246-47.643-46.5989-12.6052 7.8792 16.2055 64.7751z" fill="url(#a)" opacity=".5"/><path d="m65.5177 3.62537-.9546.61414c-.1988.12795-.4525.0522-.5673-.16941l-.9206-1.77672c-.2281-.44032-.093-1.00513.303-1.25991l.2412-.155199c.3952-.254222.902-.103697 1.1307.337589l.9205 1.77672c.1148.22161.0469.50429-.152.63224z" fill="#6475ab"/><path d="m27.3979 99.9988h4.0187v-60.22h-4.0187z" fill="#6475ab"/><path d="m43.9518 103.085h-28.9873c0-2.464 1.7952-4.4647 4.0067-4.4647h20.973c2.2115 0 4.0066 2.0007 4.0066 4.4647z" fill="#6475ab"/><path d="m65.2054 14.1619.7687 1.4842 1.2411 2.3942-50.147 32.2623-2.0099-3.8784z" fill="#6475ab"/><g fill="#93aad4"><path d="m68.1249 22.0498-5.5438-10.6998c-1.5061-2.90692-.6108-6.63043 1.9979-8.30874s5.9502-.6806 7.4563 2.22632l5.5438 10.69982z"/><path d="m65.9797 41.2869c-4.2558-8.214-1.7262-18.734 5.6451-23.4763l.9079-.5841c7.3712-4.7423 16.812-1.9235 21.0678 6.2904z"/><path d="m12.6124 48.3322 1.7497 3.3771c.3383.653 1.0876.8767 1.6735.4997l3.0307-1.9498c.5859-.3769.7867-1.2118.4484-1.8648l-1.7498-3.3771c-.3383-.6529-1.0875-.8766-1.6735-.4996l-3.0306 1.9497c-.5859.377-.7867 1.2119-.4484 1.8648z"/><path d="m29.4067 46.7168c3.4392 0 6.2272-3.1067 6.2272-6.9391 0-3.8323-2.788-6.9391-6.2272-6.9391s-6.2272 3.1068-6.2272 6.9391c0 3.8324 2.788 6.9391 6.2272 6.9391z"/></g><path d="m29.4067 42.6181c1.4078 0 2.549-1.2717 2.549-2.8404s-1.1412-2.8404-2.549-2.8404-2.549 1.2717-2.549 2.8404 1.1412 2.8404 2.549 2.8404z" fill="#6475ab"/></svg>