<svg fill="none" height="74" viewBox="0 0 722 74" width="722" xmlns="http://www.w3.org/2000/svg" xmlns:xlink="http://www.w3.org/1999/xlink"><filter id="a" color-interpolation-filters="sRGB" filterUnits="userSpaceOnUse" height="73.3527" width="295" x="20.1758" y="0"><feFlood flood-opacity="0" result="BackgroundImageFix"/><feColorMatrix in="SourceAlpha" result="hardAlpha" type="matrix" values="0 0 0 0 0 0 0 0 0 0 0 0 0 0 0 0 0 0 127 0"/><feOffset dy="4.54044"/><feComposite in2="hardAlpha" operator="out"/><feColorMatrix type="matrix" values="0 0 0 0 0 0 0 0 0 0 0 0 0 0 0 0 0 0 0.1 0"/><feBlend in2="BackgroundImageFix" mode="normal" result="effect1_dropShadow_1432_941"/><feBlend in="SourceGraphic" in2="effect1_dropShadow_1432_941" mode="normal" result="shape"/></filter><filter id="b" color-interpolation-filters="sRGB" filterUnits="userSpaceOnUse" height="72.6556" width="283" x="418.999" y=".348633"><feFlood flood-opacity="0" result="BackgroundImageFix"/><feColorMatrix in="SourceAlpha" result="hardAlpha" type="matrix" values="0 0 0 0 0 0 0 0 0 0 0 0 0 0 0 0 0 0 127 0"/><feOffset dy="4.54044"/><feComposite in2="hardAlpha" operator="out"/><feColorMatrix type="matrix" values="0 0 0 0 0 0 0 0 0 0 0 0 0 0 0 0 0 0 0.1 0"/><feBlend in2="BackgroundImageFix" mode="normal" result="effect1_dropShadow_1432_941"/><feBlend in="SourceGraphic" in2="effect1_dropShadow_1432_941" mode="normal" result="shape"/></filter><mask id="c" fill="#fff"><path clip-rule="evenodd" d="m48.1758 0c-15.464 0-28 12.536-28 28s12.536 28 28 28h221.6042c3.373 4.0141 11.58 10.5363 24.804 12.8123-3.183-2.3817-8.908-7.5901-11.491-12.8123h4.083c15.464 0 28-12.536 28-28s-12.536-28-28-28z" fill="#fff" fill-rule="evenodd"/></mask><mask id="d" fill="#fff"><path clip-rule="evenodd" d="m431.999.348633c-7.18 0-13 5.820297-13 12.999967v30c0 7.1797 5.82 13 13 13h225.196c3.696 4.0345 11.708 9.9666 24.191 12.1151-3.041-2.2757-8.402-7.1319-11.127-12.1151h18.74c7.18 0 13-5.8203 13-13v-30c0-7.17967-5.82-12.999967-13-12.999967z" fill="#fff" fill-rule="evenodd"/></mask><g filter="url(#a)"><path clip-rule="evenodd" d="m48.1758 0c-15.464 0-28 12.536-28 28s12.536 28 28 28h221.6042c3.373 4.0141 11.58 10.5363 24.804 12.8123-3.183-2.3817-8.908-7.5901-11.491-12.8123h4.083c15.464 0 28-12.536 28-28s-12.536-28-28-28z" fill="#fff" fill-rule="evenodd"/><path d="m269.78 56 .434-.3652-.17-.2024h-.264zm24.804 12.8123-.097.5593.437-1.0137zm-11.491-12.8123v-.5676h-.914l.405.8193zm-262.9172-28h.5675c0-15.1505 12.282-27.432445 27.4325-27.432445v-.567555-.567555c-15.7774 0-28.5676 12.790155-28.5676 28.567555zm28 28v-.5676c-15.1505 0-27.4325-12.2819-27.4325-27.4324h-.5675-.5676c0 15.7774 12.7902 28.5676 28.5676 28.5676zm221.6042 0v-.5676h-221.6042v.5676.5676h221.6042zm24.804 12.8123.096-.5593c-13.085-2.2521-21.174-8.7012-24.466-12.6182l-.434.3652-.435.3652c3.456 4.1113 11.779 10.7065 25.142 13.0064zm-11.491-12.8123-.509.2517c2.644 5.343 8.454 10.6165 11.66 13.015l.34-.4544.34-.4544c-3.161-2.3649-8.799-7.5083-11.322-12.6096zm4.083 0v-.5676h-4.083v.5676.5676h4.083zm28-28h-.568c0 15.1505-12.282 27.4324-27.432 27.4324v.5676.5676c15.777 0 28.567-12.7902 28.567-28.5676zm-28-28v.567555c15.15 0 27.432 12.281945 27.432 27.432445h.568.567c0-15.7774-12.79-28.567555-28.567-28.567555zm-239.0002 0v.567555h239.0002v-.567555-.567555h-239.0002z" fill="#dadddd" mask="url(#c)"/></g><path d="m43.8134 31.3027-.504-8.99h1.4166l.2588 7.6007 3.5416-7.6007h1.58l.2044 7.6551 3.6913-7.6551h1.5937l-4.6721 8.99h-1.7435l-.1907-5.394.0272-2.0977h-.0136l-.9126 2.0977-2.5745 5.394zm11.1436 0 2.2884-9.8754h1.4575l-1.0352 4.4814-.218.1634c.1181-.3632.3042-.6719.5585-.9262.2542-.2543.5494-.4495.8854-.5857.345-.1362.7174-.2043 1.1169-.2043.4904 0 .9126.1135 1.2668.3405.3542.2179.6039.5312.7492.9399.1543.4086.168.9035.0408 1.4847l-.9807 4.1817h-1.4575l.9535-4.0864c.1181-.5176.0681-.9217-.1498-1.2123-.218-.2996-.563-.4495-1.0352-.4495-.3633 0-.6902.0818-.9808.2452-.2815.1635-.5176.4041-.7083.7219-.1907.3088-.3451.6993-.4631 1.1715l-.8309 3.6096zm11.0828.109c-.4995 0-.9444-.118-1.3349-.3541-.3905-.2452-.6947-.5858-.9127-1.0216-.2179-.4359-.3269-.949-.3269-1.5393 0-.5539.0818-1.0806.2452-1.58.1726-.4995.4087-.9399.7083-1.3213.3088-.3905.672-.6947 1.0897-.9126.4268-.218.89-.3269 1.3894-.3269.3723 0 .7083.0635 1.008.1907.3087.1271.5675.3132.7764.5584s.3496.5449.4223.899l.3541-1.5119h1.4575l-1.5801 6.8106h-1.294l.2316-1.2667c-.2271.4177-.5404.7537-.9399 1.0079-.3905.2452-.8218.3678-1.294.3678zm.504-1.1578c.2905 0 .563-.0772.8172-.2316.2634-.1543.4904-.3677.6811-.6402.1998-.2724.3542-.5857.4631-.9398.1181-.3633.1771-.7401.1771-1.1306 0-.3632-.0681-.6765-.2043-.9399-.1272-.2724-.3088-.4813-.5449-.6266-.227-.1453-.4994-.2179-.8173-.2179-.3359 0-.6402.0772-.9126.2316-.2633.1543-.4949.3677-.6947.6402-.1907.2633-.3405.5721-.4495.9262-.1089.3451-.1634.7083-.1634 1.0897 0 .3905.0635.7219.1907.9944.1271.2724.3133.4813.5584.6266.2452.1452.5449.2179.8991.2179zm7.9707 1.1578c-.4722 0-.8763-.0863-1.2123-.2588-.3269-.1816-.5585-.445-.6947-.79-.1362-.3451-.1499-.7628-.0409-1.2532l1.403-6.1024 1.5665-.4358-1.5392 6.5518c-.0909.3996-.0364.6902.1634.8718.1998.1725.4586.2588.7764.2588.218 0 .4041-.0273.5585-.0817.1635-.0545.3087-.1272.4359-.218l.109 1.0761c-.2362.1453-.4813.2452-.7356.2997-.2452.0545-.5085.0817-.79.0817zm-2.4927-5.7754.2588-1.1442h4.8355l-.2588 1.1442zm7.861-3.814c.3269 0 .5811.109.7627.3269.1817.2179.2725.4995.2725.8445 0 .3814-.0999.7628-.2997 1.1442-.1907.3814-.4677.7174-.8309 1.008-.3632.2815-.7991.4767-1.3076.5857l-.3951-.7219c.3542-.0636.6539-.1589.899-.2861.2543-.1271.4586-.2815.613-.4631.1635-.1907.2815-.3859.3542-.5857l-.0273-.0273c-.0454.0364-.0953.0636-.1498.0818-.0454.0091-.1181.0136-.218.0136-.2361 0-.4222-.0863-.5584-.2588s-.2044-.3678-.2044-.5857c0-.3269.1045-.5857.3133-.7764.2089-.1998.4677-.2997.7765-.2997zm3.5213 9.6303c-.5176 0-.9944-.0772-1.4303-.2316-.4268-.1544-.7991-.3769-1.1169-.6674-.3178-.2906-.5676-.6312-.7492-1.0216l1.1033-.6675c.1907.4631.4677.8218.8309 1.0761.3724.2452.8173.3678 1.3349.3678.4178 0 .7401-.0818.9672-.2452.227-.1635.3405-.3814.3405-.6538 0-.1998-.0636-.3587-.1907-.4768-.1271-.1271-.3224-.227-.5857-.2996l-1.0897-.327c-.5994-.1634-1.0443-.4041-1.3349-.7219-.2815-.3269-.4223-.7038-.4223-1.1306 0-.4086.109-.7673.3269-1.076.218-.3179.5313-.5676.9399-.7492s.8899-.2724 1.4439-.2724c.6629 0 1.2486.1362 1.7571.4086s.8809.6674 1.117 1.1851l-1.0489.7083c-.0999-.2361-.2406-.4405-.4222-.613-.1817-.1725-.3951-.3087-.6402-.4086-.2362-.0999-.4995-.1499-.7901-.1499-.4449 0-.7764.0772-.9943.2316-.218.1453-.327.3451-.327.5993 0 .2271.0863.3996.2589.5176.1725.1181.3768.2134.6129.2861l1.3213.395c.4722.1362.84.3542 1.1033.6538.2634.2906.395.6357.395 1.0353 0 .4631-.1135.8626-.3405 1.1986s-.5449.5948-.9535.7764c-.4086.1817-.8808.2725-1.4166.2725zm11.0103-.0409c-.4722 0-.8763-.0863-1.2123-.2588-.3269-.1816-.5585-.445-.6947-.79-.1362-.3451-.1499-.7628-.0409-1.2532l1.403-6.1024 1.5665-.4358-1.5392 6.5518c-.0908.3996-.0364.6902.1634.8718.1998.1725.4586.2588.7764.2588.218 0 .4041-.0273.5585-.0817.1635-.0545.3088-.1272.4359-.218l.109 1.0761c-.2361.1453-.4813.2452-.7356.2997-.2452.0545-.5085.0817-.79.0817zm-2.4927-5.7754.2588-1.1442h4.8355l-.2588 1.1442zm5.1763 5.6664 2.2884-9.8754h1.4576l-1.0354 4.4814-.2179.1634c.118-.3632.3042-.6719.5583-.9262.254-.2543.55-.4495.886-.5857.345-.1362.717-.2043 1.116-.2043.491 0 .913.1135 1.267.3405.354.2179.604.5312.749.9399.155.4086.168.9035.041 1.4847l-.98 4.1817h-1.458l.954-4.0864c.118-.5176.068-.9217-.15-1.2123-.218-.2996-.563-.4495-1.035-.4495-.364 0-.691.0818-.981.2452-.282.1635-.518.4041-.7085.7219-.1907.3088-.3451.6993-.4631 1.1715l-.8309 3.6096zm11.641.1226c-.645 0-1.198-.1316-1.662-.395-.463-.2724-.821-.6402-1.076-1.1033-.254-.4631-.381-.9853-.381-1.5665 0-.7264.145-1.3893.436-1.9887.29-.6084.713-1.0942 1.267-1.4575.554-.3632 1.221-.5448 2.002-.5448.581 0 1.081.118 1.498.3541.418.2361.736.5676.954.9944.218.4177.327.9081.327 1.4711 0 .1816-.014.3678-.041.5585-.018.1907-.059.3814-.123.5721h-5.489v-1.117h4.699l-.531.3814c.036-.109.059-.2134.068-.3133.009-.1089.014-.2088.014-.2996 0-.2997-.059-.5585-.177-.7765-.109-.2179-.273-.3859-.491-.504-.218-.118-.477-.177-.776-.177-.409 0-.758.0862-1.049.2588-.282.1634-.509.3905-.681.681-.173.2815-.295.5948-.368.9399s-.109.6856-.109 1.0216c0 .3814.073.7129.218.9944.154.2724.363.4858.627.6402.272.1543.59.2315.953.2315.427 0 .772-.0908 1.035-.2724.273-.1816.491-.4132.654-.6947l1.172.6266c-.182.3088-.423.5766-.722.8037-.291.2179-.627.3859-1.008.5039-.373.1181-.786.1771-1.24.1771zm9.07-.1226 1.825-7.9003c.118-.4995.291-.899.518-1.1987.236-.2997.526-.5176.871-.6538.345-.1453.741-.218 1.185-.218.282 0 .541.0318.777.0954.236.0545.418.1316.545.2315l-.409 1.0625c-.082-.0545-.195-.1044-.34-.1498-.146-.0454-.309-.0681-.491-.0681-.372 0-.658.0862-.858.2588-.2.1634-.345.4585-.436.8853l-.218.9672-.054.3677-1.458 6.3203zm-.027-5.6664.272-1.1442h4.795l-.273 1.1442zm7.559-2.2884c-.272 0-.49-.0727-.653-.218-.164-.1453-.237-.345-.218-.5993.009-.3178.109-.563.299-.7356.191-.1725.432-.2588.722-.2588.282 0 .5.0727.654.218.163.1362.241.3269.232.5721-.019.336-.123.5902-.314.7628-.19.1725-.431.2588-.722.2588zm.341 1.1442-1.58 6.8106h-1.458l1.58-6.8106zm.601 6.8106 1.58-6.8106h1.226l-.218 1.8389-.15-.1363c.145-.3814.34-.7083.586-.9807.254-.2724.545-.4813.871-.6266.327-.1544.668-.2315 1.022-.2315.145 0 .272.009.381.0272.118.0182.218.0499.3.0953l-.395 1.3077c-.091-.0454-.195-.0772-.313-.0954-.109-.0272-.25-.0408-.422-.0408-.327 0-.636.0772-.927.2315-.29.1453-.545.3724-.763.6811-.217.3088-.385.7129-.504 1.2123l-.817 3.5279zm8.347.1499c-.517 0-.994-.0772-1.43-.2316-.427-.1544-.799-.3769-1.117-.6674-.318-.2906-.567-.6312-.749-1.0216l1.103-.6675c.191.4631.468.8218.831 1.0761.373.2452.818.3678 1.335.3678.418 0 .74-.0818.967-.2452.227-.1635.341-.3814.341-.6538 0-.1998-.064-.3587-.191-.4768-.127-.1271-.322-.227-.586-.2996l-1.089-.327c-.6-.1634-1.045-.4041-1.335-.7219-.282-.3269-.422-.7038-.422-1.1306 0-.4086.108-.7673.326-1.076.218-.3179.532-.5676.94-.7492.409-.1816.89-.2724 1.444-.2724.663 0 1.249.1362 1.757.4086.509.2724.881.6674 1.117 1.1851l-1.049.7083c-.099-.2361-.24-.4405-.422-.613-.181-.1725-.395-.3087-.64-.4086-.236-.0999-.5-.1499-.79-.1499-.445 0-.777.0772-.994.2316-.218.1453-.327.3451-.327.5993 0 .2271.086.3996.258.5176.173.1181.377.2134.613.2861l1.322.395c.472.1362.84.3542 1.103.6538.263.2906.395.6357.395 1.0353 0 .4631-.113.8626-.341 1.1986-.227.336-.544.5948-.953.7764-.409.1817-.881.2725-1.417.2725zm6.794-.0409c-.472 0-.876-.0863-1.212-.2588-.327-.1816-.559-.445-.695-.79-.136-.3451-.15-.7628-.041-1.2532l1.403-6.1024 1.567-.4358-1.54 6.5518c-.091.3996-.036.6902.164.8718.2.1725.458.2588.776.2588.218 0 .404-.0273.559-.0817.163-.0545.308-.1272.436-.218l.108 1.0761c-.236.1453-.481.2452-.735.2997-.245.0545-.509.0817-.79.0817zm-2.493-5.7754.259-1.1442h4.836l-.259 1.1442zm12.646 5.8163c-.517 0-.994-.0772-1.43-.2316-.427-.1544-.799-.3769-1.117-.6674-.318-.2906-.568-.6312-.749-1.0216l1.103-.6675c.191.4631.468.8218.831 1.0761.372.2452.817.3678 1.335.3678.418 0 .74-.0818.967-.2452.227-.1635.341-.3814.341-.6538 0-.1998-.064-.3587-.191-.4768-.127-.1271-.322-.227-.586-.2996l-1.09-.327c-.599-.1634-1.044-.4041-1.334-.7219-.282-.3269-.423-.7038-.423-1.1306 0-.4086.109-.7673.327-1.076.218-.3179.531-.5676.94-.7492s.89-.2724 1.444-.2724c.663 0 1.249.1362 1.757.4086.509.2724.881.6674 1.117 1.1851l-1.049.7083c-.1-.2361-.24-.4405-.422-.613s-.395-.3087-.64-.4086c-.236-.0999-.5-.1499-.79-.1499-.445 0-.777.0772-.995.2316-.218.1453-.327.3451-.327.5993 0 .2271.087.3996.259.5176.173.1181.377.2134.613.2861l1.322.395c.472.1362.839.3542 1.103.6538.263.2906.395.6357.395 1.0353 0 .4631-.114.8626-.341 1.1986s-.545.5948-.953.7764c-.409.1817-.881.2725-1.417.2725zm6.794-.0409c-.472 0-.877-.0863-1.213-.2588-.326-.1816-.558-.445-.694-.79-.136-.3451-.15-.7628-.041-1.2532l1.403-6.1024 1.566-.4358-1.539 6.5518c-.091.3996-.036.6902.164.8718.199.1725.458.2588.776.2588.218 0 .404-.0273.558-.0817.164-.0545.309-.1272.436-.218l.109 1.0761c-.236.1453-.481.2452-.735.2997-.245.0545-.509.0817-.79.0817zm-2.493-5.7754.259-1.1442h4.835l-.258 1.1442zm8.663 5.789c-.644 0-1.198-.1316-1.661-.395-.463-.2724-.822-.6402-1.076-1.1033-.255-.4631-.382-.9853-.382-1.5665 0-.7264.145-1.3893.436-1.9887.291-.6084.713-1.0942 1.267-1.4575.554-.3632 1.221-.5448 2.002-.5448.581 0 1.081.118 1.498.3541.418.2361.736.5676.954.9944.218.4177.327.9081.327 1.4711 0 .1816-.014.3678-.041.5585-.018.1907-.059.3814-.123.5721h-5.489v-1.117h4.699l-.531.3814c.036-.109.059-.2134.068-.3133.009-.1089.014-.2088.014-.2996 0-.2997-.059-.5585-.177-.7765-.109-.2179-.273-.3859-.491-.504-.217-.118-.476-.177-.776-.177-.409 0-.758.0862-1.049.2588-.281.1634-.508.3905-.681.681-.172.2815-.295.5948-.368.9399-.072.3451-.109.6856-.109 1.0216 0 .3814.073.7129.218.9944.155.2724.364.4858.627.6402.272.1543.59.2315.953.2315.427 0 .772-.0908 1.036-.2724.272-.1816.49-.4132.653-.6947l1.172.6266c-.182.3088-.422.5766-.722.8037-.291.2179-.627.3859-1.008.5039-.372.1181-.786.1771-1.24.1771zm3.694 2.7379 2.234-9.6711h1.294l-.34 1.8661-.164.0953c.109-.4358.286-.8082.532-1.1169.254-.3088.563-.5449.926-.7083.372-.1635.767-.2452 1.185-.2452.463 0 .876.1135 1.239.3405.373.2271.663.5585.872.9944.218.4268.327.9444.327 1.5528 0 .5721-.086 1.1124-.259 1.621-.172.4994-.413.9398-.722 1.3212-.308.3814-.672.6811-1.089.899-.409.218-.858.3269-1.349.3269-.427 0-.813-.0817-1.158-.2451-.336-.1635-.603-.4041-.803-.722-.2-.3269-.314-.7128-.341-1.1578l.232-.2179-1.158 5.0671zm4.495-3.8957c.3 0 .582-.0726.845-.2179.263-.1544.495-.3678.695-.6402.199-.2725.354-.5812.463-.9263.109-.3541.163-.731.163-1.1306 0-.3904-.068-.7173-.204-.9807-.127-.2724-.313-.4767-.559-.6129-.236-.1453-.513-.218-.83-.218-.327 0-.622.0772-.886.2316-.263.1544-.495.3678-.694.6402-.191.2633-.341.5766-.45.9398-.1.3633-.15.7492-.15 1.1579 0 .5267.136.9535.409 1.2804.272.3178.672.4767 1.198.4767zm9.931 1.0352-.627-6.8106h1.417l.367 5.285 2.725-5.285h1.444l.572 5.3532 2.724-5.3532h1.553l-3.692 6.8106h-1.593l-.613-5.0399-2.656 5.0399zm13.473.1226c-.645 0-1.199-.1316-1.662-.395-.463-.2724-.822-.6402-1.076-1.1033s-.381-.9853-.381-1.5665c0-.7264.145-1.3893.435-1.9887.291-.6084.713-1.0942 1.267-1.4575.554-.3632 1.222-.5448 2.003-.5448.581 0 1.08.118 1.498.3541s.735.5676.953.9944c.218.4177.327.9081.327 1.4711 0 .1816-.013.3678-.041.5585-.018.1907-.059.3814-.122.5721h-5.49v-1.117h4.7l-.531.3814c.036-.109.059-.2134.068-.3133.009-.1089.013-.2088.013-.2996 0-.2997-.059-.5585-.177-.7765-.109-.2179-.272-.3859-.49-.504-.218-.118-.477-.177-.777-.177-.408 0-.758.0862-1.048.2588-.282.1634-.509.3905-.681.681-.173.2815-.296.5948-.368.9399-.073.3451-.109.6856-.109 1.0216 0 .3814.072.7129.218.9944.154.2724.363.4858.626.6402.273.1543.591.2315.954.2315.427 0 .772-.0908 1.035-.2724.272-.1816.49-.4132.654-.6947l1.171.6266c-.181.3088-.422.5766-.722.8037-.29.2179-.626.3859-1.008.5039-.372.1181-.785.1771-1.239.1771zm11.871.0273c-.518 0-.995-.0772-1.431-.2316-.426-.1544-.799-.3769-1.117-.6674-.317-.2906-.567-.6312-.749-1.0216l1.104-.6675c.19.4631.467.8218.83 1.0761.373.2452.818.3678 1.335.3678.418 0 .74-.0818.967-.2452.228-.1635.341-.3814.341-.6538 0-.1998-.064-.3587-.191-.4768-.127-.1271-.322-.227-.585-.2996l-1.09-.327c-.599-.1634-1.044-.4041-1.335-.7219-.281-.3269-.422-.7038-.422-1.1306 0-.4086.109-.7673.327-1.076.218-.3179.531-.5676.94-.7492.408-.1816.889-.2724 1.443-.2724.663 0 1.249.1362 1.758.4086.508.2724.88.6674 1.116 1.1851l-1.048.7083c-.1-.2361-.241-.4405-.423-.613-.181-.1725-.395-.3087-.64-.4086-.236-.0999-.499-.1499-.79-.1499-.445 0-.776.0772-.994.2316-.218.1453-.327.3451-.327.5993 0 .2271.086.3996.259.5176.172.1181.377.2134.613.2861l1.321.395c.472.1362.84.3542 1.103.6538.264.2906.395.6357.395 1.0353 0 .4631-.113.8626-.34 1.1986s-.545.5948-.954.7764c-.408.1817-.881.2725-1.416.2725zm3.863-.1499 2.289-9.8754h1.457l-1.035 4.4814-.218.1634c.118-.3632.304-.6719.558-.9262.255-.2543.55-.4495.886-.5857.345-.1362.717-.2043 1.117-.2043.49 0 .912.1135 1.267.3405.354.2179.603.5312.749.9399.154.4086.168.9035.041 1.4847l-.981 4.1817h-1.458l.954-4.0864c.118-.5176.068-.9217-.15-1.2123-.218-.2996-.563-.4495-1.035-.4495-.363 0-.69.0818-.981.2452-.281.1635-.518.4041-.708.7219-.191.3088-.345.6993-.463 1.1715l-.831 3.6096zm11.696.1226c-.672 0-1.244-.1362-1.716-.4086-.463-.2724-.822-.6402-1.076-1.1033-.255-.4722-.382-.9899-.382-1.5529 0-.7718.15-1.4575.45-2.0568.308-.5993.731-1.0715 1.267-1.4166.544-.3451 1.185-.5176 1.92-.5176.672 0 1.24.1362 1.703.4086.472.2724.831.6402 1.076 1.1033.245.4632.368.9808.368 1.5529 0 .7537-.15 1.4348-.45 2.0432-.29.5993-.708 1.0761-1.253 1.4302-.545.3451-1.181.5176-1.907.5176zm.027-1.1442c.3 0 .577-.0726.831-.2179.263-.1453.491-.3496.681-.613.2-.2633.35-.5675.45-.9126.109-.3541.163-.731.163-1.1306 0-.3632-.063-.6856-.191-.9671-.118-.2815-.308-.504-.572-.6674-.254-.1726-.576-.2588-.967-.2588-.299 0-.581.0726-.844.2179-.264.1453-.491.3496-.681.613-.191.2542-.341.5584-.45.9126-.109.3451-.163.7219-.163 1.1306 0 .345.063.6629.19.9535.128.2906.318.5221.573.6947.263.1634.59.2451.98.2451zm7.121 1.1306c-.49 0-.921-.109-1.294-.3269-.363-.2179-.626-.5312-.79-.9399-.154-.4086-.163-.9035-.027-1.4847l.967-4.1681h1.458l-.94 4.0455c-.127.5449-.077.9626.15 1.2532.236.2815.585.4222 1.049.4222.363 0 .681-.0772.953-.2315.282-.1635.518-.3996.708-.7083.191-.3179.336-.7084.436-1.1715l.845-3.6096h1.457l-1.58 6.8106h-1.294l.286-1.7163.136.109c-.181.5721-.504 1.0035-.967 1.294-.454.2816-.971.4223-1.553.4223zm7.609 0c-.681 0-1.158-.1998-1.43-.5993-.273-.3996-.332-.9263-.178-1.5801l1.812-7.805h1.458l-1.812 7.8186c-.091.3542-.068.613.068.7764.136.1544.372.2316.708.2316.128 0 .236-.0045.327-.0136.1-.0091.186-.0227.259-.0409l-.313 1.0625c-.145.0545-.286.0908-.422.1089-.128.0273-.286.0409-.477.0409zm5.009 0c-.5 0-.945-.118-1.335-.3541-.391-.2452-.695-.5858-.913-1.0216-.218-.4359-.327-.949-.327-1.5393 0-.5539.082-1.0806.246-1.58.172-.4995.408-.9399.708-1.3213.309-.3905.672-.6947 1.09-.9126.426-.218.89-.3269 1.389-.3269.372 0 .708.0635 1.008.1907.309.1271.568.3132.776.5584.209.2452.35.5449.423.899l1.048-4.5767h1.458l-2.275 9.8754h-1.294l.232-1.2667c-.227.4177-.541.7537-.94 1.0079-.391.2452-.822.3678-1.294.3678zm.49-1.1578c.3 0 .581-.0772.845-.2316.263-.1543.49-.3677.681-.6402.19-.2724.34-.5857.449-.9398.118-.3633.177-.7401.177-1.1306 0-.3632-.068-.6765-.204-.9399-.127-.2724-.309-.4813-.545-.6266-.227-.1453-.499-.2179-.817-.2179-.336 0-.64.0772-.913.2316-.263.1543-.495.3677-.694.6402-.191.2633-.341.5721-.45.9262-.109.3451-.163.7083-.163 1.0897 0 .3905.063.7219.19.9944.127.2724.314.4813.559.6266.245.1452.54.2179.885.2179zm12.135 1.1578c-.472 0-.877-.0863-1.213-.2588-.326-.1816-.558-.445-.694-.79-.136-.3451-.15-.7628-.041-1.2532l1.403-6.1024 1.566-.4358-1.539 6.5518c-.091.3996-.036.6902.164.8718.199.1725.458.2588.776.2588.218 0 .404-.0273.559-.0817.163-.0545.308-.1272.435-.218l.109 1.0761c-.236.1453-.481.2452-.735.2997-.245.0545-.509.0817-.79.0817zm-2.493-5.7754.259-1.1442h4.835l-.258 1.1442zm8.105 5.7754c-.499 0-.944-.118-1.335-.3541-.39-.2452-.695-.5858-.913-1.0216-.217-.4359-.326-.949-.326-1.5393 0-.5539.081-1.0806.245-1.58.172-.4995.408-.9399.708-1.3213.309-.3905.672-.6947 1.09-.9126.427-.218.89-.3269 1.389-.3269.372 0 .708.0635 1.008.1907.309.1271.568.3132.777.5584.208.2452.349.5449.422.899l.354-1.5119h1.457l-1.58 6.8106h-1.294l.232-1.2667c-.227.4177-.54.7537-.94 1.0079-.39.2452-.822.3678-1.294.3678zm.504-1.1578c.291 0 .563-.0772.817-.2316.264-.1543.491-.3677.681-.6402.2-.2724.354-.5857.463-.9398.118-.3633.178-.7401.178-1.1306 0-.3632-.069-.6765-.205-.9399-.127-.2724-.309-.4813-.545-.6266-.227-.1453-.499-.2179-.817-.2179-.336 0-.64.0772-.913.2316-.263.1543-.494.3677-.694.6402-.191.2633-.341.5721-.45.9262-.109.3451-.163.7083-.163 1.0897 0 .3905.063.7219.19.9944.128.2724.314.4813.559.6266.245.1452.545.2179.899.2179zm12.752-5.7618-3.664 3.092-.245.1362-2.588 2.1931.204-1.6346 4.427-3.7867zm-4.032-3.0648-2.288 9.8754h-1.458l2.289-9.8754zm.681 5.3532 1.975 4.5222h-1.512l-1.566-3.7186zm6.416 4.6448c-.644 0-1.198-.1316-1.661-.395-.464-.2724-.822-.6402-1.076-1.1033-.255-.4631-.382-.9853-.382-1.5665 0-.7264.145-1.3893.436-1.9887.291-.6084.713-1.0942 1.267-1.4575.554-.3632 1.221-.5448 2.002-.5448.581 0 1.081.118 1.498.3541.418.2361.736.5676.954.9944.218.4177.327.9081.327 1.4711 0 .1816-.014.3678-.041.5585-.018.1907-.059.3814-.123.5721h-5.489v-1.117h4.699l-.531.3814c.036-.109.059-.2134.068-.3133.009-.1089.014-.2088.014-.2996 0-.2997-.059-.5585-.177-.7765-.109-.2179-.273-.3859-.491-.504-.218-.118-.476-.177-.776-.177-.409 0-.758.0862-1.049.2588-.281.1634-.508.3905-.681.681-.172.2815-.295.5948-.368.9399-.072.3451-.109.6856-.109 1.0216 0 .3814.073.7129.218.9944.155.2724.364.4858.627.6402.272.1543.59.2315.953.2315.427 0 .772-.0908 1.036-.2724.272-.1816.49-.4132.653-.6947l1.172.6266c-.182.3088-.422.5766-.722.8037-.291.2179-.627.3859-1.008.5039-.372.1181-.786.1771-1.24.1771zm6.294-2.983.477-2.016c.581 0 1.085-.0545 1.512-.1635.436-.1089.772-.2905 1.008-.5448.245-.2543.368-.6039.368-1.0489 0-.4086-.15-.7083-.45-.899-.29-.1997-.658-.2996-1.103-.2996-.536 0-.976.1316-1.321.395-.345.2633-.595.6175-.749 1.0625l-1.254-.6947c.155-.3905.386-.7401.695-1.0489.318-.3087.704-.5494 1.158-.7219s.976-.2588 1.566-.2588c.572 0 1.081.0953 1.526.286.454.1817.808.4495 1.062.8037.255.3451.382.7582.382 1.2395 0 .5812-.136 1.0716-.409 1.4711-.263.3905-.636.6993-1.117.9263-.481.2179-1.035.3496-1.662.395l-.286 1.117zm.218 2.983c-.272 0-.495-.0726-.667-.2179-.173-.1453-.259-.3451-.259-.5994 0-.3359.1-.6038.3-.8036.199-.1998.454-.2997.762-.2997.273 0 .495.0772.668.2316.172.1453.259.3451.259.5993 0 .336-.1.6039-.3.8037-.2.1907-.454.286-.763.286z" fill="#000"/><g filter="url(#b)"><path clip-rule="evenodd" d="m431.999.348633c-7.18 0-13 5.820297-13 12.999967v30c0 7.1797 5.82 13 13 13h225.196c3.696 4.0345 11.708 9.9666 24.191 12.1151-3.041-2.2757-8.402-7.1319-11.127-12.1151h18.74c7.18 0 13-5.8203 13-13v-30c0-7.17967-5.82-12.999967-13-12.999967z" fill="#fff" fill-rule="evenodd"/><path d="m657.195 56.3486.419-.3834-.169-.1841h-.25zm24.191 12.1151-.096.5594.437-1.0138zm-11.127-12.1151v-.5675h-.957l.459.8398zm-251.26-43h.568c0-6.86622 5.566-12.432412 12.432-12.432412v-.567555-.567555c-7.493 0-13.568 6.074402-13.568 13.567522zm0 30h.568v-30h-.568-.568v30zm13 13v-.5675c-6.866 0-12.432-5.5662-12.432-12.4325h-.568-.568c0 7.4932 6.075 13.5676 13.568 13.5676zm225.196 0v-.5675h-225.196v.5675.5676h225.196zm24.191 12.1151.097-.5593c-12.351-2.1257-20.252-7.9908-23.869-11.9392l-.419.3834-.418.3834c3.775 4.1207 11.898 10.1198 24.513 12.2911zm-11.127-12.1151-.498.2723c2.782 5.0879 8.219 10.0025 11.285 12.2972l.34-.4544.341-.4544c-3.016-2.2566-8.302-7.0546-10.97-11.933zm18.74 0v-.5675h-18.74v.5675.5676h18.74zm13-13h-.568c0 6.8663-5.566 12.4325-12.432 12.4325v.5675.5676c7.493 0 13.568-6.0744 13.568-13.5676zm0-30h-.568v30h.568.568v-30zm-13-12.999967v.567555c6.866 0 12.432 5.566192 12.432 12.432412h.568.568c0-7.49312-6.075-13.567522-13.568-13.567522zm-257 0v.567555h257v-.567555-.567555h-257z" fill="#dadddd" mask="url(#d)"/></g><path d="m516.652 13.3587v8.9901h-1.471v-8.9901zm-5.912 0v8.9901h-1.457v-8.9901zm5.176 3.814v1.2531h-5.898v-1.2531zm6.055-1.7708c.663 0 1.248.1407 1.757.4222.508.2815.903.6902 1.185 1.226.291.5267.436 1.1578.436 1.8933 0 .7356-.145 1.3712-.436 1.907-.282.5267-.677.9308-1.185 1.2123-.509.2815-1.094.4223-1.757.4223s-1.249-.1408-1.757-.4223c-.509-.2815-.909-.6856-1.199-1.2123-.291-.5358-.436-1.1714-.436-1.907 0-.7355.145-1.3666.436-1.8933.29-.5358.69-.9445 1.199-1.226.508-.2815 1.094-.4222 1.757-.4222zm0 1.1442c-.409 0-.759.0953-1.049.286-.282.1816-.5.4495-.654.8037-.154.3541-.231.79-.231 1.3076 0 .5086.077.9444.231 1.3077.154.3541.372.6266.654.8173.29.1816.64.2724 1.049.2724.408 0 .753-.0908 1.035-.2724.281-.1907.499-.4632.654-.8173.154-.3633.231-.7991.231-1.3077 0-.5176-.077-.9535-.231-1.3076-.155-.3542-.373-.6221-.654-.8037-.282-.1907-.627-.286-1.035-.286zm13.675-1.008h1.58l-2.288 6.8107h-1.594l-1.716-5.0536-1.621 5.0536h-1.594l-2.275-6.8107h1.567l1.553 5.3804 1.689-5.3804h1.457l1.689 5.3804zm15.47 0h1.58l-2.288 6.8107h-1.594l-1.716-5.0536-1.621 5.0536h-1.594l-2.274-6.8107h1.566l1.553 5.3804 1.689-5.3804h1.457l1.689 5.3804zm5.746-.1362c.663 0 1.249.1407 1.757.4222.509.2815.904.6902 1.185 1.226.291.5267.436 1.1578.436 1.8933 0 .7356-.145 1.3712-.436 1.907-.281.5267-.676.9308-1.185 1.2123-.508.2815-1.094.4223-1.757.4223s-1.249-.1408-1.757-.4223c-.509-.2815-.908-.6856-1.199-1.2123-.29-.5358-.436-1.1714-.436-1.907 0-.7355.146-1.3666.436-1.8933.291-.5358.69-.9445 1.199-1.226.508-.2815 1.094-.4222 1.757-.4222zm0 1.1442c-.409 0-.758.0953-1.049.286-.281.1816-.499.4495-.654.8037-.154.3541-.231.79-.231 1.3076 0 .5086.077.9444.231 1.3077.155.3541.373.6266.654.8173.291.1816.64.2724 1.049.2724s.754-.0908 1.035-.2724c.282-.1907.5-.4632.654-.8173.154-.3633.232-.7991.232-1.3077 0-.5176-.078-.9535-.232-1.3076-.154-.3542-.372-.6221-.654-.8037-.281-.1907-.626-.286-1.035-.286zm7.636 5.9389c-.445 0-.858-.0818-1.239-.2452-.373-.1635-.672-.4268-.899-.7901-.227-.3632-.341-.8354-.341-1.4166v-4.495h1.458v4.1273c0 .6175.131 1.0443.395 1.2804.263.227.631.3405 1.103.3405.227 0 .445-.0363.654-.109.218-.0817.413-.2043.586-.3678.172-.1725.304-.3904.395-.6538.1-.2633.149-.5721.149-.9262v-3.6914h1.458v6.8107h-1.28l-.069-1.1034c-.236.4268-.554.7401-.953.9399-.4.1998-.872.2997-1.417.2997zm7.413-10.0117v7.9685c0 .336.059.5675.177.6947.118.1271.313.1907.585.1907.164 0 .3-.0091.409-.0273.118-.0272.263-.0726.436-.1362l-.164 1.0897c-.154.0727-.331.1271-.531.1635-.2.0454-.399.0681-.599.0681-.609 0-1.058-.1544-1.349-.4632-.281-.3178-.422-.8036-.422-1.4574v-8.0911zm5.442 10.0117c-.563 0-1.077-.1408-1.54-.4223-.454-.2815-.812-.6856-1.076-1.2123-.263-.5267-.395-1.1578-.395-1.8934 0-.7627.141-1.4075.423-1.9342.281-.5267.658-.9262 1.13-1.1987.472-.2815.99-.4222 1.553-.4222.581 0 1.071.1589 1.471.4767.4.3179.667.731.804 1.2396l-.164.1498v-4.7947h1.458v9.8755h-1.294l-.109-1.8525.19.0136c-.063.4086-.213.7628-.449 1.0624-.236.2906-.531.5176-.885.6811-.346.1544-.718.2316-1.117.2316zm.313-1.1715c.39 0 .726-.0999 1.008-.2996.281-.1998.499-.4813.654-.8446.154-.3632.231-.7991.231-1.3076 0-.4722-.077-.8763-.231-1.2123-.155-.3451-.373-.6084-.654-.79-.273-.1817-.59-.2725-.954-.2725-.608 0-1.08.2089-1.416.6266s-.504.9944-.504 1.7299c0 .7356.163 1.3168.49 1.7436.327.4177.786.6265 1.376.6265zm15.741-5.7754-2.983 7.6143c-.2.5267-.418.9444-.654 1.2532-.227.3087-.49.5312-.79.6674-.299.1362-.649.2043-1.049.2043-.326 0-.631-.0454-.912-.1362-.273-.0817-.513-.1952-.722-.3405l.354-1.1306c.173.1453.354.2543.545.3269.2.0727.413.109.64.109.245 0 .463-.0681.654-.2043.2-.1271.377-.386.531-.7764l.3-.7356-.722-1.689-2.125-5.1625h1.635l1.512 4.2771.395 1.2804.449-1.403 1.43-4.1545zm4.159-.1362c.663 0 1.249.1407 1.758.4222.508.2815.903.6902 1.185 1.226.29.5267.436 1.1578.436 1.8933 0 .7356-.146 1.3712-.436 1.907-.282.5267-.677.9308-1.185 1.2123-.509.2815-1.095.4223-1.758.4223-.662 0-1.248-.1408-1.757-.4223-.508-.2815-.908-.6856-1.198-1.2123-.291-.5358-.436-1.1714-.436-1.907 0-.7355.145-1.3666.436-1.8933.29-.5358.69-.9445 1.198-1.226.509-.2815 1.095-.4222 1.757-.4222zm0 1.1442c-.408 0-.758.0953-1.048.286-.282.1816-.5.4495-.654.8037-.155.3541-.232.79-.232 1.3076 0 .5086.077.9444.232 1.3077.154.3541.372.6266.654.8173.29.1816.64.2724 1.048.2724.409 0 .754-.0908 1.036-.2724.281-.1907.499-.4632.653-.8173.155-.3633.232-.7991.232-1.3077 0-.5176-.077-.9535-.232-1.3076-.154-.3542-.372-.6221-.653-.8037-.282-.1907-.627-.286-1.036-.286zm7.637 5.9389c-.445 0-.858-.0818-1.24-.2452-.372-.1635-.672-.4268-.899-.7901-.227-.3632-.34-.8354-.34-1.4166v-4.495h1.457v4.1273c0 .6175.132 1.0443.395 1.2804.263.227.631.3405 1.103.3405.227 0 .445-.0363.654-.109.218-.0817.413-.2043.586-.3678.172-.1725.304-.3904.395-.6538.1-.2633.15-.5721.15-.9262v-3.6914h1.457v6.8107h-1.28l-.068-1.1034c-.236.4268-.554.7401-.954.9399-.399.1998-.871.2997-1.416.2997zm13.04 0c-.563 0-1.076-.1408-1.539-.4223-.454-.2815-.813-.6856-1.076-1.2123s-.395-1.1578-.395-1.8934c0-.7627.141-1.4075.422-1.9342.282-.5267.658-.9262 1.131-1.1987.472-.2815.989-.4222 1.553-.4222.581 0 1.071.1589 1.471.4767.399.3179.667.731.803 1.2396l-.163.1498v-4.7947h1.457v9.8755h-1.294l-.109-1.8525.191.0136c-.064.4086-.213.7628-.45 1.0624-.236.2906-.531.5176-.885.6811-.345.1544-.717.2316-1.117.2316zm.313-1.1715c.391 0 .727-.0999 1.008-.2996.282-.1998.5-.4813.654-.8446.155-.3632.232-.7991.232-1.3076 0-.4722-.077-.8763-.232-1.2123-.154-.3451-.372-.6084-.654-.79-.272-.1817-.59-.2725-.953-.2725-.608 0-1.081.2089-1.417.6266s-.504.9944-.504 1.7299c0 .7356.164 1.3168.491 1.7436.327.4177.785.6265 1.375.6265zm8.608 1.1715c-.681 0-1.28-.1408-1.798-.4223-.517-.2815-.921-.6856-1.212-1.2123-.281-.5358-.422-1.1714-.422-1.907 0-.7355.141-1.3666.422-1.8933.291-.5358.69-.9445 1.199-1.226.508-.2815 1.085-.4222 1.73-.4222.663 0 1.226.1362 1.689.4086s.817.6448 1.062 1.117.368 1.0079.368 1.6073c0 .1634-.004.3178-.014.4631-.009.1453-.022.2724-.04.3814h-5.476v-1.1169h4.835l-.722.2179c0-.6175-.154-1.0897-.463-1.4166-.308-.336-.731-.504-1.266-.504-.391 0-.731.0908-1.022.2724s-.513.4541-.668.8173c-.154.3542-.231.79-.231 1.3076 0 .5086.082.9399.245 1.2941.164.3541.395.622.695.8036.299.1816.654.2725 1.062.2725.454 0 .822-.0863 1.104-.2588.281-.1726.504-.4132.667-.722l1.158.5449c-.164.3269-.386.6129-.668.8581-.272.2361-.599.4177-.98.5449-.382.1271-.799.1907-1.254.1907zm7.467 0c-.681 0-1.303-.1317-1.866-.3951-.563-.2633-1.008-.6356-1.335-1.1169l1.008-.8718c.199.3724.485.672.858.899.381.218.835.327 1.362.327.418 0 .749-.0727.994-.218s.368-.3496.368-.6129c0-.1726-.059-.3224-.177-.4495-.109-.1363-.322-.2407-.64-.3133l-1.43-.2997c-.727-.1453-1.245-.3769-1.553-.6947-.309-.3269-.463-.7401-.463-1.2395 0-.3724.109-.7174.326-1.0353.218-.3178.536-.5721.954-.7628.427-.1997.935-.2996 1.526-.2996.681 0 1.262.1226 1.743.3678.481.2361.849.5766 1.103 1.0216l-1.008.8445c-.172-.3633-.426-.6311-.762-.8037-.336-.1816-.686-.2724-1.049-.2724-.291 0-.54.0363-.749.109-.209.0726-.368.1725-.477.2996-.109.1272-.164.277-.164.4495 0 .1817.069.3406.205.4768s.381.2406.735.3133l1.553.3269c.654.1271 1.113.3451 1.376.6538.272.2997.409.6675.409 1.1033 0 .4359-.114.8219-.341 1.1578-.227.327-.554.5812-.981.7628-.427.1817-.935.2725-1.525.2725zm7.55-7.0831c.545 0 1.008.0817 1.39.2452.39.1543.717.3768.98.6674.264.2906.464.622.6.9944l-1.376.5448c-.118-.4177-.309-.7355-.572-.9535-.254-.227-.59-.3405-1.008-.3405-.409 0-.758.0953-1.049.286-.291.1817-.513.4495-.667.8037-.146.3542-.218.79-.218 1.3076 0 .5086.077.9399.231 1.2941.155.3541.377.622.668.8036.29.1816.635.2725 1.035.2725.309 0 .577-.05.804-.1499.227-.1089.413-.2588.558-.4495.154-.1998.259-.4404.313-.7219l1.322.4495c-.128.4086-.327.7673-.6 1.0761-.263.2996-.595.5357-.994.7083-.4.1634-.858.2452-1.376.2452-.672 0-1.267-.1408-1.784-.4223-.518-.2815-.922-.6856-1.213-1.2123-.281-.5358-.422-1.1714-.422-1.907 0-.7355.141-1.3666.422-1.8933.291-.5358.691-.9445 1.199-1.226.518-.2815 1.103-.4222 1.757-.4222zm4.707 6.9469v-6.8107h1.239l.137 1.2259c.181-.445.449-.7809.803-1.008.363-.2361.808-.3541 1.335-.3541.136 0 .272.0136.409.0408.136.0182.249.05.34.0954l-.204 1.2804c-.1-.0363-.213-.0636-.341-.0817-.118-.0273-.281-.0409-.49-.0409-.281 0-.558.0772-.831.2316-.272.1453-.499.3677-.681.6674-.172.2997-.259.6811-.259 1.1442v3.6097zm6.375-7.9549c-.317 0-.563-.0772-.735-.2316-.164-.1634-.245-.3904-.245-.681s.081-.5131.245-.6675c.172-.1543.418-.2315.735-.2315.309 0 .545.0772.709.2315.172.1544.258.3769.258.6675s-.086.5176-.258.681c-.164.1544-.4.2316-.709.2316zm.722 1.1442v6.8107h-1.457v-6.8107zm5.931 6.9469c-.399 0-.767-.0772-1.103-.2316-.327-.1544-.604-.3678-.831-.6402-.227-.2815-.395-.5948-.504-.9399l.177-.2315-.109 1.907h-1.28v-9.8755h1.457v4.7811l-.163-.2316c.172-.4722.467-.8581.885-1.1578.418-.3087.922-.4631 1.512-.4631.545 0 1.044.1407 1.498.4222.464.2815.827.6856 1.09 1.2123s.395 1.1669.395 1.9206c0 .7356-.136 1.3667-.408 1.8934-.264.5267-.627.9308-1.09 1.2123-.454.2815-.963.4223-1.526.4223zm-.313-1.1715c.59 0 1.049-.2088 1.376-.6265.336-.4268.504-1.008.504-1.7436 0-.7355-.164-1.3122-.491-1.7299s-.785-.6266-1.375-.6266c-.382 0-.713.0999-.995.2997-.281.1907-.504.4631-.667.8173-.155.3541-.232.7764-.232 1.2668 0 .4813.077.899.232 1.2531.154.3451.372.613.654.8037.29.1907.622.286.994.286zm8.199 1.1715c-.681 0-1.28-.1408-1.798-.4223-.517-.2815-.921-.6856-1.212-1.2123-.281-.5358-.422-1.1714-.422-1.907 0-.7355.141-1.3666.422-1.8933.291-.5358.69-.9445 1.199-1.226.508-.2815 1.085-.4222 1.73-.4222.663 0 1.226.1362 1.689.4086s.817.6448 1.062 1.117.368 1.0079.368 1.6073c0 .1634-.005.3178-.014.4631s-.022.2724-.041.3814h-5.475v-1.1169h4.835l-.722.2179c0-.6175-.154-1.0897-.463-1.4166-.309-.336-.731-.504-1.267-.504-.39 0-.731.0908-1.021.2724-.291.1816-.513.4541-.668.8173-.154.3542-.231.79-.231 1.3076 0 .5086.081.9399.245 1.2941.163.3541.395.622.695.8036.299.1816.653.2725 1.062.2725.454 0 .822-.0863 1.103-.2588.282-.1726.504-.4132.668-.722l1.158.5449c-.164.3269-.386.6129-.668.8581-.272.2361-.599.4177-.98.5449-.382.1271-.8.1907-1.254.1907zm-212.305 8.1461h-2.003v9.8482h2.003v1.1578h-3.324v-12.1638h3.324zm7.986 1.907-3.037 3.1057-.314.2179-2.138 2.2203-.014-1.6618 3.773-3.8821zm-4.972-3.0648v9.8755h-1.457v-9.8755zm2.112 5.3532 3.024 4.5223h-1.69l-2.424-3.6914zm7.09 4.6585c-.682 0-1.281-.1408-1.799-.4223-.517-.2815-.921-.6856-1.212-1.2123-.281-.5358-.422-1.1714-.422-1.907 0-.7355.141-1.3666.422-1.8933.291-.5358.69-.9445 1.199-1.226.508-.2815 1.085-.4222 1.73-.4222.663 0 1.226.1362 1.689.4086s.817.6448 1.062 1.117.368 1.0079.368 1.6073c0 .1634-.004.3178-.014.4631-.009.1453-.022.2724-.04.3814h-5.476v-1.1169h4.835l-.722.2179c0-.6175-.154-1.0897-.463-1.4166-.308-.336-.731-.504-1.266-.504-.391 0-.731.0908-1.022.2724s-.513.4541-.668.8173c-.154.3542-.231.79-.231 1.3076 0 .5086.082.9399.245 1.2941.164.3541.395.622.695.8036.299.1816.654.2725 1.062.2725.454 0 .822-.0863 1.104-.2588.281-.1726.504-.4132.667-.722l1.158.5449c-.164.3269-.386.6129-.668.8581-.272.2361-.599.4177-.98.5449-.382.1271-.799.1907-1.253.1907zm10.551-6.9469-2.983 7.6143c-.199.5267-.417.9444-.653 1.2532-.227.3087-.491.5312-.79.6674-.3.1362-.65.2043-1.049.2043-.327 0-.631-.0454-.913-.1362-.272-.0817-.513-.1952-.722-.3405l.354-1.1306c.173.1453.354.2543.545.3269.2.0727.413.109.64.109.246 0 .463-.0681.654-.2043.2-.1271.377-.386.531-.7764l.3-.7356-.722-1.689-2.125-5.1625h1.635l1.512 4.2771.395 1.2804.449-1.403 1.43-4.1545zm8.283-.1362c.545 0 1.008.0817 1.389.2452.391.1543.718.3768.981.6674s.463.622.599.9944l-1.375.5448c-.118-.4177-.309-.7355-.572-.9535-.255-.227-.591-.3405-1.008-.3405-.409 0-.759.0953-1.049.286-.291.1817-.513.4495-.668.8037-.145.3542-.218.79-.218 1.3076 0 .5086.078.9399.232 1.2941.154.3541.377.622.667.8036.291.1816.636.2725 1.036.2725.308 0 .576-.05.803-.1499.227-.1089.413-.2588.559-.4495.154-.1998.259-.4404.313-.7219l1.321.4495c-.127.4086-.327.7673-.599 1.0761-.263.2996-.595.5357-.994.7083-.4.1634-.859.2452-1.376.2452-.672 0-1.267-.1408-1.785-.4223-.517-.2815-.921-.6856-1.212-1.2123-.281-.5358-.422-1.1714-.422-1.907 0-.7355.141-1.3666.422-1.8933.291-.5358.69-.9445 1.199-1.226.517-.2815 1.103-.4222 1.757-.4222zm7.662 0c.663 0 1.249.1407 1.757.4222.509.2815.904.6902 1.185 1.226.291.5267.436 1.1578.436 1.8933 0 .7356-.145 1.3712-.436 1.907-.281.5267-.676.9308-1.185 1.2123-.508.2815-1.094.4223-1.757.4223s-1.248-.1408-1.757-.4223c-.508-.2815-.908-.6856-1.199-1.2123-.29-.5358-.435-1.1714-.435-1.907 0-.7355.145-1.3666.435-1.8933.291-.5358.691-.9445 1.199-1.226.509-.2815 1.094-.4222 1.757-.4222zm0 1.1442c-.408 0-.758.0953-1.049.286-.281.1816-.499.4495-.653.8037-.155.3541-.232.79-.232 1.3076 0 .5086.077.9444.232 1.3077.154.3541.372.6266.653.8173.291.1816.641.2724 1.049.2724.409 0 .754-.0908 1.036-.2724.281-.1907.499-.4632.653-.8173.155-.3633.232-.7991.232-1.3077 0-.5176-.077-.9535-.232-1.3076-.154-.3542-.372-.6221-.653-.8037-.282-.1907-.627-.286-1.036-.286zm5.212 5.8027v-6.8107h1.294l.095 1.7708-.19-.1907c.127-.3905.308-.7129.544-.9671.246-.2634.532-.4541.859-.5721.336-.1181.69-.1771 1.062-.1771.481 0 .913.0953 1.294.286.391.1816.699.4586.926.8309s.341.8445.341 1.4166v4.4134h-1.458v-3.9639c0-.6719-.14-1.1351-.422-1.3893-.272-.2634-.617-.395-1.035-.395-.3 0-.59.0726-.872.2179-.281.1362-.517.3587-.708.6674-.182.3088-.273.722-.273 1.2396v3.6233zm11.376-6.9469c.545 0 1.008.0817 1.389.2452.391.1543.717.3768.981.6674.263.2906.463.622.599.9944l-1.376.5448c-.118-.4177-.308-.7355-.572-.9535-.254-.227-.59-.3405-1.008-.3405-.408 0-.758.0953-1.049.286-.29.1817-.513.4495-.667.8037-.145.3542-.218.79-.218 1.3076 0 .5086.077.9399.232 1.2941.154.3541.376.622.667.8036s.636.2725 1.035.2725c.309 0 .577-.05.804-.1499.227-.1089.413-.2588.558-.4495.155-.1998.259-.4404.314-.7219l1.321.4495c-.127.4086-.327.7673-.599 1.0761-.264.2996-.595.5357-.995.7083-.399.1634-.858.2452-1.375.2452-.672 0-1.267-.1408-1.785-.4223-.517-.2815-.922-.6856-1.212-1.2123-.282-.5358-.422-1.1714-.422-1.907 0-.7355.14-1.3666.422-1.8933.29-.5358.69-.9445 1.199-1.226.517-.2815 1.103-.4222 1.757-.4222zm7.703 7.0831c-.681 0-1.281-.1408-1.798-.4223-.518-.2815-.922-.6856-1.212-1.2123-.282-.5358-.423-1.1714-.423-1.907 0-.7355.141-1.3666.423-1.8933.29-.5358.69-.9445 1.198-1.226.509-.2815 1.085-.4222 1.73-.4222.663 0 1.226.1362 1.689.4086s.817.6448 1.063 1.117c.245.4722.367 1.0079.367 1.6073 0 .1634-.004.3178-.013.4631s-.023.2724-.041.3814h-5.476v-1.1169h4.836l-.722.2179c0-.6175-.155-1.0897-.463-1.4166-.309-.336-.731-.504-1.267-.504-.391 0-.731.0908-1.022.2724-.29.1816-.513.4541-.667.8173-.155.3542-.232.79-.232 1.3076 0 .5086.082.9399.245 1.2941.164.3541.395.622.695.8036s.654.2725 1.063.2725c.454 0 .821-.0863 1.103-.2588.281-.1726.504-.4132.667-.722l1.158.5449c-.163.3269-.386.6129-.667.8581-.273.2361-.6.4177-.981.5449-.381.1271-.799.1907-1.253.1907zm4.878 2.7242v-9.6711h1.294l.109 1.907-.191-.2316c.109-.3541.277-.6674.504-.9399.227-.2724.509-.4858.845-.6402.345-.1543.722-.2315 1.13-.2315.554 0 1.058.1407 1.512.4222s.813.6856 1.076 1.2123c.264.5176.395 1.1488.395 1.8934s-.136 1.3848-.408 1.9206c-.264.5267-.627.9308-1.09 1.2123-.454.2815-.963.4223-1.526.4223-.581 0-1.076-.1499-1.484-.4495-.409-.3088-.699-.6993-.872-1.1715l.163-.2315v4.5767zm3.337-3.9093c.59 0 1.049-.2088 1.376-.6266.336-.4177.504-.9943.504-1.7299 0-.7355-.164-1.3122-.49-1.7299-.327-.4268-.781-.6402-1.363-.6402-.381 0-.717.0999-1.008.2997-.281.1907-.504.4631-.667.8173-.154.345-.232.7628-.232 1.2531 0 .4813.078.899.232 1.2532.154.3541.372.6266.654.8173.281.1907.613.286.994.286zm7.098-7.7641v6.7698c0 .3359.087.5811.259.7355.182.1544.423.2316.722.2316.245 0 .459-.0364.64-.109.182-.0817.35-.1907.504-.3269l.327 1.0625c-.209.1816-.467.3269-.776.4358-.3.0999-.636.1499-1.008.1499-.391 0-.749-.0636-1.076-.1907-.327-.1272-.581-.3315-.763-.613-.182-.2906-.277-.6674-.286-1.1306v-6.6063zm2.343 2.0023v1.1442h-5.108v-1.1442zm.601 7.9412h2.002v-9.8482h-2.002v-1.1578h3.31v12.1638h-3.31zm10.795-9.0854c-.318 0-.563-.0772-.736-.2316-.163-.1634-.245-.3904-.245-.681s.082-.5131.245-.6675c.173-.1543.418-.2315.736-.2315.309 0 .545.0772.708.2315.173.1544.259.3769.259.6675s-.086.5176-.259.681c-.163.1544-.399.2316-.708.2316zm.722 1.1442v6.8107h-1.458v-6.8107zm2.28 6.8107v-6.8107h1.294l.095 1.7708-.19-.1907c.127-.3905.309-.7129.545-.9671.245-.2634.531-.4541.858-.5721.336-.1181.69-.1771 1.062-.1771.482 0 .913.0953 1.294.286.391.1816.699.4586.927.8309.227.3723.34.8445.34 1.4166v4.4134h-1.457v-3.9639c0-.6719-.141-1.1351-.423-1.3893-.272-.2634-.617-.395-1.035-.395-.3 0-.59.0726-.872.2179-.281.1362-.517.3587-.708.6674-.182.3088-.272.722-.272 1.2396v3.6233zm18.564-6.8107-2.983 7.6143c-.2.5267-.418.9444-.654 1.2532-.227.3087-.491.5312-.79.6674-.3.1362-.65.2043-1.049.2043-.327 0-.631-.0454-.913-.1362-.272-.0817-.513-.1952-.722-.3405l.354-1.1306c.173.1453.355.2543.545.3269.2.0727.413.109.641.109.245 0 .463-.0681.653-.2043.2-.1271.377-.386.532-.7764l.299-.7356-.722-1.689-2.125-5.1625h1.635l1.512 4.2771.395 1.2804.449-1.403 1.431-4.1545zm4.159-.1362c.663 0 1.248.1407 1.757.4222s.904.6902 1.185 1.226c.291.5267.436 1.1578.436 1.8933 0 .7356-.145 1.3712-.436 1.907-.281.5267-.676.9308-1.185 1.2123s-1.094.4223-1.757.4223-1.249-.1408-1.757-.4223c-.509-.2815-.908-.6856-1.199-1.2123-.291-.5358-.436-1.1714-.436-1.907 0-.7355.145-1.3666.436-1.8933.291-.5358.69-.9445 1.199-1.226.508-.2815 1.094-.4222 1.757-.4222zm0 1.1442c-.409 0-.758.0953-1.049.286-.282.1816-.499.4495-.654.8037-.154.3541-.231.79-.231 1.3076 0 .5086.077.9444.231 1.3077.155.3541.372.6266.654.8173.291.1816.64.2724 1.049.2724.408 0 .754-.0908 1.035-.2724.282-.1907.499-.4632.654-.8173.154-.3633.231-.7991.231-1.3077 0-.5176-.077-.9535-.231-1.3076-.155-.3542-.372-.6221-.654-.8037-.281-.1907-.627-.286-1.035-.286zm7.636 5.9389c-.445 0-.858-.0818-1.239-.2452-.373-.1635-.672-.4268-.899-.7901-.228-.3632-.341-.8354-.341-1.4166v-4.495h1.457v4.1273c0 .6175.132 1.0443.395 1.2804.264.227.632.3405 1.104.3405.227 0 .445-.0363.654-.109.218-.0817.413-.2043.585-.3678.173-.1725.305-.3904.395-.6538.1-.2633.15-.5721.15-.9262v-3.6914h1.458v6.8107h-1.281l-.068-1.1034c-.236.4268-.554.7401-.953.9399-.4.1998-.872.2997-1.417.2997zm5.996-.1362v-6.8107h1.239l.136 1.2259c.182-.445.45-.7809.804-1.008.363-.2361.808-.3541 1.335-.3541.136 0 .272.0136.409.0408.136.0182.249.05.34.0954l-.204 1.2804c-.1-.0363-.214-.0636-.341-.0817-.118-.0273-.281-.0409-.49-.0409-.282 0-.559.0772-.831.2316-.272.1453-.499.3677-.681.6674-.173.2997-.259.6811-.259 1.1442v3.6097zm12.733-6.9469c.662 0 1.248.1407 1.757.4222.508.2815.903.6902 1.185 1.226.29.5267.436 1.1578.436 1.8933 0 .7356-.146 1.3712-.436 1.907-.282.5267-.677.9308-1.185 1.2123-.509.2815-1.095.4223-1.757.4223-.663 0-1.249-.1408-1.758-.4223-.508-.2815-.908-.6856-1.198-1.2123-.291-.5358-.436-1.1714-.436-1.907 0-.7355.145-1.3666.436-1.8933.29-.5358.69-.9445 1.198-1.226.509-.2815 1.095-.4222 1.758-.4222zm0 1.1442c-.409 0-.759.0953-1.049.286-.282.1816-.5.4495-.654.8037-.155.3541-.232.79-.232 1.3076 0 .5086.077.9444.232 1.3077.154.3541.372.6266.654.8173.29.1816.64.2724 1.049.2724.408 0 .753-.0908 1.035-.2724.281-.1907.499-.4632.654-.8173.154-.3633.231-.7991.231-1.3077 0-.5176-.077-.9535-.231-1.3076-.155-.3542-.373-.6221-.654-.8037-.282-.1907-.627-.286-1.035-.286zm13.675-1.008h1.58l-2.288 6.8107h-1.594l-1.716-5.0536-1.621 5.0536h-1.594l-2.275-6.8107h1.567l1.552 5.3804 1.689-5.3804h1.458l1.689 5.3804zm2.989 6.8107v-6.8107h1.294l.096 1.7708-.191-.1907c.127-.3905.309-.7129.545-.9671.245-.2634.531-.4541.858-.5721.336-.1181.69-.1771 1.062-.1771.482 0 .913.0953 1.294.286.391.1816.7.4586.927.8309s.34.8445.34 1.4166v4.4134h-1.457v-3.9639c0-.6719-.141-1.1351-.423-1.3893-.272-.2634-.617-.395-1.035-.395-.299 0-.59.0726-.872.2179-.281.1362-.517.3587-.708.6674-.181.3088-.272.722-.272 1.2396v3.6233zm21.221-6.8107h1.58l-2.289 6.8107h-1.593l-1.717-5.0536-1.621 5.0536h-1.593l-2.275-6.8107h1.566l1.553 5.3804 1.689-5.3804h1.458l1.689 5.3804zm5.745-.1362c.663 0 1.249.1407 1.757.4222.509.2815.904.6902 1.186 1.226.29.5267.435 1.1578.435 1.8933 0 .7356-.145 1.3712-.435 1.907-.282.5267-.677.9308-1.186 1.2123-.508.2815-1.094.4223-1.757.4223s-1.248-.1408-1.757-.4223c-.508-.2815-.908-.6856-1.198-1.2123-.291-.5358-.436-1.1714-.436-1.907 0-.7355.145-1.3666.436-1.8933.29-.5358.69-.9445 1.198-1.226.509-.2815 1.094-.4222 1.757-.4222zm0 1.1442c-.408 0-.758.0953-1.049.286-.281.1816-.499.4495-.653.8037-.155.3541-.232.79-.232 1.3076 0 .5086.077.9444.232 1.3077.154.3541.372.6266.653.8173.291.1816.641.2724 1.049.2724.409 0 .754-.0908 1.036-.2724.281-.1907.499-.4632.653-.8173.155-.3633.232-.7991.232-1.3077 0-.5176-.077-.9535-.232-1.3076-.154-.3542-.372-.6221-.653-.8037-.282-.1907-.627-.286-1.036-.286zm5.212 5.8027v-6.8107h1.24l.136 1.2259c.181-.445.449-.7809.803-1.008.364-.2361.809-.3541 1.335-.3541.137 0 .273.0136.409.0408.136.0182.25.05.34.0954l-.204 1.2804c-.1-.0363-.213-.0636-.34-.0817-.118-.0273-.282-.0409-.491-.0409-.281 0-.558.0772-.831.2316-.272.1453-.499.3677-.681.6674-.172.2997-.259.6811-.259 1.1442v3.6097zm8.082.1362c-.563 0-1.076-.1408-1.539-.4223-.454-.2815-.813-.6856-1.076-1.2123s-.395-1.1578-.395-1.8934c0-.7627.141-1.4075.422-1.9342.282-.5267.659-.9262 1.131-1.1987.472-.2815.99-.4222 1.553-.4222.581 0 1.071.1589 1.471.4767.399.3179.667.731.804 1.2396l-.164.1498v-4.7947h1.458v9.8755h-1.294l-.109-1.8525.19.0136c-.063.4086-.213.7628-.449 1.0624-.236.2906-.531.5176-.886.6811-.345.1544-.717.2316-1.117.2316zm.314-1.1715c.39 0 .726-.0999 1.008-.2996.281-.1998.499-.4813.654-.8446.154-.3632.231-.7991.231-1.3076 0-.4722-.077-.8763-.231-1.2123-.155-.3451-.373-.6084-.654-.79-.273-.1817-.591-.2725-.954-.2725-.608 0-1.08.2089-1.416.6266s-.504.9944-.504 1.7299c0 .7356.163 1.3168.49 1.7436.327.4177.785.6265 1.376.6265zm8.199 1.1715c-.681 0-1.303-.1317-1.866-.3951-.563-.2633-1.008-.6356-1.335-1.1169l1.008-.8718c.2.3724.486.672.858.899.382.218.836.327 1.362.327.418 0 .75-.0727.995-.218s.368-.3496.368-.6129c0-.1726-.06-.3224-.178-.4495-.109-.1363-.322-.2407-.64-.3133l-1.43-.2997c-.726-.1453-1.244-.3769-1.553-.6947-.309-.3269-.463-.7401-.463-1.2395 0-.3724.109-.7174.327-1.0353.218-.3178.536-.5721.953-.7628.427-.1997.936-.2996 1.526-.2996.681 0 1.262.1226 1.744.3678.481.2361.849.5766 1.103 1.0216l-1.008.8445c-.173-.3633-.427-.6311-.763-.8037-.336-.1816-.686-.2724-1.049-.2724-.29 0-.54.0363-.749.109-.209.0726-.368.1725-.477.2996-.109.1272-.163.277-.163.4495 0 .1817.068.3406.204.4768s.382.2406.736.3133l1.553.3269c.653.1271 1.112.3451 1.375.6538.273.2997.409.6675.409 1.1033 0 .4359-.114.8219-.341 1.1578-.227.327-.553.5812-.98.7628-.427.1817-.936.2725-1.526.2725zm7.107-9.2625c.626 0 1.171.0953 1.634.286.472.1907.84.4677 1.104.8309.272.3542.408.7901.408 1.3077 0 .5357-.118.9807-.354 1.3349-.227.345-.536.6084-.926.79-.391.1725-.822.286-1.294.3405l-.041 1.3758h-1.403v-2.0568c.645-.0818 1.144-.1907 1.498-.327.354-.1362.604-.3042.749-.5039.146-.2089.218-.4586.218-.7492 0-.2815-.063-.5222-.19-.7219-.118-.2089-.305-.3633-.559-.4632-.245-.1089-.558-.1634-.94-.1634-.535 0-.971.1498-1.307.4495-.336.2996-.536.7174-.6 1.2531l-1.348-.6129c.1-.4722.295-.8854.586-1.2396.29-.3541.667-.6311 1.13-.8309.463-.1997 1.008-.2996 1.635-.2996zm-.177 7.3282c.308 0 .553.0908.735.2725.191.1725.286.4041.286.6947 0 .2905-.095.5221-.286.6946-.182.1726-.427.2588-.735.2588-.3 0-.545-.0862-.736-.2588-.182-.1725-.272-.4041-.272-.6946 0-.2906.09-.5222.272-.6947.191-.1817.436-.2725.736-.2725z" fill="#000"/></svg>