<svg width="722" height="74" viewBox="0 0 722 74" fill="none" xmlns="http://www.w3.org/2000/svg">
<g filter="url(#filter0_d_1432_941)">
<mask id="path-1-inside-1_1432_941" fill="white">
<path fill-rule="evenodd" clip-rule="evenodd" d="M48.1758 0C32.7118 0 20.1758 12.536 20.1758 28C20.1758 43.464 32.7118 56 48.1758 56H269.78C273.153 60.0141 281.36 66.5363 294.584 68.8123C291.401 66.4306 285.676 61.2222 283.093 56H287.176C302.64 56 315.176 43.464 315.176 28C315.176 12.536 302.64 0 287.176 0H48.1758Z"/>
</mask>
<path fill-rule="evenodd" clip-rule="evenodd" d="M48.1758 0C32.7118 0 20.1758 12.536 20.1758 28C20.1758 43.464 32.7118 56 48.1758 56H269.78C273.153 60.0141 281.36 66.5363 294.584 68.8123C291.401 66.4306 285.676 61.2222 283.093 56H287.176C302.64 56 315.176 43.464 315.176 28C315.176 12.536 302.64 0 287.176 0H48.1758Z" fill="white"/>
<path d="M269.78 56L270.214 55.6348L270.044 55.4324H269.78V56ZM294.584 68.8123L294.487 69.3716L294.924 68.3579L294.584 68.8123ZM283.093 56V55.4324H282.179L282.584 56.2517L283.093 56ZM20.1758 28H20.7433C20.7433 12.8495 33.0253 0.567555 48.1758 0.567555V0V-0.567555C32.3984 -0.567555 19.6082 12.2226 19.6082 28H20.1758ZM48.1758 56V55.4324C33.0253 55.4324 20.7433 43.1505 20.7433 28H20.1758H19.6082C19.6082 43.7774 32.3984 56.5676 48.1758 56.5676V56ZM269.78 56V55.4324H48.1758V56V56.5676H269.78V56ZM294.584 68.8123L294.68 68.253C281.595 66.0009 273.506 59.5518 270.214 55.6348L269.78 56L269.345 56.3652C272.801 60.4765 281.124 67.0717 294.487 69.3716L294.584 68.8123ZM283.093 56L282.584 56.2517C285.228 61.5947 291.038 66.8682 294.244 69.2667L294.584 68.8123L294.924 68.3579C291.763 65.993 286.125 60.8496 283.602 55.7483L283.093 56ZM287.176 56V55.4324H283.093V56V56.5676H287.176V56ZM315.176 28H314.608C314.608 43.1505 302.326 55.4324 287.176 55.4324V56V56.5676C302.953 56.5676 315.743 43.7774 315.743 28H315.176ZM287.176 0V0.567555C302.326 0.567555 314.608 12.8495 314.608 28H315.176H315.743C315.743 12.2226 302.953 -0.567555 287.176 -0.567555V0ZM48.1758 0V0.567555H287.176V0V-0.567555H48.1758V0Z" fill="#DADDDD" mask="url(#path-1-inside-1_1432_941)"/>
</g>
<path d="M43.8134 31.3027L43.3094 22.3127H44.726L44.9848 29.9134L48.5264 22.3127H50.1064L50.3108 29.9678L54.0021 22.3127H55.5958L50.9237 31.3027H49.1802L48.9895 25.9087L49.0167 23.811H49.0031L48.0905 25.9087L45.516 31.3027H43.8134ZM54.957 31.3027L57.2454 21.4273H58.7029L57.6677 25.9087L57.4497 26.0721C57.5678 25.7089 57.7539 25.4002 58.0082 25.1459C58.2624 24.8916 58.5576 24.6964 58.8936 24.5602C59.2386 24.424 59.611 24.3559 60.0105 24.3559C60.5009 24.3559 60.9231 24.4694 61.2773 24.6964C61.6315 24.9143 61.8812 25.2276 62.0265 25.6363C62.1808 26.0449 62.1945 26.5398 62.0673 27.121L61.0866 31.3027H59.6291L60.5826 27.2163C60.7007 26.6987 60.6507 26.2946 60.4328 26.004C60.2148 25.7044 59.8698 25.5545 59.3976 25.5545C59.0343 25.5545 58.7074 25.6363 58.4168 25.7997C58.1353 25.9632 57.8992 26.2038 57.7085 26.5216C57.5178 26.8304 57.3634 27.2209 57.2454 27.6931L56.4145 31.3027H54.957ZM66.0398 31.4117C65.5403 31.4117 65.0954 31.2937 64.7049 31.0576C64.3144 30.8124 64.0102 30.4718 63.7922 30.036C63.5743 29.6001 63.4653 29.087 63.4653 28.4967C63.4653 27.9428 63.5471 27.4161 63.7105 26.9167C63.8831 26.4172 64.1192 25.9768 64.4188 25.5954C64.7276 25.2049 65.0908 24.9007 65.5085 24.6828C65.9353 24.4648 66.3985 24.3559 66.8979 24.3559C67.2702 24.3559 67.6062 24.4194 67.9059 24.5466C68.2146 24.6737 68.4734 24.8598 68.6823 25.105C68.8912 25.3502 69.0319 25.6499 69.1046 26.004L69.4587 24.4921H70.9162L69.3361 31.3027H68.0421L68.2737 30.036C68.0466 30.4537 67.7333 30.7897 67.3338 31.0439C66.9433 31.2891 66.512 31.4117 66.0398 31.4117ZM66.5438 30.2539C66.8343 30.2539 67.1068 30.1767 67.361 30.0223C67.6244 29.868 67.8514 29.6546 68.0421 29.3821C68.2419 29.1097 68.3963 28.7964 68.5052 28.4423C68.6233 28.079 68.6823 27.7022 68.6823 27.3117C68.6823 26.9485 68.6142 26.6352 68.478 26.3718C68.3508 26.0994 68.1692 25.8905 67.9331 25.7452C67.7061 25.5999 67.4337 25.5273 67.1158 25.5273C66.7799 25.5273 66.4756 25.6045 66.2032 25.7589C65.9399 25.9132 65.7083 26.1266 65.5085 26.3991C65.3178 26.6624 65.168 26.9712 65.059 27.3253C64.9501 27.6704 64.8956 28.0336 64.8956 28.415C64.8956 28.8055 64.9591 29.1369 65.0863 29.4094C65.2134 29.6818 65.3996 29.8907 65.6447 30.036C65.8899 30.1812 66.1896 30.2539 66.5438 30.2539ZM74.5145 31.4117C74.0423 31.4117 73.6382 31.3254 73.3022 31.1529C72.9753 30.9713 72.7437 30.7079 72.6075 30.3629C72.4713 30.0178 72.4576 29.6001 72.5666 29.1097L73.9696 23.0073L75.5361 22.5715L73.9969 29.1233C73.906 29.5229 73.9605 29.8135 74.1603 29.9951C74.3601 30.1676 74.6189 30.2539 74.9367 30.2539C75.1547 30.2539 75.3408 30.2266 75.4952 30.1722C75.6587 30.1177 75.8039 30.045 75.9311 29.9542L76.0401 31.0303C75.8039 31.1756 75.5588 31.2755 75.3045 31.33C75.0593 31.3845 74.796 31.4117 74.5145 31.4117ZM72.0218 25.6363L72.2806 24.4921H77.1161L76.8573 25.6363H72.0218ZM79.8828 21.8223C80.2097 21.8223 80.4639 21.9313 80.6455 22.1492C80.8272 22.3671 80.918 22.6487 80.918 22.9937C80.918 23.3751 80.8181 23.7565 80.6183 24.1379C80.4276 24.5193 80.1506 24.8553 79.7874 25.1459C79.4242 25.4274 78.9883 25.6226 78.4798 25.7316L78.0847 25.0097C78.4389 24.9461 78.7386 24.8508 78.9837 24.7236C79.238 24.5965 79.4423 24.4421 79.5967 24.2605C79.7602 24.0698 79.8782 23.8746 79.9509 23.6748L79.9236 23.6475C79.8782 23.6839 79.8283 23.7111 79.7738 23.7293C79.7284 23.7384 79.6557 23.7429 79.5558 23.7429C79.3197 23.7429 79.1336 23.6566 78.9974 23.4841C78.8612 23.3116 78.793 23.1163 78.793 22.8984C78.793 22.5715 78.8975 22.3127 79.1063 22.122C79.3152 21.9222 79.574 21.8223 79.8828 21.8223ZM83.4041 31.4526C82.8865 31.4526 82.4097 31.3754 81.9738 31.221C81.547 31.0666 81.1747 30.8441 80.8569 30.5536C80.5391 30.263 80.2893 29.9224 80.1077 29.532L81.211 28.8645C81.4017 29.3276 81.6787 29.6863 82.0419 29.9406C82.4143 30.1858 82.8592 30.3084 83.3768 30.3084C83.7946 30.3084 84.1169 30.2266 84.344 30.0632C84.571 29.8997 84.6845 29.6818 84.6845 29.4094C84.6845 29.2096 84.6209 29.0507 84.4938 28.9326C84.3667 28.8055 84.1714 28.7056 83.9081 28.633L82.8184 28.306C82.219 28.1426 81.7741 27.9019 81.4835 27.5841C81.202 27.2572 81.0612 26.8803 81.0612 26.4535C81.0612 26.0449 81.1702 25.6862 81.3881 25.3775C81.6061 25.0596 81.9194 24.8099 82.328 24.6283C82.7366 24.4467 83.2179 24.3559 83.7719 24.3559C84.4348 24.3559 85.0205 24.4921 85.529 24.7645C86.0375 25.0369 86.4099 25.4319 86.646 25.9496L85.5971 26.6579C85.4972 26.4218 85.3565 26.2174 85.1749 26.0449C84.9932 25.8724 84.7798 25.7362 84.5347 25.6363C84.2985 25.5364 84.0352 25.4864 83.7446 25.4864C83.2997 25.4864 82.9682 25.5636 82.7503 25.718C82.5323 25.8633 82.4233 26.0631 82.4233 26.3173C82.4233 26.5444 82.5096 26.7169 82.6822 26.8349C82.8547 26.953 83.059 27.0483 83.2951 27.121L84.6164 27.516C85.0886 27.6522 85.4564 27.8702 85.7197 28.1698C85.9831 28.4604 86.1147 28.8055 86.1147 29.2051C86.1147 29.6682 86.0012 30.0677 85.7742 30.4037C85.5472 30.7397 85.2293 30.9985 84.8207 31.1801C84.4121 31.3618 83.9399 31.4526 83.4041 31.4526ZM94.4144 31.4117C93.9422 31.4117 93.5381 31.3254 93.2021 31.1529C92.8752 30.9713 92.6436 30.7079 92.5074 30.3629C92.3712 30.0178 92.3575 29.6001 92.4665 29.1097L93.8695 23.0073L95.436 22.5715L93.8968 29.1233C93.806 29.5229 93.8604 29.8135 94.0602 29.9951C94.26 30.1676 94.5188 30.2539 94.8366 30.2539C95.0546 30.2539 95.2407 30.2266 95.3951 30.1722C95.5586 30.1177 95.7039 30.045 95.831 29.9542L95.94 31.0303C95.7039 31.1756 95.4587 31.2755 95.2044 31.33C94.9592 31.3845 94.6959 31.4117 94.4144 31.4117ZM91.9217 25.6363L92.1805 24.4921H97.016L96.7572 25.6363H91.9217ZM97.098 31.3027L99.3864 21.4273H100.844L99.8086 25.9087L99.5907 26.0721C99.7087 25.7089 99.8949 25.4002 100.149 25.1459C100.403 24.8916 100.699 24.6964 101.035 24.5602C101.38 24.424 101.752 24.3559 102.151 24.3559C102.642 24.3559 103.064 24.4694 103.418 24.6964C103.772 24.9143 104.022 25.2276 104.167 25.6363C104.322 26.0449 104.335 26.5398 104.208 27.121L103.228 31.3027H101.77L102.724 27.2163C102.842 26.6987 102.792 26.2946 102.574 26.004C102.356 25.7044 102.011 25.5545 101.539 25.5545C101.175 25.5545 100.848 25.6363 100.558 25.7997C100.276 25.9632 100.04 26.2038 99.8495 26.5216C99.6588 26.8304 99.5044 27.2209 99.3864 27.6931L98.5555 31.3027H97.098ZM108.739 31.4253C108.094 31.4253 107.541 31.2937 107.077 31.0303C106.614 30.7579 106.256 30.3901 106.001 29.927C105.747 29.4639 105.62 28.9417 105.62 28.3605C105.62 27.6341 105.765 26.9712 106.056 26.3718C106.346 25.7634 106.769 25.2776 107.323 24.9143C107.877 24.5511 108.544 24.3695 109.325 24.3695C109.906 24.3695 110.406 24.4875 110.823 24.7236C111.241 24.9597 111.559 25.2912 111.777 25.718C111.995 26.1357 112.104 26.6261 112.104 27.1891C112.104 27.3707 112.09 27.5569 112.063 27.7476C112.045 27.9383 112.004 28.129 111.94 28.3197H106.451V27.2027H111.15L110.619 27.5841C110.655 27.4751 110.678 27.3707 110.687 27.2708C110.696 27.1619 110.701 27.062 110.701 26.9712C110.701 26.6715 110.642 26.4127 110.524 26.1947C110.415 25.9768 110.251 25.8088 110.033 25.6907C109.815 25.5727 109.556 25.5137 109.257 25.5137C108.848 25.5137 108.499 25.5999 108.208 25.7725C107.926 25.9359 107.699 26.163 107.527 26.4535C107.354 26.735 107.232 27.0483 107.159 27.3934C107.086 27.7385 107.05 28.079 107.05 28.415C107.05 28.7964 107.123 29.1279 107.268 29.4094C107.422 29.6818 107.631 29.8952 107.895 30.0496C108.167 30.2039 108.485 30.2811 108.848 30.2811C109.275 30.2811 109.62 30.1903 109.883 30.0087C110.156 29.8271 110.374 29.5955 110.537 29.314L111.709 29.9406C111.527 30.2494 111.286 30.5172 110.987 30.7443C110.696 30.9622 110.36 31.1302 109.979 31.2482C109.606 31.3663 109.193 31.4253 108.739 31.4253ZM117.809 31.3027L119.634 23.4024C119.752 22.9029 119.925 22.5034 120.152 22.2037C120.388 21.904 120.678 21.6861 121.023 21.5499C121.368 21.4046 121.764 21.3319 122.208 21.3319C122.49 21.3319 122.749 21.3637 122.985 21.4273C123.221 21.4818 123.403 21.5589 123.53 21.6588L123.121 22.7213C123.039 22.6668 122.926 22.6169 122.781 22.5715C122.635 22.5261 122.472 22.5034 122.29 22.5034C121.918 22.5034 121.632 22.5896 121.432 22.7622C121.232 22.9256 121.087 23.2207 120.996 23.6475L120.778 24.6147L120.724 24.9824L119.266 31.3027H117.809ZM117.782 25.6363L118.054 24.4921H122.849L122.576 25.6363H117.782ZM125.341 23.3479C125.069 23.3479 124.851 23.2752 124.688 23.1299C124.524 22.9846 124.451 22.7849 124.47 22.5306C124.479 22.2128 124.579 21.9676 124.769 21.795C124.96 21.6225 125.201 21.5362 125.491 21.5362C125.773 21.5362 125.991 21.6089 126.145 21.7542C126.308 21.8904 126.386 22.0811 126.377 22.3263C126.358 22.6623 126.254 22.9165 126.063 23.0891C125.873 23.2616 125.632 23.3479 125.341 23.3479ZM125.682 24.4921L124.102 31.3027H122.644L124.224 24.4921H125.682ZM126.283 31.3027L127.863 24.4921H129.089L128.871 26.331L128.721 26.1947C128.866 25.8133 129.061 25.4864 129.307 25.214C129.561 24.9416 129.852 24.7327 130.178 24.5874C130.505 24.433 130.846 24.3559 131.2 24.3559C131.345 24.3559 131.472 24.3649 131.581 24.3831C131.699 24.4013 131.799 24.433 131.881 24.4784L131.486 25.7861C131.395 25.7407 131.291 25.7089 131.173 25.6907C131.064 25.6635 130.923 25.6499 130.751 25.6499C130.424 25.6499 130.115 25.7271 129.824 25.8814C129.534 26.0267 129.279 26.2538 129.061 26.5625C128.844 26.8713 128.676 27.2754 128.557 27.7748L127.74 31.3027H126.283ZM134.63 31.4526C134.113 31.4526 133.636 31.3754 133.2 31.221C132.773 31.0666 132.401 30.8441 132.083 30.5536C131.765 30.263 131.516 29.9224 131.334 29.532L132.437 28.8645C132.628 29.3276 132.905 29.6863 133.268 29.9406C133.641 30.1858 134.086 30.3084 134.603 30.3084C135.021 30.3084 135.343 30.2266 135.57 30.0632C135.797 29.8997 135.911 29.6818 135.911 29.4094C135.911 29.2096 135.847 29.0507 135.72 28.9326C135.593 28.8055 135.398 28.7056 135.134 28.633L134.045 28.306C133.445 28.1426 133 27.9019 132.71 27.5841C132.428 27.2572 132.288 26.8803 132.288 26.4535C132.288 26.0449 132.396 25.6862 132.614 25.3775C132.832 25.0596 133.146 24.8099 133.554 24.6283C133.963 24.4467 134.444 24.3559 134.998 24.3559C135.661 24.3559 136.247 24.4921 136.755 24.7645C137.264 25.0369 137.636 25.4319 137.872 25.9496L136.823 26.6579C136.724 26.4218 136.583 26.2174 136.401 26.0449C136.22 25.8724 136.006 25.7362 135.761 25.6363C135.525 25.5364 135.261 25.4864 134.971 25.4864C134.526 25.4864 134.194 25.5636 133.977 25.718C133.759 25.8633 133.65 26.0631 133.65 26.3173C133.65 26.5444 133.736 26.7169 133.908 26.8349C134.081 26.953 134.285 27.0483 134.521 27.121L135.843 27.516C136.315 27.6522 136.683 27.8702 136.946 28.1698C137.209 28.4604 137.341 28.8055 137.341 29.2051C137.341 29.6682 137.228 30.0677 137 30.4037C136.773 30.7397 136.456 30.9985 136.047 31.1801C135.638 31.3618 135.166 31.4526 134.63 31.4526ZM141.424 31.4117C140.952 31.4117 140.548 31.3254 140.212 31.1529C139.885 30.9713 139.653 30.7079 139.517 30.3629C139.381 30.0178 139.367 29.6001 139.476 29.1097L140.879 23.0073L142.446 22.5715L140.906 29.1233C140.815 29.5229 140.87 29.8135 141.07 29.9951C141.27 30.1676 141.528 30.2539 141.846 30.2539C142.064 30.2539 142.25 30.2266 142.405 30.1722C142.568 30.1177 142.713 30.045 142.841 29.9542L142.949 31.0303C142.713 31.1756 142.468 31.2755 142.214 31.33C141.969 31.3845 141.705 31.4117 141.424 31.4117ZM138.931 25.6363L139.19 24.4921H144.026L143.767 25.6363H138.931ZM151.577 31.4526C151.06 31.4526 150.583 31.3754 150.147 31.221C149.72 31.0666 149.348 30.8441 149.03 30.5536C148.712 30.263 148.462 29.9224 148.281 29.532L149.384 28.8645C149.575 29.3276 149.852 29.6863 150.215 29.9406C150.587 30.1858 151.032 30.3084 151.55 30.3084C151.968 30.3084 152.29 30.2266 152.517 30.0632C152.744 29.8997 152.858 29.6818 152.858 29.4094C152.858 29.2096 152.794 29.0507 152.667 28.9326C152.54 28.8055 152.345 28.7056 152.081 28.633L150.991 28.306C150.392 28.1426 149.947 27.9019 149.657 27.5841C149.375 27.2572 149.234 26.8803 149.234 26.4535C149.234 26.0449 149.343 25.6862 149.561 25.3775C149.779 25.0596 150.092 24.8099 150.501 24.6283C150.91 24.4467 151.391 24.3559 151.945 24.3559C152.608 24.3559 153.194 24.4921 153.702 24.7645C154.211 25.0369 154.583 25.4319 154.819 25.9496L153.77 26.6579C153.67 26.4218 153.53 26.2174 153.348 26.0449C153.166 25.8724 152.953 25.7362 152.708 25.6363C152.472 25.5364 152.208 25.4864 151.918 25.4864C151.473 25.4864 151.141 25.5636 150.923 25.718C150.705 25.8633 150.596 26.0631 150.596 26.3173C150.596 26.5444 150.683 26.7169 150.855 26.8349C151.028 26.953 151.232 27.0483 151.468 27.121L152.79 27.516C153.262 27.6522 153.629 27.8702 153.893 28.1698C154.156 28.4604 154.288 28.8055 154.288 29.2051C154.288 29.6682 154.174 30.0677 153.947 30.4037C153.72 30.7397 153.402 30.9985 152.994 31.1801C152.585 31.3618 152.113 31.4526 151.577 31.4526ZM158.371 31.4117C157.899 31.4117 157.494 31.3254 157.158 31.1529C156.832 30.9713 156.6 30.7079 156.464 30.3629C156.328 30.0178 156.314 29.6001 156.423 29.1097L157.826 23.0073L159.392 22.5715L157.853 29.1233C157.762 29.5229 157.817 29.8135 158.017 29.9951C158.216 30.1676 158.475 30.2539 158.793 30.2539C159.011 30.2539 159.197 30.2266 159.351 30.1722C159.515 30.1177 159.66 30.045 159.787 29.9542L159.896 31.0303C159.66 31.1756 159.415 31.2755 159.161 31.33C158.916 31.3845 158.652 31.4117 158.371 31.4117ZM155.878 25.6363L156.137 24.4921H160.972L160.714 25.6363H155.878ZM164.541 31.4253C163.897 31.4253 163.343 31.2937 162.88 31.0303C162.417 30.7579 162.058 30.3901 161.804 29.927C161.549 29.4639 161.422 28.9417 161.422 28.3605C161.422 27.6341 161.567 26.9712 161.858 26.3718C162.149 25.7634 162.571 25.2776 163.125 24.9143C163.679 24.5511 164.346 24.3695 165.127 24.3695C165.708 24.3695 166.208 24.4875 166.625 24.7236C167.043 24.9597 167.361 25.2912 167.579 25.718C167.797 26.1357 167.906 26.6261 167.906 27.1891C167.906 27.3707 167.892 27.5569 167.865 27.7476C167.847 27.9383 167.806 28.129 167.742 28.3197H162.253V27.2027H166.952L166.421 27.5841C166.457 27.4751 166.48 27.3707 166.489 27.2708C166.498 27.1619 166.503 27.062 166.503 26.9712C166.503 26.6715 166.444 26.4127 166.326 26.1947C166.217 25.9768 166.053 25.8088 165.835 25.6907C165.618 25.5727 165.359 25.5137 165.059 25.5137C164.65 25.5137 164.301 25.5999 164.01 25.7725C163.729 25.9359 163.502 26.163 163.329 26.4535C163.157 26.735 163.034 27.0483 162.961 27.3934C162.889 27.7385 162.852 28.079 162.852 28.415C162.852 28.7964 162.925 29.1279 163.07 29.4094C163.225 29.6818 163.434 29.8952 163.697 30.0496C163.969 30.2039 164.287 30.2811 164.65 30.2811C165.077 30.2811 165.422 30.1903 165.686 30.0087C165.958 29.8271 166.176 29.5955 166.339 29.314L167.511 29.9406C167.329 30.2494 167.089 30.5172 166.789 30.7443C166.498 30.9622 166.162 31.1302 165.781 31.2482C165.409 31.3663 164.995 31.4253 164.541 31.4253ZM168.235 34.1632L170.469 24.4921H171.763L171.423 26.3582L171.259 26.4535C171.368 26.0177 171.545 25.6453 171.791 25.3366C172.045 25.0278 172.354 24.7917 172.717 24.6283C173.089 24.4648 173.484 24.3831 173.902 24.3831C174.365 24.3831 174.778 24.4966 175.141 24.7236C175.514 24.9507 175.804 25.2821 176.013 25.718C176.231 26.1448 176.34 26.6624 176.34 27.2708C176.34 27.8429 176.254 28.3832 176.081 28.8918C175.909 29.3912 175.668 29.8316 175.359 30.213C175.051 30.5944 174.687 30.8941 174.27 31.112C173.861 31.33 173.412 31.4389 172.921 31.4389C172.494 31.4389 172.108 31.3572 171.763 31.1938C171.427 31.0303 171.16 30.7897 170.96 30.4718C170.76 30.1449 170.646 29.759 170.619 29.314L170.851 29.0961L169.693 34.1632H168.235ZM172.73 30.2675C173.03 30.2675 173.312 30.1949 173.575 30.0496C173.838 29.8952 174.07 29.6818 174.27 29.4094C174.469 29.1369 174.624 28.8282 174.733 28.4831C174.842 28.129 174.896 27.7521 174.896 27.3525C174.896 26.9621 174.828 26.6352 174.692 26.3718C174.565 26.0994 174.379 25.8951 174.133 25.7589C173.897 25.6136 173.62 25.5409 173.303 25.5409C172.976 25.5409 172.681 25.6181 172.417 25.7725C172.154 25.9269 171.922 26.1403 171.723 26.4127C171.532 26.676 171.382 26.9893 171.273 27.3525C171.173 27.7158 171.123 28.1017 171.123 28.5104C171.123 29.0371 171.259 29.4639 171.532 29.7908C171.804 30.1086 172.204 30.2675 172.73 30.2675ZM182.661 31.3027L182.034 24.4921H183.451L183.818 29.7771L186.543 24.4921H187.987L188.559 29.8453L191.283 24.4921H192.836L189.144 31.3027H187.551L186.938 26.2628L184.282 31.3027H182.661ZM196.134 31.4253C195.489 31.4253 194.935 31.2937 194.472 31.0303C194.009 30.7579 193.65 30.3901 193.396 29.927C193.142 29.4639 193.015 28.9417 193.015 28.3605C193.015 27.6341 193.16 26.9712 193.45 26.3718C193.741 25.7634 194.163 25.2776 194.717 24.9143C195.271 24.5511 195.939 24.3695 196.72 24.3695C197.301 24.3695 197.8 24.4875 198.218 24.7236C198.636 24.9597 198.953 25.2912 199.171 25.718C199.389 26.1357 199.498 26.6261 199.498 27.1891C199.498 27.3707 199.485 27.5569 199.457 27.7476C199.439 27.9383 199.398 28.129 199.335 28.3197H193.845V27.2027H198.545L198.014 27.5841C198.05 27.4751 198.073 27.3707 198.082 27.2708C198.091 27.1619 198.095 27.062 198.095 26.9712C198.095 26.6715 198.036 26.4127 197.918 26.1947C197.809 25.9768 197.646 25.8088 197.428 25.6907C197.21 25.5727 196.951 25.5137 196.651 25.5137C196.243 25.5137 195.893 25.5999 195.603 25.7725C195.321 25.9359 195.094 26.163 194.922 26.4535C194.749 26.735 194.626 27.0483 194.554 27.3934C194.481 27.7385 194.445 28.079 194.445 28.415C194.445 28.7964 194.517 29.1279 194.663 29.4094C194.817 29.6818 195.026 29.8952 195.289 30.0496C195.562 30.2039 195.88 30.2811 196.243 30.2811C196.67 30.2811 197.015 30.1903 197.278 30.0087C197.55 29.8271 197.768 29.5955 197.932 29.314L199.103 29.9406C198.922 30.2494 198.681 30.5172 198.381 30.7443C198.091 30.9622 197.755 31.1302 197.373 31.2482C197.001 31.3663 196.588 31.4253 196.134 31.4253ZM208.005 31.4526C207.487 31.4526 207.01 31.3754 206.574 31.221C206.148 31.0666 205.775 30.8441 205.457 30.5536C205.14 30.263 204.89 29.9224 204.708 29.532L205.812 28.8645C206.002 29.3276 206.279 29.6863 206.642 29.9406C207.015 30.1858 207.46 30.3084 207.977 30.3084C208.395 30.3084 208.717 30.2266 208.944 30.0632C209.172 29.8997 209.285 29.6818 209.285 29.4094C209.285 29.2096 209.221 29.0507 209.094 28.9326C208.967 28.8055 208.772 28.7056 208.509 28.633L207.419 28.306C206.82 28.1426 206.375 27.9019 206.084 27.5841C205.803 27.2572 205.662 26.8803 205.662 26.4535C205.662 26.0449 205.771 25.6862 205.989 25.3775C206.207 25.0596 206.52 24.8099 206.929 24.6283C207.337 24.4467 207.818 24.3559 208.372 24.3559C209.035 24.3559 209.621 24.4921 210.13 24.7645C210.638 25.0369 211.01 25.4319 211.246 25.9496L210.198 26.6579C210.098 26.4218 209.957 26.2174 209.775 26.0449C209.594 25.8724 209.38 25.7362 209.135 25.6363C208.899 25.5364 208.636 25.4864 208.345 25.4864C207.9 25.4864 207.569 25.5636 207.351 25.718C207.133 25.8633 207.024 26.0631 207.024 26.3173C207.024 26.5444 207.11 26.7169 207.283 26.8349C207.455 26.953 207.66 27.0483 207.896 27.121L209.217 27.516C209.689 27.6522 210.057 27.8702 210.32 28.1698C210.584 28.4604 210.715 28.8055 210.715 29.2051C210.715 29.6682 210.602 30.0677 210.375 30.4037C210.148 30.7397 209.83 30.9985 209.421 31.1801C209.013 31.3618 208.54 31.4526 208.005 31.4526ZM211.868 31.3027L214.157 21.4273H215.614L214.579 25.9087L214.361 26.0721C214.479 25.7089 214.665 25.4002 214.919 25.1459C215.174 24.8916 215.469 24.6964 215.805 24.5602C216.15 24.424 216.522 24.3559 216.922 24.3559C217.412 24.3559 217.834 24.4694 218.189 24.6964C218.543 24.9143 218.792 25.2276 218.938 25.6363C219.092 26.0449 219.106 26.5398 218.979 27.121L217.998 31.3027H216.54L217.494 27.2163C217.612 26.6987 217.562 26.2946 217.344 26.004C217.126 25.7044 216.781 25.5545 216.309 25.5545C215.946 25.5545 215.619 25.6363 215.328 25.7997C215.047 25.9632 214.81 26.2038 214.62 26.5216C214.429 26.8304 214.275 27.2209 214.157 27.6931L213.326 31.3027H211.868ZM223.564 31.4253C222.892 31.4253 222.32 31.2891 221.848 31.0167C221.385 30.7443 221.026 30.3765 220.772 29.9134C220.517 29.4412 220.39 28.9235 220.39 28.3605C220.39 27.5887 220.54 26.903 220.84 26.3037C221.148 25.7044 221.571 25.2322 222.107 24.8871C222.651 24.542 223.292 24.3695 224.027 24.3695C224.699 24.3695 225.267 24.5057 225.73 24.7781C226.202 25.0505 226.561 25.4183 226.806 25.8814C227.051 26.3446 227.174 26.8622 227.174 27.4343C227.174 28.188 227.024 28.8691 226.724 29.4775C226.434 30.0768 226.016 30.5536 225.471 30.9077C224.926 31.2528 224.29 31.4253 223.564 31.4253ZM223.591 30.2811C223.891 30.2811 224.168 30.2085 224.422 30.0632C224.685 29.9179 224.913 29.7136 225.103 29.4502C225.303 29.1869 225.453 28.8827 225.553 28.5376C225.662 28.1835 225.716 27.8066 225.716 27.407C225.716 27.0438 225.653 26.7214 225.525 26.4399C225.407 26.1584 225.217 25.9359 224.953 25.7725C224.699 25.5999 224.377 25.5137 223.986 25.5137C223.687 25.5137 223.405 25.5863 223.142 25.7316C222.878 25.8769 222.651 26.0812 222.461 26.3446C222.27 26.5988 222.12 26.903 222.011 27.2572C221.902 27.6023 221.848 27.9791 221.848 28.3878C221.848 28.7328 221.911 29.0507 222.038 29.3413C222.166 29.6319 222.356 29.8634 222.611 30.036C222.874 30.1994 223.201 30.2811 223.591 30.2811ZM230.712 31.4117C230.222 31.4117 229.791 31.3027 229.418 31.0848C229.055 30.8669 228.792 30.5536 228.628 30.1449C228.474 29.7363 228.465 29.2414 228.601 28.6602L229.568 24.4921H231.026L230.086 28.5376C229.959 29.0825 230.009 29.5002 230.236 29.7908C230.472 30.0723 230.821 30.213 231.285 30.213C231.648 30.213 231.966 30.1358 232.238 29.9815C232.52 29.818 232.756 29.5819 232.946 29.2732C233.137 28.9553 233.282 28.5648 233.382 28.1017L234.227 24.4921H235.684L234.104 31.3027H232.81L233.096 29.5864L233.232 29.6954C233.051 30.2675 232.728 30.6989 232.265 30.9894C231.811 31.271 231.294 31.4117 230.712 31.4117ZM238.321 31.4117C237.64 31.4117 237.163 31.2119 236.891 30.8124C236.618 30.4128 236.559 29.8861 236.713 29.2323L238.525 21.4273H239.983L238.171 29.2459C238.08 29.6001 238.103 29.8589 238.239 30.0223C238.375 30.1767 238.611 30.2539 238.947 30.2539C239.075 30.2539 239.183 30.2494 239.274 30.2403C239.374 30.2312 239.46 30.2176 239.533 30.1994L239.22 31.2619C239.075 31.3164 238.934 31.3527 238.798 31.3708C238.67 31.3981 238.512 31.4117 238.321 31.4117ZM243.33 31.4117C242.83 31.4117 242.385 31.2937 241.995 31.0576C241.604 30.8124 241.3 30.4718 241.082 30.036C240.864 29.6001 240.755 29.087 240.755 28.4967C240.755 27.9428 240.837 27.4161 241.001 26.9167C241.173 26.4172 241.409 25.9768 241.709 25.5954C242.018 25.2049 242.381 24.9007 242.799 24.6828C243.225 24.4648 243.689 24.3559 244.188 24.3559C244.56 24.3559 244.896 24.4194 245.196 24.5466C245.505 24.6737 245.764 24.8598 245.972 25.105C246.181 25.3502 246.322 25.6499 246.395 26.004L247.443 21.4273H248.901L246.626 31.3027H245.332L245.564 30.036C245.337 30.4537 245.023 30.7897 244.624 31.0439C244.233 31.2891 243.802 31.4117 243.33 31.4117ZM243.82 30.2539C244.12 30.2539 244.401 30.1767 244.665 30.0223C244.928 29.868 245.155 29.6546 245.346 29.3821C245.536 29.1097 245.686 28.7964 245.795 28.4423C245.913 28.079 245.972 27.7022 245.972 27.3117C245.972 26.9485 245.904 26.6352 245.768 26.3718C245.641 26.0994 245.459 25.8905 245.223 25.7452C244.996 25.5999 244.724 25.5273 244.406 25.5273C244.07 25.5273 243.766 25.6045 243.493 25.7589C243.23 25.9132 242.998 26.1266 242.799 26.3991C242.608 26.6624 242.458 26.9712 242.349 27.3253C242.24 27.6704 242.186 28.0336 242.186 28.415C242.186 28.8055 242.249 29.1369 242.376 29.4094C242.503 29.6818 242.69 29.8907 242.935 30.036C243.18 30.1812 243.475 30.2539 243.82 30.2539ZM255.955 31.4117C255.483 31.4117 255.078 31.3254 254.742 31.1529C254.416 30.9713 254.184 30.7079 254.048 30.3629C253.912 30.0178 253.898 29.6001 254.007 29.1097L255.41 23.0073L256.976 22.5715L255.437 29.1233C255.346 29.5229 255.401 29.8135 255.601 29.9951C255.8 30.1676 256.059 30.2539 256.377 30.2539C256.595 30.2539 256.781 30.2266 256.936 30.1722C257.099 30.1177 257.244 30.045 257.371 29.9542L257.48 31.0303C257.244 31.1756 256.999 31.2755 256.745 31.33C256.5 31.3845 256.236 31.4117 255.955 31.4117ZM253.462 25.6363L253.721 24.4921H258.556L258.298 25.6363H253.462ZM261.567 31.4117C261.068 31.4117 260.623 31.2937 260.232 31.0576C259.842 30.8124 259.537 30.4718 259.319 30.036C259.102 29.6001 258.993 29.087 258.993 28.4967C258.993 27.9428 259.074 27.4161 259.238 26.9167C259.41 26.4172 259.646 25.9768 259.946 25.5954C260.255 25.2049 260.618 24.9007 261.036 24.6828C261.463 24.4648 261.926 24.3559 262.425 24.3559C262.797 24.3559 263.133 24.4194 263.433 24.5466C263.742 24.6737 264.001 24.8598 264.21 25.105C264.418 25.3502 264.559 25.6499 264.632 26.004L264.986 24.4921H266.443L264.863 31.3027H263.569L263.801 30.036C263.574 30.4537 263.261 30.7897 262.861 31.0439C262.471 31.2891 262.039 31.4117 261.567 31.4117ZM262.071 30.2539C262.362 30.2539 262.634 30.1767 262.888 30.0223C263.152 29.868 263.379 29.6546 263.569 29.3821C263.769 29.1097 263.923 28.7964 264.032 28.4423C264.15 28.079 264.21 27.7022 264.21 27.3117C264.21 26.9485 264.141 26.6352 264.005 26.3718C263.878 26.0994 263.696 25.8905 263.46 25.7452C263.233 25.5999 262.961 25.5273 262.643 25.5273C262.307 25.5273 262.003 25.6045 261.73 25.7589C261.467 25.9132 261.236 26.1266 261.036 26.3991C260.845 26.6624 260.695 26.9712 260.586 27.3253C260.477 27.6704 260.423 28.0336 260.423 28.415C260.423 28.8055 260.486 29.1369 260.613 29.4094C260.741 29.6818 260.927 29.8907 261.172 30.036C261.417 30.1812 261.717 30.2539 262.071 30.2539ZM274.823 24.4921L271.159 27.5841L270.914 27.7203L268.326 29.9134L268.53 28.2788L272.957 24.4921H274.823ZM270.791 21.4273L268.503 31.3027H267.045L269.334 21.4273H270.791ZM271.472 26.7805L273.447 31.3027H271.935L270.369 27.5841L271.472 26.7805ZM277.888 31.4253C277.244 31.4253 276.69 31.2937 276.227 31.0303C275.763 30.7579 275.405 30.3901 275.151 29.927C274.896 29.4639 274.769 28.9417 274.769 28.3605C274.769 27.6341 274.914 26.9712 275.205 26.3718C275.496 25.7634 275.918 25.2776 276.472 24.9143C277.026 24.5511 277.693 24.3695 278.474 24.3695C279.055 24.3695 279.555 24.4875 279.972 24.7236C280.39 24.9597 280.708 25.2912 280.926 25.718C281.144 26.1357 281.253 26.6261 281.253 27.1891C281.253 27.3707 281.239 27.5569 281.212 27.7476C281.194 27.9383 281.153 28.129 281.089 28.3197H275.6V27.2027H280.299L279.768 27.5841C279.804 27.4751 279.827 27.3707 279.836 27.2708C279.845 27.1619 279.85 27.062 279.85 26.9712C279.85 26.6715 279.791 26.4127 279.673 26.1947C279.564 25.9768 279.4 25.8088 279.182 25.6907C278.964 25.5727 278.706 25.5137 278.406 25.5137C277.997 25.5137 277.648 25.5999 277.357 25.7725C277.076 25.9359 276.849 26.163 276.676 26.4535C276.504 26.735 276.381 27.0483 276.308 27.3934C276.236 27.7385 276.199 28.079 276.199 28.415C276.199 28.7964 276.272 29.1279 276.417 29.4094C276.572 29.6818 276.781 29.8952 277.044 30.0496C277.316 30.2039 277.634 30.2811 277.997 30.2811C278.424 30.2811 278.769 30.1903 279.033 30.0087C279.305 29.8271 279.523 29.5955 279.686 29.314L280.858 29.9406C280.676 30.2494 280.436 30.5172 280.136 30.7443C279.845 30.9622 279.509 31.1302 279.128 31.2482C278.756 31.3663 278.342 31.4253 277.888 31.4253ZM284.182 28.4423L284.659 26.4263C285.24 26.4263 285.744 26.3718 286.171 26.2628C286.607 26.1539 286.943 25.9723 287.179 25.718C287.424 25.4637 287.547 25.1141 287.547 24.6691C287.547 24.2605 287.397 23.9608 287.097 23.7701C286.807 23.5704 286.439 23.4705 285.994 23.4705C285.458 23.4705 285.018 23.6021 284.673 23.8655C284.328 24.1288 284.078 24.483 283.924 24.928L282.67 24.2333C282.825 23.8428 283.056 23.4932 283.365 23.1844C283.683 22.8757 284.069 22.635 284.523 22.4625C284.977 22.29 285.499 22.2037 286.089 22.2037C286.661 22.2037 287.17 22.299 287.615 22.4897C288.069 22.6714 288.423 22.9392 288.677 23.2934C288.932 23.6385 289.059 24.0516 289.059 24.5329C289.059 25.1141 288.923 25.6045 288.65 26.004C288.387 26.3945 288.014 26.7033 287.533 26.9303C287.052 27.1482 286.498 27.2799 285.871 27.3253L285.585 28.4423H284.182ZM284.4 31.4253C284.128 31.4253 283.905 31.3527 283.733 31.2074C283.56 31.0621 283.474 30.8623 283.474 30.608C283.474 30.2721 283.574 30.0042 283.774 29.8044C283.973 29.6046 284.228 29.5047 284.536 29.5047C284.809 29.5047 285.031 29.5819 285.204 29.7363C285.376 29.8816 285.463 30.0814 285.463 30.3356C285.463 30.6716 285.363 30.9395 285.163 31.1393C284.963 31.33 284.709 31.4253 284.4 31.4253Z" fill="black"/>
<g filter="url(#filter1_d_1432_941)">
<mask id="path-4-inside-2_1432_941" fill="white">
<path fill-rule="evenodd" clip-rule="evenodd" d="M431.999 0.348633C424.819 0.348633 418.999 6.16893 418.999 13.3486V43.3486C418.999 50.5283 424.819 56.3486 431.999 56.3486H657.195C660.891 60.3831 668.903 66.3152 681.386 68.4637C678.345 66.188 672.984 61.3318 670.259 56.3486H688.999C696.179 56.3486 701.999 50.5283 701.999 43.3486V13.3486C701.999 6.16893 696.179 0.348633 688.999 0.348633H431.999Z"/>
</mask>
<path fill-rule="evenodd" clip-rule="evenodd" d="M431.999 0.348633C424.819 0.348633 418.999 6.16893 418.999 13.3486V43.3486C418.999 50.5283 424.819 56.3486 431.999 56.3486H657.195C660.891 60.3831 668.903 66.3152 681.386 68.4637C678.345 66.188 672.984 61.3318 670.259 56.3486H688.999C696.179 56.3486 701.999 50.5283 701.999 43.3486V13.3486C701.999 6.16893 696.179 0.348633 688.999 0.348633H431.999Z" fill="white"/>
<path d="M657.195 56.3486L657.614 55.9652L657.445 55.7811H657.195V56.3486ZM681.386 68.4637L681.29 69.0231L681.727 68.0093L681.386 68.4637ZM670.259 56.3486V55.7811H669.302L669.761 56.6209L670.259 56.3486ZM418.999 13.3486H419.567C419.567 6.48238 425.133 0.916188 431.999 0.916188V0.348633V-0.218922C424.506 -0.218922 418.431 5.85548 418.431 13.3486H418.999ZM418.999 43.3486H419.567V13.3486H418.999H418.431V43.3486H418.999ZM431.999 56.3486V55.7811C425.133 55.7811 419.567 50.2149 419.567 43.3486H418.999H418.431C418.431 50.8418 424.506 56.9162 431.999 56.9162V56.3486ZM657.195 56.3486V55.7811H431.999V56.3486V56.9162H657.195V56.3486ZM681.386 68.4637L681.483 67.9044C669.132 65.7787 661.231 59.9136 657.614 55.9652L657.195 56.3486L656.777 56.732C660.552 60.8527 668.675 66.8518 681.29 69.0231L681.386 68.4637ZM670.259 56.3486L669.761 56.6209C672.543 61.7088 677.98 66.6234 681.046 68.9181L681.386 68.4637L681.727 68.0093C678.711 65.7527 673.425 60.9547 670.757 56.0763L670.259 56.3486ZM688.999 56.3486V55.7811H670.259V56.3486V56.9162H688.999V56.3486ZM701.999 43.3486H701.431C701.431 50.2149 695.865 55.7811 688.999 55.7811V56.3486V56.9162C696.492 56.9162 702.567 50.8418 702.567 43.3486H701.999ZM701.999 13.3486H701.431V43.3486H701.999H702.567V13.3486H701.999ZM688.999 0.348633V0.916188C695.865 0.916188 701.431 6.48238 701.431 13.3486H701.999H702.567C702.567 5.85548 696.492 -0.218922 688.999 -0.218922V0.348633ZM431.999 0.348633V0.916188H688.999V0.348633V-0.218922H431.999V0.348633Z" fill="#DADDDD" mask="url(#path-4-inside-2_1432_941)"/>
</g>
<path d="M516.652 13.3587V22.3488H515.181V13.3587H516.652ZM510.74 13.3587V22.3488H509.283V13.3587H510.74ZM515.916 17.1727V18.4258H510.018V17.1727H515.916ZM521.971 15.4019C522.634 15.4019 523.219 15.5426 523.728 15.8241C524.236 16.1056 524.631 16.5143 524.913 17.0501C525.204 17.5768 525.349 18.2079 525.349 18.9434C525.349 19.679 525.204 20.3146 524.913 20.8504C524.631 21.3771 524.236 21.7812 523.728 22.0627C523.219 22.3442 522.634 22.485 521.971 22.485C521.308 22.485 520.722 22.3442 520.214 22.0627C519.705 21.7812 519.305 21.3771 519.015 20.8504C518.724 20.3146 518.579 19.679 518.579 18.9434C518.579 18.2079 518.724 17.5768 519.015 17.0501C519.305 16.5143 519.705 16.1056 520.214 15.8241C520.722 15.5426 521.308 15.4019 521.971 15.4019ZM521.971 16.5461C521.562 16.5461 521.212 16.6414 520.922 16.8321C520.64 17.0137 520.422 17.2816 520.268 17.6358C520.114 17.9899 520.037 18.4258 520.037 18.9434C520.037 19.452 520.114 19.8878 520.268 20.2511C520.422 20.6052 520.64 20.8777 520.922 21.0684C521.212 21.25 521.562 21.3408 521.971 21.3408C522.379 21.3408 522.724 21.25 523.006 21.0684C523.287 20.8777 523.505 20.6052 523.66 20.2511C523.814 19.8878 523.891 19.452 523.891 18.9434C523.891 18.4258 523.814 17.9899 523.66 17.6358C523.505 17.2816 523.287 17.0137 523.006 16.8321C522.724 16.6414 522.379 16.5461 521.971 16.5461ZM535.646 15.5381H537.226L534.938 22.3488H533.344L531.628 17.2952L530.007 22.3488H528.413L526.138 15.5381H527.705L529.258 20.9185L530.947 15.5381H532.404L534.093 20.9185L535.646 15.5381ZM551.116 15.5381H552.696L550.408 22.3488H548.814L547.098 17.2952L545.477 22.3488H543.883L541.609 15.5381H543.175L544.728 20.9185L546.417 15.5381H547.874L549.563 20.9185L551.116 15.5381ZM556.862 15.4019C557.525 15.4019 558.111 15.5426 558.619 15.8241C559.128 16.1056 559.523 16.5143 559.804 17.0501C560.095 17.5768 560.24 18.2079 560.24 18.9434C560.24 19.679 560.095 20.3146 559.804 20.8504C559.523 21.3771 559.128 21.7812 558.619 22.0627C558.111 22.3442 557.525 22.485 556.862 22.485C556.199 22.485 555.613 22.3442 555.105 22.0627C554.596 21.7812 554.197 21.3771 553.906 20.8504C553.616 20.3146 553.47 19.679 553.47 18.9434C553.47 18.2079 553.616 17.5768 553.906 17.0501C554.197 16.5143 554.596 16.1056 555.105 15.8241C555.613 15.5426 556.199 15.4019 556.862 15.4019ZM556.862 16.5461C556.453 16.5461 556.104 16.6414 555.813 16.8321C555.532 17.0137 555.314 17.2816 555.159 17.6358C555.005 17.9899 554.928 18.4258 554.928 18.9434C554.928 19.452 555.005 19.8878 555.159 20.2511C555.314 20.6052 555.532 20.8777 555.813 21.0684C556.104 21.25 556.453 21.3408 556.862 21.3408C557.271 21.3408 557.616 21.25 557.897 21.0684C558.179 20.8777 558.397 20.6052 558.551 20.2511C558.705 19.8878 558.783 19.452 558.783 18.9434C558.783 18.4258 558.705 17.9899 558.551 17.6358C558.397 17.2816 558.179 17.0137 557.897 16.8321C557.616 16.6414 557.271 16.5461 556.862 16.5461ZM564.498 22.485C564.053 22.485 563.64 22.4032 563.259 22.2398C562.886 22.0763 562.587 21.813 562.36 21.4497C562.133 21.0865 562.019 20.6143 562.019 20.0331V15.5381H563.477V19.6654C563.477 20.2829 563.608 20.7097 563.872 20.9458C564.135 21.1728 564.503 21.2863 564.975 21.2863C565.202 21.2863 565.42 21.25 565.629 21.1773C565.847 21.0956 566.042 20.973 566.215 20.8095C566.387 20.637 566.519 20.4191 566.61 20.1557C566.71 19.8924 566.759 19.5836 566.759 19.2295V15.5381H568.217V22.3488H566.937L566.868 21.2454C566.632 21.6722 566.314 21.9855 565.915 22.1853C565.515 22.3851 565.043 22.485 564.498 22.485ZM571.911 12.4733V20.4418C571.911 20.7778 571.97 21.0093 572.088 21.1365C572.206 21.2636 572.401 21.3272 572.673 21.3272C572.837 21.3272 572.973 21.3181 573.082 21.2999C573.2 21.2727 573.345 21.2273 573.518 21.1637L573.354 22.2534C573.2 22.3261 573.023 22.3805 572.823 22.4169C572.623 22.4623 572.424 22.485 572.224 22.485C571.615 22.485 571.166 22.3306 570.875 22.0218C570.594 21.704 570.453 21.2182 570.453 20.5644V12.4733H571.911ZM577.353 22.485C576.79 22.485 576.276 22.3442 575.813 22.0627C575.359 21.7812 575.001 21.3771 574.737 20.8504C574.474 20.3237 574.342 19.6926 574.342 18.957C574.342 18.1943 574.483 17.5495 574.765 17.0228C575.046 16.4961 575.423 16.0966 575.895 15.8241C576.367 15.5426 576.885 15.4019 577.448 15.4019C578.029 15.4019 578.519 15.5608 578.919 15.8786C579.319 16.1965 579.586 16.6096 579.723 17.1182L579.559 17.268V12.4733H581.017V22.3488H579.723L579.614 20.4963L579.804 20.5099C579.741 20.9185 579.591 21.2727 579.355 21.5723C579.119 21.8629 578.824 22.0899 578.47 22.2534C578.124 22.4078 577.752 22.485 577.353 22.485ZM577.666 21.3135C578.056 21.3135 578.392 21.2136 578.674 21.0139C578.955 20.8141 579.173 20.5326 579.328 20.1693C579.482 19.8061 579.559 19.3702 579.559 18.8617C579.559 18.3895 579.482 17.9854 579.328 17.6494C579.173 17.3043 578.955 17.041 578.674 16.8594C578.401 16.6777 578.084 16.5869 577.72 16.5869C577.112 16.5869 576.64 16.7958 576.304 17.2135C575.968 17.6312 575.8 18.2079 575.8 18.9434C575.8 19.679 575.963 20.2602 576.29 20.687C576.617 21.1047 577.076 21.3135 577.666 21.3135ZM593.407 15.5381L590.424 23.1524C590.224 23.6791 590.006 24.0968 589.77 24.4056C589.543 24.7143 589.28 24.9368 588.98 25.073C588.681 25.2092 588.331 25.2773 587.931 25.2773C587.605 25.2773 587.3 25.2319 587.019 25.1411C586.746 25.0594 586.506 24.9459 586.297 24.8006L586.651 23.67C586.824 23.8153 587.005 23.9243 587.196 23.9969C587.396 24.0696 587.609 24.1059 587.836 24.1059C588.081 24.1059 588.299 24.0378 588.49 23.9016C588.69 23.7745 588.867 23.5156 589.021 23.1252L589.321 22.3896L588.599 20.7006L586.474 15.5381H588.109L589.621 19.8152L590.016 21.0956L590.465 19.6926L591.895 15.5381H593.407ZM597.566 15.4019C598.229 15.4019 598.815 15.5426 599.324 15.8241C599.832 16.1056 600.227 16.5143 600.509 17.0501C600.799 17.5768 600.945 18.2079 600.945 18.9434C600.945 19.679 600.799 20.3146 600.509 20.8504C600.227 21.3771 599.832 21.7812 599.324 22.0627C598.815 22.3442 598.229 22.485 597.566 22.485C596.904 22.485 596.318 22.3442 595.809 22.0627C595.301 21.7812 594.901 21.3771 594.611 20.8504C594.32 20.3146 594.175 19.679 594.175 18.9434C594.175 18.2079 594.32 17.5768 594.611 17.0501C594.901 16.5143 595.301 16.1056 595.809 15.8241C596.318 15.5426 596.904 15.4019 597.566 15.4019ZM597.566 16.5461C597.158 16.5461 596.808 16.6414 596.518 16.8321C596.236 17.0137 596.018 17.2816 595.864 17.6358C595.709 17.9899 595.632 18.4258 595.632 18.9434C595.632 19.452 595.709 19.8878 595.864 20.2511C596.018 20.6052 596.236 20.8777 596.518 21.0684C596.808 21.25 597.158 21.3408 597.566 21.3408C597.975 21.3408 598.32 21.25 598.602 21.0684C598.883 20.8777 599.101 20.6052 599.255 20.2511C599.41 19.8878 599.487 19.452 599.487 18.9434C599.487 18.4258 599.41 17.9899 599.255 17.6358C599.101 17.2816 598.883 17.0137 598.602 16.8321C598.32 16.6414 597.975 16.5461 597.566 16.5461ZM605.203 22.485C604.758 22.485 604.345 22.4032 603.963 22.2398C603.591 22.0763 603.291 21.813 603.064 21.4497C602.837 21.0865 602.724 20.6143 602.724 20.0331V15.5381H604.181V19.6654C604.181 20.2829 604.313 20.7097 604.576 20.9458C604.839 21.1728 605.207 21.2863 605.679 21.2863C605.906 21.2863 606.124 21.25 606.333 21.1773C606.551 21.0956 606.746 20.973 606.919 20.8095C607.091 20.637 607.223 20.4191 607.314 20.1557C607.414 19.8924 607.464 19.5836 607.464 19.2295V15.5381H608.921V22.3488H607.641L607.573 21.2454C607.337 21.6722 607.019 21.9855 606.619 22.1853C606.22 22.3851 605.748 22.485 605.203 22.485ZM618.243 22.485C617.68 22.485 617.167 22.3442 616.704 22.0627C616.25 21.7812 615.891 21.3771 615.628 20.8504C615.365 20.3237 615.233 19.6926 615.233 18.957C615.233 18.1943 615.374 17.5495 615.655 17.0228C615.937 16.4961 616.313 16.0966 616.786 15.8241C617.258 15.5426 617.775 15.4019 618.339 15.4019C618.92 15.4019 619.41 15.5608 619.81 15.8786C620.209 16.1965 620.477 16.6096 620.613 17.1182L620.45 17.268V12.4733H621.907V22.3488H620.613L620.504 20.4963L620.695 20.5099C620.631 20.9185 620.482 21.2727 620.245 21.5723C620.009 21.8629 619.714 22.0899 619.36 22.2534C619.015 22.4078 618.643 22.485 618.243 22.485ZM618.556 21.3135C618.947 21.3135 619.283 21.2136 619.564 21.0139C619.846 20.8141 620.064 20.5326 620.218 20.1693C620.373 19.8061 620.45 19.3702 620.45 18.8617C620.45 18.3895 620.373 17.9854 620.218 17.6494C620.064 17.3043 619.846 17.041 619.564 16.8594C619.292 16.6777 618.974 16.5869 618.611 16.5869C618.003 16.5869 617.53 16.7958 617.194 17.2135C616.858 17.6312 616.69 18.2079 616.69 18.9434C616.69 19.679 616.854 20.2602 617.181 20.687C617.508 21.1047 617.966 21.3135 618.556 21.3135ZM627.164 22.485C626.483 22.485 625.884 22.3442 625.366 22.0627C624.849 21.7812 624.445 21.3771 624.154 20.8504C623.873 20.3146 623.732 19.679 623.732 18.9434C623.732 18.2079 623.873 17.5768 624.154 17.0501C624.445 16.5143 624.844 16.1056 625.353 15.8241C625.861 15.5426 626.438 15.4019 627.083 15.4019C627.746 15.4019 628.309 15.5381 628.772 15.8105C629.235 16.0829 629.589 16.4553 629.834 16.9275C630.079 17.3997 630.202 17.9354 630.202 18.5348C630.202 18.6982 630.198 18.8526 630.188 18.9979C630.179 19.1432 630.166 19.2703 630.148 19.3793H624.672V18.2624H629.507L628.785 18.4803C628.785 17.8628 628.631 17.3906 628.322 17.0637C628.014 16.7277 627.591 16.5597 627.056 16.5597C626.665 16.5597 626.325 16.6505 626.034 16.8321C625.743 17.0137 625.521 17.2862 625.366 17.6494C625.212 18.0036 625.135 18.4394 625.135 18.957C625.135 19.4656 625.217 19.8969 625.38 20.2511C625.544 20.6052 625.775 20.8731 626.075 21.0547C626.374 21.2363 626.729 21.3272 627.137 21.3272C627.591 21.3272 627.959 21.2409 628.241 21.0684C628.522 20.8958 628.745 20.6552 628.908 20.3464L630.066 20.8913C629.902 21.2182 629.68 21.5042 629.398 21.7494C629.126 21.9855 628.799 22.1671 628.418 22.2943C628.036 22.4214 627.619 22.485 627.164 22.485ZM634.631 22.485C633.95 22.485 633.328 22.3533 632.765 22.0899C632.202 21.8266 631.757 21.4543 631.43 20.973L632.438 20.1012C632.637 20.4736 632.923 20.7732 633.296 21.0002C633.677 21.2182 634.131 21.3272 634.658 21.3272C635.076 21.3272 635.407 21.2545 635.652 21.1092C635.897 20.9639 636.02 20.7596 636.02 20.4963C636.02 20.3237 635.961 20.1739 635.843 20.0468C635.734 19.9105 635.521 19.8061 635.203 19.7335L633.773 19.4338C633.046 19.2885 632.528 19.0569 632.22 18.7391C631.911 18.4122 631.757 17.999 631.757 17.4996C631.757 17.1272 631.866 16.7822 632.083 16.4643C632.301 16.1465 632.619 15.8922 633.037 15.7015C633.464 15.5018 633.972 15.4019 634.563 15.4019C635.244 15.4019 635.825 15.5245 636.306 15.7697C636.787 16.0058 637.155 16.3463 637.409 16.7913L636.401 17.6358C636.229 17.2725 635.975 17.0047 635.639 16.8321C635.303 16.6505 634.953 16.5597 634.59 16.5597C634.299 16.5597 634.05 16.596 633.841 16.6687C633.632 16.7413 633.473 16.8412 633.364 16.9683C633.255 17.0955 633.2 17.2453 633.2 17.4178C633.2 17.5995 633.269 17.7584 633.405 17.8946C633.541 18.0308 633.786 18.1352 634.14 18.2079L635.693 18.5348C636.347 18.6619 636.806 18.8799 637.069 19.1886C637.341 19.4883 637.478 19.8561 637.478 20.2919C637.478 20.7278 637.364 21.1138 637.137 21.4497C636.91 21.7767 636.583 22.0309 636.156 22.2125C635.729 22.3942 635.221 22.485 634.631 22.485ZM642.181 15.4019C642.726 15.4019 643.189 15.4836 643.571 15.6471C643.961 15.8014 644.288 16.0239 644.551 16.3145C644.815 16.6051 645.015 16.9365 645.151 17.3089L643.775 17.8537C643.657 17.436 643.466 17.1182 643.203 16.9002C642.949 16.6732 642.613 16.5597 642.195 16.5597C641.786 16.5597 641.437 16.655 641.146 16.8457C640.855 17.0274 640.633 17.2952 640.479 17.6494C640.333 18.0036 640.261 18.4394 640.261 18.957C640.261 19.4656 640.338 19.8969 640.492 20.2511C640.647 20.6052 640.869 20.8731 641.16 21.0547C641.45 21.2363 641.795 21.3272 642.195 21.3272C642.504 21.3272 642.772 21.2772 642.999 21.1773C643.226 21.0684 643.412 20.9185 643.557 20.7278C643.711 20.528 643.816 20.2874 643.87 20.0059L645.192 20.4554C645.064 20.864 644.865 21.2227 644.592 21.5315C644.329 21.8311 643.997 22.0672 643.598 22.2398C643.198 22.4032 642.74 22.485 642.222 22.485C641.55 22.485 640.955 22.3442 640.438 22.0627C639.92 21.7812 639.516 21.3771 639.225 20.8504C638.944 20.3146 638.803 19.679 638.803 18.9434C638.803 18.2079 638.944 17.5768 639.225 17.0501C639.516 16.5143 639.916 16.1056 640.424 15.8241C640.942 15.5426 641.527 15.4019 642.181 15.4019ZM646.888 22.3488V15.5381H648.127L648.264 16.764C648.445 16.319 648.713 15.9831 649.067 15.756C649.43 15.5199 649.875 15.4019 650.402 15.4019C650.538 15.4019 650.674 15.4155 650.811 15.4427C650.947 15.4609 651.06 15.4927 651.151 15.5381L650.947 16.8185C650.847 16.7822 650.734 16.7549 650.606 16.7368C650.488 16.7095 650.325 16.6959 650.116 16.6959C649.835 16.6959 649.558 16.7731 649.285 16.9275C649.013 17.0728 648.786 17.2952 648.604 17.5949C648.432 17.8946 648.345 18.276 648.345 18.7391V22.3488H646.888ZM653.263 14.3939C652.946 14.3939 652.7 14.3167 652.528 14.1623C652.364 13.9989 652.283 13.7719 652.283 13.4813C652.283 13.1907 652.364 12.9682 652.528 12.8138C652.7 12.6595 652.946 12.5823 653.263 12.5823C653.572 12.5823 653.808 12.6595 653.972 12.8138C654.144 12.9682 654.23 13.1907 654.23 13.4813C654.23 13.7719 654.144 13.9989 653.972 14.1623C653.808 14.3167 653.572 14.3939 653.263 14.3939ZM653.985 15.5381V22.3488H652.528V15.5381H653.985ZM659.916 22.485C659.517 22.485 659.149 22.4078 658.813 22.2534C658.486 22.099 658.209 21.8856 657.982 21.6132C657.755 21.3317 657.587 21.0184 657.478 20.6733L657.655 20.4418L657.546 22.3488H656.266V12.4733H657.723V17.2544L657.56 17.0228C657.732 16.5506 658.027 16.1647 658.445 15.865C658.863 15.5563 659.367 15.4019 659.957 15.4019C660.502 15.4019 661.001 15.5426 661.455 15.8241C661.919 16.1056 662.282 16.5097 662.545 17.0364C662.808 17.5631 662.94 18.2033 662.94 18.957C662.94 19.6926 662.804 20.3237 662.532 20.8504C662.268 21.3771 661.905 21.7812 661.442 22.0627C660.988 22.3442 660.479 22.485 659.916 22.485ZM659.603 21.3135C660.193 21.3135 660.652 21.1047 660.979 20.687C661.315 20.2602 661.483 19.679 661.483 18.9434C661.483 18.2079 661.319 17.6312 660.992 17.2135C660.665 16.7958 660.207 16.5869 659.617 16.5869C659.235 16.5869 658.904 16.6868 658.622 16.8866C658.341 17.0773 658.118 17.3497 657.955 17.7039C657.8 18.058 657.723 18.4803 657.723 18.9707C657.723 19.452 657.8 19.8697 657.955 20.2238C658.109 20.5689 658.327 20.8368 658.609 21.0275C658.899 21.2182 659.231 21.3135 659.603 21.3135ZM667.802 22.485C667.121 22.485 666.522 22.3442 666.004 22.0627C665.487 21.7812 665.083 21.3771 664.792 20.8504C664.511 20.3146 664.37 19.679 664.37 18.9434C664.37 18.2079 664.511 17.5768 664.792 17.0501C665.083 16.5143 665.482 16.1056 665.991 15.8241C666.499 15.5426 667.076 15.4019 667.721 15.4019C668.384 15.4019 668.947 15.5381 669.41 15.8105C669.873 16.0829 670.227 16.4553 670.472 16.9275C670.717 17.3997 670.84 17.9354 670.84 18.5348C670.84 18.6982 670.835 18.8526 670.826 18.9979C670.817 19.1432 670.804 19.2703 670.785 19.3793H665.31V18.2624H670.145L669.423 18.4803C669.423 17.8628 669.269 17.3906 668.96 17.0637C668.651 16.7277 668.229 16.5597 667.693 16.5597C667.303 16.5597 666.962 16.6505 666.672 16.8321C666.381 17.0137 666.159 17.2862 666.004 17.6494C665.85 18.0036 665.773 18.4394 665.773 18.957C665.773 19.4656 665.854 19.8969 666.018 20.2511C666.181 20.6052 666.413 20.8731 666.713 21.0547C667.012 21.2363 667.366 21.3272 667.775 21.3272C668.229 21.3272 668.597 21.2409 668.878 21.0684C669.16 20.8958 669.382 20.6552 669.546 20.3464L670.704 20.8913C670.54 21.2182 670.318 21.5042 670.036 21.7494C669.764 21.9855 669.437 22.1671 669.056 22.2943C668.674 22.4214 668.256 22.485 667.802 22.485ZM455.497 30.6311H453.494V40.4793H455.497V41.6371H452.173V29.4733H455.497V30.6311ZM463.483 32.5381L460.446 35.6438L460.132 35.8617L457.994 38.082L457.98 36.4202L461.753 32.5381H463.483ZM458.511 29.4733V39.3488H457.054V29.4733H458.511ZM460.623 34.8265L463.647 39.3488H461.957L459.533 35.6574L460.623 34.8265ZM467.713 39.485C467.031 39.485 466.432 39.3442 465.914 39.0627C465.397 38.7812 464.993 38.3771 464.702 37.8504C464.421 37.3146 464.28 36.679 464.28 35.9434C464.28 35.2079 464.421 34.5768 464.702 34.0501C464.993 33.5143 465.392 33.1056 465.901 32.8241C466.409 32.5426 466.986 32.4019 467.631 32.4019C468.294 32.4019 468.857 32.5381 469.32 32.8105C469.783 33.0829 470.137 33.4553 470.382 33.9275C470.627 34.3997 470.75 34.9354 470.75 35.5348C470.75 35.6982 470.746 35.8526 470.736 35.9979C470.727 36.1432 470.714 36.2703 470.696 36.3793H465.22V35.2624H470.055L469.333 35.4803C469.333 34.8628 469.179 34.3906 468.87 34.0637C468.562 33.7277 468.139 33.5597 467.604 33.5597C467.213 33.5597 466.873 33.6505 466.582 33.8321C466.291 34.0137 466.069 34.2862 465.914 34.6494C465.76 35.0036 465.683 35.4394 465.683 35.957C465.683 36.4656 465.765 36.8969 465.928 37.2511C466.092 37.6052 466.323 37.8731 466.623 38.0547C466.922 38.2363 467.277 38.3272 467.685 38.3272C468.139 38.3272 468.507 38.2409 468.789 38.0684C469.07 37.8958 469.293 37.6552 469.456 37.3464L470.614 37.8913C470.45 38.2182 470.228 38.5042 469.946 38.7494C469.674 38.9855 469.347 39.1671 468.966 39.2943C468.584 39.4214 468.167 39.485 467.713 39.485ZM478.264 32.5381L475.281 40.1524C475.082 40.6791 474.864 41.0968 474.628 41.4056C474.401 41.7143 474.137 41.9368 473.838 42.073C473.538 42.2092 473.188 42.2773 472.789 42.2773C472.462 42.2773 472.158 42.2319 471.876 42.1411C471.604 42.0594 471.363 41.9459 471.154 41.8006L471.508 40.67C471.681 40.8153 471.862 40.9243 472.053 40.9969C472.253 41.0696 472.466 41.1059 472.693 41.1059C472.939 41.1059 473.156 41.0378 473.347 40.9016C473.547 40.7745 473.724 40.5156 473.878 40.1252L474.178 39.3896L473.456 37.7006L471.331 32.5381H472.966L474.478 36.8152L474.873 38.0956L475.322 36.6926L476.752 32.5381H478.264ZM486.547 32.4019C487.092 32.4019 487.555 32.4836 487.936 32.6471C488.327 32.8014 488.654 33.0239 488.917 33.3145C489.18 33.6051 489.38 33.9365 489.516 34.3089L488.141 34.8537C488.023 34.436 487.832 34.1182 487.569 33.9002C487.314 33.6732 486.978 33.5597 486.561 33.5597C486.152 33.5597 485.802 33.655 485.512 33.8457C485.221 34.0274 484.999 34.2952 484.844 34.6494C484.699 35.0036 484.626 35.4394 484.626 35.957C484.626 36.4656 484.704 36.8969 484.858 37.2511C485.012 37.6052 485.235 37.8731 485.525 38.0547C485.816 38.2363 486.161 38.3272 486.561 38.3272C486.869 38.3272 487.137 38.2772 487.364 38.1773C487.591 38.0684 487.777 37.9185 487.923 37.7278C488.077 37.528 488.182 37.2874 488.236 37.0059L489.557 37.4554C489.43 37.864 489.23 38.2227 488.958 38.5315C488.695 38.8311 488.363 39.0672 487.964 39.2398C487.564 39.4032 487.105 39.485 486.588 39.485C485.916 39.485 485.321 39.3442 484.803 39.0627C484.286 38.7812 483.882 38.3771 483.591 37.8504C483.31 37.3146 483.169 36.679 483.169 35.9434C483.169 35.2079 483.31 34.5768 483.591 34.0501C483.882 33.5143 484.281 33.1056 484.79 32.8241C485.307 32.5426 485.893 32.4019 486.547 32.4019ZM494.209 32.4019C494.872 32.4019 495.458 32.5426 495.966 32.8241C496.475 33.1056 496.87 33.5143 497.151 34.0501C497.442 34.5768 497.587 35.2079 497.587 35.9434C497.587 36.679 497.442 37.3146 497.151 37.8504C496.87 38.3771 496.475 38.7812 495.966 39.0627C495.458 39.3442 494.872 39.485 494.209 39.485C493.546 39.485 492.961 39.3442 492.452 39.0627C491.944 38.7812 491.544 38.3771 491.253 37.8504C490.963 37.3146 490.818 36.679 490.818 35.9434C490.818 35.2079 490.963 34.5768 491.253 34.0501C491.544 33.5143 491.944 33.1056 492.452 32.8241C492.961 32.5426 493.546 32.4019 494.209 32.4019ZM494.209 33.5461C493.801 33.5461 493.451 33.6414 493.16 33.8321C492.879 34.0137 492.661 34.2816 492.507 34.6358C492.352 34.9899 492.275 35.4258 492.275 35.9434C492.275 36.452 492.352 36.8878 492.507 37.2511C492.661 37.6052 492.879 37.8777 493.16 38.0684C493.451 38.25 493.801 38.3408 494.209 38.3408C494.618 38.3408 494.963 38.25 495.245 38.0684C495.526 37.8777 495.744 37.6052 495.898 37.2511C496.053 36.8878 496.13 36.452 496.13 35.9434C496.13 35.4258 496.053 34.9899 495.898 34.6358C495.744 34.2816 495.526 34.0137 495.245 33.8321C494.963 33.6414 494.618 33.5461 494.209 33.5461ZM499.421 39.3488V32.5381H500.715L500.81 34.3089L500.62 34.1182C500.747 33.7277 500.928 33.4053 501.164 33.1511C501.41 32.8877 501.696 32.697 502.023 32.579C502.359 32.4609 502.713 32.4019 503.085 32.4019C503.566 32.4019 503.998 32.4972 504.379 32.6879C504.77 32.8695 505.078 33.1465 505.305 33.5188C505.532 33.8911 505.646 34.3633 505.646 34.9354V39.3488H504.188V35.3849C504.188 34.713 504.048 34.2498 503.766 33.9956C503.494 33.7322 503.149 33.6006 502.731 33.6006C502.431 33.6006 502.141 33.6732 501.859 33.8185C501.578 33.9547 501.342 34.1772 501.151 34.4859C500.969 34.7947 500.878 35.2079 500.878 35.7255V39.3488H499.421ZM510.797 32.4019C511.342 32.4019 511.805 32.4836 512.186 32.6471C512.577 32.8014 512.903 33.0239 513.167 33.3145C513.43 33.6051 513.63 33.9365 513.766 34.3089L512.39 34.8537C512.272 34.436 512.082 34.1182 511.818 33.9002C511.564 33.6732 511.228 33.5597 510.81 33.5597C510.402 33.5597 510.052 33.655 509.761 33.8457C509.471 34.0274 509.248 34.2952 509.094 34.6494C508.949 35.0036 508.876 35.4394 508.876 35.957C508.876 36.4656 508.953 36.8969 509.108 37.2511C509.262 37.6052 509.484 37.8731 509.775 38.0547C510.066 38.2363 510.411 38.3272 510.81 38.3272C511.119 38.3272 511.387 38.2772 511.614 38.1773C511.841 38.0684 512.027 37.9185 512.172 37.7278C512.327 37.528 512.431 37.2874 512.486 37.0059L513.807 37.4554C513.68 37.864 513.48 38.2227 513.208 38.5315C512.944 38.8311 512.613 39.0672 512.213 39.2398C511.814 39.4032 511.355 39.485 510.838 39.485C510.166 39.485 509.571 39.3442 509.053 39.0627C508.536 38.7812 508.131 38.3771 507.841 37.8504C507.559 37.3146 507.419 36.679 507.419 35.9434C507.419 35.2079 507.559 34.5768 507.841 34.0501C508.131 33.5143 508.531 33.1056 509.04 32.8241C509.557 32.5426 510.143 32.4019 510.797 32.4019ZM518.5 39.485C517.819 39.485 517.219 39.3442 516.702 39.0627C516.184 38.7812 515.78 38.3771 515.49 37.8504C515.208 37.3146 515.067 36.679 515.067 35.9434C515.067 35.2079 515.208 34.5768 515.49 34.0501C515.78 33.5143 516.18 33.1056 516.688 32.8241C517.197 32.5426 517.773 32.4019 518.418 32.4019C519.081 32.4019 519.644 32.5381 520.107 32.8105C520.57 33.0829 520.924 33.4553 521.17 33.9275C521.415 34.3997 521.537 34.9354 521.537 35.5348C521.537 35.6982 521.533 35.8526 521.524 35.9979C521.515 36.1432 521.501 36.2703 521.483 36.3793H516.007V35.2624H520.843L520.121 35.4803C520.121 34.8628 519.966 34.3906 519.658 34.0637C519.349 33.7277 518.927 33.5597 518.391 33.5597C518 33.5597 517.66 33.6505 517.369 33.8321C517.079 34.0137 516.856 34.2862 516.702 34.6494C516.547 35.0036 516.47 35.4394 516.47 35.957C516.47 36.4656 516.552 36.8969 516.715 37.2511C516.879 37.6052 517.11 37.8731 517.41 38.0547C517.71 38.2363 518.064 38.3272 518.473 38.3272C518.927 38.3272 519.294 38.2409 519.576 38.0684C519.857 37.8958 520.08 37.6552 520.243 37.3464L521.401 37.8913C521.238 38.2182 521.015 38.5042 520.734 38.7494C520.461 38.9855 520.134 39.1671 519.753 39.2943C519.372 39.4214 518.954 39.485 518.5 39.485ZM523.378 42.2092V32.5381H524.672L524.781 34.4451L524.59 34.2135C524.699 33.8594 524.867 33.5461 525.094 33.2736C525.321 33.0012 525.603 32.7878 525.939 32.6334C526.284 32.4791 526.661 32.4019 527.069 32.4019C527.623 32.4019 528.127 32.5426 528.581 32.8241C529.035 33.1056 529.394 33.5097 529.657 34.0364C529.921 34.554 530.052 35.1852 530.052 35.9298C530.052 36.6744 529.916 37.3146 529.644 37.8504C529.38 38.3771 529.017 38.7812 528.554 39.0627C528.1 39.3442 527.591 39.485 527.028 39.485C526.447 39.485 525.952 39.3351 525.544 39.0355C525.135 38.7267 524.845 38.3362 524.672 37.864L524.835 37.6325V42.2092H523.378ZM526.715 38.2999C527.305 38.2999 527.764 38.0911 528.091 37.6733C528.427 37.2556 528.595 36.679 528.595 35.9434C528.595 35.2079 528.431 34.6312 528.105 34.2135C527.778 33.7867 527.324 33.5733 526.742 33.5733C526.361 33.5733 526.025 33.6732 525.734 33.873C525.453 34.0637 525.23 34.3361 525.067 34.6903C524.913 35.0353 524.835 35.4531 524.835 35.9434C524.835 36.4247 524.913 36.8424 525.067 37.1966C525.221 37.5507 525.439 37.8232 525.721 38.0139C526.002 38.2046 526.334 38.2999 526.715 38.2999ZM533.813 30.5358V37.3056C533.813 37.6415 533.9 37.8867 534.072 38.0411C534.254 38.1955 534.495 38.2727 534.794 38.2727C535.039 38.2727 535.253 38.2363 535.434 38.1637C535.616 38.082 535.784 37.973 535.938 37.8368L536.265 38.8993C536.056 39.0809 535.798 39.2262 535.489 39.3351C535.189 39.435 534.853 39.485 534.481 39.485C534.09 39.485 533.732 39.4214 533.405 39.2943C533.078 39.1671 532.824 38.9628 532.642 38.6813C532.46 38.3907 532.365 38.0139 532.356 37.5507V30.9444L533.813 30.5358ZM536.156 32.5381V33.6823H531.048V32.5381H536.156ZM536.757 40.4793H538.759V30.6311H536.757V29.4733H540.067V41.6371H536.757V40.4793ZM547.552 31.3939C547.234 31.3939 546.989 31.3167 546.816 31.1623C546.653 30.9989 546.571 30.7719 546.571 30.4813C546.571 30.1907 546.653 29.9682 546.816 29.8138C546.989 29.6595 547.234 29.5823 547.552 29.5823C547.861 29.5823 548.097 29.6595 548.26 29.8138C548.433 29.9682 548.519 30.1907 548.519 30.4813C548.519 30.7719 548.433 30.9989 548.26 31.1623C548.097 31.3167 547.861 31.3939 547.552 31.3939ZM548.274 32.5381V39.3488H546.816V32.5381H548.274ZM550.554 39.3488V32.5381H551.848L551.943 34.3089L551.753 34.1182C551.88 33.7277 552.062 33.4053 552.298 33.1511C552.543 32.8877 552.829 32.697 553.156 32.579C553.492 32.4609 553.846 32.4019 554.218 32.4019C554.7 32.4019 555.131 32.4972 555.512 32.6879C555.903 32.8695 556.211 33.1465 556.439 33.5188C556.666 33.8911 556.779 34.3633 556.779 34.9354V39.3488H555.322V35.3849C555.322 34.713 555.181 34.2498 554.899 33.9956C554.627 33.7322 554.282 33.6006 553.864 33.6006C553.564 33.6006 553.274 33.6732 552.992 33.8185C552.711 33.9547 552.475 34.1772 552.284 34.4859C552.102 34.7947 552.012 35.2079 552.012 35.7255V39.3488H550.554ZM569.118 32.5381L566.135 40.1524C565.935 40.6791 565.717 41.0968 565.481 41.4056C565.254 41.7143 564.99 41.9368 564.691 42.073C564.391 42.2092 564.041 42.2773 563.642 42.2773C563.315 42.2773 563.011 42.2319 562.729 42.1411C562.457 42.0594 562.216 41.9459 562.007 41.8006L562.361 40.67C562.534 40.8153 562.716 40.9243 562.906 40.9969C563.106 41.0696 563.319 41.1059 563.547 41.1059C563.792 41.1059 564.01 41.0378 564.2 40.9016C564.4 40.7745 564.577 40.5156 564.732 40.1252L565.031 39.3896L564.309 37.7006L562.184 32.5381H563.819L565.331 36.8152L565.726 38.0956L566.175 36.6926L567.606 32.5381H569.118ZM573.277 32.4019C573.94 32.4019 574.525 32.5426 575.034 32.8241C575.543 33.1056 575.938 33.5143 576.219 34.0501C576.51 34.5768 576.655 35.2079 576.655 35.9434C576.655 36.679 576.51 37.3146 576.219 37.8504C575.938 38.3771 575.543 38.7812 575.034 39.0627C574.525 39.3442 573.94 39.485 573.277 39.485C572.614 39.485 572.028 39.3442 571.52 39.0627C571.011 38.7812 570.612 38.3771 570.321 37.8504C570.03 37.3146 569.885 36.679 569.885 35.9434C569.885 35.2079 570.03 34.5768 570.321 34.0501C570.612 33.5143 571.011 33.1056 571.52 32.8241C572.028 32.5426 572.614 32.4019 573.277 32.4019ZM573.277 33.5461C572.868 33.5461 572.519 33.6414 572.228 33.8321C571.946 34.0137 571.729 34.2816 571.574 34.6358C571.42 34.9899 571.343 35.4258 571.343 35.9434C571.343 36.452 571.42 36.8878 571.574 37.2511C571.729 37.6052 571.946 37.8777 572.228 38.0684C572.519 38.25 572.868 38.3408 573.277 38.3408C573.685 38.3408 574.031 38.25 574.312 38.0684C574.594 37.8777 574.811 37.6052 574.966 37.2511C575.12 36.8878 575.197 36.452 575.197 35.9434C575.197 35.4258 575.12 34.9899 574.966 34.6358C574.811 34.2816 574.594 34.0137 574.312 33.8321C574.031 33.6414 573.685 33.5461 573.277 33.5461ZM580.913 39.485C580.468 39.485 580.055 39.4032 579.674 39.2398C579.301 39.0763 579.002 38.813 578.775 38.4497C578.547 38.0865 578.434 37.6143 578.434 37.0331V32.5381H579.891V36.6654C579.891 37.2829 580.023 37.7097 580.286 37.9458C580.55 38.1728 580.918 38.2863 581.39 38.2863C581.617 38.2863 581.835 38.25 582.044 38.1773C582.262 38.0956 582.457 37.973 582.629 37.8095C582.802 37.637 582.934 37.4191 583.024 37.1557C583.124 36.8924 583.174 36.5836 583.174 36.2295V32.5381H584.632V39.3488H583.351L583.283 38.2454C583.047 38.6722 582.729 38.9855 582.33 39.1853C581.93 39.3851 581.458 39.485 580.913 39.485ZM586.909 39.3488V32.5381H588.148L588.284 33.764C588.466 33.319 588.734 32.9831 589.088 32.756C589.451 32.5199 589.896 32.4019 590.423 32.4019C590.559 32.4019 590.695 32.4155 590.832 32.4427C590.968 32.4609 591.081 32.4927 591.172 32.5381L590.968 33.8185C590.868 33.7822 590.754 33.7549 590.627 33.7368C590.509 33.7095 590.346 33.6959 590.137 33.6959C589.855 33.6959 589.578 33.7731 589.306 33.9275C589.034 34.0728 588.807 34.2952 588.625 34.5949C588.452 34.8946 588.366 35.276 588.366 35.7391V39.3488H586.909ZM599.642 32.4019C600.304 32.4019 600.89 32.5426 601.399 32.8241C601.907 33.1056 602.302 33.5143 602.584 34.0501C602.874 34.5768 603.02 35.2079 603.02 35.9434C603.02 36.679 602.874 37.3146 602.584 37.8504C602.302 38.3771 601.907 38.7812 601.399 39.0627C600.89 39.3442 600.304 39.485 599.642 39.485C598.979 39.485 598.393 39.3442 597.884 39.0627C597.376 38.7812 596.976 38.3771 596.686 37.8504C596.395 37.3146 596.25 36.679 596.25 35.9434C596.25 35.2079 596.395 34.5768 596.686 34.0501C596.976 33.5143 597.376 33.1056 597.884 32.8241C598.393 32.5426 598.979 32.4019 599.642 32.4019ZM599.642 33.5461C599.233 33.5461 598.883 33.6414 598.593 33.8321C598.311 34.0137 598.093 34.2816 597.939 34.6358C597.784 34.9899 597.707 35.4258 597.707 35.9434C597.707 36.452 597.784 36.8878 597.939 37.2511C598.093 37.6052 598.311 37.8777 598.593 38.0684C598.883 38.25 599.233 38.3408 599.642 38.3408C600.05 38.3408 600.395 38.25 600.677 38.0684C600.958 37.8777 601.176 37.6052 601.331 37.2511C601.485 36.8878 601.562 36.452 601.562 35.9434C601.562 35.4258 601.485 34.9899 601.331 34.6358C601.176 34.2816 600.958 34.0137 600.677 33.8321C600.395 33.6414 600.05 33.5461 599.642 33.5461ZM613.317 32.5381H614.897L612.609 39.3488H611.015L609.299 34.2952L607.678 39.3488H606.084L603.809 32.5381H605.376L606.928 37.9185L608.617 32.5381H610.075L611.764 37.9185L613.317 32.5381ZM616.306 39.3488V32.5381H617.6L617.696 34.3089L617.505 34.1182C617.632 33.7277 617.814 33.4053 618.05 33.1511C618.295 32.8877 618.581 32.697 618.908 32.579C619.244 32.4609 619.598 32.4019 619.97 32.4019C620.452 32.4019 620.883 32.4972 621.264 32.6879C621.655 32.8695 621.964 33.1465 622.191 33.5188C622.418 33.8911 622.531 34.3633 622.531 34.9354V39.3488H621.074V35.3849C621.074 34.713 620.933 34.2498 620.651 33.9956C620.379 33.7322 620.034 33.6006 619.616 33.6006C619.317 33.6006 619.026 33.6732 618.744 33.8185C618.463 33.9547 618.227 34.1772 618.036 34.4859C617.855 34.7947 617.764 35.2079 617.764 35.7255V39.3488H616.306ZM637.527 32.5381H639.107L636.818 39.3488H635.225L633.508 34.2952L631.887 39.3488H630.294L628.019 32.5381H629.585L631.138 37.9185L632.827 32.5381H634.285L635.974 37.9185L637.527 32.5381ZM643.272 32.4019C643.935 32.4019 644.521 32.5426 645.029 32.8241C645.538 33.1056 645.933 33.5143 646.215 34.0501C646.505 34.5768 646.65 35.2079 646.65 35.9434C646.65 36.679 646.505 37.3146 646.215 37.8504C645.933 38.3771 645.538 38.7812 645.029 39.0627C644.521 39.3442 643.935 39.485 643.272 39.485C642.609 39.485 642.024 39.3442 641.515 39.0627C641.007 38.7812 640.607 38.3771 640.317 37.8504C640.026 37.3146 639.881 36.679 639.881 35.9434C639.881 35.2079 640.026 34.5768 640.317 34.0501C640.607 33.5143 641.007 33.1056 641.515 32.8241C642.024 32.5426 642.609 32.4019 643.272 32.4019ZM643.272 33.5461C642.864 33.5461 642.514 33.6414 642.223 33.8321C641.942 34.0137 641.724 34.2816 641.57 34.6358C641.415 34.9899 641.338 35.4258 641.338 35.9434C641.338 36.452 641.415 36.8878 641.57 37.2511C641.724 37.6052 641.942 37.8777 642.223 38.0684C642.514 38.25 642.864 38.3408 643.272 38.3408C643.681 38.3408 644.026 38.25 644.308 38.0684C644.589 37.8777 644.807 37.6052 644.961 37.2511C645.116 36.8878 645.193 36.452 645.193 35.9434C645.193 35.4258 645.116 34.9899 644.961 34.6358C644.807 34.2816 644.589 34.0137 644.308 33.8321C644.026 33.6414 643.681 33.5461 643.272 33.5461ZM648.484 39.3488V32.5381H649.724L649.86 33.764C650.041 33.319 650.309 32.9831 650.663 32.756C651.027 32.5199 651.472 32.4019 651.998 32.4019C652.135 32.4019 652.271 32.4155 652.407 32.4427C652.543 32.4609 652.657 32.4927 652.747 32.5381L652.543 33.8185C652.443 33.7822 652.33 33.7549 652.203 33.7368C652.085 33.7095 651.921 33.6959 651.712 33.6959C651.431 33.6959 651.154 33.7731 650.881 33.9275C650.609 34.0728 650.382 34.2952 650.2 34.5949C650.028 34.8946 649.941 35.276 649.941 35.7391V39.3488H648.484ZM656.566 39.485C656.003 39.485 655.49 39.3442 655.027 39.0627C654.573 38.7812 654.214 38.3771 653.951 37.8504C653.688 37.3237 653.556 36.6926 653.556 35.957C653.556 35.1943 653.697 34.5495 653.978 34.0228C654.26 33.4961 654.637 33.0966 655.109 32.8241C655.581 32.5426 656.099 32.4019 656.662 32.4019C657.243 32.4019 657.733 32.5608 658.133 32.8786C658.532 33.1965 658.8 33.6096 658.937 34.1182L658.773 34.268V29.4733H660.231V39.3488H658.937L658.828 37.4963L659.018 37.5099C658.955 37.9185 658.805 38.2727 658.569 38.5723C658.333 38.8629 658.038 39.0899 657.683 39.2534C657.338 39.4078 656.966 39.485 656.566 39.485ZM656.88 38.3135C657.27 38.3135 657.606 38.2136 657.888 38.0139C658.169 37.8141 658.387 37.5326 658.542 37.1693C658.696 36.8061 658.773 36.3702 658.773 35.8617C658.773 35.3895 658.696 34.9854 658.542 34.6494C658.387 34.3043 658.169 34.041 657.888 33.8594C657.615 33.6777 657.297 33.5869 656.934 33.5869C656.326 33.5869 655.854 33.7958 655.518 34.2135C655.182 34.6312 655.014 35.2079 655.014 35.9434C655.014 36.679 655.177 37.2602 655.504 37.687C655.831 38.1047 656.289 38.3135 656.88 38.3135ZM665.079 39.485C664.398 39.485 663.776 39.3533 663.213 39.0899C662.65 38.8266 662.205 38.4543 661.878 37.973L662.886 37.1012C663.086 37.4736 663.372 37.7732 663.744 38.0002C664.126 38.2182 664.58 38.3272 665.106 38.3272C665.524 38.3272 665.856 38.2545 666.101 38.1092C666.346 37.9639 666.469 37.7596 666.469 37.4963C666.469 37.3237 666.409 37.1739 666.291 37.0468C666.182 36.9105 665.969 36.8061 665.651 36.7335L664.221 36.4338C663.495 36.2885 662.977 36.0569 662.668 35.7391C662.359 35.4122 662.205 34.999 662.205 34.4996C662.205 34.1272 662.314 33.7822 662.532 33.4643C662.75 33.1465 663.068 32.8922 663.485 32.7015C663.912 32.5018 664.421 32.4019 665.011 32.4019C665.692 32.4019 666.273 32.5245 666.755 32.7697C667.236 33.0058 667.604 33.3463 667.858 33.7913L666.85 34.6358C666.677 34.2725 666.423 34.0047 666.087 33.8321C665.751 33.6505 665.401 33.5597 665.038 33.5597C664.748 33.5597 664.498 33.596 664.289 33.6687C664.08 33.7413 663.921 33.8412 663.812 33.9683C663.703 34.0955 663.649 34.2453 663.649 34.4178C663.649 34.5995 663.717 34.7584 663.853 34.8946C663.989 35.0308 664.235 35.1352 664.589 35.2079L666.142 35.5348C666.795 35.6619 667.254 35.8799 667.517 36.1886C667.79 36.4883 667.926 36.8561 667.926 37.2919C667.926 37.7278 667.812 38.1138 667.585 38.4497C667.358 38.7767 667.032 39.0309 666.605 39.2125C666.178 39.3942 665.669 39.485 665.079 39.485ZM672.186 30.2225C672.812 30.2225 673.357 30.3178 673.82 30.5085C674.292 30.6992 674.66 30.9762 674.924 31.3394C675.196 31.6936 675.332 32.1295 675.332 32.6471C675.332 33.1828 675.214 33.6278 674.978 33.982C674.751 34.327 674.442 34.5904 674.052 34.772C673.661 34.9445 673.23 35.058 672.758 35.1125L672.717 36.4883H671.314V34.4315C671.959 34.3497 672.458 34.2408 672.812 34.1045C673.166 33.9683 673.416 33.8003 673.561 33.6006C673.707 33.3917 673.779 33.142 673.779 32.8514C673.779 32.5699 673.716 32.3292 673.589 32.1295C673.471 31.9206 673.284 31.7662 673.03 31.6663C672.785 31.5574 672.472 31.5029 672.09 31.5029C671.555 31.5029 671.119 31.6527 670.783 31.9524C670.447 32.252 670.247 32.6698 670.183 33.2055L668.835 32.5926C668.935 32.1204 669.13 31.7072 669.421 31.353C669.711 30.9989 670.088 30.7219 670.551 30.5221C671.014 30.3224 671.559 30.2225 672.186 30.2225ZM672.009 37.5507C672.317 37.5507 672.562 37.6415 672.744 37.8232C672.935 37.9957 673.03 38.2273 673.03 38.5179C673.03 38.8084 672.935 39.04 672.744 39.2125C672.562 39.3851 672.317 39.4713 672.009 39.4713C671.709 39.4713 671.464 39.3851 671.273 39.2125C671.091 39.04 671.001 38.8084 671.001 38.5179C671.001 38.2273 671.091 37.9957 671.273 37.8232C671.464 37.6415 671.709 37.5507 672.009 37.5507Z" fill="black"/>
<defs>
<filter id="filter0_d_1432_941" x="20.1758" y="0" width="295" height="73.3527" filterUnits="userSpaceOnUse" color-interpolation-filters="sRGB">
<feFlood flood-opacity="0" result="BackgroundImageFix"/>
<feColorMatrix in="SourceAlpha" type="matrix" values="0 0 0 0 0 0 0 0 0 0 0 0 0 0 0 0 0 0 127 0" result="hardAlpha"/>
<feOffset dy="4.54044"/>
<feComposite in2="hardAlpha" operator="out"/>
<feColorMatrix type="matrix" values="0 0 0 0 0 0 0 0 0 0 0 0 0 0 0 0 0 0 0.1 0"/>
<feBlend mode="normal" in2="BackgroundImageFix" result="effect1_dropShadow_1432_941"/>
<feBlend mode="normal" in="SourceGraphic" in2="effect1_dropShadow_1432_941" result="shape"/>
</filter>
<filter id="filter1_d_1432_941" x="418.999" y="0.348633" width="283" height="72.6556" filterUnits="userSpaceOnUse" color-interpolation-filters="sRGB">
<feFlood flood-opacity="0" result="BackgroundImageFix"/>
<feColorMatrix in="SourceAlpha" type="matrix" values="0 0 0 0 0 0 0 0 0 0 0 0 0 0 0 0 0 0 127 0" result="hardAlpha"/>
<feOffset dy="4.54044"/>
<feComposite in2="hardAlpha" operator="out"/>
<feColorMatrix type="matrix" values="0 0 0 0 0 0 0 0 0 0 0 0 0 0 0 0 0 0 0.1 0"/>
<feBlend mode="normal" in2="BackgroundImageFix" result="effect1_dropShadow_1432_941"/>
<feBlend mode="normal" in="SourceGraphic" in2="effect1_dropShadow_1432_941" result="shape"/>
</filter>
</defs>
</svg>
