<svg width="722" height="70" viewBox="0 0 722 70" fill="none" xmlns="http://www.w3.org/2000/svg">
<path fill-rule="evenodd" clip-rule="evenodd" d="M212.625 4.14429C197.161 4.14429 184.625 16.6803 184.625 32.1443C184.625 47.6083 197.161 60.1443 212.625 60.1443H507.663C511.965 63.8733 519.214 68.2104 529.497 69.9802C526.607 67.8178 521.622 63.3254 518.795 58.6081C529.756 54.8107 537.625 44.3965 537.625 32.1443C537.625 16.6803 525.089 4.14429 509.625 4.14429H212.625Z" fill="#E5E5E5"/>
<mask id="path-2-inside-1_1432_971" fill="white">
<path fill-rule="evenodd" clip-rule="evenodd" d="M212.375 0C196.911 0 184.375 12.536 184.375 28C184.375 43.464 196.911 56 212.375 56H507.413C511.715 59.729 518.964 64.0661 529.247 65.8359C526.357 63.6735 521.372 59.1811 518.545 54.4638C529.506 50.6664 537.375 40.2522 537.375 28C537.375 12.536 524.839 0 509.375 0H212.375Z"/>
</mask>
<path fill-rule="evenodd" clip-rule="evenodd" d="M212.375 0C196.911 0 184.375 12.536 184.375 28C184.375 43.464 196.911 56 212.375 56H507.413C511.715 59.729 518.964 64.0661 529.247 65.8359C526.357 63.6735 521.372 59.1811 518.545 54.4638C529.506 50.6664 537.375 40.2522 537.375 28C537.375 12.536 524.839 0 509.375 0H212.375Z" fill="white"/>
<path d="M507.413 56L507.785 55.5711L507.625 55.4324H507.413V56ZM529.247 65.8359L529.151 66.3952L529.587 65.3815L529.247 65.8359ZM518.545 54.4638L518.36 53.9275L517.699 54.1562L518.059 54.7555L518.545 54.4638ZM184.375 28H184.943C184.943 12.8495 197.224 0.567555 212.375 0.567555V0V-0.567555C196.598 -0.567555 183.807 12.2226 183.807 28H184.375ZM212.375 56V55.4324C197.224 55.4324 184.943 43.1505 184.943 28H184.375H183.807C183.807 43.7774 196.598 56.5676 212.375 56.5676V56ZM507.413 56V55.4324H212.375V56V56.5676H507.413V56ZM529.247 65.8359L529.343 65.2766C519.171 63.5258 512.015 59.2382 507.785 55.5711L507.413 56L507.041 56.4289C511.415 60.2198 518.757 64.6065 529.151 66.3952L529.247 65.8359ZM518.545 54.4638L518.059 54.7555C520.939 59.5627 525.989 64.1073 528.907 66.2903L529.247 65.8359L529.587 65.3815C526.725 63.2398 521.805 58.7994 519.032 54.172L518.545 54.4638ZM537.375 28H536.807C536.807 40.003 529.098 50.2068 518.36 53.9275L518.545 54.4638L518.731 55.0001C529.913 51.1259 537.943 40.5014 537.943 28H537.375ZM509.375 0V0.567555C524.526 0.567555 536.807 12.8495 536.807 28H537.375H537.943C537.943 12.2226 525.152 -0.567555 509.375 -0.567555V0ZM212.375 0V0.567555H509.375V0V-0.567555H212.375V0Z" fill="#DADDDD" mask="url(#path-2-inside-1_1432_971)"/>
<path d="M341.173 13.1728V14.4259H338.094V22.1628H336.637V14.4259H333.558V13.1728H341.173ZM342.501 22.1628V12.2874H343.959V16.4419C344.186 16.0151 344.49 15.7063 344.871 15.5156C345.262 15.3159 345.693 15.216 346.165 15.216C346.647 15.216 347.078 15.3113 347.459 15.502C347.85 15.6836 348.158 15.9606 348.386 16.3329C348.613 16.7052 348.726 17.1774 348.726 17.7495V22.1628H347.269V18.2127C347.269 17.5407 347.128 17.073 346.846 16.8097C346.574 16.5463 346.229 16.4146 345.811 16.4146C345.52 16.4146 345.23 16.4873 344.939 16.6326C344.658 16.7688 344.422 16.9958 344.231 17.3136C344.049 17.6224 343.959 18.0401 343.959 18.5668V22.1628H342.501ZM351.67 14.208C351.352 14.208 351.107 14.1308 350.935 13.9764C350.771 13.813 350.689 13.5859 350.689 13.2954C350.689 13.0048 350.771 12.7823 350.935 12.6279C351.107 12.4735 351.352 12.3964 351.67 12.3964C351.979 12.3964 352.215 12.4735 352.378 12.6279C352.551 12.7823 352.637 13.0048 352.637 13.2954C352.637 13.5859 352.551 13.813 352.378 13.9764C352.215 14.1308 351.979 14.208 351.67 14.208ZM352.392 15.3522V22.1628H350.935V15.3522H352.392ZM357.261 22.2991C356.579 22.2991 355.957 22.1674 355.394 21.904C354.831 21.6407 354.386 21.2684 354.06 20.7871L355.068 19.9153C355.267 20.2876 355.553 20.5873 355.926 20.8143C356.307 21.0323 356.761 21.1412 357.288 21.1412C357.706 21.1412 358.037 21.0686 358.282 20.9233C358.527 20.778 358.65 20.5737 358.65 20.3103C358.65 20.1378 358.591 19.988 358.473 19.8608C358.364 19.7246 358.15 19.6202 357.833 19.5475L356.402 19.2479C355.676 19.1026 355.158 18.871 354.85 18.5532C354.541 18.2263 354.386 17.8131 354.386 17.3136C354.386 16.9413 354.495 16.5963 354.713 16.2784C354.931 15.9606 355.249 15.7063 355.667 15.5156C356.094 15.3159 356.602 15.216 357.192 15.216C357.874 15.216 358.455 15.3386 358.936 15.5837C359.417 15.8198 359.785 16.1604 360.039 16.6053L359.031 17.4499C358.859 17.0866 358.605 16.8187 358.269 16.6462C357.933 16.4646 357.583 16.3738 357.22 16.3738C356.929 16.3738 356.679 16.4101 356.471 16.4827C356.262 16.5554 356.103 16.6553 355.994 16.7824C355.885 16.9096 355.83 17.0594 355.83 17.2319C355.83 17.4135 355.898 17.5725 356.035 17.7087C356.171 17.8449 356.416 17.9493 356.77 18.022L358.323 18.3489C358.977 18.476 359.435 18.6939 359.699 19.0027C359.971 19.3024 360.107 19.6701 360.107 20.106C360.107 20.5419 359.994 20.9278 359.767 21.2638C359.54 21.5907 359.213 21.845 358.786 22.0266C358.359 22.2082 357.851 22.2991 357.261 22.2991ZM367.047 14.208C366.73 14.208 366.484 14.1308 366.312 13.9764C366.148 13.813 366.067 13.5859 366.067 13.2954C366.067 13.0048 366.148 12.7823 366.312 12.6279C366.484 12.4735 366.73 12.3964 367.047 12.3964C367.356 12.3964 367.592 12.4735 367.756 12.6279C367.928 12.7823 368.014 13.0048 368.014 13.2954C368.014 13.5859 367.928 13.813 367.756 13.9764C367.592 14.1308 367.356 14.208 367.047 14.208ZM367.769 15.3522V22.1628H366.312V15.3522H367.769ZM372.638 22.2991C371.957 22.2991 371.335 22.1674 370.772 21.904C370.209 21.6407 369.764 21.2684 369.437 20.7871L370.445 19.9153C370.644 20.2876 370.931 20.5873 371.303 20.8143C371.684 21.0323 372.138 21.1412 372.665 21.1412C373.083 21.1412 373.414 21.0686 373.659 20.9233C373.905 20.778 374.027 20.5737 374.027 20.3103C374.027 20.1378 373.968 19.988 373.85 19.8608C373.741 19.7246 373.528 19.6202 373.21 19.5475L371.78 19.2479C371.053 19.1026 370.536 18.871 370.227 18.5532C369.918 18.2263 369.764 17.8131 369.764 17.3136C369.764 16.9413 369.873 16.5963 370.091 16.2784C370.309 15.9606 370.626 15.7063 371.044 15.5156C371.471 15.3159 371.979 15.216 372.57 15.216C373.251 15.216 373.832 15.3386 374.313 15.5837C374.794 15.8198 375.162 16.1604 375.417 16.6053L374.409 17.4499C374.236 17.0866 373.982 16.8187 373.646 16.6462C373.31 16.4646 372.96 16.3738 372.597 16.3738C372.306 16.3738 372.057 16.4101 371.848 16.4827C371.639 16.5554 371.48 16.6553 371.371 16.7824C371.262 16.9096 371.208 17.0594 371.208 17.2319C371.208 17.4135 371.276 17.5725 371.412 17.7087C371.548 17.8449 371.793 17.9493 372.147 18.022L373.7 18.3489C374.354 18.476 374.813 18.6939 375.076 19.0027C375.348 19.3024 375.485 19.6701 375.485 20.106C375.485 20.5419 375.371 20.9278 375.144 21.2638C374.917 21.5907 374.59 21.845 374.163 22.0266C373.737 22.2082 373.228 22.2991 372.638 22.2991ZM385.626 17.7904C385.626 17.3364 385.498 16.9867 385.244 16.7416C384.999 16.4873 384.658 16.3602 384.223 16.3602C383.814 16.3602 383.464 16.4555 383.174 16.6462C382.883 16.8369 382.67 17.1457 382.534 17.5725L381.308 17.0548C381.48 16.5009 381.816 16.0559 382.316 15.72C382.824 15.384 383.478 15.216 384.277 15.216C384.822 15.216 385.303 15.3068 385.721 15.4884C386.139 15.6609 386.466 15.9243 386.702 16.2784C386.947 16.6326 387.069 17.0866 387.069 17.6406V20.6781C387.069 21.0141 387.237 21.1821 387.573 21.1821C387.737 21.1821 387.896 21.1594 388.05 21.114L387.968 22.122C387.76 22.2219 387.496 22.2718 387.178 22.2718C386.888 22.2718 386.624 22.2219 386.388 22.122C386.161 22.013 385.98 21.8541 385.844 21.6452C385.716 21.4273 385.653 21.1594 385.653 20.8416V20.7462L385.952 20.7326C385.871 21.0868 385.703 21.3819 385.448 21.618C385.194 21.845 384.899 22.0175 384.563 22.1356C384.227 22.2446 383.887 22.2991 383.542 22.2991C383.115 22.2991 382.729 22.2309 382.384 22.0947C382.048 21.9585 381.78 21.7542 381.58 21.4818C381.389 21.2003 381.294 20.8552 381.294 20.4466C381.294 19.938 381.457 19.5203 381.784 19.1934C382.12 18.8665 382.593 18.644 383.201 18.5259L385.844 18.0083L385.83 19.0299L383.909 19.425C383.528 19.4976 383.242 19.602 383.051 19.7382C382.86 19.8745 382.765 20.0742 382.765 20.3376C382.765 20.5918 382.86 20.7962 383.051 20.9505C383.251 21.0958 383.514 21.1685 383.841 21.1685C384.068 21.1685 384.286 21.1412 384.495 21.0868C384.713 21.0323 384.908 20.946 385.081 20.828C385.253 20.7008 385.385 20.5419 385.476 20.3512C385.576 20.1514 385.626 19.9153 385.626 19.6429V17.7904ZM396.563 15.216C397.108 15.216 397.571 15.2977 397.953 15.4611C398.343 15.6155 398.67 15.838 398.933 16.1286C399.197 16.4192 399.396 16.7506 399.533 17.123L398.157 17.6678C398.039 17.2501 397.848 16.9323 397.585 16.7143C397.331 16.4873 396.995 16.3738 396.577 16.3738C396.168 16.3738 395.819 16.4691 395.528 16.6598C395.237 16.8414 395.015 17.1093 394.861 17.4635C394.715 17.8176 394.643 18.2535 394.643 18.7711C394.643 19.2797 394.72 19.711 394.874 20.0652C395.029 20.4193 395.251 20.6872 395.542 20.8688C395.832 21.0504 396.177 21.1412 396.577 21.1412C396.886 21.1412 397.153 21.0913 397.38 20.9914C397.607 20.8824 397.794 20.7326 397.939 20.5419C398.093 20.3421 398.198 20.1015 398.252 19.82L399.573 20.2695C399.446 20.6781 399.247 21.0368 398.974 21.3456C398.711 21.6452 398.379 21.8813 397.98 22.0539C397.58 22.2173 397.122 22.2991 396.604 22.2991C395.932 22.2991 395.337 22.1583 394.82 21.8768C394.302 21.5953 393.898 21.1912 393.607 20.6645C393.326 20.1287 393.185 19.4931 393.185 18.7575C393.185 18.022 393.326 17.3908 393.607 16.8641C393.898 16.3284 394.297 15.9197 394.806 15.6382C395.324 15.3567 395.909 15.216 396.563 15.216ZM404.225 15.216C404.888 15.216 405.474 15.3567 405.983 15.6382C406.491 15.9197 406.886 16.3284 407.168 16.8641C407.458 17.3908 407.604 18.022 407.604 18.7575C407.604 19.4931 407.458 20.1287 407.168 20.6645C406.886 21.1912 406.491 21.5953 405.983 21.8768C405.474 22.1583 404.888 22.2991 404.225 22.2991C403.563 22.2991 402.977 22.1583 402.468 21.8768C401.96 21.5953 401.56 21.1912 401.27 20.6645C400.979 20.1287 400.834 19.4931 400.834 18.7575C400.834 18.022 400.979 17.3908 401.27 16.8641C401.56 16.3284 401.96 15.9197 402.468 15.6382C402.977 15.3567 403.563 15.216 404.225 15.216ZM404.225 16.3602C403.817 16.3602 403.467 16.4555 403.177 16.6462C402.895 16.8278 402.677 17.0957 402.523 17.4499C402.368 17.804 402.291 18.2399 402.291 18.7575C402.291 19.266 402.368 19.7019 402.523 20.0652C402.677 20.4193 402.895 20.6917 403.177 20.8824C403.467 21.0641 403.817 21.1549 404.225 21.1549C404.634 21.1549 404.979 21.0641 405.261 20.8824C405.542 20.6917 405.76 20.4193 405.915 20.0652C406.069 19.7019 406.146 19.266 406.146 18.7575C406.146 18.2399 406.069 17.804 405.915 17.4499C405.76 17.0957 405.542 16.8278 405.261 16.6462C404.979 16.4555 404.634 16.3602 404.225 16.3602ZM409.437 22.1628V15.3522H410.731L410.827 17.123L410.636 16.9323C410.763 16.5418 410.945 16.2194 411.181 15.9651C411.426 15.7018 411.712 15.5111 412.039 15.393C412.375 15.275 412.729 15.216 413.101 15.216C413.583 15.216 414.014 15.3113 414.395 15.502C414.786 15.6836 415.095 15.9606 415.322 16.3329C415.549 16.7052 415.662 17.1774 415.662 17.7495V22.1628H414.205V18.199C414.205 17.5271 414.064 17.0639 413.782 16.8097C413.51 16.5463 413.165 16.4146 412.747 16.4146C412.447 16.4146 412.157 16.4873 411.875 16.6326C411.594 16.7688 411.358 16.9913 411.167 17.3C410.985 17.6088 410.895 18.022 410.895 18.5396V22.1628H409.437ZM420.679 12.192C420.96 12.192 421.214 12.2238 421.441 12.2874C421.677 12.3419 421.855 12.4191 421.973 12.5189L421.7 13.5678C421.6 13.5042 421.487 13.4588 421.36 13.4316C421.233 13.3952 421.087 13.3771 420.924 13.3771C420.551 13.3771 420.256 13.4634 420.038 13.6359C419.83 13.8084 419.725 14.0899 419.725 14.4804V15.4748L419.766 15.8425V22.1628H418.308V14.3714C418.308 14.0264 418.358 13.7176 418.458 13.4452C418.567 13.1728 418.726 12.9457 418.935 12.7641C419.144 12.5734 419.394 12.4327 419.684 12.3419C419.984 12.242 420.315 12.192 420.679 12.192ZM421.932 15.3522V16.4964H417.028V15.3522H421.932ZM425.669 22.2991C425.224 22.2991 424.811 22.2173 424.43 22.0539C424.057 21.8904 423.758 21.6271 423.531 21.2638C423.304 20.9006 423.19 20.4284 423.19 19.8472V15.3522H424.648V19.4794C424.648 20.0969 424.779 20.5237 425.043 20.7598C425.306 20.9869 425.674 21.1004 426.146 21.1004C426.373 21.1004 426.591 21.0641 426.8 20.9914C427.018 20.9097 427.213 20.7871 427.386 20.6236C427.558 20.4511 427.69 20.2332 427.781 19.9698C427.88 19.7065 427.93 19.3977 427.93 19.0436V15.3522H429.388V22.1628H428.108L428.039 21.0595C427.803 21.4863 427.485 21.7996 427.086 21.9994C426.686 22.1992 426.214 22.2991 425.669 22.2991ZM434.253 22.2991C433.572 22.2991 432.95 22.1674 432.387 21.904C431.824 21.6407 431.379 21.2684 431.052 20.7871L432.06 19.9153C432.26 20.2876 432.546 20.5873 432.918 20.8143C433.299 21.0323 433.754 21.1412 434.28 21.1412C434.698 21.1412 435.029 21.0686 435.275 20.9233C435.52 20.778 435.642 20.5737 435.642 20.3103C435.642 20.1378 435.583 19.988 435.465 19.8608C435.356 19.7246 435.143 19.6202 434.825 19.5475L433.395 19.2479C432.668 19.1026 432.151 18.871 431.842 18.5532C431.533 18.2263 431.379 17.8131 431.379 17.3136C431.379 16.9413 431.488 16.5963 431.706 16.2784C431.924 15.9606 432.242 15.7063 432.659 15.5156C433.086 15.3159 433.595 15.216 434.185 15.216C434.866 15.216 435.447 15.3386 435.928 15.5837C436.41 15.8198 436.777 16.1604 437.032 16.6053L436.024 17.4499C435.851 17.0866 435.597 16.8187 435.261 16.6462C434.925 16.4646 434.575 16.3738 434.212 16.3738C433.922 16.3738 433.672 16.4101 433.463 16.4827C433.254 16.5554 433.095 16.6553 432.986 16.7824C432.877 16.9096 432.823 17.0594 432.823 17.2319C432.823 17.4135 432.891 17.5725 433.027 17.7087C433.163 17.8449 433.408 17.9493 433.763 18.022L435.315 18.3489C435.969 18.476 436.428 18.6939 436.691 19.0027C436.964 19.3024 437.1 19.6701 437.1 20.106C437.1 20.5419 436.986 20.9278 436.759 21.2638C436.532 21.5907 436.205 21.845 435.779 22.0266C435.352 22.2082 434.843 22.2991 434.253 22.2991ZM439.61 14.208C439.292 14.208 439.047 14.1308 438.875 13.9764C438.711 13.813 438.629 13.5859 438.629 13.2954C438.629 13.0048 438.711 12.7823 438.875 12.6279C439.047 12.4735 439.292 12.3964 439.61 12.3964C439.919 12.3964 440.155 12.4735 440.318 12.6279C440.491 12.7823 440.577 13.0048 440.577 13.2954C440.577 13.5859 440.491 13.813 440.318 13.9764C440.155 14.1308 439.919 14.208 439.61 14.208ZM440.332 15.3522V22.1628H438.875V15.3522H440.332ZM442.613 22.1628V15.3522H443.907L444.002 17.123L443.811 16.9323C443.938 16.5418 444.12 16.2194 444.356 15.9651C444.601 15.7018 444.887 15.5111 445.214 15.393C445.55 15.275 445.904 15.216 446.277 15.216C446.758 15.216 447.189 15.3113 447.571 15.502C447.961 15.6836 448.27 15.9606 448.497 16.3329C448.724 16.7052 448.837 17.1774 448.837 17.7495V22.1628H447.38V18.199C447.38 17.5271 447.239 17.0639 446.958 16.8097C446.685 16.5463 446.34 16.4146 445.923 16.4146C445.623 16.4146 445.332 16.4873 445.051 16.6326C444.769 16.7688 444.533 16.9913 444.342 17.3C444.161 17.6088 444.07 18.022 444.07 18.5396V22.1628H442.613ZM457.039 13.9219L457.271 15.0661C457.244 15.0661 457.216 15.0661 457.189 15.0661C457.162 15.0571 457.135 15.0525 457.108 15.0525C456.672 15.0525 456.34 15.1479 456.113 15.3386C455.886 15.5202 455.773 15.7881 455.773 16.1422L455.064 15.8153C455.064 15.4521 455.142 15.1297 455.296 14.8482C455.45 14.5576 455.668 14.3306 455.95 14.1671C456.24 14.0037 456.567 13.9219 456.93 13.9219C456.949 13.9219 456.967 13.9219 456.985 13.9219C457.003 13.9219 457.021 13.9219 457.039 13.9219ZM454.887 21.1004C455.577 21.1004 456.113 21.2548 456.495 21.5635C456.876 21.8632 457.067 22.2809 457.067 22.8167C457.067 23.2889 456.917 23.693 456.617 24.029C456.317 24.374 455.909 24.6374 455.391 24.819C454.883 25.0006 454.297 25.0914 453.634 25.0914C452.517 25.0914 451.691 24.9189 451.155 24.5738C450.619 24.2287 450.351 23.7974 450.351 23.2798C450.351 22.9166 450.478 22.5987 450.733 22.3263C450.996 22.0539 451.437 21.8995 452.054 21.8632L451.972 22.0811C451.591 21.9994 451.282 21.8541 451.046 21.6452C450.819 21.4273 450.706 21.1231 450.706 20.7326C450.706 20.3421 450.855 20.0107 451.155 19.7382C451.455 19.4658 451.877 19.3069 452.422 19.2615L453.185 19.6293H453.021C452.603 19.6656 452.308 19.7609 452.136 19.9153C451.963 20.0697 451.877 20.2422 451.877 20.4329C451.877 20.66 451.959 20.828 452.122 20.9369C452.295 21.0459 452.535 21.1004 452.844 21.1004H454.887ZM453.634 24.0017C454.134 24.0017 454.542 23.9518 454.86 23.8519C455.187 23.7611 455.428 23.6385 455.582 23.4841C455.745 23.3388 455.827 23.1754 455.827 22.9937C455.827 22.7849 455.741 22.6169 455.568 22.4898C455.405 22.3626 455.105 22.2991 454.669 22.2991H452.476C452.222 22.2991 452.009 22.3626 451.836 22.4898C451.664 22.626 451.577 22.8076 451.577 23.0346C451.577 23.3343 451.759 23.5704 452.122 23.7429C452.485 23.9155 452.989 24.0017 453.634 24.0017ZM453.58 15.216C454.179 15.216 454.697 15.3113 455.132 15.502C455.577 15.6927 455.918 15.9606 456.154 16.3057C456.399 16.6507 456.522 17.0548 456.522 17.518C456.522 17.9811 456.399 18.3852 456.154 18.7303C455.918 19.0753 455.577 19.3432 455.132 19.5339C454.697 19.7246 454.179 19.82 453.58 19.82C452.635 19.82 451.909 19.6111 451.4 19.1934C450.901 18.7666 450.651 18.2081 450.651 17.518C450.651 17.0548 450.774 16.6507 451.019 16.3057C451.264 15.9606 451.605 15.6927 452.04 15.502C452.485 15.3113 452.998 15.216 453.58 15.216ZM453.58 16.2376C453.162 16.2376 452.812 16.3556 452.531 16.5917C452.258 16.8187 452.122 17.1275 452.122 17.518C452.122 17.9084 452.258 18.2217 452.531 18.4578C452.812 18.6939 453.162 18.812 453.58 18.812C454.006 18.812 454.356 18.6939 454.628 18.4578C454.91 18.2217 455.051 17.9084 455.051 17.518C455.051 17.1275 454.91 16.8187 454.628 16.5917C454.356 16.3556 454.006 16.2376 453.58 16.2376ZM465.774 15.216C466.319 15.216 466.782 15.2977 467.163 15.4611C467.554 15.6155 467.881 15.838 468.144 16.1286C468.407 16.4192 468.607 16.7506 468.743 17.123L467.368 17.6678C467.25 17.2501 467.059 16.9323 466.795 16.7143C466.541 16.4873 466.205 16.3738 465.788 16.3738C465.379 16.3738 465.029 16.4691 464.739 16.6598C464.448 16.8414 464.226 17.1093 464.071 17.4635C463.926 17.8176 463.853 18.2535 463.853 18.7711C463.853 19.2797 463.93 19.711 464.085 20.0652C464.239 20.4193 464.462 20.6872 464.752 20.8688C465.043 21.0504 465.388 21.1412 465.788 21.1412C466.096 21.1412 466.364 21.0913 466.591 20.9914C466.818 20.8824 467.004 20.7326 467.15 20.5419C467.304 20.3421 467.408 20.1015 467.463 19.82L468.784 20.2695C468.657 20.6781 468.457 21.0368 468.185 21.3456C467.922 21.6452 467.59 21.8813 467.191 22.0539C466.791 22.2173 466.332 22.2991 465.815 22.2991C465.143 22.2991 464.548 22.1583 464.03 21.8768C463.513 21.5953 463.109 21.1912 462.818 20.6645C462.537 20.1287 462.396 19.4931 462.396 18.7575C462.396 18.022 462.537 17.3908 462.818 16.8641C463.109 16.3284 463.508 15.9197 464.017 15.6382C464.534 15.3567 465.12 15.216 465.774 15.216ZM473.436 15.216C474.099 15.216 474.685 15.3567 475.193 15.6382C475.702 15.9197 476.097 16.3284 476.378 16.8641C476.669 17.3908 476.814 18.022 476.814 18.7575C476.814 19.4931 476.669 20.1287 476.378 20.6645C476.097 21.1912 475.702 21.5953 475.193 21.8768C474.685 22.1583 474.099 22.2991 473.436 22.2991C472.773 22.2991 472.188 22.1583 471.679 21.8768C471.171 21.5953 470.771 21.1912 470.48 20.6645C470.19 20.1287 470.044 19.4931 470.044 18.7575C470.044 18.022 470.19 17.3908 470.48 16.8641C470.771 16.3284 471.171 15.9197 471.679 15.6382C472.188 15.3567 472.773 15.216 473.436 15.216ZM473.436 16.3602C473.028 16.3602 472.678 16.4555 472.387 16.6462C472.106 16.8278 471.888 17.0957 471.734 17.4499C471.579 17.804 471.502 18.2399 471.502 18.7575C471.502 19.266 471.579 19.7019 471.734 20.0652C471.888 20.4193 472.106 20.6917 472.387 20.8824C472.678 21.0641 473.028 21.1549 473.436 21.1549C473.845 21.1549 474.19 21.0641 474.471 20.8824C474.753 20.6917 474.971 20.4193 475.125 20.0652C475.28 19.7019 475.357 19.266 475.357 18.7575C475.357 18.2399 475.28 17.804 475.125 17.4499C474.971 17.0957 474.753 16.8278 474.471 16.6462C474.19 16.4555 473.845 16.3602 473.436 16.3602ZM478.648 22.1628V15.3522H479.942L480.037 17.123L479.847 16.9323C479.974 16.5418 480.155 16.2194 480.391 15.9651C480.637 15.7018 480.923 15.5111 481.25 15.393C481.586 15.275 481.94 15.216 482.312 15.216C482.793 15.216 483.225 15.3113 483.606 15.502C483.996 15.6836 484.305 15.9606 484.532 16.3329C484.759 16.7052 484.873 17.1774 484.873 17.7495V22.1628H483.415V18.199C483.415 17.5271 483.275 17.0639 482.993 16.8097C482.721 16.5463 482.376 16.4146 481.958 16.4146C481.658 16.4146 481.368 16.4873 481.086 16.6326C480.805 16.7688 480.568 16.9913 480.378 17.3C480.196 17.6088 480.105 18.022 480.105 18.5396V22.1628H478.648ZM490.024 15.216C490.568 15.216 491.032 15.2977 491.413 15.4611C491.803 15.6155 492.13 15.838 492.394 16.1286C492.657 16.4192 492.857 16.7506 492.993 17.123L491.617 17.6678C491.499 17.2501 491.309 16.9323 491.045 16.7143C490.791 16.4873 490.455 16.3738 490.037 16.3738C489.629 16.3738 489.279 16.4691 488.988 16.6598C488.698 16.8414 488.475 17.1093 488.321 17.4635C488.176 17.8176 488.103 18.2535 488.103 18.7711C488.103 19.2797 488.18 19.711 488.335 20.0652C488.489 20.4193 488.711 20.6872 489.002 20.8688C489.293 21.0504 489.638 21.1412 490.037 21.1412C490.346 21.1412 490.614 21.0913 490.841 20.9914C491.068 20.8824 491.254 20.7326 491.399 20.5419C491.554 20.3421 491.658 20.1015 491.713 19.82L493.034 20.2695C492.907 20.6781 492.707 21.0368 492.435 21.3456C492.171 21.6452 491.84 21.8813 491.44 22.0539C491.041 22.2173 490.582 22.2991 490.064 22.2991C489.392 22.2991 488.798 22.1583 488.28 21.8768C487.762 21.5953 487.358 21.1912 487.068 20.6645C486.786 20.1287 486.645 19.4931 486.645 18.7575C486.645 18.022 486.786 17.3908 487.068 16.8641C487.358 16.3284 487.758 15.9197 488.266 15.6382C488.784 15.3567 489.37 15.216 490.024 15.216ZM497.727 22.2991C497.046 22.2991 496.446 22.1583 495.929 21.8768C495.411 21.5953 495.007 21.1912 494.716 20.6645C494.435 20.1287 494.294 19.4931 494.294 18.7575C494.294 18.022 494.435 17.3908 494.716 16.8641C495.007 16.3284 495.407 15.9197 495.915 15.6382C496.424 15.3567 497 15.216 497.645 15.216C498.308 15.216 498.871 15.3522 499.334 15.6246C499.797 15.897 500.151 16.2693 500.397 16.7416C500.642 17.2138 500.764 17.7495 500.764 18.3489C500.764 18.5123 500.76 18.6667 500.751 18.812C500.742 18.9573 500.728 19.0844 500.71 19.1934H495.234V18.0764H500.07L499.348 18.2944C499.348 17.6769 499.193 17.2047 498.885 16.8778C498.576 16.5418 498.154 16.3738 497.618 16.3738C497.227 16.3738 496.887 16.4646 496.596 16.6462C496.306 16.8278 496.083 17.1002 495.929 17.4635C495.774 17.8176 495.697 18.2535 495.697 18.7711C495.697 19.2797 495.779 19.711 495.942 20.0652C496.106 20.4193 496.337 20.6872 496.637 20.8688C496.937 21.0504 497.291 21.1412 497.7 21.1412C498.154 21.1412 498.521 21.055 498.803 20.8824C499.084 20.7099 499.307 20.4693 499.47 20.1605L500.628 20.7054C500.465 21.0323 500.242 21.3183 499.961 21.5635C499.688 21.7996 499.361 21.9812 498.98 22.1084C498.599 22.2355 498.181 22.2991 497.727 22.2991ZM502.605 25.0233V15.3522H503.899L504.008 17.2592L503.817 17.0276C503.926 16.6734 504.094 16.3602 504.321 16.0877C504.548 15.8153 504.83 15.6019 505.166 15.4475C505.511 15.2932 505.888 15.216 506.296 15.216C506.85 15.216 507.354 15.3567 507.808 15.6382C508.262 15.9197 508.621 16.3238 508.884 16.8505C509.148 17.3681 509.279 17.9993 509.279 18.7439C509.279 19.4885 509.143 20.1287 508.871 20.6645C508.607 21.1912 508.244 21.5953 507.781 21.8768C507.327 22.1583 506.818 22.2991 506.255 22.2991C505.674 22.2991 505.179 22.1492 504.771 21.8496C504.362 21.5408 504.071 21.1503 503.899 20.6781L504.062 20.4466V25.0233H502.605ZM505.942 21.114C506.532 21.114 506.991 20.9051 507.318 20.4874C507.654 20.0697 507.822 19.4931 507.822 18.7575C507.822 18.022 507.658 17.4453 507.331 17.0276C507.005 16.6008 506.551 16.3874 505.969 16.3874C505.588 16.3874 505.252 16.4873 504.961 16.6871C504.68 16.8778 504.457 17.1502 504.294 17.5043C504.14 17.8494 504.062 18.2671 504.062 18.7575C504.062 19.2388 504.14 19.6565 504.294 20.0107C504.448 20.3648 504.666 20.6373 504.948 20.828C505.229 21.0187 505.561 21.114 505.942 21.114ZM513.04 13.3498V20.1196C513.04 20.4556 513.127 20.7008 513.299 20.8552C513.481 21.0096 513.721 21.0868 514.021 21.0868C514.266 21.0868 514.48 21.0504 514.661 20.9778C514.843 20.8961 515.011 20.7871 515.165 20.6509L515.492 21.7133C515.283 21.895 515.025 22.0402 514.716 22.1492C514.416 22.2491 514.08 22.2991 513.708 22.2991C513.317 22.2991 512.959 22.2355 512.632 22.1084C512.305 21.9812 512.051 21.7769 511.869 21.4954C511.687 21.2048 511.592 20.828 511.583 20.3648V13.7585L513.04 13.3498ZM515.383 15.3522V16.4964H510.275V15.3522H515.383ZM517.587 20.324C517.896 20.324 518.141 20.4148 518.322 20.5964C518.513 20.7689 518.609 21.005 518.609 21.3047C518.609 21.6044 518.513 21.845 518.322 22.0266C518.141 22.2082 517.896 22.2991 517.587 22.2991C517.269 22.2991 517.015 22.2082 516.824 22.0266C516.643 21.845 516.552 21.6044 516.552 21.3047C516.552 21.005 516.643 20.7689 516.824 20.5964C517.015 20.4148 517.269 20.324 517.587 20.324ZM205.05 30.1728V39.1628H203.592V30.1728H205.05ZM215.592 39.2991C215.192 39.2991 214.824 39.2219 214.488 39.0675C214.161 38.9131 213.885 38.6997 213.658 38.4273C213.43 38.1458 213.262 37.8325 213.154 37.4874L213.331 37.2559L213.222 39.1628H211.941V29.2874H213.399V34.0685L213.235 33.8369C213.408 33.3647 213.703 32.9788 214.121 32.6791C214.538 32.3703 215.042 32.216 215.633 32.216C216.177 32.216 216.677 32.3567 217.131 32.6382C217.594 32.9197 217.957 33.3238 218.221 33.8505C218.484 34.3772 218.616 35.0174 218.616 35.7711C218.616 36.5067 218.479 37.1378 218.207 37.6645C217.944 38.1912 217.58 38.5953 217.117 38.8768C216.663 39.1583 216.155 39.2991 215.592 39.2991ZM215.278 38.1276C215.869 38.1276 216.327 37.9188 216.654 37.501C216.99 37.0742 217.158 36.4931 217.158 35.7575C217.158 35.022 216.995 34.4453 216.668 34.0276C216.341 33.6099 215.882 33.401 215.292 33.401C214.911 33.401 214.579 33.5009 214.298 33.7007C214.016 33.8914 213.794 34.1638 213.63 34.518C213.476 34.8721 213.399 35.2944 213.399 35.7848C213.399 36.266 213.476 36.6838 213.63 37.0379C213.785 37.383 214.003 37.6509 214.284 37.8416C214.575 38.0323 214.906 38.1276 215.278 38.1276ZM223.478 39.2991C222.797 39.2991 222.197 39.1583 221.68 38.8768C221.162 38.5953 220.758 38.1912 220.468 37.6645C220.186 37.1287 220.045 36.4931 220.045 35.7575C220.045 35.022 220.186 34.3908 220.468 33.8641C220.758 33.3284 221.158 32.9197 221.666 32.6382C222.175 32.3567 222.751 32.216 223.396 32.216C224.059 32.216 224.622 32.3522 225.085 32.6246C225.548 32.897 225.902 33.2693 226.148 33.7416C226.393 34.2138 226.515 34.7495 226.515 35.3489C226.515 35.5123 226.511 35.6667 226.502 35.812C226.493 35.9573 226.479 36.0844 226.461 36.1934H220.985V35.0764H225.821L225.099 35.2944C225.099 34.6769 224.944 34.2047 224.636 33.8778C224.327 33.5418 223.905 33.3738 223.369 33.3738C222.978 33.3738 222.638 33.4646 222.347 33.6462C222.057 33.8278 221.834 34.1002 221.68 34.4635C221.525 34.8176 221.448 35.2535 221.448 35.7711C221.448 36.2797 221.53 36.711 221.693 37.0652C221.857 37.4193 222.088 37.6872 222.388 37.8688C222.688 38.0504 223.042 38.1412 223.451 38.1412C223.905 38.1412 224.272 38.055 224.554 37.8824C224.835 37.7099 225.058 37.4693 225.221 37.1605L226.379 37.7054C226.216 38.0323 225.993 38.3183 225.712 38.5635C225.439 38.7996 225.112 38.9812 224.731 39.1084C224.35 39.2355 223.932 39.2991 223.478 39.2991ZM229.773 29.2874V37.2559C229.773 37.5918 229.832 37.8234 229.95 37.9505C230.068 38.0777 230.263 38.1412 230.535 38.1412C230.699 38.1412 230.835 38.1322 230.944 38.114C231.062 38.0868 231.207 38.0414 231.38 37.9778L231.216 39.0675C231.062 39.1401 230.885 39.1946 230.685 39.2309C230.485 39.2764 230.286 39.2991 230.086 39.2991C229.477 39.2991 229.028 39.1447 228.737 38.8359C228.456 38.5181 228.315 38.0323 228.315 37.3784V29.2874H229.773ZM233.335 31.208C233.017 31.208 232.772 31.1308 232.599 30.9764C232.436 30.813 232.354 30.5859 232.354 30.2954C232.354 30.0048 232.436 29.7823 232.599 29.6279C232.772 29.4735 233.017 29.3964 233.335 29.3964C233.644 29.3964 233.88 29.4735 234.043 29.6279C234.216 29.7823 234.302 30.0048 234.302 30.2954C234.302 30.5859 234.216 30.813 234.043 30.9764C233.88 31.1308 233.644 31.208 233.335 31.208ZM234.057 32.3522V39.1628H232.599V32.3522H234.057ZM239.334 39.2991C238.653 39.2991 238.054 39.1583 237.536 38.8768C237.018 38.5953 236.614 38.1912 236.324 37.6645C236.042 37.1287 235.901 36.4931 235.901 35.7575C235.901 35.022 236.042 34.3908 236.324 33.8641C236.614 33.3284 237.014 32.9197 237.522 32.6382C238.031 32.3567 238.607 32.216 239.252 32.216C239.915 32.216 240.478 32.3522 240.941 32.6246C241.404 32.897 241.759 33.2693 242.004 33.7416C242.249 34.2138 242.371 34.7495 242.371 35.3489C242.371 35.5123 242.367 35.6667 242.358 35.812C242.349 35.9573 242.335 36.0844 242.317 36.1934H236.841V35.0764H241.677L240.955 35.2944C240.955 34.6769 240.8 34.2047 240.492 33.8778C240.183 33.5418 239.761 33.3738 239.225 33.3738C238.834 33.3738 238.494 33.4646 238.203 33.6462C237.913 33.8278 237.69 34.1002 237.536 34.4635C237.382 34.8176 237.304 35.2535 237.304 35.7711C237.304 36.2797 237.386 36.711 237.55 37.0652C237.713 37.4193 237.945 37.6872 238.244 37.8688C238.544 38.0504 238.898 38.1412 239.307 38.1412C239.761 38.1412 240.128 38.055 240.41 37.8824C240.692 37.7099 240.914 37.4693 241.077 37.1605L242.235 37.7054C242.072 38.0323 241.849 38.3183 241.568 38.5635C241.295 38.7996 240.968 38.9812 240.587 39.1084C240.206 39.2355 239.788 39.2991 239.334 39.2991ZM248.494 32.3522H250.02L247.309 39.1628H245.715L242.991 32.3522H244.585L246.519 37.8961L248.494 32.3522ZM254.219 39.2991C253.538 39.2991 252.939 39.1583 252.421 38.8768C251.903 38.5953 251.499 38.1912 251.209 37.6645C250.927 37.1287 250.786 36.4931 250.786 35.7575C250.786 35.022 250.927 34.3908 251.209 33.8641C251.499 33.3284 251.899 32.9197 252.407 32.6382C252.916 32.3567 253.492 32.216 254.137 32.216C254.8 32.216 255.363 32.3522 255.826 32.6246C256.289 32.897 256.644 33.2693 256.889 33.7416C257.134 34.2138 257.256 34.7495 257.256 35.3489C257.256 35.5123 257.252 35.6667 257.243 35.812C257.234 35.9573 257.22 36.0844 257.202 36.1934H251.726V35.0764H256.562L255.84 35.2944C255.84 34.6769 255.686 34.2047 255.377 33.8778C255.068 33.5418 254.646 33.3738 254.11 33.3738C253.719 33.3738 253.379 33.4646 253.088 33.6462C252.798 33.8278 252.575 34.1002 252.421 34.4635C252.267 34.8176 252.189 35.2535 252.189 35.7711C252.189 36.2797 252.271 36.711 252.435 37.0652C252.598 37.4193 252.83 37.6872 253.129 37.8688C253.429 38.0504 253.783 38.1412 254.192 38.1412C254.646 38.1412 255.014 38.055 255.295 37.8824C255.577 37.7099 255.799 37.4693 255.962 37.1605L257.12 37.7054C256.957 38.0323 256.734 38.3183 256.453 38.5635C256.18 38.7996 255.853 38.9812 255.472 39.1084C255.091 39.2355 254.673 39.2991 254.219 39.2991ZM264.262 31.208C263.944 31.208 263.699 31.1308 263.527 30.9764C263.363 30.813 263.281 30.5859 263.281 30.2954C263.281 30.0048 263.363 29.7823 263.527 29.6279C263.699 29.4735 263.944 29.3964 264.262 29.3964C264.571 29.3964 264.807 29.4735 264.971 29.6279C265.143 29.7823 265.229 30.0048 265.229 30.2954C265.229 30.5859 265.143 30.813 264.971 30.9764C264.807 31.1308 264.571 31.208 264.262 31.208ZM264.984 32.3522V39.1628H263.527V32.3522H264.984ZM267.265 39.1628V32.3522H268.559L268.654 34.123L268.463 33.9323C268.59 33.5418 268.772 33.2194 269.008 32.9651C269.253 32.7018 269.539 32.5111 269.866 32.393C270.202 32.275 270.556 32.216 270.929 32.216C271.41 32.216 271.841 32.3113 272.223 32.502C272.613 32.6836 272.922 32.9606 273.149 33.3329C273.376 33.7052 273.49 34.1774 273.49 34.7495V39.1628H272.032V35.199C272.032 34.5271 271.891 34.0639 271.61 33.8097C271.337 33.5463 270.992 33.4146 270.575 33.4146C270.275 33.4146 269.984 33.4873 269.703 33.6326C269.421 33.7688 269.185 33.9913 268.994 34.3C268.813 34.6088 268.722 35.022 268.722 35.5396V39.1628H267.265ZM285.828 32.3522L282.845 39.9665C282.645 40.4932 282.427 40.9109 282.191 41.2197C281.964 41.5284 281.701 41.7509 281.401 41.8871C281.101 42.0233 280.752 42.0914 280.352 42.0914C280.025 42.0914 279.721 42.046 279.44 41.9552C279.167 41.8735 278.927 41.76 278.718 41.6147L279.072 40.4841C279.244 40.6294 279.426 40.7384 279.617 40.811C279.817 40.8837 280.03 40.92 280.257 40.92C280.502 40.92 280.72 40.8519 280.911 40.7157C281.111 40.5885 281.288 40.3297 281.442 39.9393L281.742 39.2037L281.02 37.5147L278.895 32.3522H280.529L282.041 36.6293L282.436 37.9097L282.886 36.5067L284.316 32.3522H285.828ZM289.987 32.216C290.65 32.216 291.236 32.3567 291.744 32.6382C292.253 32.9197 292.648 33.3284 292.929 33.8641C293.22 34.3908 293.365 35.022 293.365 35.7575C293.365 36.4931 293.22 37.1287 292.929 37.6645C292.648 38.1912 292.253 38.5953 291.744 38.8768C291.236 39.1583 290.65 39.2991 289.987 39.2991C289.324 39.2991 288.739 39.1583 288.23 38.8768C287.722 38.5953 287.322 38.1912 287.031 37.6645C286.741 37.1287 286.596 36.4931 286.596 35.7575C286.596 35.022 286.741 34.3908 287.031 33.8641C287.322 33.3284 287.722 32.9197 288.23 32.6382C288.739 32.3567 289.324 32.216 289.987 32.216ZM289.987 33.3602C289.579 33.3602 289.229 33.4555 288.938 33.6462C288.657 33.8278 288.439 34.0957 288.285 34.4499C288.13 34.804 288.053 35.2399 288.053 35.7575C288.053 36.266 288.13 36.7019 288.285 37.0652C288.439 37.4193 288.657 37.6917 288.938 37.8824C289.229 38.0641 289.579 38.1549 289.987 38.1549C290.396 38.1549 290.741 38.0641 291.022 37.8824C291.304 37.6917 291.522 37.4193 291.676 37.0652C291.831 36.7019 291.908 36.266 291.908 35.7575C291.908 35.2399 291.831 34.804 291.676 34.4499C291.522 34.0957 291.304 33.8278 291.022 33.6462C290.741 33.4555 290.396 33.3602 289.987 33.3602ZM297.624 39.2991C297.179 39.2991 296.765 39.2173 296.384 39.0539C296.012 38.8904 295.712 38.6271 295.485 38.2638C295.258 37.9006 295.144 37.4284 295.144 36.8472V32.3522H296.602V36.4794C296.602 37.0969 296.734 37.5237 296.997 37.7598C297.26 37.9869 297.628 38.1004 298.1 38.1004C298.327 38.1004 298.545 38.0641 298.754 37.9914C298.972 37.9097 299.167 37.7871 299.34 37.6236C299.512 37.4511 299.644 37.2332 299.735 36.9698C299.835 36.7065 299.885 36.3977 299.885 36.0436V32.3522H301.342V39.1628H300.062L299.994 38.0595C299.758 38.4863 299.44 38.7996 299.04 38.9994C298.641 39.1992 298.168 39.2991 297.624 39.2991ZM305.158 30.1728V33.7688L304.968 36.3024H303.823L303.633 33.7688V30.1728H305.158ZM304.396 37.3648C304.704 37.3648 304.949 37.4556 305.131 37.6373C305.322 37.8098 305.417 38.0414 305.417 38.3319C305.417 38.6225 305.322 38.8541 305.131 39.0266C304.949 39.1992 304.704 39.2854 304.396 39.2854C304.096 39.2854 303.851 39.1992 303.66 39.0266C303.478 38.8541 303.388 38.6225 303.388 38.3319C303.388 38.0414 303.478 37.8098 303.66 37.6373C303.851 37.4556 304.096 37.3648 304.396 37.3648ZM313.542 37.9097H318.5V39.1628H312.084V30.1728H313.542V37.9097ZM322.871 39.2991C322.19 39.2991 321.591 39.1583 321.073 38.8768C320.555 38.5953 320.151 38.1912 319.861 37.6645C319.579 37.1287 319.438 36.4931 319.438 35.7575C319.438 35.022 319.579 34.3908 319.861 33.8641C320.151 33.3284 320.551 32.9197 321.059 32.6382C321.568 32.3567 322.144 32.216 322.789 32.216C323.452 32.216 324.015 32.3522 324.478 32.6246C324.941 32.897 325.296 33.2693 325.541 33.7416C325.786 34.2138 325.909 34.7495 325.909 35.3489C325.909 35.5123 325.904 35.6667 325.895 35.812C325.886 35.9573 325.872 36.0844 325.854 36.1934H320.378V35.0764H325.214L324.492 35.2944C324.492 34.6769 324.338 34.2047 324.029 33.8778C323.72 33.5418 323.298 33.3738 322.762 33.3738C322.371 33.3738 322.031 33.4646 321.74 33.6462C321.45 33.8278 321.227 34.1002 321.073 34.4635C320.919 34.8176 320.841 35.2535 320.841 35.7711C320.841 36.2797 320.923 36.711 321.087 37.0652C321.25 37.4193 321.482 37.6872 321.781 37.8688C322.081 38.0504 322.435 38.1412 322.844 38.1412C323.298 38.1412 323.666 38.055 323.947 37.8824C324.229 37.7099 324.451 37.4693 324.614 37.1605L325.772 37.7054C325.609 38.0323 325.386 38.3183 325.105 38.5635C324.832 38.7996 324.506 38.9812 324.124 39.1084C323.743 39.2355 323.325 39.2991 322.871 39.2991ZM329.578 30.3498V37.1196C329.578 37.4556 329.664 37.7008 329.837 37.8552C330.019 38.0096 330.259 38.0868 330.559 38.0868C330.804 38.0868 331.017 38.0504 331.199 37.9778C331.381 37.8961 331.549 37.7871 331.703 37.6509L332.03 38.7133C331.821 38.895 331.562 39.0402 331.254 39.1492C330.954 39.2491 330.618 39.2991 330.246 39.2991C329.855 39.2991 329.496 39.2355 329.17 39.1084C328.843 38.9812 328.588 38.7769 328.407 38.4954C328.225 38.2048 328.13 37.828 328.121 37.3648V30.7585L329.578 30.3498ZM331.921 32.3522V33.4964H326.813V32.3522H331.921ZM334.098 29.6824C334.352 29.6824 334.561 29.746 334.725 29.8731C334.897 29.9911 335.029 30.1591 335.12 30.3771C335.211 30.5859 335.256 30.8266 335.256 31.099C335.256 31.435 335.192 31.7619 335.065 32.0798C334.938 32.3885 334.752 32.6746 334.507 32.9379C334.271 33.1922 333.985 33.401 333.649 33.5645L332.968 32.9788C333.213 32.888 333.431 32.7699 333.621 32.6246C333.812 32.4793 333.971 32.3159 334.098 32.1342C334.234 31.9526 334.33 31.7665 334.384 31.5758L334.33 31.5485C334.284 31.5758 334.23 31.5985 334.166 31.6166C334.112 31.6348 334.03 31.6439 333.921 31.6439C333.794 31.6439 333.662 31.6121 333.526 31.5485C333.399 31.4759 333.29 31.3714 333.199 31.2352C333.108 31.099 333.063 30.9219 333.063 30.704C333.063 30.5042 333.108 30.3271 333.199 30.1728C333.299 30.0184 333.426 29.9003 333.581 29.8186C333.735 29.7278 333.907 29.6824 334.098 29.6824ZM338.97 39.2991C338.289 39.2991 337.667 39.1674 337.104 38.904C336.541 38.6407 336.096 38.2684 335.769 37.7871L336.777 36.9153C336.977 37.2876 337.263 37.5873 337.635 37.8143C338.017 38.0323 338.471 38.1412 338.997 38.1412C339.415 38.1412 339.747 38.0686 339.992 37.9233C340.237 37.778 340.36 37.5737 340.36 37.3103C340.36 37.1378 340.301 36.988 340.182 36.8608C340.074 36.7246 339.86 36.6202 339.542 36.5475L338.112 36.2479C337.386 36.1026 336.868 35.871 336.559 35.5532C336.25 35.2263 336.096 34.8131 336.096 34.3136C336.096 33.9413 336.205 33.5963 336.423 33.2784C336.641 32.9606 336.959 32.7063 337.376 32.5156C337.803 32.3159 338.312 32.216 338.902 32.216C339.583 32.216 340.164 32.3386 340.646 32.5837C341.127 32.8198 341.495 33.1604 341.749 33.6053L340.741 34.4499C340.568 34.0866 340.314 33.8187 339.978 33.6462C339.642 33.4646 339.293 33.3738 338.929 33.3738C338.639 33.3738 338.389 33.4101 338.18 33.4827C337.971 33.5554 337.812 33.6553 337.703 33.7824C337.594 33.9096 337.54 34.0594 337.54 34.2319C337.54 34.4135 337.608 34.5725 337.744 34.7087C337.88 34.8449 338.126 34.9493 338.48 35.022L340.033 35.3489C340.686 35.476 341.145 35.6939 341.408 36.0027C341.681 36.3024 341.817 36.6701 341.817 37.106C341.817 37.5419 341.704 37.9278 341.477 38.2638C341.249 38.5907 340.923 38.845 340.496 39.0266C340.069 39.2082 339.56 39.2991 338.97 39.2991ZM356.379 32.3522H357.959L355.67 39.1628H354.077L352.36 34.1093L350.739 39.1628H349.146L346.871 32.3522H348.437L349.99 37.7326L351.679 32.3522H353.137L354.826 37.7326L356.379 32.3522ZM362.124 32.216C362.787 32.216 363.373 32.3567 363.882 32.6382C364.39 32.9197 364.785 33.3284 365.067 33.8641C365.357 34.3908 365.503 35.022 365.503 35.7575C365.503 36.4931 365.357 37.1287 365.067 37.6645C364.785 38.1912 364.39 38.5953 363.882 38.8768C363.373 39.1583 362.787 39.2991 362.124 39.2991C361.462 39.2991 360.876 39.1583 360.367 38.8768C359.859 38.5953 359.459 38.1912 359.169 37.6645C358.878 37.1287 358.733 36.4931 358.733 35.7575C358.733 35.022 358.878 34.3908 359.169 33.8641C359.459 33.3284 359.859 32.9197 360.367 32.6382C360.876 32.3567 361.462 32.216 362.124 32.216ZM362.124 33.3602C361.716 33.3602 361.366 33.4555 361.076 33.6462C360.794 33.8278 360.576 34.0957 360.422 34.4499C360.267 34.804 360.19 35.2399 360.19 35.7575C360.19 36.266 360.267 36.7019 360.422 37.0652C360.576 37.4193 360.794 37.6917 361.076 37.8824C361.366 38.0641 361.716 38.1549 362.124 38.1549C362.533 38.1549 362.878 38.0641 363.16 37.8824C363.441 37.6917 363.659 37.4193 363.813 37.0652C363.968 36.7019 364.045 36.266 364.045 35.7575C364.045 35.2399 363.968 34.804 363.813 34.4499C363.659 34.0957 363.441 33.8278 363.16 33.6462C362.878 33.4555 362.533 33.3602 362.124 33.3602ZM367.336 39.1628V32.3522H368.576L368.712 33.5781C368.893 33.1331 369.161 32.7971 369.515 32.5701C369.879 32.334 370.324 32.216 370.85 32.216C370.987 32.216 371.123 32.2296 371.259 32.2568C371.395 32.275 371.509 32.3068 371.6 32.3522L371.395 33.6326C371.295 33.5963 371.182 33.569 371.055 33.5509C370.937 33.5236 370.773 33.51 370.564 33.51C370.283 33.51 370.006 33.5872 369.733 33.7416C369.461 33.8868 369.234 34.1093 369.052 34.409C368.88 34.7087 368.794 35.0901 368.794 35.5532V39.1628H367.336ZM379.405 32.3522L376.368 35.4578L376.055 35.6758L373.916 37.8961L373.902 36.2343L377.676 32.3522H379.405ZM374.434 29.2874V39.1628H372.976V29.2874H374.434ZM376.545 34.6406L379.569 39.1628H377.88L375.455 35.4715L376.545 34.6406ZM386.844 30.3498V37.1196C386.844 37.4556 386.93 37.7008 387.102 37.8552C387.284 38.0096 387.525 38.0868 387.824 38.0868C388.07 38.0868 388.283 38.0504 388.465 37.9778C388.646 37.8961 388.814 37.7871 388.969 37.6509L389.295 38.7133C389.087 38.895 388.828 39.0402 388.519 39.1492C388.219 39.2491 387.883 39.2991 387.511 39.2991C387.121 39.2991 386.762 39.2355 386.435 39.1084C386.108 38.9812 385.854 38.7769 385.672 38.4954C385.491 38.2048 385.395 37.828 385.386 37.3648V30.7585L386.844 30.3498ZM389.186 32.3522V33.4964H384.078V32.3522H389.186ZM390.681 39.1628V29.2874H392.139V33.4419C392.366 33.0151 392.67 32.7063 393.051 32.5156C393.442 32.3159 393.873 32.216 394.345 32.216C394.827 32.216 395.258 32.3113 395.639 32.502C396.03 32.6836 396.339 32.9606 396.566 33.3329C396.793 33.7052 396.906 34.1774 396.906 34.7495V39.1628H395.449V35.2127C395.449 34.5407 395.308 34.073 395.026 33.8097C394.754 33.5463 394.409 33.4146 393.991 33.4146C393.701 33.4146 393.41 33.4873 393.119 33.6326C392.838 33.7688 392.602 33.9958 392.411 34.3136C392.23 34.6224 392.139 35.0401 392.139 35.5668V39.1628H390.681ZM399.115 39.1628V32.3522H400.354L400.49 33.5781C400.672 33.1331 400.94 32.7971 401.294 32.5701C401.657 32.334 402.102 32.216 402.629 32.216C402.765 32.216 402.901 32.2296 403.038 32.2568C403.174 32.275 403.287 32.3068 403.378 32.3522L403.174 33.6326C403.074 33.5963 402.96 33.569 402.833 33.5509C402.715 33.5236 402.552 33.51 402.343 33.51C402.061 33.51 401.785 33.5872 401.512 33.7416C401.24 33.8868 401.013 34.1093 400.831 34.409C400.658 34.7087 400.572 35.0901 400.572 35.5532V39.1628H399.115ZM407.538 32.216C408.201 32.216 408.786 32.3567 409.295 32.6382C409.803 32.9197 410.198 33.3284 410.48 33.8641C410.771 34.3908 410.916 35.022 410.916 35.7575C410.916 36.4931 410.771 37.1287 410.48 37.6645C410.198 38.1912 409.803 38.5953 409.295 38.8768C408.786 39.1583 408.201 39.2991 407.538 39.2991C406.875 39.2991 406.289 39.1583 405.781 38.8768C405.272 38.5953 404.872 38.1912 404.582 37.6645C404.291 37.1287 404.146 36.4931 404.146 35.7575C404.146 35.022 404.291 34.3908 404.582 33.8641C404.872 33.3284 405.272 32.9197 405.781 32.6382C406.289 32.3567 406.875 32.216 407.538 32.216ZM407.538 33.3602C407.129 33.3602 406.779 33.4555 406.489 33.6462C406.207 33.8278 405.989 34.0957 405.835 34.4499C405.681 34.804 405.603 35.2399 405.603 35.7575C405.603 36.266 405.681 36.7019 405.835 37.0652C405.989 37.4193 406.207 37.6917 406.489 37.8824C406.779 38.0641 407.129 38.1549 407.538 38.1549C407.946 38.1549 408.291 38.0641 408.573 37.8824C408.854 37.6917 409.072 37.4193 409.227 37.0652C409.381 36.7019 409.458 36.266 409.458 35.7575C409.458 35.2399 409.381 34.804 409.227 34.4499C409.072 34.0957 408.854 33.8278 408.573 33.6462C408.291 33.4555 407.946 33.3602 407.538 33.3602ZM415.174 39.2991C414.729 39.2991 414.316 39.2173 413.934 39.0539C413.562 38.8904 413.262 38.6271 413.035 38.2638C412.808 37.9006 412.695 37.4284 412.695 36.8472V32.3522H414.152V36.4794C414.152 37.0969 414.284 37.5237 414.547 37.7598C414.811 37.9869 415.178 38.1004 415.651 38.1004C415.878 38.1004 416.096 38.0641 416.305 37.9914C416.522 37.9097 416.718 37.7871 416.89 37.6236C417.063 37.4511 417.194 37.2332 417.285 36.9698C417.385 36.7065 417.435 36.3977 417.435 36.0436V32.3522H418.893V39.1628H417.612L417.544 38.0595C417.308 38.4863 416.99 38.7996 416.591 38.9994C416.191 39.1992 415.719 39.2991 415.174 39.2991ZM427.163 30.9219L427.395 32.0661C427.367 32.0661 427.34 32.0661 427.313 32.0661C427.286 32.0571 427.258 32.0525 427.231 32.0525C426.795 32.0525 426.464 32.1479 426.237 32.3386C426.01 32.5202 425.896 32.7881 425.896 33.1422L425.188 32.8153C425.188 32.4521 425.265 32.1297 425.419 31.8482C425.574 31.5576 425.792 31.3306 426.073 31.1671C426.364 31.0037 426.691 30.9219 427.054 30.9219C427.072 30.9219 427.09 30.9219 427.108 30.9219C427.127 30.9219 427.145 30.9219 427.163 30.9219ZM425.011 38.1004C425.701 38.1004 426.237 38.2548 426.618 38.5635C426.999 38.8632 427.19 39.2809 427.19 39.8167C427.19 40.2889 427.04 40.693 426.741 41.029C426.441 41.374 426.032 41.6374 425.515 41.819C425.006 42.0006 424.421 42.0914 423.758 42.0914C422.641 42.0914 421.814 41.9189 421.279 41.5738C420.743 41.2287 420.475 40.7974 420.475 40.2798C420.475 39.9166 420.602 39.5987 420.856 39.3263C421.12 39.0539 421.56 38.8995 422.178 38.8632L422.096 39.0811C421.714 38.9994 421.406 38.8541 421.17 38.6452C420.943 38.4273 420.829 38.1231 420.829 37.7326C420.829 37.3421 420.979 37.0107 421.279 36.7382C421.578 36.4658 422 36.3069 422.545 36.2615L423.308 36.6293H423.145C422.727 36.6656 422.432 36.7609 422.259 36.9153C422.087 37.0697 422 37.2422 422 37.4329C422 37.66 422.082 37.828 422.246 37.9369C422.418 38.0459 422.659 38.1004 422.968 38.1004H425.011ZM423.758 41.0017C424.257 41.0017 424.666 40.9518 424.984 40.8519C425.31 40.7611 425.551 40.6385 425.705 40.4841C425.869 40.3388 425.951 40.1754 425.951 39.9937C425.951 39.7849 425.864 39.6169 425.692 39.4898C425.528 39.3626 425.229 39.2991 424.793 39.2991H422.6C422.346 39.2991 422.132 39.3626 421.96 39.4898C421.787 39.626 421.701 39.8076 421.701 40.0346C421.701 40.3343 421.882 40.5704 422.246 40.7429C422.609 40.9155 423.113 41.0017 423.758 41.0017ZM423.703 32.216C424.302 32.216 424.82 32.3113 425.256 32.502C425.701 32.6927 426.041 32.9606 426.278 33.3057C426.523 33.6507 426.645 34.0548 426.645 34.518C426.645 34.9811 426.523 35.3852 426.278 35.7303C426.041 36.0753 425.701 36.3432 425.256 36.5339C424.82 36.7246 424.302 36.82 423.703 36.82C422.759 36.82 422.032 36.6111 421.524 36.1934C421.024 35.7666 420.775 35.2081 420.775 34.518C420.775 34.0548 420.897 33.6507 421.142 33.3057C421.388 32.9606 421.728 32.6927 422.164 32.502C422.609 32.3113 423.122 32.216 423.703 32.216ZM423.703 33.2376C423.285 33.2376 422.936 33.3556 422.654 33.5917C422.382 33.8187 422.246 34.1275 422.246 34.518C422.246 34.9084 422.382 35.2217 422.654 35.4578C422.936 35.6939 423.285 35.812 423.703 35.812C424.13 35.812 424.48 35.6939 424.752 35.4578C425.033 35.2217 425.174 34.9084 425.174 34.518C425.174 34.1275 425.033 33.8187 424.752 33.5917C424.48 33.3556 424.13 33.2376 423.703 33.2376ZM428.526 39.1628V29.2874H429.983V33.4419C430.21 33.0151 430.514 32.7063 430.896 32.5156C431.286 32.3159 431.718 32.216 432.19 32.216C432.671 32.216 433.102 32.3113 433.484 32.502C433.874 32.6836 434.183 32.9606 434.41 33.3329C434.637 33.7052 434.751 34.1774 434.751 34.7495V39.1628H433.293V35.2127C433.293 34.5407 433.152 34.073 432.871 33.8097C432.598 33.5463 432.253 33.4146 431.836 33.4146C431.545 33.4146 431.254 33.4873 430.964 33.6326C430.682 33.7688 430.446 33.9958 430.256 34.3136C430.074 34.6224 429.983 35.0401 429.983 35.5668V39.1628H428.526ZM442.124 31.208C441.806 31.208 441.561 31.1308 441.389 30.9764C441.225 30.813 441.144 30.5859 441.144 30.2954C441.144 30.0048 441.225 29.7823 441.389 29.6279C441.561 29.4735 441.806 29.3964 442.124 29.3964C442.433 29.3964 442.669 29.4735 442.833 29.6279C443.005 29.7823 443.091 30.0048 443.091 30.2954C443.091 30.5859 443.005 30.813 442.833 30.9764C442.669 31.1308 442.433 31.208 442.124 31.208ZM442.846 32.3522V39.1628H441.389V32.3522H442.846ZM447.115 30.3498V37.1196C447.115 37.4556 447.202 37.7008 447.374 37.8552C447.556 38.0096 447.796 38.0868 448.096 38.0868C448.341 38.0868 448.555 38.0504 448.736 37.9778C448.918 37.8961 449.086 37.7871 449.24 37.6509L449.567 38.7133C449.358 38.895 449.099 39.0402 448.791 39.1492C448.491 39.2491 448.155 39.2991 447.783 39.2991C447.392 39.2991 447.034 39.2355 446.707 39.1084C446.38 38.9812 446.125 38.7769 445.944 38.4954C445.762 38.2048 445.667 37.828 445.658 37.3648V30.7585L447.115 30.3498ZM449.458 32.3522V33.4964H444.35V32.3522H449.458ZM457.105 30.3498V37.1196C457.105 37.4556 457.191 37.7008 457.364 37.8552C457.546 38.0096 457.786 38.0868 458.086 38.0868C458.331 38.0868 458.545 38.0504 458.726 37.9778C458.908 37.8961 459.076 37.7871 459.23 37.6509L459.557 38.7133C459.348 38.895 459.089 39.0402 458.781 39.1492C458.481 39.2491 458.145 39.2991 457.773 39.2991C457.382 39.2991 457.023 39.2355 456.697 39.1084C456.37 38.9812 456.115 38.7769 455.934 38.4954C455.752 38.2048 455.657 37.828 455.648 37.3648V30.7585L457.105 30.3498ZM459.448 32.3522V33.4964H454.34V32.3522H459.448ZM463.845 32.216C464.508 32.216 465.094 32.3567 465.603 32.6382C466.111 32.9197 466.506 33.3284 466.788 33.8641C467.078 34.3908 467.223 35.022 467.223 35.7575C467.223 36.4931 467.078 37.1287 466.788 37.6645C466.506 38.1912 466.111 38.5953 465.603 38.8768C465.094 39.1583 464.508 39.2991 463.845 39.2991C463.182 39.2991 462.597 39.1583 462.088 38.8768C461.58 38.5953 461.18 38.1912 460.89 37.6645C460.599 37.1287 460.454 36.4931 460.454 35.7575C460.454 35.022 460.599 34.3908 460.89 33.8641C461.18 33.3284 461.58 32.9197 462.088 32.6382C462.597 32.3567 463.182 32.216 463.845 32.216ZM463.845 33.3602C463.437 33.3602 463.087 33.4555 462.797 33.6462C462.515 33.8278 462.297 34.0957 462.143 34.4499C461.988 34.804 461.911 35.2399 461.911 35.7575C461.911 36.266 461.988 36.7019 462.143 37.0652C462.297 37.4193 462.515 37.6917 462.797 37.8824C463.087 38.0641 463.437 38.1549 463.845 38.1549C464.254 38.1549 464.599 38.0641 464.881 37.8824C465.162 37.6917 465.38 37.4193 465.534 37.0652C465.689 36.7019 465.766 36.266 465.766 35.7575C465.766 35.2399 465.689 34.804 465.534 34.4499C465.38 34.0957 465.162 33.8278 464.881 33.6462C464.599 33.4555 464.254 33.3602 463.845 33.3602ZM475.024 30.9219L475.255 32.0661C475.228 32.0661 475.201 32.0661 475.174 32.0661C475.146 32.0571 475.119 32.0525 475.092 32.0525C474.656 32.0525 474.325 32.1479 474.098 32.3386C473.871 32.5202 473.757 32.7881 473.757 33.1422L473.049 32.8153C473.049 32.4521 473.126 32.1297 473.28 31.8482C473.435 31.5576 473.653 31.3306 473.934 31.1671C474.225 31.0037 474.552 30.9219 474.915 30.9219C474.933 30.9219 474.951 30.9219 474.969 30.9219C474.988 30.9219 475.006 30.9219 475.024 30.9219ZM472.872 38.1004C473.562 38.1004 474.098 38.2548 474.479 38.5635C474.86 38.8632 475.051 39.2809 475.051 39.8167C475.051 40.2889 474.901 40.693 474.602 41.029C474.302 41.374 473.893 41.6374 473.376 41.819C472.867 42.0006 472.281 42.0914 471.618 42.0914C470.502 42.0914 469.675 41.9189 469.139 41.5738C468.604 41.2287 468.336 40.7974 468.336 40.2798C468.336 39.9166 468.463 39.5987 468.717 39.3263C468.98 39.0539 469.421 38.8995 470.038 38.8632L469.957 39.0811C469.575 38.9994 469.267 38.8541 469.03 38.6452C468.803 38.4273 468.69 38.1231 468.69 37.7326C468.69 37.3421 468.84 37.0107 469.139 36.7382C469.439 36.4658 469.861 36.3069 470.406 36.2615L471.169 36.6293H471.006C470.588 36.6656 470.293 36.7609 470.12 36.9153C469.948 37.0697 469.861 37.2422 469.861 37.4329C469.861 37.66 469.943 37.828 470.107 37.9369C470.279 38.0459 470.52 38.1004 470.828 38.1004H472.872ZM471.618 41.0017C472.118 41.0017 472.527 40.9518 472.844 40.8519C473.171 40.7611 473.412 40.6385 473.566 40.4841C473.73 40.3388 473.812 40.1754 473.812 39.9937C473.812 39.7849 473.725 39.6169 473.553 39.4898C473.389 39.3626 473.09 39.2991 472.654 39.2991H470.461C470.206 39.2991 469.993 39.3626 469.82 39.4898C469.648 39.626 469.562 39.8076 469.562 40.0346C469.562 40.3343 469.743 40.5704 470.107 40.7429C470.47 40.9155 470.974 41.0017 471.618 41.0017ZM471.564 32.216C472.163 32.216 472.681 32.3113 473.117 32.502C473.562 32.6927 473.902 32.9606 474.138 33.3057C474.384 33.6507 474.506 34.0548 474.506 34.518C474.506 34.9811 474.384 35.3852 474.138 35.7303C473.902 36.0753 473.562 36.3432 473.117 36.5339C472.681 36.7246 472.163 36.82 471.564 36.82C470.62 36.82 469.893 36.6111 469.385 36.1934C468.885 35.7666 468.635 35.2081 468.635 34.518C468.635 34.0548 468.758 33.6507 469.003 33.3057C469.248 32.9606 469.589 32.6927 470.025 32.502C470.47 32.3113 470.983 32.216 471.564 32.216ZM471.564 33.2376C471.146 33.2376 470.797 33.3556 470.515 33.5917C470.243 33.8187 470.107 34.1275 470.107 34.518C470.107 34.9084 470.243 35.2217 470.515 35.4578C470.797 35.6939 471.146 35.812 471.564 35.812C471.991 35.812 472.34 35.6939 472.613 35.4578C472.894 35.2217 473.035 34.9084 473.035 34.518C473.035 34.1275 472.894 33.8187 472.613 33.5917C472.34 33.3556 471.991 33.2376 471.564 33.2376ZM479.383 39.2991C478.702 39.2991 478.103 39.1583 477.585 38.8768C477.068 38.5953 476.663 38.1912 476.373 37.6645C476.091 37.1287 475.951 36.4931 475.951 35.7575C475.951 35.022 476.091 34.3908 476.373 33.8641C476.663 33.3284 477.063 32.9197 477.572 32.6382C478.08 32.3567 478.657 32.216 479.301 32.216C479.964 32.216 480.527 32.3522 480.99 32.6246C481.454 32.897 481.808 33.2693 482.053 33.7416C482.298 34.2138 482.421 34.7495 482.421 35.3489C482.421 35.5123 482.416 35.6667 482.407 35.812C482.398 35.9573 482.384 36.0844 482.366 36.1934H476.89V35.0764H481.726L481.004 35.2944C481.004 34.6769 480.85 34.2047 480.541 33.8778C480.232 33.5418 479.81 33.3738 479.274 33.3738C478.884 33.3738 478.543 33.4646 478.253 33.6462C477.962 33.8278 477.74 34.1002 477.585 34.4635C477.431 34.8176 477.354 35.2535 477.354 35.7711C477.354 36.2797 477.435 36.711 477.599 37.0652C477.762 37.4193 477.994 37.6872 478.293 37.8688C478.593 38.0504 478.947 38.1412 479.356 38.1412C479.81 38.1412 480.178 38.055 480.459 37.8824C480.741 37.7099 480.963 37.4693 481.127 37.1605L482.285 37.7054C482.121 38.0323 481.899 38.3183 481.617 38.5635C481.345 38.7996 481.018 38.9812 480.636 39.1084C480.255 39.2355 479.837 39.2991 479.383 39.2991ZM486.09 30.3498V37.1196C486.09 37.4556 486.177 37.7008 486.349 37.8552C486.531 38.0096 486.771 38.0868 487.071 38.0868C487.316 38.0868 487.53 38.0504 487.711 37.9778C487.893 37.8961 488.061 37.7871 488.215 37.6509L488.542 38.7133C488.333 38.895 488.075 39.0402 487.766 39.1492C487.466 39.2491 487.13 39.2991 486.758 39.2991C486.367 39.2991 486.009 39.2355 485.682 39.1084C485.355 38.9812 485.101 38.7769 484.919 38.4954C484.737 38.2048 484.642 37.828 484.633 37.3648V30.7585L486.09 30.3498ZM488.433 32.3522V33.4964H483.325V32.3522H488.433ZM489.928 39.1628V29.2874H491.385V33.4419C491.612 33.0151 491.917 32.7063 492.298 32.5156C492.689 32.3159 493.12 32.216 493.592 32.216C494.073 32.216 494.505 32.3113 494.886 32.502C495.277 32.6836 495.585 32.9606 495.812 33.3329C496.039 33.7052 496.153 34.1774 496.153 34.7495V39.1628H494.695V35.2127C494.695 34.5407 494.555 34.073 494.273 33.8097C494.001 33.5463 493.656 33.4146 493.238 33.4146C492.947 33.4146 492.657 33.4873 492.366 33.6326C492.085 33.7688 491.849 33.9958 491.658 34.3136C491.476 34.6224 491.385 35.0401 491.385 35.5668V39.1628H489.928ZM501.358 39.2991C500.677 39.2991 500.078 39.1583 499.56 38.8768C499.043 38.5953 498.638 38.1912 498.348 37.6645C498.066 37.1287 497.926 36.4931 497.926 35.7575C497.926 35.022 498.066 34.3908 498.348 33.8641C498.638 33.3284 499.038 32.9197 499.547 32.6382C500.055 32.3567 500.632 32.216 501.276 32.216C501.939 32.216 502.502 32.3522 502.966 32.6246C503.429 32.897 503.783 33.2693 504.028 33.7416C504.273 34.2138 504.396 34.7495 504.396 35.3489C504.396 35.5123 504.391 35.6667 504.382 35.812C504.373 35.9573 504.359 36.0844 504.341 36.1934H498.865V35.0764H503.701L502.979 35.2944C502.979 34.6769 502.825 34.2047 502.516 33.8778C502.207 33.5418 501.785 33.3738 501.249 33.3738C500.859 33.3738 500.518 33.4646 500.228 33.6462C499.937 33.8278 499.715 34.1002 499.56 34.4635C499.406 34.8176 499.329 35.2535 499.329 35.7711C499.329 36.2797 499.41 36.711 499.574 37.0652C499.737 37.4193 499.969 37.6872 500.268 37.8688C500.568 38.0504 500.922 38.1412 501.331 38.1412C501.785 38.1412 502.153 38.055 502.434 37.8824C502.716 37.7099 502.938 37.4693 503.102 37.1605L504.26 37.7054C504.096 38.0323 503.874 38.3183 503.592 38.5635C503.32 38.7996 502.993 38.9812 502.611 39.1084C502.23 39.2355 501.812 39.2991 501.358 39.2991ZM506.236 39.1628V32.3522H507.476L507.612 33.5781C507.794 33.1331 508.062 32.7971 508.416 32.5701C508.779 32.334 509.224 32.216 509.751 32.216C509.887 32.216 510.023 32.2296 510.159 32.2568C510.295 32.275 510.409 32.3068 510.5 32.3522L510.295 33.6326C510.196 33.5963 510.082 33.569 509.955 33.5509C509.837 33.5236 509.673 33.51 509.465 33.51C509.183 33.51 508.906 33.5872 508.634 33.7416C508.361 33.8868 508.134 34.1093 507.953 34.409C507.78 34.7087 507.694 35.0901 507.694 35.5532V39.1628H506.236ZM516.912 32.216C517.221 32.216 517.466 32.3068 517.648 32.4884C517.839 32.6609 517.934 32.897 517.934 33.1967C517.934 33.4964 517.839 33.737 517.648 33.9186C517.466 34.1002 517.221 34.1911 516.912 34.1911C516.595 34.1911 516.34 34.1002 516.15 33.9186C515.968 33.737 515.877 33.4964 515.877 33.1967C515.877 32.897 515.968 32.6609 516.15 32.4884C516.34 32.3068 516.595 32.216 516.912 32.216ZM516.912 37.324C517.221 37.324 517.466 37.4148 517.648 37.5964C517.839 37.7689 517.934 38.005 517.934 38.3047C517.934 38.6044 517.839 38.845 517.648 39.0266C517.466 39.2082 517.221 39.2991 516.912 39.2991C516.595 39.2991 516.34 39.2082 516.15 39.0266C515.968 38.845 515.877 38.6044 515.877 38.3047C515.877 38.005 515.968 37.7689 516.15 37.5964C516.34 37.4148 516.595 37.324 516.912 37.324ZM520.016 41.7509L519.253 40.9881C519.834 40.4614 520.293 39.912 520.629 39.3399C520.974 38.7678 521.224 38.1549 521.378 37.501C521.533 36.8381 521.61 36.1298 521.61 35.3761C521.61 34.6042 521.533 33.8959 521.378 33.2512C521.224 32.5974 520.974 31.9799 520.629 31.3987C520.293 30.8175 519.834 30.2681 519.253 29.7505L520.016 28.9877C521.006 29.7777 521.75 30.7085 522.25 31.7801C522.758 32.8516 523.013 34.0503 523.013 35.3761C523.013 36.6928 522.758 37.887 522.25 38.9585C521.75 40.021 521.006 40.9518 520.016 41.7509Z" fill="black"/>
</svg>
