<svg width="244" height="138" viewBox="0 0 244 138" fill="none" xmlns="http://www.w3.org/2000/svg">
  <path d="M204.784 14.4319C204.784 14.4319 201.107 12.4605 200.371 10.525C199.635 8.58949 205.706 11.0375 205.804 11.418C205.903 11.7984 204.784 14.4319 204.784 14.4319Z" fill="#F38487"/>
  <path d="M78.3163 57.6592C78.3163 57.6592 80.0625 53.1545 81.349 51.9359C82.6356 50.7173 82.0087 53.6332 82.0087 53.6332C82.0087 53.6332 84.2437 51.5866 85.6225 50.5643C87.0012 49.5421 84.3817 53.8505 84.3817 53.8505C84.3817 53.8505 81.1196 58.7681 81.1196 58.9861C81.1196 59.2041 78.3171 57.6585 78.3171 57.6585L78.3163 57.6592Z" fill="#A14336"/>
  <path d="M104.038 32.4034L103.45 30.2343C103.45 30.2343 101.863 29.2411 101.634 28.3631C101.358 27.3043 103.778 29.1172 103.778 29.1172C103.778 29.1172 102.982 26.7816 103.242 25.9834C103.502 25.1853 104.422 28.0144 104.422 28.0144C104.422 28.0144 104.329 25.9834 104.544 25.5481C104.758 25.1128 105.294 27.6515 105.294 27.6515C105.294 27.6515 105.371 25.5495 105.524 25.498C105.677 25.4466 106.213 27.6082 106.213 27.6082C106.213 27.6082 106.075 26.7085 106.489 26.2008C106.902 25.693 106.948 29.0874 106.948 29.1315C106.948 29.1755 107.744 32.0906 107.744 32.0906L104.037 32.4027L104.038 32.4034Z" fill="#FBC77B"/>
  <path d="M46.703 125.835C46.703 125.835 47.392 135.584 50.6084 135.496C53.8247 135.409 53.4574 125.312 53.4574 125.312L46.703 125.834V125.835Z" fill="#A14336"/>
  <path d="M12.4726 111.205C12.4726 111.205 2.13735 118.625 2.97575 120.906C3.81486 123.187 16.3351 116.152 16.3351 116.152L12.4719 111.205H12.4726Z" fill="#A14336"/>
  <path d="M57.0099 88.5727C57.0099 88.5727 57.2444 100.453 57.8833 104.843C58.5223 109.233 56.3859 125.832 56.3859 125.832L44.9936 127.173L43.7421 108.504L38.0441 87.6825L57.0099 88.5734V88.5727Z" fill="#32134B"/>
  <path d="M46.1563 87.6825L38.0454 109.886L14.2136 119.36L10.3868 109.413L28.2719 97.752L30.0188 86.78L46.1563 87.6825Z" fill="#4E3761"/>
  <path d="M56.1278 64.7074C56.6367 64.8184 64.9971 64.1238 65.6203 64.7074C66.2443 65.291 79.5121 56.0399 79.5121 56.0399C79.5121 56.0399 82.0073 58.871 82.0073 60.3868C82.0073 61.9026 68.1155 74.1155 68.1155 74.1155L58.1334 76.0856L56.1271 64.7081L56.1278 64.7074Z" fill="#A14336"/>
  <path d="M103.94 33.6429C103.94 33.6429 103.373 32.6417 103.633 32.0182C103.893 31.3946 106.926 31.1767 107.769 31.4671C108.611 31.7575 108.841 33.5414 108.841 33.5414L103.94 33.6429Z" fill="#EDB04C"/>
  <path d="M93.8464 54.8091C93.8464 54.8091 101.842 52.0226 103.679 48.5415C105.517 45.0604 103.036 36.7043 103.036 34.3545C103.036 32.0046 108.549 31.6126 109.698 33.8758C110.847 36.139 113.282 46.8883 111.214 51.4147C109.146 55.941 101.105 62.998 101.105 62.998L93.8457 54.8091H93.8464Z" fill="#F87679"/>
  <path d="M229.516 114.919C229.516 114.919 232.979 120.578 235.297 121.076C237.614 121.575 233.668 112.219 233.668 112.219L229.516 114.919Z" fill="#F38487"/>
  <path d="M203.435 123.735C203.435 123.735 203.463 132.437 205.785 133.002C208.107 133.566 209.036 122.868 209.036 122.868L203.435 123.736V123.735Z" fill="#F38487"/>
  <path d="M203.901 129.203C203.901 129.203 205.294 131.401 207.781 130.234C207.781 130.234 214.453 131.24 214.115 132.479C213.777 133.718 205.53 135.142 204.141 134.218C202.752 133.293 203.9 129.204 203.9 129.204L203.901 129.203Z" fill="#7B3F39"/>
  <path d="M47.3922 130.688C47.3922 130.688 50.1154 133.063 53.1816 131.623C53.1816 131.623 60.7136 133.286 60.2977 134.813C59.8817 136.34 49.7108 138.097 47.9983 136.957C46.2858 135.816 47.3922 130.688 47.3922 130.688Z" fill="#7B3F39"/>
  <path d="M233.508 119.987C233.508 119.987 235.126 120.477 235.943 118.852C235.943 118.852 240.246 120.722 242.083 120.654C243.921 120.586 243.885 120.108 243.999 121.628C244.112 123.147 236.666 125.217 234.784 124.689C232.902 124.161 233.508 119.987 233.508 119.987V119.987Z" fill="#7B3F39"/>
  <path d="M171.153 60.6624C171.153 60.6624 168.166 66.211 166.052 66.211C163.939 66.211 165.702 49.7946 165.702 49.7946C165.702 49.7946 166.989 49.0946 166.836 47.9789C166.683 46.8632 165.09 47.2694 165.09 47.2694C164.884 44.9325 164.584 42.5677 164.208 42.565C163.84 42.5623 163.508 44.8011 163.258 47.178C162.867 43.9982 162.519 42.412 162.216 42.4195C161.902 42.4269 161.634 44.1505 161.414 47.5883C161.173 47.2024 160.705 47.0156 160.286 47.1198C159.791 47.2437 159.456 47.7555 159.576 48.2849C159.266 47.9457 158.865 47.7467 158.602 47.8456C158.262 47.9728 158.044 48.637 158.412 49.3877C158.637 50.2584 158.862 51.1283 159.086 51.9989C159.086 51.9989 155.663 77.2555 161.384 79.0183C167.104 80.7812 176.76 69.7483 176.76 69.7483L171.153 60.6624H171.153Z" fill="#F38487"/>
  <path d="M178.046 50.4134L167.776 63.1429L176.12 72.6086L184.403 61.772L178.046 50.4134Z" fill="#32134B"/>
  <path d="M195.445 41.3721C195.445 41.3721 200.408 35.5493 201.803 29.8646C203.197 24.1799 201.336 12.2662 203.839 8.94691C206.342 5.62762 212.047 26.5548 212.021 30.9045C211.996 35.2535 203.324 49.1474 203.324 49.1474L195.445 41.3721Z" fill="#F38487"/>
  <path d="M188.774 48.5415L196.6 37.7489L206.051 47.6838L198.882 60.5466L188.774 48.5415Z" fill="#32134B"/>
  <path d="M193.148 80.3656L212.84 98.9964L228.187 117.779L236.332 112.125L225.026 94.0246C223.574 91.6998 221.858 89.5321 219.908 87.5607L203.03 70.491L193.148 80.3663V80.3656Z" fill="#EDA328"/>
  <path d="M180.474 82.3424C180.474 82.3424 183.193 87.6852 184.535 90.8535C185.877 94.0218 198.927 105.928 198.927 105.928L201.309 124.859L211.896 124.149L211.925 106.633C211.931 102.712 210.648 98.8881 208.254 95.6899L200.422 85.2291L198.876 73.7899L180.474 82.3424Z" fill="#EDB04C"/>
  <path d="M59.1545 63.7176C59.1016 63.0217 58.5219 62.4665 57.7879 62.409C54.5158 62.1504 45.9309 61.2825 43.9218 59.1892C41.4266 56.5889 30.03 66.28 38.9307 73.1353C46.091 78.65 55.4592 77.5865 58.8485 76.9596C59.5897 76.8228 60.1044 76.1817 60.05 75.4682L59.1537 63.7176H59.1545Z" fill="#76E5FD"/>
  <path d="M103.652 133.083C103.652 133.083 107.992 133.354 110.147 135.632C112.302 137.911 102.244 136.993 101.853 136.833C100.728 136.371 101.092 132.923 101.092 132.923L103.653 133.083H103.652Z" fill="#D7815A"/>
  <path d="M89.9952 132.599C89.9952 132.599 95.6067 133.869 96.37 135.261C97.1334 136.653 88.7594 136.309 88.545 135.895C88.3305 135.481 88.2283 133.704 88.2283 133.704L89.9952 132.599Z" fill="#D7815A"/>
  <path d="M98.1737 123.868C98.1737 123.868 100.933 134.444 102.723 135.578C104.514 136.712 104.375 122.219 104.375 122.219L98.1737 123.868Z" fill="#FBC77B"/>
  <path d="M86.6422 122.625C86.6422 122.625 87.2997 133.549 88.9022 134.714C90.5046 135.878 93.3429 122.47 93.3429 122.47L86.6422 122.625Z" fill="#FBC77B"/>
  <path d="M80.676 93.1566C80.4923 91.4073 80.1242 90.0215 80.3093 87.803C80.4802 85.7592 81.0291 84.1127 81.4787 83.0221L86.9193 82.995L106.038 82.8989L102.998 101.021L94.5406 124.885L85.7729 124.246L84.4248 106.631C84.4248 106.631 80.7332 93.6942 80.6767 93.1566H80.676Z" fill="#32134B"/>
  <path d="M107.17 101.504L106.038 82.8989L86.9195 82.995L84.4107 84.5189C84.4107 84.5189 83.3157 88.5545 84.9103 90.9469C85.9967 92.5765 88.8329 97.3892 90.5311 100.291L92.8397 105.731L98.1353 125.946L105.847 125.418L107.17 101.504Z" fill="#4E3761"/>
  <path d="M102.192 124.315C102.128 124.315 102.075 124.267 102.073 124.206L101.254 101.093L99.7261 92.9948L98.8369 88.285C98.8255 88.2241 98.8684 88.1652 98.9334 88.1543C98.9985 88.1435 99.0599 88.1841 99.0714 88.2457L99.9605 92.9556L101.49 101.061C101.491 101.067 101.491 101.072 101.492 101.077L102.312 124.199C102.314 124.261 102.263 124.313 102.197 124.315C102.196 124.315 102.194 124.315 102.193 124.315H102.192Z" fill="#FDDFC2"/>
  <path d="M99.843 93.0883C99.8259 93.0883 99.8087 93.0849 99.793 93.0774C99.7337 93.051 99.7079 92.984 99.7358 92.9278C101.01 90.3465 100.659 88.4373 100.656 88.4184C100.644 88.3575 100.686 88.2986 100.751 88.287C100.816 88.2762 100.878 88.3162 100.89 88.3778C100.906 88.4583 101.257 90.3769 99.9517 93.0233C99.9316 93.0639 99.8888 93.0883 99.8437 93.0883H99.843Z" fill="#FDDFC2"/>
  <path d="M90.371 123.068C90.371 123.068 90.3689 123.068 90.3675 123.068C90.3017 123.065 90.2503 123.014 90.2517 122.952L90.7141 107.262L88.7872 97.9809C88.7743 97.9199 88.8165 97.8604 88.8808 97.8489C88.9451 97.8367 89.008 97.8766 89.0202 97.9376L90.95 107.231C90.9514 107.239 90.9521 107.248 90.9521 107.256L90.4897 122.958C90.4875 123.019 90.4354 123.068 90.371 123.068Z" fill="#FDDFC2"/>
  <path d="M87.9118 132.378C87.9118 132.378 91.2396 132.589 92.3168 133.304C92.3639 133.336 92.454 133.407 92.4769 133.517C92.592 134.064 90.9287 135.119 89.4049 134.974C89.1504 134.949 88.9117 134.926 88.6573 134.777C88.1863 134.501 87.8954 132.482 87.9118 132.378V132.378Z" fill="#FBC77B"/>
  <path d="M102.303 133.035C102.303 133.035 106.274 133.514 106.855 134.601C107.435 135.689 102.902 135.943 102.101 135.513C101.3 135.083 101.576 134.566 101.175 133.333C100.774 132.101 102.302 133.035 102.302 133.035H102.303Z" fill="#FBC77B"/>
  <path d="M97.402 125.53L106.281 124.797L106.17 126.168L97.5985 126.888L97.402 125.53Z" fill="#4E3761"/>
  <path d="M85.2388 123.263L95.2531 124.61L94.514 125.682L85.5261 125.391L85.2388 123.263Z" fill="#32134B"/>
  <path d="M78.0631 88.616C78.0631 88.616 75.7673 58.1135 84.4522 51.9819C93.1364 45.8504 104.162 60.1167 106.266 85.0314C106.266 85.0314 89.637 91.2929 78.0631 88.616Z" fill="#F89B9D"/>
  <path d="M79.4759 88.153C79.4759 88.153 78.8326 90.626 79.9354 91.932C81.0383 93.2379 107.091 89.5381 107.458 88.5809C107.826 87.6236 106.677 85.3171 106.677 85.3171L79.4759 88.1537V88.153Z" fill="#F89B9D"/>
  <path d="M184.299 111.729C184.626 111.994 186.858 116.763 186.888 118.727C186.917 120.692 181.572 119.702 179.598 114.301C177.623 108.901 184.299 111.729 184.299 111.729V111.729Z" fill="#FBC77B"/>
  <path d="M180.897 116.737C181.192 116.949 182.403 117.771 184.038 117.712C185.23 117.669 186.026 117.18 186.345 116.957C191.47 118.423 192.756 119.378 192.874 120.025C193.119 121.384 183.94 121.16 181.731 120.871C179.522 120.582 180.896 116.736 180.896 116.736L180.897 116.737Z" fill="#7B3F39"/>
  <path d="M157.228 91.6849C157.228 91.6849 171.829 92.0816 174.447 92.5467C177.066 93.0118 189.768 111.616 189.768 111.616L175.384 117.197L162.356 100.677L151.663 96.9343L157.228 91.6856V91.6849Z" fill="#F87679"/>
  <path d="M139.927 57.6707L143.328 48.161C143.328 48.161 134.664 36.9663 134.353 34.1913C134.041 31.4163 145.914 38.6398 149.427 45.3014C152.94 51.9637 147.564 63.5003 147.564 63.5003L139.927 57.6707Z" fill="#A14336"/>
  <path d="M135.034 64.7331L139.355 55.4929L148.979 63.2024C148.979 63.2024 147.31 75.3369 147.31 75.6165C147.31 75.8961 135.034 64.7331 135.034 64.7331Z" fill="#0D8269"/>
  <path d="M173.007 115.399C173.334 115.646 175.568 120.422 175.596 122.468C175.625 124.515 170.279 123.956 168.304 118.499C166.328 113.042 173.007 115.399 173.007 115.399Z" fill="#FBC77B"/>
  <path d="M130.211 99.8256L120.073 77.7543C119.618 76.7639 120.032 75.6062 121.031 75.087C122.446 74.3518 124.488 73.4778 126.194 73.4778C129.14 73.4778 137.487 96.3324 139.452 97.928C141.416 99.5237 163.807 99.4303 164.789 105.012C165.771 110.594 162.138 113.849 162.138 113.849L136.8 113.384L130.209 99.8263L130.211 99.8256Z" fill="#F4A442"/>
  <path d="M170.094 96.4536C172.583 99.647 179.424 117.197 179.424 117.197L165.554 120.67L160.175 102.686L138.336 99.211C138.336 99.211 145.139 96.9058 154.815 95.151C161.763 93.8912 169.4 95.5627 170.094 96.4536Z" fill="#F89B9D"/>
  <path d="M136.802 99.211C136.802 99.211 122.463 74.5942 123.249 68.4546C124.034 62.3149 134.298 60.6407 142.424 68.4546C150.551 76.2684 160.189 88.9877 158.611 93.3252C157.033 97.6627 136.802 99.211 136.802 99.211Z" fill="#16D2AA"/>
  <path d="M135.493 94.9649C135.493 93.1533 137.043 91.6849 138.956 91.6849H148.201C150.114 91.6849 151.664 93.1533 151.664 94.9649H135.492H135.493Z" fill="#4E3761"/>
  <path d="M174.579 127.092H166.068C165.619 127.092 165.223 126.813 165.093 126.406L161.375 114.784L136.564 113.82C136.183 113.805 135.843 113.59 135.682 113.263L120.073 81.4528L105.506 84.1601C104.953 84.2623 104.419 83.9218 104.31 83.3992C104.201 82.8765 104.562 82.3695 105.113 82.2665L120.464 79.4137C120.924 79.3284 121.386 79.5511 121.584 79.9539L137.267 111.916L162.181 112.884C162.614 112.901 162.988 113.175 163.114 113.569L166.823 125.162H174.579C175.141 125.162 175.597 125.594 175.597 126.127C175.597 126.66 175.141 127.092 174.579 127.092Z" fill="#463157"/>
  <path d="M155.915 115.495H140.767L154.761 110.004L154.391 109.157L140.397 114.648L151.108 104.503L150.424 103.855L139.713 114L145.51 100.745L144.616 100.394L138.819 113.649V99.3024H137.852V113.649L132.055 100.394L131.161 100.745L136.958 114L126.247 103.855L125.563 104.503L136.274 114.648L122.28 109.157L121.91 110.004L135.904 115.495H120.756V116.411H135.904L121.91 121.902L122.28 122.748L136.274 117.258L125.563 127.403L126.247 128.051L136.958 117.905L131.161 131.161L132.055 131.512L137.852 118.256V132.604H138.819V118.257L144.616 131.512L145.51 131.161L139.713 117.905L150.424 128.051L151.108 127.402L140.397 117.258L154.391 122.748L154.761 121.902L140.767 116.411H155.915V115.495Z" fill="#463157"/>
  <path d="M138.336 122.139C141.943 122.139 144.866 119.369 144.866 115.953C144.866 112.537 141.943 109.767 138.336 109.767C134.729 109.767 131.805 112.537 131.805 115.953C131.805 119.369 134.729 122.139 138.336 122.139Z" fill="#463157"/>
  <path d="M138.336 119.089C140.165 119.089 141.647 117.685 141.647 115.953C141.647 114.221 140.165 112.817 138.336 112.817C136.508 112.817 135.026 114.221 135.026 115.953C135.026 117.685 136.508 119.089 138.336 119.089Z" fill="#F4A442"/>
  <path d="M138.336 133.978C135.768 133.978 133.275 133.501 130.929 132.561C128.662 131.653 126.627 130.353 124.88 128.699C123.132 127.044 121.761 125.116 120.802 122.969C119.809 120.746 119.306 118.385 119.306 115.953C119.306 113.521 119.809 111.159 120.802 108.936C121.761 106.789 123.133 104.862 124.88 103.207C126.627 101.551 128.662 100.252 130.929 99.3444C133.276 98.404 135.768 97.9274 138.336 97.9274C140.904 97.9274 143.397 98.404 145.744 99.3444C148.01 100.252 150.045 101.552 151.793 103.207C153.54 104.862 154.912 106.789 155.87 108.936C156.863 111.159 157.366 113.52 157.366 115.953C157.366 118.386 156.863 120.747 155.87 122.969C154.912 125.116 153.54 127.044 151.793 128.699C150.045 130.354 148.01 131.653 145.744 132.561C143.397 133.501 140.904 133.978 138.336 133.978ZM138.336 100.677C129.443 100.677 122.208 107.529 122.208 115.953C122.208 124.377 129.443 131.229 138.336 131.229C147.23 131.229 154.465 124.377 154.465 115.953C154.465 107.529 147.23 100.677 138.336 100.677Z" fill="#463157"/>
  <path d="M138.336 135.708C135.521 135.708 132.789 135.186 130.217 134.155C127.733 133.16 125.503 131.736 123.588 129.922C121.673 128.108 120.169 125.996 119.119 123.643C118.031 121.206 117.479 118.619 117.479 115.953C117.479 113.287 118.031 110.7 119.119 108.263C120.169 105.911 121.673 103.798 123.588 101.984C125.503 100.17 127.733 98.7459 130.217 97.7507C132.789 96.7203 135.521 96.1977 138.336 96.1977C141.151 96.1977 143.882 96.7203 146.455 97.7507C148.938 98.7459 151.169 100.17 153.084 101.984C154.999 103.798 156.503 105.911 157.553 108.263C158.641 110.7 159.193 113.287 159.193 115.953C159.193 118.619 158.641 121.206 157.553 123.643C156.503 125.996 154.999 128.108 153.084 129.922C151.169 131.736 148.938 133.16 146.455 134.155C143.882 135.186 141.151 135.708 138.336 135.708ZM138.336 99.211C128.59 99.211 120.66 106.722 120.66 115.953C120.66 125.184 128.59 132.695 138.336 132.695C148.082 132.695 156.012 125.184 156.012 115.953C156.012 106.722 148.082 99.211 138.336 99.211Z" fill="#4E3761"/>
  <path d="M166.692 134.813C169.012 134.813 170.893 133.031 170.893 130.834C170.893 128.637 169.012 126.855 166.692 126.855C164.372 126.855 162.492 128.637 162.492 130.834C162.492 133.031 164.372 134.813 166.692 134.813Z" fill="white"/>
  <path d="M171.03 130.721H167.293L170.745 129.366L170.654 129.158L167.201 130.512L169.844 128.01L169.675 127.849L167.033 130.353L168.463 127.082L168.242 126.995L166.812 130.266V126.726H166.573V130.266L165.143 126.995L164.923 127.082L166.353 130.352L163.711 127.849L163.542 128.01L166.184 130.512L162.731 129.158L162.64 129.366L166.093 130.721H162.355V130.947H166.093L162.64 132.302L162.731 132.511L166.184 131.156L163.542 133.659L163.711 133.819L166.353 131.316L164.923 134.586L165.143 134.672L166.573 131.403V134.942H166.812V131.403L168.242 134.672L168.463 134.586L167.033 131.316L169.675 133.819L169.844 133.659L167.201 131.156L170.654 132.511L170.745 132.302L167.293 130.947H171.03V130.721Z" fill="#463157"/>
  <path d="M166.693 132.36C167.582 132.36 168.304 131.677 168.304 130.834C168.304 129.991 167.582 129.308 166.693 129.308C165.803 129.308 165.082 129.991 165.082 130.834C165.082 131.677 165.803 132.36 166.693 132.36Z" fill="#463157"/>
  <path d="M166.693 131.913C167.322 131.913 167.832 131.43 167.832 130.834C167.832 130.238 167.322 129.755 166.693 129.755C166.064 129.755 165.554 130.238 165.554 130.834C165.554 131.43 166.064 131.913 166.693 131.913Z" fill="#F4A442"/>
  <path d="M166.694 135.281C166.06 135.281 165.445 135.163 164.866 134.932C164.307 134.708 163.805 134.388 163.374 133.979C162.943 133.57 162.604 133.094 162.367 132.565C162.122 132.017 161.998 131.434 161.998 130.834C161.998 130.234 162.123 129.651 162.367 129.103C162.604 128.574 162.942 128.098 163.374 127.689C163.805 127.281 164.307 126.96 164.866 126.736C165.445 126.504 166.06 126.387 166.694 126.387C167.327 126.387 167.942 126.505 168.521 126.736C169.08 126.96 169.583 127.28 170.014 127.689C170.445 128.098 170.783 128.574 171.02 129.103C171.265 129.651 171.389 130.234 171.389 130.834C171.389 131.434 171.264 132.017 171.02 132.565C170.783 133.094 170.445 133.57 170.014 133.979C169.583 134.387 169.08 134.708 168.521 134.932C167.942 135.164 167.327 135.281 166.694 135.281ZM166.694 127.065C164.499 127.065 162.715 128.756 162.715 130.834C162.715 132.912 164.499 134.603 166.694 134.603C168.888 134.603 170.673 132.912 170.673 130.834C170.673 128.756 168.888 127.065 166.694 127.065Z" fill="#463157"/>
  <path d="M166.693 136.071C165.947 136.071 165.223 135.932 164.541 135.659C163.883 135.395 163.292 135.018 162.784 134.537C162.277 134.056 161.878 133.497 161.6 132.873C161.312 132.227 161.165 131.541 161.165 130.835C161.165 130.128 161.312 129.442 161.6 128.796C161.879 128.173 162.277 127.613 162.784 127.132C163.292 126.652 163.883 126.274 164.541 126.01C165.223 125.738 165.947 125.599 166.693 125.599C167.439 125.599 168.163 125.738 168.845 126.01C169.504 126.274 170.095 126.652 170.602 127.132C171.11 127.613 171.509 128.173 171.787 128.796C172.075 129.442 172.221 130.128 172.221 130.835C172.221 131.541 172.075 132.227 171.787 132.873C171.508 133.497 171.11 134.056 170.602 134.537C170.095 135.018 169.504 135.396 168.845 135.659C168.163 135.932 167.439 136.071 166.693 136.071ZM166.693 126.396C164.11 126.396 162.008 128.387 162.008 130.834C162.008 133.281 164.11 135.272 166.693 135.272C169.276 135.272 171.378 133.281 171.378 130.834C171.378 128.387 169.276 126.396 166.693 126.396Z" fill="#4E3761"/>
  <path d="M152.613 95.9296H128.061C127.498 95.9296 127.042 95.4977 127.042 94.9649C127.042 94.4321 127.498 94.0002 128.061 94.0002H152.613C153.175 94.0002 153.631 94.4321 153.631 94.9649C153.631 95.4977 153.175 95.9296 152.613 95.9296Z" fill="#463157"/>
  <path d="M139.092 81.725L142.424 86.4998C142.424 86.4998 154.928 87.6778 155.915 88.8564C156.185 89.1794 153.512 90.2977 153.512 90.2977C153.512 90.2977 140.392 92.546 139.501 92.546C138.273 92.546 133.118 86.2669 133.118 86.2669L139.092 81.7243V81.725Z" fill="#A14336"/>
  <path d="M127.043 69.1052C127.043 69.1052 124.034 70.6866 127.668 78.8721C131.302 87.0577 133.069 87.9878 133.069 87.9878L141 81.7555C141 81.7555 133.979 63.9885 127.042 69.1045L127.043 69.1052Z" fill="#0D8269"/>
  <path d="M169.602 120.924C169.898 121.119 171.109 121.869 172.745 121.662C173.937 121.511 174.734 120.931 175.053 120.67C180.181 121.743 181.467 122.625 181.584 123.29C181.829 124.685 172.646 125.267 170.437 125.162C168.227 125.057 169.602 120.924 169.602 120.924Z" fill="#7B3F39"/>
  <path d="M155.38 87.1984C154.365 86.8491 149.935 88.0724 149.935 88.0724L154.18 89.5293C154.18 89.5293 154.206 89.6017 154.248 89.7155L153.454 89.9375C153.454 89.9375 153.892 91.5109 154.248 91.0519C154.553 90.6585 154.335 89.9578 154.267 89.7656C154.471 90.3099 154.974 91.5637 155.066 90.9862C155.182 90.2578 155.066 89.4711 155.066 89.4711C155.066 89.4711 155.626 91.8602 155.934 91.1318C156.241 90.4033 155.78 89.2382 155.78 89.2382C155.78 89.2382 156.856 91.7729 156.856 90.316C156.856 88.8591 156.395 87.5484 155.38 87.1984Z" fill="#A14336"/>
  <path d="M127.868 66.5197C126.778 66.9672 125.512 66.4933 125.039 65.4609L122.248 59.3625H122.274L125.977 59.3077L127.356 61.3217L128.838 63.5727C129.533 64.6295 129.075 66.0248 127.868 66.5197Z" fill="#A14336"/>
  <path d="M127.356 61.3211C126.753 61.5343 125.765 61.7489 124.682 61.4246C123.464 61.0597 122.727 60.1627 122.274 59.3612L125.976 59.3063L127.356 61.3204V61.3211Z" fill="#32134B"/>
  <path d="M129.026 55.4278C129.718 56.6782 128.966 58.9949 127.158 60.0151C127.017 60.095 125.565 60.8824 123.89 60.3807C121.996 59.8134 121.264 57.9591 120.956 57.1779C120.738 56.6261 120.284 55.4272 120.641 53.9649C120.741 53.5546 121.28 51.3435 123.009 50.9516C124.277 50.6638 125.443 51.5223 125.699 51.7105C125.887 51.8493 126.028 51.9792 126.143 52.1085C126.733 52.7734 127.001 53.2967 127.227 53.6853C127.889 54.8219 128.591 54.6425 129.025 55.4272L129.026 55.4278Z" fill="#A14336"/>
  <path d="M126.113 51.4349C126.191 51.4871 126.473 51.6881 126.483 51.9765C126.498 52.4118 125.883 52.8106 125.489 52.7375C125.303 52.7029 125.17 52.5628 124.605 52.3739C124.594 52.3699 124.588 52.3678 124.587 52.3678C124.607 52.4254 124.737 52.818 124.5 53.1382C124.467 53.1829 124.372 53.3082 124.196 53.3793C123.965 53.472 123.748 53.4111 123.634 53.3793C123.148 53.2425 123.069 52.7415 122.896 52.7774C122.759 52.8058 122.659 53.1369 122.728 53.4273C122.82 53.8119 123.152 53.8768 123.206 54.1869C123.233 54.3413 123.196 54.5789 122.857 54.916C122.88 54.9566 123.047 55.2538 122.905 55.5903C122.788 55.8665 122.542 55.9823 122.484 56.008C122.511 56.1157 122.557 56.3607 122.462 56.6512C122.362 56.9612 122.159 57.146 122.071 57.2178C123.221 58.1839 123.357 59.659 122.643 60.4694C122.066 61.1254 120.763 61.5343 119.971 60.8729C119.361 60.3631 119.229 59.3645 119.774 58.5488C119.048 59.4817 117.659 59.6645 116.738 59.0091C115.77 58.3213 115.605 56.9132 116.46 56.0012C115.097 55.8144 114.226 54.7014 114.381 53.6988C114.491 52.9798 115.121 52.3583 115.962 52.1126C115.219 51.5412 115.029 50.5345 115.51 49.7661C116.003 48.9775 117.064 48.6579 117.96 49.0377C117.582 48.1414 117.839 47.2179 118.4 46.8795C119.102 46.457 120.486 46.8219 121.031 48.0655C121.462 47.0798 122.563 46.6019 123.456 46.8842C124.126 47.0961 124.617 47.7142 124.711 48.4507C125.203 48.2761 125.758 48.404 126.102 48.7696C126.465 49.1555 126.521 49.7309 126.236 50.1832C126.708 50.2082 127.013 50.6164 126.934 50.9604C126.865 51.2582 126.511 51.4945 126.114 51.4356L126.113 51.4349Z" fill="#EDB04C"/>
  <path d="M122.999 56.5639C123.31 57.1197 123.291 57.9409 122.877 58.1907C122.318 58.5271 120.947 57.882 120.833 56.9653C120.777 56.509 121.022 55.9119 121.516 55.7515C122.109 55.5585 122.741 56.1021 122.999 56.5639Z" fill="#A14336"/>
  <path d="M179.976 85.0043C179.976 85.0043 171.926 55.264 179.976 47.874C188.026 40.4839 202.311 52.8573 209.128 77.114C209.128 77.114 192.704 85.8594 179.976 85.0043Z" fill="#4E3761"/>
  <path d="M28.6043 88.023C28.6043 88.023 30.8986 57.6017 40.9387 53.0381C50.9787 48.4738 59.5786 64.5652 57.9446 89.4515C57.9446 89.4515 40.3133 92.6211 28.6043 88.023Z" fill="#1855D1"/>
  <path d="M174.749 36.8397C172.162 38.6777 171.849 39.7013 172.022 40.293C172.398 41.5773 175.34 41.7567 175.437 43.1201C175.439 43.1547 175.455 43.2528 175.452 43.3848C175.422 44.4531 174.358 44.7666 174.076 45.6243C173.786 46.5098 174.505 47.4407 174.673 47.658C175.585 48.838 177.191 48.9795 177.949 49.0465C181.664 49.3749 186.596 46.9214 186.657 44.1465C186.683 42.9915 185.748 42.039 183.879 40.1332C182.02 38.239 180.215 36.9351 178.931 36.1078C177.537 36.3516 176.143 36.5953 174.749 36.839V36.8397Z" fill="#F6B419"/>
  <path d="M184.459 49.6741C183.387 50.1615 182.101 49.733 181.587 48.7175L178.548 42.7187L178.575 42.7173L182.276 42.5284L183.737 44.4931L185.31 46.6913C186.048 47.723 185.645 49.1352 184.459 49.6741Z" fill="#F38487"/>
  <path d="M183.738 44.4937C183.144 44.7293 182.163 44.9791 181.068 44.6941C179.836 44.3732 179.062 43.5033 178.576 42.718L182.277 42.5291L183.738 44.4937Z" fill="#32134B"/>
  <path d="M185.17 38.5383C185.912 39.7643 185.254 42.1087 183.487 43.1939C183.349 43.2786 181.929 44.1194 180.234 43.6787C178.316 43.1797 177.51 41.3518 177.17 40.5814C176.929 40.0378 176.427 38.8551 176.724 37.3793C176.808 36.9656 177.257 34.7342 178.971 34.2793C180.228 33.9455 181.428 34.7613 181.692 34.9407C181.886 35.0727 182.033 35.1973 182.153 35.3232C182.77 35.9664 183.058 36.4802 183.301 36.8614C184.01 37.9737 184.704 37.7692 185.17 38.5383H185.17Z" fill="#F38487"/>
  <path d="M184.403 34.7376C183.99 34.5717 183.577 34.4059 183.164 34.2407C183.234 34.3125 183.745 34.8622 183.618 35.6312C183.519 36.2263 183.075 36.7293 182.462 36.9466C182.363 36.7855 181.994 36.2094 181.523 35.9758C181.39 35.9102 181.034 35.7646 180.625 35.6441C180.613 35.6407 180.607 35.6387 180.607 35.6387C180.736 35.7463 181.063 36.0483 181.193 36.5499C181.355 37.1734 181.099 37.6737 181.028 37.8017C180.99 37.629 180.834 37.0285 180.235 36.5729C179.7 36.1667 179.129 36.1173 178.932 36.1085C179.114 36.384 179.566 37.1497 179.5 38.1903C179.412 39.5571 178.494 40.3979 178.286 40.5794C177.914 40.5794 177.542 40.5807 177.17 40.5814C176.745 40.5706 175.191 40.4832 174.084 39.356C172.568 37.8132 173.089 35.7118 173.169 35.4139C173.848 32.8982 176.486 31.9477 176.902 31.8096C178.911 31.1414 180.655 31.7284 181.127 31.903C183.252 32.6917 184.186 34.3307 184.403 34.7369V34.7376Z" fill="#F6B419"/>
  <path d="M178.284 40.3038C178.616 40.8481 178.631 41.67 178.227 41.9354C177.681 42.2928 176.285 41.6964 176.133 40.7845C176.058 40.3302 176.28 39.7236 176.767 39.5456C177.353 39.331 178.007 39.8523 178.283 40.3045L178.284 40.3038Z" fill="#F38487"/>
  <path d="M105.688 78.6717C105.688 78.6717 108.844 78.8944 108.731 80.1462C108.618 81.3979 106.968 83.4573 105.805 83.4587C104.642 83.4601 103.069 81.8244 103.069 81.8244L105.688 78.6717Z" fill="#EDB04C"/>
  <path d="M55.1607 62.9614C55.1607 62.9614 61.4533 60.2663 63.5325 56.8678C65.6117 53.4693 64.0536 38.5152 61.2582 37.1985C58.4621 35.8817 58.9588 51.3557 56.5373 52.965C54.115 54.5735 49.6879 56.5632 49.6879 56.5632L55.1607 62.9621V62.9614Z" fill="#A14336"/>
  <path d="M94.4248 65.1488C94.5606 61.6718 92.7159 58.3694 89.5667 56.5774C88.3123 55.8639 87.0107 55.4841 85.8936 55.9079C82.3963 57.2362 79.7332 67.6943 85.9715 74.8082C92.2098 81.922 102.135 83.3809 103.228 82.7506C104.321 82.1204 106.674 80.2695 106.545 78.2324C106.415 76.1953 95.0781 69.9338 94.5863 68.6868C94.3733 68.1472 94.3655 66.6619 94.4248 65.1495V65.1488Z" fill="#F87679"/>
  <path d="M39.0545 61.0692C38.1668 63.017 40.9886 67.7566 45.1985 68.2975C48.5142 68.724 55.9468 64.1888 58.9559 62.2425C59.68 61.774 59.8637 60.8377 59.3662 60.1533C57.9274 58.1765 55.1177 54.3278 53.7547 52.5459C53.3237 51.9827 52.5318 51.7897 51.8678 52.0862C48.8366 53.4375 40.7599 57.3241 39.0538 61.0692H39.0545Z" fill="#76E5FD"/>
  <path d="M108.073 80.4279C108.073 80.4279 109.605 80.7907 110.937 80.4279C112.27 80.065 113.436 79.9235 114.139 80.589C114.843 81.2545 115.241 82.6328 114.873 82.6328C114.506 82.6328 113.541 81.3777 113.541 81.3777C113.541 81.3777 114.307 82.3864 114.23 82.7486C114.154 83.1114 112.821 81.8489 112.821 81.8489C112.821 81.8489 113.342 82.4676 113.342 82.8982C113.342 83.3288 112.285 82.2117 112.285 82.2117C112.285 82.2117 112.469 82.7052 112.392 83.1399C112.316 83.5745 110.83 82.0953 110.83 82.0953C110.83 82.0953 108.195 83.1541 107.001 82.7919C105.807 82.429 108.073 80.4272 108.073 80.4272V80.4279Z" fill="#FBC77B"/>
  <path d="M136.339 37.9628L133.347 36.4226C133.347 36.4226 130.671 36.5614 129.892 35.8986C129.113 35.2359 132.094 34.8182 132.094 34.8182C132.094 34.8182 128.47 31.4813 128.368 30.9038C128.267 30.3263 131.925 32.4385 131.925 32.4385L132.737 31.5456L134.025 30.5829C134.025 30.5829 131.789 28.4653 132.771 28.2405C133.753 28.0157 138.36 35.2995 138.36 35.2995L136.339 37.9628Z" fill="#A14336"/>
  <path d="M89.8446 54.08L89.4008 54.0901C88.1078 54.1206 87.0428 53.1363 87.0428 51.9116V44.856L87.0693 44.8661L90.7274 46.3047L91.3442 48.8373L92.0189 51.3673C92.3806 52.7226 91.3206 54.0448 89.8454 54.0793L89.8446 54.08Z" fill="#FBC77B"/>
  <path d="M91.2206 48.3262C90.8311 48.3012 90.1314 48.161 89.6117 47.5971C89.0271 46.9627 88.8455 46.0833 88.7969 45.3596L90.8711 46.434L91.2206 48.3262Z" fill="#32134B"/>
  <path d="M95.7026 42.5061C96.2044 43.9393 94.9879 46.2621 92.8929 47.042C92.7293 47.1029 91.0532 47.6966 89.3764 46.8923C87.4809 45.9831 87.047 43.9055 86.8648 43.0308C86.7361 42.4127 86.4759 41.0729 87.1192 39.5876C87.2993 39.1712 88.2721 36.925 90.1698 36.7943C91.5607 36.6989 92.6342 37.7949 92.8701 38.0366C93.0437 38.214 93.1688 38.3744 93.266 38.5301C93.7671 39.3283 93.9543 39.9247 94.123 40.3722C94.614 41.6802 95.3881 41.6064 95.7026 42.5061Z" fill="#FBC77B"/>
  <path d="M87.6611 45.2851L90.9117 44.51C90.9117 44.51 90.4457 42.1791 90.5529 42.1459C90.6594 42.1134 91.8816 43.2616 91.8816 43.2616L92.7193 43.0619C92.7193 43.0619 92.2898 42.3856 91.921 41.5942C91.4514 40.5861 91.1698 39.8367 91.4878 39.4386C91.9303 38.8848 93.467 39.8793 94.276 39.1983C94.364 39.1245 94.6363 38.895 94.6742 38.5599C94.7113 38.2329 94.5212 37.8335 94.5512 37.824C94.5534 37.8233 94.5562 37.8254 94.5584 37.8267C94.5233 37.5674 94.2374 35.6847 92.4227 34.6137C90.7023 33.5982 88.9133 34.0836 88.5631 34.1784C87.4216 34.4878 86.6869 35.1282 86.1279 35.6143C85.7784 35.9189 85.138 36.4856 84.6255 37.4219C84.389 37.8538 83.8958 38.7224 83.9108 39.8611C83.9387 41.9685 85.4118 43.4471 85.9321 43.9697C86.5661 44.6068 87.2043 45.0245 87.6632 45.2838L87.6611 45.2851Z" fill="#4F2565"/>
  <path d="M91.7998 42.6835C91.9971 43.2393 91.8491 43.9928 91.4274 44.1634C90.8592 44.3936 89.7006 43.6035 89.7413 42.7437C89.7621 42.3159 90.083 41.8007 90.5626 41.7235C91.1401 41.6308 91.6354 42.2218 91.7991 42.6835H91.7998Z" fill="#FBC77B"/>
  <path d="M44.4227 55.4461L43.9788 55.4563C42.6858 55.4867 41.6208 54.5024 41.6208 53.2777V46.2221L41.6473 46.2323L45.3054 47.6709L45.9222 50.2035L46.5969 52.7334C46.9586 54.0888 45.8986 55.4109 44.4234 55.4454L44.4227 55.4461Z" fill="#A14336"/>
  <path d="M45.7958 49.6917C45.4062 49.6667 44.7065 49.5266 44.1869 48.9626C43.6022 48.3283 43.4207 47.4489 43.3721 46.7252L45.4463 47.7995L45.7958 49.6917Z" fill="#32134B"/>
  <path d="M50.0395 45.0929C50.1568 46.5992 48.3785 48.5699 46.1456 48.8421C45.9712 48.8631 44.1922 49.0513 42.7741 47.8841C41.1703 46.564 41.2853 44.4491 41.3339 43.5588C41.3682 42.9299 41.4612 41.5698 42.4682 40.2781C42.7506 39.9159 44.273 37.9628 46.1463 38.2749C47.5201 38.5037 48.2784 39.8151 48.4449 40.1041C48.5672 40.316 48.6472 40.5002 48.7022 40.6742C48.9824 41.5644 49.0103 42.1859 49.0582 42.6591C49.1976 44.0409 49.9666 44.1478 50.0403 45.0936L50.0395 45.0929Z" fill="#A14336"/>
  <path d="M46.9544 44.9433C46.9544 44.9433 45.9853 41.9219 46.6936 41.1454C47.4019 40.3682 47.8865 40.7216 49.5647 40.3682C51.2429 40.0148 51.8019 36.7659 50.4967 35.812C49.1916 34.8581 48.1852 35.9887 48.1852 35.9887C48.1852 35.9887 47.419 34.5758 46.3476 35.1059C45.2769 35.636 44.6394 36.4477 44.6394 36.4477C44.1891 36.4003 42.8847 36.3191 41.5381 37.055C41.2972 37.1863 39.7798 38.0454 39.2366 39.8029C38.8314 41.1129 39.3059 42.2137 40.1379 44.2541C40.6661 45.5506 41.2429 46.5613 41.6603 47.2281C42.2193 47.1726 42.7782 47.1171 43.3378 47.0616C44.0218 46.9127 44.4435 47.0291 44.7037 47.1672C45.1025 47.3791 45.1919 47.6655 45.6779 48.226C45.9824 48.5774 46.3905 48.9897 46.7322 49.1643C47.9322 49.7763 49.8127 49.4521 50.614 48.3357C51.1036 47.654 50.9806 46.5498 50.4546 46.04C50.3967 45.9845 50.0943 45.6907 49.8156 45.7604C49.4782 45.8437 49.5261 46.3697 49.1766 46.5017C48.8707 46.6168 48.4912 46.344 48.0745 46.0441C47.7786 45.8308 47.3597 45.4815 46.9552 44.9426L46.9544 44.9433Z" fill="#EDB04C"/>
  <path d="M46.2082 44.3631C46.2561 44.9473 45.9188 45.644 45.4656 45.7123C44.8552 45.8044 43.9354 44.77 44.197 43.9454C44.327 43.5351 44.7716 43.11 45.2562 43.1459C45.8394 43.1892 46.1682 43.877 46.2075 44.3624L46.2082 44.3631Z" fill="#A14336"/>
  <path d="M15.1221 113.497L14.9662 113.192C15.1371 113.114 32.0437 105.352 33.7226 103.444C34.4138 102.659 35.2279 100.133 35.9569 96.5145C36.5645 93.4978 36.8882 90.8014 36.8017 90.5245C36.8017 90.5245 36.8053 90.5353 36.8153 90.5489L37.1077 90.3539C37.1555 90.4182 37.2549 90.5522 37.0126 92.4004C36.8568 93.5886 36.6102 95.0603 36.3357 96.438C35.8969 98.6416 35.0092 102.511 33.9971 103.661C32.2695 105.625 15.8211 113.177 15.1221 113.497Z" fill="#FDDFC2"/>
  <path d="M36.541 95.0888L36.3273 94.8173C38.8846 93.0131 38.7767 91.5129 38.7753 91.498L39.1312 91.4648C39.1384 91.5332 39.2792 93.1566 36.541 95.0888Z" fill="#FDDFC2"/>
  <path d="M169.948 117.764C169.909 117.633 166.076 104.609 164.792 101.194C163.625 98.0878 157.406 98.9442 154.066 99.4039C153.836 99.4357 153.62 99.4655 153.421 99.4912C150.22 99.9137 149.779 98.3708 149.762 98.3051L150.109 98.2225C150.124 98.276 150.513 99.5339 153.372 99.1568C153.57 99.1304 153.785 99.1013 154.014 99.0695C157.456 98.5956 163.863 97.7128 165.129 101.081C166.417 104.506 170.254 117.543 170.293 117.674L169.948 117.765V117.764Z" fill="#FDDFC2"/>
  <path d="M179.885 112.894L174.361 102.652C173.665 101.363 173.318 100.705 173.318 100.677H173.675H173.496L173.657 100.602C173.716 100.715 180.138 112.62 180.203 112.74L179.885 112.894Z" fill="#FDDFC2"/>
  <path d="M47.8459 124.895C47.8373 124.751 46.9839 110.485 46.9839 107.428C46.9839 104.37 44.1249 94.6224 44.0956 94.5235L44.4401 94.4328C44.5587 94.8363 47.3412 104.351 47.3412 107.428C47.3412 110.504 48.1939 124.732 48.2025 124.876L47.8459 124.895Z" fill="#FDDFC2"/>
  <path d="M29.2729 87.8558C29.2729 87.8558 28.3338 90.6991 28.6039 91.4824C28.8748 92.2657 45.7821 93.4809 57.1166 92.525L57.3317 88.7839L29.2729 87.8558Z" fill="#76E5FD"/>
  <path d="M41.0673 54.2282C41.0673 54.2282 40.4547 51.8026 40.9143 50.8392C41.3739 49.8759 46.2942 50.1162 46.6673 50.0397C47.0404 49.9632 47.4078 53.445 47.4078 54.2282C47.4078 55.0115 46.1212 55.9647 43.977 56.0399C41.8328 56.115 41.0673 54.2282 41.0673 54.2282Z" fill="#76E5FD"/>
  <path d="M59.7621 40.054V37.5783C59.875 36.4795 59.6234 35.7599 59.379 35.3097C58.9994 34.611 58.374 34.0782 58.5677 33.777C58.6642 33.6273 58.9101 33.6179 59.0159 33.6138C59.8907 33.5806 60.5033 34.7193 60.5411 34.7925L61.8148 33.7011C61.8634 33.6923 62.3866 33.6077 62.7747 33.9692C63.0885 34.261 63.0921 34.6367 63.0914 34.7065C63.1242 34.7051 63.3923 34.6956 63.5631 34.8886C63.7225 35.068 63.7311 35.3483 63.5731 35.5683C63.8854 35.5771 64.1449 35.7951 64.1899 36.0754C64.2307 36.3326 64.0834 36.5919 63.8261 36.707C63.8783 36.7341 64.0498 36.8309 64.1292 37.0326C64.2507 37.3413 64.0448 37.6142 64.0284 37.6358C63.3715 38.9756 62.7147 40.3154 62.0571 41.6551L59.7613 40.054H59.7621Z" fill="#A14336"/>
  <path d="M5.65598 116.79C5.65598 116.79 5.16709 118.622 6.7281 120.716C6.7281 120.716 2.73124 127.902 2.92565 129.339C3.12006 130.775 -0.281417 126.985 0.0187768 119.873C0.225338 114.977 5.65598 116.79 5.65598 116.79Z" fill="#7B3F39"/>
  <path d="M50.5267 136.226C49.3052 136.226 48.4439 136.166 48.3439 136.159L48.371 135.821C48.4425 135.826 55.5471 136.316 58.6755 134.397L58.8699 134.681C56.7286 135.995 52.9297 136.226 50.5267 136.226Z" fill="#FDDFC2"/>
  <path d="M54.4718 132.21L53.7979 133.719L54.127 133.851L54.8009 132.342L54.4718 132.21Z" fill="#FDDFC2"/>
  <path d="M56.3157 132.967L55.795 133.941L56.1138 134.094L56.6345 133.12L56.3157 132.967Z" fill="#FDDFC2"/>
  <path d="M2.15706 125.998C0.999886 123.806 1.34225 118.31 1.35726 118.077L1.71392 118.098C1.71034 118.155 1.36226 123.736 2.47655 125.846L2.15706 125.998Z" fill="#FDDFC2"/>
  <path d="M3.45931 120.774L3.27057 121.061L5.11746 122.149L5.30621 121.862L3.45931 120.774Z" fill="#FDDFC2"/>
  <path d="M2.99949 122.888L2.85596 123.198L4.21745 123.763L4.36098 123.453L2.99949 122.888Z" fill="#FDDFC2"/>
  <path d="M107.519 134.559L107.412 135.458L107.767 135.496L107.875 134.596L107.519 134.559Z" fill="#FDDFC2"/>
  <path d="M93.7485 133.93H93.3912V134.684H93.7485V133.93Z" fill="#FDDFC2"/>
  <path d="M85.9886 36.095C85.9886 36.095 81.743 39.071 81.5315 41.4046C81.3085 43.8655 82.9838 44.6339 82.4506 46.0616C81.6558 48.1894 76.0179 44.8431 75.0987 49.5434C74.7614 51.2697 77.4024 53.0455 76.569 54.6791C75.9007 55.9891 73.6785 55.3906 72.342 56.6376C70.4529 58.4005 69.8246 63.0115 72.8015 65.1244C75.3968 66.9665 79.3872 65.949 80.8424 64.0365C82.3877 62.0055 80.4014 59.8493 82.129 57.5516C83.5413 55.6736 85.3582 56.463 86.8156 54.4618C88.0006 52.8343 87.2844 51.6448 88.1021 48.9348C88.754 46.7738 89.9941 45.5512 90.9118 44.512C89.1657 44.8891 87.1579 44.6352 86.1266 43.6258C84.3633 41.9002 85.9886 36.097 85.9886 36.097V36.095Z" fill="#4F2565"/>
  <path d="M187.775 119.999C185.067 119.999 182.09 119.839 181.902 119.828L181.923 119.49C181.992 119.494 188.885 119.866 191.288 119.492L191.346 119.826C190.511 119.956 189.18 119.999 187.775 119.999Z" fill="#FDDFC2"/>
  <path d="M174.374 123.945C172.374 123.945 170.635 123.746 170.496 123.73L170.54 123.394C170.605 123.402 177.092 124.141 179.461 122.778L179.647 123.067C178.437 123.763 176.287 123.945 174.374 123.945Z" fill="#FDDFC2"/>
  <path d="M176.44 121.122L175.455 122.368L175.741 122.571L176.726 121.325L176.44 121.122Z" fill="#FDDFC2"/>
  <path d="M188.555 117.945L187.835 118.799L188.114 119.01L188.834 118.156L188.555 117.945Z" fill="#FDDFC2"/>
  <path d="M204.106 133.635V133.296C204.99 133.296 211.843 132.993 212.917 131.858L213.183 132.084C211.894 133.446 204.181 133.635 204.106 133.635Z" fill="#FDDFC2"/>
  <path d="M210.41 130.92L209.69 132.08L209.999 132.251L210.718 131.091L210.41 130.92Z" fill="#FDDFC2"/>
  <path d="M235.565 123.809C234.771 123.809 234.272 123.745 234.239 123.74L234.289 123.405C234.341 123.411 239.555 124.061 243.305 120.969L243.54 121.224C241.512 122.896 239.092 123.491 237.418 123.695C236.709 123.782 236.076 123.809 235.565 123.809Z" fill="#FDDFC2"/>
  <path d="M238.371 120.212L237.881 121.3L238.21 121.433L238.7 120.345L238.371 120.212Z" fill="#FDDFC2"/>
  <path d="M239.794 120.539L239.594 121.037L239.929 121.157L240.128 120.658L239.794 120.539Z" fill="#FDDFC2"/>
  <path d="M208.894 130.769L207.907 132.082L208.198 132.278L209.185 130.965L208.894 130.769Z" fill="#FDDFC2"/>
  <path d="M195.533 3.02934L198.107 0.188679C198.355 -0.0855031 198.812 -0.0563923 199.019 0.2469L205.868 10.261C206.048 10.523 205.955 10.8743 205.668 11.0267L202.181 12.8769C201.916 13.0184 201.579 12.9364 201.418 12.6907L195.482 3.66774C195.35 3.46735 195.371 3.20874 195.534 3.02934H195.533Z" fill="#32134B"/>
  <path d="M196.201 3.78351L198.292 1.47565L204.672 10.8053L201.817 12.3204L196.201 3.78351Z" fill="#4E3761"/>
  <path d="M201.586 3.99945C201.586 3.99945 200.362 4.43476 200.925 5.33516C201.488 6.23556 202.565 5.82665 202.565 5.82665C202.414 5.92008 201.253 6.64852 201.4 7.03982C201.519 7.35462 202.468 7.39728 203.744 7.15627C203.426 7.32078 201.957 8.09187 202.085 8.46015C202.233 8.88395 204.407 8.53395 204.659 8.49265C203.496 8.84875 202.929 9.12496 202.958 9.32196C202.991 9.54605 203.792 9.66791 205.358 9.68754L206.393 11.1925L205.875 9.49054C205.875 9.49054 204.881 4.56339 201.585 3.99945H201.586Z" fill="#F38487"/>
  <path d="M62.1875 35.3794C62.1675 35.3794 62.1468 35.3713 62.1332 35.3557C62.1075 35.3273 62.1118 35.2847 62.1418 35.2603L62.8887 34.6618C62.9187 34.6374 62.9638 34.6415 62.9895 34.6699C63.0152 34.6984 63.0109 34.741 62.9809 34.7654L62.234 35.3639C62.2204 35.3747 62.204 35.3801 62.1883 35.3801L62.1875 35.3794Z" fill="#42210B"/>
  <path d="M63.0138 36.38C62.9995 36.38 62.9845 36.3759 62.9716 36.3671C62.9394 36.3455 62.9323 36.3028 62.9559 36.2724L63.4726 35.5981C63.4955 35.5676 63.5405 35.5608 63.5727 35.5832C63.6049 35.6049 63.612 35.6475 63.5884 35.678L63.0717 36.3523C63.0574 36.3705 63.0359 36.38 63.0138 36.38Z" fill="#42210B"/>
  <path d="M63.451 37.3048C63.4367 37.3048 63.4224 37.3007 63.4096 37.2919C63.3774 37.2703 63.3702 37.2276 63.3931 37.1972C63.5604 36.9758 63.7433 36.7219 63.7612 36.6806C63.7762 36.6461 63.8177 36.6298 63.8548 36.6441C63.8913 36.6583 63.9085 36.6975 63.8934 36.7327C63.8606 36.8092 63.5675 37.1985 63.5089 37.2764C63.4946 37.2946 63.4732 37.3048 63.451 37.3048Z" fill="#42210B"/>
  <path d="M47.4227 42.0235C47.4019 42.0235 47.3819 42.0153 47.3676 41.9991C47.3426 41.97 47.3469 41.9273 47.3769 41.9036C47.577 41.7466 48.0381 41.5306 48.3468 41.8366C48.374 41.8637 48.3733 41.9063 48.3447 41.9321C48.3161 41.9578 48.2711 41.9571 48.2439 41.93C47.9494 41.6389 47.4877 41.993 47.4677 42.0079C47.4541 42.018 47.4384 42.0235 47.4227 42.0235Z" fill="#42210B"/>
  <path d="M92.6982 40.8631C92.6874 40.8631 92.676 40.8604 92.666 40.8556C92.631 40.8387 92.6167 40.7981 92.6345 40.7649C92.6424 40.75 92.8325 40.402 93.1413 40.3282C93.2842 40.2937 93.4265 40.3228 93.5659 40.4135C93.598 40.4345 93.6066 40.4772 93.5837 40.5076C93.5609 40.5381 93.5165 40.5462 93.4844 40.5246C93.3793 40.4562 93.2785 40.4345 93.177 40.4589C92.9312 40.5178 92.7639 40.8231 92.7618 40.8258C92.7489 40.8495 92.7239 40.8631 92.6982 40.8631Z" fill="#42210B"/>
  <path d="M94.678 42.5928C94.6387 42.5928 94.6065 42.5623 94.6065 42.5251C94.6065 42.4878 94.6387 42.4574 94.678 42.4574C94.6866 42.4574 94.9088 42.4486 95.0068 42.1256C95.0282 42.0539 95.0218 41.9984 94.9875 41.9544C94.9074 41.8535 94.6923 41.8311 94.6165 41.8311C94.5772 41.8311 94.545 41.8007 94.545 41.7634C94.545 41.7262 94.5772 41.6957 94.6165 41.6957C94.6308 41.6957 94.9625 41.6978 95.1018 41.8724C95.1647 41.951 95.179 42.0491 95.1447 42.1629C95.0168 42.588 94.6923 42.5928 94.6787 42.5928H94.678Z" fill="#42210B"/>
  <path d="M94.5348 44.2141C94.499 44.2141 94.4683 44.1891 94.464 44.1546C94.459 44.1173 94.4869 44.0835 94.5262 44.0787C95.3603 43.9799 95.2946 43.3747 95.291 43.3489C95.286 43.3117 95.3139 43.2785 95.3532 43.2738C95.3925 43.2691 95.4275 43.2955 95.4325 43.3327C95.4332 43.3401 95.5218 44.0977 94.5434 44.2135C94.5405 44.2135 94.5376 44.2135 94.5348 44.2135V44.2141Z" fill="#42210B"/>
  <path d="M124.838 55.1375C124.808 55.1375 124.779 55.1192 124.77 55.0908C124.764 55.0732 124.627 54.6582 124.854 54.4138C124.996 54.2608 125.243 54.2141 125.586 54.2743C125.625 54.2811 125.65 54.3163 125.643 54.3535C125.636 54.3901 125.599 54.4144 125.56 54.4077C125.269 54.3562 125.068 54.388 124.961 54.5031C124.786 54.6907 124.904 55.0454 124.906 55.0495C124.918 55.0853 124.897 55.1233 124.859 55.1348C124.852 55.1368 124.845 55.1382 124.837 55.1382L124.838 55.1375Z" fill="#42210B"/>
  <path d="M126.583 54.0265C126.555 54.0265 126.529 54.0109 126.517 53.9852C126.514 53.9764 126.423 53.7713 126.532 53.6149C126.605 53.51 126.744 53.4572 126.945 53.4572C126.984 53.4572 127.016 53.4876 127.016 53.5249C127.016 53.5621 126.984 53.5926 126.945 53.5926C126.795 53.5926 126.697 53.625 126.652 53.6894C126.584 53.7848 126.647 53.9317 126.648 53.9331C126.663 53.9676 126.646 54.0069 126.61 54.0218C126.601 54.0252 126.591 54.0272 126.582 54.0272L126.583 54.0265Z" fill="#42210B"/>
  <path d="M127.33 55.4421C127.293 55.4421 127.263 55.4163 127.259 55.3811C127.256 55.3439 127.284 55.3107 127.324 55.3067C127.471 55.2924 127.874 55.2173 127.955 55.0426C127.959 55.0338 127.962 55.0223 127.947 55.0007C127.831 54.8341 127.14 54.6804 127.043 54.6804C127.004 54.6804 126.972 54.65 126.972 54.6127C126.972 54.5755 127.004 54.545 127.043 54.545C127.141 54.545 127.905 54.6947 128.066 54.9262C128.115 54.9959 128.103 55.0575 128.085 55.0968C127.957 55.3757 127.401 55.436 127.338 55.4421C127.336 55.4421 127.333 55.4421 127.331 55.4421H127.33Z" fill="#42210B"/>
  <path d="M127.387 56.9525L128.628 55.6465C128.628 55.6465 128.916 56.2883 128.628 56.7561C128.341 57.2239 127.387 56.9518 127.387 56.9518V56.9525Z" fill="#42210B"/>
  <path d="M183.353 39.6228C183.322 39.6228 183.294 39.6039 183.284 39.5741C183.274 39.5382 183.295 39.501 183.333 39.4901C183.338 39.4888 183.809 39.3547 183.88 38.9912C183.893 38.9248 183.873 38.87 183.818 38.8186C183.619 38.6324 183.075 38.6006 182.965 38.6209C182.926 38.6283 182.888 38.6046 182.881 38.5681C182.873 38.5315 182.898 38.4956 182.936 38.4882C183.088 38.4598 183.677 38.497 183.918 38.7217C184.006 38.8043 184.042 38.9059 184.02 39.0156C183.933 39.4617 183.395 39.614 183.372 39.6201C183.366 39.6222 183.359 39.6228 183.352 39.6228H183.353Z" fill="#42210B"/>
  <path d="M183.738 41.102C183.702 41.102 183.671 41.0763 183.667 41.0418C183.663 41.0045 183.691 40.9714 183.73 40.9666C183.993 40.9382 184.187 40.8421 184.308 40.6809C184.54 40.3695 184.433 39.9119 184.432 39.9071C184.423 39.8706 184.447 39.8347 184.485 39.8259C184.524 39.8178 184.562 39.8401 184.571 39.8767C184.576 39.8976 184.695 40.3973 184.425 40.7588C184.28 40.9538 184.052 41.0688 183.746 41.102C183.744 41.102 183.741 41.102 183.739 41.102H183.738Z" fill="#42210B"/>
  <path d="M181.463 39.2665C181.535 39.1986 181.491 39.0471 181.366 38.9281C181.24 38.8091 181.08 38.7678 181.008 38.8357C180.936 38.9037 180.98 39.0552 181.106 39.1742C181.231 39.2931 181.391 39.3345 181.463 39.2665Z" fill="#42210B"/>
  <path d="M183.177 37.7976C183.249 37.7297 183.205 37.5781 183.08 37.4592C182.954 37.3402 182.794 37.2988 182.722 37.3668C182.651 37.4347 182.694 37.5863 182.82 37.7052C182.946 37.8242 183.106 37.8656 183.177 37.7976Z" fill="#42210B"/>
  <path d="M194.031 90.1312L193.674 90.1115C193.85 87.1822 191.728 85.204 191.706 85.1844L191.954 84.9407C192.046 85.0253 194.216 87.0421 194.031 90.1305V90.1312Z" fill="#FDDFC2"/>
  <path d="M211.287 81.4109C208.23 80.9586 208.195 79.4598 208.195 79.3961H208.552H208.373L208.552 79.3941C208.552 79.407 208.611 80.6716 211.342 81.0758L211.287 81.4102V81.4109Z" fill="#FDDFC2"/>
  <path d="M133.55 33.2807C132.903 33.2807 131.996 32.5976 131.951 32.5638C131.921 32.5401 131.916 32.4974 131.941 32.4683C131.965 32.4392 132.01 32.4345 132.041 32.4582C132.37 32.708 133.322 33.3105 133.769 33.1033C133.837 33.0715 133.874 33.0275 133.885 32.9632C133.943 32.6437 133.359 31.9971 133.129 31.7751L133.23 31.6789C133.673 32.0878 134.389 32.5888 134.592 32.4196C134.798 32.2476 134.372 31.3398 134.003 30.7501C133.983 30.7176 133.994 30.6763 134.028 30.6574C134.062 30.6384 134.106 30.6492 134.126 30.6811C134.284 30.9343 135.056 32.2138 134.685 32.5218C134.479 32.6931 134.088 32.5049 133.745 32.2706C133.92 32.513 134.062 32.7831 134.026 32.9855C134.006 33.0918 133.939 33.1744 133.831 33.2245C133.747 33.2638 133.652 33.2807 133.55 33.2807Z" fill="#42210B"/>
  <path d="M163.375 50.1791C163.356 50.1791 163.337 50.1717 163.323 50.1575C163.296 50.1304 163.298 50.0871 163.326 50.062L164.543 48.987C164.134 49.0188 163.279 48.9951 162.943 48.3127C162.857 48.1373 162.86 47.9769 162.951 47.8367C163.28 47.3331 164.692 47.2891 164.752 47.2877C164.794 47.285 164.824 47.3161 164.826 47.3534C164.827 47.3906 164.796 47.4217 164.757 47.4231C164.369 47.4333 163.312 47.5409 163.073 47.9078C163.007 48.008 163.008 48.1218 163.073 48.2551C163.472 49.0662 164.727 48.8292 164.739 48.8265L164.99 48.7771L163.424 50.1609C163.411 50.173 163.393 50.1791 163.376 50.1791H163.375Z" fill="#42210B"/>
  <path d="M159.673 50.4811C158.791 50.4811 158.442 49.2598 158.428 49.2077C158.418 49.1718 158.441 49.1345 158.478 49.1251C158.516 49.1156 158.556 49.1373 158.566 49.1731C158.569 49.1846 158.902 50.3457 159.673 50.3457C159.678 50.3457 159.684 50.3457 159.689 50.3457C159.84 50.3423 159.945 50.2956 160.011 50.2022C160.241 49.8738 159.926 49.1102 159.923 49.1027L159.683 48.5286L160.049 49.0398C160.805 50.0979 161.129 50.1751 161.254 50.127C161.61 49.9903 161.498 48.62 161.344 47.788C161.337 47.7515 161.363 47.7163 161.402 47.7095C161.44 47.7027 161.477 47.7278 161.485 47.7643C161.527 47.9958 161.888 50.0302 161.309 50.2523C161.048 50.3525 160.686 50.0979 160.184 49.4548C160.247 49.7229 160.28 50.0634 160.13 50.2766C160.038 50.408 159.891 50.477 159.693 50.4811C159.686 50.4811 159.68 50.4811 159.673 50.4811Z" fill="#42210B"/>
</svg>
