<svg fill="none" height="138" viewBox="0 0 244 138" width="244" xmlns="http://www.w3.org/2000/svg"><path d="m204.784 14.4319s-3.677-1.9714-4.413-3.9069c-.736-1.93551 5.335.5125 5.433.893.099.3804-1.02 3.0139-1.02 3.0139z" fill="#f38487"/><path d="m78.3163 57.6592s1.7462-4.5047 3.0327-5.7233c1.2866-1.2186.6597 1.6973.6597 1.6973s2.235-2.0466 3.6138-3.0689c1.3787-1.0222-1.2408 3.2862-1.2408 3.2862s-3.2621 4.9176-3.2621 5.1356-2.8025-1.3276-2.8025-1.3276z" fill="#a14336"/><path d="m104.038 32.4034-.588-2.1691s-1.587-.9932-1.816-1.8712c-.276-1.0588 2.144.7541 2.144.7541s-.796-2.3356-.536-3.1338c.26-.7981 1.18 2.031 1.18 2.031s-.093-2.031.122-2.4663c.214-.4353.75 2.1034.75 2.1034s.077-2.102.23-2.1535c.153-.0514.689 2.1102.689 2.1102s-.138-.8997.276-1.4074c.413-.5078.459 2.8866.459 2.9307 0 .044.796 2.9591.796 2.9591l-3.707.3121z" fill="#fbc77b"/><path d="m46.703 125.835s.689 9.749 3.9054 9.661c3.2163-.087 2.849-10.184 2.849-10.184l-6.7544.522z" fill="#a14336"/><path d="m12.4726 111.205s-10.33525 7.42-9.49685 9.701c.83911 2.281 13.35935-4.754 13.35935-4.754l-3.8632-4.947z" fill="#a14336"/><path d="m57.0099 88.5727s.2345 11.8803.8734 16.2703c.639 4.39-1.4974 20.989-1.4974 20.989l-11.3923 1.341-1.2515-18.669-5.698-20.8215 18.9658.8909z" fill="#32134b"/><path d="m46.1563 87.6825-8.1109 22.2035-23.8318 9.474-3.8268-9.947 17.8851-11.661 1.7469-10.972z" fill="#4e3761"/><path d="m56.1278 64.7074c.5089.111 8.8693-.5836 9.4925 0 .624.5836 13.8918-8.6675 13.8918-8.6675s2.4952 2.8311 2.4952 4.3469-13.8918 13.7287-13.8918 13.7287l-9.9821 1.9701-2.0063-11.3775z" fill="#a14336"/><path d="m103.94 33.6429s-.567-1.0012-.307-1.6247c.26-.6236 3.293-.8415 4.136-.5511.842.2904 1.072 2.0743 1.072 2.0743z" fill="#edb04c"/><path d="m93.8464 54.8091s7.9956-2.7865 9.8326-6.2676c1.838-3.4811-.643-11.8372-.643-14.187 0-2.3499 5.513-2.7419 6.662-.4787s3.584 13.0125 1.516 17.5389c-2.068 4.5263-10.109 11.5833-10.109 11.5833l-7.2593-8.1889z" fill="#f87679"/><path d="m229.516 114.919s3.463 5.659 5.781 6.157c2.317.499-1.629-8.857-1.629-8.857z" fill="#f38487"/><path d="m203.435 123.735s.028 8.702 2.35 9.267c2.322.564 3.251-10.134 3.251-10.134l-5.601.868z" fill="#f38487"/><path d="m203.901 129.203s1.393 2.198 3.88 1.031c0 0 6.672 1.006 6.334 2.245s-8.585 2.663-9.974 1.739c-1.389-.925-.241-5.014-.241-5.014z" fill="#7b3f39"/><path d="m47.3922 130.688s2.7232 2.375 5.7894.935c0 0 7.532 1.663 7.1161 3.19-.416 1.527-10.5869 3.284-12.2994 2.144-1.7125-1.141-.6061-6.269-.6061-6.269z" fill="#7b3f39"/><path d="m233.508 119.987s1.618.49 2.435-1.135c0 0 4.303 1.87 6.14 1.802 1.838-.068 1.802-.546 1.916.974.113 1.519-7.333 3.589-9.215 3.061s-1.276-4.702-1.276-4.702z" fill="#7b3f39"/><path d="m171.153 60.6624s-2.987 5.5486-5.101 5.5486c-2.113 0-.35-16.4164-.35-16.4164s1.287-.7 1.134-1.8157-1.746-.7095-1.746-.7095c-.206-2.3369-.506-4.7017-.882-4.7044-.368-.0027-.7 2.2361-.95 4.613-.391-3.1798-.739-4.766-1.042-4.7585-.314.0074-.582 1.731-.802 5.1688-.241-.3859-.709-.5727-1.128-.4685-.495.1239-.83.6357-.71 1.1651-.31-.3392-.711-.5382-.974-.4393-.34.1272-.558.7914-.19 1.5421.225.8707.45 1.7406.674 2.6112 0 0-3.423 25.2566 2.298 27.0194 5.72 1.7629 15.376-9.27 15.376-9.27z" fill="#f38487"/><path d="m178.046 50.4134-10.27 12.7295 8.344 9.4657 8.283-10.8366z" fill="#32134b"/><path d="m195.445 41.3721s4.963-5.8228 6.358-11.5075c1.394-5.6847-.467-17.5984 2.036-20.91769s8.208 17.60789 8.182 21.95759c-.025 4.349-8.697 18.2429-8.697 18.2429z" fill="#f38487"/><path d="m188.774 48.5415 7.826-10.7926 9.451 9.9349-7.169 12.8628z" fill="#32134b"/><path d="m193.148 80.3656 19.692 18.6308 15.347 18.7826 8.145-5.654-11.306-18.1004c-1.452-2.3248-3.168-4.4925-5.118-6.4639l-16.878-17.0697-9.882 9.8753z" fill="#eda328"/><path d="m180.474 82.3424s2.719 5.3428 4.061 8.5111 14.392 15.0745 14.392 15.0745l2.382 18.931 10.587-.71.029-17.516c.006-3.921-1.277-7.7449-3.671-10.9431l-7.832-10.4608-1.546-11.4392z" fill="#edb04c"/><path d="m59.1545 63.7176c-.0529-.6959-.6326-1.2511-1.3666-1.3086-3.2721-.2586-11.857-1.1265-13.8661-3.2198-2.4952-2.6003-13.8918 7.0908-4.9911 13.9461 7.1603 5.5147 16.5285 4.4512 19.9178 3.8243.7412-.1368 1.2559-.7779 1.2015-1.4914l-.8963-11.7506z" fill="#76e5fd"/><path d="m103.652 133.083s4.34.271 6.495 2.549c2.155 2.279-7.903 1.361-8.294 1.201-1.125-.462-.761-3.91-.761-3.91l2.561.16z" fill="#d7815a"/><path d="m89.9952 132.599s5.6115 1.27 6.3748 2.662c.7634 1.392-7.6106 1.048-7.825.634-.2145-.414-.3167-2.191-.3167-2.191z" fill="#d7815a"/><path d="m98.1737 123.868s2.7593 10.576 4.5493 11.71c1.791 1.134 1.652-13.359 1.652-13.359z" fill="#fbc77b"/><path d="m86.6422 122.625s.6575 10.924 2.26 12.089c1.6024 1.164 4.4407-12.244 4.4407-12.244z" fill="#fbc77b"/><path d="m80.676 93.1566c-.1837-1.7493-.5518-3.1351-.3667-5.3536.1709-2.0438.7198-3.6903 1.1694-4.7809l5.4406-.0271 19.1187-.0961-3.04 18.1221-8.4574 23.864-8.7677-.639-1.3481-17.615s-3.6916-12.9368-3.7481-13.4744z" fill="#32134b"/><path d="m107.17 101.504-1.132-18.6051-19.1185.0961-2.5088 1.5239s-1.095 4.0356.4996 6.428c1.0864 1.6296 3.9226 6.4423 5.6208 9.3441l2.3086 5.44 5.2956 20.215 7.7117-.528z" fill="#4e3761"/><path d="m102.192 124.315c-.064 0-.117-.048-.119-.109l-.819-23.113-1.5279-8.0982-.8892-4.7098c-.0114-.0609.0315-.1198.0965-.1307.0651-.0108.1265.0298.138.0914l.8891 4.7099 1.5295 8.1054c.001.006.001.011.002.016l.82 23.122c.002.062-.049.114-.115.116-.001 0-.003 0-.004 0z" fill="#fddfc2"/><path d="m99.843 93.0883c-.0171 0-.0343-.0034-.05-.0109-.0593-.0264-.0851-.0934-.0572-.1496 1.2742-2.5813.9232-4.4905.9202-4.5094-.012-.0609.03-.1198.095-.1314.065-.0108.127.0292.139.0908.016.0805.367 1.9991-.9383 4.6455-.0201.0406-.0629.065-.108.065z" fill="#fddfc2"/><path d="m90.371 123.068s-.0021 0-.0035 0c-.0658-.003-.1172-.054-.1158-.116l.4624-15.69-1.9269-9.2811c-.0129-.061.0293-.1205.0936-.132.0643-.0122.1272.0277.1394.0887l1.9298 9.2934c.0014.008.0021.017.0021.025l-.4624 15.702c-.0022.061-.0543.11-.1187.11z" fill="#fddfc2"/><path d="m87.9118 132.378s3.3278.211 4.405.926c.0471.032.1372.103.1601.213.1151.547-1.5482 1.602-3.072 1.457-.2545-.025-.4932-.048-.7476-.197-.471-.276-.7619-2.295-.7455-2.399z" fill="#fbc77b"/><path d="m102.303 133.035s3.971.479 4.552 1.566c.58 1.088-3.953 1.342-4.754.912s-.525-.947-.926-2.18c-.401-1.232 1.127-.298 1.127-.298z" fill="#fbc77b"/><path d="m97.402 125.53 8.879-.733-.111 1.371-8.5715.72z" fill="#4e3761"/><path d="m85.2388 123.263 10.0143 1.347-.7391 1.072-8.9879-.291z" fill="#32134b"/><path d="m78.0631 88.616s-2.2958-30.5025 6.3891-36.6341c8.6842-6.1315 19.7098 8.1348 21.8138 33.0495 0 0-16.629 6.2615-28.2029 3.5846z" fill="#f89b9d"/><path d="m79.4759 88.153s-.6433 2.473.4595 3.779c1.1029 1.3059 27.1556-2.3939 27.5226-3.3511.368-.9573-.781-3.2638-.781-3.2638l-27.2011 2.8366z" fill="#f89b9d"/><path d="m184.299 111.729c.327.265 2.559 5.034 2.589 6.998.029 1.965-5.316.975-7.29-4.426-1.975-5.4 4.701-2.572 4.701-2.572z" fill="#fbc77b"/><path d="m180.897 116.737c.295.212 1.506 1.034 3.141.975 1.192-.043 1.988-.532 2.307-.755 5.125 1.466 6.411 2.421 6.529 3.068.245 1.359-8.934 1.135-11.143.846s-.835-4.135-.835-4.135z" fill="#7b3f39"/><path d="m157.228 91.6849s14.601.3967 17.219.8618c2.619.4651 15.321 19.0693 15.321 19.0693l-14.384 5.581-13.028-16.52-10.693-3.7427 5.565-5.2487z" fill="#f87679"/><path d="m139.927 57.6707 3.401-9.5097s-8.664-11.1947-8.975-13.9697c-.312-2.775 11.561 4.4485 15.074 11.1101 3.513 6.6623-1.863 18.1989-1.863 18.1989z" fill="#a14336"/><path d="m135.034 64.7331 4.321-9.2402 9.624 7.7095s-1.669 12.1345-1.669 12.4141-12.276-10.8834-12.276-10.8834z" fill="#0d8269"/><path d="m173.007 115.399c.327.247 2.561 5.023 2.589 7.069.029 2.047-5.317 1.488-7.292-3.969-1.976-5.457 4.703-3.1 4.703-3.1z" fill="#fbc77b"/><path d="m130.211 99.8256-10.138-22.0713c-.455-.9904-.041-2.1481.958-2.6673 1.415-.7352 3.457-1.6092 5.163-1.6092 2.946 0 11.293 22.8546 13.258 24.4502 1.964 1.5957 24.355 1.5023 25.337 7.084.982 5.582-2.651 8.837-2.651 8.837l-25.338-.465-6.591-13.5577z" fill="#f4a442"/><path d="m170.094 96.4536c2.489 3.1934 9.33 20.7434 9.33 20.7434l-13.87 3.473-5.379-17.984-21.839-3.475s6.803-2.3052 16.479-4.06c6.948-1.2598 14.585.4117 15.279 1.3026z" fill="#f89b9d"/><path d="m136.802 99.211s-14.339-24.6168-13.553-30.7564c.785-6.1397 11.049-7.8139 19.175 0 8.127 7.8138 17.765 20.5331 16.187 24.8706s-21.809 5.8858-21.809 5.8858z" fill="#16d2aa"/><path d="m135.493 94.9649c0-1.8116 1.55-3.28 3.463-3.28h9.245c1.913 0 3.463 1.4684 3.463 3.28h-16.172z" fill="#4e3761"/><path d="m174.579 127.092h-8.511c-.449 0-.845-.279-.975-.686l-3.718-11.622-24.811-.964c-.381-.015-.721-.23-.882-.557l-15.609-31.8102-14.567 2.7073c-.553.1022-1.087-.2383-1.196-.7609-.109-.5227.252-1.0297.803-1.1327l15.351-2.8528c.46-.0853.922.1374 1.12.5402l15.683 31.9621 24.914.968c.433.017.807.291.933.685l3.709 11.593h7.756c.562 0 1.018.432 1.018.965s-.456.965-1.018.965z" fill="#463157"/><path d="m155.915 115.495h-15.148l13.994-5.491-.37-.847-13.994 5.491 10.711-10.145-.684-.648-10.711 10.145 5.797-13.255-.894-.351-5.797 13.255v-14.3466h-.967v14.3466l-5.797-13.255-.894.351 5.797 13.255-10.711-10.145-.684.648 10.711 10.145-13.994-5.491-.37.847 13.994 5.491h-15.148v.916h15.148l-13.994 5.491.37.846 13.994-5.49-10.711 10.145.684.648 10.711-10.146-5.797 13.256.894.351 5.797-13.256v14.348h.967v-14.347l5.797 13.255.894-.351-5.797-13.256 10.711 10.146.684-.649-10.711-10.144 13.994 5.49.37-.846-13.994-5.491h15.148z" fill="#463157"/><path d="m138.336 122.139c3.607 0 6.53-2.77 6.53-6.186s-2.923-6.186-6.53-6.186-6.531 2.77-6.531 6.186 2.924 6.186 6.531 6.186z" fill="#463157"/><path d="m138.336 119.089c1.829 0 3.311-1.404 3.311-3.136s-1.482-3.136-3.311-3.136c-1.828 0-3.31 1.404-3.31 3.136s1.482 3.136 3.31 3.136z" fill="#f4a442"/><path d="m138.336 133.978c-2.568 0-5.061-.477-7.407-1.417-2.267-.908-4.302-2.208-6.049-3.862-1.748-1.655-3.119-3.583-4.078-5.73-.993-2.223-1.496-4.584-1.496-7.016s.503-4.794 1.496-7.017c.959-2.147 2.331-4.074 4.078-5.729 1.747-1.656 3.782-2.955 6.049-3.8626 2.347-.9404 4.839-1.417 7.407-1.417s5.061.4766 7.408 1.417c2.266.9076 4.301 2.2076 6.049 3.8626 1.747 1.655 3.119 3.582 4.077 5.729.993 2.223 1.496 4.584 1.496 7.017s-.503 4.794-1.496 7.016c-.958 2.147-2.33 4.075-4.077 5.73-1.748 1.655-3.783 2.954-6.049 3.862-2.347.94-4.84 1.417-7.408 1.417zm0-33.301c-8.893 0-16.128 6.852-16.128 15.276s7.235 15.276 16.128 15.276c8.894 0 16.129-6.852 16.129-15.276s-7.235-15.276-16.129-15.276z" fill="#463157"/><path d="m138.336 135.708c-2.815 0-5.547-.522-8.119-1.553-2.484-.995-4.714-2.419-6.629-4.233s-3.419-3.926-4.469-6.279c-1.088-2.437-1.64-5.024-1.64-7.69s.552-5.253 1.64-7.69c1.05-2.352 2.554-4.465 4.469-6.279s4.145-3.2381 6.629-4.2333c2.572-1.0304 5.304-1.553 8.119-1.553s5.546.5226 8.119 1.553c2.483.9952 4.714 2.4193 6.629 4.2333s3.419 3.927 4.469 6.279c1.088 2.437 1.64 5.024 1.64 7.69s-.552 5.253-1.64 7.69c-1.05 2.353-2.554 4.465-4.469 6.279s-4.146 3.238-6.629 4.233c-2.573 1.031-5.304 1.553-8.119 1.553zm0-36.497c-9.746 0-17.676 7.511-17.676 16.742s7.93 16.742 17.676 16.742 17.676-7.511 17.676-16.742-7.93-16.742-17.676-16.742z" fill="#4e3761"/><path d="m166.692 134.813c2.32 0 4.201-1.782 4.201-3.979s-1.881-3.979-4.201-3.979-4.2 1.782-4.2 3.979 1.88 3.979 4.2 3.979z" fill="#fff"/><path d="m171.03 130.721h-3.737l3.452-1.355-.091-.208-3.453 1.354 2.643-2.502-.169-.161-2.642 2.504 1.43-3.271-.221-.087-1.43 3.271v-3.54h-.239v3.54l-1.43-3.271-.22.087 1.43 3.27-2.642-2.503-.169.161 2.642 2.502-3.453-1.354-.091.208 3.453 1.355h-3.738v.226h3.738l-3.453 1.355.091.209 3.453-1.355-2.642 2.503.169.16 2.642-2.503-1.43 3.27.22.086 1.43-3.269v3.539h.239v-3.539l1.43 3.269.221-.086-1.43-3.27 2.642 2.503.169-.16-2.643-2.503 3.453 1.355.091-.209-3.452-1.355h3.737z" fill="#463157"/><path d="m166.693 132.36c.889 0 1.611-.683 1.611-1.526s-.722-1.526-1.611-1.526c-.89 0-1.611.683-1.611 1.526s.721 1.526 1.611 1.526z" fill="#463157"/><path d="m166.693 131.913c.629 0 1.139-.483 1.139-1.079s-.51-1.079-1.139-1.079-1.139.483-1.139 1.079.51 1.079 1.139 1.079z" fill="#f4a442"/><path d="m166.694 135.281c-.634 0-1.249-.118-1.828-.349-.559-.224-1.061-.544-1.492-.953s-.77-.885-1.007-1.414c-.245-.548-.369-1.131-.369-1.731s.125-1.183.369-1.731c.237-.529.575-1.005 1.007-1.414.431-.408.933-.729 1.492-.953.579-.232 1.194-.349 1.828-.349.633 0 1.248.118 1.827.349.559.224 1.062.544 1.493.953s.769.885 1.006 1.414c.245.548.369 1.131.369 1.731s-.125 1.183-.369 1.731c-.237.529-.575 1.005-1.006 1.414-.431.408-.934.729-1.493.953-.579.232-1.194.349-1.827.349zm0-8.216c-2.195 0-3.979 1.691-3.979 3.769s1.784 3.769 3.979 3.769c2.194 0 3.979-1.691 3.979-3.769s-1.785-3.769-3.979-3.769z" fill="#463157"/><path d="m166.693 136.071c-.746 0-1.47-.139-2.152-.412-.658-.264-1.249-.641-1.757-1.122-.507-.481-.906-1.04-1.184-1.664-.288-.646-.435-1.332-.435-2.038 0-.707.147-1.393.435-2.039.279-.623.677-1.183 1.184-1.664.508-.48 1.099-.858 1.757-1.122.682-.272 1.406-.411 2.152-.411s1.47.139 2.152.411c.659.264 1.25.642 1.757 1.122.508.481.907 1.041 1.185 1.664.288.646.434 1.332.434 2.039 0 .706-.146 1.392-.434 2.038-.279.624-.677 1.183-1.185 1.664-.507.481-1.098.859-1.757 1.122-.682.273-1.406.412-2.152.412zm0-9.675c-2.583 0-4.685 1.991-4.685 4.438s2.102 4.438 4.685 4.438 4.685-1.991 4.685-4.438-2.102-4.438-4.685-4.438z" fill="#4e3761"/><path d="m152.613 95.9296h-24.552c-.563 0-1.019-.4319-1.019-.9647s.456-.9647 1.019-.9647h24.552c.562 0 1.018.4319 1.018.9647s-.456.9647-1.018.9647z" fill="#463157"/><path d="m139.092 81.725 3.332 4.7748s12.504 1.178 13.491 2.3566c.27.323-2.403 1.4413-2.403 1.4413s-13.12 2.2483-14.011 2.2483c-1.228 0-6.383-6.2791-6.383-6.2791l5.974-4.5426z" fill="#a14336"/><path d="m127.043 69.1052s-3.009 1.5814.625 9.7669c3.634 8.1856 5.401 9.1157 5.401 9.1157l7.931-6.2323s-7.021-17.767-13.958-12.651z" fill="#0d8269"/><path d="m169.602 120.924c.296.195 1.507.945 3.143.738 1.192-.151 1.989-.731 2.308-.992 5.128 1.073 6.414 1.955 6.531 2.62.245 1.395-8.938 1.977-11.147 1.872-2.21-.105-.835-4.238-.835-4.238z" fill="#7b3f39"/><path d="m155.38 87.1984c-1.015-.3493-5.445.874-5.445.874l4.245 1.4569s.026.0724.068.1862l-.794.222s.438 1.5734.794 1.1144c.305-.3934.087-1.0941.019-1.2863.204.5443.707 1.7981.799 1.2206.116-.7284 0-1.5151 0-1.5151s.56 2.3891.868 1.6607c.307-.7285-.154-1.8936-.154-1.8936s1.076 2.5347 1.076 1.0778-.461-2.7676-1.476-3.1176z" fill="#a14336"/><path d="m127.868 66.5197c-1.09.4475-2.356-.0264-2.829-1.0588l-2.791-6.0984h.026l3.703-.0548 1.379 2.014 1.482 2.251c.695 1.0568.237 2.4521-.97 2.947z" fill="#a14336"/><path d="m127.356 61.3211c-.603.2132-1.591.4278-2.674.1035-1.218-.3649-1.955-1.2619-2.408-2.0634l3.702-.0549 1.38 2.0141z" fill="#32134b"/><path d="m129.026 55.4278c.692 1.2504-.06 3.5671-1.868 4.5873-.141.0799-1.593.8673-3.268.3656-1.894-.5673-2.626-2.4216-2.934-3.2028-.218-.5518-.672-1.7507-.315-3.213.1-.4103.639-2.6214 2.368-3.0133 1.268-.2878 2.434.5707 2.69.7589.188.1388.329.2687.444.398.59.6649.858 1.1882 1.084 1.5768.662 1.1366 1.364.9572 1.798 1.7419z" fill="#a14336"/><path d="m126.113 51.4349c.078.0522.36.2532.37.5416.015.4353-.6.8341-.994.761-.186-.0346-.319-.1747-.884-.3636-.011-.004-.017-.0061-.018-.0061.02.0576.15.4502-.087.7704-.033.0447-.128.17-.304.2411-.231.0927-.448.0318-.562 0-.486-.1368-.565-.6378-.738-.6019-.137.0284-.237.3595-.168.6499.092.3846.424.4495.478.7596.027.1544-.01.392-.349.7291.023.0406.19.3378.048.6743-.117.2762-.363.392-.421.4177.027.1077.073.3527-.022.6432-.1.31-.303.4948-.391.5666 1.15.9661 1.286 2.4412.572 3.2516-.577.656-1.88 1.0649-2.672.4035-.61-.5098-.742-1.5084-.197-2.3241-.726.9329-2.115 1.1157-3.036.4603-.968-.6878-1.133-2.0959-.278-3.0079-1.363-.1868-2.234-1.2998-2.079-2.3024.11-.719.74-1.3405 1.581-1.5862-.743-.5714-.933-1.5781-.452-2.3465.493-.7886 1.554-1.1082 2.45-.7284-.378-.8963-.121-1.8198.44-2.1582.702-.4225 2.086-.0576 2.631 1.186.431-.9857 1.532-1.4636 2.425-1.1813.67.2119 1.161.83 1.255 1.5665.492-.1746 1.047-.0467 1.391.3189.363.3859.419.9613.134 1.4136.472.025.777.4332.698.7772-.069.2978-.423.5341-.82.4752z" fill="#edb04c"/><path d="m122.999 56.5639c.311.5558.292 1.377-.122 1.6268-.559.3364-1.93-.3087-2.044-1.2254-.056-.4563.189-1.0534.683-1.2138.593-.193 1.225.3506 1.483.8124z" fill="#a14336"/><path d="m179.976 85.0043s-8.05-29.7403 0-37.1303c8.05-7.3901 22.335 4.9833 29.152 29.24 0 0-16.424 8.7454-29.152 7.8903z" fill="#4e3761"/><path d="m28.6043 88.023s2.2943-30.4213 12.3344-34.9849c10.04-4.5643 18.6399 11.5271 17.0059 36.4134 0 0-17.6313 3.1696-29.3403-1.4285z" fill="#1855d1"/><path d="m174.749 36.8397c-2.587 1.838-2.9 2.8616-2.727 3.4533.376 1.2843 3.318 1.4637 3.415 2.8271.002.0346.018.1327.015.2647-.03 1.0683-1.094 1.3818-1.376 2.2395-.29.8855.429 1.8164.597 2.0337.912 1.18 2.518 1.3215 3.276 1.3885 3.715.3284 8.647-2.1251 8.708-4.9.026-1.155-.909-2.1075-2.778-4.0133-1.859-1.8942-3.664-3.1981-4.948-4.0254-1.394.2438-2.788.4875-4.182.7312z" fill="#f6b419"/><path d="m184.459 49.6741c-1.072.4874-2.358.0589-2.872-.9566l-3.039-5.9988.027-.0014 3.701-.1889 1.461 1.9647 1.573 2.1982c.738 1.0317.335 2.4439-.851 2.9828z" fill="#f38487"/><path d="m183.738 44.4937c-.594.2356-1.575.4854-2.67.2004-1.232-.3209-2.006-1.1908-2.492-1.9761l3.701-.1889z" fill="#32134b"/><path d="m185.17 38.5383c.742 1.226.084 3.5704-1.683 4.6556-.138.0847-1.558.9255-3.253.4848-1.918-.499-2.724-2.3269-3.064-3.0973-.241-.5436-.743-1.7263-.446-3.2021.084-.4137.533-2.6451 2.247-3.1 1.257-.3338 2.457.482 2.721.6614.194.132.341.2566.461.3825.617.6432.905 1.157 1.148 1.5382.709 1.1123 1.403.9078 1.869 1.6769z" fill="#f38487"/><path d="m184.403 34.7376c-.413-.1659-.826-.3317-1.239-.4969.07.0718.581.6215.454 1.3905-.099.5951-.543 1.0981-1.156 1.3154-.099-.1611-.468-.7372-.939-.9708-.133-.0656-.489-.2112-.898-.3317-.012-.0034-.018-.0054-.018-.0054.129.1076.456.4096.586.9112.162.6235-.094 1.1238-.165 1.2518-.038-.1727-.194-.7732-.793-1.2288-.535-.4062-1.106-.4556-1.303-.4644.182.2755.634 1.0412.568 2.0818-.088 1.3668-1.006 2.2076-1.214 2.3891-.372 0-.744.0013-1.116.002-.425-.0108-1.979-.0982-3.086-1.2254-1.516-1.5428-.995-3.6442-.915-3.9421.679-2.5157 3.317-3.4662 3.733-3.6043 2.009-.6682 3.753-.0812 4.225.0934 2.125.7887 3.059 2.4277 3.276 2.8339z" fill="#f6b419"/><path d="m178.284 40.3038c.332.5443.347 1.3662-.057 1.6316-.546.3574-1.942-.239-2.094-1.1509-.075-.4543.147-1.0609.634-1.2389.586-.2146 1.24.3067 1.516.7589z" fill="#f38487"/><path d="m105.688 78.6717s3.156.2227 3.043 1.4745c-.113 1.2517-1.763 3.3111-2.926 3.3125s-2.736-1.6343-2.736-1.6343z" fill="#edb04c"/><path d="m55.1607 62.9614s6.2926-2.6951 8.3718-6.0936.5211-18.3526-2.2743-19.6693c-2.7961-1.3168-2.2994 14.1572-4.7209 15.7665-2.4223 1.6085-6.8494 3.5982-6.8494 3.5982l5.4728 6.3989z" fill="#a14336"/><path d="m94.4248 65.1488c.1358-3.477-1.7089-6.7794-4.8581-8.5714-1.2544-.7135-2.556-1.0933-3.6731-.6695-3.4973 1.3283-6.1604 11.7864.0779 18.9003 6.2383 7.1138 16.1635 8.5727 17.2565 7.9424 1.093-.6302 3.446-2.4811 3.317-4.5182-.13-2.0371-11.4669-8.2986-11.9587-9.5456-.213-.5396-.2208-2.0249-.1615-3.5373z" fill="#f87679"/><path d="m39.0545 61.0692c-.8877 1.9478 1.9341 6.6874 6.144 7.2283 3.3157.4265 10.7483-4.1087 13.7574-6.055.7241-.4685.9078-1.4048.4103-2.0892-1.4388-1.9768-4.2485-5.8255-5.6115-7.6074-.431-.5632-1.2229-.7562-1.8869-.4597-3.0312 1.3513-11.1079 5.2379-12.814 8.983z" fill="#76e5fd"/><path d="m108.073 80.4279s1.532.3628 2.864 0c1.333-.3629 2.499-.5044 3.202.1611.704.6655 1.102 2.0438.734 2.0438-.367 0-1.332-1.2551-1.332-1.2551s.766 1.0087.689 1.3709c-.076.3628-1.409-.8997-1.409-.8997s.521.6187.521 1.0493-1.057-.6865-1.057-.6865.184.4935.107.9282c-.076.4346-1.562-1.0446-1.562-1.0446s-2.635 1.0588-3.829.6966c-1.194-.3629 1.072-2.3647 1.072-2.3647z" fill="#fbc77b"/><path d="m136.339 37.9628-2.992-1.5402s-2.676.1388-3.455-.524c-.779-.6627 2.202-1.0804 2.202-1.0804s-3.624-3.3369-3.726-3.9144c-.101-.5775 3.557 1.5347 3.557 1.5347l.812-.8929 1.288-.9627s-2.236-2.1176-1.254-2.3424 5.589 7.059 5.589 7.059z" fill="#a14336"/><path d="m89.8446 54.08-.4438.0101c-1.293.0305-2.358-.9538-2.358-2.1785v-7.0556l.0265.0101 3.6581 1.4386.6168 2.5326.6747 2.53c.3617 1.3553-.6983 2.6775-2.1735 2.712z" fill="#fbc77b"/><path d="m91.2206 48.3262c-.3895-.025-1.0892-.1652-1.6089-.7291-.5846-.6344-.7662-1.5138-.8148-2.2375l2.0742 1.0744z" fill="#32134b"/><path d="m95.7026 42.5061c.5018 1.4332-.7147 3.756-2.8097 4.5359-.1636.0609-1.8397.6546-3.5165-.1497-1.8955-.9092-2.3294-2.9868-2.5116-3.8615-.1287-.6181-.3889-1.9579.2544-3.4432.1801-.4164 1.1529-2.6626 3.0506-2.7933 1.3909-.0954 2.4644 1.0006 2.7003 1.2423.1736.1774.2987.3378.3959.4935.5011.7982.6883 1.3946.857 1.8421.491 1.308 1.2651 1.2342 1.5796 2.1339z" fill="#fbc77b"/><path d="m87.6611 45.2851 3.2506-.7751s-.466-2.3309-.3588-2.3641c.1065-.0325 1.3287 1.1157 1.3287 1.1157l.8377-.1997s-.4295-.6763-.7983-1.4677c-.4696-1.0081-.7512-1.7575-.4332-2.1556.4425-.5538 1.9792.4407 2.7882-.2403.088-.0738.3603-.3033.3982-.6384.0371-.327-.153-.7264-.123-.7359.0022-.0007.005.0014.0072.0027-.0351-.2593-.321-2.142-2.1357-3.213-1.7204-1.0155-3.5094-.5301-3.8596-.4353-1.1415.3094-1.8762.9498-2.4352 1.4359-.3495.3046-.9899.8713-1.5024 1.8076-.2365.4319-.7297 1.3005-.7147 2.4392.0279 2.1074 1.501 3.586 2.0213 4.1086.634.6371 1.2722 1.0548 1.7311 1.3141z" fill="#4f2565"/><path d="m91.7998 42.6835c.1973.5558.0493 1.3093-.3724 1.4799-.5682.2302-1.7268-.5599-1.6861-1.4197.0208-.4278.3417-.943.8213-1.0202.5775-.0927 1.0728.4983 1.2365.96z" fill="#fbc77b"/><path d="m44.4227 55.4461-.4439.0102c-1.293.0304-2.358-.9539-2.358-2.1786v-7.0556l.0265.0102 3.6581 1.4386.6168 2.5326.6747 2.5299c.3617 1.3554-.6983 2.6775-2.1735 2.712z" fill="#a14336"/><path d="m45.7958 49.6917c-.3896-.025-1.0893-.1651-1.6089-.7291-.5847-.6343-.7662-1.5137-.8148-2.2374l2.0742 1.0743z" fill="#32134b"/><path d="m50.0395 45.0929c.1173 1.5063-1.661 3.477-3.8939 3.7492-.1744.021-1.9534.2092-3.3715-.958-1.6038-1.3201-1.4888-3.435-1.4402-4.3253.0343-.6289.1273-1.989 1.1343-3.2807.2824-.3622 1.8048-2.3153 3.6781-2.0032 1.3738.2288 2.1321 1.5402 2.2986 1.8292.1223.2119.2023.3961.2573.5701.2802.8902.3081 1.5117.356 1.9849.1394 1.3818.9084 1.4887.9821 2.4345z" fill="#a14336"/><path d="m46.9544 44.9433s-.9691-3.0214-.2608-3.7979c.7083-.7772 1.1929-.4238 2.8711-.7772s2.2372-3.6023.932-4.5562c-1.3051-.9539-2.3115.1767-2.3115.1767s-.7662-1.4129-1.8376-.8828c-1.0707.5301-1.7082 1.3418-1.7082 1.3418-.4503-.0474-1.7547-.1286-3.1013.6073-.2409.1313-1.7583.9904-2.3015 2.7479-.4052 1.31.0693 2.4108.9013 4.4512.5282 1.2965 1.105 2.3072 1.5224 2.974.559-.0555 1.1179-.111 1.6775-.1665.684-.1489 1.1057-.0325 1.3659.1056.3988.2119.4882.4983.9742 1.0588.3045.3514.7126.7637 1.0543.9383 1.2.612 3.0805.2878 3.8818-.8286.4896-.6817.3666-1.7859-.1594-2.2957-.0579-.0555-.3603-.3493-.639-.2796-.3374.0833-.2895.6093-.639.7413-.3059.1151-.6854-.1577-1.1021-.4576-.2959-.2133-.7148-.5626-1.1193-1.1015z" fill="#edb04c"/><path d="m46.2082 44.3631c.0479.5842-.2894 1.2809-.7426 1.3492-.6104.0921-1.5302-.9423-1.2686-1.7669.13-.4103.5746-.8354 1.0592-.7995.5832.0433.912.7311.9513 1.2165z" fill="#a14336"/><path d="m15.1221 113.497-.1559-.305c.1709-.078 17.0775-7.84 18.7564-9.748.6912-.785 1.5053-3.311 2.2343-6.9295.6076-3.0167.9313-5.7131.8448-5.99 0 0 .0036.0108.0136.0244l.2924-.195c.0478.0643.1472.1983-.0951 2.0465-.1558 1.1882-.4024 2.6599-.6769 4.0376-.4388 2.2036-1.3265 6.073-2.3386 7.223-1.7276 1.964-18.176 9.516-18.875 9.836z" fill="#fddfc2"/><path d="m36.541 95.0888-.2137-.2715c2.5573-1.8042 2.4494-3.3044 2.448-3.3193l.3559-.0332c.0072.0684.148 1.6918-2.5902 3.624z" fill="#fddfc2"/><path d="m169.948 117.764c-.039-.131-3.872-13.155-5.156-16.57-1.167-3.1062-7.386-2.2498-10.726-1.7901-.23.0318-.446.0616-.645.0873-3.201.4225-3.642-1.1204-3.659-1.1861l.347-.0826c.015.0535.404 1.3114 3.263.9343.198-.0264.413-.0555.642-.0873 3.442-.4739 9.849-1.3567 11.115 2.0115 1.288 3.425 5.125 16.462 5.164 16.593l-.345.091z" fill="#fddfc2"/><path d="m179.885 112.894-5.524-10.242c-.696-1.289-1.043-1.947-1.043-1.975h.357-.179l.161-.075c.059.113 6.481 12.018 6.546 12.138z" fill="#fddfc2"/><path d="m47.8459 124.895c-.0086-.144-.862-14.41-.862-17.467 0-3.058-2.859-12.8056-2.8883-12.9045l.3445-.0907c.1186.4035 2.9011 9.9182 2.9011 12.9952 0 3.076.8527 17.304.8613 17.448z" fill="#fddfc2"/><path d="m29.2729 87.8558s-.9391 2.8433-.669 3.6266c.2709.7833 17.1782 1.9985 28.5127 1.0426l.2151-3.7411z" fill="#76e5fd"/><path d="m41.0673 54.2282s-.6126-2.4256-.153-3.389c.4596-.9633 5.3799-.723 5.753-.7995s.7405 3.4053.7405 4.1885c0 .7833-1.2866 1.7365-3.4308 1.8117-2.1442.0751-2.9097-1.8117-2.9097-1.8117z" fill="#76e5fd"/><path d="m59.7621 40.054v-2.4757c.1129-1.0988-.1387-1.8184-.3831-2.2686-.3796-.6987-1.005-1.2315-.8113-1.5327.0965-.1497.3424-.1591.4482-.1632.8748-.0332 1.4874 1.1055 1.5252 1.1787l1.2737-1.0914c.0486-.0088.5718-.0934.9599.2681.3138.2918.3174.6675.3167.7373.0328-.0014.3009-.0109.4717.1821.1594.1794.168.4597.01.6797.3123.0088.5718.2268.6168.5071.0408.2572-.1065.5165-.3638.6316.0522.0271.2237.1239.3031.3256.1215.3087-.0844.5816-.1008.6032-.6569 1.3398-1.3137 2.6796-1.9713 4.0193l-2.2958-1.6011z" fill="#a14336"/><path d="m5.65598 116.79s-.48889 1.832 1.07212 3.926c0 0-3.99686 7.186-3.80245 8.623.19441 1.436-3.207067-2.354-2.9068732-9.466.2065612-4.896 5.6372032-3.083 5.6372032-3.083z" fill="#7b3f39"/><path d="m50.5267 136.226c-1.2215 0-2.0828-.06-2.1828-.067l.0271-.338c.0715.005 7.1761.495 10.3045-1.424l.1944.284c-2.1413 1.314-5.9402 1.545-8.3432 1.545z" fill="#fddfc2"/><path d="m54.4718 132.21-.6739 1.509.3291.132.6739-1.509z" fill="#fddfc2"/><path d="m56.3157 132.967-.5207.974.3188.153.5207-.974z" fill="#fddfc2"/><path d="m2.15706 125.998c-1.157174-2.192-.81481-7.688-.7998-7.921l.35666.021c-.00358.057-.35166 5.638.76263 7.748z" fill="#fddfc2"/><path d="m3.45931 120.774-.18874.287 1.84689 1.088.18875-.287z" fill="#fddfc2"/><path d="m2.99949 122.888-.14353.31 1.36149.565.14353-.31z" fill="#fddfc2"/><path d="m107.519 134.559-.107.899.355.038.108-.9z" fill="#fddfc2"/><path d="m93.7485 133.93h-.3573v.754h.3573z" fill="#fddfc2"/><path d="m85.9886 36.095s-4.2456 2.976-4.4571 5.3096c-.223 2.4609 1.4523 3.2293.9191 4.657-.7948 2.1278-6.4327-1.2185-7.3519 3.4818-.3373 1.7263 2.3037 3.5021 1.4703 5.1357-.6683 1.31-2.8905.7115-4.227 1.9585-1.8891 1.7629-2.5174 6.3739.4595 8.4868 2.5953 1.8421 6.5857.8246 8.0409-1.0879 1.5453-2.031-.441-4.1872 1.2866-6.4849 1.4123-1.878 3.2292-1.0886 4.6866-3.0898 1.185-1.6275.4688-2.817 1.2865-5.527.6519-2.161 1.892-3.3836 2.8097-4.4228-1.7461.3771-3.7539.1232-4.7852-.8862-1.7633-1.7256-.138-7.5288-.138-7.5288z" fill="#4f2565"/><path d="m187.775 119.999c-2.708 0-5.685-.16-5.873-.171l.021-.338c.069.004 6.962.376 9.365.002l.058.334c-.835.13-2.166.173-3.571.173z" fill="#fddfc2"/><path d="m174.374 123.945c-2 0-3.739-.199-3.878-.215l.044-.336c.065.008 6.552.747 8.921-.616l.186.289c-1.21.696-3.36.878-5.273.878z" fill="#fddfc2"/><path d="m176.44 121.122-.985 1.246.286.203.985-1.246z" fill="#fddfc2"/><path d="m188.555 117.945-.72.854.279.211.72-.854z" fill="#fddfc2"/><path d="m204.106 133.635v-.339c.884 0 7.737-.303 8.811-1.438l.266.226c-1.289 1.362-9.002 1.551-9.077 1.551z" fill="#fddfc2"/><path d="m210.41 130.92-.72 1.16.309.171.719-1.16z" fill="#fddfc2"/><path d="m235.565 123.809c-.794 0-1.293-.064-1.326-.069l.05-.335c.052.006 5.266.656 9.016-2.436l.235.255c-2.028 1.672-4.448 2.267-6.122 2.471-.709.087-1.342.114-1.853.114z" fill="#fddfc2"/><path d="m238.371 120.212-.49 1.088.329.133.49-1.088z" fill="#fddfc2"/><path d="m239.794 120.539-.2.498.335.12.199-.499z" fill="#fddfc2"/><path d="m208.894 130.769-.987 1.313.291.196.987-1.313z" fill="#fddfc2"/><path d="m195.533 3.02934 2.574-2.840661c.248-.2741821.705-.2450713.912.058221l6.849 10.0141c.18.262.087.6133-.2.7657l-3.487 1.8502c-.265.1415-.602.0595-.763-.1862l-5.936-9.02296c-.132-.20039-.111-.459.052-.6384z" fill="#32134b"/><path d="m196.201 3.78351 2.091-2.30786 6.38 9.32965-2.855 1.5151z" fill="#4e3761"/><path d="m201.586 3.99945s-1.224.43531-.661 1.33571 1.64.49149 1.64.49149c-.151.09343-1.312.82187-1.165 1.21317.119.3148 1.068.35746 2.344.11645-.318.16451-1.787.9356-1.659 1.30388.148.4238 2.322.0738 2.574.0325-1.163.3561-1.73.63231-1.701.82931.033.22409.834.34595 2.4.36558l1.035 1.50496-.518-1.70196s-.994-4.92715-4.29-5.49109z" fill="#f38487"/><g fill="#42210b"><path d="m62.1875 35.3794c-.02 0-.0407-.0081-.0543-.0237-.0257-.0284-.0214-.071.0086-.0954l.7469-.5985c.03-.0244.0751-.0203.1008.0081.0257.0285.0214.0711-.0086.0955l-.7469.5985c-.0136.0108-.03.0162-.0457.0162z"/><path d="m63.0138 36.38c-.0143 0-.0293-.0041-.0422-.0129-.0322-.0216-.0393-.0643-.0157-.0947l.5167-.6743c.0229-.0305.0679-.0373.1001-.0149.0322.0217.0393.0643.0157.0948l-.5167.6743c-.0143.0182-.0358.0277-.0579.0277z"/><path d="m63.451 37.3048c-.0143 0-.0286-.0041-.0414-.0129-.0322-.0216-.0394-.0643-.0165-.0947.1673-.2214.3502-.4753.3681-.5166.015-.0345.0565-.0508.0936-.0365.0365.0142.0537.0534.0386.0886-.0328.0765-.3259.4658-.3845.5437-.0143.0182-.0357.0284-.0579.0284z"/><path d="m47.4227 42.0235c-.0208 0-.0408-.0082-.0551-.0244-.025-.0291-.0207-.0718.0093-.0955.2001-.157.6612-.373.9699-.067.0272.0271.0265.0697-.0021.0955-.0286.0257-.0736.025-.1008-.0021-.2945-.2911-.7562.063-.7762.0779-.0136.0101-.0293.0156-.045.0156z"/><path d="m92.6982 40.8631c-.0108 0-.0222-.0027-.0322-.0075-.035-.0169-.0493-.0575-.0315-.0907.0079-.0149.198-.3629.5068-.4367.1429-.0345.2852-.0054.4246.0853.0321.021.0407.0637.0178.0941-.0228.0305-.0672.0386-.0993.017-.1051-.0684-.2059-.0901-.3074-.0657-.2458.0589-.4131.3642-.4152.3669-.0129.0237-.0379.0373-.0636.0373z"/><path d="m94.678 42.5928c-.0393 0-.0715-.0305-.0715-.0677 0-.0373.0322-.0677.0715-.0677.0086 0 .2308-.0088.3288-.3318.0214-.0717.015-.1272-.0193-.1712-.0801-.1009-.2952-.1233-.371-.1233-.0393 0-.0715-.0304-.0715-.0677 0-.0372.0322-.0677.0715-.0677.0143 0 .346.0021.4853.1767.0629.0786.0772.1767.0429.2905-.1279.4251-.4524.4299-.466.4299z"/><path d="m94.5348 44.2141c-.0358 0-.0665-.025-.0708-.0595-.005-.0373.0229-.0711.0622-.0759.8341-.0988.7684-.704.7648-.7298-.005-.0372.0229-.0704.0622-.0751s.0743.0217.0793.0589c.0007.0074.0893.765-.8891.8808-.0029 0-.0058 0-.0086 0z"/><path d="m124.838 55.1375c-.03 0-.059-.0183-.068-.0467-.006-.0176-.143-.4326.084-.677.142-.153.389-.1997.732-.1395.039.0068.064.042.057.0792-.007.0366-.044.0609-.083.0542-.291-.0515-.492-.0197-.599.0954-.175.1876-.057.5423-.055.5464.012.0358-.009.0738-.047.0853-.007.002-.014.0034-.022.0034z"/><path d="m126.583 54.0265c-.028 0-.054-.0156-.066-.0413-.003-.0088-.094-.2139.015-.3703.073-.1049.212-.1577.413-.1577.039 0 .071.0304.071.0677 0 .0372-.032.0677-.071.0677-.15 0-.248.0324-.293.0968-.068.0954-.005.2423-.004.2437.015.0345-.002.0738-.038.0887-.009.0034-.019.0054-.028.0054z"/><path d="m127.33 55.4421c-.037 0-.067-.0258-.071-.061-.003-.0372.025-.0704.065-.0744.147-.0143.55-.0894.631-.2641.004-.0088.007-.0203-.008-.0419-.116-.1666-.807-.3203-.904-.3203-.039 0-.071-.0304-.071-.0677 0-.0372.032-.0677.071-.0677.098 0 .862.1497 1.023.3812.049.0697.037.1313.019.1706-.128.2789-.684.3392-.747.3453-.002 0-.005 0-.007 0z"/><path d="m127.387 56.9525 1.241-1.306s.288.6418 0 1.1096c-.287.4678-1.241.1957-1.241.1957z"/><path d="m183.353 39.6228c-.031 0-.059-.0189-.069-.0487-.01-.0359.011-.0731.049-.084.005-.0013.476-.1354.547-.4989.013-.0664-.007-.1212-.062-.1726-.199-.1862-.743-.218-.853-.1977-.039.0074-.077-.0163-.084-.0528-.008-.0366.017-.0725.055-.0799.152-.0284.741.0088.982.2335.088.0826.124.1842.102.2939-.087.4461-.625.5984-.648.6045-.006.0021-.013.0027-.02.0027z"/><path d="m183.738 41.102c-.036 0-.067-.0257-.071-.0602-.004-.0373.024-.0704.063-.0752.263-.0284.457-.1245.578-.2857.232-.3114.125-.769.124-.7738-.009-.0365.015-.0724.053-.0812.039-.0081.077.0142.086.0508.005.0209.124.5206-.146.8821-.145.195-.373.31-.679.3432-.002 0-.005 0-.007 0z"/><path d="m181.463 39.2665c.072-.0679.028-.2194-.097-.3384-.126-.119-.286-.1603-.358-.0924-.072.068-.028.2195.098.3385.125.1189.285.1603.357.0923z"/><path d="m183.177 37.7976c.072-.0679.028-.2195-.097-.3384-.126-.119-.286-.1604-.358-.0924-.071.0679-.028.2195.098.3384.126.119.286.1604.357.0924z"/></g><path d="m194.031 90.1312-.357-.0197c.176-2.9293-1.946-4.9075-1.968-4.9271l.248-.2437c.092.0846 2.262 2.1014 2.077 5.1898z" fill="#fddfc2"/><path d="m211.287 81.4109c-3.057-.4523-3.092-1.9511-3.092-2.0148h.357-.179l.179-.002c0 .0129.059 1.2775 2.79 1.6817l-.055.3344z" fill="#fddfc2"/><path d="m133.55 33.2807c-.647 0-1.554-.6831-1.599-.7169-.03-.0237-.035-.0664-.01-.0955.024-.0291.069-.0338.1-.0101.329.2498 1.281.8523 1.728.6451.068-.0318.105-.0758.116-.1401.058-.3195-.526-.9661-.756-1.1881l.101-.0962c.443.4089 1.159.9099 1.362.7407.206-.172-.22-1.0798-.589-1.6695-.02-.0325-.009-.0738.025-.0927.034-.019.078-.0082.098.0237.158.2532.93 1.5327.559 1.8407-.206.1713-.597-.0169-.94-.2512.175.2424.317.5125.281.7149-.02.1063-.087.1889-.195.239-.084.0393-.179.0562-.281.0562z" fill="#42210b"/><path d="m163.375 50.1791c-.019 0-.038-.0074-.052-.0216-.027-.0271-.025-.0704.003-.0955l1.217-1.075c-.409.0318-1.264.0081-1.6-.6743-.086-.1754-.083-.3358.008-.476.329-.5036 1.741-.5476 1.801-.549.042-.0027.072.0284.074.0657.001.0372-.03.0683-.069.0697-.388.0102-1.445.1178-1.684.4847-.066.1002-.065.214 0 .3473.399.8111 1.654.5741 1.666.5714l.251-.0494-1.566 1.3838c-.013.0121-.031.0182-.048.0182z" fill="#42210b"/><path d="m159.673 50.4811c-.882 0-1.231-1.2213-1.245-1.2734-.01-.0359.013-.0732.05-.0826.038-.0095.078.0122.088.048.003.0115.336 1.1726 1.107 1.1726h.016c.151-.0034.256-.0501.322-.1435.23-.3284-.085-1.092-.088-1.0995l-.24-.5741.366.5112c.756 1.0581 1.08 1.1353 1.205 1.0872.356-.1367.244-1.507.09-2.339-.007-.0365.019-.0717.058-.0785.038-.0068.075.0183.083.0548.042.2315.403 2.2659-.176 2.488-.261.1002-.623-.1544-1.125-.7975.063.2681.096.6086-.054.8218-.092.1314-.239.2004-.437.2045-.007 0-.013 0-.02 0z" fill="#42210b"/></svg>