<svg width="833" height="225" viewBox="0 0 833 225" fill="none" xmlns="http://www.w3.org/2000/svg">
  <g clip-path="url(#clip0_1394_491)">
    <rect width="833" height="225" fill="#F2FBF9"/>
    <g opacity="0.8">
      <path d="M-5.5231 -2.42975L-9.54199 1.31998L-0.54255 11.0764L3.47634 7.32666L-5.5231 -2.42975Z" fill="#50DDBF"/>
      <path d="M242.864 2.3091L239.426 13.2676L244.653 14.9266L248.092 3.96812L242.864 2.3091Z" fill="#50DDBF"/>
      <path d="M378.282 93.2055L373.582 96.0427L379.067 105.235L383.768 102.397L378.282 93.2055Z" fill="#50DDBF"/>
      <path d="M481.333 8.68158L476.081 10.2713L478.24 17.4854L483.492 15.8957L481.333 8.68158Z" fill="#50DDBF"/>
      <path d="M371.924 219.364L367.501 228.921L372.471 231.248L376.894 221.691L371.924 219.364Z" fill="#50DDBF"/>
      <path d="M24.2921 18.9821L19.8691 28.5386L24.8392 30.8653L29.2622 21.3088L24.2921 18.9821Z" fill="#50DDBF"/>
      <path d="M549.376 -3.54055L543.091 1.68964L546.584 5.93574L552.869 0.705545L549.376 -3.54055Z" fill="#50DDBF"/>
      <path d="M433.176 30.7238L427.917 32.2989L431.04 42.847L436.299 41.272L433.176 30.7238Z" fill="#50DDBF"/>
      <path d="M706.451 191.127L701.221 189.445L703.765 181.365L708.995 183.047L706.451 191.127Z" fill="#50DDBF"/>
      <path d="M215.593 67.4502L209.474 72.0871L212.774 76.4928L218.893 71.8559L215.593 67.4502Z" fill="#50DDBF"/>
      <path d="M131.882 13.4701L126.126 17.1992L129.096 21.8366L134.852 18.1075L131.882 13.4701Z" fill="#50DDBF"/>
      <path d="M540.499 168.044L534.626 175.556L538.937 178.966L544.81 171.454L540.499 168.044Z" fill="#50DDBF"/>
      <path d="M557.176 47.3235L551.303 54.8356L555.614 58.2451L561.487 50.733L557.176 47.3235Z" fill="#50DDBF"/>
      <path d="M263.209 196.573L258.009 205.725L262.768 208.461L267.969 199.309L263.209 196.573Z" fill="#50DDBF"/>
      <path d="M193.835 182.838L191.574 174.943L196.878 173.53L199.138 181.425L193.835 182.838Z" fill="#50DDBF"/>
      <path d="M35.4276 171.965L30.1777 173.561L32.0151 179.675L37.265 178.08L35.4276 171.965Z" fill="#50DDBF"/>
      <path d="M70.0267 58.4589L67.8037 64.6927L72.9689 66.5559L75.1919 60.3221L70.0267 58.4589Z" fill="#50DDBF"/>
      <path d="M363.045 17.9814L360.061 25.608L365.162 27.627L368.146 20.0004L363.045 17.9814Z" fill="#50DDBF"/>
      <path d="M5.94531 111.105L11.0677 109.114L15.2343 119.731L10.112 121.722L5.94531 111.105Z" fill="#50DDBF"/>
      <path d="M827.512 14.2835L817.756 19.9865L820.513 24.758L830.27 19.055L827.512 14.2835Z" fill="#50DDBF"/>
      <path d="M88.4792 214.623L78.7227 220.326L81.48 225.098L91.2365 219.395L88.4792 214.623Z" fill="#50DDBF"/>
      <path d="M300.096 -11.4617L294.848 -9.85187L297.992 0.51611L303.24 -1.09372L300.096 -11.4617Z" fill="#50DDBF"/>
      <path d="M283.178 103.342L271.368 110.613L274.232 115.318L286.042 108.047L283.178 103.342Z" fill="#50DDBF"/>
      <path d="M124.779 55.4721L112.969 62.7431L115.832 67.4479L127.642 60.1769L124.779 55.4721Z" fill="#50DDBF"/>
      <path d="M659.115 41.0162L655.422 51.8908L660.61 53.6728L664.302 42.7982L659.115 41.0162Z" fill="#50DDBF"/>
      <path d="M714.584 -3.69143L709.732 -1.12268L713.478 6.03209L718.329 3.46334L714.584 -3.69143Z" fill="#50DDBF"/>
      <path d="M786.115 221.821L790.94 227.847L786.711 231.359L781.885 225.331L786.115 221.821Z" fill="#50DDBF"/>
      <path d="M743.345 16.7366L737.969 17.8156L740.028 28.1921L745.404 27.1132L743.345 16.7366Z" fill="#50DDBF"/>
      <path d="M196.311 106.134C195.671 107.599 194.909 109.382 195.064 111.035C195.193 112.384 195.799 112.519 196.474 113.361C196.739 113.44 197.005 113.52 197.27 113.599C197.734 114.877 197.74 116.134 197.291 117.367C197.228 118.112 197.107 118.835 197.18 119.582C197.377 121.581 199.042 123.424 198.771 125.439C198.488 127.549 201.696 128.46 201.982 126.329C202.195 124.747 202.066 123.628 201.481 122.099C201.182 121.32 200.693 120.52 200.557 119.685C200.286 118.011 201.058 116.738 201.121 115.178C201.234 112.442 199.856 110.871 197.362 110.129C197.75 110.52 198.136 110.908 198.525 111.299C198.407 110.071 198.627 108.912 199.189 107.824C200.042 105.87 197.173 104.161 196.311 106.134Z" fill="#5280DD"/>
      <path d="M552.959 171.829C551.011 170.477 548.351 171.836 547.776 174.033C547.401 175.462 547.913 176.851 548.462 178.142C548.911 179.204 549.882 180.6 548.695 181.498C548.112 181.937 547.115 181.929 546.432 181.947C544.292 182.008 544.284 185.359 546.432 185.298C548.511 185.24 550.901 184.728 552.053 182.782C552.615 181.834 552.736 180.688 552.547 179.616C552.434 178.977 552.2 178.393 551.954 177.799C551.707 177.255 551.463 176.708 551.221 176.162C550.84 175.618 550.856 175.137 551.274 174.72C553.046 175.948 554.716 173.046 552.959 171.829Z" fill="#5280DD"/>
      <path d="M178.733 -16.7553C178.344 -15.0362 177.155 -12.4934 177.575 -10.7427C177.874 -9.4937 178.457 -9.73663 179.176 -8.81772C181.353 -6.03192 179.011 -5.59886 178.728 -3.30157C178.475 -1.27362 181.151 0.593264 180.258 2.6265C179.397 4.58051 182.269 6.28631 183.136 4.31909C183.868 2.65554 184.223 1.12137 183.579 -0.642523C183.335 -1.31059 182.356 -2.21103 182.309 -2.7629C182.225 -3.67654 183.041 -4.39213 183.414 -5.28464C183.997 -6.68414 184.223 -8.16814 183.59 -9.59404C182.813 -11.3553 181.487 -11.2312 180.085 -12.1844C180.361 -11.7039 180.636 -11.2206 180.909 -10.7374C180.917 -12.4089 181.584 -14.2362 181.949 -15.8601C182.419 -17.9646 179.208 -18.8624 178.733 -16.7553Z" fill="#5280DD"/>
      <path d="M87.1742 159.797C86.7856 161.516 85.5962 164.058 86.0163 165.809C86.3156 167.058 86.8985 166.815 87.6179 167.734C89.7944 170.52 87.4525 170.953 87.1689 173.25C86.9169 175.278 89.5923 177.145 88.6996 179.178C87.8384 181.132 90.7107 182.838 91.5771 180.871C92.3096 179.207 92.6641 177.673 92.0208 175.909C91.7767 175.241 90.7974 174.341 90.7501 173.789C90.6661 172.875 91.4826 172.16 91.8554 171.267C92.4383 169.868 92.6641 168.384 92.0313 166.958C91.2542 165.196 89.9283 165.321 88.5263 164.367C88.802 164.848 89.0776 165.331 89.3507 165.814C89.3586 164.143 90.0255 162.316 90.3904 160.692C90.8604 158.587 87.6494 157.689 87.1742 159.797Z" fill="#5280DD"/>
      <path d="M481.947 145.885C483.491 146.957 481.196 149.344 481.53 150.942C481.687 151.694 484.533 154.781 484.507 154.818C483.265 156.579 486.151 158.256 487.385 156.511C488.193 155.365 488.091 154.007 487.371 152.822C486.676 151.673 484.869 151.092 485.053 149.806C485.124 149.31 485.675 148.718 485.809 148.188C485.972 147.557 485.983 146.844 485.857 146.207C485.578 144.797 484.783 143.794 483.63 142.994C481.858 141.766 480.191 144.67 481.947 145.885Z" fill="#5280DD"/>
      <path d="M213.574 29.143C212.093 30.3999 210.688 32.1295 211.355 34.2102C211.993 36.196 213.484 36.4389 215.262 36.3887C214.871 36.225 214.477 36.0613 214.083 35.8976C214.934 36.6765 213.86 39.7554 213.563 40.5819C212.831 42.6099 216.047 43.4865 216.774 41.4718C217.493 39.4835 218.076 36.6686 217.249 34.6169C216.979 33.9462 216.409 33.3204 215.703 33.0933C215.671 33.0854 214.38 32.9903 214.414 33.1065C214.306 32.7685 215.729 31.6806 215.929 31.5116C217.57 30.12 215.204 27.762 213.574 29.143Z" fill="#5280DD"/>
      <path d="M145.121 165.048C146.445 164.94 146.552 166.215 146.143 167.118C146.017 167.395 145.741 167.628 145.599 167.905C145.195 168.689 145.106 169.584 145.381 170.419C145.639 171.206 146.187 171.776 146.841 172.251C147.091 172.431 149.855 173.846 149.908 173.738C149.004 175.679 151.877 177.382 152.785 175.428C153.439 174.023 153.292 172.69 152.192 171.528C151.559 170.86 150.792 170.485 149.971 170.115C148.787 169.582 148.64 169.632 149.251 168.496C150.995 165.267 149.015 161.377 145.121 161.694C143 161.869 142.982 165.219 145.121 165.048Z" fill="#5280DD"/>
      <path d="M288.385 42.013C290.538 42.9557 292.911 42.1714 293.856 39.9085C294.368 38.6806 294.311 37.3207 293.975 36.0533C293.804 35.4037 293.494 34.8043 293.258 34.1758C293.077 33.7507 292.924 33.3176 292.812 32.8687C292.99 32.4674 293.003 32.0792 292.848 31.7095C294.492 33.0694 296.863 30.7114 295.203 29.3409C293.355 27.8121 290.824 28.5118 289.787 30.6824C289.217 31.868 289.417 33.2067 289.795 34.4161C289.884 34.6986 291.848 39.8979 290.068 39.1189C288.12 38.2687 286.421 41.1575 288.385 42.013Z" fill="#5280DD"/>
      <path d="M678.385 30.0119C677.921 28.8105 677.64 27.7041 677.561 26.4076C677.007 26.9647 676.45 27.5245 675.896 28.0817C677.747 28.0606 679.136 27.0994 679.974 25.4411C681.15 23.1201 680.231 20.7409 680.559 18.2958C680.024 18.7051 679.488 19.117 678.952 19.5263C680.173 19.5052 681.394 19.4867 682.615 19.4656C684.757 19.4286 684.763 16.0804 682.615 16.1147C681.394 16.1332 680.173 16.1543 678.952 16.1754C678.304 16.186 677.443 16.6824 677.346 17.4059C677.154 18.8397 678.154 24.7044 675.894 24.7308C675.032 24.7387 674.174 25.4913 674.229 26.4049C674.324 27.9761 674.599 29.4258 675.172 30.8992C675.941 32.8902 679.165 32.024 678.385 30.0119Z" fill="#5280DD"/>
      <path d="M52.7906 65.6278C54.4237 66.6867 57.0177 68.2341 56.8654 70.5472C56.784 71.783 55.6734 72.752 56.0909 74.0935C57.1069 77.3678 61.628 74.0961 60.8168 78.9415C60.4623 81.0513 63.6733 81.9571 64.0278 79.8314C64.3874 77.6952 64.629 75.3979 63.0484 73.6736C62.5207 73.1006 61.888 72.7151 61.1397 72.517C60.7091 72.4035 60.3678 72.3771 59.9293 72.3929C59.672 72.4088 59.4174 72.4299 59.1601 72.459C58.4827 72.4458 58.6192 72.62 59.5696 72.9844C60.7144 72.047 60.142 69.1582 59.7036 68.0439C58.74 65.6014 56.5897 64.1068 54.4736 62.7337C52.6672 61.5613 50.9921 64.4607 52.7906 65.6278Z" fill="#5280DD"/>
      <path d="M577.844 47.6931C577.203 49.1586 576.442 50.9409 576.596 52.5939C576.725 53.9433 577.332 54.0779 578.006 54.9203C578.272 54.9995 578.537 55.0787 578.802 55.1579C579.267 56.436 579.272 57.6929 578.823 58.926C578.76 59.6707 578.639 60.3942 578.713 61.1415C578.91 63.1404 580.574 64.9835 580.304 66.9982C580.02 69.108 583.229 70.019 583.515 67.8881C583.727 66.3064 583.599 65.1868 583.013 63.6579C582.714 62.8789 582.226 62.0788 582.089 61.2444C581.819 59.5703 582.591 58.2976 582.654 56.737C582.766 54.0014 581.388 52.4302 578.894 51.6882C579.282 52.079 579.668 52.4672 580.057 52.858C579.939 51.6301 580.159 50.4709 580.721 49.383C581.574 47.429 578.702 45.7206 577.844 47.6931Z" fill="#5280DD"/>
      <path d="M431.96 91.4295C431.319 92.895 430.558 94.6774 430.713 96.3304C430.841 97.6797 431.448 97.8144 432.123 98.6567C432.388 98.736 432.653 98.8152 432.918 98.8944C433.383 100.172 433.388 101.429 432.939 102.662C432.876 103.407 432.755 104.131 432.829 104.878C433.026 106.877 434.69 108.72 434.42 110.735C434.136 112.844 437.345 113.755 437.631 111.625C437.844 110.043 437.715 108.923 437.129 107.394C436.83 106.615 436.342 105.815 436.205 104.981C435.935 103.307 436.707 102.034 436.77 100.473C436.883 97.7378 435.504 96.1667 433.01 95.4247C433.399 95.8155 433.785 96.2036 434.173 96.5944C434.055 95.3666 434.275 94.2074 434.837 93.1195C435.691 91.1655 432.818 89.457 431.96 91.4295Z" fill="#5280DD"/>
      <path d="M793.432 47.4475C791.484 46.0955 788.824 47.4555 788.249 49.6524C787.874 51.081 788.385 52.4699 788.934 53.7611C789.383 54.8227 790.355 56.2195 789.168 57.1173C788.585 57.5557 787.587 57.5478 786.905 57.5662C784.765 57.627 784.757 60.9778 786.905 60.9171C788.984 60.859 791.373 60.3468 792.526 58.4007C793.088 57.4527 793.209 56.3067 793.02 55.2346C792.907 54.5956 792.673 54.012 792.426 53.4179C792.179 52.8739 791.935 52.3273 791.694 51.7807C791.313 51.2368 791.329 50.7562 791.746 50.339C793.518 51.5695 795.186 48.6648 793.432 47.4475Z" fill="#5280DD"/>
      <path d="M74.0854 -7.26796C71.5885 -6.99863 73.8937 -3.16454 73.2452 -1.55908C72.4155 0.484713 69.8688 0.00148964 70.0395 2.56547C70.1418 4.097 71.2551 5.816 70.1314 7.28415C69.1022 8.62819 66.8573 8.51202 65.4894 7.93902C63.536 7.12309 64.3946 3.88047 66.3742 4.70696C67.6975 5.26148 66.5843 2.69486 66.5213 2.15619C66.432 1.41419 66.4136 0.677482 66.6814 -0.0328293C67.2826 -1.6198 69.79 -2.16641 69.8531 -3.37314C69.8846 -3.98311 69.2833 -4.83337 69.2676 -5.54896C69.2492 -6.4045 69.4776 -7.28908 69.895 -8.039C70.7956 -9.66559 72.3105 -10.4287 74.088 -10.6188C76.2147 -10.8459 76.1989 -7.49505 74.0854 -7.26796Z" fill="#5280DD"/>
      <path d="M817.141 168.927C817.944 169.04 818.887 168.787 819.625 168.924C820.389 168.462 820.793 168.705 820.835 169.658C820.851 170.632 820.701 171.58 820.391 172.499C820.089 174.194 820.045 175.174 821.436 176.389C823.001 177.759 823.605 176.526 823.518 179.671C823.495 180.524 823.088 181.377 823.067 182.246C823.014 184.535 824.001 186.407 825.729 187.838C827.373 189.198 829.743 186.84 828.084 185.47C824.878 182.816 827.955 179.774 826.832 176.69C826.574 175.98 826.099 175.383 825.532 174.91C824.138 173.751 823.797 174.247 823.888 172.314C823.98 170.397 824.726 167.891 823.237 166.265C821.651 164.538 819.908 165.959 818.026 165.694C815.931 165.401 815.022 168.631 817.141 168.927Z" fill="#5280DD"/>
      <path d="M365.929 148.652C366.735 148.193 365.575 150.979 365.514 151.343C365.375 152.178 365.622 152.999 366.239 153.569C366.861 154.147 367.759 154.145 368.347 154.757C369.127 155.576 369.143 156.719 368.57 157.641C367.428 159.474 370.311 161.158 371.448 159.334C372.438 157.744 372.561 155.867 371.839 154.14C371.015 152.17 369.665 151.895 368.092 150.81C368.347 151.145 368.602 151.478 368.857 151.811C368.77 151.494 369.673 149.867 369.699 149.307C369.741 148.357 369.508 147.396 368.92 146.643C367.764 145.159 365.85 144.853 364.251 145.761C362.382 146.823 364.06 149.719 365.929 148.652Z" fill="#5280DD"/>
      <path d="M740.677 209.171L739.887 207.455C739.756 207.167 739.625 206.882 739.493 206.597C739.475 205.892 739.181 205.599 738.614 205.712C737.992 205.691 737.968 205.681 738.545 205.678L739.38 205.665C740.076 205.652 740.772 205.638 741.47 205.628C742.234 205.615 742.841 205.113 743.077 204.397C743.332 203.626 743.34 202.99 743.085 202.208C743.001 201.952 741.365 198.984 742.505 199.206C744.6 199.615 745.498 196.386 743.389 195.977C741.567 195.623 739.811 196.254 738.892 197.965C738.482 198.731 738.346 199.554 738.517 200.41C738.664 201.144 740.058 202.921 739.863 203.505C740.399 203.095 740.935 202.684 741.47 202.274C739.632 202.306 736.479 201.701 735.581 203.853C734.699 205.968 736.965 209.042 737.8 210.861C738.7 212.818 741.57 211.118 740.677 209.171Z" fill="#5280DD"/>
      <path d="M601.155 218.907C600.845 217.877 600.459 217.112 601.494 216.322C601.903 216.01 602.888 215.979 603.392 215.614C604.235 215.002 604.76 214.088 604.993 213.082C605.658 210.233 603.723 208.033 601.733 206.291V208.659C603.098 207.151 604.526 206.277 606.477 205.776C608.554 205.242 607.674 202.01 605.592 202.546C603.127 203.18 601.089 204.4 599.378 206.293C598.803 206.927 598.671 208.044 599.378 208.662C599.816 209.047 600.281 209.422 600.677 209.85C601.822 211.091 601.289 212.285 600.17 213.209C599.553 213.718 598.766 213.737 598.214 214.484C597.075 216.026 597.424 218.089 597.939 219.797C598.561 221.857 601.777 220.98 601.155 218.907Z" fill="#5280DD"/>
      <path d="M819.381 -14.2096C821.014 -13.1507 823.608 -11.6034 823.456 -9.29023C823.374 -8.05445 822.264 -7.08536 822.681 -5.74396C823.697 -2.46966 828.218 -5.74132 827.407 -0.895887C827.053 1.21392 830.264 2.11964 830.618 -0.00601768C830.978 -2.14223 831.219 -4.43953 829.639 -6.16381C829.111 -6.73682 828.478 -7.12234 827.73 -7.32038C827.299 -7.43393 826.958 -7.46032 826.52 -7.44448C826.262 -7.42864 826.008 -7.40751 825.75 -7.37847C825.073 -7.39167 825.21 -7.21739 826.16 -6.853C827.305 -7.7904 826.732 -10.6792 826.294 -11.7935C825.328 -14.236 823.18 -15.7306 821.064 -17.1037C819.255 -18.2761 817.582 -15.3767 819.381 -14.2096Z" fill="#5280DD"/>
    </g>
    <path d="M389.999 27.1149C397.613 20.5088 408.926 20.5088 416.54 27.1149C421.239 31.191 427.549 32.882 433.656 31.701C443.553 29.7871 453.351 35.4439 456.642 44.972C458.673 50.8511 463.293 55.471 469.172 57.5016C478.7 60.7927 484.357 70.5905 482.443 80.4876C481.262 86.5945 482.953 92.9052 487.029 97.6034C493.635 105.218 493.635 116.531 487.029 124.145C482.953 128.844 481.262 135.154 482.443 141.261C484.357 151.158 478.7 160.956 469.172 164.247C463.293 166.278 458.673 170.898 456.642 176.777C453.351 186.305 443.553 191.962 433.656 190.048C427.549 188.867 421.239 190.558 416.54 194.634C408.926 201.24 397.613 201.24 389.999 194.634C385.3 190.558 378.99 188.867 372.883 190.048C362.986 191.962 353.188 186.305 349.897 176.777C347.866 170.898 343.246 166.278 337.367 164.247C327.839 160.956 322.182 151.158 324.096 141.261C325.277 135.154 323.586 128.844 319.51 124.145C312.904 116.531 312.904 105.218 319.51 97.6034C323.586 92.9052 325.277 86.5945 324.096 80.4876C322.182 70.5905 327.839 60.7927 337.367 57.5016C343.246 55.471 347.866 50.8511 349.897 44.972C353.188 35.4439 362.986 29.7871 372.883 31.701C378.99 32.882 385.3 31.191 389.999 27.1149Z" fill="#16D2AA"/>
    <circle cx="403.27" cy="110.874" r="65.5005" fill="white"/>
    <circle cx="403.061" cy="110.665" r="54.592" fill="#16D2AA"/>
    <path d="M685.462 98.6284C686.83 97.4083 685.967 95.1445 684.134 95.1445L532.996 95.1445C531.894 95.1445 531.001 96.0377 531.001 97.1396V147.052C531.001 148.141 531.874 149.028 532.963 149.046L684.391 151.55C686.191 151.58 687.107 149.4 685.826 148.136L660.827 123.448C660.008 122.639 660.042 121.306 660.901 120.54L685.462 98.6284Z" fill="#1855D1"/>
    <path d="M620.533 83.8636C620.533 82.6457 619.451 81.712 618.247 81.8899L532.704 94.5189C531.725 94.6634 531 95.5033 531 96.4927V146.991C531 148.151 531.985 149.066 533.142 148.981L618.685 142.666C619.727 142.589 620.533 141.721 620.533 140.676V83.8636Z" fill="#0D44B3"/>
    <path d="M120.905 98.6284C119.538 97.4083 120.401 95.1445 122.234 95.1445L273.371 95.1445C274.473 95.1445 275.367 96.0377 275.367 97.1396V147.052C275.367 148.141 274.493 149.028 273.404 149.046L121.976 151.55C120.176 151.58 119.26 149.4 120.541 148.136L145.54 123.448C146.359 122.639 146.325 121.306 145.466 120.54L120.905 98.6284Z" fill="#1855D1"/>
    <path d="M185.833 83.8636C185.833 82.6457 186.915 81.712 188.12 81.8899L273.662 94.5189C274.641 94.6634 275.366 95.5033 275.366 96.4927V146.991C275.366 148.151 274.381 149.066 273.224 148.981L187.681 142.666C186.639 142.589 185.833 141.721 185.833 140.676V83.8636Z" fill="#0D44B3"/>
    <rect x="187" y="81" width="432" height="60" rx="1.99517" fill="#1855D1"/>
    <path d="M235.932 101.717V121.526H231.19L224.257 109.881L222.546 106.639H222.516L222.636 110.061V121.526H218.914V101.717H223.626L230.559 113.332L232.27 116.604H232.33L232.21 113.182V101.717H235.932ZM249.118 111.952C249.118 111.091 248.868 110.421 248.368 109.941C247.887 109.461 247.247 109.221 246.447 109.221C245.706 109.221 245.056 109.411 244.496 109.791C243.936 110.171 243.525 110.801 243.265 111.682L239.754 110.601C240.094 109.281 240.834 108.22 241.975 107.42C243.135 106.619 244.686 106.219 246.627 106.219C247.947 106.219 249.098 106.429 250.078 106.85C251.059 107.25 251.819 107.86 252.359 108.68C252.92 109.501 253.2 110.531 253.2 111.772V117.864C253.2 118.625 253.56 119.005 254.28 119.005C254.62 119.005 254.94 118.955 255.241 118.855L255 121.406C254.48 121.666 253.83 121.796 253.05 121.796C252.349 121.796 251.719 121.676 251.159 121.436C250.598 121.196 250.158 120.836 249.838 120.355C249.518 119.855 249.358 119.235 249.358 118.495V118.375L250.078 118.255C249.958 119.015 249.628 119.665 249.088 120.205C248.548 120.726 247.887 121.126 247.107 121.406C246.347 121.686 245.556 121.826 244.736 121.826C243.716 121.826 242.835 121.676 242.095 121.376C241.354 121.056 240.784 120.596 240.384 119.995C239.984 119.395 239.784 118.655 239.784 117.774C239.784 116.654 240.144 115.743 240.864 115.043C241.585 114.323 242.615 113.833 243.956 113.573L249.598 112.432L249.568 114.983L245.966 115.703C245.286 115.843 244.766 116.034 244.406 116.274C244.066 116.494 243.896 116.864 243.896 117.384C243.896 117.884 244.076 118.265 244.436 118.525C244.816 118.785 245.266 118.915 245.786 118.915C246.207 118.915 246.617 118.865 247.017 118.765C247.417 118.665 247.777 118.505 248.097 118.285C248.418 118.064 248.668 117.764 248.848 117.384C249.028 117.004 249.118 116.544 249.118 116.004V111.952ZM262.524 101.927V116.634C262.524 117.354 262.704 117.884 263.065 118.225C263.445 118.545 263.955 118.705 264.595 118.705C265.095 118.705 265.536 118.635 265.916 118.495C266.296 118.335 266.636 118.124 266.936 117.864L267.596 120.596C267.116 120.976 266.516 121.276 265.796 121.496C265.075 121.716 264.315 121.826 263.515 121.826C262.514 121.826 261.624 121.676 260.844 121.376C260.083 121.076 259.483 120.596 259.043 119.935C258.623 119.275 258.413 118.395 258.413 117.294V103.068L262.524 101.927ZM267.326 106.519V109.581H255.651V106.519H267.326ZM272.179 104.359C271.319 104.359 270.678 104.178 270.258 103.818C269.838 103.438 269.628 102.888 269.628 102.168C269.628 101.427 269.838 100.877 270.258 100.517C270.678 100.137 271.319 99.9466 272.179 99.9466C273.039 99.9466 273.68 100.137 274.1 100.517C274.52 100.877 274.73 101.427 274.73 102.168C274.73 102.888 274.52 103.438 274.1 103.818C273.68 104.178 273.039 104.359 272.179 104.359ZM274.22 106.519V121.526H270.108V106.519H274.22ZM285.422 106.219C286.942 106.219 288.273 106.529 289.413 107.15C290.574 107.77 291.474 108.66 292.115 109.821C292.775 110.981 293.105 112.382 293.105 114.023C293.105 115.643 292.775 117.044 292.115 118.225C291.474 119.385 290.574 120.275 289.413 120.896C288.273 121.516 286.942 121.826 285.422 121.826C283.921 121.826 282.59 121.516 281.43 120.896C280.269 120.275 279.359 119.385 278.699 118.225C278.058 117.044 277.738 115.643 277.738 114.023C277.738 112.382 278.058 110.981 278.699 109.821C279.359 108.66 280.269 107.77 281.43 107.15C282.59 106.529 283.921 106.219 285.422 106.219ZM285.422 109.281C284.661 109.281 284.011 109.461 283.471 109.821C282.951 110.161 282.55 110.681 282.27 111.382C281.99 112.082 281.85 112.962 281.85 114.023C281.85 115.083 281.99 115.964 282.27 116.664C282.55 117.364 282.951 117.894 283.471 118.255C284.011 118.595 284.661 118.765 285.422 118.765C286.162 118.765 286.792 118.595 287.312 118.255C287.853 117.894 288.263 117.364 288.543 116.664C288.823 115.964 288.963 115.083 288.963 114.023C288.963 112.962 288.823 112.082 288.543 111.382C288.263 110.681 287.853 110.161 287.312 109.821C286.792 109.461 286.162 109.281 285.422 109.281ZM296.545 121.526V106.519H300.237L300.477 111.021L299.967 110.541C300.207 109.561 300.587 108.75 301.107 108.11C301.628 107.47 302.258 107 302.998 106.7C303.759 106.379 304.589 106.219 305.489 106.219C306.53 106.219 307.45 106.419 308.251 106.82C309.071 107.22 309.711 107.83 310.171 108.65C310.652 109.451 310.892 110.461 310.892 111.682V121.526H306.78V112.852C306.78 111.572 306.53 110.691 306.03 110.211C305.529 109.711 304.879 109.461 304.079 109.461C303.518 109.461 302.968 109.601 302.428 109.881C301.908 110.141 301.478 110.571 301.137 111.171C300.817 111.772 300.657 112.572 300.657 113.573V121.526H296.545ZM323.681 111.952C323.681 111.091 323.431 110.421 322.931 109.941C322.451 109.461 321.811 109.221 321.01 109.221C320.27 109.221 319.62 109.411 319.059 109.791C318.499 110.171 318.089 110.801 317.829 111.682L314.317 110.601C314.658 109.281 315.398 108.22 316.538 107.42C317.699 106.619 319.25 106.219 321.19 106.219C322.511 106.219 323.661 106.429 324.642 106.85C325.622 107.25 326.383 107.86 326.923 108.68C327.483 109.501 327.763 110.531 327.763 111.772V117.864C327.763 118.625 328.123 119.005 328.844 119.005C329.184 119.005 329.504 118.955 329.804 118.855L329.564 121.406C329.044 121.666 328.393 121.796 327.613 121.796C326.913 121.796 326.283 121.676 325.722 121.436C325.162 121.196 324.722 120.836 324.402 120.355C324.082 119.855 323.922 119.235 323.922 118.495V118.375L324.642 118.255C324.522 119.015 324.192 119.665 323.651 120.205C323.111 120.726 322.451 121.126 321.671 121.406C320.91 121.686 320.12 121.826 319.3 121.826C318.279 121.826 317.399 121.676 316.658 121.376C315.918 121.056 315.348 120.596 314.948 119.995C314.547 119.395 314.347 118.655 314.347 117.774C314.347 116.654 314.708 115.743 315.428 115.043C316.148 114.323 317.179 113.833 318.519 113.573L324.162 112.432L324.132 114.983L320.53 115.703C319.85 115.843 319.33 116.034 318.969 116.274C318.629 116.494 318.459 116.864 318.459 117.384C318.459 117.884 318.639 118.265 318.999 118.525C319.38 118.785 319.83 118.915 320.35 118.915C320.77 118.915 321.18 118.865 321.581 118.765C321.981 118.665 322.341 118.505 322.661 118.285C322.981 118.064 323.231 117.764 323.411 117.384C323.591 117.004 323.681 116.544 323.681 116.004V111.952ZM336.414 99.9466V116.904C336.414 117.604 336.534 118.094 336.774 118.375C337.014 118.655 337.414 118.795 337.974 118.795C338.314 118.795 338.594 118.775 338.815 118.735C339.035 118.675 339.315 118.595 339.655 118.495L339.295 121.196C338.955 121.396 338.524 121.546 338.004 121.646C337.504 121.766 337.004 121.826 336.504 121.826C335.043 121.826 333.972 121.476 333.292 120.776C332.632 120.055 332.302 118.915 332.302 117.354V99.9466H336.414ZM345.998 99.9466V116.904C345.998 117.604 346.118 118.094 346.358 118.375C346.598 118.655 346.998 118.795 347.558 118.795C347.899 118.795 348.179 118.775 348.399 118.735C348.619 118.675 348.899 118.595 349.239 118.495L348.879 121.196C348.539 121.396 348.109 121.546 347.588 121.646C347.088 121.766 346.588 121.826 346.088 121.826C344.627 121.826 343.557 121.476 342.876 120.776C342.216 120.055 341.886 118.915 341.886 117.354V99.9466H345.998ZM365.021 106.519L358.958 122.456C358.478 123.817 357.938 124.897 357.338 125.698C356.757 126.498 356.077 127.078 355.297 127.439C354.536 127.799 353.626 127.979 352.565 127.979C351.785 127.979 351.065 127.879 350.405 127.679C349.764 127.499 349.204 127.258 348.724 126.958L349.594 123.987C349.974 124.287 350.375 124.497 350.795 124.617C351.215 124.757 351.695 124.827 352.235 124.827C352.796 124.827 353.276 124.707 353.676 124.467C354.096 124.227 354.446 123.747 354.726 123.027L355.237 121.736L353.586 117.834L348.994 106.519H353.556L356.407 115.523L357.187 118.525L358.118 115.343L360.849 106.519H365.021ZM393.147 116.064C392.767 117.344 392.166 118.415 391.346 119.275C390.526 120.135 389.555 120.776 388.435 121.196C387.314 121.616 386.084 121.826 384.743 121.826C382.782 121.826 381.082 121.416 379.641 120.596C378.22 119.775 377.12 118.605 376.34 117.084C375.579 115.563 375.199 113.743 375.199 111.622C375.199 109.501 375.579 107.68 376.34 106.159C377.12 104.639 378.22 103.468 379.641 102.648C381.082 101.827 382.762 101.417 384.683 101.417C386.044 101.417 387.274 101.607 388.375 101.987C389.475 102.348 390.406 102.908 391.166 103.668C391.946 104.429 392.517 105.389 392.877 106.549L389.125 108.14C388.785 106.94 388.265 106.089 387.564 105.589C386.864 105.069 385.964 104.809 384.863 104.809C383.783 104.809 382.832 105.069 382.012 105.589C381.212 106.109 380.591 106.88 380.151 107.9C379.711 108.9 379.491 110.141 379.491 111.622C379.491 113.082 379.691 114.323 380.091 115.343C380.511 116.364 381.122 117.134 381.922 117.654C382.722 118.175 383.703 118.435 384.863 118.435C385.944 118.435 386.874 118.144 387.654 117.564C388.455 116.984 389.015 116.104 389.335 114.923L393.147 116.064ZM403.22 121.826C401.639 121.826 400.258 121.516 399.078 120.896C397.917 120.275 397.017 119.385 396.377 118.225C395.736 117.064 395.416 115.663 395.416 114.023C395.416 112.382 395.736 110.981 396.377 109.821C397.017 108.66 397.907 107.77 399.048 107.15C400.208 106.529 401.529 106.219 403.01 106.219C404.53 106.219 405.821 106.529 406.881 107.15C407.942 107.75 408.752 108.58 409.312 109.641C409.873 110.681 410.153 111.872 410.153 113.212C410.153 113.613 410.143 113.993 410.123 114.353C410.103 114.713 410.073 115.033 410.033 115.313H398.057V112.462H408.232L406.251 113.182C406.251 111.922 405.961 110.951 405.381 110.271C404.82 109.591 404.02 109.251 402.98 109.251C402.219 109.251 401.559 109.431 400.999 109.791C400.459 110.151 400.048 110.691 399.768 111.412C399.488 112.112 399.348 113.002 399.348 114.083C399.348 115.143 399.498 116.024 399.798 116.724C400.118 117.404 400.559 117.914 401.119 118.255C401.699 118.595 402.389 118.765 403.19 118.765C404.07 118.765 404.78 118.595 405.321 118.255C405.861 117.914 406.281 117.444 406.581 116.844L409.853 118.104C409.532 118.885 409.042 119.555 408.382 120.115C407.742 120.676 406.971 121.106 406.071 121.406C405.191 121.686 404.24 121.826 403.22 121.826ZM413.637 121.526V106.519H417.209L417.479 109.461C417.879 108.42 418.459 107.62 419.22 107.06C420 106.499 420.97 106.219 422.131 106.219C422.471 106.219 422.781 106.249 423.061 106.309C423.341 106.369 423.572 106.449 423.752 106.549L423.271 110.001C423.071 109.921 422.821 109.861 422.521 109.821C422.241 109.781 421.871 109.761 421.411 109.761C420.81 109.761 420.23 109.911 419.67 110.211C419.11 110.491 418.649 110.931 418.289 111.532C417.929 112.112 417.749 112.852 417.749 113.753V121.526H413.637ZM431.054 101.927V116.634C431.054 117.354 431.235 117.884 431.595 118.225C431.975 118.545 432.485 118.705 433.125 118.705C433.626 118.705 434.066 118.635 434.446 118.495C434.826 118.335 435.166 118.124 435.466 117.864L436.127 120.596C435.646 120.976 435.046 121.276 434.326 121.496C433.606 121.716 432.845 121.826 432.045 121.826C431.044 121.826 430.154 121.676 429.374 121.376C428.613 121.076 428.013 120.596 427.573 119.935C427.153 119.275 426.943 118.395 426.943 117.294V103.068L431.054 101.927ZM435.857 106.519V109.581H424.181V106.519H435.857ZM440.709 104.359C439.849 104.359 439.209 104.178 438.788 103.818C438.368 103.438 438.158 102.888 438.158 102.168C438.158 101.427 438.368 100.877 438.788 100.517C439.209 100.137 439.849 99.9466 440.709 99.9466C441.57 99.9466 442.21 100.137 442.63 100.517C443.05 100.877 443.26 101.427 443.26 102.168C443.26 102.888 443.05 103.438 442.63 103.818C442.21 104.178 441.57 104.359 440.709 104.359ZM442.75 106.519V121.526H438.638V106.519H442.75ZM453.802 99.6465C454.502 99.6465 455.132 99.7265 455.693 99.8866C456.273 100.027 456.703 100.207 456.983 100.427L456.413 103.158C456.193 103.018 455.943 102.908 455.663 102.828C455.382 102.748 455.052 102.708 454.672 102.708C453.892 102.708 453.272 102.888 452.811 103.248C452.351 103.588 452.121 104.178 452.121 105.019V107.09L452.301 107.9V121.526H448.189V104.719C448.189 103.878 448.329 103.138 448.609 102.498C448.89 101.857 449.28 101.327 449.78 100.907C450.28 100.487 450.87 100.177 451.551 99.9766C452.251 99.7565 453.001 99.6465 453.802 99.6465ZM456.863 106.519V109.581H445.578V106.519H456.863ZM461.395 104.359C460.535 104.359 459.894 104.178 459.474 103.818C459.054 103.438 458.844 102.888 458.844 102.168C458.844 101.427 459.054 100.877 459.474 100.517C459.894 100.137 460.535 99.9466 461.395 99.9466C462.255 99.9466 462.896 100.137 463.316 100.517C463.736 100.877 463.946 101.427 463.946 102.168C463.946 102.888 463.736 103.438 463.316 103.818C462.896 104.178 462.255 104.359 461.395 104.359ZM463.436 106.519V121.526H459.324V106.519H463.436ZM474.764 121.826C473.184 121.826 471.803 121.516 470.623 120.896C469.462 120.275 468.562 119.385 467.921 118.225C467.281 117.064 466.961 115.663 466.961 114.023C466.961 112.382 467.281 110.981 467.921 109.821C468.562 108.66 469.452 107.77 470.593 107.15C471.753 106.529 473.074 106.219 474.554 106.219C476.075 106.219 477.366 106.529 478.426 107.15C479.486 107.75 480.297 108.58 480.857 109.641C481.417 110.681 481.697 111.872 481.697 113.212C481.697 113.613 481.687 113.993 481.667 114.353C481.647 114.713 481.617 115.033 481.577 115.313H469.602V112.462H479.777L477.796 113.182C477.796 111.922 477.506 110.951 476.925 110.271C476.365 109.591 475.565 109.251 474.524 109.251C473.764 109.251 473.104 109.431 472.543 109.791C472.003 110.151 471.593 110.691 471.313 111.412C471.033 112.112 470.893 113.002 470.893 114.083C470.893 115.143 471.043 116.024 471.343 116.724C471.663 117.404 472.103 117.914 472.664 118.255C473.244 118.595 473.934 118.765 474.734 118.765C475.615 118.765 476.325 118.595 476.865 118.255C477.406 117.914 477.826 117.444 478.126 116.844L481.397 118.104C481.077 118.885 480.587 119.555 479.927 120.115C479.286 120.676 478.516 121.106 477.616 121.406C476.735 121.686 475.785 121.826 474.764 121.826ZM490.854 121.826C489.614 121.826 488.503 121.516 487.523 120.896C486.563 120.275 485.802 119.385 485.242 118.225C484.702 117.064 484.432 115.673 484.432 114.053C484.432 112.392 484.722 110.981 485.302 109.821C485.882 108.64 486.663 107.75 487.643 107.15C488.643 106.529 489.764 106.219 491.005 106.219C492.325 106.219 493.416 106.599 494.276 107.36C495.136 108.12 495.697 109.101 495.957 110.301L495.567 110.781V99.9466H499.678V121.526H495.987L495.717 116.964L496.227 117.204C496.087 118.144 495.767 118.965 495.266 119.665C494.766 120.345 494.136 120.876 493.376 121.256C492.615 121.636 491.775 121.826 490.854 121.826ZM492.055 118.675C492.775 118.675 493.396 118.495 493.916 118.134C494.436 117.754 494.836 117.204 495.116 116.484C495.416 115.763 495.567 114.903 495.567 113.903C495.567 112.942 495.426 112.132 495.146 111.472C494.866 110.791 494.466 110.271 493.946 109.911C493.426 109.551 492.815 109.371 492.115 109.371C490.995 109.371 490.114 109.771 489.474 110.571C488.854 111.352 488.543 112.502 488.543 114.023C488.543 115.543 488.854 116.704 489.474 117.504C490.094 118.285 490.954 118.675 492.055 118.675ZM528.644 101.717V105.049H522.011V121.526H517.869V105.049H511.207V101.717H528.644ZM534.926 121.826C533.925 121.826 533.025 121.646 532.224 121.286C531.424 120.926 530.784 120.355 530.303 119.575C529.843 118.775 529.613 117.744 529.613 116.484V106.519H533.725V115.493C533.725 116.654 533.965 117.464 534.445 117.924C534.926 118.365 535.616 118.585 536.516 118.585C536.936 118.585 537.347 118.515 537.747 118.375C538.147 118.215 538.497 117.974 538.797 117.654C539.117 117.334 539.367 116.924 539.548 116.424C539.728 115.904 539.818 115.293 539.818 114.593V106.519H543.929V121.526H540.268L540.118 118.915C539.618 119.915 538.927 120.656 538.047 121.136C537.186 121.596 536.146 121.826 534.926 121.826ZM553.569 101.927V116.634C553.569 117.354 553.749 117.884 554.109 118.225C554.489 118.545 554.999 118.705 555.639 118.705C556.14 118.705 556.58 118.635 556.96 118.495C557.34 118.335 557.68 118.124 557.98 117.864L558.641 120.596C558.161 120.976 557.56 121.276 556.84 121.496C556.12 121.716 555.359 121.826 554.559 121.826C553.559 121.826 552.668 121.676 551.888 121.376C551.127 121.076 550.527 120.596 550.087 119.935C549.667 119.275 549.457 118.395 549.457 117.294V103.068L553.569 101.927ZM558.371 106.519V109.581H546.696V106.519H558.371ZM567.995 106.219C569.516 106.219 570.847 106.529 571.987 107.15C573.148 107.77 574.048 108.66 574.688 109.821C575.349 110.981 575.679 112.382 575.679 114.023C575.679 115.643 575.349 117.044 574.688 118.225C574.048 119.385 573.148 120.275 571.987 120.896C570.847 121.516 569.516 121.826 567.995 121.826C566.495 121.826 565.164 121.516 564.004 120.896C562.843 120.275 561.933 119.385 561.273 118.225C560.632 117.044 560.312 115.643 560.312 114.023C560.312 112.382 560.632 110.981 561.273 109.821C561.933 108.66 562.843 107.77 564.004 107.15C565.164 106.529 566.495 106.219 567.995 106.219ZM567.995 109.281C567.235 109.281 566.585 109.461 566.045 109.821C565.524 110.161 565.124 110.681 564.844 111.382C564.564 112.082 564.424 112.962 564.424 114.023C564.424 115.083 564.564 115.964 564.844 116.664C565.124 117.364 565.524 117.894 566.045 118.255C566.585 118.595 567.235 118.765 567.995 118.765C568.736 118.765 569.366 118.595 569.886 118.255C570.426 117.894 570.837 117.364 571.117 116.664C571.397 115.964 571.537 115.083 571.537 114.023C571.537 112.962 571.397 112.082 571.117 111.382C570.837 110.681 570.426 110.161 569.886 109.821C569.366 109.461 568.736 109.281 567.995 109.281ZM579.119 121.526V106.519H582.691L582.961 109.461C583.361 108.42 583.941 107.62 584.702 107.06C585.482 106.499 586.452 106.219 587.613 106.219C587.953 106.219 588.263 106.249 588.543 106.309C588.823 106.369 589.054 106.449 589.234 106.549L588.753 110.001C588.553 109.921 588.303 109.861 588.003 109.821C587.723 109.781 587.353 109.761 586.893 109.761C586.292 109.761 585.712 109.911 585.152 110.211C584.592 110.491 584.131 110.931 583.771 111.532C583.411 112.112 583.231 112.852 583.231 113.753V121.526H579.119Z" fill="white"/>
    <path d="M189.546 76.3771L184.695 78.9458L188.441 86.1006L193.292 83.5319L189.546 76.3771Z" fill="#50DDBF"/>
    <path d="M290.023 149.973C290.039 148.585 290.488 146.475 289.616 145.255C288.879 144.22 285.521 144.339 286.3 142.551C285.823 142.828 285.342 143.105 284.862 143.383C287.151 143.623 288.999 141.487 288.703 139.229C288.377 136.726 285.817 135.543 283.546 135.667C281.414 135.783 281.401 139.134 283.546 139.018C283.906 138.933 284.255 138.965 284.589 139.11C285.177 139.118 285.266 139.424 284.859 140.029C284.339 139.976 283.633 140.378 283.42 140.861C282.58 142.783 282.769 144.867 284.342 146.382C284.946 146.966 285.883 147.6 286.762 147.586C286.957 147.605 287.151 147.623 287.348 147.642C286.773 146.599 286.563 146.601 286.715 147.65C286.51 148.294 286.694 149.313 286.686 149.976C286.665 152.128 289.997 152.131 290.023 149.973Z" fill="#5280DD"/>
    <path d="M160.998 78.675C161.604 78.7648 163.66 79.4461 162.893 80.5604C162.83 80.6528 161.121 80.9697 160.929 81.0542C160.013 81.4714 159.233 82.2107 158.952 83.2221C158.645 84.3285 159.005 85.5537 159.554 86.5175C160.102 87.4813 162.846 90.1536 160.081 89.5304C157.991 89.0604 157.101 92.2898 159.197 92.7624C161.363 93.2509 164.201 93.1981 164.896 90.5417C165.162 89.5278 164.862 88.4874 164.408 87.5896C163.904 86.5888 161.759 84.78 162.759 83.9852C163.544 83.3647 164.87 83.6578 165.742 82.8445C166.585 82.0629 166.963 80.8904 166.863 79.7576C166.629 77.1118 164.245 75.7942 161.882 75.443C159.785 75.1314 158.881 78.3608 160.998 78.675Z" fill="#5280DD"/>
    <path d="M702.586 108.828C702.008 108.674 704.169 105.366 704.285 105.049C704.534 104.368 704.747 103.562 704.592 102.828C704.101 100.491 702.457 101.629 701.15 100.436C699.569 98.9887 702.702 94.3651 701.134 92.2183C699.926 90.5653 696.834 91.0221 695.09 90.9218C692.948 90.8003 692.956 94.1512 695.09 94.2727C696.413 94.3466 697.978 94.2964 699.252 94.6793C698.863 94.2885 698.477 93.9004 698.089 93.5096C699.168 96.0947 696.765 98.9491 698.104 101.727C699.102 103.797 700.362 103.66 702.281 104.22C701.893 103.829 701.504 103.441 701.116 103.05C701.759 104.711 698.721 107.003 699.023 109.134C699.246 110.689 700.231 111.671 701.696 112.06C703.775 112.609 704.66 109.377 702.586 108.828Z" fill="#5280DD"/>
    <path d="M684.815 139.201L684.105 144.668L697.227 146.392L697.937 140.925L684.815 139.201Z" fill="#50DDBF"/>
    <path d="M749.99 93.3884L748.01 98.5297L755.506 101.451L757.487 96.3096L749.99 93.3884Z" fill="#50DDBF"/>
    <path d="M524.577 138.948L523.14 144.272L532.345 146.785L533.782 141.462L524.577 138.948Z" fill="#50DDBF"/>
    <path d="M297.281 87.5138L295.021 79.6185L300.324 78.2058L302.585 86.1011L297.281 87.5138Z" fill="#50DDBF"/>
  </g>
  <defs>
    <clipPath id="clip0_1394_491">
      <rect width="833" height="225" fill="white"/>
    </clipPath>
  </defs>
</svg>
