<svg fill="none" height="225" viewBox="0 0 833 225" width="833" xmlns="http://www.w3.org/2000/svg" xmlns:xlink="http://www.w3.org/1999/xlink"><clipPath id="a"><path d="m0 0h833v225h-833z"/></clipPath><g clip-path="url(#a)"><path d="m0 0h833v225h-833z" fill="#f2fbf9"/><g opacity=".8"><g fill="#50ddbf"><path d="m-5.5231-2.42975-4.01889 3.74973 8.99944 9.75642 4.01889-3.74974z"/><path d="m242.864 2.3091-3.438 10.9585 5.227 1.659 3.439-10.95848z"/><path d="m378.282 93.2055-4.7 2.8372 5.485 9.1923 4.701-2.838z"/><path d="m481.333 8.68158-5.252 1.58972 2.159 7.2141 5.252-1.5897z"/><path d="m371.924 219.364-4.423 9.557 4.97 2.327 4.423-9.557z"/><path d="m24.2921 18.9821-4.423 9.5565 4.9701 2.3267 4.423-9.5565z"/><path d="m549.376-3.54055-6.285 5.23019 3.493 4.2461 6.285-5.230195z"/><path d="m433.176 30.7238-5.259 1.5751 3.123 10.5481 5.259-1.575z"/><path d="m706.451 191.127-5.23-1.682 2.544-8.08 5.23 1.682z"/><path d="m215.593 67.4502-6.119 4.6369 3.3 4.4057 6.119-4.6369z"/><path d="m131.882 13.4701-5.756 3.7291 2.97 4.6374 5.756-3.7291z"/><path d="m540.499 168.044-5.873 7.512 4.311 3.41 5.873-7.512z"/><path d="m557.176 47.3235-5.873 7.5121 4.311 3.4095 5.873-7.5121z"/><path d="m263.209 196.573-5.2 9.152 4.759 2.736 5.201-9.152z"/><path d="m193.835 182.838-2.261-7.895 5.304-1.413 2.26 7.895z"/><path d="m35.4276 171.965-5.2499 1.596 1.8374 6.114 5.2499-1.595z"/><path d="m70.0267 58.4589-2.223 6.2338 5.1652 1.8632 2.223-6.2338z"/><path d="m363.045 17.9814-2.984 7.6266 5.101 2.019 2.984-7.6266z"/><path d="m5.94531 111.105 5.12239-1.991 4.1666 10.617-5.1223 1.991z"/><path d="m827.512 14.2835-9.756 5.703 2.757 4.7715 9.757-5.703z"/><path d="m88.4792 214.623-9.7565 5.703 2.7573 4.772 9.7565-5.703z"/><path d="m300.096-11.4617-5.248 1.60983 3.144 10.36798 5.248-1.60983z"/><path d="m283.178 103.342-11.81 7.271 2.864 4.705 11.81-7.271z"/><path d="m124.779 55.4721-11.81 7.271 2.863 4.7048 11.81-7.271z"/><path d="m659.115 41.0162-3.693 10.8746 5.188 1.782 3.692-10.8746z"/><path d="m714.584-3.69143-4.852 2.56875 3.746 7.15477 4.851-2.56875z"/><path d="m786.115 221.821 4.825 6.026-4.229 3.512-4.826-6.028z"/><path d="m743.345 16.7366-5.376 1.079 2.059 10.3765 5.376-1.0789z"/></g><path d="m196.311 106.134c-.64 1.465-1.402 3.248-1.247 4.901.129 1.349.735 1.484 1.41 2.326.265.079.531.159.796.238.464 1.278.47 2.535.021 3.768-.063.745-.184 1.468-.111 2.215.197 1.999 1.862 3.842 1.591 5.857-.283 2.11 2.925 3.021 3.211.89.213-1.582.084-2.701-.501-4.23-.299-.779-.788-1.579-.924-2.414-.271-1.674.501-2.947.564-4.507.113-2.736-1.265-4.307-3.759-5.049.388.391.774.779 1.163 1.17-.118-1.228.102-2.387.664-3.475.853-1.954-2.016-3.663-2.878-1.69z" fill="#5280dd"/><path d="m552.959 171.829c-1.948-1.352-4.608.007-5.183 2.204-.375 1.429.137 2.818.686 4.109.449 1.062 1.42 2.458.233 3.356-.583.439-1.58.431-2.263.449-2.14.061-2.148 3.412 0 3.351 2.079-.058 4.469-.57 5.621-2.516.562-.948.683-2.094.494-3.166-.113-.639-.347-1.223-.593-1.817-.247-.544-.491-1.091-.733-1.637-.381-.544-.365-1.025.053-1.442 1.772 1.228 3.442-1.674 1.685-2.891z" fill="#5280dd"/><path d="m178.733-16.7553c-.389 1.7191-1.578 4.2619-1.158 6.0126.299 1.249.882 1.00607 1.601 1.92498 2.177 2.7858-.165 3.21886-.448 5.51615-.253 2.02795 2.423 3.894834 1.53 5.92807-.861 1.95401 2.011 3.65981 2.878 1.69259.732-1.66355 1.087-3.19772.443-4.961613-.244-.668067-1.223-1.568507-1.27-2.120377-.084-.91364.732-1.62923 1.105-2.52174.583-1.3995.809-2.8835.176-4.3094-.777-1.76126-2.103-1.63716-3.505-2.59036.276.4805.551.9638.824 1.447.008-1.6715.675-3.4988 1.04-5.1227.47-2.1045-2.741-3.0023-3.216-.8952z" fill="#5280dd"/><path d="m87.1742 159.797c-.3886 1.719-1.578 4.261-1.1579 6.012.2993 1.249.8822 1.006 1.6016 1.925 2.1765 2.786-.1654 3.219-.449 5.516-.252 2.028 2.4234 3.895 1.5307 5.928-.8612 1.954 2.0111 3.66 2.8775 1.693.7325-1.664 1.087-3.198.4437-4.962-.2441-.668-1.2234-1.568-1.2707-2.12-.084-.914.7325-1.629 1.1053-2.522.5829-1.399.8087-2.883.1759-4.309-.7771-1.762-2.103-1.637-3.505-2.591.2757.481.5513.964.8244 1.447.0079-1.671.6748-3.498 1.0397-5.122.47-2.105-2.741-3.003-3.2162-.895z" fill="#5280dd"/><path d="m481.947 145.885c1.544 1.072-.751 3.459-.417 5.057.157.752 3.003 3.839 2.977 3.876-1.242 1.761 1.644 3.438 2.878 1.693.808-1.146.706-2.504-.014-3.689-.695-1.149-2.502-1.73-2.318-3.016.071-.496.622-1.088.756-1.618.163-.631.174-1.344.048-1.981-.279-1.41-1.074-2.413-2.227-3.213-1.772-1.228-3.439 1.676-1.683 2.891z" fill="#5280dd"/><path d="m213.574 29.143c-1.481 1.2569-2.886 2.9865-2.219 5.0672.638 1.9858 2.129 2.2287 3.907 2.1785-.391-.1637-.785-.3274-1.179-.4911.851.7789-.223 3.8578-.52 4.6843-.732 2.028 2.484 2.9046 3.211.8899.719-1.9883 1.302-4.8032.475-6.8549-.27-.6707-.84-1.2965-1.546-1.5236-.032-.0079-1.323-.103-1.289.0132-.108-.338 1.315-1.4259 1.515-1.5949 1.641-1.3916-.725-3.7496-2.355-2.3686z" fill="#5280dd"/><path d="m145.121 165.048c1.324-.108 1.431 1.167 1.022 2.07-.126.277-.402.51-.544.787-.404.784-.493 1.679-.218 2.514.258.787.806 1.357 1.46 1.832.25.18 3.014 1.595 3.067 1.487-.904 1.941 1.969 3.644 2.877 1.69.654-1.405.507-2.738-.593-3.9-.633-.668-1.4-1.043-2.221-1.413-1.184-.533-1.331-.483-.72-1.619 1.744-3.229-.236-7.119-4.13-6.802-2.121.175-2.139 3.525 0 3.354z" fill="#5280dd"/><path d="m288.385 42.013c2.153.9427 4.526.1584 5.471-2.1045.512-1.2279.455-2.5878.119-3.8552-.171-.6496-.481-1.249-.717-1.8775-.181-.4251-.334-.8582-.446-1.3071.178-.4013.191-.7895.036-1.1592 1.644 1.3599 4.015-.9981 2.355-2.3686-1.848-1.5288-4.379-.8291-5.416 1.3415-.57 1.1856-.37 2.5243.008 3.7337.089.2825 2.053 5.4818.273 4.7028-1.948-.8502-3.647 2.0386-1.683 2.8941z" fill="#5280dd"/><path d="m678.385 30.0119c-.464-1.2014-.745-2.3078-.824-3.6043-.554.5571-1.111 1.1169-1.665 1.6741 1.851-.0211 3.24-.9823 4.078-2.6406 1.176-2.321.257-4.7002.585-7.1453-.535.4093-1.071.8212-1.607 1.2305 1.221-.0211 2.442-.0396 3.663-.0607 2.142-.037 2.148-3.3852 0-3.3509-1.221.0185-2.442.0396-3.663.0607-.648.0106-1.509.507-1.606 1.2305-.192 1.4338.808 7.2985-1.452 7.3249-.862.0079-1.72.7605-1.665 1.6741.095 1.5712.37 3.0209.943 4.4943.769 1.991 3.993 1.1248 3.213-.8873z" fill="#5280dd"/><path d="m52.7906 65.6278c1.6331 1.0589 4.2271 2.6063 4.0748 4.9194-.0814 1.2358-1.192 2.2048-.7745 3.5463 1.016 3.2743 5.5371.0026 4.7259 4.848-.3545 2.1098 2.8565 3.0156 3.211.8899.3596-2.1362.6012-4.4335-.9794-6.1578-.5277-.573-1.1604-.9585-1.9087-1.1566-.4306-.1135-.7719-.1399-1.2104-.1241-.2573.0159-.5119.037-.7692.0661-.6774-.0132-.5409.161.4095.5254 1.1448-.9374.5724-3.8262.134-4.9405-.9636-2.4425-3.1139-3.9371-5.23-5.3102-1.8064-1.1724-3.4815 1.727-1.683 2.8941z" fill="#5280dd"/><path d="m577.844 47.6931c-.641 1.4655-1.402 3.2478-1.248 4.9008.129 1.3494.736 1.484 1.41 2.3264.266.0792.531.1584.796.2376.465 1.2781.47 2.535.021 3.7681-.063.7447-.184 1.4682-.11 2.2155.197 1.9989 1.861 3.842 1.591 5.8567-.284 2.1098 2.925 3.0208 3.211.8899.212-1.5817.084-2.7013-.502-4.2302-.299-.779-.787-1.5791-.924-2.4135-.27-1.6741.502-2.9468.565-4.5074.112-2.7356-1.266-4.3068-3.76-5.0488.388.3908.774.779 1.163 1.1698-.118-1.2279.102-2.3871.664-3.475.853-1.954-2.019-3.6624-2.877-1.6899z" fill="#5280dd"/><path d="m431.96 91.4295c-.641 1.4655-1.402 3.2479-1.247 4.9009.128 1.3493.735 1.484 1.41 2.3263.265.0793.53.1585.795.2377.465 1.2776.47 2.5346.021 3.7676-.063.745-.184 1.469-.11 2.216.197 1.999 1.861 3.842 1.591 5.857-.284 2.109 2.925 3.02 3.211.89.213-1.582.084-2.702-.502-4.231-.299-.779-.787-1.579-.924-2.413-.27-1.674.502-2.947.565-4.508.113-2.7352-1.266-4.3063-3.76-5.0483.389.3908.775.7789 1.163 1.1697-.118-1.2278.102-2.387.664-3.4749.854-1.954-2.019-3.6625-2.877-1.69z" fill="#5280dd"/><path d="m793.432 47.4475c-1.948-1.352-4.608.008-5.183 2.2049-.375 1.4286.136 2.8175.685 4.1087.449 1.0616 1.421 2.4584.234 3.3562-.583.4384-1.581.4305-2.263.4489-2.14.0608-2.148 3.4116 0 3.3509 2.079-.0581 4.468-.5703 5.621-2.5164.562-.948.683-2.094.494-3.1661-.113-.639-.347-1.2226-.594-1.8167-.247-.544-.491-1.0906-.732-1.6372-.381-.5439-.365-1.0245.052-1.4417 1.772 1.2305 3.44-1.6742 1.686-2.8915z" fill="#5280dd"/><path d="m74.0854-7.26796c-2.4969.26933-.1917 4.10342-.8402 5.70888-.8297 2.043793-3.3764 1.56056964-3.2057 4.12455.1023 1.53153 1.2156 3.25053.0919 4.71868-1.0292 1.34404-3.2741 1.22787-4.642.65487-1.9534-.81593-1.0948-4.05855.8848-3.23206 1.3233.55452.2101-2.0121.1471-2.55077-.0893-.742-.1077-1.478708.1601-2.1890193.6012-1.5869707 3.1086-2.1335807 3.1717-3.3403107.0315-.60997-.5698-1.46023-.5855-2.17582-.0184-.85554.21-1.74012.6274-2.49004.9006-1.62659 2.4155-2.3897 4.193-2.5798 2.1267-.2271 2.1109 3.12375-.0026 3.35084z" fill="#5280dd"/><path d="m817.141 168.927c.803.113 1.746-.14 2.484-.003.764-.462 1.168-.219 1.21.734.016.974-.134 1.922-.444 2.841-.302 1.695-.346 2.675 1.045 3.89 1.565 1.37 2.169.137 2.082 3.282-.023.853-.43 1.706-.451 2.575-.053 2.289.934 4.161 2.662 5.592 1.644 1.36 4.014-.998 2.355-2.368-3.206-2.654-.129-5.696-1.252-8.78-.258-.71-.733-1.307-1.3-1.78-1.394-1.159-1.735-.663-1.644-2.596.092-1.917.838-4.423-.651-6.049-1.586-1.727-3.329-.306-5.211-.571-2.095-.293-3.004 2.937-.885 3.233z" fill="#5280dd"/><path d="m365.929 148.652c.806-.459-.354 2.327-.415 2.691-.139.835.108 1.656.725 2.226.622.578 1.52.576 2.108 1.188.78.819.796 1.962.223 2.884-1.142 1.833 1.741 3.517 2.878 1.693.99-1.59 1.113-3.467.391-5.194-.824-1.97-2.174-2.245-3.747-3.33.255.335.51.668.765 1.001-.087-.317.816-1.944.842-2.504.042-.95-.191-1.911-.779-2.664-1.156-1.484-3.07-1.79-4.669-.882-1.869 1.062-.191 3.958 1.678 2.891z" fill="#5280dd"/><path d="m740.677 209.171-.79-1.716c-.131-.288-.262-.573-.394-.858-.018-.705-.312-.998-.879-.885-.622-.021-.646-.031-.069-.034l.835-.013c.696-.013 1.392-.027 2.09-.037.764-.013 1.371-.515 1.607-1.231.255-.771.263-1.407.008-2.189-.084-.256-1.72-3.224-.58-3.002 2.095.409 2.993-2.82.884-3.229-1.822-.354-3.578.277-4.497 1.988-.41.766-.546 1.589-.375 2.445.147.734 1.541 2.511 1.346 3.095.536-.41 1.072-.821 1.607-1.231-1.838.032-4.991-.573-5.889 1.579-.882 2.115 1.384 5.189 2.219 7.008.9 1.957 3.77.257 2.877-1.69z" fill="#5280dd"/><path d="m601.155 218.907c-.31-1.03-.696-1.795.339-2.585.409-.312 1.394-.343 1.898-.708.843-.612 1.368-1.526 1.601-2.532.665-2.849-1.27-5.049-3.26-6.791v2.368c1.365-1.508 2.793-2.382 4.744-2.883 2.077-.534 1.197-3.766-.885-3.23-2.465.634-4.503 1.854-6.214 3.747-.575.634-.707 1.751 0 2.369.438.385.903.76 1.299 1.188 1.145 1.241.612 2.435-.507 3.359-.617.509-1.404.528-1.956 1.275-1.139 1.542-.79 3.605-.275 5.313.622 2.06 3.838 1.183 3.216-.89z" fill="#5280dd"/><path d="m819.381-14.2096c1.633 1.0589 4.227 2.6062 4.075 4.91937-.082 1.23578-1.192 2.20487-.775 3.54627 1.016 3.2743 5.537.00264 4.726 4.848073-.354 2.109807 2.857 3.015527 3.211.88986932.36-2.13621232.601-4.43351232-.979-6.15779232-.528-.57301-1.161-.95853-1.909-1.15657-.431-.11355-.772-.13994-1.21-.1241-.258.01584-.512.03697-.77.06601-.677-.0132-.54.16108.41.52547 1.145-.9374.572-3.8262.134-4.9405-.966-2.4425-3.114-3.9371-5.23-5.3102-1.809-1.1724-3.482 1.727-1.683 2.8941z" fill="#5280dd"/></g><path d="m389.999 27.1149c7.614-6.6061 18.927-6.6061 26.541 0 4.699 4.0761 11.009 5.7671 17.116 4.5861 9.897-1.9139 19.695 3.7429 22.986 13.271 2.031 5.8791 6.651 10.499 12.53 12.5296 9.528 3.2911 15.185 13.0889 13.271 22.986-1.181 6.1069.51 12.4176 4.586 17.1158 6.606 7.6146 6.606 18.9276 0 26.5416-4.076 4.699-5.767 11.009-4.586 17.116 1.914 9.897-3.743 19.695-13.271 22.986-5.879 2.031-10.499 6.651-12.53 12.53-3.291 9.528-13.089 15.185-22.986 13.271-6.107-1.181-12.417.51-17.116 4.586-7.614 6.606-18.927 6.606-26.541 0-4.699-4.076-11.009-5.767-17.116-4.586-9.897 1.914-19.695-3.743-22.986-13.271-2.031-5.879-6.651-10.499-12.53-12.53-9.528-3.291-15.185-13.089-13.271-22.986 1.181-6.107-.51-12.417-4.586-17.116-6.606-7.614-6.606-18.927 0-26.5416 4.076-4.6982 5.767-11.0089 4.586-17.1158-1.914-9.8971 3.743-19.6949 13.271-22.986 5.879-2.0306 10.499-6.6505 12.53-12.5296 3.291-9.5281 13.089-15.1849 22.986-13.271 6.107 1.181 12.417-.51 17.116-4.5861z" fill="#16d2aa"/><circle cx="403.27" cy="110.874" fill="#fff" r="65.5005"/><circle cx="403.061" cy="110.665" fill="#16d2aa" r="54.592"/><path d="m685.462 98.6284c1.368-1.2201.505-3.4839-1.328-3.4839h-151.138c-1.102 0-1.995.8932-1.995 1.9951v49.9124c0 1.089.873 1.976 1.962 1.994l151.428 2.504c1.8.03 2.716-2.15 1.435-3.414l-24.999-24.688c-.819-.809-.785-2.142.074-2.908z" fill="#1855d1"/><path d="m620.533 83.8636c0-1.2179-1.082-2.1516-2.286-1.9737l-85.543 12.629c-.979.1445-1.704.9844-1.704 1.9738v50.4983c0 1.16.985 2.075 2.142 1.99l85.543-6.315c1.042-.077 1.848-.945 1.848-1.99z" fill="#0d44b3"/><path d="m120.905 98.6284c-1.367-1.2201-.504-3.4839 1.329-3.4839h151.137c1.102 0 1.996.8932 1.996 1.9951v49.9124c0 1.089-.874 1.976-1.963 1.994l-151.428 2.504c-1.8.03-2.716-2.15-1.435-3.414l24.999-24.688c.819-.809.785-2.142-.074-2.908z" fill="#1855d1"/><path d="m185.833 83.8636c0-1.2179 1.082-2.1516 2.287-1.9737l85.542 12.629c.979.1445 1.704.9844 1.704 1.9738v50.4983c0 1.16-.985 2.075-2.142 1.99l-85.543-6.315c-1.042-.077-1.848-.945-1.848-1.99z" fill="#0d44b3"/><rect fill="#1855d1" height="60" rx="1.99517" width="432" x="187" y="81"/><path d="m235.932 101.717v19.809h-4.742l-6.933-11.645-1.711-3.242h-.03l.12 3.422v11.465h-3.722v-19.809h4.712l6.933 11.615 1.711 3.272h.06l-.12-3.422v-11.465zm13.186 10.235c0-.861-.25-1.531-.75-2.011-.481-.48-1.121-.72-1.921-.72-.741 0-1.391.19-1.951.57s-.971 1.01-1.231 1.891l-3.511-1.081c.34-1.32 1.08-2.381 2.221-3.181 1.16-.801 2.711-1.201 4.652-1.201 1.32 0 2.471.21 3.451.631.981.4 1.741 1.01 2.281 1.83.561.821.841 1.851.841 3.092v6.092c0 .761.36 1.141 1.08 1.141.34 0 .66-.05.961-.15l-.241 2.551c-.52.26-1.17.39-1.95.39-.701 0-1.331-.12-1.891-.36-.561-.24-1.001-.6-1.321-1.081-.32-.5-.48-1.12-.48-1.86v-.12l.72-.12c-.12.76-.45 1.41-.99 1.95-.54.521-1.201.921-1.981 1.201-.76.28-1.551.42-2.371.42-1.02 0-1.901-.15-2.641-.45-.741-.32-1.311-.78-1.711-1.381-.4-.6-.6-1.34-.6-2.221 0-1.12.36-2.031 1.08-2.731.721-.72 1.751-1.21 3.092-1.47l5.642-1.141-.03 2.551-3.602.72c-.68.14-1.2.331-1.56.571-.34.22-.51.59-.51 1.11 0 .5.18.881.54 1.141.38.26.83.39 1.35.39.421 0 .831-.05 1.231-.15s.76-.26 1.08-.48c.321-.221.571-.521.751-.901s.27-.84.27-1.38zm13.406-10.025v14.707c0 .72.18 1.25.541 1.591.38.32.89.48 1.53.48.5 0 .941-.07 1.321-.21.38-.16.72-.371 1.02-.631l.66 2.732c-.48.38-1.08.68-1.8.9-.721.22-1.481.33-2.281.33-1.001 0-1.891-.15-2.671-.45-.761-.3-1.361-.78-1.801-1.441-.42-.66-.63-1.54-.63-2.641v-14.226zm4.802 4.592v3.062h-11.675v-3.062zm4.853-2.16c-.86 0-1.501-.181-1.921-.541-.42-.38-.63-.93-.63-1.65 0-.741.21-1.291.63-1.651.42-.38 1.061-.5704 1.921-.5704s1.501.1904 1.921.5704c.42.36.63.91.63 1.651 0 .72-.21 1.27-.63 1.65-.42.36-1.061.541-1.921.541zm2.041 2.16v15.007h-4.112v-15.007zm11.202-.3c1.52 0 2.851.31 3.991.931 1.161.62 2.061 1.51 2.702 2.671.66 1.16.99 2.561.99 4.202 0 1.62-.33 3.021-.99 4.202-.641 1.16-1.541 2.05-2.702 2.671-1.14.62-2.471.93-3.991.93-1.501 0-2.832-.31-3.992-.93-1.161-.621-2.071-1.511-2.731-2.671-.641-1.181-.961-2.582-.961-4.202 0-1.641.32-3.042.961-4.202.66-1.161 1.57-2.051 2.731-2.671 1.16-.621 2.491-.931 3.992-.931zm0 3.062c-.761 0-1.411.18-1.951.54-.52.34-.921.86-1.201 1.561-.28.7-.42 1.58-.42 2.641 0 1.06.14 1.941.42 2.641s.681 1.23 1.201 1.591c.54.34 1.19.51 1.951.51.74 0 1.37-.17 1.89-.51.541-.361.951-.891 1.231-1.591s.42-1.581.42-2.641c0-1.061-.14-1.941-.42-2.641-.28-.701-.69-1.221-1.231-1.561-.52-.36-1.15-.54-1.89-.54zm11.123 12.245v-15.007h3.692l.24 4.502-.51-.48c.24-.98.62-1.791 1.14-2.431.521-.64 1.151-1.11 1.891-1.41.761-.321 1.591-.481 2.491-.481 1.041 0 1.961.2 2.762.601.82.4 1.46 1.01 1.92 1.83.481.801.721 1.811.721 3.032v9.844h-4.112v-8.674c0-1.28-.25-2.161-.75-2.641-.501-.5-1.151-.75-1.951-.75-.561 0-1.111.14-1.651.42-.52.26-.95.69-1.291 1.29-.32.601-.48 1.401-.48 2.402v7.953zm27.136-9.574c0-.861-.25-1.531-.75-2.011-.48-.48-1.12-.72-1.921-.72-.74 0-1.39.19-1.951.57-.56.38-.97 1.01-1.23 1.891l-3.512-1.081c.341-1.32 1.081-2.381 2.221-3.181 1.161-.801 2.712-1.201 4.652-1.201 1.321 0 2.471.21 3.452.631.98.4 1.741 1.01 2.281 1.83.56.821.84 1.851.84 3.092v6.092c0 .761.36 1.141 1.081 1.141.34 0 .66-.05.96-.15l-.24 2.551c-.52.26-1.171.39-1.951.39-.7 0-1.33-.12-1.891-.36-.56-.24-1-.6-1.32-1.081-.32-.5-.48-1.12-.48-1.86v-.12l.72-.12c-.12.76-.45 1.41-.991 1.95-.54.521-1.2.921-1.98 1.201-.761.28-1.551.42-2.371.42-1.021 0-1.901-.15-2.642-.45-.74-.32-1.31-.78-1.71-1.381-.401-.6-.601-1.34-.601-2.221 0-1.12.361-2.031 1.081-2.731.72-.72 1.751-1.21 3.091-1.47l5.643-1.141-.03 2.551-3.602.72c-.68.14-1.2.331-1.561.571-.34.22-.51.59-.51 1.11 0 .5.18.881.54 1.141.381.26.831.39 1.351.39.42 0 .83-.05 1.231-.15.4-.1.76-.26 1.08-.48.32-.221.57-.521.75-.901s.27-.84.27-1.38zm12.733-12.0054v16.9574c0 .7.12 1.19.36 1.471.24.28.64.42 1.2.42.34 0 .62-.02.841-.06.22-.06.5-.14.84-.24l-.36 2.701c-.34.2-.771.35-1.291.45-.5.12-1 .18-1.5.18-1.461 0-2.532-.35-3.212-1.05-.66-.721-.99-1.861-.99-3.422v-17.4074zm9.584 0v16.9574c0 .7.12 1.19.36 1.471.24.28.64.42 1.2.42.341 0 .621-.02.841-.06.22-.06.5-.14.84-.24l-.36 2.701c-.34.2-.77.35-1.291.45-.5.12-1 .18-1.5.18-1.461 0-2.531-.35-3.212-1.05-.66-.721-.99-1.861-.99-3.422v-17.4074zm19.023 6.5724-6.063 15.937c-.48 1.361-1.02 2.441-1.62 3.242-.581.8-1.261 1.38-2.041 1.741-.761.36-1.671.54-2.732.54-.78 0-1.5-.1-2.16-.3-.641-.18-1.201-.421-1.681-.721l.87-2.971c.38.3.781.51 1.201.63.42.14.9.21 1.44.21.561 0 1.041-.12 1.441-.36.42-.24.77-.72 1.05-1.44l.511-1.291-1.651-3.902-4.592-11.315h4.562l2.851 9.004.78 3.002.931-3.182 2.731-8.824zm28.126 9.545c-.38 1.28-.981 2.351-1.801 3.211s-1.791 1.501-2.911 1.921c-1.121.42-2.351.63-3.692.63-1.961 0-3.661-.41-5.102-1.23-1.421-.821-2.521-1.991-3.301-3.512-.761-1.521-1.141-3.341-1.141-5.462s.38-3.942 1.141-5.463c.78-1.52 1.88-2.691 3.301-3.511 1.441-.821 3.121-1.231 5.042-1.231 1.361 0 2.591.19 3.692.57 1.1.361 2.031.921 2.791 1.681.78.761 1.351 1.721 1.711 2.881l-3.752 1.591c-.34-1.2-.86-2.051-1.561-2.551-.7-.52-1.6-.78-2.701-.78-1.08 0-2.031.26-2.851.78-.8.52-1.421 1.291-1.861 2.311-.44 1-.66 2.241-.66 3.722 0 1.46.2 2.701.6 3.721.42 1.021 1.031 1.791 1.831 2.311.8.521 1.781.781 2.941.781 1.081 0 2.011-.291 2.791-.871.801-.58 1.361-1.46 1.681-2.641zm10.073 5.762c-1.581 0-2.962-.31-4.142-.93-1.161-.621-2.061-1.511-2.701-2.671-.641-1.161-.961-2.562-.961-4.202 0-1.641.32-3.042.961-4.202.64-1.161 1.53-2.051 2.671-2.671 1.16-.621 2.481-.931 3.962-.931 1.52 0 2.811.31 3.871.931 1.061.6 1.871 1.43 2.431 2.491.561 1.04.841 2.231.841 3.571 0 .401-.01.781-.03 1.141s-.05.68-.09.96h-11.976v-2.851h10.175l-1.981.72c0-1.26-.29-2.231-.87-2.911-.561-.68-1.361-1.02-2.401-1.02-.761 0-1.421.18-1.981.54-.54.36-.951.9-1.231 1.621-.28.7-.42 1.59-.42 2.671 0 1.06.15 1.941.45 2.641.32.68.761 1.19 1.321 1.531.58.34 1.27.51 2.071.51.88 0 1.59-.17 2.131-.51.54-.341.96-.811 1.26-1.411l3.272 1.26c-.321.781-.811 1.451-1.471 2.011-.64.561-1.411.991-2.311 1.291-.88.28-1.831.42-2.851.42zm10.417-.3v-15.007h3.572l.27 2.942c.4-1.041.98-1.841 1.741-2.401.78-.561 1.75-.841 2.911-.841.34 0 .65.03.93.09s.511.14.691.24l-.481 3.452c-.2-.08-.45-.14-.75-.18-.28-.04-.65-.06-1.11-.06-.601 0-1.181.15-1.741.45-.56.28-1.021.72-1.381 1.321-.36.58-.54 1.32-.54 2.221v7.773zm17.417-19.599v14.707c0 .72.181 1.25.541 1.591.38.32.89.48 1.53.48.501 0 .941-.07 1.321-.21.38-.16.72-.371 1.02-.631l.661 2.732c-.481.38-1.081.68-1.801.9s-1.481.33-2.281.33c-1.001 0-1.891-.15-2.671-.45-.761-.3-1.361-.78-1.801-1.441-.42-.66-.63-1.54-.63-2.641v-14.226zm4.803 4.592v3.062h-11.676v-3.062zm4.852-2.16c-.86 0-1.5-.181-1.921-.541-.42-.38-.63-.93-.63-1.65 0-.741.21-1.291.63-1.651.421-.38 1.061-.5704 1.921-.5704.861 0 1.501.1904 1.921.5704.42.36.63.91.63 1.651 0 .72-.21 1.27-.63 1.65-.42.36-1.06.541-1.921.541zm2.041 2.16v15.007h-4.112v-15.007zm11.052-6.8725c.7 0 1.33.08 1.891.2401.58.1404 1.01.3204 1.29.5404l-.57 2.731c-.22-.14-.47-.25-.75-.33-.281-.08-.611-.12-.991-.12-.78 0-1.4.18-1.861.54-.46.34-.69.93-.69 1.771v2.071l.18.81v13.626h-4.112v-16.807c0-.841.14-1.581.42-2.221.281-.641.671-1.171 1.171-1.591s1.09-.73 1.771-.9304c.7-.2201 1.45-.3301 2.251-.3301zm3.061 6.8725v3.062h-11.285v-3.062zm4.532-2.16c-.86 0-1.501-.181-1.921-.541-.42-.38-.63-.93-.63-1.65 0-.741.21-1.291.63-1.651.42-.38 1.061-.5704 1.921-.5704s1.501.1904 1.921.5704c.42.36.63.91.63 1.651 0 .72-.21 1.27-.63 1.65-.42.36-1.061.541-1.921.541zm2.041 2.16v15.007h-4.112v-15.007zm11.328 15.307c-1.58 0-2.961-.31-4.141-.93-1.161-.621-2.061-1.511-2.702-2.671-.64-1.161-.96-2.562-.96-4.202 0-1.641.32-3.042.96-4.202.641-1.161 1.531-2.051 2.672-2.671 1.16-.621 2.481-.931 3.961-.931 1.521 0 2.812.31 3.872.931 1.06.6 1.871 1.43 2.431 2.491.56 1.04.84 2.231.84 3.571 0 .401-.01.781-.03 1.141s-.05.68-.09.96h-11.975v-2.851h10.175l-1.981.72c0-1.26-.29-2.231-.871-2.911-.56-.68-1.36-1.02-2.401-1.02-.76 0-1.42.18-1.981.54-.54.36-.95.9-1.23 1.621-.28.7-.42 1.59-.42 2.671 0 1.06.15 1.941.45 2.641.32.68.76 1.19 1.321 1.531.58.34 1.27.51 2.07.51.881 0 1.591-.17 2.131-.51.541-.341.961-.811 1.261-1.411l3.271 1.26c-.32.781-.81 1.451-1.47 2.011-.641.561-1.411.991-2.311 1.291-.881.28-1.831.42-2.852.42zm16.09 0c-1.24 0-2.351-.31-3.331-.93-.96-.621-1.721-1.511-2.281-2.671-.54-1.161-.81-2.552-.81-4.172 0-1.661.29-3.072.87-4.232.58-1.181 1.361-2.071 2.341-2.671 1-.621 2.121-.931 3.362-.931 1.32 0 2.411.38 3.271 1.141.86.76 1.421 1.741 1.681 2.941l-.39.48v-10.8344h4.111v21.5794h-3.691l-.27-4.562.51.24c-.14.94-.46 1.761-.961 2.461-.5.68-1.13 1.211-1.89 1.591-.761.38-1.601.57-2.522.57zm1.201-3.151c.72 0 1.341-.18 1.861-.541.52-.38.92-.93 1.2-1.65.3-.721.451-1.581.451-2.581 0-.961-.141-1.771-.421-2.431-.28-.681-.68-1.201-1.2-1.561s-1.131-.54-1.831-.54c-1.12 0-2.001.4-2.641 1.2-.62.781-.931 1.931-.931 3.452 0 1.52.311 2.681.931 3.481.62.781 1.48 1.171 2.581 1.171zm36.589-16.958v3.332h-6.633v16.477h-4.142v-16.477h-6.662v-3.332zm6.282 20.109c-1.001 0-1.901-.18-2.702-.54-.8-.36-1.44-.931-1.921-1.711-.46-.8-.69-1.831-.69-3.091v-9.965h4.112v8.974c0 1.161.24 1.971.72 2.431.481.441 1.171.661 2.071.661.42 0 .831-.07 1.231-.21.4-.16.75-.401 1.05-.721.32-.32.57-.73.751-1.23.18-.52.27-1.131.27-1.831v-8.074h4.111v15.007h-3.661l-.15-2.611c-.5 1-1.191 1.741-2.071 2.221-.861.46-1.901.69-3.121.69zm18.643-19.899v14.707c0 .72.18 1.25.54 1.591.38.32.89.48 1.53.48.501 0 .941-.07 1.321-.21.38-.16.72-.371 1.02-.631l.661 2.732c-.48.38-1.081.68-1.801.9s-1.481.33-2.281.33c-1 0-1.891-.15-2.671-.45-.761-.3-1.361-.78-1.801-1.441-.42-.66-.63-1.54-.63-2.641v-14.226zm4.802 4.592v3.062h-11.675v-3.062zm9.624-.3c1.521 0 2.852.31 3.992.931 1.161.62 2.061 1.51 2.701 2.671.661 1.16.991 2.561.991 4.202 0 1.62-.33 3.021-.991 4.202-.64 1.16-1.54 2.05-2.701 2.671-1.14.62-2.471.93-3.992.93-1.5 0-2.831-.31-3.991-.93-1.161-.621-2.071-1.511-2.731-2.671-.641-1.181-.961-2.582-.961-4.202 0-1.641.32-3.042.961-4.202.66-1.161 1.57-2.051 2.731-2.671 1.16-.621 2.491-.931 3.991-.931zm0 3.062c-.76 0-1.41.18-1.95.54-.521.34-.921.86-1.201 1.561-.28.7-.42 1.58-.42 2.641 0 1.06.14 1.941.42 2.641s.68 1.23 1.201 1.591c.54.34 1.19.51 1.95.51.741 0 1.371-.17 1.891-.51.54-.361.951-.891 1.231-1.591s.42-1.581.42-2.641c0-1.061-.14-1.941-.42-2.641-.28-.701-.691-1.221-1.231-1.561-.52-.36-1.15-.54-1.891-.54zm11.124 12.245v-15.007h3.572l.27 2.942c.4-1.041.98-1.841 1.741-2.401.78-.561 1.75-.841 2.911-.841.34 0 .65.03.93.09s.511.14.691.24l-.481 3.452c-.2-.08-.45-.14-.75-.18-.28-.04-.65-.06-1.11-.06-.601 0-1.181.15-1.741.45-.56.28-1.021.72-1.381 1.321-.36.58-.54 1.32-.54 2.221v7.773z" fill="#fff"/><path d="m189.546 76.3771-4.851 2.5687 3.746 7.1548 4.851-2.5687z" fill="#50ddbf"/><path d="m290.023 149.973c.016-1.388.465-3.498-.407-4.718-.737-1.035-4.095-.916-3.316-2.704-.477.277-.958.554-1.438.832 2.289.24 4.137-1.896 3.841-4.154-.326-2.503-2.886-3.686-5.157-3.562-2.132.116-2.145 3.467 0 3.351.36-.085.709-.053 1.043.092.588.008.677.314.27.919-.52-.053-1.226.349-1.439.832-.84 1.922-.651 4.006.922 5.521.604.584 1.541 1.218 2.42 1.204.195.019.389.037.586.056-.575-1.043-.785-1.041-.633.008-.205.644-.021 1.663-.029 2.326-.021 2.152 3.311 2.155 3.337-.003z" fill="#5280dd"/><path d="m160.998 78.675c.606.0898 2.662.7711 1.895 1.8854-.063.0924-1.772.4093-1.964.4938-.916.4172-1.696 1.1565-1.977 2.1679-.307 1.1064.053 2.3316.602 3.2954.548.9638 3.292 3.6361.527 3.0129-2.09-.47-2.98 2.7594-.884 3.232 2.166.4885 5.004.4357 5.699-2.2207.266-1.0139-.034-2.0543-.488-2.9521-.504-1.0008-2.649-2.8096-1.649-3.6044.785-.6205 2.111-.3274 2.983-1.1407.843-.7816 1.221-1.9541 1.121-3.0869-.234-2.6458-2.618-3.9634-4.981-4.3146-2.097-.3116-3.001 2.9178-.884 3.232z" fill="#5280dd"/><path d="m702.586 108.828c-.578-.154 1.583-3.462 1.699-3.779.249-.681.462-1.487.307-2.221-.491-2.337-2.135-1.199-3.442-2.392-1.581-1.4473 1.552-6.0709-.016-8.2177-1.208-1.653-4.3-1.1962-6.044-1.2965-2.142-.1215-2.134 3.2294 0 3.3509 1.323.0739 2.888.0237 4.162.4066-.389-.3908-.775-.7789-1.163-1.1697 1.079 2.5851-1.324 5.4395.015 8.2174.998 2.07 2.258 1.933 4.177 2.493-.388-.391-.777-.779-1.165-1.17.643 1.661-2.395 3.953-2.093 6.084.223 1.555 1.208 2.537 2.673 2.926 2.079.549 2.964-2.683.89-3.232z" fill="#5280dd"/><g fill="#50ddbf"><path d="m684.815 139.201-.71 5.467 13.122 1.724.71-5.467z"/><path d="m749.99 93.3884-1.98 5.1413 7.496 2.9213 1.981-5.1414z"/><path d="m524.577 138.948-1.437 5.324 9.205 2.513 1.437-5.323z"/><path d="m297.281 87.5138-2.26-7.8953 5.303-1.4127 2.261 7.8953z"/></g></g></svg>