<svg fill="none" height="173" viewBox="0 0 245 173" width="245" xmlns="http://www.w3.org/2000/svg" xmlns:xlink="http://www.w3.org/1999/xlink"><clipPath id="a"><path d="m112.056 146.069h7.66522v8.11646h-7.66522z"/></clipPath><clipPath id="b"><path d="m30.2209 16.5h7.66522v8.11646h-7.66522z"/></clipPath><path d="m15.1105 99.5h174.7145" stroke="#dbe5fa" stroke-dasharray="1.5 1.5"/><ellipse cx="105.626" cy="82.3443" fill="#e3f2fd" fill-opacity=".5" rx="55.5728" ry="58.8443"/><g stroke-width="1.01456"><path d="m46.8313 99.6348h12.0698 7.4089c2.2413 0 4.0582-1.817 4.0582-4.0583v-45.2026c0-2.2413 1.817-4.0583 4.0583-4.0583h7.4729c2.2413 0 4.0582-1.8169 4.0582-4.0582v-24.6545c0-2.2412 1.817-4.0582 4.0583-4.0582h33.7051c2.241 0 4.058 1.8169 4.058 4.0582v41.3057c0 2.2413-1.817 4.0582-4.058 4.0582h-2.077c-2.241 0-4.058-1.8169-4.058-4.0582v-30.4294c0-1.9868-1.611-3.5975-3.597-3.5975-1.987 0-3.598 1.6107-3.598 3.5975v30.4294c0 2.2413-1.817 4.0582-4.058 4.0582h-.878c-2.241 0-4.058-1.8169-4.058-4.0582v-30.2795c0-2.0696-1.6777-3.7474-3.7473-3.7474-2.0697 0-3.7475 1.6778-3.7475 3.7474v77.3989c0 2.241-1.8169 4.058-4.0582 4.058h-41.4998c-2.2413 0-4.0582 1.817-4.0582 4.058v15.798c0 2.241 1.8169 4.058 4.0582 4.058h12.1198c2.2413 0 4.0582-1.817 4.0582-4.058v-35.9917c0-2.2413 1.817-4.0582 4.0583-4.0582h35.8035c2.241 0 4.058 1.8169 4.058 4.0582v5.7005c0 2.2412 1.817 4.0582 4.059 4.0582h20.208c2.241 0 4.058-1.817 4.058-4.0582v-57.4254c0-2.2413-1.817-4.0582-4.058-4.0582h-114.4847c-2.2413 0-4.0582 1.8169-4.0582 4.0582v10.9058c0 2.2413 1.8169 4.0582 4.0582 4.0582h34.5462m57.6205 17.5582v5.4733c0 2.2413 1.803 4.0583 4.045 4.0583h54.327c2.242 0 4.063-1.817 4.063-4.0583v-80.2209" stroke="#7495d8" stroke-opacity=".5"/><path d="m140.48 20.7706c3.045.0001 5.561 2.6227 5.561 5.919 0 3.2961-2.516 5.9179-5.561 5.9179-3.044 0-5.561-2.6218-5.561-5.9179 0-3.2963 2.517-5.919 5.561-5.919z" fill="#dbe5fa" stroke="#728fde"/><path d="m115.728 64.735v99.765" stroke="#7495d8"/><path d="m3.30542 172.5v-48.942c0-2.241 1.81693-4.058 4.05823-4.058h2.27198c2.24127 0 4.05827 1.817 4.05827 4.058v20.884c0 2.241 1.8169 4.058 4.0582 4.058h.6401c2.2413 0 4.0582-1.817 4.0582-4.058v-30.742c0-2.241 1.8169-4.058 4.0582-4.058h45.1606c2.2413 0 4.0582 1.817 4.0582 4.058v19.493c0 2.242 1.817 4.059 4.0583 4.059h77.6493c2.241 0 4.058-1.817 4.058-4.059v-63.6348c0-2.2413-1.817-4.0582-4.058-4.0582h-119.8504c-2.2413 0-4.0582-1.8169-4.0582-4.0582v-33.9418" stroke="#f2fbf9"/></g><path d="m112.657 128.756c-32.0979-14.756-34.1336-62.2178-34.2627-68.1786-.0076-.3511.2663-.6404.6161-.6718 20.6453-1.8531 32.1736-7.1598 33.5706-7.8347.096-.0464.2-.0709.307-.0709h.13c.109 0 .214.0252.311.0734 1.397.6901 12.801 6.0594 33.408 8.0654.354.0344.627.3333.612.6882-.266 6.0974-3.36 54.833-34.751 67.908" fill="#1855d1"/><path d="m113.007 120.977c-.19.098-.42.099-.61.002-24.1027-12.301-26.6463-49.1594-26.8867-54.3611-.0164-.3565.2591-.6371.6146-.6697 17.4331-1.5991 26.7651-6.2969 26.7651-6.2969.015-.0098.032-.0118.048-.0038.526.2639 9.783 4.8078 26.696 6.4875.355.0352.628.3165.609.6723-.266 5.1668-2.99 41.6697-27.236 54.1697z" fill="#aed9f9" stroke="#fff" stroke-width="2.70549"/><path d="m112.721 119.118c-.001.261-.155.278-.39.163-21.5612-10.585-25.0432-46.2497-25.4385-51.4324-.0278-.3641.2522-.6555.6159-.689 17.3846-1.5987 25.3306-6.1975 25.3306-6.1975 0-.0002 0-.0004 0-.0004-.008-.0007-17.8271-1.6748 0 .0004 0 0-.104 52.9449-.118 58.1559z" fill="#90cefb"/><path d="m113.136 70.7687c3.985 0 7.216 3.2308 7.216 7.2159v8.3642h-14.432v-8.3642c0-3.985 3.231-7.2158 7.216-7.2159z" stroke="#fff" stroke-width="5.07279"/><rect fill="#ff8c5f" height="19.8719" rx="4.39642" width="25.2313" x="100.424" y="82.364"/><path d="m111.116 97.6449 1.341-7.1033h1.49l1.489 7.1033z" fill="#e1612f"/><ellipse cx="113.162" cy="89.519" fill="#e1612f" rx="2.50143" ry="2.58849"/><path d="m115.888 144.208c3.044 0 5.56 2.623 5.56 5.919 0 3.297-2.516 5.918-5.56 5.918s-5.561-2.621-5.562-5.918c0-3.296 2.518-5.919 5.562-5.919z" fill="#d4d9f7" stroke="#f2fbf9" stroke-width="1.01456"/><path d="m69.7372 107.515c1.118 0 2.0565.966 2.0566 2.199 0 1.232-.9385 2.198-2.0566 2.198-1.1182 0-2.0576-.966-2.0576-2.198.0001-1.233.9395-2.199 2.0576-2.199z" fill="#728fde" stroke="#a9bae8" stroke-width=".676372"/><path d="m110.618 35.8201c1.294 0 2.377 1.1178 2.377 2.5371 0 1.419-1.083 2.5361-2.377 2.5361-1.295 0-2.377-1.117-2.377-2.5361 0-1.4193 1.082-2.5371 2.377-2.5371z" fill="#728fde" stroke="#a9bae8" stroke-width=".676372"/><g clip-path="url(#a)"><path clip-rule="evenodd" d="m115.352 152.152-.203-.216-.203.216c.112.118.294.118.406 0zm-.203-.646-1.33-1.408c-.112-.119-.294-.119-.406 0-.113.119-.113.311 0 .43l1.533 1.624.203-.216c.203.216.203.216.203.216l2.958-3.132c.112-.119.112-.312 0-.431s-.294-.119-.406 0z" fill="#e3f2fd" fill-rule="evenodd"/><path d="m115.149 151.936.203.216m-.203-.216-.203.216m.203-.216c.203.216.203.216.203.216m0 0c-.112.118-.294.118-.406 0m.406 0 2.958-3.132c.112-.119.112-.312 0-.431s-.294-.119-.406 0l-2.755 2.917-1.33-1.408c-.112-.119-.294-.119-.406 0-.113.119-.113.311 0 .43l1.533 1.624" stroke="#8f74b4" stroke-linecap="round" stroke-linejoin="round" stroke-width=".676372"/></g><path clip-rule="evenodd" d="m139.907 28.4324-.204-.2152-.203.2152c.112.1189.294.1189.407 0zm-.204-.6457-1.329-1.408c-.113-.1189-.295-.1189-.407 0-.112.1188-.112.3115 0 .4304l1.533 1.6233.203-.2152c.204.2152.204.2152.204.2152l2.958-3.1319c.112-.1189.112-.3116 0-.4305-.113-.1189-.295-.1189-.407 0z" fill="#e3f2fd" fill-rule="evenodd"/><path d="m139.703 28.2172.204.2152m-.204-.2152-.203.2152m.203-.2152c.204.2152.204.2152.204.2152m0 0c-.113.1189-.295.1189-.407 0m.407 0 2.958-3.1319c.112-.1189.112-.3116 0-.4305-.113-.1189-.295-.1189-.407 0l-2.755 2.9167-1.329-1.408c-.113-.1189-.295-.1189-.407 0-.112.1188-.112.3115 0 .4304l1.533 1.6233" stroke="#8f74b4" stroke-linecap="round" stroke-linejoin="round" stroke-width=".676372"/><rect fill="#728fde" height="6" rx="2.80541" width="5.61083" x=".5" y="144"/><rect height="6" rx="2.80541" stroke="#a7bde9" width="5.61083" x=".5" y="144"/><g clip-path="url(#b)"><path clip-rule="evenodd" d="m33.1891 23.1516-.2033-.2152-.2032.2152c.1122.1188.2942.1188.4065 0zm-.2033-.6457-1.3298-1.4081c-.1122-.1188-.2942-.1188-.4065 0-.1122.1189-.1122.3116 0 .4305l1.5331 1.6233.2032-.2152c.2033.2152.2033.2152.2033.2152l2.9578-3.132c.1123-.1188.1123-.3115 0-.4304-.1122-.1189-.2942-.1189-.4065 0z" fill="#e3f2fd" fill-rule="evenodd"/><path d="m32.9858 22.9364.2033.2152m-.2033-.2152-.2032.2152m.2032-.2152c.2033.2152.2033.2152.2033.2152m0 0c-.1123.1188-.2943.1188-.4065 0m.4065 0 2.9578-3.132c.1123-.1188.1123-.3115 0-.4304-.1122-.1189-.2942-.1189-.4065 0l-2.7546 2.9167-1.3298-1.4081c-.1122-.1188-.2942-.1188-.4065 0-.1122.1189-.1122.3116 0 .4305l1.5331 1.6233" stroke="#8f74b4" stroke-linecap="round" stroke-linejoin="round" stroke-width=".676372"/></g><path clip-rule="evenodd" d="m240.958 122.152-.203-.216-.204.216c.113.118.295.118.407 0zm-.203-.646-1.33-1.408c-.112-.119-.294-.119-.407 0-.112.119-.112.311 0 .43l1.533 1.624.204-.216c.203.216.203.216.203.216l2.958-3.132c.112-.119.112-.312 0-.431s-.294-.119-.407 0z" fill="#e3f2fd" fill-rule="evenodd"/><path d="m240.755 121.936.203.216m-.203-.216-.204.216m.204-.216c.203.216.203.216.203.216m0 0c-.112.118-.294.118-.407 0m.407 0 2.958-3.132c.112-.119.112-.312 0-.431s-.294-.119-.407 0l-2.754 2.917-1.33-1.408c-.112-.119-.294-.119-.407 0-.112.119-.112.311 0 .43l1.533 1.624" stroke="#8f74b4" stroke-linecap="round" stroke-linejoin="round" stroke-width=".676372"/><path d="m147.327 27h35.712c2.209 0 4 1.7909 4 4v10.1064c0 2.2091-1.791 4-4 4h-14.062c-2.21 0-4 1.7908-4 4v65.8936c0 2.209 1.79 4 4 4h32.181" stroke="#f2fbf9"/><path d="m175.221 81.8379c1.118.0001 2.057.9659 2.057 2.1982 0 1.2325-.938 2.1982-2.057 2.1983-1.118 0-2.057-.9657-2.057-2.1983 0-1.2324.939-2.1982 2.057-2.1982z" fill="#728fde" stroke="#a9bae8" stroke-width=".676372"/></svg>