<svg width="278" height="68" viewBox="0 0 278 68" fill="none" xmlns="http://www.w3.org/2000/svg">
<path fill-rule="evenodd" clip-rule="evenodd" d="M9.20842 3.59766C4.12275 3.59766 0 7.72041 0 12.8061V45.9563C0 51.0419 4.12274 55.1647 9.20841 55.1647H234.89C237.643 58.7739 245.35 65.3491 258.212 67.5627C255.159 65.2783 249.567 60.1699 247.349 55.1647H267.965C273.051 55.1647 277.174 51.0419 277.174 45.9563V12.8061C277.174 7.72041 273.051 3.59766 267.965 3.59766H9.20842Z" fill="#DBF5F0"/>
<mask id="path-2-inside-1_1432_929" fill="white">
<path fill-rule="evenodd" clip-rule="evenodd" d="M9.20842 0C4.12275 0 0 4.12275 0 9.20842V42.3586C0 47.4443 4.12274 51.567 9.20841 51.567H234.89C237.643 55.1763 245.35 61.7515 258.212 63.9651C255.159 61.6807 249.567 56.5723 247.349 51.567H267.965C273.051 51.567 277.174 47.4443 277.174 42.3586V9.20842C277.174 4.12275 273.051 0 267.965 0H9.20842Z"/>
</mask>
<path fill-rule="evenodd" clip-rule="evenodd" d="M9.20842 0C4.12275 0 0 4.12275 0 9.20842V42.3586C0 47.4443 4.12274 51.567 9.20841 51.567H234.89C237.643 55.1763 245.35 61.7515 258.212 63.9651C255.159 61.6807 249.567 56.5723 247.349 51.567H267.965C273.051 51.567 277.174 47.4443 277.174 42.3586V9.20842C277.174 4.12275 273.051 0 267.965 0H9.20842Z" fill="#B4F4E7"/>
<path d="M234.89 51.567L235.619 51.0109L235.343 50.6501H234.89V51.567ZM258.212 63.9651L258.056 64.8687L258.761 63.2309L258.212 63.9651ZM247.349 51.567V50.6501H245.94L246.511 51.9385L247.349 51.567ZM0 9.20842H0.91692C0.91692 4.62915 4.62915 0.91692 9.20842 0.91692V0V-0.91692C3.61635 -0.91692 -0.91692 3.61635 -0.91692 9.20842H0ZM0 42.3586H0.91692V9.20842H0H-0.91692V42.3586H0ZM9.20841 51.567V50.6501C4.62914 50.6501 0.91692 46.9379 0.91692 42.3586H0H-0.91692C-0.91692 47.9507 3.61634 52.4839 9.20841 52.4839V51.567ZM234.89 51.567V50.6501H9.20841V51.567V52.4839H234.89V51.567ZM258.212 63.9651L258.367 63.0614C245.739 60.888 238.235 54.4403 235.619 51.0109L234.89 51.567L234.161 52.1232C237.051 55.9123 244.961 62.615 258.056 64.8687L258.212 63.9651ZM247.349 51.567L246.511 51.9385C247.68 54.5771 249.711 57.1931 251.799 59.4143C253.895 61.6438 256.096 63.5272 257.662 64.6992L258.212 63.9651L258.761 63.2309C257.275 62.1185 255.154 60.3055 253.135 58.1584C251.11 56.003 249.236 53.5622 248.187 51.1956L247.349 51.567ZM267.965 51.567V50.6501H247.349V51.567V52.4839H267.965V51.567ZM277.174 42.3586H276.257C276.257 46.9379 272.545 50.6501 267.965 50.6501V51.567V52.4839C273.557 52.4839 278.091 47.9507 278.091 42.3586H277.174ZM277.174 9.20842H276.257V42.3586H277.174H278.091V9.20842H277.174ZM267.965 0V0.91692C272.545 0.91692 276.257 4.62915 276.257 9.20842H277.174H278.091C278.091 3.61635 273.557 -0.91692 267.965 -0.91692V0ZM9.20842 0V0.91692H267.965V0V-0.91692H9.20842V0Z" fill="#6FD8C2" mask="url(#path-2-inside-1_1432_929)"/>
<path d="M25.9953 20.0124H30.5609V21.1664H24.6532V12.8879H25.9953V20.0124ZM34.5862 21.2918C33.959 21.2918 33.4072 21.1622 32.9305 20.903C32.4539 20.6438 32.0818 20.2716 31.8142 19.7866C31.555 19.2933 31.4253 18.7079 31.4253 18.0306C31.4253 17.3533 31.555 16.7721 31.8142 16.2871C32.0818 15.7938 32.4497 15.4175 32.918 15.1582C33.3862 14.899 33.9172 14.7694 34.5109 14.7694C35.1214 14.7694 35.6398 14.8948 36.0663 15.1457C36.4927 15.3966 36.8189 15.7394 37.0446 16.1742C37.2704 16.6091 37.3833 17.1024 37.3833 17.6543C37.3833 17.8048 37.3791 17.947 37.3708 18.0808C37.3624 18.2146 37.3499 18.3316 37.3331 18.432H32.2908V17.4035H36.7436L36.0788 17.6041C36.0788 17.0355 35.9367 16.6007 35.6524 16.2997C35.3681 15.9903 34.9792 15.8356 34.4859 15.8356C34.1263 15.8356 33.8127 15.9192 33.5451 16.0864C33.2775 16.2537 33.0727 16.5045 32.9305 16.839C32.7884 17.1651 32.7173 17.5665 32.7173 18.0432C32.7173 18.5114 32.7925 18.9086 32.9431 19.2347C33.0936 19.5609 33.3068 19.8075 33.5828 19.9748C33.8587 20.142 34.1848 20.2257 34.5611 20.2257C34.9792 20.2257 35.3179 20.1462 35.5771 19.9873C35.8363 19.8285 36.0412 19.6069 36.1917 19.3225L37.2579 19.8243C37.1074 20.1253 36.9025 20.3887 36.6433 20.6145C36.3924 20.8319 36.0914 20.9991 35.7402 21.1162C35.389 21.2333 35.0043 21.2918 34.5862 21.2918ZM40.7625 13.051V19.2849C40.7625 19.5943 40.8419 19.8201 41.0008 19.9622C41.1681 20.1044 41.3896 20.1755 41.6656 20.1755C41.8914 20.1755 42.0879 20.142 42.2551 20.0751C42.4224 19.9999 42.5771 19.8995 42.7192 19.7741L43.0202 20.7525C42.8279 20.9197 42.5896 21.0535 42.3053 21.1538C42.0293 21.2458 41.72 21.2918 41.3771 21.2918C41.0175 21.2918 40.6872 21.2333 40.3862 21.1162C40.0852 20.9991 39.851 20.811 39.6838 20.5518C39.5165 20.2842 39.4287 19.9372 39.4204 19.5107V13.4273L40.7625 13.051ZM42.9199 14.8948V15.9485H38.2162V14.8948H42.9199ZM44.9246 12.4364C45.1588 12.4364 45.3511 12.4949 45.5016 12.612C45.6605 12.7207 45.7818 12.8754 45.8654 13.0761C45.949 13.2684 45.9908 13.49 45.9908 13.7409C45.9908 14.0503 45.9323 14.3513 45.8152 14.644C45.6981 14.9283 45.5267 15.1917 45.3009 15.4342C45.0835 15.6683 44.8201 15.8607 44.5107 16.0112L43.8836 15.4718C44.1093 15.3882 44.31 15.2795 44.4856 15.1457C44.6612 15.0119 44.8076 14.8614 44.9246 14.6942C45.0501 14.5269 45.1379 14.3555 45.188 14.1799L45.1379 14.1548C45.0961 14.1799 45.0459 14.2008 44.9874 14.2175C44.9372 14.2342 44.8619 14.2426 44.7616 14.2426C44.6445 14.2426 44.5233 14.2133 44.3978 14.1548C44.2808 14.0879 44.1804 13.9917 44.0968 13.8663C44.0132 13.7409 43.9714 13.5778 43.9714 13.3771C43.9714 13.1932 44.0132 13.0301 44.0968 12.8879C44.1888 12.7458 44.3058 12.6371 44.448 12.5618C44.5902 12.4782 44.749 12.4364 44.9246 12.4364ZM49.411 21.2918C48.7839 21.2918 48.2111 21.1706 47.6926 20.9281C47.1742 20.6856 46.7645 20.3427 46.4634 19.8995L47.3916 19.0968C47.5756 19.4396 47.839 19.7156 48.1818 19.9246C48.533 20.1253 48.9511 20.2257 49.4361 20.2257C49.8208 20.2257 50.126 20.1588 50.3518 20.025C50.5776 19.8912 50.6904 19.703 50.6904 19.4605C50.6904 19.3016 50.6361 19.1637 50.5274 19.0466C50.427 18.9212 50.2305 18.825 49.9379 18.7581L48.6208 18.4822C47.9519 18.3484 47.4752 18.1351 47.1909 17.8425C46.9066 17.5414 46.7645 17.161 46.7645 16.701C46.7645 16.3582 46.8648 16.0404 47.0655 15.7478C47.2662 15.4551 47.5589 15.221 47.9435 15.0454C48.3365 14.8614 48.8048 14.7694 49.3483 14.7694C49.9755 14.7694 50.5107 14.8823 50.9538 15.1081C51.397 15.3255 51.7357 15.6391 51.9698 16.0488L51.0416 16.8265C50.8828 16.492 50.6486 16.2453 50.3392 16.0864C50.0298 15.9192 49.7079 15.8356 49.3734 15.8356C49.1058 15.8356 48.8759 15.869 48.6835 15.9359C48.4912 16.0028 48.3449 16.0948 48.2445 16.2119C48.1442 16.3289 48.094 16.4669 48.094 16.6258C48.094 16.793 48.1567 16.9394 48.2822 17.0648C48.4076 17.1902 48.6334 17.2864 48.9595 17.3533L50.3894 17.6543C50.9915 17.7714 51.4138 17.9721 51.6563 18.2564C51.9071 18.5323 52.0326 18.871 52.0326 19.2724C52.0326 19.6738 51.928 20.0291 51.719 20.3385C51.5099 20.6396 51.2089 20.8737 50.8159 21.041C50.4229 21.2082 49.9546 21.2918 49.411 21.2918ZM60.2212 11.9848C60.4804 11.9848 60.7146 12.0141 60.9236 12.0726C61.1411 12.1228 61.3041 12.1939 61.4128 12.2859L61.162 13.2517C61.07 13.1932 60.9654 13.1514 60.8484 13.1263C60.7313 13.0928 60.5975 13.0761 60.447 13.0761C60.1042 13.0761 59.8324 13.1555 59.6317 13.3144C59.4394 13.4733 59.3432 13.7325 59.3432 14.0921V15.0077L59.3808 15.3464V21.1664H58.0387V13.9917C58.0387 13.674 58.0847 13.3897 58.1767 13.1388C58.277 12.8879 58.4234 12.6789 58.6157 12.5117C58.808 12.3361 59.038 12.2064 59.3056 12.1228C59.5815 12.0308 59.8867 11.9848 60.2212 11.9848ZM61.3752 14.8948V15.9485H56.8597V14.8948H61.3752ZM65.1713 14.7694C65.7818 14.7694 66.3211 14.899 66.7894 15.1582C67.2577 15.4175 67.6214 15.7938 67.8806 16.2871C68.1482 16.7721 68.282 17.3533 68.282 18.0306C68.282 18.7079 68.1482 19.2933 67.8806 19.7866C67.6214 20.2716 67.2577 20.6438 66.7894 20.903C66.3211 21.1622 65.7818 21.2918 65.1713 21.2918C64.5609 21.2918 64.0215 21.1622 63.5533 20.903C63.085 20.6438 62.7171 20.2716 62.4495 19.7866C62.1819 19.2933 62.0481 18.7079 62.0481 18.0306C62.0481 17.3533 62.1819 16.7721 62.4495 16.2871C62.7171 15.7938 63.085 15.4175 63.5533 15.1582C64.0215 14.899 64.5609 14.7694 65.1713 14.7694ZM65.1713 15.823C64.795 15.823 64.4731 15.9108 64.2055 16.0864C63.9463 16.2537 63.7456 16.5004 63.6034 16.8265C63.4613 17.1526 63.3902 17.554 63.3902 18.0306C63.3902 18.4989 63.4613 18.9003 63.6034 19.2347C63.7456 19.5609 63.9463 19.8117 64.2055 19.9873C64.4731 20.1546 64.795 20.2382 65.1713 20.2382C65.5476 20.2382 65.8654 20.1546 66.1246 19.9873C66.3838 19.8117 66.5845 19.5609 66.7267 19.2347C66.8688 18.9003 66.9399 18.4989 66.9399 18.0306C66.9399 17.554 66.8688 17.1526 66.7267 16.8265C66.5845 16.5004 66.3838 16.2537 66.1246 16.0864C65.8654 15.9108 65.5476 15.823 65.1713 15.823ZM72.6797 14.7694C73.1815 14.7694 73.6079 14.8447 73.9591 14.9952C74.3187 15.1373 74.6197 15.3422 74.8622 15.6098C75.1047 15.8774 75.2887 16.1826 75.4141 16.5254L74.1473 17.0272C74.0386 16.6425 73.863 16.3498 73.6205 16.1491C73.3863 15.9401 73.0769 15.8356 72.6923 15.8356C72.316 15.8356 71.994 15.9234 71.7265 16.099C71.4589 16.2662 71.254 16.5129 71.1119 16.839C70.9781 17.1651 70.9112 17.5665 70.9112 18.0432C70.9112 18.5114 70.9822 18.9086 71.1244 19.2347C71.2666 19.5609 71.4714 19.8075 71.739 19.9748C72.0066 20.142 72.3244 20.2257 72.6923 20.2257C72.9766 20.2257 73.2233 20.1797 73.4323 20.0877C73.6414 19.9873 73.8128 19.8494 73.9466 19.6738C74.0887 19.4898 74.1849 19.2682 74.2351 19.009L75.4518 19.4229C75.3347 19.7992 75.1507 20.1295 74.8999 20.4138C74.6574 20.6897 74.3521 20.9072 73.9842 21.066C73.6163 21.2166 73.194 21.2918 72.7174 21.2918C72.0986 21.2918 71.5509 21.1622 71.0742 20.903C70.5976 20.6438 70.2255 20.2716 69.9579 19.7866C69.6987 19.2933 69.5691 18.7079 69.5691 18.0306C69.5691 17.3533 69.6987 16.7721 69.9579 16.2871C70.2255 15.7938 70.5934 15.4175 71.0617 15.1582C71.5383 14.899 72.0777 14.7694 72.6797 14.7694ZM79.2463 21.2918C78.8366 21.2918 78.4561 21.2166 78.1049 21.066C77.7621 20.9155 77.4861 20.673 77.2771 20.3385C77.068 20.0041 76.9635 19.5692 76.9635 19.0341V14.8948H78.3056V18.6954C78.3056 19.264 78.4269 19.657 78.6694 19.8744C78.9119 20.0835 79.2505 20.188 79.6853 20.188C79.8944 20.188 80.0951 20.1546 80.2874 20.0877C80.4881 20.0124 80.6679 19.8995 80.8268 19.749C80.9856 19.5901 81.1069 19.3894 81.1905 19.1469C81.2825 18.9044 81.3285 18.6201 81.3285 18.294V14.8948H82.6706V21.1664H81.4916L81.4288 20.1504C81.2114 20.5434 80.9188 20.8319 80.5508 21.0159C80.1829 21.1998 79.7481 21.2918 79.2463 21.2918ZM87.1505 21.2918C86.5234 21.2918 85.9506 21.1706 85.4321 20.9281C84.9137 20.6856 84.5039 20.3427 84.2029 19.8995L85.1311 19.0968C85.3151 19.4396 85.5785 19.7156 85.9213 19.9246C86.2725 20.1253 86.6906 20.2257 87.1756 20.2257C87.5603 20.2257 87.8655 20.1588 88.0913 20.025C88.317 19.8912 88.4299 19.703 88.4299 19.4605C88.4299 19.3016 88.3756 19.1637 88.2669 19.0466C88.1665 18.9212 87.97 18.825 87.6773 18.7581L86.3603 18.4822C85.6914 18.3484 85.2147 18.1351 84.9304 17.8425C84.6461 17.5414 84.5039 17.161 84.5039 16.701C84.5039 16.3582 84.6043 16.0404 84.805 15.7478C85.0057 15.4551 85.2983 15.221 85.683 15.0454C86.076 14.8614 86.5443 14.7694 87.0878 14.7694C87.715 14.7694 88.2501 14.8823 88.6933 15.1081C89.1365 15.3255 89.4752 15.6391 89.7093 16.0488L88.7811 16.8265C88.6223 16.492 88.3881 16.2453 88.0787 16.0864C87.7693 15.9192 87.4474 15.8356 87.1129 15.8356C86.8453 15.8356 86.6154 15.869 86.423 15.9359C86.2307 16.0028 86.0844 16.0948 85.984 16.2119C85.8837 16.3289 85.8335 16.4669 85.8335 16.6258C85.8335 16.793 85.8962 16.9394 86.0217 17.0648C86.1471 17.1902 86.3729 17.2864 86.699 17.3533L88.1289 17.6543C88.731 17.7714 89.1532 17.9721 89.3957 18.2564C89.6466 18.5323 89.772 18.871 89.772 19.2724C89.772 19.6738 89.6675 20.0291 89.4585 20.3385C89.2494 20.6396 88.9484 20.8737 88.5554 21.041C88.1623 21.2082 87.6941 21.2918 87.1505 21.2918ZM98.2072 14.7694C98.8176 14.7694 99.3569 14.899 99.8252 15.1582C100.293 15.4175 100.657 15.7938 100.916 16.2871C101.184 16.7721 101.318 17.3533 101.318 18.0306C101.318 18.7079 101.184 19.2933 100.916 19.7866C100.657 20.2716 100.293 20.6438 99.8252 20.903C99.3569 21.1622 98.8176 21.2918 98.2072 21.2918C97.5967 21.2918 97.0574 21.1622 96.5891 20.903C96.1208 20.6438 95.7529 20.2716 95.4853 19.7866C95.2177 19.2933 95.0839 18.7079 95.0839 18.0306C95.0839 17.3533 95.2177 16.7721 95.4853 16.2871C95.7529 15.7938 96.1208 15.4175 96.5891 15.1582C97.0574 14.899 97.5967 14.7694 98.2072 14.7694ZM98.2072 15.823C97.8309 15.823 97.5089 15.9108 97.2413 16.0864C96.9821 16.2537 96.7814 16.5004 96.6393 16.8265C96.4971 17.1526 96.426 17.554 96.426 18.0306C96.426 18.4989 96.4971 18.9003 96.6393 19.2347C96.7814 19.5609 96.9821 19.8117 97.2413 19.9873C97.5089 20.1546 97.8309 20.2382 98.2072 20.2382C98.5835 20.2382 98.9012 20.1546 99.1604 19.9873C99.4197 19.8117 99.6203 19.5609 99.7625 19.2347C99.9047 18.9003 99.9757 18.4989 99.9757 18.0306C99.9757 17.554 99.9047 17.1526 99.7625 16.8265C99.6203 16.5004 99.4197 16.2537 99.1604 16.0864C98.9012 15.9108 98.5835 15.823 98.2072 15.823ZM103.006 21.1664V14.8948H104.198L104.286 16.5254L104.11 16.3498C104.227 15.9903 104.394 15.6934 104.612 15.4593C104.838 15.2168 105.101 15.0412 105.402 14.9325C105.711 14.8238 106.038 14.7694 106.38 14.7694C106.824 14.7694 107.221 14.8572 107.572 15.0328C107.932 15.2001 108.216 15.4551 108.425 15.7979C108.634 16.1408 108.738 16.5756 108.738 17.1024V21.1664H107.396V17.5163C107.396 16.8976 107.267 16.4711 107.008 16.237C106.757 15.9945 106.439 15.8732 106.054 15.8732C105.778 15.8732 105.511 15.9401 105.251 16.0739C104.992 16.1993 104.775 16.4042 104.599 16.6885C104.432 16.9728 104.348 17.3533 104.348 17.8299V21.1664H103.006ZM114.851 23.8004V14.8948H116.043L116.143 16.6509L115.967 16.4376C116.068 16.1115 116.223 15.823 116.432 15.5722C116.641 15.3213 116.9 15.1248 117.209 14.9826C117.527 14.8405 117.874 14.7694 118.25 14.7694C118.76 14.7694 119.225 14.899 119.643 15.1582C120.061 15.4175 120.391 15.7896 120.634 16.2746C120.876 16.7512 120.997 17.3324 120.997 18.0181C120.997 18.7038 120.872 19.2933 120.621 19.7866C120.378 20.2716 120.044 20.6438 119.618 20.903C119.199 21.1622 118.731 21.2918 118.213 21.2918C117.678 21.2918 117.222 21.1538 116.845 20.8779C116.469 20.5936 116.202 20.234 116.043 19.7992L116.193 19.586V23.8004H114.851ZM117.924 20.2006C118.468 20.2006 118.89 20.0082 119.191 19.6236C119.5 19.2389 119.655 18.7079 119.655 18.0306C119.655 17.3533 119.505 16.8223 119.204 16.4376C118.903 16.0446 118.484 15.8481 117.949 15.8481C117.598 15.8481 117.289 15.9401 117.021 16.1241C116.762 16.2997 116.557 16.5505 116.406 16.8766C116.264 17.1944 116.193 17.5791 116.193 18.0306C116.193 18.4738 116.264 18.8585 116.406 19.1846C116.549 19.5107 116.749 19.7616 117.009 19.9372C117.268 20.1128 117.573 20.2006 117.924 20.2006ZM122.715 21.1664V14.8948H123.856L123.982 16.0237C124.149 15.614 124.396 15.3046 124.722 15.0955C125.056 14.8781 125.466 14.7694 125.951 14.7694C126.077 14.7694 126.202 14.782 126.327 14.807C126.453 14.8238 126.557 14.853 126.641 14.8948L126.453 16.0739C126.361 16.0404 126.256 16.0154 126.139 15.9986C126.031 15.9735 125.88 15.961 125.688 15.961C125.429 15.961 125.174 16.0321 124.923 16.1742C124.672 16.308 124.463 16.5129 124.296 16.7888C124.137 17.0648 124.057 17.416 124.057 17.8425V21.1664H122.715ZM130.471 14.7694C131.082 14.7694 131.621 14.899 132.089 15.1582C132.558 15.4175 132.921 15.7938 133.181 16.2871C133.448 16.7721 133.582 17.3533 133.582 18.0306C133.582 18.7079 133.448 19.2933 133.181 19.7866C132.921 20.2716 132.558 20.6438 132.089 20.903C131.621 21.1622 131.082 21.2918 130.471 21.2918C129.861 21.2918 129.322 21.1622 128.853 20.903C128.385 20.6438 128.017 20.2716 127.749 19.7866C127.482 19.2933 127.348 18.7079 127.348 18.0306C127.348 17.3533 127.482 16.7721 127.749 16.2871C128.017 15.7938 128.385 15.4175 128.853 15.1582C129.322 14.899 129.861 14.7694 130.471 14.7694ZM130.471 15.823C130.095 15.823 129.773 15.9108 129.505 16.0864C129.246 16.2537 129.046 16.5004 128.903 16.8265C128.761 17.1526 128.69 17.554 128.69 18.0306C128.69 18.4989 128.761 18.9003 128.903 19.2347C129.046 19.5609 129.246 19.8117 129.505 19.9873C129.773 20.1546 130.095 20.2382 130.471 20.2382C130.848 20.2382 131.165 20.1546 131.425 19.9873C131.684 19.8117 131.884 19.5609 132.027 19.2347C132.169 18.9003 132.24 18.4989 132.24 18.0306C132.24 17.554 132.169 17.1526 132.027 16.8265C131.884 16.5004 131.684 16.2537 131.425 16.0864C131.165 15.9108 130.848 15.823 130.471 15.823ZM138.632 21.2918C138.264 21.2918 137.925 21.2207 137.616 21.0786C137.315 20.9364 137.06 20.7399 136.851 20.4891C136.642 20.2298 136.487 19.9413 136.387 19.6236L136.55 19.4104L136.449 21.1664H135.27V12.0726H136.613V16.4753L136.462 16.262C136.621 15.8272 136.893 15.4718 137.277 15.1959C137.662 14.9116 138.126 14.7694 138.67 14.7694C139.171 14.7694 139.631 14.899 140.049 15.1582C140.476 15.4175 140.81 15.7896 141.053 16.2746C141.295 16.7596 141.417 17.3491 141.417 18.0432C141.417 18.7205 141.291 19.3016 141.04 19.7866C140.798 20.2716 140.463 20.6438 140.037 20.903C139.619 21.1622 139.15 21.2918 138.632 21.2918ZM138.343 20.2131C138.887 20.2131 139.309 20.0208 139.61 19.6361C139.92 19.2431 140.074 18.7079 140.074 18.0306C140.074 17.3533 139.924 16.8223 139.623 16.4376C139.322 16.053 138.9 15.8607 138.356 15.8607C138.005 15.8607 137.7 15.9526 137.44 16.1366C137.181 16.3122 136.976 16.5631 136.826 16.8892C136.684 17.2153 136.613 17.6041 136.613 18.0557C136.613 18.4989 136.684 18.8835 136.826 19.2097C136.968 19.5274 137.169 19.7741 137.428 19.9497C137.695 20.1253 138.001 20.2131 138.343 20.2131ZM144.439 12.0726V19.4104C144.439 19.7197 144.493 19.933 144.602 20.05C144.711 20.1671 144.89 20.2257 145.141 20.2257C145.292 20.2257 145.417 20.2173 145.518 20.2006C145.626 20.1755 145.76 20.1337 145.919 20.0751L145.768 21.0786C145.626 21.1455 145.463 21.1956 145.279 21.2291C145.095 21.2709 144.911 21.2918 144.727 21.2918C144.167 21.2918 143.753 21.1497 143.486 20.8653C143.226 20.5727 143.097 20.1253 143.097 19.5232V12.0726H144.439ZM149.801 21.2918C149.174 21.2918 148.622 21.1622 148.146 20.903C147.669 20.6438 147.297 20.2716 147.029 19.7866C146.77 19.2933 146.64 18.7079 146.64 18.0306C146.64 17.3533 146.77 16.7721 147.029 16.2871C147.297 15.7938 147.665 15.4175 148.133 15.1582C148.601 14.899 149.132 14.7694 149.726 14.7694C150.336 14.7694 150.855 14.8948 151.281 15.1457C151.708 15.3966 152.034 15.7394 152.26 16.1742C152.485 16.6091 152.598 17.1024 152.598 17.6543C152.598 17.8048 152.594 17.947 152.586 18.0808C152.577 18.2146 152.565 18.3316 152.548 18.432H147.506V17.4035H151.959L151.294 17.6041C151.294 17.0355 151.152 16.6007 150.867 16.2997C150.583 15.9903 150.194 15.8356 149.701 15.8356C149.341 15.8356 149.028 15.9192 148.76 16.0864C148.493 16.2537 148.288 16.5045 148.146 16.839C148.003 17.1651 147.932 17.5665 147.932 18.0432C147.932 18.5114 148.008 18.9086 148.158 19.2347C148.309 19.5609 148.522 19.8075 148.798 19.9748C149.074 20.142 149.4 20.2257 149.776 20.2257C150.194 20.2257 150.533 20.1462 150.792 19.9873C151.051 19.8285 151.256 19.6069 151.407 19.3225L152.473 19.8243C152.322 20.1253 152.118 20.3887 151.858 20.6145C151.607 20.8319 151.306 20.9991 150.955 21.1162C150.604 21.2333 150.219 21.2918 149.801 21.2918ZM154.293 21.1664V14.8948H155.485L155.548 15.9485C155.765 15.5471 156.053 15.2502 156.413 15.0579C156.781 14.8656 157.17 14.7694 157.58 14.7694C158.031 14.7694 158.445 14.8739 158.821 15.083C159.206 15.2837 159.494 15.5889 159.687 15.9986C159.821 15.7227 160.005 15.4927 160.239 15.3088C160.473 15.1248 160.732 14.991 161.016 14.9074C161.301 14.8154 161.581 14.7694 161.857 14.7694C162.258 14.7694 162.634 14.853 162.986 15.0203C163.337 15.1875 163.621 15.4426 163.839 15.7854C164.056 16.1282 164.165 16.5673 164.165 17.1024V21.1664H162.823V17.3157C162.823 16.8056 162.701 16.4376 162.459 16.2119C162.216 15.9861 161.907 15.8732 161.531 15.8732C161.238 15.8732 160.966 15.9443 160.715 16.0864C160.473 16.2286 160.276 16.4418 160.126 16.7261C159.975 17.0021 159.9 17.3449 159.9 17.7547V21.1664H158.558V17.3157C158.558 16.8056 158.437 16.4376 158.194 16.2119C157.952 15.9861 157.642 15.8732 157.266 15.8732C157.015 15.8732 156.764 15.9401 156.513 16.0739C156.263 16.2077 156.053 16.4167 155.886 16.701C155.719 16.9854 155.635 17.3616 155.635 17.8299V21.1664H154.293ZM168.583 21.2918C167.955 21.2918 167.383 21.1706 166.864 20.9281C166.346 20.6856 165.936 20.3427 165.635 19.8995L166.563 19.0968C166.747 19.4396 167.011 19.7156 167.353 19.9246C167.705 20.1253 168.123 20.2257 168.608 20.2257C168.992 20.2257 169.298 20.1588 169.523 20.025C169.749 19.8912 169.862 19.703 169.862 19.4605C169.862 19.3016 169.808 19.1637 169.699 19.0466C169.599 18.9212 169.402 18.825 169.109 18.7581L167.792 18.4822C167.123 18.3484 166.647 18.1351 166.362 17.8425C166.078 17.5414 165.936 17.161 165.936 16.701C165.936 16.3582 166.036 16.0404 166.237 15.7478C166.438 15.4551 166.73 15.221 167.115 15.0454C167.508 14.8614 167.976 14.7694 168.52 14.7694C169.147 14.7694 169.682 14.8823 170.125 15.1081C170.569 15.3255 170.907 15.6391 171.141 16.0488L170.213 16.8265C170.054 16.492 169.82 16.2453 169.511 16.0864C169.201 15.9192 168.879 15.8356 168.545 15.8356C168.277 15.8356 168.047 15.869 167.855 15.9359C167.663 16.0028 167.516 16.0948 167.416 16.2119C167.316 16.3289 167.266 16.4669 167.266 16.6258C167.266 16.793 167.328 16.9394 167.454 17.0648C167.579 17.1902 167.805 17.2864 168.131 17.3533L169.561 17.6543C170.163 17.7714 170.585 17.9721 170.828 18.2564C171.079 18.5323 171.204 18.871 171.204 19.2724C171.204 19.6738 171.1 20.0291 170.89 20.3385C170.681 20.6396 170.38 20.8737 169.987 21.041C169.594 21.2082 169.126 21.2918 168.583 21.2918ZM179.551 21.2918C178.774 21.2918 178.096 21.1204 177.519 20.7775C176.951 20.4263 176.562 19.9372 176.353 19.31L177.657 18.6954C177.733 18.9964 177.85 19.2557 178.009 19.4731C178.167 19.6905 178.377 19.8577 178.636 19.9748C178.895 20.0835 179.217 20.1378 179.602 20.1378C179.928 20.1378 180.204 20.0793 180.429 19.9622C180.655 19.8452 180.827 19.6821 180.944 19.4731C181.069 19.264 181.132 19.0257 181.132 18.7581C181.132 18.4822 181.077 18.2522 180.969 18.0682C180.868 17.8843 180.705 17.7505 180.48 17.6669C180.262 17.5832 179.982 17.5414 179.639 17.5414C179.539 17.5414 179.434 17.5456 179.326 17.554C179.225 17.554 179.117 17.5623 179 17.5791V16.4502C179.075 16.4585 179.146 16.4669 179.213 16.4753C179.288 16.4753 179.359 16.4753 179.426 16.4753C179.97 16.4753 180.358 16.3666 180.592 16.1491C180.827 15.9317 180.944 15.5931 180.944 15.1332C180.944 14.7401 180.822 14.4391 180.58 14.2301C180.346 14.021 180.007 13.9165 179.564 13.9165C179.104 13.9165 178.744 14.0252 178.485 14.2426C178.234 14.4517 178.042 14.7569 177.908 15.1582L176.679 14.644C176.796 14.2593 176.993 13.9248 177.269 13.6405C177.545 13.3562 177.883 13.1388 178.285 12.9883C178.694 12.8294 179.142 12.75 179.627 12.75C180.22 12.75 180.714 12.8461 181.107 13.0385C181.508 13.2308 181.805 13.4942 181.997 13.8287C182.198 14.1632 182.298 14.5353 182.298 14.945C182.298 15.2628 182.252 15.5429 182.16 15.7854C182.068 16.0195 181.943 16.2244 181.784 16.4C181.634 16.5673 181.466 16.6969 181.282 16.7888C181.107 16.8808 180.927 16.9435 180.743 16.977V17.0021C180.985 17.0104 181.207 17.0606 181.408 17.1526C181.617 17.2362 181.801 17.3575 181.96 17.5163C182.127 17.6669 182.257 17.8508 182.349 18.0682C182.44 18.2857 182.486 18.524 182.486 18.7832C182.486 19.2849 182.361 19.7239 182.11 20.1002C181.859 20.4765 181.512 20.7692 181.069 20.9782C180.634 21.1873 180.128 21.2918 179.551 21.2918ZM191.971 17.1401C191.971 16.7219 191.854 16.4 191.62 16.1742C191.394 15.9401 191.08 15.823 190.679 15.823C190.302 15.823 189.981 15.9108 189.713 16.0864C189.445 16.262 189.249 16.5463 189.123 16.9394L187.995 16.4627C188.153 15.9526 188.463 15.5429 188.923 15.2335C189.391 14.9241 189.993 14.7694 190.729 14.7694C191.231 14.7694 191.674 14.853 192.059 15.0203C192.443 15.1792 192.744 15.4216 192.962 15.7478C193.187 16.0739 193.3 16.492 193.3 17.0021V19.7992C193.3 20.1086 193.455 20.2633 193.764 20.2633C193.915 20.2633 194.061 20.2424 194.203 20.2006L194.128 21.1288C193.936 21.2207 193.693 21.2667 193.401 21.2667C193.133 21.2667 192.891 21.2207 192.673 21.1288C192.464 21.0284 192.297 20.8821 192.171 20.6897C192.054 20.4891 191.996 20.2424 191.996 19.9497V19.8619L192.272 19.8494C192.196 20.1755 192.042 20.4472 191.808 20.6647C191.574 20.8737 191.302 21.0326 190.992 21.1413C190.683 21.2416 190.369 21.2918 190.052 21.2918C189.659 21.2918 189.303 21.2291 188.985 21.1037C188.676 20.9782 188.429 20.7901 188.245 20.5392C188.07 20.28 187.982 19.9622 187.982 19.586C187.982 19.1177 188.133 18.733 188.434 18.432C188.743 18.131 189.178 17.9261 189.738 17.8174L192.171 17.3407L192.159 18.2815L190.39 18.6452C190.039 18.7121 189.776 18.8083 189.6 18.9337C189.424 19.0591 189.337 19.2431 189.337 19.4856C189.337 19.7197 189.424 19.9079 189.6 20.05C189.784 20.1838 190.027 20.2507 190.328 20.2507C190.537 20.2507 190.737 20.2257 190.93 20.1755C191.13 20.1253 191.31 20.0459 191.469 19.9372C191.628 19.8201 191.749 19.6738 191.833 19.4982C191.925 19.3142 191.971 19.0968 191.971 18.8459V17.1401ZM195.499 21.1664V14.8948H196.691L196.779 16.5254L196.603 16.3498C196.72 15.9903 196.887 15.6934 197.105 15.4593C197.331 15.2168 197.594 15.0412 197.895 14.9325C198.204 14.8238 198.53 14.7694 198.873 14.7694C199.317 14.7694 199.714 14.8572 200.065 15.0328C200.425 15.2001 200.709 15.4551 200.918 15.7979C201.127 16.1408 201.231 16.5756 201.231 17.1024V21.1664H199.889V17.5163C199.889 16.8976 199.76 16.4711 199.5 16.237C199.25 15.9945 198.932 15.8732 198.547 15.8732C198.271 15.8732 198.004 15.9401 197.744 16.0739C197.485 16.1993 197.268 16.4042 197.092 16.6885C196.925 16.9728 196.841 17.3533 196.841 17.8299V21.1664H195.499ZM205.673 21.2918C205.155 21.2918 204.683 21.1622 204.256 20.903C203.838 20.6438 203.508 20.2716 203.265 19.7866C203.023 19.3016 202.901 18.7205 202.901 18.0432C202.901 17.3407 203.031 16.747 203.29 16.262C203.549 15.777 203.897 15.4091 204.331 15.1582C204.766 14.899 205.243 14.7694 205.761 14.7694C206.296 14.7694 206.748 14.9157 207.116 15.2084C207.484 15.5011 207.731 15.8816 207.856 16.3498L207.705 16.4878V12.0726H209.048V21.1664H207.856L207.756 19.4605L207.931 19.4731C207.873 19.8494 207.735 20.1755 207.517 20.4514C207.3 20.719 207.028 20.9281 206.702 21.0786C206.384 21.2207 206.041 21.2918 205.673 21.2918ZM205.962 20.2131C206.322 20.2131 206.631 20.1211 206.89 19.9372C207.149 19.7532 207.35 19.494 207.492 19.1595C207.634 18.825 207.705 18.4236 207.705 17.9554C207.705 17.5205 207.634 17.1484 207.492 16.839C207.35 16.5213 207.149 16.2788 206.89 16.1115C206.639 15.9443 206.347 15.8607 206.012 15.8607C205.452 15.8607 205.017 16.053 204.708 16.4376C204.398 16.8223 204.244 17.3533 204.244 18.0306C204.244 18.7079 204.394 19.2431 204.695 19.6361C204.996 20.0208 205.418 20.2131 205.962 20.2131ZM218.758 21.1664V19.0968H214.719V18.1811C214.736 18.1393 214.761 18.0891 214.794 18.0306C214.836 17.9721 214.882 17.9052 214.932 17.8299L218.381 12.8879H220.025V18.0557H221.429V19.0968H220.025V21.1664H218.758ZM215.973 18.0557H218.758V15.1332C218.758 14.9325 218.762 14.7276 218.77 14.5185C218.787 14.3011 218.8 14.0879 218.808 13.8789H218.783C218.691 14.0795 218.57 14.3011 218.419 14.5436C218.277 14.7778 218.143 14.9826 218.018 15.1582L216.061 17.9428C216.044 17.9595 216.028 17.9763 216.011 17.993C216.002 18.0097 215.99 18.0306 215.973 18.0557ZM234.785 14.8948H236.24L234.133 21.1664H232.666L231.085 16.5129L229.593 21.1664H228.125L226.03 14.8948H227.473L228.903 19.8494L230.458 14.8948H231.8L233.355 19.8494L234.785 14.8948ZM238.216 13.8412C237.923 13.8412 237.697 13.7701 237.538 13.628C237.388 13.4775 237.312 13.2684 237.312 13.0008C237.312 12.7332 237.388 12.5284 237.538 12.3862C237.697 12.2441 237.923 12.173 238.216 12.173C238.5 12.173 238.717 12.2441 238.868 12.3862C239.027 12.5284 239.106 12.7332 239.106 13.0008C239.106 13.2684 239.027 13.4775 238.868 13.628C238.717 13.7701 238.5 13.8412 238.216 13.8412ZM238.88 14.8948V21.1664H237.538V14.8948H238.88ZM242.811 13.051V19.2849C242.811 19.5943 242.891 19.8201 243.05 19.9622C243.217 20.1044 243.439 20.1755 243.715 20.1755C243.94 20.1755 244.137 20.142 244.304 20.0751C244.471 19.9999 244.626 19.8995 244.768 19.7741L245.069 20.7525C244.877 20.9197 244.639 21.0535 244.354 21.1538C244.078 21.2458 243.769 21.2918 243.426 21.2918C243.066 21.2918 242.736 21.2333 242.435 21.1162C242.134 20.9991 241.9 20.811 241.733 20.5518C241.566 20.2842 241.478 19.9372 241.469 19.5107V13.4273L242.811 13.051ZM244.969 14.8948V15.9485H240.265V14.8948H244.969ZM246.345 21.1664V12.0726H247.687V15.8983C247.896 15.5053 248.177 15.221 248.528 15.0454C248.887 14.8614 249.285 14.7694 249.719 14.7694C250.163 14.7694 250.56 14.8572 250.911 15.0328C251.271 15.2001 251.555 15.4551 251.764 15.7979C251.973 16.1408 252.077 16.5756 252.077 17.1024V21.1664H250.735V17.5289C250.735 16.9101 250.606 16.4794 250.347 16.237C250.096 15.9945 249.778 15.8732 249.393 15.8732C249.126 15.8732 248.858 15.9401 248.59 16.0739C248.331 16.1993 248.114 16.4084 247.938 16.701C247.771 16.9854 247.687 17.37 247.687 17.855V21.1664H246.345ZM27.2395 29.051V35.2849C27.2395 35.5943 27.3189 35.8201 27.4778 35.9622C27.645 36.1044 27.8666 36.1755 28.1426 36.1755C28.3684 36.1755 28.5649 36.142 28.7321 36.0751C28.8993 35.9999 29.054 35.8995 29.1962 35.7741L29.4972 36.7525C29.3049 36.9197 29.0666 37.0535 28.7823 37.1538C28.5063 37.2458 28.1969 37.2918 27.8541 37.2918C27.4945 37.2918 27.1642 37.2333 26.8632 37.1162C26.5622 36.9991 26.328 36.811 26.1608 36.5518C25.9935 36.2842 25.9057 35.9372 25.8974 35.5107V29.4273L27.2395 29.051ZM29.3969 30.8948V31.9485H24.6932V30.8948H29.3969ZM30.7733 37.1664V28.0726H32.1154V31.8983C32.3245 31.5053 32.6046 31.221 32.9558 31.0454C33.3154 30.8614 33.7126 30.7694 34.1474 30.7694C34.5906 30.7694 34.9878 30.8572 35.339 31.0328C35.6985 31.2001 35.9829 31.4551 36.1919 31.7979C36.401 32.1408 36.5055 32.5756 36.5055 33.1024V37.1664H35.1634V33.5289C35.1634 32.9101 35.0338 32.4794 34.7745 32.237C34.5237 31.9945 34.2059 31.8732 33.8213 31.8732C33.5537 31.8732 33.2861 31.9401 33.0185 32.0739C32.7593 32.1993 32.5419 32.4084 32.3663 32.701C32.199 32.9854 32.1154 33.37 32.1154 33.855V37.1664H30.7733ZM41.2987 37.2918C40.6715 37.2918 40.1197 37.1622 39.643 36.903C39.1664 36.6438 38.7943 36.2716 38.5267 35.7866C38.2675 35.2933 38.1378 34.7079 38.1378 34.0306C38.1378 33.3533 38.2675 32.7721 38.5267 32.2871C38.7943 31.7938 39.1622 31.4175 39.6305 31.1582C40.0987 30.899 40.6297 30.7694 41.2234 30.7694C41.8339 30.7694 42.3523 30.8948 42.7788 31.1457C43.2053 31.3966 43.5314 31.7394 43.7571 32.1742C43.9829 32.6091 44.0958 33.1024 44.0958 33.6543C44.0958 33.8048 44.0916 33.947 44.0833 34.0808C44.0749 34.2146 44.0624 34.3316 44.0456 34.432H39.0033V33.4035H43.4561L42.7913 33.6041C42.7913 33.0355 42.6492 32.6007 42.3649 32.2997C42.0806 31.9903 41.6917 31.8356 41.1984 31.8356C40.8388 31.8356 40.5252 31.9192 40.2576 32.0864C39.99 32.2537 39.7852 32.5045 39.643 32.839C39.5009 33.1651 39.4298 33.5665 39.4298 34.0432C39.4298 34.5114 39.505 34.9086 39.6556 35.2347C39.8061 35.5609 40.0193 35.8075 40.2953 35.9748C40.5712 36.142 40.8973 36.2257 41.2736 36.2257C41.6917 36.2257 42.0304 36.1462 42.2896 35.9873C42.5488 35.8285 42.7537 35.6069 42.9042 35.3225L43.9704 35.8243C43.8199 36.1253 43.615 36.3887 43.3558 36.6145C43.1049 36.8319 42.8039 36.9991 42.4527 37.1162C42.1015 37.2333 41.7168 37.2918 41.2987 37.2918ZM51.5049 29.051V35.2849C51.5049 35.5943 51.5844 35.8201 51.7433 35.9622C51.9105 36.1044 52.1321 36.1755 52.4081 36.1755C52.6338 36.1755 52.8303 36.142 52.9976 36.0751C53.1648 35.9999 53.3195 35.8995 53.4617 35.7741L53.7627 36.7525C53.5704 36.9197 53.3321 37.0535 53.0477 37.1538C52.7718 37.2458 52.4624 37.2918 52.1196 37.2918C51.76 37.2918 51.4297 37.2333 51.1287 37.1162C50.8276 36.9991 50.5935 36.811 50.4262 36.5518C50.259 36.2842 50.1712 35.9372 50.1628 35.5107V29.4273L51.5049 29.051ZM53.6624 30.8948V31.9485H48.9587V30.8948H53.6624ZM55.6671 29.8412C55.3744 29.8412 55.1487 29.7701 54.9898 29.628C54.8393 29.4775 54.764 29.2684 54.764 29.0008C54.764 28.7332 54.8393 28.5284 54.9898 28.3862C55.1487 28.2441 55.3744 28.173 55.6671 28.173C55.9514 28.173 56.1688 28.2441 56.3193 28.3862C56.4782 28.5284 56.5577 28.7332 56.5577 29.0008C56.5577 29.2684 56.4782 29.4775 56.3193 29.628C56.1688 29.7701 55.9514 29.8412 55.6671 29.8412ZM56.3319 30.8948V37.1664H54.9898V30.8948H56.3319ZM58.4318 37.1664V30.8948H59.6234L59.6861 31.9485C59.9035 31.5471 60.192 31.2502 60.5516 31.0579C60.9195 30.8656 61.3083 30.7694 61.7181 30.7694C62.1696 30.7694 62.5835 30.8739 62.9598 31.083C63.3445 31.2837 63.633 31.5889 63.8253 31.9986C63.9591 31.7227 64.1431 31.4927 64.3772 31.3088C64.6113 31.1248 64.8706 30.991 65.1549 30.9074C65.4392 30.8154 65.7193 30.7694 65.9952 30.7694C66.3966 30.7694 66.7729 30.853 67.1241 31.0203C67.4753 31.1875 67.7596 31.4426 67.9771 31.7854C68.1945 32.1282 68.3032 32.5673 68.3032 33.1024V37.1664H66.9611V33.3157C66.9611 32.8056 66.8398 32.4376 66.5973 32.2119C66.3548 31.9861 66.0454 31.8732 65.6691 31.8732C65.3765 31.8732 65.1047 31.9443 64.8538 32.0864C64.6113 32.2286 64.4148 32.4418 64.2643 32.7261C64.1138 33.0021 64.0385 33.3449 64.0385 33.7547V37.1664H62.6964V33.3157C62.6964 32.8056 62.5752 32.4376 62.3327 32.2119C62.0902 31.9861 61.7808 31.8732 61.4045 31.8732C61.1536 31.8732 60.9028 31.9401 60.6519 32.0739C60.401 32.2077 60.192 32.4167 60.0247 32.701C59.8575 32.9854 59.7739 33.3616 59.7739 33.8299V37.1664H58.4318ZM73.0974 37.2918C72.4702 37.2918 71.9183 37.1622 71.4417 36.903C70.9651 36.6438 70.5929 36.2716 70.3254 35.7866C70.0661 35.2933 69.9365 34.7079 69.9365 34.0306C69.9365 33.3533 70.0661 32.7721 70.3254 32.2871C70.5929 31.7938 70.9609 31.4175 71.4291 31.1582C71.8974 30.899 72.4284 30.7694 73.0221 30.7694C73.6326 30.7694 74.151 30.8948 74.5775 31.1457C75.0039 31.3966 75.33 31.7394 75.5558 32.1742C75.7816 32.6091 75.8945 33.1024 75.8945 33.6543C75.8945 33.8048 75.8903 33.947 75.8819 34.0808C75.8736 34.2146 75.861 34.3316 75.8443 34.432H70.802V33.4035H75.2548L74.59 33.6041C74.59 33.0355 74.4479 32.6007 74.1635 32.2997C73.8792 31.9903 73.4904 31.8356 72.997 31.8356C72.6375 31.8356 72.3239 31.9192 72.0563 32.0864C71.7887 32.2537 71.5838 32.5045 71.4417 32.839C71.2995 33.1651 71.2285 33.5665 71.2285 34.0432C71.2285 34.5114 71.3037 34.9086 71.4542 35.2347C71.6048 35.5609 71.818 35.8075 72.0939 35.9748C72.3699 36.142 72.696 36.2257 73.0723 36.2257C73.4904 36.2257 73.8291 36.1462 74.0883 35.9873C74.3475 35.8285 74.5524 35.6069 74.7029 35.3225L75.7691 35.8243C75.6185 36.1253 75.4137 36.3887 75.1544 36.6145C74.9036 36.8319 74.6025 36.9991 74.2513 37.1162C73.9001 37.2333 73.5155 37.2918 73.0974 37.2918ZM89.364 30.8948H90.819L88.7118 37.1664H87.2442L85.6638 32.5129L84.1712 37.1664H82.7036L80.6089 30.8948H82.0514L83.4813 35.8494L85.0366 30.8948H86.3787L87.9341 35.8494L89.364 30.8948ZM94.6925 37.2918C94.0654 37.2918 93.5135 37.1622 93.0369 36.903C92.5602 36.6438 92.1881 36.2716 91.9205 35.7866C91.6613 35.2933 91.5317 34.7079 91.5317 34.0306C91.5317 33.3533 91.6613 32.7721 91.9205 32.2871C92.1881 31.7938 92.556 31.4175 93.0243 31.1582C93.4926 30.899 94.0236 30.7694 94.6173 30.7694C95.2277 30.7694 95.7462 30.8948 96.1726 31.1457C96.5991 31.3966 96.9252 31.7394 97.151 32.1742C97.3768 32.6091 97.4897 33.1024 97.4897 33.6543C97.4897 33.8048 97.4855 33.947 97.4771 34.0808C97.4687 34.2146 97.4562 34.3316 97.4395 34.432H92.3972V33.4035H96.85L96.1852 33.6041C96.1852 33.0355 96.043 32.6007 95.7587 32.2997C95.4744 31.9903 95.0856 31.8356 94.5922 31.8356C94.2326 31.8356 93.9191 31.9192 93.6515 32.0864C93.3839 32.2537 93.179 32.5045 93.0369 32.839C92.8947 33.1651 92.8236 33.5665 92.8236 34.0432C92.8236 34.5114 92.8989 34.9086 93.0494 35.2347C93.1999 35.5609 93.4132 35.8075 93.6891 35.9748C93.965 36.142 94.2912 36.2257 94.6675 36.2257C95.0856 36.2257 95.4242 36.1462 95.6834 35.9873C95.9427 35.8285 96.1475 35.6069 96.2981 35.3225L97.3642 35.8243C97.2137 36.1253 97.0088 36.3887 96.7496 36.6145C96.4987 36.8319 96.1977 36.9991 95.8465 37.1162C95.4953 37.2333 95.1106 37.2918 94.6925 37.2918ZM103.263 37.1664V28.0726H104.606V31.8983C104.815 31.5053 105.095 31.221 105.446 31.0454C105.806 30.8614 106.203 30.7694 106.638 30.7694C107.081 30.7694 107.478 30.8572 107.829 31.0328C108.189 31.2001 108.473 31.4551 108.682 31.7979C108.891 32.1408 108.996 32.5756 108.996 33.1024V37.1664H107.654V33.5289C107.654 32.9101 107.524 32.4794 107.265 32.237C107.014 31.9945 106.696 31.8732 106.311 31.8732C106.044 31.8732 105.776 31.9401 105.509 32.0739C105.249 32.1993 105.032 32.4084 104.856 32.701C104.689 32.9854 104.606 33.37 104.606 33.855V37.1664H103.263ZM114.654 33.1401C114.654 32.7219 114.537 32.4 114.303 32.1742C114.077 31.9401 113.764 31.823 113.362 31.823C112.986 31.823 112.664 31.9108 112.397 32.0864C112.129 32.262 111.933 32.5463 111.807 32.9394L110.678 32.4627C110.837 31.9526 111.146 31.5429 111.606 31.2335C112.075 30.9241 112.677 30.7694 113.413 30.7694C113.914 30.7694 114.358 30.853 114.742 31.0203C115.127 31.1792 115.428 31.4216 115.645 31.7478C115.871 32.0739 115.984 32.492 115.984 33.0021V35.7992C115.984 36.1086 116.139 36.2633 116.448 36.2633C116.599 36.2633 116.745 36.2424 116.887 36.2006L116.812 37.1288C116.619 37.2207 116.377 37.2667 116.084 37.2667C115.817 37.2667 115.574 37.2207 115.357 37.1288C115.148 37.0284 114.98 36.8821 114.855 36.6897C114.738 36.4891 114.679 36.2424 114.679 35.9497V35.8619L114.955 35.8494C114.88 36.1755 114.725 36.4472 114.491 36.6647C114.257 36.8737 113.985 37.0326 113.676 37.1413C113.367 37.2416 113.053 37.2918 112.735 37.2918C112.342 37.2918 111.987 37.2291 111.669 37.1037C111.36 36.9782 111.113 36.7901 110.929 36.5392C110.753 36.28 110.666 35.9622 110.666 35.586C110.666 35.1177 110.816 34.733 111.117 34.432C111.427 34.131 111.861 33.9261 112.422 33.8174L114.855 33.3407L114.843 34.2815L113.074 34.6452C112.723 34.7121 112.459 34.8083 112.284 34.9337C112.108 35.0591 112.02 35.2431 112.02 35.4856C112.02 35.7197 112.108 35.9079 112.284 36.05C112.468 36.1838 112.71 36.2507 113.011 36.2507C113.22 36.2507 113.421 36.2257 113.613 36.1755C113.814 36.1253 113.994 36.0459 114.153 35.9372C114.312 35.8201 114.433 35.6738 114.516 35.4982C114.608 35.3142 114.654 35.0968 114.654 34.8459V33.1401ZM122.089 30.8948H123.494L120.998 37.1664H119.53L117.022 30.8948H118.489L120.27 35.9999L122.089 30.8948ZM127.361 37.2918C126.734 37.2918 126.182 37.1622 125.705 36.903C125.229 36.6438 124.856 36.2716 124.589 35.7866C124.33 35.2933 124.2 34.7079 124.2 34.0306C124.2 33.3533 124.33 32.7721 124.589 32.2871C124.856 31.7938 125.224 31.4175 125.693 31.1582C126.161 30.899 126.692 30.7694 127.286 30.7694C127.896 30.7694 128.415 30.8948 128.841 31.1457C129.267 31.3966 129.594 31.7394 129.819 32.1742C130.045 32.6091 130.158 33.1024 130.158 33.6543C130.158 33.8048 130.154 33.947 130.145 34.0808C130.137 34.2146 130.125 34.3316 130.108 34.432H125.066V33.4035H129.518L128.854 33.6041C128.854 33.0355 128.711 32.6007 128.427 32.2997C128.143 31.9903 127.754 31.8356 127.261 31.8356C126.901 31.8356 126.587 31.9192 126.32 32.0864C126.052 32.2537 125.847 32.5045 125.705 32.839C125.563 33.1651 125.492 33.5665 125.492 34.0432C125.492 34.5114 125.567 34.9086 125.718 35.2347C125.868 35.5609 126.082 35.8075 126.357 35.9748C126.633 36.142 126.96 36.2257 127.336 36.2257C127.754 36.2257 128.093 36.1462 128.352 35.9873C128.611 35.8285 128.816 35.6069 128.966 35.3225L130.033 35.8243C129.882 36.1253 129.677 36.3887 129.418 36.6145C129.167 36.8319 128.866 36.9991 128.515 37.1162C128.164 37.2333 127.779 37.2918 127.361 37.2918ZM133.27 28.8879V32.1993L133.095 34.5323H132.041L131.865 32.1993V28.8879H133.27ZM132.568 35.5107C132.852 35.5107 133.078 35.5943 133.245 35.7616C133.421 35.9204 133.509 36.1337 133.509 36.4013C133.509 36.6688 133.421 36.8821 133.245 37.041C133.078 37.1998 132.852 37.2793 132.568 37.2793C132.292 37.2793 132.066 37.1998 131.891 37.041C131.723 36.8821 131.64 36.6688 131.64 36.4013C131.64 36.1337 131.723 35.9204 131.891 35.7616C132.066 35.5943 132.292 35.5107 132.568 35.5107ZM146.434 28.8879V37.1664H145.079V28.8879H146.434ZM140.99 28.8879V37.1664H139.648V28.8879H140.99ZM145.756 32.4V33.554H140.325V32.4H145.756ZM151.332 30.7694C151.942 30.7694 152.481 30.899 152.95 31.1582C153.418 31.4175 153.782 31.7938 154.041 32.2871C154.308 32.7721 154.442 33.3533 154.442 34.0306C154.442 34.7079 154.308 35.2933 154.041 35.7866C153.782 36.2716 153.418 36.6438 152.95 36.903C152.481 37.1622 151.942 37.2918 151.332 37.2918C150.721 37.2918 150.182 37.1622 149.713 36.903C149.245 36.6438 148.877 36.2716 148.61 35.7866C148.342 35.2933 148.208 34.7079 148.208 34.0306C148.208 33.3533 148.342 32.7721 148.61 32.2871C148.877 31.7938 149.245 31.4175 149.713 31.1582C150.182 30.899 150.721 30.7694 151.332 30.7694ZM151.332 31.823C150.955 31.823 150.633 31.9108 150.366 32.0864C150.106 32.2537 149.906 32.5004 149.764 32.8265C149.621 33.1526 149.55 33.554 149.55 34.0306C149.55 34.4989 149.621 34.9003 149.764 35.2347C149.906 35.5609 150.106 35.8117 150.366 35.9873C150.633 36.1546 150.955 36.2382 151.332 36.2382C151.708 36.2382 152.026 36.1546 152.285 35.9873C152.544 35.8117 152.745 35.5609 152.887 35.2347C153.029 34.9003 153.1 34.4989 153.1 34.0306C153.1 33.554 153.029 33.1526 152.887 32.8265C152.745 32.5004 152.544 32.2537 152.285 32.0864C152.026 31.9108 151.708 31.823 151.332 31.823ZM163.924 30.8948H165.379L163.272 37.1664H161.805L160.224 32.5129L158.731 37.1664H157.264L155.169 30.8948H156.612L158.042 35.8494L159.597 30.8948H160.939L162.494 35.8494L163.924 30.8948ZM167.477 28.4364C167.711 28.4364 167.903 28.4949 168.054 28.612C168.213 28.7207 168.334 28.8754 168.418 29.0761C168.501 29.2684 168.543 29.49 168.543 29.7409C168.543 30.0503 168.485 30.3513 168.367 30.644C168.25 30.9283 168.079 31.1917 167.853 31.4342C167.636 31.6683 167.372 31.8607 167.063 32.0112L166.436 31.4718C166.662 31.3882 166.862 31.2795 167.038 31.1457C167.214 31.0119 167.36 30.8614 167.477 30.6942C167.602 30.5269 167.69 30.3555 167.74 30.1799L167.69 30.1548C167.648 30.1799 167.598 30.2008 167.54 30.2175C167.489 30.2342 167.414 30.2426 167.314 30.2426C167.197 30.2426 167.076 30.2133 166.95 30.1548C166.833 30.0879 166.733 29.9917 166.649 29.8663C166.565 29.7409 166.524 29.5778 166.524 29.3771C166.524 29.1932 166.565 29.0301 166.649 28.8879C166.741 28.7458 166.858 28.6371 167 28.5618C167.142 28.4782 167.301 28.4364 167.477 28.4364ZM171.963 37.2918C171.336 37.2918 170.763 37.1706 170.245 36.9281C169.726 36.6856 169.317 36.3427 169.016 35.8995L169.944 35.0968C170.128 35.4396 170.391 35.7156 170.734 35.9246C171.085 36.1253 171.503 36.2257 171.988 36.2257C172.373 36.2257 172.678 36.1588 172.904 36.025C173.13 35.8912 173.243 35.703 173.243 35.4605C173.243 35.3016 173.188 35.1637 173.08 35.0466C172.979 34.9212 172.783 34.825 172.49 34.7581L171.173 34.4822C170.504 34.3484 170.028 34.1351 169.743 33.8425C169.459 33.5414 169.317 33.161 169.317 32.701C169.317 32.3582 169.417 32.0404 169.618 31.7478C169.818 31.4551 170.111 31.221 170.496 31.0454C170.889 30.8614 171.357 30.7694 171.901 30.7694C172.528 30.7694 173.063 30.8823 173.506 31.1081C173.949 31.3255 174.288 31.6391 174.522 32.0488L173.594 32.8265C173.435 32.492 173.201 32.2453 172.892 32.0864C172.582 31.9192 172.26 31.8356 171.926 31.8356C171.658 31.8356 171.428 31.869 171.236 31.9359C171.043 32.0028 170.897 32.0948 170.797 32.2119C170.696 32.3289 170.646 32.4669 170.646 32.6258C170.646 32.793 170.709 32.9394 170.834 33.0648C170.96 33.1902 171.186 33.2864 171.512 33.3533L172.942 33.6543C173.544 33.7714 173.966 33.9721 174.209 34.2564C174.459 34.5323 174.585 34.871 174.585 35.2724C174.585 35.6738 174.48 36.0291 174.271 36.3385C174.062 36.6396 173.761 36.8737 173.368 37.041C172.975 37.2082 172.507 37.2918 171.963 37.2918ZM181.933 29.051V35.2849C181.933 35.5943 182.013 35.8201 182.172 35.9622C182.339 36.1044 182.561 36.1755 182.837 36.1755C183.062 36.1755 183.259 36.142 183.426 36.0751C183.593 35.9999 183.748 35.8995 183.89 35.7741L184.191 36.7525C183.999 36.9197 183.761 37.0535 183.476 37.1538C183.2 37.2458 182.891 37.2918 182.548 37.2918C182.188 37.2918 181.858 37.2333 181.557 37.1162C181.256 36.9991 181.022 36.811 180.855 36.5518C180.687 36.2842 180.6 35.9372 180.591 35.5107V29.4273L181.933 29.051ZM184.091 30.8948V31.9485H179.387V30.8948H184.091ZM185.467 37.1664V28.0726H186.809V31.8983C187.018 31.5053 187.299 31.221 187.65 31.0454C188.009 30.8614 188.406 30.7694 188.841 30.7694C189.285 30.7694 189.682 30.8572 190.033 31.0328C190.392 31.2001 190.677 31.4551 190.886 31.7979C191.095 32.1408 191.199 32.5756 191.199 33.1024V37.1664H189.857V33.5289C189.857 32.9101 189.728 32.4794 189.468 32.237C189.218 31.9945 188.9 31.8732 188.515 31.8732C188.248 31.8732 187.98 31.9401 187.712 32.0739C187.453 32.1993 187.236 32.4084 187.06 32.701C186.893 32.9854 186.809 33.37 186.809 33.855V37.1664H185.467ZM196.858 33.1401C196.858 32.7219 196.741 32.4 196.507 32.1742C196.281 31.9401 195.968 31.823 195.566 31.823C195.19 31.823 194.868 31.9108 194.6 32.0864C194.333 32.262 194.136 32.5463 194.011 32.9394L192.882 32.4627C193.041 31.9526 193.35 31.5429 193.81 31.2335C194.278 30.9241 194.88 30.7694 195.616 30.7694C196.118 30.7694 196.561 30.853 196.946 31.0203C197.331 31.1792 197.632 31.4216 197.849 31.7478C198.075 32.0739 198.188 32.492 198.188 33.0021V35.7992C198.188 36.1086 198.342 36.2633 198.652 36.2633C198.802 36.2633 198.949 36.2424 199.091 36.2006L199.016 37.1288C198.823 37.2207 198.581 37.2667 198.288 37.2667C198.02 37.2667 197.778 37.2207 197.561 37.1288C197.351 37.0284 197.184 36.8821 197.059 36.6897C196.942 36.4891 196.883 36.2424 196.883 35.9497V35.8619L197.159 35.8494C197.084 36.1755 196.929 36.4472 196.695 36.6647C196.461 36.8737 196.189 37.0326 195.88 37.1413C195.57 37.2416 195.257 37.2918 194.939 37.2918C194.546 37.2918 194.191 37.2291 193.873 37.1037C193.563 36.9782 193.317 36.7901 193.133 36.5392C192.957 36.28 192.869 35.9622 192.869 35.586C192.869 35.1177 193.02 34.733 193.321 34.432C193.63 34.131 194.065 33.9261 194.625 33.8174L197.059 33.3407L197.046 34.2815L195.278 34.6452C194.926 34.7121 194.663 34.8083 194.487 34.9337C194.312 35.0591 194.224 35.2431 194.224 35.4856C194.224 35.7197 194.312 35.9079 194.487 36.05C194.671 36.1838 194.914 36.2507 195.215 36.2507C195.424 36.2507 195.625 36.2257 195.817 36.1755C196.018 36.1253 196.198 36.0459 196.356 35.9372C196.515 35.8201 196.637 35.6738 196.72 35.4982C196.812 35.3142 196.858 35.0968 196.858 34.8459V33.1401ZM201.973 29.051V35.2849C201.973 35.5943 202.052 35.8201 202.211 35.9622C202.378 36.1044 202.6 36.1755 202.876 36.1755C203.102 36.1755 203.298 36.142 203.466 36.0751C203.633 35.9999 203.788 35.8995 203.93 35.7741L204.231 36.7525C204.038 36.9197 203.8 37.0535 203.516 37.1538C203.24 37.2458 202.93 37.2918 202.588 37.2918C202.228 37.2918 201.898 37.2333 201.597 37.1162C201.296 36.9991 201.061 36.811 200.894 36.5518C200.727 36.2842 200.639 35.9372 200.631 35.5107V29.4273L201.973 29.051ZM204.13 30.8948V31.9485H199.427V30.8948H204.13ZM211.92 37.2918C211.293 37.2918 210.72 37.1706 210.201 36.9281C209.683 36.6856 209.273 36.3427 208.972 35.8995L209.9 35.0968C210.084 35.4396 210.348 35.7156 210.691 35.9246C211.042 36.1253 211.46 36.2257 211.945 36.2257C212.33 36.2257 212.635 36.1588 212.861 36.025C213.086 35.8912 213.199 35.703 213.199 35.4605C213.199 35.3016 213.145 35.1637 213.036 35.0466C212.936 34.9212 212.739 34.825 212.447 34.7581L211.13 34.4822C210.461 34.3484 209.984 34.1351 209.7 33.8425C209.415 33.5414 209.273 33.161 209.273 32.701C209.273 32.3582 209.374 32.0404 209.574 31.7478C209.775 31.4551 210.068 31.221 210.452 31.0454C210.845 30.8614 211.314 30.7694 211.857 30.7694C212.484 30.7694 213.02 30.8823 213.463 31.1081C213.906 31.3255 214.245 31.6391 214.479 32.0488L213.55 32.8265C213.392 32.492 213.157 32.2453 212.848 32.0864C212.539 31.9192 212.217 31.8356 211.882 31.8356C211.615 31.8356 211.385 31.869 211.192 31.9359C211 32.0028 210.854 32.0948 210.753 32.2119C210.653 32.3289 210.603 32.4669 210.603 32.6258C210.603 32.793 210.666 32.9394 210.791 33.0648C210.916 33.1902 211.142 33.2864 211.468 33.3533L212.898 33.6543C213.5 33.7714 213.923 33.9721 214.165 34.2564C214.416 34.5323 214.541 34.871 214.541 35.2724C214.541 35.6738 214.437 36.0291 214.228 36.3385C214.019 36.6396 213.718 36.8737 213.325 37.041C212.932 37.2082 212.463 37.2918 211.92 37.2918ZM218.885 30.7694C219.496 30.7694 220.035 30.899 220.503 31.1582C220.972 31.4175 221.335 31.7938 221.595 32.2871C221.862 32.7721 221.996 33.3533 221.996 34.0306C221.996 34.7079 221.862 35.2933 221.595 35.7866C221.335 36.2716 220.972 36.6438 220.503 36.903C220.035 37.1622 219.496 37.2918 218.885 37.2918C218.275 37.2918 217.736 37.1622 217.267 36.903C216.799 36.6438 216.431 36.2716 216.163 35.7866C215.896 35.2933 215.762 34.7079 215.762 34.0306C215.762 33.3533 215.896 32.7721 216.163 32.2871C216.431 31.7938 216.799 31.4175 217.267 31.1582C217.736 30.899 218.275 30.7694 218.885 30.7694ZM218.885 31.823C218.509 31.823 218.187 31.9108 217.92 32.0864C217.66 32.2537 217.46 32.5004 217.317 32.8265C217.175 33.1526 217.104 33.554 217.104 34.0306C217.104 34.4989 217.175 34.9003 217.317 35.2347C217.46 35.5609 217.66 35.8117 217.92 35.9873C218.187 36.1546 218.509 36.2382 218.885 36.2382C219.262 36.2382 219.579 36.1546 219.839 35.9873C220.098 35.8117 220.299 35.5609 220.441 35.2347C220.583 34.9003 220.654 34.4989 220.654 34.0306C220.654 33.554 220.583 33.1526 220.441 32.8265C220.299 32.5004 220.098 32.2537 219.839 32.0864C219.579 31.9108 219.262 31.823 218.885 31.823ZM225.917 37.2918C225.507 37.2918 225.127 37.2166 224.776 37.066C224.433 36.9155 224.157 36.673 223.948 36.3385C223.739 36.0041 223.634 35.5692 223.634 35.0341V30.8948H224.976V34.6954C224.976 35.264 225.098 35.657 225.34 35.8744C225.583 36.0835 225.921 36.188 226.356 36.188C226.565 36.188 226.766 36.1546 226.958 36.0877C227.159 36.0124 227.339 35.8995 227.498 35.749C227.656 35.5901 227.778 35.3894 227.861 35.1469C227.953 34.9044 227.999 34.6201 227.999 34.294V30.8948H229.341V37.1664H228.162L228.1 36.1504C227.882 36.5434 227.59 36.8319 227.222 37.0159C226.854 37.1998 226.419 37.2918 225.917 37.2918ZM231.438 37.1664V30.8948H232.63L232.718 32.5254L232.542 32.3498C232.659 31.9903 232.826 31.6934 233.044 31.4593C233.269 31.2168 233.533 31.0412 233.834 30.9325C234.143 30.8238 234.469 30.7694 234.812 30.7694C235.255 30.7694 235.653 30.8572 236.004 31.0328C236.363 31.2001 236.648 31.4551 236.857 31.7979C237.066 32.1408 237.17 32.5756 237.17 33.1024V37.1664H235.828V33.5163C235.828 32.8976 235.699 32.4711 235.439 32.237C235.188 31.9945 234.871 31.8732 234.486 31.8732C234.21 31.8732 233.943 31.9401 233.683 32.0739C233.424 32.1993 233.207 32.4042 233.031 32.6885C232.864 32.9728 232.78 33.3533 232.78 33.8299V37.1664H231.438ZM241.612 37.2918C241.094 37.2918 240.621 37.1622 240.195 36.903C239.777 36.6438 239.447 36.2716 239.204 35.7866C238.962 35.3016 238.84 34.7205 238.84 34.0432C238.84 33.3407 238.97 32.747 239.229 32.262C239.488 31.777 239.835 31.4091 240.27 31.1582C240.705 30.899 241.182 30.7694 241.7 30.7694C242.235 30.7694 242.687 30.9157 243.055 31.2084C243.423 31.5011 243.669 31.8816 243.795 32.3498L243.644 32.4878V28.0726H244.986V37.1664H243.795L243.694 35.4605L243.87 35.4731C243.812 35.8494 243.674 36.1755 243.456 36.4514C243.239 36.719 242.967 36.9281 242.641 37.0786C242.323 37.2207 241.98 37.2918 241.612 37.2918ZM241.901 36.2131C242.26 36.2131 242.57 36.1211 242.829 35.9372C243.088 35.7532 243.289 35.494 243.431 35.1595C243.573 34.825 243.644 34.4236 243.644 33.9554C243.644 33.5205 243.573 33.1484 243.431 32.839C243.289 32.5213 243.088 32.2788 242.829 32.1115C242.578 31.9443 242.285 31.8607 241.951 31.8607C241.391 31.8607 240.956 32.053 240.646 32.4376C240.337 32.8223 240.182 33.3533 240.182 34.0306C240.182 34.7079 240.333 35.2431 240.634 35.6361C240.935 36.0208 241.357 36.2131 241.901 36.2131ZM249.577 28.7625C250.154 28.7625 250.655 28.8503 251.082 29.0259C251.517 29.2015 251.855 29.4566 252.098 29.791C252.349 30.1172 252.474 30.5185 252.474 30.9952C252.474 31.4885 252.365 31.8983 252.148 32.2244C251.939 32.5422 251.655 32.7847 251.295 32.9519C250.935 33.1108 250.538 33.2153 250.103 33.2655L250.066 34.5323H248.774V32.6383C249.368 32.5631 249.827 32.4627 250.154 32.3373C250.48 32.2119 250.71 32.0572 250.843 31.8732C250.977 31.6809 251.044 31.4509 251.044 31.1833C251.044 30.9241 250.986 30.7025 250.869 30.5185C250.76 30.3262 250.588 30.1841 250.354 30.0921C250.128 29.9917 249.84 29.9416 249.489 29.9416C248.995 29.9416 248.594 30.0795 248.285 30.3555C247.975 30.6314 247.791 31.0161 247.733 31.5095L246.491 30.945C246.583 30.5102 246.763 30.1297 247.03 29.8036C247.298 29.4775 247.645 29.2224 248.071 29.0385C248.498 28.8545 249 28.7625 249.577 28.7625ZM249.414 35.5107C249.698 35.5107 249.924 35.5943 250.091 35.7616C250.266 35.9204 250.354 36.1337 250.354 36.4013C250.354 36.6688 250.266 36.8821 250.091 37.041C249.924 37.1998 249.698 37.2793 249.414 37.2793C249.138 37.2793 248.912 37.1998 248.736 37.041C248.569 36.8821 248.485 36.6688 248.485 36.4013C248.485 36.1337 248.569 35.9204 248.736 35.7616C248.912 35.5943 249.138 35.5107 249.414 35.5107Z" fill="black"/>
</svg>
