<svg width="259" height="82" viewBox="0 0 259 82" fill="none" xmlns="http://www.w3.org/2000/svg">
<path fill-rule="evenodd" clip-rule="evenodd" d="M32 4.90039C14.3269 4.90039 0 19.2273 0 36.9004C0 54.5735 14.3269 68.9004 32 68.9004H215.546C218.795 72.7475 226.645 78.9611 239.269 81.1339C236.223 78.8548 230.747 73.8728 228.27 68.8756C245.355 68.2086 259 54.148 259 36.9004C259 19.2273 244.673 4.90039 227 4.90039H32Z" fill="#E5E5E5"/>
<mask id="path-2-inside-1_1432_1397" fill="white">
<path fill-rule="evenodd" clip-rule="evenodd" d="M32 0C14.3269 0 0 14.3269 0 32C0 49.6731 14.3269 64 32 64H215.546C218.795 67.8472 226.645 74.0607 239.269 76.2335C236.223 73.9544 230.747 68.9724 228.27 63.9752C245.355 63.3082 259 49.2476 259 32C259 14.3269 244.673 0 227 0H32Z"/>
</mask>
<path fill-rule="evenodd" clip-rule="evenodd" d="M32 0C14.3269 0 0 14.3269 0 32C0 49.6731 14.3269 64 32 64H215.546C218.795 67.8472 226.645 74.0607 239.269 76.2335C236.223 73.9544 230.747 68.9724 228.27 63.9752C245.355 63.3082 259 49.2476 259 32C259 14.3269 244.673 0 227 0H32Z" fill="white"/>
<path d="M215.546 64L215.961 63.6493L215.798 63.4565H215.546V64ZM239.269 76.2335L239.177 76.7692L239.595 75.7983L239.269 76.2335ZM228.27 63.9752L228.249 63.4321L227.411 63.4649L227.783 64.2166L228.27 63.9752ZM0 32H0.543533C0.543533 14.6271 14.6271 0.543533 32 0.543533V0V-0.543533C14.0267 -0.543533 -0.543533 14.0267 -0.543533 32H0ZM32 64V63.4565C14.6271 63.4565 0.543533 49.3729 0.543533 32H0H-0.543533C-0.543533 49.9733 14.0267 64.5435 32 64.5435V64ZM215.546 64V63.4565H32V64V64.5435H215.546V64ZM239.269 76.2335L239.361 75.6978C226.869 73.5479 219.132 67.404 215.961 63.6493L215.546 64L215.13 64.3507C218.458 68.2903 226.42 74.5735 239.177 76.7692L239.269 76.2335ZM228.27 63.9752L227.783 64.2166C230.318 69.3293 235.876 74.3734 238.943 76.6687L239.269 76.2335L239.595 75.7983C236.57 73.5354 231.177 68.6156 228.757 63.7339L228.27 63.9752ZM259 32H258.456C258.456 48.9546 245.043 62.7765 228.249 63.4321L228.27 63.9752L228.292 64.5184C245.666 63.84 259.544 49.5407 259.544 32H259ZM227 0V0.543533C244.373 0.543533 258.456 14.6271 258.456 32H259H259.544C259.544 14.0267 244.973 -0.543533 227 -0.543533V0ZM32 0V0.543533H227V0V-0.543533H32V0Z" fill="#DADDDD" mask="url(#path-2-inside-1_1432_1397)"/>
<path d="M26.0781 28.12C25.4461 28.12 24.8701 27.992 24.3501 27.736C23.8301 27.472 23.4181 27.088 23.1141 26.584C22.8101 26.072 22.6581 25.448 22.6581 24.712C22.6581 24.096 22.7461 23.508 22.9221 22.948C23.0981 22.38 23.3621 21.872 23.7141 21.424C24.0661 20.976 24.4981 20.62 25.0101 20.356C25.5301 20.092 26.1261 19.96 26.7981 19.96C27.3261 19.96 27.7941 20.048 28.2021 20.224C28.6181 20.392 28.9661 20.648 29.2461 20.992C29.5261 21.336 29.7301 21.768 29.8581 22.288L28.5501 22.66C28.4461 22.1 28.2421 21.696 27.9381 21.448C27.6341 21.2 27.2261 21.076 26.7141 21.076C26.2661 21.076 25.8701 21.184 25.5261 21.4C25.1901 21.608 24.9061 21.884 24.6741 22.228C24.4501 22.564 24.2781 22.944 24.1581 23.368C24.0461 23.784 23.9901 24.204 23.9901 24.628C23.9901 25.124 24.0821 25.548 24.2661 25.9C24.4581 26.252 24.7181 26.524 25.0461 26.716C25.3741 26.908 25.7461 27.004 26.1621 27.004C26.6501 27.004 27.0341 26.896 27.3141 26.68C27.6021 26.464 27.8421 26.172 28.0341 25.804L29.2341 26.332C28.9061 26.876 28.4901 27.312 27.9861 27.64C27.4821 27.96 26.8461 28.12 26.0781 28.12ZM32.6643 28.096C32.2243 28.096 31.8323 27.992 31.4883 27.784C31.1443 27.568 30.8763 27.268 30.6843 26.884C30.4923 26.5 30.3963 26.048 30.3963 25.528C30.3963 25.04 30.4683 24.576 30.6123 24.136C30.7643 23.696 30.9723 23.308 31.2363 22.972C31.5083 22.628 31.8283 22.36 32.1963 22.168C32.5723 21.976 32.9803 21.88 33.4203 21.88C33.7483 21.88 34.0443 21.936 34.3083 22.048C34.5803 22.16 34.8083 22.324 34.9923 22.54C35.1763 22.756 35.3003 23.02 35.3643 23.332L35.6763 22H36.9603L35.5683 28H34.4283L34.6323 26.884C34.4323 27.252 34.1563 27.548 33.8043 27.772C33.4603 27.988 33.0803 28.096 32.6643 28.096ZM33.1083 27.076C33.3643 27.076 33.6043 27.008 33.8283 26.872C34.0603 26.736 34.2603 26.548 34.4283 26.308C34.6043 26.068 34.7403 25.792 34.8363 25.48C34.9403 25.16 34.9923 24.828 34.9923 24.484C34.9923 24.164 34.9323 23.888 34.8123 23.656C34.7003 23.416 34.5403 23.232 34.3323 23.104C34.1323 22.976 33.8923 22.912 33.6123 22.912C33.3163 22.912 33.0483 22.98 32.8083 23.116C32.5763 23.252 32.3723 23.44 32.1963 23.68C32.0283 23.912 31.8963 24.184 31.8003 24.496C31.7043 24.8 31.6563 25.12 31.6563 25.456C31.6563 25.8 31.7123 26.092 31.8243 26.332C31.9363 26.572 32.1003 26.756 32.3163 26.884C32.5323 27.012 32.7963 27.076 33.1083 27.076ZM37.4906 28L38.8826 22H40.0106L39.7586 23.512L39.6386 23.428C39.8066 22.916 40.1026 22.532 40.5266 22.276C40.9506 22.012 41.4186 21.88 41.9306 21.88C42.3786 21.88 42.7586 21.98 43.0706 22.18C43.3826 22.372 43.6026 22.652 43.7306 23.02C43.8586 23.38 43.8626 23.82 43.7426 24.34L42.8906 28H41.6066L42.4466 24.4C42.5506 23.944 42.5066 23.588 42.3146 23.332C42.1226 23.068 41.8186 22.936 41.4026 22.936C41.0826 22.936 40.7946 23.008 40.5386 23.152C40.2906 23.296 40.0826 23.508 39.9146 23.788C39.7466 24.06 39.6106 24.404 39.5066 24.82L38.7746 28H37.4906ZM48.3304 30.58C48.0104 30.58 47.7304 30.544 47.4904 30.472C47.2504 30.4 47.0544 30.3 46.9024 30.172L47.3464 29.176C47.6184 29.424 47.9344 29.548 48.2944 29.548C48.5344 29.548 48.7464 29.484 48.9304 29.356C49.1224 29.228 49.3064 29.028 49.4824 28.756L49.9504 28L48.8944 22H50.1784L50.6104 25.372L50.8024 26.86L51.5944 25.444L53.5504 22H54.9664L50.6344 28.972C50.4024 29.356 50.1624 29.664 49.9144 29.896C49.6744 30.136 49.4224 30.308 49.1584 30.412C48.8944 30.524 48.6184 30.58 48.3304 30.58ZM57.8957 28.108C57.3037 28.108 56.7997 27.988 56.3837 27.748C55.9757 27.508 55.6597 27.184 55.4357 26.776C55.2117 26.36 55.0997 25.904 55.0997 25.408C55.0997 24.728 55.2317 24.124 55.4957 23.596C55.7677 23.068 56.1397 22.652 56.6117 22.348C57.0917 22.044 57.6557 21.892 58.3037 21.892C58.8957 21.892 59.3957 22.012 59.8037 22.252C60.2197 22.492 60.5357 22.816 60.7517 23.224C60.9677 23.632 61.0757 24.088 61.0757 24.592C61.0757 25.256 60.9437 25.856 60.6797 26.392C60.4237 26.92 60.0557 27.34 59.5757 27.652C59.0957 27.956 58.5357 28.108 57.8957 28.108ZM57.9197 27.1C58.1837 27.1 58.4277 27.036 58.6517 26.908C58.8837 26.78 59.0837 26.6 59.2517 26.368C59.4277 26.136 59.5597 25.868 59.6477 25.564C59.7437 25.252 59.7917 24.92 59.7917 24.568C59.7917 24.248 59.7357 23.964 59.6237 23.716C59.5197 23.468 59.3517 23.272 59.1197 23.128C58.8957 22.976 58.6117 22.9 58.2677 22.9C58.0037 22.9 57.7557 22.964 57.5237 23.092C57.2917 23.22 57.0917 23.4 56.9237 23.632C56.7557 23.856 56.6237 24.124 56.5277 24.436C56.4317 24.74 56.3837 25.072 56.3837 25.432C56.3837 25.736 56.4397 26.016 56.5517 26.272C56.6637 26.528 56.8317 26.732 57.0557 26.884C57.2877 27.028 57.5757 27.1 57.9197 27.1ZM64.1933 28.096C63.7613 28.096 63.3813 28 63.0533 27.808C62.7333 27.616 62.5013 27.34 62.3573 26.98C62.2213 26.62 62.2133 26.184 62.3333 25.672L63.1853 22H64.4693L63.6413 25.564C63.5293 26.044 63.5733 26.412 63.7733 26.668C63.9813 26.916 64.2893 27.04 64.6973 27.04C65.0173 27.04 65.2973 26.972 65.5373 26.836C65.7853 26.692 65.9933 26.484 66.1613 26.212C66.3293 25.932 66.4573 25.588 66.5453 25.18L67.2893 22H68.5733L67.1813 28H66.0413L66.2933 26.488L66.4133 26.584C66.2533 27.088 65.9693 27.468 65.5613 27.724C65.1613 27.972 64.7053 28.096 64.1933 28.096ZM72.3755 30.52L74.3435 22H75.4835L75.1835 23.644L75.0395 23.728C75.1355 23.344 75.2915 23.016 75.5075 22.744C75.7315 22.472 76.0035 22.264 76.3235 22.12C76.6515 21.976 76.9995 21.904 77.3675 21.904C77.7755 21.904 78.1395 22.004 78.4595 22.204C78.7875 22.404 79.0435 22.696 79.2275 23.08C79.4195 23.456 79.5155 23.912 79.5155 24.448C79.5155 24.952 79.4395 25.428 79.2875 25.876C79.1355 26.316 78.9235 26.704 78.6515 27.04C78.3795 27.376 78.0595 27.64 77.6915 27.832C77.3315 28.024 76.9355 28.12 76.5035 28.12C76.1275 28.12 75.7875 28.048 75.4835 27.904C75.1875 27.76 74.9515 27.548 74.7755 27.268C74.5995 26.98 74.4995 26.64 74.4755 26.248L74.6795 26.056L73.6595 30.52H72.3755ZM76.3355 27.088C76.5995 27.088 76.8475 27.024 77.0795 26.896C77.3115 26.76 77.5155 26.572 77.6915 26.332C77.8675 26.092 78.0035 25.82 78.0995 25.516C78.1955 25.204 78.2435 24.872 78.2435 24.52C78.2435 24.176 78.1835 23.888 78.0635 23.656C77.9515 23.416 77.7875 23.236 77.5715 23.116C77.3635 22.988 77.1195 22.924 76.8395 22.924C76.5515 22.924 76.2915 22.992 76.0595 23.128C75.8275 23.264 75.6235 23.452 75.4475 23.692C75.2795 23.924 75.1475 24.2 75.0515 24.52C74.9635 24.84 74.9195 25.18 74.9195 25.54C74.9195 26.004 75.0395 26.38 75.2795 26.668C75.5195 26.948 75.8715 27.088 76.3355 27.088ZM82.9378 28.096C82.4978 28.096 82.1058 27.992 81.7618 27.784C81.4178 27.568 81.1498 27.268 80.9578 26.884C80.7658 26.5 80.6698 26.048 80.6698 25.528C80.6698 25.04 80.7418 24.576 80.8857 24.136C81.0378 23.696 81.2458 23.308 81.5098 22.972C81.7818 22.628 82.1018 22.36 82.4698 22.168C82.8458 21.976 83.2538 21.88 83.6938 21.88C84.0218 21.88 84.3178 21.936 84.5818 22.048C84.8538 22.16 85.0818 22.324 85.2658 22.54C85.4498 22.756 85.5738 23.02 85.6378 23.332L85.9498 22H87.2338L85.8418 28H84.7018L84.9058 26.884C84.7058 27.252 84.4298 27.548 84.0778 27.772C83.7338 27.988 83.3538 28.096 82.9378 28.096ZM83.3818 27.076C83.6378 27.076 83.8778 27.008 84.1018 26.872C84.3338 26.736 84.5338 26.548 84.7018 26.308C84.8778 26.068 85.0138 25.792 85.1098 25.48C85.2138 25.16 85.2658 24.828 85.2658 24.484C85.2658 24.164 85.2058 23.888 85.0858 23.656C84.9738 23.416 84.8138 23.232 84.6058 23.104C84.4058 22.976 84.1658 22.912 83.8858 22.912C83.5898 22.912 83.3218 22.98 83.0818 23.116C82.8498 23.252 82.6458 23.44 82.4698 23.68C82.3018 23.912 82.1698 24.184 82.0738 24.496C81.9778 24.8 81.9298 25.12 81.9298 25.456C81.9298 25.8 81.9858 26.092 82.0978 26.332C82.2098 26.572 82.3738 26.756 82.5898 26.884C82.8058 27.012 83.0698 27.076 83.3818 27.076ZM90.536 28.132C90.08 28.132 89.66 28.064 89.276 27.928C88.9 27.792 88.572 27.596 88.292 27.34C88.012 27.084 87.792 26.784 87.632 26.44L88.604 25.852C88.772 26.26 89.016 26.576 89.336 26.8C89.664 27.016 90.056 27.124 90.512 27.124C90.88 27.124 91.164 27.052 91.364 26.908C91.564 26.764 91.664 26.572 91.664 26.332C91.664 26.156 91.608 26.016 91.496 25.912C91.384 25.8 91.212 25.712 90.98 25.648L90.02 25.36C89.492 25.216 89.1 25.004 88.844 24.724C88.596 24.436 88.472 24.104 88.472 23.728C88.472 23.368 88.568 23.052 88.76 22.78C88.952 22.5 89.228 22.28 89.588 22.12C89.948 21.96 90.372 21.88 90.86 21.88C91.444 21.88 91.96 22 92.408 22.24C92.856 22.48 93.184 22.828 93.392 23.284L92.468 23.908C92.38 23.7 92.256 23.52 92.096 23.368C91.936 23.216 91.748 23.096 91.532 23.008C91.324 22.92 91.092 22.876 90.836 22.876C90.444 22.876 90.152 22.944 89.96 23.08C89.768 23.208 89.672 23.384 89.672 23.608C89.672 23.808 89.748 23.96 89.9 24.064C90.052 24.168 90.232 24.252 90.44 24.316L91.604 24.664C92.02 24.784 92.344 24.976 92.576 25.24C92.808 25.496 92.924 25.8 92.924 26.152C92.924 26.56 92.824 26.912 92.624 27.208C92.424 27.504 92.144 27.732 91.784 27.892C91.424 28.052 91.008 28.132 90.536 28.132ZM96.5209 28.096C96.1049 28.096 95.7489 28.02 95.4529 27.868C95.1649 27.708 94.9609 27.476 94.8409 27.172C94.7209 26.868 94.7089 26.5 94.8049 26.068L96.0409 20.692L97.4209 20.308L96.0649 26.08C95.9849 26.432 96.0329 26.688 96.2089 26.848C96.3849 27 96.6129 27.076 96.8929 27.076C97.0849 27.076 97.2489 27.052 97.3849 27.004C97.5289 26.956 97.6569 26.892 97.7689 26.812L97.8649 27.76C97.6569 27.888 97.4409 27.976 97.2169 28.024C97.0009 28.072 96.7689 28.096 96.5209 28.096ZM94.3249 23.008L94.5529 22H98.8129L98.5849 23.008H94.3249ZM101.957 28.108C101.389 28.108 100.901 27.992 100.493 27.76C100.085 27.52 99.7691 27.196 99.5451 26.788C99.3211 26.38 99.2091 25.92 99.2091 25.408C99.2091 24.768 99.3371 24.184 99.5931 23.656C99.8491 23.12 100.221 22.692 100.709 22.372C101.197 22.052 101.785 21.892 102.473 21.892C102.985 21.892 103.425 21.996 103.793 22.204C104.161 22.412 104.441 22.704 104.633 23.08C104.825 23.448 104.921 23.88 104.921 24.376C104.921 24.536 104.909 24.7 104.885 24.868C104.869 25.036 104.833 25.204 104.777 25.372H99.9411V24.388H104.081L103.613 24.724C103.645 24.628 103.665 24.536 103.673 24.448C103.681 24.352 103.685 24.264 103.685 24.184C103.685 23.92 103.633 23.692 103.529 23.5C103.433 23.308 103.289 23.16 103.097 23.056C102.905 22.952 102.677 22.9 102.413 22.9C102.053 22.9 101.745 22.976 101.489 23.128C101.241 23.272 101.041 23.472 100.889 23.728C100.737 23.976 100.629 24.252 100.565 24.556C100.501 24.86 100.469 25.16 100.469 25.456C100.469 25.792 100.533 26.084 100.661 26.332C100.797 26.572 100.981 26.76 101.213 26.896C101.453 27.032 101.733 27.1 102.053 27.1C102.429 27.1 102.733 27.02 102.965 26.86C103.205 26.7 103.397 26.496 103.541 26.248L104.573 26.8C104.413 27.072 104.201 27.308 103.937 27.508C103.681 27.7 103.385 27.848 103.049 27.952C102.721 28.056 102.357 28.108 101.957 28.108ZM112.083 28.096C111.667 28.096 111.311 28.02 111.015 27.868C110.727 27.708 110.523 27.476 110.403 27.172C110.283 26.868 110.271 26.5 110.367 26.068L111.603 20.692L112.983 20.308L111.627 26.08C111.547 26.432 111.595 26.688 111.771 26.848C111.947 27 112.175 27.076 112.455 27.076C112.647 27.076 112.811 27.052 112.947 27.004C113.091 26.956 113.219 26.892 113.331 26.812L113.427 27.76C113.219 27.888 113.003 27.976 112.779 28.024C112.563 28.072 112.331 28.096 112.083 28.096ZM109.887 23.008L110.115 22H114.375L114.147 23.008H109.887ZM114.448 28L116.464 19.3H117.748L116.836 23.248L116.644 23.392C116.748 23.072 116.912 22.8 117.136 22.576C117.36 22.352 117.62 22.18 117.916 22.06C118.22 21.94 118.548 21.88 118.9 21.88C119.332 21.88 119.704 21.98 120.016 22.18C120.328 22.372 120.548 22.648 120.676 23.008C120.812 23.368 120.824 23.804 120.712 24.316L119.848 28H118.564L119.404 24.4C119.508 23.944 119.464 23.588 119.272 23.332C119.08 23.068 118.776 22.936 118.36 22.936C118.04 22.936 117.752 23.008 117.496 23.152C117.248 23.296 117.04 23.508 116.872 23.788C116.704 24.06 116.568 24.404 116.464 24.82L115.732 28H114.448ZM124.703 28.108C124.135 28.108 123.647 27.992 123.239 27.76C122.831 27.52 122.515 27.196 122.291 26.788C122.067 26.38 121.955 25.92 121.955 25.408C121.955 24.768 122.083 24.184 122.339 23.656C122.595 23.12 122.967 22.692 123.455 22.372C123.943 22.052 124.531 21.892 125.219 21.892C125.731 21.892 126.171 21.996 126.539 22.204C126.907 22.412 127.187 22.704 127.379 23.08C127.571 23.448 127.667 23.88 127.667 24.376C127.667 24.536 127.655 24.7 127.631 24.868C127.615 25.036 127.579 25.204 127.523 25.372H122.687V24.388H126.827L126.359 24.724C126.391 24.628 126.411 24.536 126.419 24.448C126.427 24.352 126.431 24.264 126.431 24.184C126.431 23.92 126.379 23.692 126.275 23.5C126.179 23.308 126.035 23.16 125.843 23.056C125.651 22.952 125.423 22.9 125.159 22.9C124.799 22.9 124.491 22.976 124.235 23.128C123.987 23.272 123.787 23.472 123.635 23.728C123.483 23.976 123.375 24.252 123.311 24.556C123.247 24.86 123.215 25.16 123.215 25.456C123.215 25.792 123.279 26.084 123.407 26.332C123.543 26.572 123.727 26.76 123.959 26.896C124.199 27.032 124.479 27.1 124.799 27.1C125.175 27.1 125.479 27.02 125.711 26.86C125.951 26.7 126.143 26.496 126.287 26.248L127.319 26.8C127.159 27.072 126.947 27.308 126.683 27.508C126.427 27.7 126.131 27.848 125.795 27.952C125.467 28.056 125.103 28.108 124.703 28.108ZM134.765 20.992C134.525 20.992 134.333 20.928 134.189 20.8C134.045 20.672 133.981 20.496 133.997 20.272C134.005 19.992 134.093 19.776 134.261 19.624C134.429 19.472 134.641 19.396 134.897 19.396C135.145 19.396 135.337 19.46 135.473 19.588C135.617 19.708 135.685 19.876 135.677 20.092C135.661 20.388 135.569 20.612 135.401 20.764C135.233 20.916 135.021 20.992 134.765 20.992ZM135.065 22L133.673 28H132.389L133.781 22H135.065ZM135.588 28L136.98 22H138.108L137.856 23.512L137.736 23.428C137.904 22.916 138.2 22.532 138.624 22.276C139.048 22.012 139.516 21.88 140.028 21.88C140.476 21.88 140.856 21.98 141.168 22.18C141.48 22.372 141.7 22.652 141.828 23.02C141.956 23.38 141.96 23.82 141.84 24.34L140.988 28H139.704L140.544 24.4C140.648 23.944 140.604 23.588 140.412 23.332C140.22 23.068 139.916 22.936 139.5 22.936C139.18 22.936 138.892 23.008 138.636 23.152C138.388 23.296 138.18 23.508 138.012 23.788C137.844 24.06 137.708 24.404 137.604 24.82L136.872 28H135.588ZM145.544 28.132C145.088 28.132 144.668 28.064 144.284 27.928C143.908 27.792 143.58 27.596 143.3 27.34C143.02 27.084 142.8 26.784 142.64 26.44L143.612 25.852C143.78 26.26 144.024 26.576 144.344 26.8C144.672 27.016 145.064 27.124 145.52 27.124C145.888 27.124 146.172 27.052 146.372 26.908C146.572 26.764 146.672 26.572 146.672 26.332C146.672 26.156 146.616 26.016 146.504 25.912C146.392 25.8 146.22 25.712 145.988 25.648L145.028 25.36C144.5 25.216 144.108 25.004 143.852 24.724C143.604 24.436 143.48 24.104 143.48 23.728C143.48 23.368 143.576 23.052 143.768 22.78C143.96 22.5 144.236 22.28 144.596 22.12C144.956 21.96 145.38 21.88 145.868 21.88C146.452 21.88 146.968 22 147.416 22.24C147.864 22.48 148.192 22.828 148.4 23.284L147.476 23.908C147.388 23.7 147.264 23.52 147.104 23.368C146.944 23.216 146.756 23.096 146.54 23.008C146.332 22.92 146.1 22.876 145.844 22.876C145.452 22.876 145.16 22.944 144.968 23.08C144.776 23.208 144.68 23.384 144.68 23.608C144.68 23.808 144.756 23.96 144.908 24.064C145.06 24.168 145.24 24.252 145.448 24.316L146.612 24.664C147.028 24.784 147.352 24.976 147.584 25.24C147.816 25.496 147.932 25.8 147.932 26.152C147.932 26.56 147.832 26.912 147.632 27.208C147.432 27.504 147.152 27.732 146.792 27.892C146.432 28.052 146.016 28.132 145.544 28.132ZM151.529 28.096C151.113 28.096 150.757 28.02 150.461 27.868C150.173 27.708 149.969 27.476 149.849 27.172C149.729 26.868 149.717 26.5 149.813 26.068L151.049 20.692L152.429 20.308L151.073 26.08C150.993 26.432 151.041 26.688 151.217 26.848C151.393 27 151.621 27.076 151.901 27.076C152.093 27.076 152.257 27.052 152.393 27.004C152.537 26.956 152.665 26.892 152.777 26.812L152.873 27.76C152.665 27.888 152.449 27.976 152.225 28.024C152.009 28.072 151.777 28.096 151.529 28.096ZM149.333 23.008L149.561 22H153.821L153.593 23.008H149.333ZM153.858 28L155.25 22H156.33L156.138 23.62L156.006 23.5C156.134 23.164 156.306 22.876 156.522 22.636C156.746 22.396 157.002 22.212 157.29 22.084C157.578 21.948 157.878 21.88 158.19 21.88C158.318 21.88 158.43 21.888 158.526 21.904C158.63 21.92 158.718 21.948 158.79 21.988L158.442 23.14C158.362 23.1 158.27 23.072 158.166 23.056C158.07 23.032 157.946 23.02 157.794 23.02C157.506 23.02 157.234 23.088 156.978 23.224C156.722 23.352 156.498 23.552 156.306 23.824C156.114 24.096 155.966 24.452 155.862 24.892L155.142 28H153.858ZM160.978 28.096C160.546 28.096 160.166 28 159.838 27.808C159.518 27.616 159.286 27.34 159.142 26.98C159.006 26.62 158.998 26.184 159.118 25.672L159.97 22H161.254L160.426 25.564C160.314 26.044 160.358 26.412 160.558 26.668C160.766 26.916 161.074 27.04 161.482 27.04C161.802 27.04 162.082 26.972 162.322 26.836C162.57 26.692 162.778 26.484 162.946 26.212C163.114 25.932 163.242 25.588 163.33 25.18L164.074 22H165.358L163.966 28H162.826L163.078 26.488L163.198 26.584C163.038 27.088 162.754 27.468 162.346 27.724C161.946 27.972 161.49 28.096 160.978 28.096ZM168.977 28.108C168.401 28.108 167.905 27.988 167.489 27.748C167.081 27.508 166.765 27.184 166.541 26.776C166.325 26.36 166.217 25.9 166.217 25.396C166.217 24.716 166.349 24.116 166.613 23.596C166.885 23.068 167.261 22.652 167.741 22.348C168.229 22.044 168.801 21.892 169.457 21.892C169.937 21.892 170.357 21.976 170.717 22.144C171.085 22.304 171.377 22.532 171.593 22.828C171.817 23.124 171.953 23.46 172.001 23.836L170.717 24.1C170.701 23.764 170.585 23.48 170.369 23.248C170.161 23.016 169.841 22.9 169.409 22.9C169.129 22.9 168.873 22.968 168.641 23.104C168.409 23.232 168.205 23.412 168.029 23.644C167.861 23.868 167.729 24.136 167.633 24.448C167.545 24.752 167.501 25.08 167.501 25.432C167.501 25.752 167.561 26.04 167.681 26.296C167.801 26.544 167.973 26.74 168.197 26.884C168.429 27.028 168.713 27.1 169.049 27.1C169.329 27.1 169.593 27.024 169.841 26.872C170.089 26.712 170.265 26.484 170.369 26.188L171.569 26.608C171.353 27.088 171.017 27.46 170.561 27.724C170.105 27.98 169.577 28.108 168.977 28.108ZM175.037 28.096C174.621 28.096 174.265 28.02 173.969 27.868C173.681 27.708 173.477 27.476 173.357 27.172C173.237 26.868 173.225 26.5 173.321 26.068L174.557 20.692L175.937 20.308L174.581 26.08C174.501 26.432 174.549 26.688 174.725 26.848C174.901 27 175.129 27.076 175.409 27.076C175.601 27.076 175.765 27.052 175.901 27.004C176.045 26.956 176.173 26.892 176.285 26.812L176.381 27.76C176.173 27.888 175.957 27.976 175.733 28.024C175.517 28.072 175.285 28.096 175.037 28.096ZM172.841 23.008L173.069 22H177.329L177.101 23.008H172.841ZM179.73 20.992C179.49 20.992 179.298 20.928 179.154 20.8C179.01 20.672 178.946 20.496 178.962 20.272C178.97 19.992 179.058 19.776 179.226 19.624C179.394 19.472 179.606 19.396 179.862 19.396C180.11 19.396 180.302 19.46 180.438 19.588C180.582 19.708 180.65 19.876 180.642 20.092C180.626 20.388 180.534 20.612 180.366 20.764C180.198 20.916 179.986 20.992 179.73 20.992ZM180.03 22L178.638 28H177.354L178.746 22H180.03ZM183.673 28.108C183.081 28.108 182.577 27.988 182.161 27.748C181.753 27.508 181.437 27.184 181.213 26.776C180.989 26.36 180.877 25.904 180.877 25.408C180.877 24.728 181.009 24.124 181.273 23.596C181.545 23.068 181.917 22.652 182.389 22.348C182.869 22.044 183.433 21.892 184.081 21.892C184.673 21.892 185.173 22.012 185.581 22.252C185.997 22.492 186.313 22.816 186.529 23.224C186.745 23.632 186.853 24.088 186.853 24.592C186.853 25.256 186.721 25.856 186.457 26.392C186.201 26.92 185.833 27.34 185.353 27.652C184.873 27.956 184.313 28.108 183.673 28.108ZM183.697 27.1C183.961 27.1 184.205 27.036 184.429 26.908C184.661 26.78 184.861 26.6 185.029 26.368C185.205 26.136 185.337 25.868 185.425 25.564C185.521 25.252 185.569 24.92 185.569 24.568C185.569 24.248 185.513 23.964 185.401 23.716C185.297 23.468 185.129 23.272 184.897 23.128C184.673 22.976 184.389 22.9 184.045 22.9C183.781 22.9 183.533 22.964 183.301 23.092C183.069 23.22 182.869 23.4 182.701 23.632C182.533 23.856 182.401 24.124 182.305 24.436C182.209 24.74 182.161 25.072 182.161 25.432C182.161 25.736 182.217 26.016 182.329 26.272C182.441 26.528 182.609 26.732 182.833 26.884C183.065 27.028 183.353 27.1 183.697 27.1ZM187.702 28L189.094 22H190.222L189.97 23.512L189.85 23.428C190.018 22.916 190.314 22.532 190.738 22.276C191.162 22.012 191.63 21.88 192.142 21.88C192.59 21.88 192.97 21.98 193.282 22.18C193.594 22.372 193.814 22.652 193.942 23.02C194.07 23.38 194.074 23.82 193.954 24.34L193.102 28H191.818L192.658 24.4C192.762 23.944 192.718 23.588 192.526 23.332C192.334 23.068 192.03 22.936 191.614 22.936C191.294 22.936 191.006 23.008 190.75 23.152C190.502 23.296 190.294 23.508 190.126 23.788C189.958 24.06 189.822 24.404 189.718 24.82L188.986 28H187.702ZM197.657 28.132C197.201 28.132 196.781 28.064 196.397 27.928C196.021 27.792 195.693 27.596 195.413 27.34C195.133 27.084 194.913 26.784 194.753 26.44L195.725 25.852C195.893 26.26 196.137 26.576 196.457 26.8C196.785 27.016 197.177 27.124 197.633 27.124C198.001 27.124 198.285 27.052 198.485 26.908C198.685 26.764 198.785 26.572 198.785 26.332C198.785 26.156 198.729 26.016 198.617 25.912C198.505 25.8 198.333 25.712 198.101 25.648L197.141 25.36C196.613 25.216 196.221 25.004 195.965 24.724C195.717 24.436 195.593 24.104 195.593 23.728C195.593 23.368 195.689 23.052 195.881 22.78C196.073 22.5 196.349 22.28 196.709 22.12C197.069 21.96 197.493 21.88 197.981 21.88C198.565 21.88 199.081 22 199.529 22.24C199.977 22.48 200.305 22.828 200.513 23.284L199.589 23.908C199.501 23.7 199.377 23.52 199.217 23.368C199.057 23.216 198.869 23.096 198.653 23.008C198.445 22.92 198.213 22.876 197.957 22.876C197.565 22.876 197.273 22.944 197.081 23.08C196.889 23.208 196.793 23.384 196.793 23.608C196.793 23.808 196.869 23.96 197.021 24.064C197.173 24.168 197.353 24.252 197.561 24.316L198.725 24.664C199.141 24.784 199.465 24.976 199.697 25.24C199.929 25.496 200.045 25.8 200.045 26.152C200.045 26.56 199.945 26.912 199.745 27.208C199.545 27.504 199.265 27.732 198.905 27.892C198.545 28.052 198.129 28.132 197.657 28.132ZM208.036 28.108C207.444 28.108 206.94 27.988 206.524 27.748C206.116 27.508 205.8 27.184 205.576 26.776C205.352 26.36 205.24 25.904 205.24 25.408C205.24 24.728 205.372 24.124 205.636 23.596C205.908 23.068 206.28 22.652 206.752 22.348C207.232 22.044 207.796 21.892 208.444 21.892C209.036 21.892 209.536 22.012 209.944 22.252C210.36 22.492 210.676 22.816 210.892 23.224C211.108 23.632 211.216 24.088 211.216 24.592C211.216 25.256 211.084 25.856 210.82 26.392C210.564 26.92 210.196 27.34 209.716 27.652C209.236 27.956 208.676 28.108 208.036 28.108ZM208.06 27.1C208.324 27.1 208.568 27.036 208.792 26.908C209.024 26.78 209.224 26.6 209.392 26.368C209.568 26.136 209.7 25.868 209.788 25.564C209.884 25.252 209.932 24.92 209.932 24.568C209.932 24.248 209.876 23.964 209.764 23.716C209.66 23.468 209.492 23.272 209.26 23.128C209.036 22.976 208.752 22.9 208.408 22.9C208.144 22.9 207.896 22.964 207.664 23.092C207.432 23.22 207.232 23.4 207.064 23.632C206.896 23.856 206.764 24.124 206.668 24.436C206.572 24.74 206.524 25.072 206.524 25.432C206.524 25.736 206.58 26.016 206.692 26.272C206.804 26.528 206.972 26.732 207.196 26.884C207.428 27.028 207.716 27.1 208.06 27.1ZM212.065 28L213.457 22H214.537L214.345 23.62L214.213 23.5C214.341 23.164 214.513 22.876 214.729 22.636C214.953 22.396 215.209 22.212 215.497 22.084C215.785 21.948 216.085 21.88 216.397 21.88C216.525 21.88 216.637 21.888 216.733 21.904C216.837 21.92 216.925 21.948 216.997 21.988L216.649 23.14C216.569 23.1 216.477 23.072 216.373 23.056C216.277 23.032 216.153 23.02 216.001 23.02C215.713 23.02 215.441 23.088 215.185 23.224C214.929 23.352 214.705 23.552 214.513 23.824C214.321 24.096 214.173 24.452 214.069 24.892L213.349 28H212.065ZM222.896 28.096C222.48 28.096 222.124 28.02 221.828 27.868C221.54 27.708 221.336 27.476 221.216 27.172C221.096 26.868 221.084 26.5 221.18 26.068L222.416 20.692L223.796 20.308L222.44 26.08C222.36 26.432 222.408 26.688 222.584 26.848C222.76 27 222.988 27.076 223.268 27.076C223.46 27.076 223.624 27.052 223.76 27.004C223.904 26.956 224.032 26.892 224.144 26.812L224.24 27.76C224.032 27.888 223.816 27.976 223.592 28.024C223.376 28.072 223.144 28.096 222.896 28.096ZM220.7 23.008L220.928 22H225.188L224.96 23.008H220.7ZM228.332 28.108C227.764 28.108 227.276 27.992 226.868 27.76C226.46 27.52 226.144 27.196 225.92 26.788C225.696 26.38 225.584 25.92 225.584 25.408C225.584 24.768 225.712 24.184 225.968 23.656C226.224 23.12 226.596 22.692 227.084 22.372C227.572 22.052 228.16 21.892 228.848 21.892C229.36 21.892 229.8 21.996 230.168 22.204C230.536 22.412 230.816 22.704 231.008 23.08C231.2 23.448 231.296 23.88 231.296 24.376C231.296 24.536 231.284 24.7 231.26 24.868C231.244 25.036 231.208 25.204 231.152 25.372H226.316V24.388H230.456L229.988 24.724C230.02 24.628 230.04 24.536 230.048 24.448C230.056 24.352 230.06 24.264 230.06 24.184C230.06 23.92 230.008 23.692 229.904 23.5C229.808 23.308 229.664 23.16 229.472 23.056C229.28 22.952 229.052 22.9 228.788 22.9C228.428 22.9 228.12 22.976 227.864 23.128C227.616 23.272 227.416 23.472 227.264 23.728C227.112 23.976 227.004 24.252 226.94 24.556C226.876 24.86 226.844 25.16 226.844 25.456C226.844 25.792 226.908 26.084 227.036 26.332C227.172 26.572 227.356 26.76 227.588 26.896C227.828 27.032 228.108 27.1 228.428 27.1C228.804 27.1 229.108 27.02 229.34 26.86C229.58 26.7 229.772 26.496 229.916 26.248L230.948 26.8C230.788 27.072 230.576 27.308 230.312 27.508C230.056 27.7 229.76 27.848 229.424 27.952C229.096 28.056 228.732 28.108 228.332 28.108ZM233.962 28.096C233.362 28.096 232.942 27.92 232.702 27.568C232.462 27.216 232.41 26.752 232.546 26.176L234.142 19.3H235.426L233.83 26.188C233.75 26.5 233.77 26.728 233.89 26.872C234.01 27.008 234.218 27.076 234.514 27.076C234.626 27.076 234.722 27.072 234.802 27.064C234.89 27.056 234.966 27.044 235.03 27.028L234.754 27.964C234.626 28.012 234.502 28.044 234.382 28.06C234.27 28.084 234.13 28.096 233.962 28.096ZM237.689 28.096C237.089 28.096 236.669 27.92 236.429 27.568C236.189 27.216 236.137 26.752 236.273 26.176L237.869 19.3H239.153L237.557 26.188C237.477 26.5 237.497 26.728 237.617 26.872C237.737 27.008 237.945 27.076 238.241 27.076C238.353 27.076 238.449 27.072 238.529 27.064C238.617 27.056 238.693 27.044 238.757 27.028L238.481 27.964C238.353 28.012 238.229 28.044 238.109 28.06C237.997 28.084 237.857 28.096 237.689 28.096ZM28.9124 43L30.3044 37H31.4324L31.1804 38.512L31.0604 38.428C31.2284 37.916 31.5204 37.532 31.9364 37.276C32.3524 37.012 32.8164 36.88 33.3284 36.88C33.7524 36.88 34.1164 36.98 34.4204 37.18C34.7244 37.372 34.9364 37.652 35.0564 38.02C35.1844 38.388 35.1844 38.832 35.0564 39.352L34.2044 43H32.9204L33.7604 39.424C33.8724 38.96 33.8364 38.596 33.6524 38.332C33.4764 38.068 33.1924 37.936 32.8004 37.936C32.4804 37.936 32.1964 38.008 31.9484 38.152C31.7004 38.296 31.4924 38.508 31.3244 38.788C31.1644 39.06 31.0324 39.404 30.9284 39.82L30.1964 43H28.9124ZM36.9404 43L37.7684 39.424C37.8724 38.96 37.8364 38.596 37.6604 38.332C37.4844 38.068 37.2044 37.936 36.8204 37.936C36.4924 37.936 36.2044 38.008 35.9564 38.152C35.7164 38.296 35.5124 38.508 35.3444 38.788C35.1764 39.06 35.0444 39.404 34.9484 39.82L34.8284 38.656C35.0444 38.064 35.3764 37.62 35.8244 37.324C36.2804 37.028 36.7844 36.88 37.3364 36.88C37.7604 36.88 38.1244 36.98 38.4284 37.18C38.7324 37.372 38.9444 37.652 39.0644 38.02C39.1924 38.388 39.1964 38.832 39.0764 39.352L38.2244 43H36.9404ZM43.1407 43.108C42.5727 43.108 42.0847 42.992 41.6767 42.76C41.2687 42.52 40.9527 42.196 40.7287 41.788C40.5047 41.38 40.3927 40.92 40.3927 40.408C40.3927 39.768 40.5207 39.184 40.7767 38.656C41.0327 38.12 41.4047 37.692 41.8927 37.372C42.3807 37.052 42.9687 36.892 43.6567 36.892C44.1687 36.892 44.6087 36.996 44.9767 37.204C45.3447 37.412 45.6247 37.704 45.8167 38.08C46.0087 38.448 46.1047 38.88 46.1047 39.376C46.1047 39.536 46.0927 39.7 46.0687 39.868C46.0527 40.036 46.0167 40.204 45.9607 40.372H41.1247V39.388H45.2647L44.7967 39.724C44.8287 39.628 44.8487 39.536 44.8567 39.448C44.8647 39.352 44.8687 39.264 44.8687 39.184C44.8687 38.92 44.8167 38.692 44.7127 38.5C44.6167 38.308 44.4727 38.16 44.2807 38.056C44.0887 37.952 43.8607 37.9 43.5967 37.9C43.2367 37.9 42.9287 37.976 42.6727 38.128C42.4247 38.272 42.2247 38.472 42.0727 38.728C41.9207 38.976 41.8127 39.252 41.7487 39.556C41.6847 39.86 41.6527 40.16 41.6527 40.456C41.6527 40.792 41.7167 41.084 41.8447 41.332C41.9807 41.572 42.1647 41.76 42.3967 41.896C42.6367 42.032 42.9167 42.1 43.2367 42.1C43.6127 42.1 43.9167 42.02 44.1487 41.86C44.3887 41.7 44.5807 41.496 44.7247 41.248L45.7567 41.8C45.5967 42.072 45.3847 42.308 45.1207 42.508C44.8647 42.7 44.5687 42.848 44.2327 42.952C43.9047 43.056 43.5407 43.108 43.1407 43.108ZM51.697 43L51.145 37H52.393L52.717 41.656L55.117 37H56.389L56.893 41.716L59.293 37H60.661L57.409 43H56.005L55.465 38.56L53.125 43H51.697ZM60.471 43L62.487 34.3H63.771L62.859 38.248L62.667 38.392C62.771 38.072 62.935 37.8 63.159 37.576C63.383 37.352 63.643 37.18 63.939 37.06C64.243 36.94 64.571 36.88 64.923 36.88C65.355 36.88 65.727 36.98 66.039 37.18C66.351 37.372 66.571 37.648 66.699 38.008C66.835 38.368 66.847 38.804 66.735 39.316L65.871 43H64.587L65.427 39.4C65.531 38.944 65.487 38.588 65.295 38.332C65.103 38.068 64.799 37.936 64.383 37.936C64.063 37.936 63.775 38.008 63.519 38.152C63.271 38.296 63.063 38.508 62.895 38.788C62.727 39.06 62.591 39.404 62.487 39.82L61.755 43H60.471ZM70.2346 43.096C69.7946 43.096 69.4026 42.992 69.0586 42.784C68.7146 42.568 68.4466 42.268 68.2546 41.884C68.0626 41.5 67.9666 41.048 67.9666 40.528C67.9666 40.04 68.0386 39.576 68.1826 39.136C68.3346 38.696 68.5426 38.308 68.8066 37.972C69.0786 37.628 69.3986 37.36 69.7666 37.168C70.1426 36.976 70.5506 36.88 70.9906 36.88C71.3186 36.88 71.6146 36.936 71.8786 37.048C72.1506 37.16 72.3786 37.324 72.5626 37.54C72.7466 37.756 72.8706 38.02 72.9346 38.332L73.2466 37H74.5306L73.1386 43H71.9986L72.2026 41.884C72.0026 42.252 71.7266 42.548 71.3746 42.772C71.0306 42.988 70.6506 43.096 70.2346 43.096ZM70.6786 42.076C70.9346 42.076 71.1746 42.008 71.3986 41.872C71.6306 41.736 71.8306 41.548 71.9986 41.308C72.1746 41.068 72.3106 40.792 72.4066 40.48C72.5106 40.16 72.5626 39.828 72.5626 39.484C72.5626 39.164 72.5026 38.888 72.3826 38.656C72.2706 38.416 72.1106 38.232 71.9026 38.104C71.7026 37.976 71.4626 37.912 71.1826 37.912C70.8866 37.912 70.6186 37.98 70.3786 38.116C70.1466 38.252 69.9426 38.44 69.7666 38.68C69.5986 38.912 69.4666 39.184 69.3706 39.496C69.2746 39.8 69.2266 40.12 69.2266 40.456C69.2266 40.8 69.2826 41.092 69.3946 41.332C69.5066 41.572 69.6706 41.756 69.8866 41.884C70.1026 42.012 70.3666 42.076 70.6786 42.076ZM77.7006 43.096C77.2846 43.096 76.9286 43.02 76.6326 42.868C76.3446 42.708 76.1406 42.476 76.0206 42.172C75.9006 41.868 75.8886 41.5 75.9846 41.068L77.2206 35.692L78.6006 35.308L77.2446 41.08C77.1646 41.432 77.2126 41.688 77.3886 41.848C77.5646 42 77.7926 42.076 78.0726 42.076C78.2646 42.076 78.4286 42.052 78.5646 42.004C78.7086 41.956 78.8366 41.892 78.9486 41.812L79.0446 42.76C78.8366 42.888 78.6206 42.976 78.3966 43.024C78.1806 43.072 77.9486 43.096 77.7006 43.096ZM75.5046 38.008L75.7326 37H79.9926L79.7646 38.008H75.5046ZM83.6273 45.58C83.3073 45.58 83.0273 45.544 82.7873 45.472C82.5473 45.4 82.3513 45.3 82.1993 45.172L82.6433 44.176C82.9153 44.424 83.2313 44.548 83.5913 44.548C83.8313 44.548 84.0433 44.484 84.2273 44.356C84.4193 44.228 84.6033 44.028 84.7793 43.756L85.2473 43L84.1913 37H85.4753L85.9073 40.372L86.0993 41.86L86.8913 40.444L88.8473 37H90.2633L85.9313 43.972C85.6993 44.356 85.4593 44.664 85.2113 44.896C84.9713 45.136 84.7193 45.308 84.4553 45.412C84.1913 45.524 83.9153 45.58 83.6273 45.58ZM93.1926 43.108C92.6006 43.108 92.0966 42.988 91.6806 42.748C91.2726 42.508 90.9566 42.184 90.7326 41.776C90.5086 41.36 90.3966 40.904 90.3966 40.408C90.3966 39.728 90.5286 39.124 90.7926 38.596C91.0646 38.068 91.4366 37.652 91.9086 37.348C92.3886 37.044 92.9526 36.892 93.6006 36.892C94.1926 36.892 94.6926 37.012 95.1006 37.252C95.5166 37.492 95.8326 37.816 96.0486 38.224C96.2646 38.632 96.3726 39.088 96.3726 39.592C96.3726 40.256 96.2406 40.856 95.9766 41.392C95.7206 41.92 95.3526 42.34 94.8726 42.652C94.3926 42.956 93.8326 43.108 93.1926 43.108ZM93.2166 42.1C93.4806 42.1 93.7246 42.036 93.9486 41.908C94.1806 41.78 94.3806 41.6 94.5486 41.368C94.7246 41.136 94.8566 40.868 94.9446 40.564C95.0406 40.252 95.0886 39.92 95.0886 39.568C95.0886 39.248 95.0326 38.964 94.9206 38.716C94.8166 38.468 94.6486 38.272 94.4166 38.128C94.1926 37.976 93.9086 37.9 93.5646 37.9C93.3006 37.9 93.0526 37.964 92.8206 38.092C92.5886 38.22 92.3886 38.4 92.2206 38.632C92.0526 38.856 91.9206 39.124 91.8246 39.436C91.7286 39.74 91.6806 40.072 91.6806 40.432C91.6806 40.736 91.7366 41.016 91.8486 41.272C91.9606 41.528 92.1286 41.732 92.3526 41.884C92.5846 42.028 92.8726 42.1 93.2166 42.1ZM99.4902 43.096C99.0582 43.096 98.6782 43 98.3502 42.808C98.0302 42.616 97.7982 42.34 97.6542 41.98C97.5182 41.62 97.5102 41.184 97.6302 40.672L98.4822 37H99.7662L98.9382 40.564C98.8262 41.044 98.8702 41.412 99.0702 41.668C99.2782 41.916 99.5862 42.04 99.9942 42.04C100.314 42.04 100.594 41.972 100.834 41.836C101.082 41.692 101.29 41.484 101.458 41.212C101.626 40.932 101.754 40.588 101.842 40.18L102.586 37H103.87L102.478 43H101.338L101.59 41.488L101.71 41.584C101.55 42.088 101.266 42.468 100.858 42.724C100.458 42.972 100.002 43.096 99.4902 43.096ZM104.393 43L105.785 37H106.865L106.673 38.62L106.541 38.5C106.669 38.164 106.841 37.876 107.057 37.636C107.281 37.396 107.537 37.212 107.825 37.084C108.113 36.948 108.413 36.88 108.725 36.88C108.853 36.88 108.965 36.888 109.061 36.904C109.165 36.92 109.253 36.948 109.325 36.988L108.977 38.14C108.897 38.1 108.805 38.072 108.701 38.056C108.605 38.032 108.481 38.02 108.329 38.02C108.041 38.02 107.769 38.088 107.513 38.224C107.257 38.352 107.033 38.552 106.841 38.824C106.649 39.096 106.501 39.452 106.397 39.892L105.677 43H104.393ZM115.224 43.096C114.808 43.096 114.452 43.02 114.156 42.868C113.868 42.708 113.664 42.476 113.544 42.172C113.424 41.868 113.412 41.5 113.508 41.068L114.744 35.692L116.124 35.308L114.768 41.08C114.688 41.432 114.736 41.688 114.912 41.848C115.088 42 115.316 42.076 115.596 42.076C115.788 42.076 115.952 42.052 116.088 42.004C116.232 41.956 116.36 41.892 116.472 41.812L116.568 42.76C116.36 42.888 116.144 42.976 115.92 43.024C115.704 43.072 115.472 43.096 115.224 43.096ZM113.028 38.008L113.256 37H117.516L117.288 38.008H113.028ZM120.66 43.108C120.092 43.108 119.604 42.992 119.196 42.76C118.788 42.52 118.472 42.196 118.248 41.788C118.024 41.38 117.912 40.92 117.912 40.408C117.912 39.768 118.04 39.184 118.296 38.656C118.552 38.12 118.924 37.692 119.412 37.372C119.9 37.052 120.488 36.892 121.176 36.892C121.688 36.892 122.128 36.996 122.496 37.204C122.864 37.412 123.144 37.704 123.336 38.08C123.528 38.448 123.624 38.88 123.624 39.376C123.624 39.536 123.612 39.7 123.588 39.868C123.572 40.036 123.536 40.204 123.48 40.372H118.644V39.388H122.784L122.316 39.724C122.348 39.628 122.368 39.536 122.376 39.448C122.384 39.352 122.388 39.264 122.388 39.184C122.388 38.92 122.336 38.692 122.232 38.5C122.136 38.308 121.992 38.16 121.8 38.056C121.608 37.952 121.38 37.9 121.116 37.9C120.756 37.9 120.448 37.976 120.192 38.128C119.944 38.272 119.744 38.472 119.592 38.728C119.44 38.976 119.332 39.252 119.268 39.556C119.204 39.86 119.172 40.16 119.172 40.456C119.172 40.792 119.236 41.084 119.364 41.332C119.5 41.572 119.684 41.76 119.916 41.896C120.156 42.032 120.436 42.1 120.756 42.1C121.132 42.1 121.436 42.02 121.668 41.86C121.908 41.7 122.1 41.496 122.244 41.248L123.276 41.8C123.116 42.072 122.904 42.308 122.64 42.508C122.384 42.7 122.088 42.848 121.752 42.952C121.424 43.056 121.06 43.108 120.66 43.108ZM127.024 43.096C126.584 43.096 126.192 42.992 125.848 42.784C125.504 42.568 125.236 42.268 125.044 41.884C124.852 41.5 124.756 41.048 124.756 40.528C124.756 40.04 124.828 39.576 124.972 39.136C125.124 38.696 125.332 38.308 125.596 37.972C125.868 37.628 126.188 37.36 126.556 37.168C126.932 36.976 127.34 36.88 127.78 36.88C128.108 36.88 128.404 36.936 128.668 37.048C128.94 37.16 129.168 37.324 129.352 37.54C129.536 37.756 129.66 38.02 129.724 38.332L130.036 37H131.32L129.928 43H128.788L128.992 41.884C128.792 42.252 128.516 42.548 128.164 42.772C127.82 42.988 127.44 43.096 127.024 43.096ZM127.468 42.076C127.724 42.076 127.964 42.008 128.188 41.872C128.42 41.736 128.62 41.548 128.788 41.308C128.964 41.068 129.1 40.792 129.196 40.48C129.3 40.16 129.352 39.828 129.352 39.484C129.352 39.164 129.292 38.888 129.172 38.656C129.06 38.416 128.9 38.232 128.692 38.104C128.492 37.976 128.252 37.912 127.972 37.912C127.676 37.912 127.408 37.98 127.168 38.116C126.936 38.252 126.732 38.44 126.556 38.68C126.388 38.912 126.256 39.184 126.16 39.496C126.064 39.8 126.016 40.12 126.016 40.456C126.016 40.8 126.072 41.092 126.184 41.332C126.296 41.572 126.46 41.756 126.676 41.884C126.892 42.012 127.156 42.076 127.468 42.076ZM134.946 43.108C134.37 43.108 133.874 42.988 133.458 42.748C133.05 42.508 132.734 42.184 132.51 41.776C132.294 41.36 132.186 40.9 132.186 40.396C132.186 39.716 132.318 39.116 132.582 38.596C132.854 38.068 133.23 37.652 133.71 37.348C134.198 37.044 134.77 36.892 135.426 36.892C135.906 36.892 136.326 36.976 136.686 37.144C137.054 37.304 137.346 37.532 137.562 37.828C137.786 38.124 137.922 38.46 137.97 38.836L136.686 39.1C136.67 38.764 136.554 38.48 136.338 38.248C136.13 38.016 135.81 37.9 135.378 37.9C135.098 37.9 134.842 37.968 134.61 38.104C134.378 38.232 134.174 38.412 133.998 38.644C133.83 38.868 133.698 39.136 133.602 39.448C133.514 39.752 133.47 40.08 133.47 40.432C133.47 40.752 133.53 41.04 133.65 41.296C133.77 41.544 133.942 41.74 134.166 41.884C134.398 42.028 134.682 42.1 135.018 42.1C135.298 42.1 135.562 42.024 135.81 41.872C136.058 41.712 136.234 41.484 136.338 41.188L137.538 41.608C137.322 42.088 136.986 42.46 136.53 42.724C136.074 42.98 135.546 43.108 134.946 43.108ZM138.389 43L140.405 34.3H141.689L140.777 38.248L140.585 38.392C140.689 38.072 140.853 37.8 141.077 37.576C141.301 37.352 141.561 37.18 141.857 37.06C142.161 36.94 142.489 36.88 142.841 36.88C143.273 36.88 143.645 36.98 143.957 37.18C144.269 37.372 144.489 37.648 144.617 38.008C144.753 38.368 144.765 38.804 144.653 39.316L143.789 43H142.505L143.345 39.4C143.449 38.944 143.405 38.588 143.213 38.332C143.021 38.068 142.717 37.936 142.301 37.936C141.981 37.936 141.693 38.008 141.437 38.152C141.189 38.296 140.981 38.508 140.813 38.788C140.645 39.06 140.509 39.404 140.405 39.82L139.673 43H138.389ZM148.645 43.108C148.077 43.108 147.589 42.992 147.181 42.76C146.773 42.52 146.457 42.196 146.233 41.788C146.009 41.38 145.897 40.92 145.897 40.408C145.897 39.768 146.025 39.184 146.281 38.656C146.537 38.12 146.909 37.692 147.397 37.372C147.885 37.052 148.473 36.892 149.161 36.892C149.673 36.892 150.113 36.996 150.481 37.204C150.849 37.412 151.129 37.704 151.321 38.08C151.513 38.448 151.609 38.88 151.609 39.376C151.609 39.536 151.597 39.7 151.573 39.868C151.557 40.036 151.521 40.204 151.465 40.372H146.629V39.388H150.769L150.301 39.724C150.333 39.628 150.353 39.536 150.361 39.448C150.369 39.352 150.373 39.264 150.373 39.184C150.373 38.92 150.321 38.692 150.217 38.5C150.121 38.308 149.977 38.16 149.785 38.056C149.593 37.952 149.365 37.9 149.101 37.9C148.741 37.9 148.433 37.976 148.177 38.128C147.929 38.272 147.729 38.472 147.577 38.728C147.425 38.976 147.317 39.252 147.253 39.556C147.189 39.86 147.157 40.16 147.157 40.456C147.157 40.792 147.221 41.084 147.349 41.332C147.485 41.572 147.669 41.76 147.901 41.896C148.141 42.032 148.421 42.1 148.741 42.1C149.117 42.1 149.421 42.02 149.653 41.86C149.893 41.7 150.085 41.496 150.229 41.248L151.261 41.8C151.101 42.072 150.889 42.308 150.625 42.508C150.369 42.7 150.073 42.848 149.737 42.952C149.409 43.056 149.045 43.108 148.645 43.108ZM152.475 43L153.867 37H154.947L154.755 38.62L154.623 38.5C154.751 38.164 154.923 37.876 155.139 37.636C155.363 37.396 155.619 37.212 155.907 37.084C156.195 36.948 156.495 36.88 156.807 36.88C156.935 36.88 157.047 36.888 157.143 36.904C157.247 36.92 157.335 36.948 157.407 36.988L157.059 38.14C156.979 38.1 156.887 38.072 156.783 38.056C156.687 38.032 156.563 38.02 156.411 38.02C156.123 38.02 155.851 38.088 155.595 38.224C155.339 38.352 155.115 38.552 154.923 38.824C154.731 39.096 154.583 39.452 154.479 39.892L153.759 43H152.475ZM163.242 35.992C163.002 35.992 162.81 35.928 162.666 35.8C162.522 35.672 162.458 35.496 162.474 35.272C162.482 34.992 162.57 34.776 162.738 34.624C162.906 34.472 163.118 34.396 163.374 34.396C163.622 34.396 163.814 34.46 163.95 34.588C164.094 34.708 164.162 34.876 164.154 35.092C164.138 35.388 164.046 35.612 163.878 35.764C163.71 35.916 163.498 35.992 163.242 35.992ZM163.542 37L162.15 43H160.866L162.258 37H163.542ZM166.837 43.132C166.381 43.132 165.961 43.064 165.577 42.928C165.201 42.792 164.873 42.596 164.593 42.34C164.313 42.084 164.093 41.784 163.933 41.44L164.905 40.852C165.073 41.26 165.317 41.576 165.637 41.8C165.965 42.016 166.357 42.124 166.813 42.124C167.181 42.124 167.465 42.052 167.665 41.908C167.865 41.764 167.965 41.572 167.965 41.332C167.965 41.156 167.909 41.016 167.797 40.912C167.685 40.8 167.513 40.712 167.281 40.648L166.321 40.36C165.793 40.216 165.401 40.004 165.145 39.724C164.897 39.436 164.773 39.104 164.773 38.728C164.773 38.368 164.869 38.052 165.061 37.78C165.253 37.5 165.529 37.28 165.889 37.12C166.249 36.96 166.673 36.88 167.161 36.88C167.745 36.88 168.261 37 168.709 37.24C169.157 37.48 169.485 37.828 169.693 38.284L168.769 38.908C168.681 38.7 168.557 38.52 168.397 38.368C168.237 38.216 168.049 38.096 167.833 38.008C167.625 37.92 167.393 37.876 167.137 37.876C166.745 37.876 166.453 37.944 166.261 38.08C166.069 38.208 165.973 38.384 165.973 38.608C165.973 38.808 166.049 38.96 166.201 39.064C166.353 39.168 166.533 39.252 166.741 39.316L167.905 39.664C168.321 39.784 168.645 39.976 168.877 40.24C169.109 40.496 169.225 40.8 169.225 41.152C169.225 41.56 169.125 41.912 168.925 42.208C168.725 42.504 168.445 42.732 168.085 42.892C167.725 43.052 167.309 43.132 166.837 43.132ZM176.676 43.096C176.236 43.096 175.844 42.992 175.5 42.784C175.156 42.568 174.888 42.268 174.696 41.884C174.504 41.5 174.408 41.048 174.408 40.528C174.408 40.04 174.48 39.576 174.624 39.136C174.776 38.696 174.984 38.308 175.248 37.972C175.52 37.628 175.84 37.36 176.208 37.168C176.584 36.976 176.992 36.88 177.432 36.88C177.76 36.88 178.056 36.936 178.32 37.048C178.592 37.16 178.82 37.324 179.004 37.54C179.188 37.756 179.312 38.02 179.376 38.332L179.688 37H180.972L179.58 43H178.44L178.644 41.884C178.444 42.252 178.168 42.548 177.816 42.772C177.472 42.988 177.092 43.096 176.676 43.096ZM177.12 42.076C177.376 42.076 177.616 42.008 177.84 41.872C178.072 41.736 178.272 41.548 178.44 41.308C178.616 41.068 178.752 40.792 178.848 40.48C178.952 40.16 179.004 39.828 179.004 39.484C179.004 39.164 178.944 38.888 178.824 38.656C178.712 38.416 178.552 38.232 178.344 38.104C178.144 37.976 177.904 37.912 177.624 37.912C177.328 37.912 177.06 37.98 176.82 38.116C176.588 38.252 176.384 38.44 176.208 38.68C176.04 38.912 175.908 39.184 175.812 39.496C175.716 39.8 175.668 40.12 175.668 40.456C175.668 40.8 175.724 41.092 175.836 41.332C175.948 41.572 176.112 41.756 176.328 41.884C176.544 42.012 176.808 42.076 177.12 42.076ZM184.274 43.132C183.818 43.132 183.398 43.064 183.014 42.928C182.638 42.792 182.31 42.596 182.03 42.34C181.75 42.084 181.53 41.784 181.37 41.44L182.342 40.852C182.51 41.26 182.754 41.576 183.074 41.8C183.402 42.016 183.794 42.124 184.25 42.124C184.618 42.124 184.902 42.052 185.102 41.908C185.302 41.764 185.402 41.572 185.402 41.332C185.402 41.156 185.346 41.016 185.234 40.912C185.122 40.8 184.95 40.712 184.718 40.648L183.758 40.36C183.23 40.216 182.838 40.004 182.582 39.724C182.334 39.436 182.21 39.104 182.21 38.728C182.21 38.368 182.306 38.052 182.498 37.78C182.69 37.5 182.966 37.28 183.326 37.12C183.686 36.96 184.11 36.88 184.598 36.88C185.182 36.88 185.698 37 186.146 37.24C186.594 37.48 186.922 37.828 187.13 38.284L186.206 38.908C186.118 38.7 185.994 38.52 185.834 38.368C185.674 38.216 185.486 38.096 185.27 38.008C185.062 37.92 184.83 37.876 184.574 37.876C184.182 37.876 183.89 37.944 183.698 38.08C183.506 38.208 183.41 38.384 183.41 38.608C183.41 38.808 183.486 38.96 183.638 39.064C183.79 39.168 183.97 39.252 184.178 39.316L185.342 39.664C185.758 39.784 186.082 39.976 186.314 40.24C186.546 40.496 186.662 40.8 186.662 41.152C186.662 41.56 186.562 41.912 186.362 42.208C186.162 42.504 185.882 42.732 185.522 42.892C185.162 43.052 184.746 43.132 184.274 43.132ZM194.53 37L191.302 39.724L191.086 39.844L188.806 41.776L188.986 40.336L192.886 37H194.53ZM190.978 34.3L188.962 43H187.678L189.694 34.3H190.978ZM191.578 39.016L193.318 43H191.986L190.606 39.724L191.578 39.016ZM196.839 35.992C196.599 35.992 196.407 35.928 196.263 35.8C196.119 35.672 196.055 35.496 196.071 35.272C196.079 34.992 196.167 34.776 196.335 34.624C196.503 34.472 196.715 34.396 196.971 34.396C197.219 34.396 197.411 34.46 197.547 34.588C197.691 34.708 197.759 34.876 197.751 35.092C197.735 35.388 197.643 35.612 197.475 35.764C197.307 35.916 197.095 35.992 196.839 35.992ZM197.139 37L195.747 43H194.463L195.855 37H197.139ZM197.662 43L199.054 37H200.182L199.93 38.512L199.81 38.428C199.978 37.916 200.274 37.532 200.698 37.276C201.122 37.012 201.59 36.88 202.102 36.88C202.55 36.88 202.93 36.98 203.242 37.18C203.554 37.372 203.774 37.652 203.902 38.02C204.03 38.38 204.034 38.82 203.914 39.34L203.062 43H201.778L202.618 39.4C202.722 38.944 202.678 38.588 202.486 38.332C202.294 38.068 201.99 37.936 201.574 37.936C201.254 37.936 200.966 38.008 200.71 38.152C200.462 38.296 200.254 38.508 200.086 38.788C199.918 39.06 199.782 39.404 199.678 39.82L198.946 43H197.662ZM207.173 45.58C206.829 45.58 206.501 45.532 206.189 45.436C205.877 45.348 205.601 45.216 205.361 45.04C205.129 44.872 204.937 44.664 204.785 44.416C204.641 44.168 204.549 43.888 204.509 43.576L205.793 43.264C205.857 43.68 205.997 44.004 206.213 44.236C206.437 44.476 206.797 44.596 207.293 44.596C207.565 44.596 207.821 44.544 208.061 44.44C208.301 44.336 208.513 44.16 208.697 43.912C208.881 43.672 209.021 43.328 209.117 42.88L209.453 41.356L209.597 41.26C209.477 41.748 209.229 42.136 208.853 42.424C208.477 42.712 208.033 42.856 207.521 42.856C207.073 42.856 206.673 42.748 206.321 42.532C205.969 42.316 205.689 42.016 205.481 41.632C205.281 41.248 205.181 40.816 205.181 40.336C205.181 39.84 205.253 39.384 205.397 38.968C205.549 38.552 205.757 38.188 206.021 37.876C206.293 37.556 206.613 37.312 206.981 37.144C207.349 36.968 207.753 36.88 208.193 36.88C208.569 36.88 208.905 36.956 209.201 37.108C209.497 37.252 209.733 37.468 209.909 37.756C210.093 38.036 210.189 38.38 210.197 38.788L210.005 38.944L210.449 37H211.733L210.353 42.904C210.209 43.552 209.985 44.068 209.681 44.452C209.385 44.844 209.025 45.128 208.601 45.304C208.177 45.488 207.701 45.58 207.173 45.58ZM207.965 41.836C208.309 41.836 208.613 41.732 208.877 41.524C209.149 41.308 209.365 41.02 209.525 40.66C209.685 40.3 209.765 39.9 209.765 39.46C209.765 39.14 209.709 38.868 209.597 38.644C209.485 38.412 209.321 38.232 209.105 38.104C208.897 37.976 208.653 37.912 208.373 37.912C207.989 37.912 207.653 38.016 207.365 38.224C207.085 38.424 206.865 38.7 206.705 39.052C206.545 39.404 206.465 39.804 206.465 40.252C206.465 40.716 206.593 41.096 206.849 41.392C207.113 41.688 207.485 41.836 207.965 41.836ZM216.424 43L218.032 36.04C218.136 35.6 218.288 35.248 218.488 34.984C218.696 34.72 218.952 34.528 219.256 34.408C219.56 34.28 219.908 34.216 220.3 34.216C220.548 34.216 220.776 34.244 220.984 34.3C221.192 34.348 221.352 34.416 221.464 34.504L221.104 35.44C221.032 35.392 220.932 35.348 220.804 35.308C220.676 35.268 220.532 35.248 220.372 35.248C220.044 35.248 219.792 35.324 219.616 35.476C219.44 35.62 219.312 35.88 219.232 36.256L219.04 37.108L218.992 37.432L217.708 43H216.424ZM216.4 38.008L216.64 37H220.864L220.624 38.008H216.4ZM223.786 43.108C223.194 43.108 222.69 42.988 222.274 42.748C221.866 42.508 221.55 42.184 221.326 41.776C221.102 41.36 220.99 40.904 220.99 40.408C220.99 39.728 221.122 39.124 221.386 38.596C221.658 38.068 222.03 37.652 222.502 37.348C222.982 37.044 223.546 36.892 224.194 36.892C224.786 36.892 225.286 37.012 225.694 37.252C226.11 37.492 226.426 37.816 226.642 38.224C226.858 38.632 226.966 39.088 226.966 39.592C226.966 40.256 226.834 40.856 226.57 41.392C226.314 41.92 225.946 42.34 225.466 42.652C224.986 42.956 224.426 43.108 223.786 43.108ZM223.81 42.1C224.074 42.1 224.318 42.036 224.542 41.908C224.774 41.78 224.974 41.6 225.142 41.368C225.318 41.136 225.45 40.868 225.538 40.564C225.634 40.252 225.682 39.92 225.682 39.568C225.682 39.248 225.626 38.964 225.514 38.716C225.41 38.468 225.242 38.272 225.01 38.128C224.786 37.976 224.502 37.9 224.158 37.9C223.894 37.9 223.646 37.964 223.414 38.092C223.182 38.22 222.982 38.4 222.814 38.632C222.646 38.856 222.514 39.124 222.418 39.436C222.322 39.74 222.274 40.072 222.274 40.432C222.274 40.736 222.33 41.016 222.442 41.272C222.554 41.528 222.722 41.732 222.946 41.884C223.178 42.028 223.466 42.1 223.81 42.1ZM227.815 43L229.207 37H230.287L230.095 38.62L229.963 38.5C230.091 38.164 230.263 37.876 230.479 37.636C230.703 37.396 230.959 37.212 231.247 37.084C231.535 36.948 231.835 36.88 232.147 36.88C232.275 36.88 232.387 36.888 232.483 36.904C232.587 36.92 232.675 36.948 232.747 36.988L232.399 38.14C232.319 38.1 232.227 38.072 232.123 38.056C232.027 38.032 231.903 38.02 231.751 38.02C231.463 38.02 231.191 38.088 230.935 38.224C230.679 38.352 230.455 38.552 230.263 38.824C230.071 39.096 229.923 39.452 229.819 39.892L229.099 43H227.815ZM234.756 40.48L235.176 38.704C235.688 38.704 236.132 38.656 236.508 38.56C236.892 38.464 237.188 38.304 237.396 38.08C237.612 37.856 237.72 37.548 237.72 37.156C237.72 36.796 237.588 36.532 237.324 36.364C237.068 36.188 236.744 36.1 236.352 36.1C235.88 36.1 235.492 36.216 235.188 36.448C234.884 36.68 234.664 36.992 234.528 37.384L233.424 36.772C233.56 36.428 233.764 36.12 234.036 35.848C234.316 35.576 234.656 35.364 235.056 35.212C235.456 35.06 235.916 34.984 236.436 34.984C236.94 34.984 237.388 35.068 237.78 35.236C238.18 35.396 238.492 35.632 238.716 35.944C238.94 36.248 239.052 36.612 239.052 37.036C239.052 37.548 238.932 37.98 238.692 38.332C238.46 38.676 238.132 38.948 237.708 39.148C237.284 39.34 236.796 39.456 236.244 39.496L235.992 40.48H234.756ZM234.948 43.108C234.708 43.108 234.512 43.044 234.36 42.916C234.208 42.788 234.132 42.612 234.132 42.388C234.132 42.092 234.22 41.856 234.396 41.68C234.572 41.504 234.796 41.416 235.068 41.416C235.308 41.416 235.504 41.484 235.656 41.62C235.808 41.748 235.884 41.924 235.884 42.148C235.884 42.444 235.796 42.68 235.62 42.856C235.444 43.024 235.22 43.108 234.948 43.108Z" fill="black"/>
</svg>
