<svg width="296" height="74" viewBox="0 0 296 74" fill="none" xmlns="http://www.w3.org/2000/svg">
<path fill-rule="evenodd" clip-rule="evenodd" d="M28.1758 4.76648C12.7118 4.76648 0.175781 17.3025 0.175781 32.7665C0.175781 48.2305 12.7118 60.7665 28.1758 60.7665H249.78C253.153 64.7806 261.36 71.3028 274.584 73.5788C271.401 71.1971 265.676 65.9886 263.093 60.7665H267.176C282.64 60.7665 295.176 48.2305 295.176 32.7665C295.176 17.3025 282.64 4.76648 267.176 4.76648H28.1758Z" fill="#E5E5E5"/>
<mask id="path-2-inside-1_1432_942" fill="white">
<path fill-rule="evenodd" clip-rule="evenodd" d="M28.1758 0C12.7118 0 0.175781 12.536 0.175781 28C0.175781 43.464 12.7118 56 28.1758 56H249.78C253.153 60.0141 261.36 66.5363 274.584 68.8123C271.401 66.4306 265.676 61.2222 263.093 56H267.176C282.64 56 295.176 43.464 295.176 28C295.176 12.536 282.64 0 267.176 0H28.1758Z"/>
</mask>
<path fill-rule="evenodd" clip-rule="evenodd" d="M28.1758 0C12.7118 0 0.175781 12.536 0.175781 28C0.175781 43.464 12.7118 56 28.1758 56H249.78C253.153 60.0141 261.36 66.5363 274.584 68.8123C271.401 66.4306 265.676 61.2222 263.093 56H267.176C282.64 56 295.176 43.464 295.176 28C295.176 12.536 282.64 0 267.176 0H28.1758Z" fill="white"/>
<path d="M249.78 56L250.214 55.6348L250.044 55.4324H249.78V56ZM274.584 68.8123L274.487 69.3716L274.924 68.3579L274.584 68.8123ZM263.093 56V55.4324H262.179L262.584 56.2517L263.093 56ZM0.175781 28H0.743336C0.743336 12.8495 13.0253 0.567555 28.1758 0.567555V0V-0.567555C12.3984 -0.567555 -0.391774 12.2226 -0.391774 28H0.175781ZM28.1758 56V55.4324C13.0253 55.4324 0.743336 43.1505 0.743336 28H0.175781H-0.391774C-0.391774 43.7774 12.3984 56.5676 28.1758 56.5676V56ZM249.78 56V55.4324H28.1758V56V56.5676H249.78V56ZM274.584 68.8123L274.68 68.253C261.595 66.0009 253.506 59.5518 250.214 55.6348L249.78 56L249.345 56.3652C252.801 60.4765 261.124 67.0717 274.487 69.3716L274.584 68.8123ZM263.093 56L262.584 56.2517C265.228 61.5947 271.038 66.8682 274.244 69.2667L274.584 68.8123L274.924 68.3579C271.763 65.993 266.125 60.8496 263.602 55.7483L263.093 56ZM267.176 56V55.4324H263.093V56V56.5676H267.176V56ZM295.176 28H294.608C294.608 43.1505 282.326 55.4324 267.176 55.4324V56V56.5676C282.953 56.5676 295.743 43.7774 295.743 28H295.176ZM267.176 0V0.567555C282.326 0.567555 294.608 12.8495 294.608 28H295.176H295.743C295.743 12.2226 282.953 -0.567555 267.176 -0.567555V0ZM28.1758 0V0.567555H267.176V0V-0.567555H28.1758V0Z" fill="#DADDDD" mask="url(#path-2-inside-1_1432_942)"/>
<path d="M23.8134 31.3027L23.3094 22.3127H24.726L24.9848 29.9134L28.5264 22.3127H30.1064L30.3108 29.9678L34.0021 22.3127H35.5958L30.9237 31.3027H29.1802L28.9895 25.9087L29.0167 23.811H29.0031L28.0905 25.9087L25.516 31.3027H23.8134ZM34.957 31.3027L37.2454 21.4273H38.7029L37.6677 25.9087L37.4497 26.0721C37.5678 25.7089 37.7539 25.4002 38.0082 25.1459C38.2624 24.8916 38.5576 24.6964 38.8936 24.5602C39.2386 24.424 39.611 24.3559 40.0105 24.3559C40.5009 24.3559 40.9231 24.4694 41.2773 24.6964C41.6315 24.9143 41.8812 25.2276 42.0265 25.6363C42.1808 26.0449 42.1945 26.5398 42.0673 27.121L41.0866 31.3027H39.6291L40.5826 27.2163C40.7007 26.6987 40.6507 26.2946 40.4328 26.004C40.2148 25.7044 39.8698 25.5545 39.3976 25.5545C39.0343 25.5545 38.7074 25.6363 38.4168 25.7997C38.1353 25.9632 37.8992 26.2038 37.7085 26.5216C37.5178 26.8304 37.3634 27.2209 37.2454 27.6931L36.4145 31.3027H34.957ZM46.0398 31.4117C45.5403 31.4117 45.0954 31.2937 44.7049 31.0576C44.3144 30.8124 44.0102 30.4718 43.7922 30.036C43.5743 29.6001 43.4653 29.087 43.4653 28.4967C43.4653 27.9428 43.5471 27.4161 43.7105 26.9167C43.8831 26.4172 44.1192 25.9768 44.4188 25.5954C44.7276 25.2049 45.0908 24.9007 45.5085 24.6828C45.9353 24.4648 46.3985 24.3559 46.8979 24.3559C47.2702 24.3559 47.6062 24.4194 47.9059 24.5466C48.2146 24.6737 48.4734 24.8598 48.6823 25.105C48.8912 25.3502 49.0319 25.6499 49.1046 26.004L49.4587 24.4921H50.9162L49.3361 31.3027H48.0421L48.2737 30.036C48.0466 30.4537 47.7333 30.7897 47.3338 31.0439C46.9433 31.2891 46.512 31.4117 46.0398 31.4117ZM46.5438 30.2539C46.8343 30.2539 47.1068 30.1767 47.361 30.0223C47.6244 29.868 47.8514 29.6546 48.0421 29.3821C48.2419 29.1097 48.3963 28.7964 48.5052 28.4423C48.6233 28.079 48.6823 27.7022 48.6823 27.3117C48.6823 26.9485 48.6142 26.6352 48.478 26.3718C48.3508 26.0994 48.1692 25.8905 47.9331 25.7452C47.7061 25.5999 47.4337 25.5273 47.1158 25.5273C46.7799 25.5273 46.4756 25.6045 46.2032 25.7589C45.9399 25.9132 45.7083 26.1266 45.5085 26.3991C45.3178 26.6624 45.168 26.9712 45.059 27.3253C44.9501 27.6704 44.8956 28.0336 44.8956 28.415C44.8956 28.8055 44.9591 29.1369 45.0863 29.4094C45.2134 29.6818 45.3996 29.8907 45.6447 30.036C45.8899 30.1812 46.1896 30.2539 46.5438 30.2539ZM54.5145 31.4117C54.0423 31.4117 53.6382 31.3254 53.3022 31.1529C52.9753 30.9713 52.7437 30.7079 52.6075 30.3629C52.4713 30.0178 52.4576 29.6001 52.5666 29.1097L53.9696 23.0073L55.5361 22.5715L53.9969 29.1233C53.906 29.5229 53.9605 29.8135 54.1603 29.9951C54.3601 30.1676 54.6189 30.2539 54.9367 30.2539C55.1547 30.2539 55.3408 30.2266 55.4952 30.1722C55.6587 30.1177 55.8039 30.045 55.9311 29.9542L56.0401 31.0303C55.8039 31.1756 55.5588 31.2755 55.3045 31.33C55.0593 31.3845 54.796 31.4117 54.5145 31.4117ZM52.0218 25.6363L52.2806 24.4921H57.1161L56.8573 25.6363H52.0218ZM59.8828 21.8223C60.2097 21.8223 60.4639 21.9313 60.6455 22.1492C60.8272 22.3671 60.918 22.6487 60.918 22.9937C60.918 23.3751 60.8181 23.7565 60.6183 24.1379C60.4276 24.5193 60.1506 24.8553 59.7874 25.1459C59.4242 25.4274 58.9883 25.6226 58.4798 25.7316L58.0847 25.0097C58.4389 24.9461 58.7386 24.8508 58.9837 24.7236C59.238 24.5965 59.4423 24.4421 59.5967 24.2605C59.7602 24.0698 59.8782 23.8746 59.9509 23.6748L59.9236 23.6475C59.8782 23.6839 59.8283 23.7111 59.7738 23.7293C59.7284 23.7384 59.6557 23.7429 59.5558 23.7429C59.3197 23.7429 59.1336 23.6566 58.9974 23.4841C58.8612 23.3116 58.793 23.1163 58.793 22.8984C58.793 22.5715 58.8975 22.3127 59.1063 22.122C59.3152 21.9222 59.574 21.8223 59.8828 21.8223ZM63.4041 31.4526C62.8865 31.4526 62.4097 31.3754 61.9738 31.221C61.547 31.0666 61.1747 30.8441 60.8569 30.5536C60.5391 30.263 60.2893 29.9224 60.1077 29.532L61.211 28.8645C61.4017 29.3276 61.6787 29.6863 62.0419 29.9406C62.4143 30.1858 62.8592 30.3084 63.3768 30.3084C63.7946 30.3084 64.1169 30.2266 64.344 30.0632C64.571 29.8997 64.6845 29.6818 64.6845 29.4094C64.6845 29.2096 64.6209 29.0507 64.4938 28.9326C64.3667 28.8055 64.1714 28.7056 63.9081 28.633L62.8184 28.306C62.219 28.1426 61.7741 27.9019 61.4835 27.5841C61.202 27.2572 61.0612 26.8803 61.0612 26.4535C61.0612 26.0449 61.1702 25.6862 61.3881 25.3775C61.6061 25.0596 61.9194 24.8099 62.328 24.6283C62.7366 24.4467 63.2179 24.3559 63.7719 24.3559C64.4348 24.3559 65.0205 24.4921 65.529 24.7645C66.0375 25.0369 66.4099 25.4319 66.646 25.9496L65.5971 26.6579C65.4972 26.4218 65.3565 26.2174 65.1749 26.0449C64.9932 25.8724 64.7798 25.7362 64.5347 25.6363C64.2985 25.5364 64.0352 25.4864 63.7446 25.4864C63.2997 25.4864 62.9682 25.5636 62.7503 25.718C62.5323 25.8633 62.4233 26.0631 62.4233 26.3173C62.4233 26.5444 62.5096 26.7169 62.6822 26.8349C62.8547 26.953 63.059 27.0483 63.2951 27.121L64.6164 27.516C65.0886 27.6522 65.4564 27.8702 65.7197 28.1698C65.9831 28.4604 66.1147 28.8055 66.1147 29.2051C66.1147 29.6682 66.0012 30.0677 65.7742 30.4037C65.5472 30.7397 65.2293 30.9985 64.8207 31.1801C64.4121 31.3618 63.9399 31.4526 63.4041 31.4526ZM74.4144 31.4117C73.9422 31.4117 73.5381 31.3254 73.2021 31.1529C72.8752 30.9713 72.6436 30.7079 72.5074 30.3629C72.3712 30.0178 72.3575 29.6001 72.4665 29.1097L73.8695 23.0073L75.436 22.5715L73.8968 29.1233C73.806 29.5229 73.8604 29.8135 74.0602 29.9951C74.26 30.1676 74.5188 30.2539 74.8366 30.2539C75.0546 30.2539 75.2407 30.2266 75.3951 30.1722C75.5586 30.1177 75.7039 30.045 75.831 29.9542L75.94 31.0303C75.7039 31.1756 75.4587 31.2755 75.2044 31.33C74.9592 31.3845 74.6959 31.4117 74.4144 31.4117ZM71.9217 25.6363L72.1805 24.4921H77.016L76.7572 25.6363H71.9217ZM77.098 31.3027L79.3864 21.4273H80.8438L79.8086 25.9087L79.5907 26.0721C79.7087 25.7089 79.8949 25.4002 80.1492 25.1459C80.4034 24.8916 80.6985 24.6964 81.0345 24.5602C81.3796 24.424 81.7519 24.3559 82.1515 24.3559C82.6419 24.3559 83.0641 24.4694 83.4183 24.6964C83.7724 24.9143 84.0222 25.2276 84.1674 25.6363C84.3218 26.0449 84.3354 26.5398 84.2083 27.121L83.2276 31.3027H81.7701L82.7236 27.2163C82.8416 26.6987 82.7917 26.2946 82.5738 26.004C82.3558 25.7044 82.0107 25.5545 81.5385 25.5545C81.1753 25.5545 80.8484 25.6363 80.5578 25.7997C80.2763 25.9632 80.0402 26.2038 79.8495 26.5216C79.6588 26.8304 79.5044 27.2209 79.3864 27.6931L78.5555 31.3027H77.098ZM88.7392 31.4253C88.0945 31.4253 87.5405 31.2937 87.0774 31.0303C86.6143 30.7579 86.2556 30.3901 86.0013 29.927C85.7471 29.4639 85.6199 28.9417 85.6199 28.3605C85.6199 27.6341 85.7652 26.9712 86.0558 26.3718C86.3464 25.7634 86.7687 25.2776 87.3226 24.9143C87.8765 24.5511 88.544 24.3695 89.3249 24.3695C89.9061 24.3695 90.4056 24.4875 90.8233 24.7236C91.241 24.9597 91.5588 25.2912 91.7768 25.718C91.9947 26.1357 92.1037 26.6261 92.1037 27.1891C92.1037 27.3707 92.0901 27.5569 92.0628 27.7476C92.0447 27.9383 92.0038 28.129 91.9402 28.3197H86.4508V27.2027H91.1502L90.619 27.5841C90.6553 27.4751 90.678 27.3707 90.6871 27.2708C90.6961 27.1619 90.7007 27.062 90.7007 26.9712C90.7007 26.6715 90.6417 26.4127 90.5236 26.1947C90.4146 25.9768 90.2512 25.8088 90.0332 25.6907C89.8153 25.5727 89.5565 25.5137 89.2568 25.5137C88.8482 25.5137 88.4986 25.5999 88.208 25.7725C87.9265 25.9359 87.6995 26.163 87.5269 26.4535C87.3544 26.735 87.2318 27.0483 87.1591 27.3934C87.0865 27.7385 87.0502 28.079 87.0502 28.415C87.0502 28.7964 87.1228 29.1279 87.2681 29.4094C87.4225 29.6818 87.6313 29.8952 87.8947 30.0496C88.1671 30.2039 88.4849 30.2811 88.8482 30.2811C89.275 30.2811 89.6201 30.1903 89.8834 30.0087C90.1558 29.8271 90.3738 29.5955 90.5372 29.314L91.7087 29.9406C91.527 30.2494 91.2864 30.5172 90.9867 30.7443C90.6961 30.9622 90.3602 31.1302 89.9788 31.2482C89.6064 31.3663 89.1933 31.4253 88.7392 31.4253ZM97.8088 31.3027L99.634 23.4024C99.7521 22.9029 99.9246 22.5034 100.152 22.2037C100.388 21.904 100.678 21.6861 101.023 21.5499C101.368 21.4046 101.764 21.3319 102.208 21.3319C102.49 21.3319 102.749 21.3637 102.985 21.4273C103.221 21.4818 103.403 21.5589 103.53 21.6588L103.121 22.7213C103.039 22.6668 102.926 22.6169 102.781 22.5715C102.635 22.5261 102.472 22.5034 102.29 22.5034C101.918 22.5034 101.632 22.5896 101.432 22.7622C101.232 22.9256 101.087 23.2207 100.996 23.6475L100.778 24.6147L100.724 24.9824L99.2663 31.3027H97.8088ZM97.7815 25.6363L98.054 24.4921H102.849L102.576 25.6363H97.7815ZM105.341 23.3479C105.069 23.3479 104.851 23.2752 104.688 23.1299C104.524 22.9846 104.451 22.7849 104.47 22.5306C104.479 22.2128 104.579 21.9676 104.769 21.795C104.96 21.6225 105.201 21.5362 105.491 21.5362C105.773 21.5362 105.991 21.6089 106.145 21.7542C106.308 21.8904 106.386 22.0811 106.377 22.3263C106.358 22.6623 106.254 22.9165 106.063 23.0891C105.873 23.2616 105.632 23.3479 105.341 23.3479ZM105.682 24.4921L104.102 31.3027H102.644L104.224 24.4921H105.682ZM106.283 31.3027L107.863 24.4921H109.089L108.871 26.331L108.721 26.1947C108.866 25.8133 109.061 25.4864 109.307 25.214C109.561 24.9416 109.852 24.7327 110.178 24.5874C110.505 24.433 110.846 24.3559 111.2 24.3559C111.345 24.3559 111.472 24.3649 111.581 24.3831C111.699 24.4013 111.799 24.433 111.881 24.4784L111.486 25.7861C111.395 25.7407 111.291 25.7089 111.173 25.6907C111.064 25.6635 110.923 25.6499 110.751 25.6499C110.424 25.6499 110.115 25.7271 109.824 25.8814C109.534 26.0267 109.279 26.2538 109.061 26.5625C108.844 26.8713 108.676 27.2754 108.557 27.7748L107.74 31.3027H106.283ZM114.63 31.4526C114.113 31.4526 113.636 31.3754 113.2 31.221C112.773 31.0666 112.401 30.8441 112.083 30.5536C111.765 30.263 111.516 29.9224 111.334 29.532L112.437 28.8645C112.628 29.3276 112.905 29.6863 113.268 29.9406C113.641 30.1858 114.086 30.3084 114.603 30.3084C115.021 30.3084 115.343 30.2266 115.57 30.0632C115.797 29.8997 115.911 29.6818 115.911 29.4094C115.911 29.2096 115.847 29.0507 115.72 28.9326C115.593 28.8055 115.398 28.7056 115.134 28.633L114.045 28.306C113.445 28.1426 113 27.9019 112.71 27.5841C112.428 27.2572 112.288 26.8803 112.288 26.4535C112.288 26.0449 112.396 25.6862 112.614 25.3775C112.832 25.0596 113.146 24.8099 113.554 24.6283C113.963 24.4467 114.444 24.3559 114.998 24.3559C115.661 24.3559 116.247 24.4921 116.755 24.7645C117.264 25.0369 117.636 25.4319 117.872 25.9496L116.823 26.6579C116.724 26.4218 116.583 26.2174 116.401 26.0449C116.22 25.8724 116.006 25.7362 115.761 25.6363C115.525 25.5364 115.261 25.4864 114.971 25.4864C114.526 25.4864 114.194 25.5636 113.977 25.718C113.759 25.8633 113.65 26.0631 113.65 26.3173C113.65 26.5444 113.736 26.7169 113.908 26.8349C114.081 26.953 114.285 27.0483 114.521 27.121L115.843 27.516C116.315 27.6522 116.683 27.8702 116.946 28.1698C117.209 28.4604 117.341 28.8055 117.341 29.2051C117.341 29.6682 117.228 30.0677 117 30.4037C116.773 30.7397 116.456 30.9985 116.047 31.1801C115.638 31.3618 115.166 31.4526 114.63 31.4526ZM121.424 31.4117C120.952 31.4117 120.548 31.3254 120.212 31.1529C119.885 30.9713 119.653 30.7079 119.517 30.3629C119.381 30.0178 119.367 29.6001 119.476 29.1097L120.879 23.0073L122.446 22.5715L120.906 29.1233C120.815 29.5229 120.87 29.8135 121.07 29.9951C121.27 30.1676 121.528 30.2539 121.846 30.2539C122.064 30.2539 122.25 30.2266 122.405 30.1722C122.568 30.1177 122.713 30.045 122.841 29.9542L122.949 31.0303C122.713 31.1756 122.468 31.2755 122.214 31.33C121.969 31.3845 121.705 31.4117 121.424 31.4117ZM118.931 25.6363L119.19 24.4921H124.026L123.767 25.6363H118.931ZM131.577 31.4526C131.06 31.4526 130.583 31.3754 130.147 31.221C129.72 31.0666 129.348 30.8441 129.03 30.5536C128.712 30.263 128.462 29.9224 128.281 29.532L129.384 28.8645C129.575 29.3276 129.852 29.6863 130.215 29.9406C130.587 30.1858 131.032 30.3084 131.55 30.3084C131.968 30.3084 132.29 30.2266 132.517 30.0632C132.744 29.8997 132.858 29.6818 132.858 29.4094C132.858 29.2096 132.794 29.0507 132.667 28.9326C132.54 28.8055 132.345 28.7056 132.081 28.633L130.991 28.306C130.392 28.1426 129.947 27.9019 129.657 27.5841C129.375 27.2572 129.234 26.8803 129.234 26.4535C129.234 26.0449 129.343 25.6862 129.561 25.3775C129.779 25.0596 130.092 24.8099 130.501 24.6283C130.91 24.4467 131.391 24.3559 131.945 24.3559C132.608 24.3559 133.194 24.4921 133.702 24.7645C134.211 25.0369 134.583 25.4319 134.819 25.9496L133.77 26.6579C133.67 26.4218 133.53 26.2174 133.348 26.0449C133.166 25.8724 132.953 25.7362 132.708 25.6363C132.472 25.5364 132.208 25.4864 131.918 25.4864C131.473 25.4864 131.141 25.5636 130.923 25.718C130.705 25.8633 130.596 26.0631 130.596 26.3173C130.596 26.5444 130.683 26.7169 130.855 26.8349C131.028 26.953 131.232 27.0483 131.468 27.121L132.79 27.516C133.262 27.6522 133.629 27.8702 133.893 28.1698C134.156 28.4604 134.288 28.8055 134.288 29.2051C134.288 29.6682 134.174 30.0677 133.947 30.4037C133.72 30.7397 133.402 30.9985 132.994 31.1801C132.585 31.3618 132.113 31.4526 131.577 31.4526ZM138.371 31.4117C137.899 31.4117 137.494 31.3254 137.158 31.1529C136.832 30.9713 136.6 30.7079 136.464 30.3629C136.328 30.0178 136.314 29.6001 136.423 29.1097L137.826 23.0073L139.392 22.5715L137.853 29.1233C137.762 29.5229 137.817 29.8135 138.017 29.9951C138.216 30.1676 138.475 30.2539 138.793 30.2539C139.011 30.2539 139.197 30.2266 139.351 30.1722C139.515 30.1177 139.66 30.045 139.787 29.9542L139.896 31.0303C139.66 31.1756 139.415 31.2755 139.161 31.33C138.916 31.3845 138.652 31.4117 138.371 31.4117ZM135.878 25.6363L136.137 24.4921H140.972L140.714 25.6363H135.878ZM144.541 31.4253C143.897 31.4253 143.343 31.2937 142.88 31.0303C142.417 30.7579 142.058 30.3901 141.804 29.927C141.549 29.4639 141.422 28.9417 141.422 28.3605C141.422 27.6341 141.567 26.9712 141.858 26.3718C142.149 25.7634 142.571 25.2776 143.125 24.9143C143.679 24.5511 144.346 24.3695 145.127 24.3695C145.708 24.3695 146.208 24.4875 146.625 24.7236C147.043 24.9597 147.361 25.2912 147.579 25.718C147.797 26.1357 147.906 26.6261 147.906 27.1891C147.906 27.3707 147.892 27.5569 147.865 27.7476C147.847 27.9383 147.806 28.129 147.742 28.3197H142.253V27.2027H146.952L146.421 27.5841C146.457 27.4751 146.48 27.3707 146.489 27.2708C146.498 27.1619 146.503 27.062 146.503 26.9712C146.503 26.6715 146.444 26.4127 146.326 26.1947C146.217 25.9768 146.053 25.8088 145.835 25.6907C145.618 25.5727 145.359 25.5137 145.059 25.5137C144.65 25.5137 144.301 25.5999 144.01 25.7725C143.729 25.9359 143.502 26.163 143.329 26.4535C143.157 26.735 143.034 27.0483 142.961 27.3934C142.889 27.7385 142.852 28.079 142.852 28.415C142.852 28.7964 142.925 29.1279 143.07 29.4094C143.225 29.6818 143.434 29.8952 143.697 30.0496C143.969 30.2039 144.287 30.2811 144.65 30.2811C145.077 30.2811 145.422 30.1903 145.686 30.0087C145.958 29.8271 146.176 29.5955 146.339 29.314L147.511 29.9406C147.329 30.2494 147.089 30.5172 146.789 30.7443C146.498 30.9622 146.162 31.1302 145.781 31.2482C145.409 31.3663 144.995 31.4253 144.541 31.4253ZM148.235 34.1632L150.469 24.4921H151.763L151.423 26.3582L151.259 26.4535C151.368 26.0177 151.545 25.6453 151.791 25.3366C152.045 25.0278 152.354 24.7917 152.717 24.6283C153.089 24.4648 153.484 24.3831 153.902 24.3831C154.365 24.3831 154.778 24.4966 155.141 24.7236C155.514 24.9507 155.804 25.2821 156.013 25.718C156.231 26.1448 156.34 26.6624 156.34 27.2708C156.34 27.8429 156.254 28.3832 156.081 28.8918C155.909 29.3912 155.668 29.8316 155.359 30.213C155.051 30.5944 154.687 30.8941 154.27 31.112C153.861 31.33 153.412 31.4389 152.921 31.4389C152.494 31.4389 152.108 31.3572 151.763 31.1938C151.427 31.0303 151.16 30.7897 150.96 30.4718C150.76 30.1449 150.646 29.759 150.619 29.314L150.851 29.0961L149.693 34.1632H148.235ZM152.73 30.2675C153.03 30.2675 153.312 30.1949 153.575 30.0496C153.838 29.8952 154.07 29.6818 154.27 29.4094C154.469 29.1369 154.624 28.8282 154.733 28.4831C154.842 28.129 154.896 27.7521 154.896 27.3525C154.896 26.9621 154.828 26.6352 154.692 26.3718C154.565 26.0994 154.379 25.8951 154.133 25.7589C153.897 25.6136 153.62 25.5409 153.303 25.5409C152.976 25.5409 152.681 25.6181 152.417 25.7725C152.154 25.9269 151.922 26.1403 151.723 26.4127C151.532 26.676 151.382 26.9893 151.273 27.3525C151.173 27.7158 151.123 28.1017 151.123 28.5104C151.123 29.0371 151.259 29.4639 151.532 29.7908C151.804 30.1086 152.204 30.2675 152.73 30.2675ZM162.661 31.3027L162.034 24.4921H163.451L163.818 29.7771L166.543 24.4921H167.987L168.559 29.8453L171.283 24.4921H172.836L169.144 31.3027H167.551L166.938 26.2628L164.282 31.3027H162.661ZM176.134 31.4253C175.489 31.4253 174.935 31.2937 174.472 31.0303C174.009 30.7579 173.65 30.3901 173.396 29.927C173.142 29.4639 173.015 28.9417 173.015 28.3605C173.015 27.6341 173.16 26.9712 173.45 26.3718C173.741 25.7634 174.163 25.2776 174.717 24.9143C175.271 24.5511 175.939 24.3695 176.72 24.3695C177.301 24.3695 177.8 24.4875 178.218 24.7236C178.636 24.9597 178.953 25.2912 179.171 25.718C179.389 26.1357 179.498 26.6261 179.498 27.1891C179.498 27.3707 179.485 27.5569 179.457 27.7476C179.439 27.9383 179.398 28.129 179.335 28.3197H173.845V27.2027H178.545L178.014 27.5841C178.05 27.4751 178.073 27.3707 178.082 27.2708C178.091 27.1619 178.095 27.062 178.095 26.9712C178.095 26.6715 178.036 26.4127 177.918 26.1947C177.809 25.9768 177.646 25.8088 177.428 25.6907C177.21 25.5727 176.951 25.5137 176.651 25.5137C176.243 25.5137 175.893 25.5999 175.603 25.7725C175.321 25.9359 175.094 26.163 174.922 26.4535C174.749 26.735 174.626 27.0483 174.554 27.3934C174.481 27.7385 174.445 28.079 174.445 28.415C174.445 28.7964 174.517 29.1279 174.663 29.4094C174.817 29.6818 175.026 29.8952 175.289 30.0496C175.562 30.2039 175.88 30.2811 176.243 30.2811C176.67 30.2811 177.015 30.1903 177.278 30.0087C177.55 29.8271 177.768 29.5955 177.932 29.314L179.103 29.9406C178.922 30.2494 178.681 30.5172 178.381 30.7443C178.091 30.9622 177.755 31.1302 177.373 31.2482C177.001 31.3663 176.588 31.4253 176.134 31.4253ZM188.005 31.4526C187.487 31.4526 187.01 31.3754 186.574 31.221C186.148 31.0666 185.775 30.8441 185.457 30.5536C185.14 30.263 184.89 29.9224 184.708 29.532L185.812 28.8645C186.002 29.3276 186.279 29.6863 186.642 29.9406C187.015 30.1858 187.46 30.3084 187.977 30.3084C188.395 30.3084 188.717 30.2266 188.944 30.0632C189.172 29.8997 189.285 29.6818 189.285 29.4094C189.285 29.2096 189.221 29.0507 189.094 28.9326C188.967 28.8055 188.772 28.7056 188.509 28.633L187.419 28.306C186.82 28.1426 186.375 27.9019 186.084 27.5841C185.803 27.2572 185.662 26.8803 185.662 26.4535C185.662 26.0449 185.771 25.6862 185.989 25.3775C186.207 25.0596 186.52 24.8099 186.929 24.6283C187.337 24.4467 187.818 24.3559 188.372 24.3559C189.035 24.3559 189.621 24.4921 190.13 24.7645C190.638 25.0369 191.01 25.4319 191.246 25.9496L190.198 26.6579C190.098 26.4218 189.957 26.2174 189.775 26.0449C189.594 25.8724 189.38 25.7362 189.135 25.6363C188.899 25.5364 188.636 25.4864 188.345 25.4864C187.9 25.4864 187.569 25.5636 187.351 25.718C187.133 25.8633 187.024 26.0631 187.024 26.3173C187.024 26.5444 187.11 26.7169 187.283 26.8349C187.455 26.953 187.66 27.0483 187.896 27.121L189.217 27.516C189.689 27.6522 190.057 27.8702 190.32 28.1698C190.584 28.4604 190.715 28.8055 190.715 29.2051C190.715 29.6682 190.602 30.0677 190.375 30.4037C190.148 30.7397 189.83 30.9985 189.421 31.1801C189.013 31.3618 188.54 31.4526 188.005 31.4526ZM191.868 31.3027L194.157 21.4273H195.614L194.579 25.9087L194.361 26.0721C194.479 25.7089 194.665 25.4002 194.919 25.1459C195.174 24.8916 195.469 24.6964 195.805 24.5602C196.15 24.424 196.522 24.3559 196.922 24.3559C197.412 24.3559 197.834 24.4694 198.189 24.6964C198.543 24.9143 198.792 25.2276 198.938 25.6363C199.092 26.0449 199.106 26.5398 198.979 27.121L197.998 31.3027H196.54L197.494 27.2163C197.612 26.6987 197.562 26.2946 197.344 26.004C197.126 25.7044 196.781 25.5545 196.309 25.5545C195.946 25.5545 195.619 25.6363 195.328 25.7997C195.047 25.9632 194.81 26.2038 194.62 26.5216C194.429 26.8304 194.275 27.2209 194.157 27.6931L193.326 31.3027H191.868ZM203.564 31.4253C202.892 31.4253 202.32 31.2891 201.848 31.0167C201.385 30.7443 201.026 30.3765 200.772 29.9134C200.517 29.4412 200.39 28.9235 200.39 28.3605C200.39 27.5887 200.54 26.903 200.84 26.3037C201.148 25.7044 201.571 25.2322 202.107 24.8871C202.651 24.542 203.292 24.3695 204.027 24.3695C204.699 24.3695 205.267 24.5057 205.73 24.7781C206.202 25.0505 206.561 25.4183 206.806 25.8814C207.051 26.3446 207.174 26.8622 207.174 27.4343C207.174 28.188 207.024 28.8691 206.724 29.4775C206.434 30.0768 206.016 30.5536 205.471 30.9077C204.926 31.2528 204.29 31.4253 203.564 31.4253ZM203.591 30.2811C203.891 30.2811 204.168 30.2085 204.422 30.0632C204.685 29.9179 204.913 29.7136 205.103 29.4502C205.303 29.1869 205.453 28.8827 205.553 28.5376C205.662 28.1835 205.716 27.8066 205.716 27.407C205.716 27.0438 205.653 26.7214 205.525 26.4399C205.407 26.1584 205.217 25.9359 204.953 25.7725C204.699 25.5999 204.377 25.5137 203.986 25.5137C203.687 25.5137 203.405 25.5863 203.142 25.7316C202.878 25.8769 202.651 26.0812 202.461 26.3446C202.27 26.5988 202.12 26.903 202.011 27.2572C201.902 27.6023 201.848 27.9791 201.848 28.3878C201.848 28.7328 201.911 29.0507 202.038 29.3413C202.166 29.6319 202.356 29.8634 202.611 30.036C202.874 30.1994 203.201 30.2811 203.591 30.2811ZM210.712 31.4117C210.222 31.4117 209.791 31.3027 209.418 31.0848C209.055 30.8669 208.792 30.5536 208.628 30.1449C208.474 29.7363 208.465 29.2414 208.601 28.6602L209.568 24.4921H211.026L210.086 28.5376C209.959 29.0825 210.009 29.5002 210.236 29.7908C210.472 30.0723 210.821 30.213 211.285 30.213C211.648 30.213 211.966 30.1358 212.238 29.9815C212.52 29.818 212.756 29.5819 212.946 29.2732C213.137 28.9553 213.282 28.5648 213.382 28.1017L214.227 24.4921H215.684L214.104 31.3027H212.81L213.096 29.5864L213.232 29.6954C213.051 30.2675 212.728 30.6989 212.265 30.9894C211.811 31.271 211.294 31.4117 210.712 31.4117ZM218.321 31.4117C217.64 31.4117 217.163 31.2119 216.891 30.8124C216.618 30.4128 216.559 29.8861 216.713 29.2323L218.525 21.4273H219.983L218.171 29.2459C218.08 29.6001 218.103 29.8589 218.239 30.0223C218.375 30.1767 218.611 30.2539 218.947 30.2539C219.075 30.2539 219.183 30.2494 219.274 30.2403C219.374 30.2312 219.46 30.2176 219.533 30.1994L219.22 31.2619C219.075 31.3164 218.934 31.3527 218.798 31.3708C218.67 31.3981 218.512 31.4117 218.321 31.4117ZM223.33 31.4117C222.83 31.4117 222.385 31.2937 221.995 31.0576C221.604 30.8124 221.3 30.4718 221.082 30.036C220.864 29.6001 220.755 29.087 220.755 28.4967C220.755 27.9428 220.837 27.4161 221.001 26.9167C221.173 26.4172 221.409 25.9768 221.709 25.5954C222.018 25.2049 222.381 24.9007 222.799 24.6828C223.225 24.4648 223.689 24.3559 224.188 24.3559C224.56 24.3559 224.896 24.4194 225.196 24.5466C225.505 24.6737 225.764 24.8598 225.972 25.105C226.181 25.3502 226.322 25.6499 226.395 26.004L227.443 21.4273H228.901L226.626 31.3027H225.332L225.564 30.036C225.337 30.4537 225.023 30.7897 224.624 31.0439C224.233 31.2891 223.802 31.4117 223.33 31.4117ZM223.82 30.2539C224.12 30.2539 224.401 30.1767 224.665 30.0223C224.928 29.868 225.155 29.6546 225.346 29.3821C225.536 29.1097 225.686 28.7964 225.795 28.4423C225.913 28.079 225.972 27.7022 225.972 27.3117C225.972 26.9485 225.904 26.6352 225.768 26.3718C225.641 26.0994 225.459 25.8905 225.223 25.7452C224.996 25.5999 224.724 25.5273 224.406 25.5273C224.07 25.5273 223.766 25.6045 223.493 25.7589C223.23 25.9132 222.998 26.1266 222.799 26.3991C222.608 26.6624 222.458 26.9712 222.349 27.3253C222.24 27.6704 222.186 28.0336 222.186 28.415C222.186 28.8055 222.249 29.1369 222.376 29.4094C222.503 29.6818 222.69 29.8907 222.935 30.036C223.18 30.1812 223.475 30.2539 223.82 30.2539ZM235.955 31.4117C235.483 31.4117 235.078 31.3254 234.742 31.1529C234.416 30.9713 234.184 30.7079 234.048 30.3629C233.912 30.0178 233.898 29.6001 234.007 29.1097L235.41 23.0073L236.976 22.5715L235.437 29.1233C235.346 29.5229 235.401 29.8135 235.601 29.9951C235.8 30.1676 236.059 30.2539 236.377 30.2539C236.595 30.2539 236.781 30.2266 236.936 30.1722C237.099 30.1177 237.244 30.045 237.371 29.9542L237.48 31.0303C237.244 31.1756 236.999 31.2755 236.745 31.33C236.5 31.3845 236.236 31.4117 235.955 31.4117ZM233.462 25.6363L233.721 24.4921H238.556L238.298 25.6363H233.462ZM241.567 31.4117C241.068 31.4117 240.623 31.2937 240.232 31.0576C239.842 30.8124 239.537 30.4718 239.319 30.036C239.102 29.6001 238.993 29.087 238.993 28.4967C238.993 27.9428 239.074 27.4161 239.238 26.9167C239.41 26.4172 239.646 25.9768 239.946 25.5954C240.255 25.2049 240.618 24.9007 241.036 24.6828C241.463 24.4648 241.926 24.3559 242.425 24.3559C242.797 24.3559 243.133 24.4194 243.433 24.5466C243.742 24.6737 244.001 24.8598 244.21 25.105C244.418 25.3502 244.559 25.6499 244.632 26.004L244.986 24.4921H246.443L244.863 31.3027H243.569L243.801 30.036C243.574 30.4537 243.261 30.7897 242.861 31.0439C242.471 31.2891 242.039 31.4117 241.567 31.4117ZM242.071 30.2539C242.362 30.2539 242.634 30.1767 242.888 30.0223C243.152 29.868 243.379 29.6546 243.569 29.3821C243.769 29.1097 243.923 28.7964 244.032 28.4423C244.15 28.079 244.21 27.7022 244.21 27.3117C244.21 26.9485 244.141 26.6352 244.005 26.3718C243.878 26.0994 243.696 25.8905 243.46 25.7452C243.233 25.5999 242.961 25.5273 242.643 25.5273C242.307 25.5273 242.003 25.6045 241.73 25.7589C241.467 25.9132 241.236 26.1266 241.036 26.3991C240.845 26.6624 240.695 26.9712 240.586 27.3253C240.477 27.6704 240.423 28.0336 240.423 28.415C240.423 28.8055 240.486 29.1369 240.613 29.4094C240.741 29.6818 240.927 29.8907 241.172 30.036C241.417 30.1812 241.717 30.2539 242.071 30.2539ZM254.823 24.4921L251.159 27.5841L250.914 27.7203L248.326 29.9134L248.53 28.2788L252.957 24.4921H254.823ZM250.791 21.4273L248.503 31.3027H247.045L249.334 21.4273H250.791ZM251.472 26.7805L253.447 31.3027H251.935L250.369 27.5841L251.472 26.7805ZM257.888 31.4253C257.244 31.4253 256.69 31.2937 256.227 31.0303C255.763 30.7579 255.405 30.3901 255.151 29.927C254.896 29.4639 254.769 28.9417 254.769 28.3605C254.769 27.6341 254.914 26.9712 255.205 26.3718C255.496 25.7634 255.918 25.2776 256.472 24.9143C257.026 24.5511 257.693 24.3695 258.474 24.3695C259.055 24.3695 259.555 24.4875 259.972 24.7236C260.39 24.9597 260.708 25.2912 260.926 25.718C261.144 26.1357 261.253 26.6261 261.253 27.1891C261.253 27.3707 261.239 27.5569 261.212 27.7476C261.194 27.9383 261.153 28.129 261.089 28.3197H255.6V27.2027H260.299L259.768 27.5841C259.804 27.4751 259.827 27.3707 259.836 27.2708C259.845 27.1619 259.85 27.062 259.85 26.9712C259.85 26.6715 259.791 26.4127 259.673 26.1947C259.564 25.9768 259.4 25.8088 259.182 25.6907C258.964 25.5727 258.706 25.5137 258.406 25.5137C257.997 25.5137 257.648 25.5999 257.357 25.7725C257.076 25.9359 256.849 26.163 256.676 26.4535C256.504 26.735 256.381 27.0483 256.308 27.3934C256.236 27.7385 256.199 28.079 256.199 28.415C256.199 28.7964 256.272 29.1279 256.417 29.4094C256.572 29.6818 256.781 29.8952 257.044 30.0496C257.316 30.2039 257.634 30.2811 257.997 30.2811C258.424 30.2811 258.769 30.1903 259.033 30.0087C259.305 29.8271 259.523 29.5955 259.686 29.314L260.858 29.9406C260.676 30.2494 260.436 30.5172 260.136 30.7443C259.845 30.9622 259.509 31.1302 259.128 31.2482C258.756 31.3663 258.342 31.4253 257.888 31.4253ZM264.182 28.4423L264.659 26.4263C265.24 26.4263 265.744 26.3718 266.171 26.2628C266.607 26.1539 266.943 25.9723 267.179 25.718C267.424 25.4637 267.547 25.1141 267.547 24.6691C267.547 24.2605 267.397 23.9608 267.097 23.7701C266.807 23.5704 266.439 23.4705 265.994 23.4705C265.458 23.4705 265.018 23.6021 264.673 23.8655C264.328 24.1288 264.078 24.483 263.924 24.928L262.67 24.2333C262.825 23.8428 263.056 23.4932 263.365 23.1844C263.683 22.8757 264.069 22.635 264.523 22.4625C264.977 22.29 265.499 22.2037 266.089 22.2037C266.661 22.2037 267.17 22.299 267.615 22.4897C268.069 22.6714 268.423 22.9392 268.677 23.2934C268.932 23.6385 269.059 24.0516 269.059 24.5329C269.059 25.1141 268.923 25.6045 268.65 26.004C268.387 26.3945 268.014 26.7033 267.533 26.9303C267.052 27.1482 266.498 27.2799 265.871 27.3253L265.585 28.4423H264.182ZM264.4 31.4253C264.128 31.4253 263.905 31.3527 263.733 31.2074C263.56 31.0621 263.474 30.8623 263.474 30.608C263.474 30.2721 263.574 30.0042 263.774 29.8044C263.973 29.6046 264.228 29.5047 264.536 29.5047C264.809 29.5047 265.031 29.5819 265.204 29.7363C265.376 29.8816 265.463 30.0814 265.463 30.3356C265.463 30.6716 265.363 30.9395 265.163 31.1393C264.963 31.33 264.709 31.4253 264.4 31.4253Z" fill="black"/>
</svg>
