<svg width="283" height="73" viewBox="0 0 283 73" fill="none" xmlns="http://www.w3.org/2000/svg">
<path fill-rule="evenodd" clip-rule="evenodd" d="M13.001 3.91785C5.82127 3.91785 0.000976562 9.73815 0.000976562 16.9178V46.9178C0.000976562 54.0975 5.82128 59.9178 13.001 59.9178H238.197C241.893 63.9524 249.905 69.8845 262.388 72.0329C259.347 69.7573 253.986 64.901 251.261 59.9178H270.001C277.181 59.9178 283.001 54.0975 283.001 46.9178V16.9178C283.001 9.73814 277.181 3.91785 270.001 3.91785H13.001Z" fill="#E5E5E5"/>
<mask id="path-2-inside-1_1432_947" fill="white">
<path fill-rule="evenodd" clip-rule="evenodd" d="M13 0C5.8203 0 0 5.8203 0 13V43C0 50.1797 5.8203 56 13 56H238.196C241.892 60.0345 249.904 65.9666 262.387 68.1151C259.346 65.8394 253.985 60.9832 251.26 56H270C277.18 56 283 50.1797 283 43V13C283 5.8203 277.18 0 270 0H13Z"/>
</mask>
<path fill-rule="evenodd" clip-rule="evenodd" d="M13 0C5.8203 0 0 5.8203 0 13V43C0 50.1797 5.8203 56 13 56H238.196C241.892 60.0345 249.904 65.9666 262.387 68.1151C259.346 65.8394 253.985 60.9832 251.26 56H270C277.18 56 283 50.1797 283 43V13C283 5.8203 277.18 0 270 0H13Z" fill="white"/>
<path d="M238.196 56L238.615 55.6166L238.446 55.4324H238.196V56ZM262.387 68.1151L262.291 68.6744L262.727 67.6607L262.387 68.1151ZM251.26 56V55.4324H250.303L250.762 56.2723L251.26 56ZM0 13H0.567555C0.567555 6.13375 6.13375 0.567555 13 0.567555V0V-0.567555C5.50685 -0.567555 -0.567555 5.50685 -0.567555 13H0ZM0 43H0.567555V13H0H-0.567555V43H0ZM13 56V55.4324C6.13375 55.4324 0.567555 49.8662 0.567555 43H0H-0.567555C-0.567555 50.4932 5.50685 56.5676 13 56.5676V56ZM238.196 56V55.4324H13V56V56.5676H238.196V56ZM262.387 68.1151L262.484 67.5558C250.133 65.4301 242.232 59.565 238.615 55.6166L238.196 56L237.778 56.3834C241.553 60.504 249.676 66.5031 262.291 68.6744L262.387 68.1151ZM251.26 56L250.762 56.2723C253.544 61.3602 258.981 66.2748 262.047 68.5695L262.387 68.1151L262.727 67.6607C259.712 65.404 254.426 60.6061 251.758 55.7277L251.26 56ZM270 56V55.4324H251.26V56V56.5676H270V56ZM283 43H282.432C282.432 49.8662 276.866 55.4324 270 55.4324V56V56.5676C277.493 56.5676 283.568 50.4932 283.568 43H283ZM283 13H282.432V43H283H283.568V13H283ZM270 0V0.567555C276.866 0.567555 282.432 6.13375 282.432 13H283H283.568C283.568 5.50685 277.493 -0.567555 270 -0.567555V0ZM13 0V0.567555H270V0V-0.567555H13V0Z" fill="#DADDDD" mask="url(#path-2-inside-1_1432_947)"/>
<path d="M97.6527 13.01V22.0001H96.1816V13.01H97.6527ZM91.741 13.01V22.0001H90.2835V13.01H91.741ZM96.9171 16.824V18.0772H91.0191V16.824H96.9171ZM102.972 15.0532C103.635 15.0532 104.22 15.194 104.729 15.4755C105.237 15.757 105.632 16.1657 105.914 16.7014C106.205 17.2281 106.35 17.8592 106.35 18.5948C106.35 19.3303 106.205 19.966 105.914 20.5018C105.632 21.0285 105.237 21.4326 104.729 21.7141C104.22 21.9956 103.635 22.1363 102.972 22.1363C102.309 22.1363 101.723 21.9956 101.215 21.7141C100.706 21.4326 100.306 21.0285 100.016 20.5018C99.7253 19.966 99.58 19.3303 99.58 18.5948C99.58 17.8592 99.7253 17.2281 100.016 16.7014C100.306 16.1657 100.706 15.757 101.215 15.4755C101.723 15.194 102.309 15.0532 102.972 15.0532ZM102.972 16.1974C102.563 16.1974 102.213 16.2928 101.923 16.4835C101.641 16.6651 101.423 16.933 101.269 17.2871C101.115 17.6413 101.037 18.0772 101.037 18.5948C101.037 19.1033 101.115 19.5392 101.269 19.9024C101.423 20.2566 101.641 20.529 101.923 20.7197C102.213 20.9013 102.563 20.9921 102.972 20.9921C103.38 20.9921 103.725 20.9013 104.007 20.7197C104.288 20.529 104.506 20.2566 104.661 19.9024C104.815 19.5392 104.892 19.1033 104.892 18.5948C104.892 18.0772 104.815 17.6413 104.661 17.2871C104.506 16.933 104.288 16.6651 104.007 16.4835C103.725 16.2928 103.38 16.1974 102.972 16.1974ZM116.647 15.1895H118.227L115.939 22.0001H114.345L112.629 16.9466L111.008 22.0001H109.414L107.139 15.1895H108.706L110.259 20.5699L111.948 15.1895H113.405L115.094 20.5699L116.647 15.1895ZM132.117 15.1895H133.697L131.409 22.0001H129.815L128.099 16.9466L126.478 22.0001H124.884L122.61 15.1895H124.176L125.729 20.5699L127.418 15.1895H128.875L130.564 20.5699L132.117 15.1895ZM137.863 15.0532C138.526 15.0532 139.112 15.194 139.62 15.4755C140.129 15.757 140.524 16.1657 140.805 16.7014C141.096 17.2281 141.241 17.8592 141.241 18.5948C141.241 19.3303 141.096 19.966 140.805 20.5018C140.524 21.0285 140.129 21.4326 139.62 21.7141C139.112 21.9956 138.526 22.1363 137.863 22.1363C137.2 22.1363 136.614 21.9956 136.106 21.7141C135.597 21.4326 135.198 21.0285 134.907 20.5018C134.617 19.966 134.471 19.3303 134.471 18.5948C134.471 17.8592 134.617 17.2281 134.907 16.7014C135.198 16.1657 135.597 15.757 136.106 15.4755C136.614 15.194 137.2 15.0532 137.863 15.0532ZM137.863 16.1974C137.454 16.1974 137.105 16.2928 136.814 16.4835C136.533 16.6651 136.315 16.933 136.16 17.2871C136.006 17.6413 135.929 18.0772 135.929 18.5948C135.929 19.1033 136.006 19.5392 136.16 19.9024C136.315 20.2566 136.533 20.529 136.814 20.7197C137.105 20.9013 137.454 20.9921 137.863 20.9921C138.272 20.9921 138.617 20.9013 138.898 20.7197C139.18 20.529 139.398 20.2566 139.552 19.9024C139.706 19.5392 139.784 19.1033 139.784 18.5948C139.784 18.0772 139.706 17.6413 139.552 17.2871C139.398 16.933 139.18 16.6651 138.898 16.4835C138.617 16.2928 138.272 16.1974 137.863 16.1974ZM145.499 22.1363C145.054 22.1363 144.641 22.0546 144.26 21.8912C143.887 21.7277 143.588 21.4643 143.361 21.1011C143.134 20.7379 143.02 20.2657 143.02 19.6845V15.1895H144.478V19.3167C144.478 19.9342 144.609 20.361 144.873 20.5971C145.136 20.8241 145.504 20.9377 145.976 20.9377C146.203 20.9377 146.421 20.9013 146.63 20.8287C146.848 20.747 147.043 20.6244 147.216 20.4609C147.388 20.2884 147.52 20.0704 147.611 19.8071C147.71 19.5437 147.76 19.235 147.76 18.8808V15.1895H149.218V22.0001H147.938L147.869 20.8968C147.633 21.3236 147.315 21.6369 146.916 21.8367C146.516 22.0364 146.044 22.1363 145.499 22.1363ZM152.912 12.1247V20.0931C152.912 20.4291 152.971 20.6607 153.089 20.7878C153.207 20.915 153.402 20.9785 153.674 20.9785C153.838 20.9785 153.974 20.9694 154.083 20.9513C154.201 20.924 154.346 20.8786 154.519 20.8151L154.355 21.9048C154.201 21.9774 154.024 22.0319 153.824 22.0682C153.624 22.1136 153.425 22.1363 153.225 22.1363C152.616 22.1363 152.167 21.982 151.876 21.6732C151.595 21.3554 151.454 20.8696 151.454 20.2157V12.1247H152.912ZM158.354 22.1363C157.791 22.1363 157.277 21.9956 156.814 21.7141C156.36 21.4326 156.002 21.0285 155.738 20.5018C155.475 19.9751 155.343 19.344 155.343 18.6084C155.343 17.8456 155.484 17.2009 155.766 16.6742C156.047 16.1475 156.424 15.7479 156.896 15.4755C157.368 15.194 157.886 15.0532 158.449 15.0532C159.03 15.0532 159.52 15.2122 159.92 15.53C160.32 15.8478 160.587 16.261 160.724 16.7695L160.56 16.9194V12.1247H162.018V22.0001H160.724L160.615 20.1476L160.805 20.1612C160.742 20.5699 160.592 20.924 160.356 21.2237C160.12 21.5143 159.825 21.7413 159.471 21.9048C159.125 22.0591 158.753 22.1363 158.354 22.1363ZM158.667 20.9649C159.057 20.9649 159.393 20.865 159.675 20.6652C159.956 20.4655 160.174 20.1839 160.329 19.8207C160.483 19.4575 160.56 19.0216 160.56 18.5131C160.56 18.0409 160.483 17.6368 160.329 17.3008C160.174 16.9557 159.956 16.6923 159.675 16.5107C159.402 16.3291 159.085 16.2383 158.721 16.2383C158.113 16.2383 157.641 16.4472 157.305 16.8649C156.969 17.2826 156.801 17.8592 156.801 18.5948C156.801 19.3303 156.964 19.9115 157.291 20.3383C157.618 20.756 158.077 20.9649 158.667 20.9649ZM174.408 15.1895L171.425 22.8038C171.225 23.3305 171.007 23.7482 170.771 24.0569C170.544 24.3657 170.281 24.5882 169.981 24.7244C169.682 24.8606 169.332 24.9287 168.932 24.9287C168.606 24.9287 168.301 24.8833 168.02 24.7925C167.747 24.7108 167.507 24.5973 167.298 24.452L167.652 23.3214C167.825 23.4667 168.006 23.5757 168.197 23.6483C168.397 23.7209 168.61 23.7573 168.837 23.7573C169.082 23.7573 169.3 23.6892 169.491 23.553C169.691 23.4258 169.868 23.167 170.022 22.7765L170.322 22.041L169.6 20.3519L167.475 15.1895H169.11L170.621 19.4666L171.017 20.747L171.466 19.344L172.896 15.1895H174.408ZM178.567 15.0532C179.23 15.0532 179.816 15.194 180.325 15.4755C180.833 15.757 181.228 16.1657 181.51 16.7014C181.8 17.2281 181.945 17.8592 181.945 18.5948C181.945 19.3303 181.8 19.966 181.51 20.5018C181.228 21.0285 180.833 21.4326 180.325 21.7141C179.816 21.9956 179.23 22.1363 178.567 22.1363C177.904 22.1363 177.319 21.9956 176.81 21.7141C176.302 21.4326 175.902 21.0285 175.612 20.5018C175.321 19.966 175.176 19.3303 175.176 18.5948C175.176 17.8592 175.321 17.2281 175.612 16.7014C175.902 16.1657 176.302 15.757 176.81 15.4755C177.319 15.194 177.904 15.0532 178.567 15.0532ZM178.567 16.1974C178.159 16.1974 177.809 16.2928 177.519 16.4835C177.237 16.6651 177.019 16.933 176.865 17.2871C176.71 17.6413 176.633 18.0772 176.633 18.5948C176.633 19.1033 176.71 19.5392 176.865 19.9024C177.019 20.2566 177.237 20.529 177.519 20.7197C177.809 20.9013 178.159 20.9921 178.567 20.9921C178.976 20.9921 179.321 20.9013 179.603 20.7197C179.884 20.529 180.102 20.2566 180.256 19.9024C180.411 19.5392 180.488 19.1033 180.488 18.5948C180.488 18.0772 180.411 17.6413 180.256 17.2871C180.102 16.933 179.884 16.6651 179.603 16.4835C179.321 16.2928 178.976 16.1974 178.567 16.1974ZM186.204 22.1363C185.759 22.1363 185.345 22.0546 184.964 21.8912C184.592 21.7277 184.292 21.4643 184.065 21.1011C183.838 20.7379 183.725 20.2657 183.725 19.6845V15.1895H185.182V19.3167C185.182 19.9342 185.314 20.361 185.577 20.5971C185.84 20.8241 186.208 20.9377 186.68 20.9377C186.907 20.9377 187.125 20.9013 187.334 20.8287C187.552 20.747 187.747 20.6244 187.92 20.4609C188.092 20.2884 188.224 20.0704 188.315 19.8071C188.415 19.5437 188.465 19.235 188.465 18.8808V15.1895H189.922V22.0001H188.642L188.574 20.8968C188.338 21.3236 188.02 21.6369 187.62 21.8367C187.221 22.0364 186.748 22.1363 186.204 22.1363ZM199.244 22.1363C198.681 22.1363 198.168 21.9956 197.705 21.7141C197.251 21.4326 196.892 21.0285 196.629 20.5018C196.366 19.9751 196.234 19.344 196.234 18.6084C196.234 17.8456 196.375 17.2009 196.656 16.6742C196.938 16.1475 197.314 15.7479 197.787 15.4755C198.259 15.194 198.776 15.0532 199.339 15.0532C199.921 15.0532 200.411 15.2122 200.811 15.53C201.21 15.8478 201.478 16.261 201.614 16.7695L201.451 16.9194V12.1247H202.908V22.0001H201.614L201.505 20.1476L201.696 20.1612C201.632 20.5699 201.483 20.924 201.246 21.2237C201.01 21.5143 200.715 21.7413 200.361 21.9048C200.016 22.0591 199.644 22.1363 199.244 22.1363ZM199.557 20.9649C199.948 20.9649 200.284 20.865 200.565 20.6652C200.847 20.4655 201.065 20.1839 201.219 19.8207C201.374 19.4575 201.451 19.0216 201.451 18.5131C201.451 18.0409 201.374 17.6368 201.219 17.3008C201.065 16.9557 200.847 16.6923 200.565 16.5107C200.293 16.3291 199.975 16.2383 199.612 16.2383C199.003 16.2383 198.531 16.4472 198.195 16.8649C197.859 17.2826 197.691 17.8592 197.691 18.5948C197.691 19.3303 197.855 19.9115 198.182 20.3383C198.509 20.756 198.967 20.9649 199.557 20.9649ZM208.165 22.1363C207.484 22.1363 206.885 21.9956 206.367 21.7141C205.85 21.4326 205.446 21.0285 205.155 20.5018C204.874 19.966 204.733 19.3303 204.733 18.5948C204.733 17.8592 204.874 17.2281 205.155 16.7014C205.446 16.1657 205.845 15.757 206.354 15.4755C206.862 15.194 207.439 15.0532 208.084 15.0532C208.747 15.0532 209.31 15.1895 209.773 15.4619C210.236 15.7343 210.59 16.1066 210.835 16.5788C211.08 17.051 211.203 17.5868 211.203 18.1862C211.203 18.3496 211.198 18.504 211.189 18.6493C211.18 18.7946 211.167 18.9217 211.149 19.0307H205.673V17.9137H210.508L209.786 18.1317C209.786 17.5142 209.632 17.042 209.323 16.715C209.015 16.3791 208.592 16.2111 208.056 16.2111C207.666 16.2111 207.325 16.3019 207.035 16.4835C206.744 16.6651 206.522 16.9375 206.367 17.3008C206.213 17.6549 206.136 18.0908 206.136 18.6084C206.136 19.1169 206.218 19.5483 206.381 19.9024C206.545 20.2566 206.776 20.5245 207.076 20.7061C207.375 20.8877 207.73 20.9785 208.138 20.9785C208.592 20.9785 208.96 20.8923 209.242 20.7197C209.523 20.5472 209.746 20.3065 209.909 19.9978L211.067 20.5426C210.903 20.8696 210.681 21.1556 210.399 21.4008C210.127 21.6369 209.8 21.8185 209.419 21.9456C209.037 22.0728 208.62 22.1363 208.165 22.1363ZM215.632 22.1363C214.951 22.1363 214.329 22.0047 213.766 21.7413C213.203 21.478 212.758 21.1057 212.431 20.6244L213.439 19.7526C213.638 20.1249 213.924 20.4246 214.297 20.6516C214.678 20.8696 215.132 20.9785 215.659 20.9785C216.077 20.9785 216.408 20.9059 216.653 20.7606C216.898 20.6153 217.021 20.411 217.021 20.1476C217.021 19.9751 216.962 19.8253 216.844 19.6981C216.735 19.5619 216.522 19.4575 216.204 19.3848L214.774 19.0852C214.047 18.9399 213.529 18.7083 213.221 18.3905C212.912 18.0636 212.758 17.6504 212.758 17.1509C212.758 16.7786 212.867 16.4335 213.084 16.1157C213.302 15.7979 213.62 15.5436 214.038 15.3529C214.465 15.1531 214.973 15.0532 215.564 15.0532C216.245 15.0532 216.826 15.1758 217.307 15.421C217.788 15.6571 218.156 15.9977 218.41 16.4426L217.402 17.2871C217.23 16.9239 216.976 16.656 216.64 16.4835C216.304 16.3019 215.954 16.2111 215.591 16.2111C215.3 16.2111 215.05 16.2474 214.842 16.32C214.633 16.3927 214.474 16.4926 214.365 16.6197C214.256 16.7468 214.201 16.8967 214.201 17.0692C214.201 17.2508 214.27 17.4097 214.406 17.5459C214.542 17.6822 214.787 17.7866 215.141 17.8592L216.694 18.1862C217.348 18.3133 217.807 18.5312 218.07 18.84C218.342 19.1396 218.479 19.5074 218.479 19.9433C218.479 20.3792 218.365 20.7651 218.138 21.1011C217.911 21.428 217.584 21.6823 217.157 21.8639C216.73 22.0455 216.222 22.1363 215.632 22.1363ZM223.182 15.0532C223.727 15.0532 224.19 15.135 224.572 15.2984C224.962 15.4528 225.289 15.6753 225.552 15.9659C225.816 16.2565 226.015 16.5879 226.152 16.9602L224.776 17.5051C224.658 17.0874 224.467 16.7695 224.204 16.5516C223.95 16.3246 223.614 16.2111 223.196 16.2111C222.787 16.2111 222.438 16.3064 222.147 16.4971C221.856 16.6787 221.634 16.9466 221.48 17.3008C221.334 17.6549 221.262 18.0908 221.262 18.6084C221.262 19.1169 221.339 19.5483 221.493 19.9024C221.648 20.2566 221.87 20.5245 222.161 20.7061C222.451 20.8877 222.796 20.9785 223.196 20.9785C223.505 20.9785 223.773 20.9286 224 20.8287C224.227 20.7197 224.413 20.5699 224.558 20.3792C224.712 20.1794 224.817 19.9388 224.871 19.6573L226.193 20.1068C226.065 20.5154 225.866 20.8741 225.593 21.1828C225.33 21.4825 224.998 21.7186 224.599 21.8912C224.199 22.0546 223.741 22.1363 223.223 22.1363C222.551 22.1363 221.956 21.9956 221.439 21.7141C220.921 21.4326 220.517 21.0285 220.226 20.5018C219.945 19.966 219.804 19.3303 219.804 18.5948C219.804 17.8592 219.945 17.2281 220.226 16.7014C220.517 16.1657 220.917 15.757 221.425 15.4755C221.943 15.194 222.528 15.0532 223.182 15.0532ZM227.889 22.0001V15.1895H229.128L229.264 16.4154C229.446 15.9704 229.714 15.6344 230.068 15.4074C230.431 15.1713 230.876 15.0532 231.403 15.0532C231.539 15.0532 231.675 15.0669 231.812 15.0941C231.948 15.1123 232.061 15.1441 232.152 15.1895L231.948 16.4699C231.848 16.4335 231.734 16.4063 231.607 16.3881C231.489 16.3609 231.326 16.3473 231.117 16.3473C230.835 16.3473 230.559 16.4245 230.286 16.5788C230.014 16.7241 229.787 16.9466 229.605 17.2463C229.432 17.5459 229.346 17.9273 229.346 18.3905V22.0001H227.889ZM234.264 14.0453C233.947 14.0453 233.701 13.9681 233.529 13.8137C233.365 13.6502 233.284 13.4232 233.284 13.1326C233.284 12.8421 233.365 12.6196 233.529 12.4652C233.701 12.3108 233.947 12.2336 234.264 12.2336C234.573 12.2336 234.809 12.3108 234.973 12.4652C235.145 12.6196 235.231 12.8421 235.231 13.1326C235.231 13.4232 235.145 13.6502 234.973 13.8137C234.809 13.9681 234.573 14.0453 234.264 14.0453ZM234.986 15.1895V22.0001H233.529V15.1895H234.986ZM240.917 22.1363C240.518 22.1363 240.15 22.0591 239.814 21.9048C239.487 21.7504 239.21 21.537 238.983 21.2646C238.756 20.9831 238.588 20.6698 238.479 20.3247L238.656 20.0931L238.547 22.0001H237.267V12.1247H238.724V16.9057L238.561 16.6742C238.733 16.202 239.028 15.816 239.446 15.5164C239.864 15.2076 240.368 15.0532 240.958 15.0532C241.503 15.0532 242.002 15.194 242.456 15.4755C242.92 15.757 243.283 16.1611 243.546 16.6878C243.809 17.2145 243.941 17.8547 243.941 18.6084C243.941 19.344 243.805 19.9751 243.533 20.5018C243.269 21.0285 242.906 21.4326 242.443 21.7141C241.989 21.9956 241.48 22.1363 240.917 22.1363ZM240.604 20.9649C241.194 20.9649 241.653 20.756 241.98 20.3383C242.316 19.9115 242.484 19.3303 242.484 18.5948C242.484 17.8592 242.32 17.2826 241.993 16.8649C241.666 16.4472 241.208 16.2383 240.618 16.2383C240.236 16.2383 239.905 16.3382 239.623 16.538C239.342 16.7287 239.119 17.0011 238.956 17.3552C238.801 17.7094 238.724 18.1317 238.724 18.622C238.724 19.1033 238.801 19.521 238.956 19.8752C239.11 20.2203 239.328 20.4882 239.61 20.6789C239.9 20.8696 240.232 20.9649 240.604 20.9649ZM248.803 22.1363C248.122 22.1363 247.523 21.9956 247.005 21.7141C246.488 21.4326 246.084 21.0285 245.793 20.5018C245.511 19.966 245.371 19.3303 245.371 18.5948C245.371 17.8592 245.511 17.2281 245.793 16.7014C246.084 16.1657 246.483 15.757 246.992 15.4755C247.5 15.194 248.077 15.0532 248.722 15.0532C249.384 15.0532 249.948 15.1895 250.411 15.4619C250.874 15.7343 251.228 16.1066 251.473 16.5788C251.718 17.051 251.841 17.5868 251.841 18.1862C251.841 18.3496 251.836 18.504 251.827 18.6493C251.818 18.7946 251.805 18.9217 251.786 19.0307H246.311V17.9137H251.146L250.424 18.1317C250.424 17.5142 250.27 17.042 249.961 16.715C249.652 16.3791 249.23 16.2111 248.694 16.2111C248.304 16.2111 247.963 16.3019 247.673 16.4835C247.382 16.6651 247.16 16.9375 247.005 17.3008C246.851 17.6549 246.774 18.0908 246.774 18.6084C246.774 19.1169 246.855 19.5483 247.019 19.9024C247.182 20.2566 247.414 20.5245 247.714 20.7061C248.013 20.8877 248.367 20.9785 248.776 20.9785C249.23 20.9785 249.598 20.8923 249.879 20.7197C250.161 20.5472 250.383 20.3065 250.547 19.9978L251.705 20.5426C251.541 20.8696 251.319 21.1556 251.037 21.4008C250.765 21.6369 250.438 21.8185 250.056 21.9456C249.675 22.0728 249.257 22.1363 248.803 22.1363ZM36.4975 30.2825H34.4952V40.1307H36.4975V41.2885H33.1739V29.1247H36.4975V30.2825ZM44.4841 32.1895L41.4465 35.2951L41.1332 35.5131L38.9947 37.7333L38.981 36.0715L42.7542 32.1895H44.4841ZM39.5123 29.1247V39.0001H38.0548V29.1247H39.5123ZM41.6236 34.4778L44.6475 39.0001H42.9585L40.5339 35.3087L41.6236 34.4778ZM48.7135 39.1363C48.0324 39.1363 47.4331 38.9956 46.9155 38.7141C46.3979 38.4326 45.9938 38.0285 45.7032 37.5018C45.4217 36.966 45.2809 36.3303 45.2809 35.5948C45.2809 34.8592 45.4217 34.2281 45.7032 33.7014C45.9938 33.1657 46.3933 32.757 46.9018 32.4755C47.4104 32.194 47.987 32.0532 48.6318 32.0532C49.2947 32.0532 49.8577 32.1895 50.3208 32.4619C50.7839 32.7343 51.1381 33.1066 51.3833 33.5788C51.6284 34.051 51.751 34.5868 51.751 35.1862C51.751 35.3496 51.7465 35.504 51.7374 35.6493C51.7283 35.7946 51.7147 35.9217 51.6966 36.0307H46.2208V34.9137H51.0563L50.3344 35.1317C50.3344 34.5142 50.18 34.042 49.8713 33.715C49.5625 33.3791 49.1403 33.2111 48.6045 33.2111C48.214 33.2111 47.8735 33.3019 47.5829 33.4835C47.2923 33.6651 47.0698 33.9375 46.9155 34.3008C46.7611 34.6549 46.6839 35.0908 46.6839 35.6084C46.6839 36.1169 46.7656 36.5483 46.9291 36.9024C47.0925 37.2566 47.3241 37.5245 47.6238 37.7061C47.9234 37.8877 48.2776 37.9785 48.6862 37.9785C49.1403 37.9785 49.5081 37.8923 49.7896 37.7197C50.0711 37.5472 50.2936 37.3065 50.457 36.9978L51.6148 37.5426C51.4514 37.8696 51.2289 38.1556 50.9474 38.4008C50.675 38.6369 50.348 38.8185 49.9666 38.9456C49.5852 39.0728 49.1675 39.1363 48.7135 39.1363ZM59.2654 32.1895L56.2824 39.8038C56.0826 40.3305 55.8646 40.7482 55.6285 41.0569C55.4015 41.3657 55.1382 41.5882 54.8385 41.7244C54.5388 41.8606 54.1892 41.9287 53.7897 41.9287C53.4627 41.9287 53.1585 41.8833 52.877 41.7925C52.6046 41.7108 52.364 41.5973 52.1551 41.452L52.5093 40.3214C52.6818 40.4667 52.8634 40.5757 53.0541 40.6483C53.2539 40.7209 53.4673 40.7573 53.6943 40.7573C53.9395 40.7573 54.1574 40.6892 54.3481 40.553C54.5479 40.4258 54.725 40.167 54.8794 39.7765L55.179 39.041L54.4571 37.3519L52.3322 32.1895H53.9667L55.4787 36.4666L55.8737 37.747L56.3232 36.344L57.7535 32.1895H59.2654ZM67.5479 32.0532C68.0928 32.0532 68.5559 32.135 68.9373 32.2984C69.3278 32.4528 69.6547 32.6753 69.9181 32.9659C70.1814 33.2565 70.3812 33.5879 70.5174 33.9602L69.1416 34.5051C69.0236 34.0874 68.8329 33.7695 68.5695 33.5516C68.3153 33.3246 67.9793 33.2111 67.5616 33.2111C67.1529 33.2111 66.8033 33.3064 66.5127 33.4971C66.2221 33.6787 65.9997 33.9466 65.8453 34.3008C65.7 34.6549 65.6273 35.0908 65.6273 35.6084C65.6273 36.1169 65.7045 36.5483 65.8589 36.9024C66.0133 37.2566 66.2358 37.5245 66.5263 37.7061C66.8169 37.8877 67.162 37.9785 67.5616 37.9785C67.8703 37.9785 68.1382 37.9286 68.3652 37.8287C68.5922 37.7197 68.7784 37.5699 68.9237 37.3792C69.0781 37.1794 69.1825 36.9388 69.237 36.6573L70.5583 37.1068C70.4311 37.5154 70.2313 37.8741 69.9589 38.1828C69.6956 38.4825 69.3641 38.7186 68.9646 38.8912C68.565 39.0546 68.1064 39.1363 67.5888 39.1363C66.9168 39.1363 66.322 38.9956 65.8044 38.7141C65.2868 38.4326 64.8827 38.0285 64.5921 37.5018C64.3106 36.966 64.1699 36.3303 64.1699 35.5948C64.1699 34.8592 64.3106 34.2281 64.5921 33.7014C64.8827 33.1657 65.2823 32.757 65.7908 32.4755C66.3084 32.194 66.8941 32.0532 67.5479 32.0532ZM75.2103 32.0532C75.8732 32.0532 76.4589 32.194 76.9674 32.4755C77.4759 32.757 77.871 33.1657 78.1525 33.7014C78.4431 34.2281 78.5884 34.8592 78.5884 35.5948C78.5884 36.3303 78.4431 36.966 78.1525 37.5018C77.871 38.0285 77.4759 38.4326 76.9674 38.7141C76.4589 38.9956 75.8732 39.1363 75.2103 39.1363C74.5474 39.1363 73.9616 38.9956 73.4531 38.7141C72.9446 38.4326 72.545 38.0285 72.2544 37.5018C71.9638 36.966 71.8186 36.3303 71.8186 35.5948C71.8186 34.8592 71.9638 34.2281 72.2544 33.7014C72.545 33.1657 72.9446 32.757 73.4531 32.4755C73.9616 32.194 74.5474 32.0532 75.2103 32.0532ZM75.2103 33.1974C74.8016 33.1974 74.452 33.2928 74.1614 33.4835C73.8799 33.6651 73.662 33.933 73.5076 34.2871C73.3532 34.6413 73.276 35.0772 73.276 35.5948C73.276 36.1033 73.3532 36.5392 73.5076 36.9024C73.662 37.2566 73.8799 37.529 74.1614 37.7197C74.452 37.9013 74.8016 37.9921 75.2103 37.9921C75.6189 37.9921 75.964 37.9013 76.2455 37.7197C76.527 37.529 76.7449 37.2566 76.8993 36.9024C77.0537 36.5392 77.1309 36.1033 77.1309 35.5948C77.1309 35.0772 77.0537 34.6413 76.8993 34.2871C76.7449 33.933 76.527 33.6651 76.2455 33.4835C75.964 33.2928 75.6189 33.1974 75.2103 33.1974ZM80.4219 39.0001V32.1895H81.7159L81.8113 33.9602L81.6206 33.7695C81.7477 33.3791 81.9293 33.0567 82.1654 32.8024C82.4106 32.5391 82.6967 32.3484 83.0236 32.2303C83.3596 32.1123 83.7137 32.0532 84.086 32.0532C84.5673 32.0532 84.9987 32.1486 85.3801 32.3393C85.7705 32.5209 86.0793 32.7979 86.3063 33.1702C86.5333 33.5425 86.6469 34.0147 86.6469 34.5868V39.0001H85.1894V35.0363C85.1894 34.3643 85.0486 33.9012 84.7671 33.6469C84.4947 33.3836 84.1496 33.2519 83.7319 33.2519C83.4322 33.2519 83.1416 33.3246 82.8601 33.4699C82.5786 33.6061 82.3425 33.8286 82.1518 34.1373C81.9702 34.4461 81.8794 34.8592 81.8794 35.3768V39.0001H80.4219ZM91.7976 32.0532C92.3425 32.0532 92.8056 32.135 93.187 32.2984C93.5775 32.4528 93.9044 32.6753 94.1677 32.9659C94.4311 33.2565 94.6309 33.5879 94.7671 33.9602L93.3913 34.5051C93.2733 34.0874 93.0826 33.7695 92.8192 33.5516C92.565 33.3246 92.229 33.2111 91.8113 33.2111C91.4026 33.2111 91.053 33.3064 90.7624 33.4971C90.4718 33.6787 90.2493 33.9466 90.095 34.3008C89.9497 34.6549 89.877 35.0908 89.877 35.6084C89.877 36.1169 89.9542 36.5483 90.1086 36.9024C90.263 37.2566 90.4854 37.5245 90.776 37.7061C91.0666 37.8877 91.4117 37.9785 91.8113 37.9785C92.12 37.9785 92.3879 37.9286 92.6149 37.8287C92.8419 37.7197 93.0281 37.5699 93.1734 37.3792C93.3278 37.1794 93.4322 36.9388 93.4867 36.6573L94.8079 37.1068C94.6808 37.5154 94.481 37.8741 94.2086 38.1828C93.9453 38.4825 93.6138 38.7186 93.2142 38.8912C92.8147 39.0546 92.3561 39.1363 91.8385 39.1363C91.1665 39.1363 90.5717 38.9956 90.0541 38.7141C89.5365 38.4326 89.1324 38.0285 88.8418 37.5018C88.5603 36.966 88.4195 36.3303 88.4195 35.5948C88.4195 34.8592 88.5603 34.2281 88.8418 33.7014C89.1324 33.1657 89.5319 32.757 90.0405 32.4755C90.5581 32.194 91.1438 32.0532 91.7976 32.0532ZM99.5008 39.1363C98.8197 39.1363 98.2204 38.9956 97.7028 38.7141C97.1852 38.4326 96.7811 38.0285 96.4905 37.5018C96.209 36.966 96.0682 36.3303 96.0682 35.5948C96.0682 34.8592 96.209 34.2281 96.4905 33.7014C96.7811 33.1657 97.1806 32.757 97.6892 32.4755C98.1977 32.194 98.7743 32.0532 99.4191 32.0532C100.082 32.0532 100.645 32.1895 101.108 32.4619C101.571 32.7343 101.925 33.1066 102.171 33.5788C102.416 34.051 102.538 34.5868 102.538 35.1862C102.538 35.3496 102.534 35.504 102.525 35.6493C102.516 35.7946 102.502 35.9217 102.484 36.0307H97.0081V34.9137H101.844L101.122 35.1317C101.122 34.5142 100.967 34.042 100.659 33.715C100.35 33.3791 99.9276 33.2111 99.3918 33.2111C99.0014 33.2111 98.6608 33.3019 98.3702 33.4835C98.0797 33.6651 97.8572 33.9375 97.7028 34.3008C97.5484 34.6549 97.4712 35.0908 97.4712 35.6084C97.4712 36.1169 97.553 36.5483 97.7164 36.9024C97.8799 37.2566 98.1114 37.5245 98.4111 37.7061C98.7108 37.8877 99.0649 37.9785 99.4736 37.9785C99.9276 37.9785 100.295 37.8923 100.577 37.7197C100.858 37.5472 101.081 37.3065 101.244 36.9978L102.402 37.5426C102.239 37.8696 102.016 38.1556 101.735 38.4008C101.462 38.6369 101.135 38.8185 100.754 38.9456C100.373 39.0728 99.9549 39.1363 99.5008 39.1363ZM104.379 41.8606V32.1895H105.673L105.782 34.0964L105.591 33.8649C105.7 33.5107 105.868 33.1974 106.095 32.925C106.322 32.6526 106.604 32.4392 106.94 32.2848C107.285 32.1304 107.662 32.0532 108.07 32.0532C108.624 32.0532 109.128 32.194 109.582 32.4755C110.036 32.757 110.395 33.1611 110.658 33.6878C110.922 34.2054 111.053 34.8365 111.053 35.5812C111.053 36.3258 110.917 36.966 110.645 37.5018C110.381 38.0285 110.018 38.4326 109.555 38.7141C109.101 38.9956 108.592 39.1363 108.029 39.1363C107.448 39.1363 106.953 38.9865 106.545 38.6868C106.136 38.3781 105.846 37.9876 105.673 37.5154L105.836 37.2838V41.8606H104.379ZM107.716 37.9513C108.306 37.9513 108.765 37.7424 109.092 37.3247C109.428 36.907 109.596 36.3303 109.596 35.5948C109.596 34.8592 109.432 34.2826 109.106 33.8649C108.779 33.4381 108.325 33.2247 107.743 33.2247C107.362 33.2247 107.026 33.3246 106.735 33.5243C106.454 33.715 106.231 33.9875 106.068 34.3416C105.914 34.6867 105.836 35.1044 105.836 35.5948C105.836 36.0761 105.914 36.4938 106.068 36.848C106.222 37.2021 106.44 37.4745 106.722 37.6652C107.003 37.8559 107.335 37.9513 107.716 37.9513ZM114.814 30.1871V36.9569C114.814 37.2929 114.901 37.5381 115.073 37.6925C115.255 37.8468 115.496 37.924 115.795 37.924C116.04 37.924 116.254 37.8877 116.435 37.8151C116.617 37.7333 116.785 37.6244 116.939 37.4882L117.266 38.5506C117.057 38.7322 116.799 38.8775 116.49 38.9865C116.19 39.0864 115.854 39.1363 115.482 39.1363C115.091 39.1363 114.733 39.0728 114.406 38.9456C114.079 38.8185 113.825 38.6142 113.643 38.3327C113.461 38.0421 113.366 37.6652 113.357 37.2021V30.5958L114.814 30.1871ZM117.157 32.1895V33.3337H112.049V32.1895H117.157ZM117.758 40.1307H119.76V30.2825H117.758V29.1247H121.068V41.2885H117.758V40.1307ZM128.553 31.0453C128.235 31.0453 127.99 30.9681 127.817 30.8137C127.654 30.6502 127.572 30.4232 127.572 30.1326C127.572 29.8421 127.654 29.6196 127.817 29.4652C127.99 29.3108 128.235 29.2336 128.553 29.2336C128.862 29.2336 129.098 29.3108 129.261 29.4652C129.434 29.6196 129.52 29.8421 129.52 30.1326C129.52 30.4232 129.434 30.6502 129.261 30.8137C129.098 30.9681 128.862 31.0453 128.553 31.0453ZM129.275 32.1895V39.0001H127.817V32.1895H129.275ZM131.555 39.0001V32.1895H132.849L132.944 33.9602L132.754 33.7695C132.881 33.3791 133.063 33.0567 133.299 32.8024C133.544 32.5391 133.83 32.3484 134.157 32.2303C134.493 32.1123 134.847 32.0532 135.219 32.0532C135.701 32.0532 136.132 32.1486 136.513 32.3393C136.904 32.5209 137.212 32.7979 137.439 33.1702C137.667 33.5425 137.78 34.0147 137.78 34.5868V39.0001H136.323V35.0363C136.323 34.3643 136.182 33.9012 135.9 33.6469C135.628 33.3836 135.283 33.2519 134.865 33.2519C134.565 33.2519 134.275 33.3246 133.993 33.4699C133.712 33.6061 133.476 33.8286 133.285 34.1373C133.103 34.4461 133.013 34.8592 133.013 35.3768V39.0001H131.555ZM150.119 32.1895L147.136 39.8038C146.936 40.3305 146.718 40.7482 146.482 41.0569C146.255 41.3657 145.991 41.5882 145.692 41.7244C145.392 41.8606 145.042 41.9287 144.643 41.9287C144.316 41.9287 144.012 41.8833 143.73 41.7925C143.458 41.7108 143.217 41.5973 143.008 41.452L143.362 40.3214C143.535 40.4667 143.717 40.5757 143.907 40.6483C144.107 40.7209 144.32 40.7573 144.547 40.7573C144.793 40.7573 145.011 40.6892 145.201 40.553C145.401 40.4258 145.578 40.167 145.733 39.7765L146.032 39.041L145.31 37.3519L143.185 32.1895H144.82L146.332 36.4666L146.727 37.747L147.176 36.344L148.607 32.1895H150.119ZM154.278 32.0532C154.941 32.0532 155.526 32.194 156.035 32.4755C156.543 32.757 156.938 33.1657 157.22 33.7014C157.511 34.2281 157.656 34.8592 157.656 35.5948C157.656 36.3303 157.511 36.966 157.22 37.5018C156.938 38.0285 156.543 38.4326 156.035 38.7141C155.526 38.9956 154.941 39.1363 154.278 39.1363C153.615 39.1363 153.029 38.9956 152.521 38.7141C152.012 38.4326 151.613 38.0285 151.322 37.5018C151.031 36.966 150.886 36.3303 150.886 35.5948C150.886 34.8592 151.031 34.2281 151.322 33.7014C151.613 33.1657 152.012 32.757 152.521 32.4755C153.029 32.194 153.615 32.0532 154.278 32.0532ZM154.278 33.1974C153.869 33.1974 153.52 33.2928 153.229 33.4835C152.947 33.6651 152.73 33.933 152.575 34.2871C152.421 34.6413 152.344 35.0772 152.344 35.5948C152.344 36.1033 152.421 36.5392 152.575 36.9024C152.73 37.2566 152.947 37.529 153.229 37.7197C153.52 37.9013 153.869 37.9921 154.278 37.9921C154.686 37.9921 155.032 37.9013 155.313 37.7197C155.595 37.529 155.812 37.2566 155.967 36.9024C156.121 36.5392 156.198 36.1033 156.198 35.5948C156.198 35.0772 156.121 34.6413 155.967 34.2871C155.812 33.933 155.595 33.6651 155.313 33.4835C155.032 33.2928 154.686 33.1974 154.278 33.1974ZM161.914 39.1363C161.469 39.1363 161.056 39.0546 160.674 38.8912C160.302 38.7277 160.003 38.4643 159.775 38.1011C159.548 37.7379 159.435 37.2657 159.435 36.6845V32.1895H160.892V36.3167C160.892 36.9342 161.024 37.361 161.287 37.5971C161.551 37.8241 161.919 37.9377 162.391 37.9377C162.618 37.9377 162.836 37.9013 163.045 37.8287C163.263 37.747 163.458 37.6244 163.63 37.4609C163.803 37.2884 163.935 37.0704 164.025 36.8071C164.125 36.5437 164.175 36.235 164.175 35.8808V32.1895H165.633V39.0001H164.352L164.284 37.8968C164.048 38.3236 163.73 38.6369 163.331 38.8367C162.931 39.0364 162.459 39.1363 161.914 39.1363ZM167.91 39.0001V32.1895H169.149L169.285 33.4154C169.467 32.9704 169.735 32.6344 170.089 32.4074C170.452 32.1713 170.897 32.0532 171.424 32.0532C171.56 32.0532 171.696 32.0669 171.833 32.0941C171.969 32.1123 172.082 32.1441 172.173 32.1895L171.969 33.4699C171.869 33.4335 171.755 33.4063 171.628 33.3881C171.51 33.3609 171.347 33.3473 171.138 33.3473C170.856 33.3473 170.579 33.4245 170.307 33.5788C170.035 33.7241 169.808 33.9466 169.626 34.2463C169.453 34.5459 169.367 34.9273 169.367 35.3905V39.0001H167.91ZM180.643 32.0532C181.305 32.0532 181.891 32.194 182.4 32.4755C182.908 32.757 183.303 33.1657 183.585 33.7014C183.875 34.2281 184.021 34.8592 184.021 35.5948C184.021 36.3303 183.875 36.966 183.585 37.5018C183.303 38.0285 182.908 38.4326 182.4 38.7141C181.891 38.9956 181.305 39.1363 180.643 39.1363C179.98 39.1363 179.394 38.9956 178.885 38.7141C178.377 38.4326 177.977 38.0285 177.687 37.5018C177.396 36.966 177.251 36.3303 177.251 35.5948C177.251 34.8592 177.396 34.2281 177.687 33.7014C177.977 33.1657 178.377 32.757 178.885 32.4755C179.394 32.194 179.98 32.0532 180.643 32.0532ZM180.643 33.1974C180.234 33.1974 179.884 33.2928 179.594 33.4835C179.312 33.6651 179.094 33.933 178.94 34.2871C178.785 34.6413 178.708 35.0772 178.708 35.5948C178.708 36.1033 178.785 36.5392 178.94 36.9024C179.094 37.2566 179.312 37.529 179.594 37.7197C179.884 37.9013 180.234 37.9921 180.643 37.9921C181.051 37.9921 181.396 37.9013 181.678 37.7197C181.959 37.529 182.177 37.2566 182.332 36.9024C182.486 36.5392 182.563 36.1033 182.563 35.5948C182.563 35.0772 182.486 34.6413 182.332 34.2871C182.177 33.933 181.959 33.6651 181.678 33.4835C181.396 33.2928 181.051 33.1974 180.643 33.1974ZM194.318 32.1895H195.898L193.609 39.0001H192.016L190.3 33.9466L188.679 39.0001H187.085L184.81 32.1895H186.377L187.929 37.5699L189.618 32.1895H191.076L192.765 37.5699L194.318 32.1895ZM197.307 39.0001V32.1895H198.601L198.697 33.9602L198.506 33.7695C198.633 33.3791 198.815 33.0567 199.051 32.8024C199.296 32.5391 199.582 32.3484 199.909 32.2303C200.245 32.1123 200.599 32.0532 200.971 32.0532C201.453 32.0532 201.884 32.1486 202.265 32.3393C202.656 32.5209 202.965 32.7979 203.192 33.1702C203.419 33.5425 203.532 34.0147 203.532 34.5868V39.0001H202.075V35.0363C202.075 34.3643 201.934 33.9012 201.652 33.6469C201.38 33.3836 201.035 33.2519 200.617 33.2519C200.318 33.2519 200.027 33.3246 199.745 33.4699C199.464 33.6061 199.228 33.8286 199.037 34.1373C198.856 34.4461 198.765 34.8592 198.765 35.3768V39.0001H197.307ZM218.528 32.1895H220.108L217.819 39.0001H216.226L214.509 33.9466L212.888 39.0001H211.295L209.02 32.1895H210.586L212.139 37.5699L213.828 32.1895H215.286L216.975 37.5699L218.528 32.1895ZM224.273 32.0532C224.936 32.0532 225.522 32.194 226.03 32.4755C226.539 32.757 226.934 33.1657 227.216 33.7014C227.506 34.2281 227.651 34.8592 227.651 35.5948C227.651 36.3303 227.506 36.966 227.216 37.5018C226.934 38.0285 226.539 38.4326 226.03 38.7141C225.522 38.9956 224.936 39.1363 224.273 39.1363C223.61 39.1363 223.025 38.9956 222.516 38.7141C222.008 38.4326 221.608 38.0285 221.317 37.5018C221.027 36.966 220.882 36.3303 220.882 35.5948C220.882 34.8592 221.027 34.2281 221.317 33.7014C221.608 33.1657 222.008 32.757 222.516 32.4755C223.025 32.194 223.61 32.0532 224.273 32.0532ZM224.273 33.1974C223.865 33.1974 223.515 33.2928 223.224 33.4835C222.943 33.6651 222.725 33.933 222.571 34.2871C222.416 34.6413 222.339 35.0772 222.339 35.5948C222.339 36.1033 222.416 36.5392 222.571 36.9024C222.725 37.2566 222.943 37.529 223.224 37.7197C223.515 37.9013 223.865 37.9921 224.273 37.9921C224.682 37.9921 225.027 37.9013 225.309 37.7197C225.59 37.529 225.808 37.2566 225.962 36.9024C226.117 36.5392 226.194 36.1033 226.194 35.5948C226.194 35.0772 226.117 34.6413 225.962 34.2871C225.808 33.933 225.59 33.6651 225.309 33.4835C225.027 33.2928 224.682 33.1974 224.273 33.1974ZM229.485 39.0001V32.1895H230.725L230.861 33.4154C231.042 32.9704 231.31 32.6344 231.664 32.4074C232.028 32.1713 232.473 32.0532 232.999 32.0532C233.135 32.0532 233.272 32.0669 233.408 32.0941C233.544 32.1123 233.658 32.1441 233.748 32.1895L233.544 33.4699C233.444 33.4335 233.331 33.4063 233.204 33.3881C233.086 33.3609 232.922 33.3473 232.713 33.3473C232.432 33.3473 232.155 33.4245 231.882 33.5788C231.61 33.7241 231.383 33.9466 231.201 34.2463C231.029 34.5459 230.942 34.9273 230.942 35.3905V39.0001H229.485ZM237.567 39.1363C237.004 39.1363 236.491 38.9956 236.028 38.7141C235.574 38.4326 235.215 38.0285 234.952 37.5018C234.689 36.9751 234.557 36.344 234.557 35.6084C234.557 34.8456 234.698 34.2009 234.979 33.6742C235.261 33.1475 235.638 32.7479 236.11 32.4755C236.582 32.194 237.1 32.0532 237.663 32.0532C238.244 32.0532 238.734 32.2122 239.134 32.53C239.533 32.8478 239.801 33.261 239.938 33.7695L239.774 33.9194V29.1247H241.232V39.0001H239.938L239.829 37.1476L240.019 37.1612C239.956 37.5699 239.806 37.924 239.57 38.2237C239.334 38.5143 239.039 38.7413 238.684 38.9048C238.339 39.0591 237.967 39.1363 237.567 39.1363ZM237.881 37.9649C238.271 37.9649 238.607 37.865 238.889 37.6652C239.17 37.4655 239.388 37.1839 239.543 36.8207C239.697 36.4575 239.774 36.0216 239.774 35.5131C239.774 35.0409 239.697 34.6368 239.543 34.3008C239.388 33.9557 239.17 33.6923 238.889 33.5107C238.616 33.3291 238.298 33.2383 237.935 33.2383C237.327 33.2383 236.855 33.4472 236.519 33.8649C236.183 34.2826 236.015 34.8592 236.015 35.5948C236.015 36.3303 236.178 36.9115 236.505 37.3383C236.832 37.756 237.29 37.9649 237.881 37.9649ZM246.08 39.1363C245.399 39.1363 244.777 39.0047 244.214 38.7413C243.651 38.478 243.206 38.1057 242.879 37.6244L243.887 36.7526C244.087 37.1249 244.373 37.4246 244.745 37.6516C245.127 37.8696 245.581 37.9785 246.107 37.9785C246.525 37.9785 246.857 37.9059 247.102 37.7606C247.347 37.6153 247.469 37.411 247.469 37.1476C247.469 36.9751 247.41 36.8253 247.292 36.6981C247.183 36.5619 246.97 36.4575 246.652 36.3848L245.222 36.0852C244.495 35.9399 243.978 35.7083 243.669 35.3905C243.36 35.0636 243.206 34.6504 243.206 34.1509C243.206 33.7786 243.315 33.4335 243.533 33.1157C243.751 32.7979 244.069 32.5436 244.486 32.3529C244.913 32.1531 245.422 32.0532 246.012 32.0532C246.693 32.0532 247.274 32.1758 247.756 32.421C248.237 32.6571 248.605 32.9977 248.859 33.4426L247.851 34.2871C247.678 33.9239 247.424 33.656 247.088 33.4835C246.752 33.3019 246.402 33.2111 246.039 33.2111C245.749 33.2111 245.499 33.2474 245.29 33.32C245.081 33.3927 244.922 33.4926 244.813 33.6197C244.704 33.7468 244.65 33.8967 244.65 34.0692C244.65 34.2508 244.718 34.4097 244.854 34.5459C244.99 34.6822 245.236 34.7866 245.59 34.8592L247.143 35.1862C247.796 35.3133 248.255 35.5312 248.518 35.84C248.791 36.1396 248.927 36.5074 248.927 36.9433C248.927 37.3792 248.813 37.7651 248.586 38.1011C248.359 38.428 248.032 38.6823 247.606 38.8639C247.179 39.0455 246.67 39.1363 246.08 39.1363ZM253.187 29.8738C253.813 29.8738 254.358 29.9692 254.821 30.1599C255.293 30.3506 255.661 30.6275 255.924 30.9908C256.197 31.3449 256.333 31.7808 256.333 32.2984C256.333 32.8342 256.215 33.2792 255.979 33.6333C255.752 33.9784 255.443 34.2417 255.053 34.4234C254.662 34.5959 254.231 34.7094 253.759 34.7639L253.718 36.1396H252.315V34.0828C252.96 34.0011 253.459 33.8921 253.813 33.7559C254.167 33.6197 254.417 33.4517 254.562 33.2519C254.708 33.0431 254.78 32.7933 254.78 32.5027C254.78 32.2212 254.717 31.9806 254.59 31.7808C254.472 31.572 254.285 31.4176 254.031 31.3177C253.786 31.2087 253.473 31.1542 253.091 31.1542C252.555 31.1542 252.12 31.3041 251.784 31.6037C251.448 31.9034 251.248 32.3211 251.184 32.8569L249.836 32.2439C249.936 31.7717 250.131 31.3586 250.421 31.0044C250.712 30.6502 251.089 30.3733 251.552 30.1735C252.015 29.9737 252.56 29.8738 253.187 29.8738ZM253.01 37.2021C253.318 37.2021 253.563 37.2929 253.745 37.4745C253.936 37.6471 254.031 37.8786 254.031 38.1692C254.031 38.4598 253.936 38.6914 253.745 38.8639C253.563 39.0364 253.318 39.1227 253.01 39.1227C252.71 39.1227 252.465 39.0364 252.274 38.8639C252.092 38.6914 252.002 38.4598 252.002 38.1692C252.002 37.8786 252.092 37.6471 252.274 37.4745C252.465 37.2929 252.71 37.2021 253.01 37.2021Z" fill="black"/>
</svg>
