<svg fill="none" height="26" viewBox="0 0 26 26" width="26" xmlns="http://www.w3.org/2000/svg"><g fill="#f44747"><path d="m13.7607 15.5068h-1.4287l-.1572-7.02047h1.75zm-1.6337 2.1465c0-.2597.0843-.4739.2529-.6426.1686-.1731.3987-.2597.6904-.2597s.5218.0866.6904.2597c.1687.1687.253.3829.253.6426 0 .2507-.0821.4603-.2461.6289-.1641.1686-.3965.253-.6973.253s-.5332-.0844-.6973-.253c-.164-.1686-.246-.3782-.246-.6289z"/><path d="m13 2c2.1756 0 4.3023.64514 6.1113 1.85383 1.8089 1.2087 3.2188 2.92667 4.0514 4.93665.8325 2.01002 1.0504 4.22172.6259 6.35552-.4244 2.1338-1.472 4.0938-3.0104 5.6322s-3.4984 2.586-5.6322 3.0104c-2.1338.4245-4.3455.2066-6.35551-.6259-2.00999-.8326-3.72796-2.2425-4.93665-4.0514-1.2087-1.809-1.85383-3.9357-1.85383-6.1113 0-2.9174 1.15892-5.71527 3.22182-7.77817s4.86077-3.22183 7.77817-3.22183zm0-1c-2.3734 0-4.69345.70379-6.66684 2.02236-1.97339 1.31858-3.51146 3.19273-4.41971 5.38544-.90825 2.1927-1.145891 4.6055-.68287 6.9333.46302 2.3278 1.60591 4.466 3.28414 6.1442s3.81643 2.8211 6.14418 3.2841c2.3278.463 4.7406.2254 6.9333-.6828 2.1927-.9083 4.0669-2.4464 5.3854-4.4198 1.3186-1.9733 2.0224-4.2934 2.0224-6.6668 0-3.1826-1.2643-6.23485-3.5147-8.48528-2.2505-2.25044-5.3027-3.51472-8.4853-3.51472z" stroke="#f44747" stroke-width=".5"/></g></svg>