<svg height="18" viewBox="0 0 30 18" width="30" xmlns="http://www.w3.org/2000/svg"><g fill="#fff"><path d="m1.93642333 1.16576123-1.92969963 1.16576398-.0067237 4.11050072c0 2.58756837.02689479 4.33284377.07396067 4.71694447.16136875 1.3140073.64547259 2.654979 1.29767286 3.5646825.5782388.8086076 1.56661996 1.6442195 2.49448864 2.1091729.54461232.2762836 1.56662395.5997347 2.21207976.6940695.73290621.1078171 2.2390097.0943349 2.93154497-.0269642 1.499395-.2695626 2.6693136-.849054 3.7047422-1.8396103.8741047-.842333 1.405276-1.691387 1.7683349-2.8369278.4034299-1.280322.3967213-1.172505.4235954-7.2439032l.0269139-5.5794898-.1613639.08759987c-.0941589.04716945-.9682237.5727736-1.9566128 1.16576318l-1.7885004 1.07816216v3.80725286c0 2.31132477-.026874 4.04311813-.0739535 4.41373653-.2420659 2.0013559-1.338031 3.3153633-2.96516743 3.5377184-1.90953334.2695625-3.42905387-.8557751-3.93335116-2.8975773-.10757597-.4649534-.12102496-.95011-.15464345-5.84900312l-.03361849-5.33691519z"/><path d="m16.2 8.73333539v8.73333131l1.9442509-1.1599466 1.9374752-1.166713.0202468-1.2543566.0135112-1.2476302 1.9442108-.0404386c2.0792427-.0404786 2.8353492-.1213958 3.8951972-.4248853 1.1949201-.3439281 2.1400231-.8901692 2.8015912-1.6252704.4320379-.4855432.8910983-1.40946461 1.0936461-2.21199019.1417675-.53951468.1552386-.76204696.1485031-2.02317003 0-1.30156164-.0135112-1.47016248-.1755255-2.0636086-.6278101-2.31316267-2.0792427-3.52031826-4.8808339-4.05308369-.6885504-.12813424-1.0328657-.14162351-4.7390263-.16859852l-4.0032468-.02697497zm7.8174169-5.19279773c1.2894183.33045124 1.8834705.99811616 2.0049912 2.24570632.1080095 1.03855074-.2632882 2.30640022-.7898244 2.75150483-.6345858.53951468-1.1678976.6406912-3.3753966.6406912h-1.741703v-2.9066128-2.90662882l1.741703.03372017c1.3028895.0202313 1.8429369.05395147 2.1602298.1416191z"/></g></svg>