<svg fill="none" height="28" viewBox="0 0 28 28" width="28" xmlns="http://www.w3.org/2000/svg"><path clip-rule="evenodd" d="m3.22246 4.38994c.3938-.3938.92792-.61504 1.48484-.61504h19.4984c.5569 0 1.091.22124 1.4848.61504s.6151.92792.6151 1.48484v2.99975c0 .33137-.2687.6-.6.6h-22.49818c-.33137 0-.6-.26863-.6-.6v-2.99975c0-.55692.22124-1.09104.61504-1.48484zm1.48484.58496c-.23866 0-.46755.09481-.63631.26357s-.26357.39765-.26357.63631v2.39975h21.29818v-2.39975c0-.23866-.0949-.46755-.2636-.63631-.1688-.16876-.3977-.26357-.6363-.26357zm-.09363 5.9331c.33137 0 .6.2686.6.6v9.0857c0 .6441.25587 1.2619.71132 1.7173.45545.4555 1.07317.7113 1.71728.7113h13.62863c.6441 0 1.2619-.2558 1.7173-.7113.4555-.4554.7113-1.0732.7113-1.7173v-9.0857c0-.3314.2687-.6.6-.6.3314 0 .6.2686.6.6v9.0857c0 .9624-.3823 1.8854-1.0628 2.5658-.6805.6805-1.6034 1.0628-2.5658 1.0628h-13.62863c-.96237 0-1.88531-.3823-2.56581-1.0628-.68049-.6804-1.06279-1.6034-1.06279-2.5658v-9.0857c0-.3314.26863-.6.6-.6zm7.88323 1.6702c-.3314 0-.6.2687-.6.6 0 .3314.2686.6.6.6h3.4871c.3314 0 .6-.2686.6-.6 0-.3313-.2686-.6-.6-.6z" fill="#343440" fill-rule="evenodd"/></svg>