<svg
   xmlns:dc="http://purl.org/dc/elements/1.1/"
   xmlns:cc="http://creativecommons.org/ns#"
   xmlns:rdf="http://www.w3.org/1999/02/22-rdf-syntax-ns#"
   xmlns:svg="http://www.w3.org/2000/svg"
   xmlns="http://www.w3.org/2000/svg"
   version="1.1"
   id="svg5870"
   viewBox="0 0 24 24"
   height="24px"
   width="24px">
  <g
     transform="translate(-502.28571,-674.64792)"
     id="layer1"
     fill="none">
    <path
       style="fill:#73737a;fill-opacity:1"
       d="m 504.28571,686.64792 c 0,-3.04 2.46,-5.5 5.5,-5.5 l 10.5,0 c 2.21,0 4,1.79 4,4 0,2.21 -1.79,4 -4,4 l -8.5,0 c -1.38,0 -2.5,-1.12 -2.5,-2.5 0,-1.38 1.12,-2.5 2.5,-2.5 l 7.5,0 0,2 -7.59,0 c -0.55,0 -0.55,1 0,1 l 8.59,0 c 1.1,0 2,-0.9 2,-2 0,-1.1 -0.9,-2 -2,-2 l -10.5,0 c -1.93,0 -3.5,1.57 -3.5,3.5 0,1.93 1.57,3.5 3.5,3.5 l 9.5,0 0,2 -9.5,0 c -3.04,0 -5.5,-2.46 -5.5,-5.5 z"
       id="path5855" />
  </g>
</svg>
