<svg width="32" height="32" viewBox="0 0 32 32" fill="none" xmlns="http://www.w3.org/2000/svg">
<rect width="31.9969" height="32" rx="15.9984" fill="#16D2AA"/>
<path d="M16 8C15.4469 8 15 8.44687 15 9V9.1C12.7188 9.5625 11 11.5812 11 14V14.6781C11 16.1812 10.4875 17.6406 9.55 18.8156L9.24375 19.1969C9.08438 19.3937 9 19.6375 9 19.8906C9 20.5031 9.49687 21 10.1094 21H21.8875C22.5 21 22.9969 20.5031 22.9969 19.8906C22.9969 19.6375 22.9125 19.3937 22.7531 19.1969L22.4469 18.8156C21.5125 17.6406 21 16.1812 21 14.6781V14C21 11.5812 19.2812 9.5625 17 9.1V9C17 8.44687 16.5531 8 16 8ZM14.0625 22.5C14.2844 23.3625 15.0687 24 16 24C16.9313 24 17.7156 23.3625 17.9375 22.5H14.0625Z" fill="white"/>
</svg>
