<svg width="30" height="30" viewBox="0 0 30 30" fill="none" xmlns="http://www.w3.org/2000/svg">
<path d="M4.16667 8.125C3.56836 8.125 3.08333 8.62868 3.08333 9.25V22.75C3.08333 23.3713 3.56836 23.875 4.16667 23.875H25.8333C26.4316 23.875 26.9167 23.3713 26.9167 22.75V9.25C26.9167 8.62868 26.4316 8.125 25.8333 8.125H25V7H25.8333C27.03 7 28 8.00736 28 9.25V22.75C28 23.9926 27.0299 25 25.8333 25H4.16667C2.97005 25 2 23.9926 2 22.75V9.25C2 8.00736 2.97005 7 4.16667 7H5V8.125H4.16667Z" fill="#343440"/>
<mask id="path-2-inside-1_2843_104" fill="white">
<path d="M5 5.90652V20.5339C5 21.133 5.48353 21.622 6.08807 21.6344L23.8658 21.9998C24.4884 22.0125 25 21.5161 25 20.8992V5.90652C23.3333 4.25538 16.6667 2.60437 15 5.90652C13.3333 2.60437 6.66667 4.25538 5 5.90652Z"/>
</mask>
<path d="M15 21.612L14.5324 21.789C14.606 21.9834 14.7921 22.112 15 22.112C15.2079 22.112 15.394 21.9834 15.4676 21.789L15 21.612ZM5.5 5.90652V5.52462H4.5V5.90652H5.5ZM25.5 5.90652V5.51168H24.5V5.90652H25.5ZM5.35189 21.9672C5.71343 21.6091 6.38767 21.1563 7.24611 20.7478C8.09757 20.3426 9.09429 19.9981 10.0815 19.8351C11.0733 19.6713 12.0179 19.6968 12.7916 19.9899C13.5453 20.2754 14.1673 20.8245 14.5324 21.789L15.4676 21.435C14.9994 20.1981 14.1631 19.4401 13.1459 19.0548C12.1488 18.6771 11.01 18.6682 9.91855 18.8484C8.82237 19.0294 7.73576 19.4073 6.81639 19.8448C5.904 20.279 5.11991 20.7894 4.64811 21.2568L5.35189 21.9672ZM25.3519 21.2568C24.8801 20.7894 24.096 20.279 23.1836 19.8448C22.2642 19.4073 21.1776 19.0294 20.0815 18.8484C18.99 18.6682 17.8512 18.6771 16.8541 19.0548C15.8369 19.4401 15.0006 20.1981 14.5324 21.435L15.4676 21.789C15.8327 20.8245 16.4547 20.2754 17.2084 19.9899C17.9821 19.6968 18.9267 19.6713 19.9185 19.8351C20.9057 19.9981 21.9024 20.3426 22.7539 20.7478C23.6123 21.1563 24.2866 21.6091 24.6481 21.9672L25.3519 21.2568ZM14.5 5.85038V21.612H15.5V5.85038H14.5ZM5 5.90652L4.29621 5.19611C4.10665 5.38391 4 5.63968 4 5.90652H5ZM6.08807 21.6344L6.06752 22.6342L6.06752 22.6342L6.08807 21.6344ZM23.8658 21.9998L23.8453 22.9995L23.8453 22.9995L23.8658 21.9998ZM25 5.90652H26C26 5.63968 25.8934 5.38391 25.7038 5.19611L25 5.90652ZM15 5.90652L14.1073 6.3571L15 8.12587L15.8927 6.3571L15 5.90652ZM6 20.5339V5.90652H4V20.5339H6ZM6.06752 22.6342L23.8453 22.9995L23.8864 21L6.10861 20.6347L6.06752 22.6342ZM26 20.8992V5.90652H24V20.8992H26ZM5.70379 6.61693C5.97588 6.34738 6.55467 5.99543 7.38547 5.68074C8.19282 5.37493 9.14869 5.13826 10.0986 5.04416C11.0557 4.94935 11.95 5.00482 12.6635 5.23351C13.3622 5.45743 13.8402 5.82801 14.1073 6.3571L15.8927 5.45594C15.3264 4.33395 14.3462 3.6726 13.274 3.32895C12.2167 2.99008 11.0277 2.94234 9.90142 3.0539C8.76797 3.16618 7.64051 3.44547 6.67703 3.81042C5.73699 4.16648 4.85746 4.64009 4.29621 5.19611L5.70379 6.61693ZM25.7038 5.19611C25.1425 4.64009 24.263 4.16648 23.323 3.81042C22.3595 3.44547 21.232 3.16618 20.0986 3.0539C18.9723 2.94234 17.7833 2.99008 16.726 3.32895C15.6538 3.6726 14.6736 4.33395 14.1073 5.45594L15.8927 6.3571C16.1598 5.82801 16.6378 5.45743 17.3365 5.23351C18.05 5.00482 18.9443 4.94935 19.9014 5.04416C20.8513 5.13826 21.8072 5.37493 22.6145 5.68074C23.4453 5.99543 24.0241 6.34738 24.2962 6.61693L25.7038 5.19611ZM23.8453 22.9995C25.0189 23.0237 26 22.0855 26 20.8992H24C24 20.9467 23.9578 21.0014 23.8864 21L23.8453 22.9995ZM4 20.5339C4 21.6858 4.92739 22.6108 6.06752 22.6342L6.10861 20.6347C6.03967 20.6332 6 20.5801 6 20.5339H4Z" fill="#343440" mask="url(#path-2-inside-1_2843_104)"/>
</svg>
