<svg xmlns="http://www.w3.org/2000/svg" width="273" height="62" viewBox="0 0 273 62" fill="none"><g filter="url(#bub-fil)"><path fill="#85e8d3" fill-rule="evenodd" d="M22 0a22 22 0 0 0 0 44h215.9c2.8 3.3 9.2 8.4 19.4 10.2-2.5-2-6.9-6-9-10.2h2.7a22 22 0 0 0 0-44z" clip-rule="evenodd"/><mask id="bub-mas" width="273" height="55" x="0" y="0" maskUnits="userSpaceOnUse" style="mask-type:luminance"><path fill="#fff" fill-rule="evenodd" d="M22 0a22 22 0 0 0 0 44h215.9c2.8 3.3 9.2 8.4 19.4 10.2-2.5-2-6.9-6-9-10.2h2.7a22 22 0 0 0 0-44z" clip-rule="evenodd"/></mask><g mask="url(#bub-mas)"><path fill="#6fd8c2" d="m237.9 44 .3-.3v-.2h-.3zm19.4 10.2v.4l.3-.8zm-9-10.2v-.5h-.7l.3.7zM0 22h.5C.5 10.1 10 .5 22 .5v-1C9.6-.5-.5 9.6-.5 22zm22 22v-.5A21.5 21.5 0 0 1 .5 22h-1C-.5 34.4 9.6 44.5 22 44.5zm215.9 0v-.5H22v1h215.9zm19.4 10.2v-.5a33 33 0 0 1-19-10l-.4.3-.4.3c2.9 3.3 9.4 8.5 19.7 10.3zm-9-10.2-.4.2a35 35 0 0 0 9.1 10.3l.3-.3.3-.4c-2.5-1.9-6.8-6-8.9-10zm2.7 0v-.5h-2.7v1h2.7zm22-22h-.5c0 11.9-9.6 21.5-21.5 21.5v1c12.4 0 22.5-10 22.5-22.5zM251 0v.5c11.9 0 21.5 9.6 21.5 21.5h1C273.5 9.6 263.4-.5 251-.5zM22 0v.5h229v-1H22z"/></g></g><defs><filter id="bub-fil" width="273" height="57.9" x="0" y="0" color-interpolation-filters="sRGB" filterUnits="userSpaceOnUse"><feFlood flood-opacity="0" result="BackgroundImageFix"/><feColorMatrix in="SourceAlpha" result="hardAlpha" values="0 0 0 0 0 0 0 0 0 0 0 0 0 0 0 0 0 0 127 0"/><feOffset dy="3.7"/><feComposite in2="hardAlpha" operator="out"/><feColorMatrix values="0 0 0 0 0 0 0 0 0 0 0 0 0 0 0 0 0 0 0.1 0"/><feBlend in2="BackgroundImageFix" result="effect1_dropShadow_4168_2412"/><feBlend in="SourceGraphic" in2="effect1_dropShadow_4168_2412" result="shape"/></filter></defs></svg>