<svg width="18" height="20" xmlns="http://www.w3.org/2000/svg">
  <g fill="none" fill-rule="evenodd">
    <path d="M-3-1h24v24H-3z"/>
    <path d="M16 2h-1V0h-2v2H5V0H3v2H2C.89 2 .01 2.9.01 4L0 18a2 2 0 0 0 2 2h14c1.1 0 2-.9 2-2V4c0-1.1-.9-2-2-2zM8.225 8.5c.397.333.595.767.595 1.3 0 .327-.067.608-.2.845a1.446 1.446 0 0 1-.49.535 1.05 1.05 0 0 1-.55.18v.03a1.351 1.351 0 0 1 1.165.685c.137.23.205.508.205.835 0 .367-.105.693-.315.98a2.06 2.06 0 0 1-.875.67c-.373.16-.8.24-1.28.24-.647 0-1.175-.132-1.585-.395-.41-.263-.708-.672-.895-1.225l1.25-.56c.073.367.208.637.405.81.197.173.475.26.835.26.34 0 .61-.085.81-.255.2-.17.3-.398.3-.685 0-.307-.095-.528-.285-.665-.19-.137-.488-.205-.895-.205h-.33v-.96h.28c.72 0 1.08-.303 1.08-.91 0-.293-.082-.517-.245-.67-.163-.153-.395-.23-.695-.23-.307 0-.553.08-.74.24-.187.16-.303.393-.35.7L4.19 9.6c.127-.527.402-.925.825-1.195C5.438 8.135 5.957 8 6.57 8c.707 0 1.258.167 1.655.5zm4.705-.4v6.6h-1.34V9.78c0-.107.003-.19.01-.25a4.05 4.05 0 0 1-.775.56 2.802 2.802 0 0 1-.835.31l-.18-1.16c.307-.033.675-.172 1.105-.415.43-.243.728-.485.895-.725h1.12z" fill="#73737A" fill-rule="nonzero"/>
  </g>
</svg>
