<svg width="18px" height="20px" viewBox="0 0 18 20" version="1.1" xmlns="http://www.w3.org/2000/svg" xmlns:xlink="http://www.w3.org/1999/xlink">
    <!-- Generator: Sketch 46.2 (44496) - http://www.bohemiancoding.com/sketch -->
    <desc>Created with Sketch.</desc>
    <defs></defs>
    <g id="Symbols" stroke="none" stroke-width="1" fill="none" fill-rule="evenodd">
        <g id="volunteer-menu" transform="translate(-33.000000, -318.000000)">
            <g id="ic_event_available_black_24px" transform="translate(30.000000, 317.000000)">
                <polygon id="Shape" points="0 0 24 0 24 24 0 24"></polygon>
                <path d="M19,3 L18,3 L18,1 L16,1 L16,3 L8,3 L8,1 L6,1 L6,3 L5,3 C3.89,3 3.01,3.9 3.01,5 L3,19 C3,20.1 3.89,21 5,21 L19,21 C20.1,21 21,20.1 21,19 L21,5 C21,3.9 20.1,3 19,3 Z M11.225,9.5 C11.6216686,9.833335 11.82,10.266664 11.82,10.8 C11.82,11.1266683 11.753334,11.4083321 11.62,11.645 C11.486666,11.8816678 11.3233343,12.0599994 11.13,12.18 C10.9366657,12.3000006 10.7533342,12.36 10.58,12.36 L10.58,12.39 C10.8000011,12.39 11.0149989,12.4466661 11.225,12.56 C11.435001,12.6733339 11.6083327,12.8449988 11.745,13.075 C11.8816674,13.3050012 11.95,13.5833317 11.95,13.91 C11.95,14.2766685 11.8450011,14.6033319 11.635,14.89 C11.424999,15.1766681 11.1333352,15.3999992 10.76,15.56 C10.3866648,15.7200008 9.9600024,15.8 9.48,15.8 C8.8333301,15.8 8.30500205,15.6683346 7.895,15.405 C7.48499795,15.1416653 7.1866676,14.7333361 7,14.18 L8.25,13.62 C8.3233337,13.9866685 8.45833235,14.2566658 8.655,14.43 C8.85166765,14.6033342 9.1299982,14.69 9.49,14.69 C9.8300017,14.69 10.099999,14.6050009 10.3,14.435 C10.500001,14.2649991 10.6,14.0366681 10.6,13.75 C10.6,13.4433318 10.5050009,13.2216673 10.315,13.085 C10.124999,12.9483326 9.8266687,12.88 9.42,12.88 L9.09,12.88 L9.09,11.92 L9.37,11.92 C10.0900036,11.92 10.45,11.6166697 10.45,11.01 C10.45,10.7166652 10.3683342,10.4933341 10.205,10.34 C10.0416659,10.1866659 9.8100015,10.11 9.51,10.11 C9.2033318,10.11 8.9566676,10.1899992 8.77,10.35 C8.5833324,10.5100008 8.4666669,10.7433318 8.42,11.05 L7.19,10.6 C7.3166673,10.0733307 7.59166455,9.67500135 8.015,9.405 C8.43833545,9.13499865 8.9566636,9 9.57,9 C10.2766702,9 10.8283313,9.166665 11.225,9.5 Z M15.93,9.1 L15.93,15.7 L14.59,15.7 L14.59,10.78 C14.59,10.6733328 14.5933333,10.5900003 14.6,10.53 C14.3599988,10.7500011 14.101668,10.9366659 13.825,11.09 C13.5483319,11.2433341 13.2700014,11.3466664 12.99,11.4 L12.81,10.24 C13.1166682,10.2066665 13.4849978,10.0683345 13.915,9.825 C14.3450021,9.58166545 14.6433325,9.3400012 14.81,9.1 L15.93,9.1 Z" id="Shape" fill="#73737A" fill-rule="nonzero"></path>
            </g>
        </g>
    </g>
</svg>
