<svg fill="none" height="24" viewBox="0 0 24 24" width="24" xmlns="http://www.w3.org/2000/svg"><g fill="#343440"><path d="m6.24001 6.0768c-.1273 0-.24939-.05057-.33941-.14059s-.14059-.21211-.14059-.33941v-5.1168c0-.127304.05057-.249394.14059-.339411.09002-.0900177.21211-.140589.33941-.140589s.24939.0505713.33941.140589c.09002.090017.14059.212107.14059.339411v5.1168c0 .1273-.05057.24939-.14059.33941s-.21211.14059-.33941.14059z"/><path d="m22.3008 24h-20.5824c-.45066 0-.882859-.179-1.20152-.4977-.318662-.3186-.4976844-.7508-.4976844-1.2015v-18.03837c0-.22314.043951-.4441.1293434-.65025.085393-.20616.210555-.39348.368341-.55126.318661-.31867.75086-.49769 1.20152-.49769h20.5824c.2231 0 .4441.04395.6503.12935.2061.08539.3934.21055.5512.36834.1578.15778.283.3451.3684.55126.0853.20615.1293.42711.1293.65025v18.03837c0 .4507-.179.8829-.4977 1.2015-.3187.3187-.7509.4977-1.2015.4977zm-20.5824-20.47677c-.19605 0-.38407.07788-.5227.21651-.13862.13863-.216504.32664-.216504.52269v18.03837c.002487.1953.081164.3819.219254.52s.32467.2167.51995.2192h20.5824c.196 0 .3841-.0778.5227-.2165.1386-.1386.2165-.3266.2165-.5227v-18.03837c.0013-.09743-.017-.19413-.0536-.2844-.0367-.09026-.0911-.17227-.16-.24117s-.1509-.1233-.2412-.15999-.187-.05493-.2844-.05364z"/><path d="m23.52 9.03361h-23.04c-.127304 0-.249394-.05057-.339411-.14059-.0900177-.09002-.140589-.21211-.140589-.33941 0-.12731.0505713-.24939.140589-.33941.090017-.09002.212107-.14059.339411-.14059h23.04c.1273 0 .2494.05057.3394.14059s.1406.2121.1406.33941c0 .1273-.0506.24939-.1406.33941s-.2121.14059-.3394.14059z"/><path d="m17.76 6.0768c-.1273 0-.2494-.05057-.3394-.14059s-.1406-.21211-.1406-.33941v-5.1168c0-.127304.0506-.249394.1406-.339411.09-.0900177.2121-.140589.3394-.140589s.2494.0505713.3394.140589c.09.090017.1406.212107.1406.339411v5.1168c0 .1273-.0506.24939-.1406.33941s-.2121.14059-.3394.14059z"/><path d="m10.1204 12.6024c.4533 0 .84.08 1.16.24.3267.1533.5733.3633.74.63.1667.2666.25.5633.25.89 0 .3133-.0633.5933-.19.84-.12.24-.2767.4266-.47.56-.1867.1333-.38.2-.58.2v.02c.2533 0 .4833.0633.69.19.2133.1266.3833.3066.51.54.1267.2333.19.5033.19.81 0 .36-.1.6833-.3.97-.2.2866-.4833.51-.85.67-.36.16-.7767.24-1.25.24-1.19333 0-1.98333-.5334-2.37-1.6l.98-.47c.1.3866.26.6766.48.87.22.1866.53667.28.95.28.4 0 .7133-.0967.94-.29.2267-.2.34-.4634.34-.79 0-.36-.11-.6134-.33-.76-.2133-.1534-.5567-.23-1.03-.23h-.3v-.85h.27c.8267 0 1.24-.34 1.24-1.02 0-.3334-.0967-.5867-.29-.76-.1867-.1734-.4533-.26-.8-.26-.35333 0-.63667.0866-.85.26-.20667.1666-.34.4066-.4.72l-.98-.4c.14-.48.41-.85.81-1.11.40667-.26.88667-.39 1.44-.39zm6.1694.1v6.6h-1.05v-4.88c0-.2267.0033-.4034.01-.53-.2267.22-.4867.41-.78.57-.2867.16-.58.2733-.88.34l-.2-.93c.1733-.02.3966-.0934.67-.22.28-.1267.5433-.2767.79-.45.2466-.1734.4266-.34.54-.5z"/></g></svg>