<svg fill="none" height="23" viewBox="0 0 25 23" width="25" xmlns="http://www.w3.org/2000/svg"><g fill="#343440"><path d="m3.125 4.68758c0-.28765.23318-.52083.52083-.52083h6.25c.28767 0 .52087.23318.52087.52083s-.2332.52083-.52087.52083h-6.25c-.28765 0-.52083-.23318-.52083-.52083z"/><path d="m3.125 14.0626c0-.2877.23318-.5209.52083-.5209h6.25c.28767 0 .52087.2332.52087.5209 0 .2876-.2332.5208-.52087.5208h-6.25c-.28765 0-.52083-.2332-.52083-.5208z"/><path d="m3.125 9.37508c0-.28765.23318-.52083.52083-.52083h3.125c.28765 0 .52084.23318.52084.52083s-.23319.52083-.52084.52083h-3.125c-.28765 0-.52083-.23318-.52083-.52083z"/><path d="m2 1h21c.5523 0 1 .44772 1 1v14.75c0 .5523-.4477 1-1 1h-3.2083v1h3.2083c1.1046 0 2-.8954 2-2v-14.75c0-1.104569-.8954-2-2-2h-21c-1.104569 0-2 .895431-2 2v14.75c0 1.1046.89543 2 2 2h11.5417v-1h-11.5417c-.55228 0-1-.4477-1-1v-14.75c0-.55228.44772-1 1-1z"/><path d="m13.5417 15.0934v6.4357c0 .893 1.0816 1.3382 1.7102.704l1.2406-1.2515c.0971-.0979.2514-.0979.3485 0l1.2406 1.2515c.6286.6342 1.7101.189 1.7101-.704v-6.4357c-.1963.0325-.4063.0066-.6053-.0923l-.3947-.1959v6.7239l-1.2405-1.2515c-.4883-.4926-1.2806-.4926-1.7689 0l-1.2406 1.2515v-6.7239l-.3946.1959c-.199.0989-.409.1248-.6054.0923z"/><path clip-rule="evenodd" d="m12.6354 8.32851-1.7954 1.04649 1.7954 1.0465c.592.345.9661.969.9915 1.6537l.0754 2.0303 2.0749-1.0303c.5603-.2783 1.2186-.2783 1.779 0l2.0749 1.0303.0753-2.0303c.0255-.6847.3996-1.3087.9915-1.6537l1.7955-1.0465-1.7955-1.04649c-.5919-.34502-.966-.96903-.9915-1.6537l-.0753-2.03036-2.0749 1.03034c-.5604.27827-1.2187.27827-1.779 0l-2.0749-1.03033-.0754 2.03035c-.0254.68467-.3995 1.30868-.9915 1.6537zm-2.299.18254c-.66188.3858-.66188 1.3421 0 1.72795l1.7955 1.0464c.2959.1726.483.4846.4957.8269l.0754 2.0304c.0269.7255.7938 1.1814 1.4441.8585l2.0748-1.0303c.2802-.1392.6094-.1392.8895 0l2.0749 1.0303c.6503.3229 1.4171-.133 1.4441-.8585l.0754-2.0304c.0127-.3423.1997-.6543.4957-.8269l1.7954-1.0464c.6619-.38585.6619-1.34215 0-1.72795l-1.7954-1.0465c-.296-.1725-.483-.48451-.4957-.82685l-.0754-2.03035c-.027-.72556-.7938-1.18147-1.4441-.85854l-2.0749 1.03033c-.2801.13914-.6093.13914-.8895 0l-2.0748-1.03033c-.6503-.32293-1.4172.13298-1.4441.85854l-.0754 2.03035c-.0127.34234-.1998.65435-.4957.82685z" fill-rule="evenodd"/></g></svg>