<svg width="543" height="334" viewBox="0 0 543 334" fill="none" xmlns="http://www.w3.org/2000/svg">
<ellipse cx="295.5" cy="274.52" rx="116.5" ry="19" fill="#898989" fill-opacity="0.3"/>
<ellipse cx="420" cy="289.52" rx="74" ry="12" fill="#898989" fill-opacity="0.2"/>
<ellipse cx="168" cy="289.52" rx="99" ry="12" fill="#898989" fill-opacity="0.2"/>
<path d="M249.306 286.52C249.755 286.52 250.186 286.678 250.504 286.959C250.822 287.241 251 287.622 251 288.02V288.02C251 288.418 250.822 288.799 250.504 289.081C250.186 289.362 249.755 289.52 249.306 289.52H193.165L190 286.52H249.306Z" fill="#988189"/>
<path d="M158.488 222.52C158.85 222.52 159.206 222.619 159.515 222.808C159.824 222.997 160.076 223.267 160.241 223.589L194 289.52H91.5663C91.2128 289.52 90.8658 289.425 90.5616 289.245C90.2575 289.064 90.0075 288.806 89.8378 288.495L55.2418 225.436C55.1176 225.209 55.0394 224.96 55.0115 224.703C54.9836 224.445 55.0066 224.185 55.0793 223.937C55.152 223.688 55.273 223.457 55.4352 223.255C55.5974 223.053 55.7978 222.885 56.0248 222.761C56.3148 222.603 56.6399 222.52 56.9703 222.52H158.488Z" fill="url(#paint0_linear_2208_10742)"/>
<path d="M128.146 267.042C131.8 266.093 133.549 263.585 134 260.594C134 257.725 134 252.258 128.924 249.475C125.984 247.749 122.2 247.019 118.91 247.886C113.099 249.427 110.914 254.695 112.503 260.546C114.093 266.397 122.334 268.583 128.146 267.042Z" fill="#CDC3C1"/>
<path opacity="0.66" d="M127.939 266.087C129.265 265.785 130.466 265.062 131.374 264.019C132.282 262.976 132.85 261.667 133 260.273C133 257.691 133 252.77 128.627 250.274C126.091 248.722 122.814 248.068 119.978 248.854C114.957 250.244 113.065 254.987 114.431 260.253C115.797 265.519 122.937 267.477 127.939 266.087Z" stroke="#E4E3E3" stroke-miterlimit="10" stroke-linecap="round" stroke-dasharray="5 5"/>
<path opacity="0.66" d="M118 254.956C118 254.956 119.142 260.897 121.849 260.501C124.556 260.106 121.639 254.52 121.639 254.52" stroke="#E4E3E3" stroke-width="3" stroke-linecap="round" stroke-linejoin="round"/>
<path opacity="0.66" d="M126.854 260.52L124 253.761C124 253.761 128.526 252.824 129.78 254.646C131.034 256.468 126.524 256.751 126.524 256.751" stroke="#E4E3E3" stroke-width="3" stroke-linecap="round" stroke-linejoin="round"/>
<path d="M194.538 162.317C194.538 162.317 172.152 80.7698 231.841 74.0033C271.071 69.5573 296.643 84.4867 309.563 95.2474C316.571 101.08 321.386 109.13 323.169 118.093C324.716 125.846 327.308 141.227 324.214 149.267C324.214 149.267 324.275 158.795 349.581 178.992C349.581 178.992 369.734 189.845 379.17 207.249C388.606 224.653 385.389 247.858 385.389 247.858C385.389 247.858 383.032 275.366 354.94 279.658C326.847 283.96 319.562 279.658 319.562 279.658C319.562 279.658 314.419 276.649 323.64 271.064C332.861 265.478 338.649 262.901 338.649 262.901C338.649 262.901 299.194 265.262 285.906 264.831C285.906 264.831 282.474 284.812 264.248 286.753C246.021 288.693 263.172 263.548 263.172 263.548C263.172 263.548 241.943 264.194 230.581 255.6C230.581 255.6 232.19 274.945 216.217 278.59C200.245 282.235 195.102 273.651 198.524 270.643C201.956 267.634 209.24 262.911 209.24 262.911L201.853 214.888C201.853 214.888 195.86 210.884 195.46 171.065L194.538 162.317Z" fill="#E4B652"/>
<path d="M385.331 226.572C385.331 226.572 389.94 222.097 393.227 214.099C396.503 206.101 402.517 210.999 403.341 214.998C404.145 218.925 407.869 228.763 386.114 239.417L382.889 232.421L385.331 226.572Z" fill="#E4B652"/>
<path d="M230.38 73.1622C230.38 73.1622 204.604 74.5142 195.214 73.9652C185.824 73.4161 180.34 71.0768 176.525 85.4703C172.712 99.854 177.434 112.207 180.299 113.753C183.276 115.353 187.659 116.417 192.412 107.377C197.176 98.339 202.492 86.9978 211.91 82.3322C219.869 78.3888 227.022 76.3994 229.057 75.874C229.53 75.7539 229.978 75.5731 230.41 75.3346C231.56 74.6836 233.268 73.4677 230.38 73.1622Z" fill="#544B43"/>
<path d="M273.656 77.607C273.656 77.607 270.157 73.3559 280.69 74.8731C291.213 76.392 299.716 77.3088 308.869 76.5172C318.032 75.7239 323.087 75.3228 326.587 82.5259C330.088 89.729 327.047 103.651 322.968 112.492C320.73 117.355 318.027 117.089 316.053 115.857C314.523 114.901 313.436 113.38 312.849 111.679C311.893 108.872 309.247 102.691 303.191 97.2684C298.667 93.2265 283.211 79.8533 273.656 77.607Z" fill="#544B43"/>
<path d="M216.672 127.707C216.672 127.707 229.659 114.916 247.259 114.27C264.859 113.623 274.546 127.707 274.546 127.707" stroke="#544B43" stroke-width="2" stroke-miterlimit="10" stroke-linecap="round" stroke-linejoin="round"/>
<path d="M246.259 120.697C246.259 120.697 235.095 119.445 236.275 128.872C236.419 129.998 237.106 131.019 238.163 131.366C239.425 131.776 241.528 131.618 244.853 129.335C244.853 129.335 246.033 128.23 247.429 129.388C248.824 130.545 250.271 132.502 253.647 131.439C255.032 131.008 255.822 129.987 256.273 128.946C257.187 126.82 256.653 124.264 254.878 122.822C253.359 121.612 250.763 120.539 246.259 120.697Z" fill="#544B43"/>
<path d="M194.465 162.184C194.465 162.184 257.477 188.105 323.931 149.41L331.333 161.523C331.333 161.523 254.062 201.326 194.639 172.665L194.465 162.184Z" fill="#16D2AA"/>
<path d="M230.541 255.904C230.541 255.904 230.131 237.676 231.238 235.47C232.345 233.264 235.288 234.656 230.541 255.904Z" fill="#C48F2C"/>
<path d="M263.443 263.643C263.443 263.643 265.378 242.893 265.228 236.982C265.07 230.701 267.479 249.072 263.443 263.643Z" fill="#C48F2C"/>
<path d="M285.984 264.989C285.984 264.989 287.974 242.641 291.019 240.241C294.063 237.831 285.984 264.989 285.984 264.989Z" fill="#C48F2C"/>
<path d="M338.813 262.97C338.813 262.97 326.344 259.345 326.726 248.747C327.109 238.149 335.805 228.986 335.805 228.986C335.805 228.986 311.92 255.884 338.813 262.97Z" fill="#C48F2C"/>
<path d="M221.887 118.286C223.838 118.286 225.419 116.629 225.419 114.585C225.419 112.541 223.838 110.884 221.887 110.884C219.935 110.884 218.354 112.541 218.354 114.585C218.354 116.629 219.935 118.286 221.887 118.286Z" fill="#544B43"/>
<path d="M270.844 117.949C272.888 117.949 274.545 116.292 274.545 114.248C274.545 112.204 272.888 110.547 270.844 110.547C268.8 110.547 267.143 112.204 267.143 114.248C267.143 116.292 268.8 117.949 270.844 117.949Z" fill="#544B43"/>
<path d="M249.954 208.876C256.239 208.876 261.334 203.441 261.334 196.737C261.334 190.033 256.239 184.598 249.954 184.598C243.669 184.598 238.574 190.033 238.574 196.737C238.574 203.441 243.669 208.876 249.954 208.876Z" fill="white"/>
<path d="M249.956 184.321C242.937 184.321 237.242 190.016 237.242 197.034C237.242 204.053 242.937 209.748 249.956 209.748C256.974 209.748 262.669 204.053 262.669 197.034C262.659 190.016 256.974 184.321 249.956 184.321ZM249.956 207.983C243.902 207.983 239.007 203.078 239.007 197.034C239.007 190.98 243.912 186.086 249.956 186.086C256.01 186.086 260.905 190.991 260.905 197.034C260.905 203.078 256 207.983 249.956 207.983Z" fill="#16D2AA"/>
<path d="M249.955 207.982C256.001 207.982 260.903 203.08 260.903 197.034C260.903 190.987 256.001 186.085 249.955 186.085C243.908 186.085 239.006 190.987 239.006 197.034C239.006 203.08 243.908 207.982 249.955 207.982Z" fill="white"/>
<path d="M244.453 199.682C244.801 200.113 245.273 200.338 245.869 200.338C246.464 200.338 246.925 200.123 247.274 199.682C247.623 199.251 247.798 198.656 247.798 197.896V193.956L249.901 192.694V197.958C249.901 199.323 249.522 200.369 248.773 201.098C248.023 201.826 247.049 202.196 245.879 202.196C244.699 202.196 243.734 201.826 242.975 201.088C242.216 200.349 241.836 199.302 241.836 197.948V193.946L243.939 192.684V197.886C243.929 198.656 244.104 199.251 244.453 199.682Z" fill="#16D2AA"/>
<path d="M257.085 193.546C257.741 194.111 258.07 194.973 258.07 196.132C258.07 197.292 257.731 198.143 257.054 198.687C256.377 199.231 255.34 199.498 253.955 199.498H252.703V200.863L250.6 202.125V192.715H253.924C255.371 192.705 256.418 192.982 257.085 193.546ZM255.535 197.251C255.782 196.963 255.915 196.553 255.915 196.009C255.915 195.465 255.751 195.075 255.422 194.849C255.094 194.624 254.581 194.511 253.893 194.511H252.693V197.671H254.109C254.807 197.671 255.289 197.528 255.535 197.251Z" fill="#16D2AA"/>
<path d="M250.042 182.627C250.042 182.627 251.43 184.96 250.097 186.229C248.775 187.498 250.785 186.649 250.785 186.649C250.785 186.649 252.009 184.326 250.785 182.627C250.796 182.627 250.534 181.703 250.042 182.627Z" fill="#B5DFD5"/>
<path d="M248.301 183.639L248.974 183.562V184.517L248.301 184.572V183.639Z" fill="#B5DFD5"/>
<path d="M242.992 138.459C242.992 138.459 243.642 142.53 245.977 142.848C248.307 143.17 249.403 139.247 249.403 139.247L246.094 136.465L242.992 138.459Z" fill="#DA4351"/>
<path d="M245.947 129.053V135.972C245.947 135.972 247.557 139.289 253.426 139.483C253.833 139.493 254.241 139.442 254.638 139.34C255.912 139.004 258.683 138.089 259.743 136.155" stroke="#544B43" stroke-width="2" stroke-miterlimit="10" stroke-linecap="round" stroke-linejoin="round"/>
<path d="M245.946 135.783C245.946 135.783 243.245 140.876 238.906 139.622C234.567 138.368 234.506 135.783 234.506 135.783" stroke="#544B43" stroke-width="2" stroke-miterlimit="10" stroke-linecap="round" stroke-linejoin="round"/>
<ellipse cx="310.096" cy="110.103" rx="13.9637" ry="21.5344" transform="rotate(-8.7083 310.096 110.103)" fill="#797979"/>
<ellipse cx="189.019" cy="110.416" rx="11.4401" ry="21.5344" transform="rotate(9.20274 189.019 110.416)" fill="#797979"/>
<ellipse cx="183.609" cy="109.334" rx="6.50464" ry="18.1696" transform="rotate(9.20274 183.609 109.334)" fill="#B7C6DA"/>
<ellipse cx="314.42" cy="109.441" rx="10.9354" ry="18.1696" transform="rotate(-8.7083 314.42 109.441)" fill="#B7C6DA"/>
<ellipse cx="182.149" cy="109.146" rx="5.63525" ry="16.4873" transform="rotate(9.20274 182.149 109.146)" fill="#1855D1"/>
<ellipse cx="316.415" cy="109.135" rx="9.926" ry="16.4873" transform="rotate(-8.7083 316.415 109.135)" fill="#1855D1"/>
<rect x="198.439" y="79.6729" width="5.74709" height="13.459" rx="2.87354" transform="rotate(34.7329 198.439 79.6729)" fill="#C1CBDD"/>
<rect x="300.266" y="81.4487" width="7.06597" height="13.459" rx="3.53298" transform="rotate(-32.1371 300.266 81.4487)" fill="#C1CBDD"/>
<path d="M195.686 83.4314C194.008 81.201 194.146 78.094 196.016 76.0217L202.939 68.3509C205.394 65.6304 209.72 65.8232 211.924 68.7512V68.7512C213.602 70.9816 213.463 74.0886 211.593 76.1609L204.671 83.8318C202.216 86.5522 197.89 86.3594 195.686 83.4314V83.4314Z" fill="#C1CBDD"/>
<path d="M304.297 83.1735C301.481 85.0406 297.727 84.5927 295.429 82.1155L289.833 76.0837C286.939 72.9642 287.532 67.9944 291.079 65.6433V65.6433C293.895 63.7762 297.649 64.2241 299.947 66.7013L305.543 72.7331C308.436 75.8526 307.843 80.8224 304.297 83.1735V83.1735Z" fill="#C1CBDD"/>
<path d="M279.5 74.6157C260.564 69.2983 233.144 72.2799 216.46 75.4844C212.465 76.2516 208.364 74.5619 206.229 71.0993C202.997 65.8577 205.586 58.9606 211.559 57.4637C246.511 48.7048 273.439 51.838 289.498 57.3864C296.293 59.7341 296.746 68.0347 291.182 72.5869C287.95 75.2304 283.52 75.7444 279.5 74.6157Z" fill="#1855D1"/>
<path d="M443.63 260.901H377.201C372.384 260.901 368.479 264.791 368.479 269.589V284.291C368.479 289.09 372.384 292.979 377.201 292.979H443.63C448.448 292.979 452.353 289.09 452.353 284.291V269.589C452.353 264.791 448.448 260.901 443.63 260.901Z" fill="#48A8D4"/>
<path d="M400.722 213.225H449.569C451.167 213.225 452.699 213.857 453.828 214.983C454.957 216.109 455.592 217.636 455.592 219.228V227.233C455.592 228.825 454.957 230.352 453.828 231.478C452.699 232.604 451.167 233.237 449.569 233.237H400.722C398.415 233.237 396.203 232.323 394.571 230.697C392.94 229.071 392.023 226.865 392.023 224.565V221.897C392.023 219.597 392.94 217.391 394.571 215.765C396.203 214.138 398.415 213.225 400.722 213.225V213.225Z" fill="#EAA844"/>
<path d="M421.451 266.916C421.451 265.32 422.087 263.79 423.219 262.662C424.351 261.534 425.887 260.901 427.488 260.901H475.055C476.137 260.901 477.174 261.329 477.939 262.091C478.704 262.853 479.134 263.886 479.134 264.964H474.667C474.667 264.964 472.534 268.773 472.534 276.94C472.534 285.107 474.667 288.97 474.667 288.97H479.134C479.134 290.033 478.71 291.053 477.955 291.805C477.2 292.557 476.176 292.979 475.109 292.979H427.488C425.887 292.979 424.351 292.345 423.219 291.218C422.087 290.09 421.451 288.56 421.451 286.965V266.916Z" fill="#63BEDB"/>
<path d="M444.996 217.227C444.996 216.166 444.572 215.147 443.819 214.397C443.065 213.646 442.043 213.225 440.977 213.225H389.404C388.693 213.225 388.012 213.506 387.51 214.006C387.007 214.506 386.725 215.185 386.725 215.893H391.239C391.239 215.893 393.389 218.134 393.389 223.231C393.389 228.327 391.239 230.569 391.239 230.569H386.725C386.725 231.276 387.007 231.955 387.51 232.455C388.012 232.956 388.693 233.237 389.404 233.237H440.977C442.043 233.237 443.065 232.815 443.819 232.064C444.572 231.314 444.996 230.296 444.996 229.234V217.227Z" fill="#C6841E"/>
<path d="M466.479 247.069C466.479 243.4 465.029 239.882 462.446 237.288C459.864 234.694 456.361 233.237 452.709 233.237H381.843C380.952 233.237 380.098 233.592 379.468 234.225C378.838 234.858 378.484 235.716 378.484 236.61H382.582C382.582 236.61 384.543 240.025 384.543 247.069C384.543 254.113 382.582 257.298 382.582 257.298H378.484C378.484 258.253 378.862 259.169 379.535 259.845C380.208 260.521 381.12 260.901 382.072 260.901H452.709C456.361 260.901 459.864 259.443 462.446 256.849C465.029 254.255 466.479 250.737 466.479 247.069Z" fill="#E74F56"/>
<path d="M425.573 268.842C425.561 268.314 425.653 267.789 425.843 267.296C426.033 266.803 426.319 266.353 426.683 265.97C427.047 265.588 427.483 265.282 427.966 265.068C428.449 264.855 428.968 264.739 429.496 264.727H475.014C475.014 264.727 473.046 268.561 473.046 276.793C473.046 285.025 475.014 288.859 475.014 288.859H429.965C428.915 288.859 427.908 288.448 427.157 287.714C426.407 286.98 425.973 285.981 425.948 284.931L425.573 268.842Z" fill="#F3EBDA"/>
<path d="M442.347 218.548C442.347 217.839 442.064 217.158 441.56 216.657C441.056 216.155 440.372 215.873 439.659 215.873H387.902C387.902 215.873 390.013 218.221 390.013 223.23C390.013 228.24 387.902 230.588 387.902 230.588H439.659C440.372 230.588 441.056 230.306 441.56 229.804C442.064 229.302 442.347 228.622 442.347 227.912V218.548Z" fill="#F3EBDA"/>
<path d="M462.652 247.069C462.718 244.403 461.717 241.82 459.868 239.888C458.019 237.957 455.473 236.835 452.792 236.769H382.018C382.018 236.769 383.829 240.045 383.829 247.056C383.829 254.067 382.018 257.369 382.018 257.369H452.029C454.802 257.37 457.465 256.293 459.45 254.369C461.435 252.444 462.584 249.824 462.652 247.069V247.069Z" fill="#F3EBDA"/>
<path d="M391.434 220.288L438.521 220.582" stroke="#D7CABA" stroke-linecap="round" stroke-linejoin="round"/>
<path d="M389.67 242.949L447.352 243.243" stroke="#D7CABA" stroke-linecap="round" stroke-linejoin="round"/>
<path d="M389.67 251.189L447.352 251.483" stroke="#D7CABA" stroke-linecap="round" stroke-linejoin="round"/>
<path d="M431.754 267.964L470.307 267.67" stroke="#D7CABA" stroke-linecap="round" stroke-linejoin="round"/>
<path d="M431.754 285.328L470.307 285.033" stroke="#D7CABA" stroke-linecap="round" stroke-linejoin="round"/>
<path d="M392.609 222.937H438.814" stroke="#D7CABA" stroke-linecap="round" stroke-linejoin="round"/>
<path d="M391.729 228.234H438.816" stroke="#D7CABA" stroke-linecap="round" stroke-linejoin="round"/>
<path d="M392.609 246.186H447.349" stroke="#D7CABA" stroke-linecap="round" stroke-linejoin="round"/>
<path d="M431.754 271.79H467.953" stroke="#D7CABA" stroke-linecap="round" stroke-linejoin="round"/>
<path d="M431.754 277.97H466.775" stroke="#D7CABA" stroke-linecap="round" stroke-linejoin="round"/>
<defs>
<linearGradient id="paint0_linear_2208_10742" x1="113.996" y1="222.421" x2="117.581" y2="290.042" gradientUnits="userSpaceOnUse">
<stop stop-color="#D1C6C6"/>
<stop offset="1" stop-color="#988189"/>
</linearGradient>
</defs>
</svg>
