<svg fill="none" height="334" viewBox="0 0 543 334" width="543" xmlns="http://www.w3.org/2000/svg" xmlns:xlink="http://www.w3.org/1999/xlink"><linearGradient id="a" gradientUnits="userSpaceOnUse" x1="113.996" x2="117.581" y1="222.421" y2="290.042"><stop offset="0" stop-color="#d1c6c6"/><stop offset="1" stop-color="#988189"/></linearGradient><ellipse cx="295.5" cy="274.52" fill="#898989" fill-opacity=".3" rx="116.5" ry="19"/><ellipse cx="420" cy="289.52" fill="#898989" fill-opacity=".2" rx="74" ry="12"/><ellipse cx="168" cy="289.52" fill="#898989" fill-opacity=".2" rx="99" ry="12"/><path d="m249.306 286.52c.449 0 .88.158 1.198.439.318.282.496.663.496 1.061 0 .398-.178.779-.496 1.061-.318.281-.749.439-1.198.439h-56.141l-3.165-3z" fill="#988189"/><path d="m158.488 222.52c.362 0 .718.099 1.027.288s.561.459.726.781l33.759 65.931h-102.4337c-.3535 0-.7005-.095-1.0047-.275-.3041-.181-.5541-.439-.7238-.75l-34.596-63.059c-.1242-.227-.2024-.476-.2303-.733-.0279-.258-.0049-.518.0678-.766.0727-.249.1937-.48.3559-.682s.3626-.37.5896-.494c.29-.158.6151-.241.9455-.241z" fill="url(#a)"/><path d="m128.146 267.042c3.654-.949 5.403-3.457 5.854-6.448 0-2.869 0-8.336-5.076-11.119-2.94-1.726-6.724-2.456-10.014-1.589-5.811 1.541-7.996 6.809-6.407 12.66 1.59 5.851 9.831 8.037 15.643 6.496z" fill="#cdc3c1"/><path d="m127.939 266.087c1.326-.302 2.527-1.025 3.435-2.068s1.476-2.352 1.626-3.746c0-2.582 0-7.503-4.373-9.999-2.536-1.552-5.813-2.206-8.649-1.42-5.021 1.39-6.913 6.133-5.547 11.399s8.506 7.224 13.508 5.834z" opacity=".66" stroke="#e4e3e3" stroke-dasharray="5 5" stroke-linecap="round" stroke-miterlimit="10"/><path d="m118 254.956s1.142 5.941 3.849 5.545c2.707-.395-.21-5.981-.21-5.981" opacity=".66" stroke="#e4e3e3" stroke-linecap="round" stroke-linejoin="round" stroke-width="3"/><path d="m126.854 260.52-2.854-6.759s4.526-.937 5.78.885-3.256 2.105-3.256 2.105" opacity=".66" stroke="#e4e3e3" stroke-linecap="round" stroke-linejoin="round" stroke-width="3"/><path d="m194.538 162.317s-22.386-81.5472 37.303-88.3137c39.23-4.446 64.802 10.4834 77.722 21.2441 7.008 5.8326 11.823 13.8826 13.606 22.8456 1.547 7.753 4.139 23.134 1.045 31.174 0 0 .061 9.528 25.367 29.725 0 0 20.153 10.853 29.589 28.257s6.219 40.609 6.219 40.609-2.357 27.508-30.449 31.8c-28.093 4.302-35.378 0-35.378 0s-5.143-3.009 4.078-8.594c9.221-5.586 15.009-8.163 15.009-8.163s-39.455 2.361-52.743 1.93c0 0-3.432 19.981-21.658 21.922-18.227 1.94-1.076-23.205-1.076-23.205s-21.229.646-32.591-7.948c0 0 1.609 19.345-14.364 22.99-15.972 3.645-21.115-4.939-17.693-7.947 3.432-3.009 10.716-7.732 10.716-7.732l-7.387-48.023s-5.993-4.004-6.393-43.823z" fill="#e4b652"/><path d="m385.331 226.572s4.609-4.475 7.896-12.473c3.276-7.998 9.29-3.1 10.114.899.804 3.927 4.528 13.765-17.227 24.419l-3.225-6.996z" fill="#e4b652"/><path d="m230.38 73.1622s-25.776 1.352-35.166.803c-9.39-.5491-14.874-2.8884-18.689 11.5051-3.813 14.3837.909 26.7367 3.774 28.2827 2.977 1.6 7.36 2.664 12.113-6.376 4.764-9.038 10.08-20.3792 19.498-25.0448 7.959-3.9434 15.112-5.9328 17.147-6.4582.473-.1201.921-.3009 1.353-.5394 1.15-.651 2.858-1.8669-.03-2.1724z" fill="#544b43"/><path d="m273.656 77.607s-3.499-4.2511 7.034-2.7339c10.523 1.5189 19.026 2.4357 28.179 1.6441 9.163-.7933 14.218-1.1944 17.718 6.0087 3.501 7.2031.46 21.1251-3.619 29.9661-2.238 4.863-4.941 4.597-6.915 3.365-1.53-.956-2.617-2.477-3.204-4.178-.956-2.807-3.602-8.988-9.658-14.4106-4.524-4.0419-19.98-17.4151-29.535-19.6614z" fill="#544b43"/><path d="m216.672 127.707s12.987-12.791 30.587-13.437c17.6-.647 27.287 13.437 27.287 13.437" stroke="#544b43" stroke-linecap="round" stroke-linejoin="round" stroke-miterlimit="10" stroke-width="2"/><path d="m246.259 120.697s-11.164-1.252-9.984 8.175c.144 1.126.831 2.147 1.888 2.494 1.262.41 3.365.252 6.69-2.031 0 0 1.18-1.105 2.576.053 1.395 1.157 2.842 3.114 6.218 2.051 1.385-.431 2.175-1.452 2.626-2.493.914-2.126.38-4.682-1.395-6.124-1.519-1.21-4.115-2.283-8.619-2.125z" fill="#544b43"/><path d="m194.465 162.184s63.012 25.921 129.466-12.774l7.402 12.113s-77.271 39.803-136.694 11.142z" fill="#16d2aa"/><path d="m230.541 255.904s-.41-18.228.697-20.434 4.05-.814-.697 20.434z" fill="#c48f2c"/><path d="m263.443 263.643s1.935-20.75 1.785-26.661c-.158-6.281 2.251 12.09-1.785 26.661z" fill="#c48f2c"/><path d="m285.984 264.989s1.99-22.348 5.035-24.748c3.044-2.41-5.035 24.748-5.035 24.748z" fill="#c48f2c"/><path d="m338.813 262.97s-12.469-3.625-12.087-14.223c.383-10.598 9.079-19.761 9.079-19.761s-23.885 26.898 3.008 33.984z" fill="#c48f2c"/><path d="m221.887 118.286c1.951 0 3.532-1.657 3.532-3.701s-1.581-3.701-3.532-3.701c-1.952 0-3.533 1.657-3.533 3.701s1.581 3.701 3.533 3.701z" fill="#544b43"/><path d="m270.844 117.949c2.044 0 3.701-1.657 3.701-3.701s-1.657-3.701-3.701-3.701-3.701 1.657-3.701 3.701 1.657 3.701 3.701 3.701z" fill="#544b43"/><path d="m249.954 208.876c6.285 0 11.38-5.435 11.38-12.139s-5.095-12.139-11.38-12.139-11.38 5.435-11.38 12.139 5.095 12.139 11.38 12.139z" fill="#fff"/><path d="m249.956 184.321c-7.019 0-12.714 5.695-12.714 12.713 0 7.019 5.695 12.714 12.714 12.714 7.018 0 12.713-5.695 12.713-12.714-.01-7.018-5.695-12.713-12.713-12.713zm0 23.662c-6.054 0-10.949-4.905-10.949-10.949 0-6.054 4.905-10.948 10.949-10.948 6.054 0 10.949 4.905 10.949 10.948 0 6.044-4.905 10.949-10.949 10.949z" fill="#16d2aa"/><path d="m249.955 207.982c6.046 0 10.948-4.902 10.948-10.948 0-6.047-4.902-10.949-10.948-10.949-6.047 0-10.949 4.902-10.949 10.949 0 6.046 4.902 10.948 10.949 10.948z" fill="#fff"/><path d="m244.453 199.682c.348.431.82.656 1.416.656.595 0 1.056-.215 1.405-.656.349-.431.524-1.026.524-1.786v-3.94l2.103-1.262v5.264c0 1.365-.379 2.411-1.128 3.14-.75.728-1.724 1.098-2.894 1.098-1.18 0-2.145-.37-2.904-1.108-.759-.739-1.139-1.786-1.139-3.14v-4.002l2.103-1.262v5.202c-.01.77.165 1.365.514 1.796z" fill="#16d2aa"/><path d="m257.085 193.546c.656.565.985 1.427.985 2.586 0 1.16-.339 2.011-1.016 2.555s-1.714.811-3.099.811h-1.252v1.365l-2.103 1.262v-9.41h3.324c1.447-.01 2.494.267 3.161.831zm-1.55 3.705c.247-.288.38-.698.38-1.242s-.164-.934-.493-1.16c-.328-.225-.841-.338-1.529-.338h-1.2v3.16h1.416c.698 0 1.18-.143 1.426-.42z" fill="#16d2aa"/><path d="m250.042 182.627s1.388 2.333.055 3.602c-1.322 1.269.688.42.688.42s1.224-2.323 0-4.022c.011 0-.251-.924-.743 0z" fill="#b5dfd5"/><path d="m248.301 183.639.673-.077v.955l-.673.055z" fill="#b5dfd5"/><path d="m242.992 138.459s.65 4.071 2.985 4.389c2.33.322 3.426-3.601 3.426-3.601l-3.309-2.782z" fill="#da4351"/><path d="m245.947 129.053v6.919s1.61 3.317 7.479 3.511c.407.01.815-.041 1.212-.143 1.274-.336 4.045-1.251 5.105-3.185" stroke="#544b43" stroke-linecap="round" stroke-linejoin="round" stroke-miterlimit="10" stroke-width="2"/><path d="m245.946 135.783s-2.701 5.093-7.04 3.839-4.4-3.839-4.4-3.839" stroke="#544b43" stroke-linecap="round" stroke-linejoin="round" stroke-miterlimit="10" stroke-width="2"/><ellipse cx="310.096" cy="110.103" fill="#797979" rx="13.9637" ry="21.5344" transform="matrix(.98847196 -.15140401 .15140401 .98847196 -13.095238 48.21905)"/><ellipse cx="189.019" cy="110.416" fill="#797979" rx="11.4401" ry="21.5344" transform="matrix(.98712862 .15992839 -.15992839 .98712862 20.091589 -28.808299)"/><ellipse cx="183.609" cy="109.334" fill="#b7c6da" rx="6.50464" ry="18.1696" transform="matrix(.98712862 .15992839 -.15992839 .98712862 19.848913 -27.957013)"/><ellipse cx="314.42" cy="109.441" fill="#b7c6da" rx="10.9354" ry="18.1696" transform="matrix(.98847196 -.15140401 .15140401 .98847196 -12.945162 48.86609)"/><ellipse cx="182.149" cy="109.146" fill="#1855d1" rx="5.63525" ry="16.4873" transform="matrix(.98712862 .15992839 -.15992839 .98712862 19.800054 -27.725937)"/><ellipse cx="316.415" cy="109.135" fill="#1855d1" rx="9.926" ry="16.4873" transform="matrix(.98847196 -.15140401 .15140401 .98847196 -12.875834 49.164613)"/><rect fill="#c1cbdd" height="13.459" rx="2.87354" transform="matrix(.82181702 .56975152 -.56975152 .82181702 80.752208 -98.864566)" width="5.74709" x="198.439" y="79.6729"/><rect fill="#c1cbdd" height="13.459" rx="3.53298" transform="matrix(.84677765 -.53194699 .53194699 .84677765 2.68107 172.205357)" width="7.06597" x="300.266" y="81.4487"/><path d="m195.686 83.4314c-1.678-2.2304-1.54-5.3374.33-7.4097l6.923-7.6708c2.455-2.7205 6.781-2.5277 8.985.4003 1.678 2.2304 1.539 5.3374-.331 7.4097l-6.922 7.6709c-2.455 2.7204-6.781 2.5276-8.985-.4004z" fill="#c1cbdd"/><path d="m304.297 83.1735c-2.816 1.8671-6.57 1.4192-8.868-1.058l-5.596-6.0318c-2.894-3.1195-2.301-8.0893 1.246-10.4404 2.816-1.8671 6.57-1.4192 8.868 1.058l5.596 6.0318c2.893 3.1195 2.3 8.0893-1.246 10.4404z" fill="#c1cbdd"/><path d="m279.5 74.6157c-18.936-5.3174-46.356-2.3358-63.04.8687-3.995.7672-8.096-.9225-10.231-4.3851-3.232-5.2416-.643-12.1387 5.33-13.6356 34.952-8.7589 61.88-5.6257 77.939-.0773 6.795 2.3477 7.248 10.6483 1.684 15.2005-3.232 2.6435-7.662 3.1575-11.682 2.0288z" fill="#1855d1"/><path d="m443.63 260.901h-66.429c-4.817 0-8.722 3.89-8.722 8.688v14.702c0 4.799 3.905 8.688 8.722 8.688h66.429c4.818 0 8.723-3.889 8.723-8.688v-14.702c0-4.798-3.905-8.688-8.723-8.688z" fill="#48a8d4"/><path d="m400.722 213.225h48.847c1.598 0 3.13.632 4.259 1.758s1.764 2.653 1.764 4.245v8.005c0 1.592-.635 3.119-1.764 4.245s-2.661 1.759-4.259 1.759h-48.847c-2.307 0-4.519-.914-6.151-2.54-1.631-1.626-2.548-3.832-2.548-6.132v-2.668c0-2.3.917-4.506 2.548-6.132 1.632-1.627 3.844-2.54 6.151-2.54z" fill="#eaa844"/><path d="m421.451 266.916c0-1.596.636-3.126 1.768-4.254s2.668-1.761 4.269-1.761h47.567c1.082 0 2.119.428 2.884 1.19s1.195 1.795 1.195 2.873h-4.467s-2.133 3.809-2.133 11.976 2.133 12.03 2.133 12.03h4.467c0 1.063-.424 2.083-1.179 2.835s-1.779 1.174-2.846 1.174h-47.621c-1.601 0-3.137-.634-4.269-1.761-1.132-1.128-1.768-2.658-1.768-4.253z" fill="#63bedb"/><path d="m444.996 217.227c0-1.061-.424-2.08-1.177-2.83-.754-.751-1.776-1.172-2.842-1.172h-51.573c-.711 0-1.392.281-1.894.781-.503.5-.785 1.179-.785 1.887h4.514s2.15 2.241 2.15 7.338c0 5.096-2.15 7.338-2.15 7.338h-4.514c0 .707.282 1.386.785 1.886.502.501 1.183.782 1.894.782h51.573c1.066 0 2.088-.422 2.842-1.173.753-.75 1.177-1.768 1.177-2.83z" fill="#c6841e"/><path d="m466.479 247.069c0-3.669-1.45-7.187-4.033-9.781-2.582-2.594-6.085-4.051-9.737-4.051h-70.866c-.891 0-1.745.355-2.375.988s-.984 1.491-.984 2.385h4.098s1.961 3.415 1.961 10.459-1.961 10.229-1.961 10.229h-4.098c0 .955.378 1.871 1.051 2.547s1.585 1.056 2.537 1.056h70.637c3.652 0 7.155-1.458 9.737-4.052 2.583-2.594 4.033-6.112 4.033-9.78z" fill="#e74f56"/><path d="m425.573 268.842c-.012-.528.08-1.053.27-1.546s.476-.943.84-1.326c.364-.382.8-.688 1.283-.902.483-.213 1.002-.329 1.53-.341h45.518s-1.968 3.834-1.968 12.066 1.968 12.066 1.968 12.066h-45.049c-1.05 0-2.057-.411-2.808-1.145-.75-.734-1.184-1.733-1.209-2.783z" fill="#f3ebda"/><path d="m442.347 218.548c0-.709-.283-1.39-.787-1.891-.504-.502-1.188-.784-1.901-.784h-51.757s2.111 2.348 2.111 7.357c0 5.01-2.111 7.358-2.111 7.358h51.757c.713 0 1.397-.282 1.901-.784s.787-1.182.787-1.892z" fill="#f3ebda"/><path d="m462.652 247.069c.066-2.666-.935-5.249-2.784-7.181-1.849-1.931-4.395-3.053-7.076-3.119h-70.774s1.811 3.276 1.811 10.287-1.811 10.313-1.811 10.313h70.011c2.773.001 5.436-1.076 7.421-3 1.985-1.925 3.134-4.545 3.202-7.3z" fill="#f3ebda"/><g stroke-linecap="round"><path d="m391.434 220.288 47.087.294" stroke="#d7caba" stroke-linejoin="round"/><path d="m389.67 242.949 57.682.294" stroke="#d7caba" stroke-linejoin="round"/><path d="m389.67 251.189 57.682.294" stroke="#d7caba" stroke-linejoin="round"/><path d="m431.754 267.964 38.553-.294" stroke="#d7caba" stroke-linejoin="round"/><path d="m431.754 285.328 38.553-.295" stroke="#d7caba" stroke-linejoin="round"/><path d="m392.609 222.937h46.205" stroke="#d7caba" stroke-linejoin="round"/><path d="m391.729 228.234h47.087" stroke="#d7caba" stroke-linejoin="round"/><path d="m392.609 246.186h54.74" stroke="#d7caba" stroke-linejoin="round"/><path d="m431.754 271.79h36.199" stroke="#d7caba" stroke-linejoin="round"/><path d="m431.754 277.97h35.021" stroke="#d7caba" stroke-linejoin="round"/></g></svg>