<svg fill="none" height="41" viewBox="0 0 40 41" width="40" xmlns="http://www.w3.org/2000/svg"><path d="m20 40c11.0457 0 20-8.9543 20-20 0-11.04569-8.9543-20-20-20-11.04569 0-20 8.95431-20 20 0 11.0457 8.95431 20 20 20z" fill="#16d2aa"/><path d="m19.8249 32.8104c-7.4289 0-8.8249 4.6896-8.8249 4.6896s7.5 5.5 17.5.5c0 0-1.2448-5.1896-8.6751-5.1896z" fill="#e0efe8"/><path d="m11.0448 37.8681s1.3512-5.0591 8.7801-5.0591 8.7932 5.2415 8.7932 5.2415" fill="#e0efe8"/><g stroke="#000" stroke-miterlimit="10"><path d="m11.0448 37.8681s1.3512-5.0591 8.7801-5.0591 8.7932 5.2415 8.7932 5.2415"/><path d="m20.127 9.94597s-.6216-4.02452 3.0468-5.89086"/><path d="m24.4959 5.11749c.7301 0 1.322-.59191 1.322-1.32205 0-.73015-.5919-1.32205-1.322-1.32205-.7302 0-1.3221.5919-1.3221 1.32205 0 .73014.5919 1.32205 1.3221 1.32205z" fill="#f3f9f6"/><path d="m7.68861 24.6155c1.83263 0 3.31829-1.4856 3.31829-3.3182 0-1.8327-1.48566-3.3183-3.31829-3.3183-1.83262 0-3.31825 1.4856-3.31825 3.3183 0 1.8326 1.48563 3.3182 3.31825 3.3182z" fill="#e0efe8"/><path d="m32.5318 24.6155c1.8326 0 3.3182-1.4856 3.3182-3.3182 0-1.8327-1.4856-3.3183-3.3182-3.3183-1.8327 0-3.3183 1.4856-3.3183 3.3183 0 1.8326 1.4856 3.3182 3.3183 3.3182z" fill="#e0efe8"/><path d="m20.1108 12.1115c1.171 0 2.1203-.9493 2.1203-2.12023 0-1.17097-.9493-2.12024-2.1203-2.12024-1.1709 0-2.1202.94927-2.1202 2.12024 0 1.17093.9493 2.12023 2.1202 2.12023z" fill="#e0efe8"/><path d="m23.9136 31.2623h-7.6069c-5.0825 0-9.20184-4.1194-9.20184-9.2019v-2.914c0-5.0825 4.11934-9.20182 9.20184-9.20182h7.6069c5.0824 0 9.2018 4.11932 9.2018 9.20182v2.914c0 5.0825-4.1194 9.2019-9.2018 9.2019z" fill="#e0efe8"/><path d="m25.8281 27.5062h-11.4329c-2.2472 0-4.0683-1.8211-4.0683-4.0682v-3.8845c0-2.2472 1.8211-4.0683 4.0683-4.0683h11.4329c2.2472 0 4.0683 1.8211 4.0683 4.0683v3.8845c0 2.2471-1.8225 4.0682-4.0683 4.0682z" fill="#fff"/><path d="m22.0078 23.864s-.3516 1.4446-1.897 1.4446c-1.5467 0-1.8969-1.4446-1.8969-1.4446" stroke-linecap="round" stroke-linejoin="round"/><path d="m15.7683 9.99127v5.30283"/><path d="m24.4696 9.99127v5.30283"/><path d="m23.705 21.8284s.2495-1.0258 1.3483-1.0258 1.3483 1.0258 1.3483 1.0258" stroke-linecap="round" stroke-linejoin="round"/><path d="m13.8363 21.8284s.2495-1.0258 1.3483-1.0258 1.3483 1.0258 1.3483 1.0258" stroke-linecap="round" stroke-linejoin="round"/></g></svg>