<svg fill="none" height="44" viewBox="0 0 44 44" width="44" xmlns="http://www.w3.org/2000/svg"><circle cx="21.9348" cy="22.2044" fill="#f2fbf9" r="19.7942" stroke="#16d2aa" stroke-width="4"/><path clip-rule="evenodd" d="m20.3569 28.739-.7526-.7526-.7526.7526c.4156.4157 1.0895.4157 1.5052 0zm-.7526-2.2578-4.924-4.924c-.4157-.4157-1.0896-.4157-1.5053 0-.4156.4156-.4156 1.0895 0 1.5052l5.6767 5.6766.7526-.7526c.7526.7526.7525.7527.7526.7526l10.9524-10.9523c.4156-.4157.4156-1.0896 0-1.5053-.4157-.4157-1.0896-.4157-1.5053 0z" fill="#16d2aa" fill-rule="evenodd"/><path d="m19.6043 27.9864.7526.7526m-.7526-.7526-.7526.7526m.7526-.7526c.7526.7526.7525.7527.7526.7526m0 0c-.4157.4157-1.0896.4157-1.5052 0m1.5052 0 10.9524-10.9523c.4156-.4157.4156-1.0896 0-1.5053-.4157-.4157-1.0896-.4157-1.5053 0l-10.1997 10.1998-4.924-4.924c-.4157-.4157-1.0896-.4157-1.5053 0-.4156.4156-.4156 1.0895 0 1.5052l5.6767 5.6766" stroke="#16d2aa" stroke-linecap="round" stroke-linejoin="round" stroke-width="2"/></svg>