<svg fill="none" height="134" viewBox="0 0 121 134" width="121" xmlns="http://www.w3.org/2000/svg" xmlns:xlink="http://www.w3.org/1999/xlink"><filter id="a" color-interpolation-filters="sRGB" filterUnits="userSpaceOnUse" height="107.081" width="103.304" x="7.75708" y="16.7656"><feFlood flood-opacity="0" result="BackgroundImageFix"/><feColorMatrix in="SourceAlpha" result="hardAlpha" type="matrix" values="0 0 0 0 0 0 0 0 0 0 0 0 0 0 0 0 0 0 127 0"/><feOffset dy="4"/><feGaussianBlur stdDeviation="2"/><feComposite in2="hardAlpha" operator="out"/><feColorMatrix type="matrix" values="0 0 0 0 0 0 0 0 0 0 0 0 0 0 0 0 0 0 0.25 0"/><feBlend in2="BackgroundImageFix" mode="normal" result="effect1_dropShadow_3015_573"/><feBlend in="SourceGraphic" in2="effect1_dropShadow_3015_573" mode="normal" result="shape"/></filter><filter id="b" color-interpolation-filters="sRGB" filterUnits="userSpaceOnUse" height="30.0942" width="32.3972" x="66.291" y="16.3745"><feFlood flood-opacity="0" result="BackgroundImageFix"/><feColorMatrix in="SourceAlpha" result="hardAlpha" type="matrix" values="0 0 0 0 0 0 0 0 0 0 0 0 0 0 0 0 0 0 127 0"/><feOffset dx="2" dy="4"/><feGaussianBlur stdDeviation="1"/><feComposite in2="hardAlpha" operator="out"/><feColorMatrix type="matrix" values="0 0 0 0 0 0 0 0 0 0 0 0 0 0 0 0 0 0 0.25 0"/><feBlend in2="BackgroundImageFix" mode="normal" result="effect1_dropShadow_3015_573"/><feBlend in="SourceGraphic" in2="effect1_dropShadow_3015_573" mode="normal" result="shape"/></filter><g opacity=".8"><path d="m110.834 41.771-54.0226-30.7621c-2.5413-1.44712-5.7745-.5601-7.2217 1.9812l-42.39584 74.453c-1.44711 2.5414-.56008 5.7746 1.98124 7.2217l54.0225 30.7622c2.5414 1.447 5.7746.56 7.2217-1.981l42.3957-74.4533c1.447-2.5413.56-5.7746-1.981-7.2217z" fill="#778cc2"/><path d="m107.06 46.6939-52.5532-29.9253-41.5557 72.9776 52.553 29.9258z" fill="#f6f4f5"/><g filter="url(#a)"><path d="m64.7725 115.847-53.0154-28.7537 15.4324-23.4052c1.4121-2.1401 1.6579-2.538 2.9273-4.7671l24.3914-42.1553 52.5528 29.9253z" fill="#f6f4f5"/></g><g filter="url(#b)"><path d="m66.2911 26.1449 25.1547 14.3239s5.806-8.3277 1.8793-10.9235c-3.9267-2.5957 1.8047-7.7352-5.5284-11.9109s-8.8189 3.5632-12.9003 1.2391-8.6053 7.2714-8.6053 7.2714z" fill="#df755f"/></g><path d="m84.5095 23.3801c1.2215.6955 2.7755.2692 3.471-.9522.6956-1.2215.2692-2.7755-.9522-3.471-1.2215-.6956-2.7755-.2692-3.471.9522-.6955 1.2215-.2692 2.7755.9522 3.471z" fill="#f6f4f5"/><g stroke-miterlimit="10"><path d="m60.8381 35.6058-7.1052-4.046-4.0459 7.1052 7.1052 4.046z" stroke="#191818"/><path d="m52.6631 49.9624-7.1052-4.0459-4.046 7.1052 7.1053 4.046z" stroke="#191818"/><path d="m44.3215 64.6114-7.1052-4.046-4.0459 7.1053 7.1052 4.0459z" stroke="#191818"/><path d="m35.176 79.6258-7.1052-4.046-4.0459 7.1053 7.1052 4.0459z" stroke="#191818"/><path d="m54.6884 34.9164-.0629 3.3378 10.7734-3.5645" stroke="#df755f" stroke-width="4"/><path d="m46.6247 49.0773-.063 3.3378 10.7718-3.5616" stroke="#df755f" stroke-width="4"/><path d="m38.2284 63.8224-.0629 3.3378 10.7717-3.5616" stroke="#df755f" stroke-width="4"/><path d="m29.4792 79.1871-.063 3.3379 10.7735-3.5646" stroke="#df755f" stroke-width="4"/></g><path d="m63.4635 42.1649 20.9668 11.8811 5.9629 3.3955c.9407.5356 1.7754-.9235.8318-1.4608l-20.9667-11.8811-5.963-3.3955c-.9407-.5356-1.7725.9251-.8318 1.4608z" fill="#51514f"/><path d="m55.2581 55.3789c7.0054 4.2212 13.9204 8.1394 20.786 12.0489 2.0472 1.0884 4.5047 2.4981 6.5657 3.5531.9599.4885 1.7976-.9689.8319-1.4608-7.0586-4.0464-14.2929-7.9427-21.374-12.0627-2.004-1.1643-3.9976-2.3446-5.9807-3.541-.9274-.559-1.7593.9018-.8318 1.4608z" fill="#51514f"/><path d="m54.0454 58.7661c5.6761 3.0001 11.2544 6.1765 16.7347 9.5293 1.5711.9643 3.2488 1.739 4.8002 2.7333.9112.5808 1.7385-.8789.8302-1.458-5.6548-3.3862-11.0597-6.4639-16.6603-9.6531-1.6133-.8902-3.2348-1.7658-4.8646-2.6269-.9545-.5048-1.7892.9543-.8318 1.4608z" fill="#51514f"/><path d="m61.56 45.0391 9.8837 5.628c.9378.534 1.7725-.9251.8318-1.4608l-9.8837-5.628c-.9407-.5357-1.7725.9251-.8318 1.4608z" fill="#51514f"/><path d="m47.9443 68.8484 24.0999 13.7233c.9408.5356 1.7726-.9251.8319-1.4608l-24.1-13.7233c-.9407-.5357-1.7725.9251-.8318 1.4608z" fill="#51514f"/><path d="m46.1329 72.3011 20.3107 11.5656c.9378.534 1.7725-.9251.8318-1.4608l-20.3107-11.5655c-.9378-.5341-1.7725.925-.8318 1.4607z" fill="#51514f"/><path d="m39.1892 85.7992c7.4371 4.0157 14.781 8.1975 22.0315 12.5454 2.0591 1.2396 4.113 2.4934 6.1615 3.7604.9208.57 1.7497-.892.8319-1.461-7.1859-4.4479-14.4733-8.7266-21.8622-12.836-2.0999-1.1725-4.2097-2.3301-6.3292-3.4725-.9511-.5107-1.7859.9484-.8318 1.4608z" fill="#51514f"/><path d="m38.1015 89.5981 15.4346 8.789c.9408.5357 1.7726-.9251.8319-1.4608l-15.4347-8.7889c-.9407-.5357-1.7725.9251-.8318 1.4607z" fill="#51514f"/></g></svg>