<svg width="44" height="44" viewBox="0 0 44 44" fill="none" xmlns="http://www.w3.org/2000/svg">
<circle cx="21.9348" cy="22.2044" r="19.7942" fill="#F2FBF9" stroke="#16D2AA" stroke-width="4"/>
<path fill-rule="evenodd" clip-rule="evenodd" d="M20.3569 28.739L19.6043 27.9864L18.8517 28.739C19.2673 29.1547 19.9412 29.1547 20.3569 28.739ZM19.6043 26.4812L14.6803 21.5572C14.2646 21.1415 13.5907 21.1415 13.175 21.5572C12.7594 21.9728 12.7594 22.6467 13.175 23.0624L18.8517 28.739L19.6043 27.9864C20.3569 28.739 20.3568 28.7391 20.3569 28.739L31.3093 17.7867C31.7249 17.371 31.7249 16.6971 31.3093 16.2814C30.8936 15.8657 30.2197 15.8657 29.804 16.2814L19.6043 26.4812Z" fill="#16D2AA"/>
<path d="M19.6043 27.9864L20.3569 28.739M19.6043 27.9864L18.8517 28.739M19.6043 27.9864C20.3569 28.739 20.3568 28.7391 20.3569 28.739M20.3569 28.739C19.9412 29.1547 19.2673 29.1547 18.8517 28.739M20.3569 28.739L31.3093 17.7867C31.7249 17.371 31.7249 16.6971 31.3093 16.2814C30.8936 15.8657 30.2197 15.8657 29.804 16.2814L19.6043 26.4812L14.6803 21.5572C14.2646 21.1415 13.5907 21.1415 13.175 21.5572C12.7594 21.9728 12.7594 22.6467 13.175 23.0624L18.8517 28.739" stroke="#16D2AA" stroke-width="2" stroke-linecap="round" stroke-linejoin="round"/>
</svg>
