<svg fill="none" height="234" viewBox="0 0 295 234" width="295" xmlns="http://www.w3.org/2000/svg" xmlns:xlink="http://www.w3.org/1999/xlink"><radialGradient id="a" cx="0" cy="0" gradientTransform="matrix(0 125.231 -159.238 0 147.5 118)" gradientUnits="userSpaceOnUse" r="1"><stop offset="0" stop-color="#fbfeff"/><stop offset="1" stop-color="#c6ddea" stop-opacity="0"/></radialGradient><linearGradient id="b"><stop offset="0" stop-color="#667ba2"/><stop offset="1" stop-color="#667ba2" stop-opacity="0"/></linearGradient><linearGradient id="c" gradientUnits="userSpaceOnUse" x1="93.2525" x2="93.2525" xlink:href="#b" y1="183.986" y2="193.585"/><linearGradient id="d" gradientUnits="userSpaceOnUse" x1="108.188" x2="108.188" xlink:href="#b" y1="179.923" y2="190.347"/><linearGradient id="e" gradientUnits="userSpaceOnUse" x1="212.252" x2="212.252" xlink:href="#b" y1="213.312" y2="222.687"/><linearGradient id="f" gradientUnits="userSpaceOnUse" x1="226.459" x2="226.459" xlink:href="#b" y1="209.923" y2="220.347"/><linearGradient id="g"><stop offset="0" stop-color="#33415e"/><stop offset="1" stop-color="#33415e" stop-opacity="0"/></linearGradient><linearGradient id="h" gradientUnits="userSpaceOnUse" x1="181.182" x2="180.236" xlink:href="#g" y1="154.582" y2="169.901"/><linearGradient id="i" gradientUnits="userSpaceOnUse" x1="155.272" x2="153.192" y1="144.937" y2="170.469"><stop offset="0" stop-color="#2f3541"/><stop offset=".516202" stop-color="#2f3541" stop-opacity=".540357"/><stop offset="1" stop-color="#2f3541" stop-opacity="0"/></linearGradient><linearGradient id="j" gradientUnits="userSpaceOnUse" x1="184.602" x2="183.844" y1="200.972" y2="214.749"><stop offset="0" stop-color="#526a9b"/><stop offset="1" stop-color="#526a9b" stop-opacity="0"/></linearGradient><linearGradient id="k" gradientUnits="userSpaceOnUse" x1="207.279" x2="206.161" y1="201.474" y2="217.9"><stop offset="0" stop-color="#5b77af"/><stop offset="1" stop-color="#5b77af" stop-opacity="0"/></linearGradient><linearGradient id="l" gradientUnits="userSpaceOnUse" x1="76.3182" x2="75.7602" y1="183.223" y2="190.919"><stop offset="0" stop-color="#2f3541"/><stop offset="1" stop-color="#2f3541" stop-opacity="0"/></linearGradient><linearGradient id="m" gradientUnits="userSpaceOnUse" x1="98.5168" x2="97.3823" xlink:href="#g" y1="186.888" y2="196.554"/><linearGradient id="n" gradientUnits="userSpaceOnUse" x1="180.069" x2="179.815" y1="116.012" y2="143.172"><stop offset="0" stop-color="#d1c6c6"/><stop offset="1" stop-color="#988189"/></linearGradient><ellipse cx="147.5" cy="118" fill="url(#a)" rx="147.5" ry="116"/><path d="m78 155c8.5441.166 24.694.069 31.701 0 2.261 1.523 6.68 6.315 6.273 13.295-.407 6.979-.17 22.711 0 29.705" stroke="url(#c)" stroke-width="8"/><path d="m83.5943 186.643c-1.2328-13.623-1.3684-40.824 7.9521-40.642 9.3206.182 26.9386.076 34.5826 0 2.466 1.665 7.286 6.902 6.842 14.531-.443 7.629-.185 24.824 0 32.468" stroke="url(#d)" stroke-width="8"/><path d="m197 185c8.544.162 24.694.068 31.701 0 2.261 1.488 6.68 6.168 6.273 12.985-.407 6.818-.17 22.184 0 29.015" stroke="url(#e)" stroke-width="8"/><path d="m210 176c9.219.182 26.644.076 34.204 0 2.439 1.665 7.207 6.902 6.768 14.531s-.183 24.825 0 32.469" stroke="url(#f)" stroke-width="8"/><path d="m253 178.842c0 6.54-11.382 13.158-29.884 13.158-18.501 0-37.116-6.618-37.116-13.158s14.998-11.842 33.5-11.842 33.5 5.302 33.5 11.842z" fill="#daa75a"/><ellipse cx="219.5" cy="176" fill="#dfbb85" rx="33.5" ry="12"/><path d="m135 150.842c0 6.54-11.382 13.158-29.884 13.158-18.5011 0-37.116-6.618-37.116-13.158s14.9985-11.842 33.5-11.842c18.502 0 33.5 5.302 33.5 11.842z" fill="#daa75a"/><ellipse cx="101" cy="148.5" fill="#dfbb85" rx="34" ry="12.5"/><path d="m161.344 131.795c0-11.263.751-13.989 7.886-19.603l38.179-18.1996c-.468 3.2049 1.798 11.0566 1.124 18.1996-.675 7.142-15.105 10.524-23.156 13.615l-3.755 8.234 1.915 34.808h-19.94c-.843-9.5-2.253-25.791-2.253-37.054z" fill="url(#h)"/><path d="m139.805 124.472c0-10.947 7.491-17.811 12.919-18.701l33.69-10.0129c-.468 3.115-1.573 11.0809-2.246 18.0229-.674 6.942-16.939 9.179-24.987 12.183l-1.478 5.967v36.918h-14.542c-.843-9.233-3.356-33.43-3.356-44.377z" fill="url(#i)"/><path d="m194.349 113.232c15.707 0 16.33-20.5684 10.845-33.2838h-54.601v25.4308c6.483 2.368 23.11 7.853 43.756 7.853z" fill="#fbcdcd"/><path d="m173.406 58.9654c0-10.6946 9.385-18.9621 19.994-17.6135l8.465 1.0761c8.957 1.1386 15.67 8.7596 15.67 17.7889 0 11.1008-9.983 19.5349-20.928 17.6799l-8.413-1.4259c-8.539-1.4473-14.788-8.8446-14.788-17.5055z" fill="#daa75a"/><path d="m171.162 58.9654c0-10.6946 9.385-18.9621 19.995-17.6135l8.464 1.0761c8.957 1.1386 15.671 8.7596 15.671 17.7889 0 11.1008-9.984 19.5349-20.929 17.6799l-8.413-1.4259c-8.539-1.4473-14.788-8.8446-14.788-17.5055z" fill="#dfbb85"/><path d="m122.919 100.143-1.101-7.6359 81.507 4.0217-.536 6.7032c-2.36 5.147-9.92 6.971-13.406 7.239-15.443.858-50.556-6.395-66.464-10.328z" fill="#daa75a"/><path d="m127.449 86.3403 17.159-9.384 56.036 13.9419c1.787 1.3406 4.457 4.0971.811 9.2448-3.646 5.148-14.959 5.236-20.943 5.236-17.07-2.86-52.795-8.5286-57.085-10.4591-4.29-1.9304.894-6.5241 4.022-8.5796z" fill="#dfbb85"/><path d="m186.315 12.5308c-3.487-12.103325-17.178-7.92564-15.716-3.207-.2-2.29618 5.72-3.68116 6.959 17.0408.962 16.1012 10.615 29.6575 19.132 26.657-7.372-2.5658-6.016-25.3617-10.375-40.4908z" fill="#382831"/><path d="m167.517 26.3002c-1.981-12.439-3.772-26.471589-5.247-17.91188.082-2.30336-4.852-3.12221-5.485 17.58858-.557 18.2056 3.782 30.4259 12.672 30.0814-4.38-1.9558.535-14.2093-1.94-29.7581z" fill="#24161e"/><path d="m164.805 42.1762c3.124-3.2495 3.099-6.8276 2.135-8.9666l13.656-7.4156c-1.793 13.0304 5.131 14.2955 7.021 15.6342l-9.183 9.6939c-5.47-1.124-16.754-5.6964-13.629-8.9459z" fill="#ffbc96"/><path d="m193.932 60.5013c-.267 1.5127-.703 4.8861-.315 6.279" stroke="#f49e9e"/><path d="m152.6 73.5075 4.486-18.8728-12.666 15.8038z" fill="#f49e9e"/><ellipse cx="181.247" cy="21.5985" fill="#ffbc96" rx="2.4791" ry="4.02853" transform="matrix(.99185859 .12734419 -.12734419 .99185859 4.22605 -22.90491)"/><path d="m184.011 16.9304c-2.905 9.9317-5.654 15.1669-14.903 18.5945-6.635.0289-11.37-8.1899-10.061-19.4585 1.309-11.2685 8.556-10.38888 16.757-11.14972 3.966 1.79409 7.28 2.023 8.207 12.01372z" fill="#ffbc96"/><path d="m163.55 23.8843-.478 3.3914c.067.2248.637.9282 1.78.5894" stroke="#000" stroke-linecap="round"/><path d="m177.568 28.7567c-3.724 4.7447-8.491 6.5714-10.381 6.4875.756 3.9716-1.831 5.7066-2.013 6.5583l2.014-.66c1.799-.5896 3.41-1.6427 4.673-3.0534.481-.538.907-1.1231 1.272-1.7465z" fill="#f4a176"/><path d="m169.035 15.2876c-2.983-1.0365-3.56-1.6722-4.685-3.6842 1.891-9.26714 11.286-10.729401 15.753-6.92762 1.589.91275 3.335 2.6757 4.294 4.09075 1.933 2.85017.592 11.66527-.815 10.63337-2.624-1.9231-3.659 1.3528-4.416 3.9323.242-2.1362.245-3.8559-.918-4.4089 0 0-4.233-1.9054-9.213-3.6357z" fill="#382831"/><path d="m167.719 19.8318c.451-.4627 2.234-1.2032 3.158.4049" stroke="#5b4444" stroke-linecap="round"/><path d="m159.525 21.049c.589-.6656 1.657-.7389 2.335.0038" stroke="#5b4444" stroke-linecap="round"/><path d="m163.683 30.4868c.833.6514 3.678.5155 5.004-1.0841" stroke="#292828" stroke-linecap="round"/><path d="m180.941 19.3673c-1.933.5469-3.92-1.9009-6.946-2.2792.946.7565 2.804 1.0299 4.016 2.6384.474 2.0012 1.072 3.4886 1.026 4.2327l.925-3.3619z" fill="#24161e"/><ellipse cx="160.832" cy="23.4538" fill="#343440" rx=".729504" ry=".987585" transform="matrix(.98517973 -.17152521 .17152521 .98517973 -1.639344 27.934335)"/><ellipse cx="168.365" cy="22.7597" fill="#343440" rx=".775414" ry="1.03389" transform="matrix(.98502407 -.17241686 .17241686 .98502407 -1.402734 29.369812)"/><path d="m159.432 9.7123c.142 2.9439-1.942 11.4574-.567 9.078 1.135-5.4846 4.161-5.4847 5.296-7.3759 1.513-6.80847 7.823-8.35224 7.186-8.32148-.636.03076-9.078-.3981-11.915 6.61938z" fill="#291d1d"/><path d="m150.733 84.7949c0-2.9919-20.334-2.2288-10.985-15.692 10.763-15.5004 11.495-20.9469 20.942-26.5525 5.61-2.2439 5.234-1.8701 5.234-1.8701s-1.656 3.1974 4.289 4.8121c5.679 1.5407 11.25-1.4043 15.743-6.0213l4.65.4613c6.358 1.4959 6.732 3.7398 8.228 4.4877 5.212 3.7341 8.509 12.3113 10.466 14.9592 3.827 8.018 5.159 7.375 4.119 22.0648l-2.244 6.7317c-7.288 9.267-32.451-.7332-32.451-.7332" fill="#849ccb"/><path d="m153.381 78.7427v-4.1607l-6.998-2.6478 5.485-1.1347c2.774-1.0087 2.459.1892 6.43-6.8085 1.718-3.0267 2.247-4.6192 2.368-5.0598.032-.1684.048-.1742 0 0-.038.2019-.098.6377-.098 1.2773-2.27 18.5342-.379 13.8439-7.187 18.5342z" fill="#667ba2"/><path d="m163.617 41.9017c.44 2.1445 1.092 3.288 3.058 4.7624 1.955 1.4666 4.861 1.8699 7.853 1.4959 7.854-1.4959 10.334-4.7241 13.463-7.8536" stroke="#667ba3" stroke-linecap="round"/><path d="m199.959 75.8344c-4.787-.8975-13.962.8727-17.951 1.8699.997-1.8699 6.714-3.8941 9.349-4.1137 4.342-.3618 1.217-14.1402.444-20.3426-.028-.2065-.051-.4068-.07-.6003.021.191.044.3914.07.6003.88 6.4994 6.346 19.2035 8.158 22.5864z" fill="#667ba3"/><path d="m152.669 75.2867c-1.049-3.2304 1.359-6.544 4.755-6.544h2.966c2.183 0 4.113 1.4162 4.769 3.4985l2.297 7.2966c1.038 3.2952-1.5 6.6245-4.952 6.4982l-2.928-.1072c-2.098-.0768-3.925-1.4559-4.573-3.4527z" fill="#343440"/><path d="m160.635 76.4734c0 .5494-.14 1.0045-.363 1.3084-.213.2893-.513.4611-.92.4611-.433 0-.911-.1957-1.283-.5344-.369-.3364-.595-.7769-.595-1.2351 0-.5494.14-1.0046.364-1.3085.213-.2893.512-.461.92-.461.433 0 .911.1956 1.282.5343.37.3364.595.7769.595 1.2352z" stroke="#16d2aa"/><path d="m158.109 75.9886c0 .2617-.01.5193.066.7613.071.2237.183.499.366.4791.093-.0101.153-.1221.202-.2377.082-.1922.108-.4301.114-.6565.004-.1488.007-.2964.007-.4454 0-.0556.007-.1222-.009-.1724" stroke="#16d2aa" stroke-linecap="round"/><path d="m159.301 77.23c0-.1763.002-.3531-.016-.529-.014-.1456-.038-.2855-.038-.4319 0-.1295-.023-.2827.058-.401.054-.08.186-.123.293-.1412.147-.0249.298-.008.353.1127.049.1053.067.2349.029.3435-.06.175-.266.2642-.485.2898" stroke="#16d2aa" stroke-linecap="round"/><path d="m151.096 85.932c-1.586 0-1.718-4.7533-1.586-7.13 1.189-.8912 5.154 0 6.74 1.7825 1.269 1.426.529 3.565 0 4.4562-1.057.2971-3.568.8913-5.154.8913z" fill="#ffbc96"/><path d="m174.047 79.2004 6.543 1.347c2.156.4437 1.925 4.3753 1.54 6.2856h-5.389c-1.924.449-6.389 1.0776-8.853 0-3.079-1.3469-2.694-4.9387-2.694-6.2856 0-1.0776 5.902-1.347 8.853-1.347z" fill="#ffbc96"/><g stroke="#667ba3"><path d="m182.192 77.7043-3.716.6756c1.081 2.4321.45 7.0936 0 9.1203l3.04.6756c1.081-1.0809.901-7.4314.676-10.4715z" fill="#849ccb" stroke-linejoin="round"/><path d="m179.152 79.7312 3.04-.6755"/><path d="m179.152 81.4201 3.04-.3378"/><path d="m179.152 83.1091h3.04"/><path d="m179.152 84.7979 3.04.3377"/><path d="m178.813 86.4871 3.04.6755"/></g><path d="m163 182.988c0-13.116 12.267-24.925 20-25.992l48-11.996c-.667 3.732-2.24 13.276-3.2 21.593-.96 8.318-24.133 17.595-35.6 21.194l-8.913 10.92 2.254 34.538-18.784.755c-1.2-11.063-3.757-37.896-3.757-51.012z" fill="url(#j)"/><path d="m183 186.037c0-13.065 12.423-24.431 20.256-25.494l42.942-13.543c-.676 3.718 2.592 12.826 1.62 21.112-.972 8.285-18.365 14.34-29.978 17.925l-4.051 6.373-2.113 37.57-25.808 3.02c-1.216-11.021-2.868-33.897-2.868-46.963z" fill="url(#k)"/><path d="m57 157.525c0-11.637 8.0361-18.935 13.8588-19.881l36.1412-10.644c-.502 3.311-1.687 11.779-2.409 19.159-.723 7.38-18.1714 9.759-26.8051 12.952l-1.5859 6.343v45.546l-15.2227-8.258c-.9036-9.816-3.9773-33.579-3.9773-45.217z" fill="url(#l)"/><path d="m80.088 165.578c0-12.089.8082-15.016 8.4854-21.043l41.0816-19.535c-.503 3.44 1.934 11.869 1.209 19.535-.725 7.667-16.253 11.298-24.916 14.615l-4.041 8.839-4.15 53.011-19.757-8.339c-.0001-4.358 2.088-34.993 2.088-47.083z" fill="url(#m)"/><path d="m115.545 145.961c16.826 0 17.494-22.034 11.618-35.656h-58.4904v27.243c6.9441 2.537 24.756 8.413 46.8724 8.413z" fill="#fbcdcd"/><path d="m93.1104 87.8281c0-11.4564 10.0536-20.3128 21.4186-18.8681l9.067 1.1527c9.596 1.2197 16.788 9.3836 16.788 19.0561 0 11.8912-10.696 20.9262-22.42 18.9392l-9.012-1.527c-9.1476-1.551-15.8416-9.4749-15.8416-18.7529z" fill="#daa75a"/><path d="m90.7068 87.8281c0-11.4564 10.0532-20.3128 21.4182-18.8681l9.068 1.1527c9.595 1.2197 16.787 9.3836 16.787 19.0561 0 11.8912-10.695 20.9262-22.42 18.9392l-9.012-1.527c-9.1471-1.551-15.8412-9.4749-15.8412-18.7529z" fill="#dfbb85"/><path d="m39.0263 131.939-1.1791-8.18 87.3128 4.308-.574 7.181c-2.528 5.514-10.627 7.467-14.361 7.754-16.5436.919-54.1574-6.85-71.1987-11.063z" fill="#daa75a"/><path d="m43.8789 117.153 18.3816-10.052 60.0275 14.935c1.915 1.436 4.775 4.389.869 9.903-3.906 5.515-16.025 5.609-22.435 5.609-18.2857-3.064-56.5559-9.136-61.1513-11.204s.9574-6.989 4.3082-9.191z" fill="#dfbb85"/><path d="m114.317 33.8642c-3.736-12.9655-18.4013-8.4902-16.8357-3.4355-.2139-2.4597 6.1277-3.9433 7.4547 18.2548 1.031 17.2481 4.657 31.6421 13.782 28.4278-7.898-2.7486.269-27.0403-4.401-43.2471z" fill="#3e2d37"/><path d="m97.3311 31.0029c-.0598.3566-.1011.7558-.1225 1.1994-.0378-.4346.0088-.881.1225-1.1994 1.1929-7.1143 9.7289 2.7256 13.2869 15.0722 4.669 16.2069 1.049 29.8787 5.963 31.3842-9.407 1.5313-13.262-9.0198-15.056-28.4487-1.6801-18.1967-3.6644-19.4911-4.1939-18.0077z" fill="#24161e"/><path d="m83.8961 69.8428c3.3469-3.481 3.3206-7.314 2.2876-9.6053l14.6293-7.9439c-1.9217 13.9586 5.496 15.3138 7.521 16.748l-9.8371 10.3843c-5.8605-1.204-17.9477-6.1021-14.6008-9.5831z" fill="#f8a474"/><path d="m115.098 89.4734c-.286 1.6203-.753 5.2341-.337 6.7262" stroke="#f49e9e"/><path d="m70.822 103.406 4.8051-20.2173-13.5678 16.9293z" fill="#f49e9e"/><path d="m80.1892 40.8233c.1532 3.1719-2.0917 6.2109-2.9814 6.2538-.8898.043-2.3565-2.3719-2.5097-5.5438s1.0651-5.8996 1.9549-5.9426c.8897-.043 3.383 2.0607 3.5362 5.2326z" fill="#291d1d"/><path d="m76.1285 52.4721c2.3158-4.3506-.0731-5.4584-1.1171-9.7751l4.103-6.0707c1.4727 6.7324-1.3769 13.369-2.9859 15.8458z" fill="#291d1d"/><ellipse cx="101.51" cy="47.7992" fill="#f8a474" rx="2.6557" ry="4.31551" transform="matrix(.99185859 .12734419 -.12734419 .99185859 6.913385 -12.537556)"/><path d="m104.471 42.7985c-3.112 10.6392-6.0572 16.2473-15.9643 19.9191-7.1085.031-12.1803-8.7733-10.7779-20.8446 1.4023-12.0712 9.1654-11.129 17.9509-11.944 4.2482 1.9219 7.7983 2.1671 8.7913 12.8695z" fill="#f8a474"/><path d="m82.5527 50.2476-.5119 3.6329c.0714.2409.6817.9944 1.906.6314" stroke="#000" stroke-linecap="round"/><path d="m97.9744 55.4672c-3.9892 5.0827-9.2216 7.1192-11.2466 7.0293 1.234 3.4813-1.8359 6.0334-2.0305 6.9457l2.1571-.707c1.927-.6316 3.6535-1.7597 5.0058-3.2708.5158-.5764.9723-1.2032 1.3628-1.8709z" fill="#e47a44"/><path d="m92.7562 40.6474c-10.4541 2.296-14.0745-.3411-14.7437-2.0412l15.977-1.4296 5.2577 8.7127c-1.0872.0827-4.8411-3.3483-6.491-5.2419z" fill="#ca5b22"/><path d="m88.4283 41.0385c-6.5979 1.619-10.658-2.2868-11.8634-4.442 5.5256-12.9677 18.9341-10.9983 23.7201-6.9257 1.701.9777 2.973 3.3257 4.001 4.8416 2.07 3.0532 1.233 12.0367-.275 10.9313-2.81-2.06-3.919 1.4492-4.7305 4.2125.2593-2.2884.2632-4.1306-.9826-4.723-1.2459-.5923-3.7511-2.2374-4.3844-4.3358 0 0 0-.9049-5.4852.4411z" fill="#3e2d37"/><ellipse cx="8.00824" cy="6.01344" fill="#3e2d37" rx="8.00824" ry="6.01344" transform="matrix(.997873 -.0651938 .0824159 .996598 75.082 29.0737)"/><path d="m94.1863 39.8211c-6.1611 1.1565-16.5991-1.7092-18.5651-5.5325-.6975 1.6597 1.0496 3.687 1.6595 4.27 4.419 4.1225 13.1862 2.4462 16.9056 1.2625z" fill="#24161e"/><path d="m87.018 45.9064c.4836-.4957 2.3935-1.2889 3.3839.4338" stroke="#5b4444" stroke-linecap="round"/><path d="m78.241 47.2104c.6301-.713 1.774-.7915 2.5004.004" stroke="#5b4444" stroke-linecap="round"/><path d="m82.6946 57.3203c.8928.6978 3.9407.5522 5.3613-1.1613" stroke="#292828" stroke-linecap="round"/><path d="m101.183 45.4087c-2.0712.5859-5.543-2.7216-7.1457-5.6038-.1778 2.4114 2.7076 4.2655 4.0062 5.9886.5073 2.1438 1.1481 3.7371 1.0995 4.5343l.99-3.6015z" fill="#24161e"/><ellipse cx="79.6403" cy="49.7861" fill="#343440" rx=".78147" ry="1.05794" transform="matrix(.98517973 -.17152521 .17152521 .98517973 -7.359281 14.398163)"/><ellipse cx="87.7108" cy="49.0429" fill="#343440" rx=".830651" ry="1.10753" transform="matrix(.98502407 -.17241686 .17241686 .98502407 -7.142272 15.857283)"/><path d="m73.4785 119.119c.0001-3.205-26.4392-6.009-16.4241-20.4315 11.5304-16.6045 12.3139-22.439 22.4341-28.4439 6.0092-2.4037 5.6071-2.0033 5.6071-2.0033s-1.7738 3.4252 4.5937 5.1548c6.0838 1.6505 12.0517-1.5042 16.8647-6.4502l4.981.4942c6.811 1.6025 7.212 4.0062 8.814 4.8074 5.584 4.0001 9.116 13.1882 11.212 16.0248 4.1 8.5892 5.527 7.9004 4.412 23.6367l-2.403 7.211c-7.808 9.927-35.655 0-35.655 0" fill="#fbcdcd"/><path d="m82.6238 69.5488c.471 2.2972 1.1696 3.5222 3.2754 5.1016 2.0948 1.5711 5.208 2.0031 8.413 1.6025 8.4128-1.6025 11.0698-5.0606 14.4228-8.4131" stroke="#f4a6a6" stroke-linecap="round"/><path d="m121.554 105.898c-5.128-.961-14.956.935-19.23 2.004 1.069-2.004 7.193-4.172 10.016-4.407 4.651-.388 1.303-15.1476.475-21.7918-.03-.2213-.055-.4358-.074-.6431.021.2045.046.4192.074.6431.943 6.9623 6.798 20.5718 8.739 24.1948z" fill="#f4a6a6"/><path d="m65.1887 96.0172c-1.0489-3.2304 1.3592-6.5441 4.7556-6.5441h13.8897c2.183 0 4.1137 1.4163 4.7692 3.4986l6.7642 21.4853c1.0374 3.296-1.4998 6.625-4.9521 6.498l-13.8426-.506c-2.0979-.077-3.9244-1.456-4.5727-3.453z" fill="#343440"/><path d="m93.7966 109.504 7.0094 1.443c2.309.476 2.062 4.687 1.649 6.734h-5.7725c-2.0615.481-6.8442 1.154-9.4831 0-3.2986-1.443-2.8863-5.291-2.8863-6.734 0-1.154 6.3223-1.443 9.4835-1.443z" fill="#f8a474"/><path d="m69.2109 116.715c-1.6989 0-1.8405-5.092-1.6989-7.638 1.2742-.954 5.5215 0 7.2204 1.91 1.3592 1.527.5663 3.819 0 4.774-1.1326.318-3.8226.954-5.5215.954z" fill="#f8a474"/><path d="m102.522 107.902-3.9805.724c1.1579 2.605.4825 7.598 0 9.77l3.2565.723c1.158-1.158.965-7.96.724-11.217z" fill="#fbcdcd" stroke="#f4a6a6" stroke-linejoin="round"/><path d="m99.2654 110.073 3.2566-.724" stroke="#f4a6a6"/><path d="m99.2654 111.882 3.2566-.362" stroke="#f4a6a6"/><path d="m99.2654 113.692h3.2566" stroke="#f4a6a6"/><path d="m99.2654 115.501 3.2566.362" stroke="#f4a6a6"/><path d="m98.9033 117.31 3.2567.724" stroke="#f4a6a6"/><path d="m81.3931 104.697c0 .812-.1972 1.504-.5302 1.979-.3222.458-.7762.726-1.3735.726-.6257 0-1.3078-.295-1.8381-.801-.527-.503-.8669-1.179-.8669-1.904 0-.813.1972-1.505.5303-1.979.3221-.459.7761-.726 1.3734-.726.6258 0 1.3078.294 1.8381.8.527.503.8669 1.18.8669 1.905z" stroke="#16d2aa"/><path d="m77.8873 104.183c0 .277-.0114.55.0699.806.0751.237.1938.529.3868.508.0985-.011.1628-.129.2147-.252.0862-.203.1139-.455.1205-.695.0044-.158.0068-.314.0068-.472 0-.059.0081-.129-.0087-.182" stroke="#16d2aa" stroke-linecap="round"/><path d="m79.5494 105.498c0-.187.0023-.374-.0165-.56-.0155-.155-.0406-.303-.0406-.458 0-.137-.0247-.299.0609-.425.0579-.084.1976-.13.3109-.149.1555-.026.3157-.009.3743.119.0512.112.0703.249.0305.364-.0642.185-.2822.28-.5139.307" stroke="#16d2aa" stroke-linecap="round"/><path d="m97.9421 28.1126c.6662 0 1.2075-.0132 1.795.3349.5009.2967.9629.6356 1.2679 1.1402.06.0993.196.4252.286.4854.264.1757-.474-.424-.673-.6698-.397-.4882-1.0452-.7333-1.5545-1.0574-.2616-.1664-.813-.4365-1.1214-.4365" stroke="#fff" stroke-linecap="round"/><path d="m233.621 169.175c18.624 0 19.363-24.389 12.859-39.466h-64.741v30.154c7.686 2.808 27.402 9.312 51.882 9.312z" fill="#fedf85"/><path d="m209.045 104.658c0-12.6803 11.128-22.4832 23.708-20.8841l10.037 1.2759c10.62 1.3501 18.581 10.3864 18.581 21.0922 0 13.163-11.838 23.163-24.816 20.964l-9.975-1.691c-10.125-1.716-17.535-10.487-17.535-20.757z" fill="#daa75a"/><path d="m206.385 104.83c0-12.6811 11.128-22.484 23.707-20.8849l10.037 1.2758c10.621 1.3501 18.581 10.3864 18.581 21.0931 0 13.162-11.838 23.162-24.815 20.963l-9.975-1.691c-10.126-1.716-17.535-10.487-17.535-20.756z" fill="#dfbb85"/><path d="m148.925 153.655-1.305-9.055 96.644 4.769-.636 7.948c-2.797 6.103-11.762 8.265-15.895 8.583-18.312 1.017-59.945-7.583-78.808-12.245z" fill="#daa75a"/><path d="m154.296 137.289 20.346-11.127 66.442 16.531c2.12 1.59 5.286 4.858.962 10.962-4.323 6.104-17.737 6.208-24.832 6.208-20.24-3.391-62.6-10.112-67.687-12.401-5.086-2.289 1.06-7.736 4.769-10.173z" fill="#dfbb85"/><path d="m198.59 84.9222c3.704-3.853 3.675-8.0957 2.532-10.6319l16.192-8.7929c-2.126 15.4504 6.083 16.9505 8.325 18.5379l-10.888 11.4941c-6.487-1.3327-19.866-6.7543-16.161-10.6072z" fill="#c27d56"/><path d="m233.126 106.651c-.316 1.793-.834 5.793-.374 7.445" stroke="#f49e9e"/><path d="m184.119 122.072 5.318-22.3774-15.018 18.7394z" fill="#f49e9e"/><path d="m187.059 139.465c0-3.548-29.265-6.652-18.18-22.615 12.763-18.3794 13.63-24.8373 24.832-31.4841 6.651-2.6605 6.206-2.2173 6.206-2.2173s-1.963 3.7912 5.085 5.7057c6.734 1.8268 13.34-1.665 18.667-7.1395l5.514.5469c7.538 1.7738 7.982 4.4344 9.755 5.3212 6.181 4.4276 10.09 14.5981 12.411 17.7371 4.537 9.507 6.117 8.745 4.883 26.163l-2.66 7.982c-8.642 10.988-39.465 0-39.465 0" fill="#fedf85"/><path d="m184.775 128.825v-4.161l-6.997-2.648 5.484-1.134c2.774-1.009 2.459.189 6.43-6.809 1.718-3.027 2.248-4.619 2.369-5.06.031-.168.047-.174 0 0-.038.202-.099.638-.099 1.277-2.27 18.535-.378 13.844-7.187 18.535z" fill="#f8bb44"/><path d="m197.182 84.5967c.521 2.5427 1.294 3.8986 3.625 5.6468 2.319 1.739 5.765 2.2171 9.312 1.7737 9.313-1.7737 12.253-5.6014 15.964-9.3121" stroke="#f8bb44" stroke-linecap="round"/><path d="m240.273 124.831c-5.676-1.064-16.555 1.035-21.285 2.217 1.183-2.217 7.961-4.617 11.086-4.877 5.148-.429 1.442-16.767.526-24.1208-.033-.2449-.061-.4824-.083-.7118.024.2264.052.464.083.7118 1.043 7.7068 7.524 22.7698 9.673 26.7808z" fill="#f8bb44"/><path d="m209.548 128.823 7.759 1.597c2.556.526 2.282 5.188 1.825 7.453h-6.389c-2.282.532-7.576 1.277-10.497 0-3.651-1.597-3.195-5.856-3.195-7.453 0-1.278 6.998-1.597 10.497-1.597z" fill="#c27d56"/><path d="m182.335 136.804c-1.88 0-2.037-5.636-1.88-8.454 1.41-1.057 6.111 0 7.992 2.114 1.504 1.69.627 4.227 0 5.283-1.254.353-4.231 1.057-6.112 1.057z" fill="#c27d56"/><path d="m219.206 127.049-4.406.801c1.282 2.883.534 8.411 0 10.814l3.605.801c1.282-1.282 1.068-8.812.801-12.416z" fill="#fedf85" stroke="#f8bb44" stroke-linejoin="round"/><path d="m215.602 129.452 3.605-.801" stroke="#f8bb44"/><path d="m215.602 131.455 3.605-.401" stroke="#f8bb44"/><path d="m215.602 133.457h3.605" stroke="#f8bb44"/><path d="m215.602 135.46 3.605.4" stroke="#f8bb44"/><path d="m215.201 137.462 3.604.801" stroke="#f8bb44"/><path d="m195.873 123.501c0 .907-.22 1.685-.597 2.221-.366.521-.884.827-1.564.827-.708 0-1.476-.333-2.071-.901-.592-.565-.976-1.327-.976-2.147 0-.907.22-1.685.596-2.221.366-.521.884-.826 1.564-.826.709 0 1.476.332 2.072.9.591.565.976 1.327.976 2.147z" stroke="#16d2aa"/><path d="m191.939 122.933c0 .306-.013.608.077.892.083.262.215.585.428.562.109-.012.181-.143.238-.279.095-.225.126-.504.133-.77.005-.174.008-.347.008-.522 0-.065.009-.143-.01-.202" stroke="#16d2aa" stroke-linecap="round" stroke-width=".5"/><path d="m193.779 124.388c0-.207.002-.414-.018-.62-.017-.171-.045-.335-.045-.507 0-.151-.028-.331.067-.47.064-.093.219-.144.344-.165.173-.029.35-.01.415.132.056.123.077.275.033.403-.071.205-.312.309-.568.339" stroke="#16d2aa" stroke-linecap="round" stroke-width=".5"/><ellipse cx="218.085" cy="60.5228" fill="#c27d56" rx="2.93951" ry="4.77671" transform="matrix(.99185859 .12734419 -.12734419 .99185859 9.482747 -27.279116)"/><path d="m221.363 54.9879c-3.445 11.7763-6.705 17.9837-17.671 22.0479-7.868.0343-13.482-9.7109-11.929-23.0723 1.552-13.3613 10.144-12.3183 19.869-13.2204 4.702 2.1272 8.632 2.3987 9.731 14.2448z" fill="#c27d56"/><path d="m197.102 63.2331-.567 4.0211c.079.2667.755 1.1006 2.11.6989" stroke="#000" stroke-linecap="round"/><path d="m214.172 69.0102c-4.416 5.6259-10.207 7.8801-12.449 7.7806 1.366 3.8534-2.032 6.6782-2.247 7.688l2.388-.7826c2.132-.699 4.044-1.9477 5.54-3.6203.571-.638 1.077-1.3318 1.509-2.0709z" fill="#a36342"/><path d="m210.386 50.3057c-11.571 2.5414-15.579-.3775-16.319-2.2593l17.684-1.5824 5.82 9.6438c-1.204.0915-5.359-3.7061-7.185-5.8021z" fill="#a26342"/><path d="m202.045 58.4279c.535-.5487 2.649-1.4267 3.745.4801" stroke="#5b4444" stroke-linecap="round"/><path d="m192.33 59.8714c.697-.7892 1.963-.8761 2.767.0044" stroke="#5b4444" stroke-linecap="round"/><path d="m197.259 71.0615c.988.7724 4.362.6112 5.934-1.2854" stroke="#292828" stroke-linecap="round"/><ellipse cx="193.878" cy="62.7223" fill="#343440" rx=".864985" ry="1.171" transform="matrix(.98517973 -.17152521 .17152521 .98517973 -7.885132 34.184527)"/><ellipse cx="202.811" cy="61.8996" fill="#343440" rx=".919423" ry="1.2259" transform="matrix(.98502407 -.17241686 .17241686 .98502407 -7.635252 35.895039)"/><path d="m228.323 141.399c.17-.041.351-.008.502.09.151.099.26.256.303.436s.017.369-.073.525-.237.267-.407.308l-21.287 5.094-1.523-1.072z" fill="#988189"/><path d="m229.15 141.638-22.065 5.339-7.474-12.812z" fill="#988189"/><path d="m200.823 117.769c.146.009.288.059.408.143.12.085.215.201.273.335l5.793 29.887-40.822-6.089c-.143-.01-.28-.057-.398-.138-.118-.08-.212-.191-.273-.32l-6.65-27.618c-.09-.191-.1-.411-.029-.61.072-.199.22-.361.412-.451.121-.057.254-.082.388-.074z" fill="url(#n)"/><path d="m184.087 130.752c0 .808-.211 1.497-.569 1.972-.348.461-.851.743-1.525.743-.699 0-1.448-.305-2.024-.816-.574-.509-.934-1.185-.934-1.899 0-.808.21-1.497.569-1.972.348-.461.85-.743 1.524-.743.699 0 1.449.305 2.024.816.574.509.935 1.185.935 1.899z" stroke="#16d2aa"/><path d="m180.048 130.214c0 .393-.016.779.099 1.142.107.335.275.748.548.719.14-.016.231-.184.304-.357.122-.288.162-.645.171-.985.006-.223.01-.444.01-.668 0-.083.011-.183-.013-.258" stroke="#16d2aa" stroke-linecap="round"/><path d="m182.024 132.076c0-.264.003-.53-.023-.793-.022-.219-.058-.429-.058-.648 0-.194-.035-.424.087-.602.082-.12.279-.184.44-.212.22-.037.447-.012.53.169.073.158.1.353.043.516-.091.262-.399.396-.728.434" stroke="#16d2aa" stroke-linecap="round"/><path d="m219.118 57.7102s-1.415-.2866-3.018 3.319c-.46 1.4257-1.202-2.8043-1.202-2.8043s-1.159-1.1204-.634-2.2641c0 0-2.773-.2934-2.971-2.4685-.329-.4384-1.603 1.6025-1.859-.552-1.239.8529-2.654-.2179-2.654-.2179s-2.915-.7291-3.288-2.6088c0 0-2.557 3.2974-6.335 1.5642 0 0-1.913 4.1431-4.26 1.8145 0 0-.435 2.3288-3.239 1.5275-2.611-1.2018-1.202-3.3421-1.202-3.3421s-2.804-1.4653-.801-3.869c0 0-1.339-3.6751 1.604-4.0062 0 0-.803-5.2081 4.219-4.0516 0 0 .988-4.1683 4.063-2.7218 0 0 3.179-2.9428 5.951-.8384 0 0 3.607-1.8472 5.398 1.2019 0 0 4.807-2.8044 6.409 1.2018 0 0 3.839-.0472 4.406 4.0062 0 0 3.292 1.9073 2.405 4.8075 0 0 2.803 4.2696-.402 6.0842.258.724.23 1.519-.077 2.2234l-.871 1.9945z" fill="#272828"/></svg>