<svg width="295" height="234" viewBox="0 0 295 234" fill="none" xmlns="http://www.w3.org/2000/svg">
<ellipse cx="147.5" cy="118" rx="147.5" ry="116" fill="url(#paint0_radial_3017_735)"/>
<path d="M78 155C86.5441 155.166 102.694 155.069 109.701 155C111.962 156.523 116.381 161.315 115.974 168.295C115.567 175.274 115.804 191.006 115.974 198" stroke="url(#paint1_linear_3017_735)" stroke-width="8"/>
<path d="M83.5943 186.643C82.3615 173.02 82.2259 145.819 91.5464 146.001C100.867 146.183 118.485 146.077 126.129 146.001C128.595 147.666 133.415 152.903 132.971 160.532C132.528 168.161 132.786 185.356 132.971 193" stroke="url(#paint2_linear_3017_735)" stroke-width="8"/>
<path d="M197 185C205.544 185.162 221.694 185.068 228.701 185C230.962 186.488 235.381 191.168 234.974 197.985C234.567 204.803 234.804 220.169 234.974 227" stroke="url(#paint3_linear_3017_735)" stroke-width="8"/>
<path d="M210 176C219.219 176.182 236.644 176.076 244.204 176C246.643 177.665 251.411 182.902 250.972 190.531C250.533 198.16 250.789 215.356 250.972 223" stroke="url(#paint4_linear_3017_735)" stroke-width="8"/>
<path d="M253 178.842C253 185.382 241.618 192 223.116 192C204.615 192 186 185.382 186 178.842C186 172.302 200.998 167 219.5 167C238.002 167 253 172.302 253 178.842Z" fill="#DAA75A"/>
<ellipse cx="219.5" cy="176" rx="33.5" ry="12" fill="#DFBB85"/>
<path d="M135 150.842C135 157.382 123.618 164 105.116 164C86.6149 164 68 157.382 68 150.842C68 144.302 82.9985 139 101.5 139C120.002 139 135 144.302 135 150.842Z" fill="#DAA75A"/>
<ellipse cx="101" cy="148.5" rx="34" ry="12.5" fill="#DFBB85"/>
<path d="M161.344 131.795C161.344 120.532 162.095 117.806 169.23 112.192L207.409 93.9924C206.941 97.1973 209.207 105.049 208.533 112.192C207.858 119.334 193.428 122.716 185.377 125.807L181.622 134.041L183.537 168.849H163.597C162.754 159.349 161.344 143.058 161.344 131.795Z" fill="url(#paint5_linear_3017_735)"/>
<path d="M139.805 124.472C139.805 113.525 147.296 106.661 152.724 105.771L186.414 95.7581C185.946 98.8731 184.841 106.839 184.168 113.781C183.494 120.723 167.229 122.96 159.181 125.964L157.703 131.931V168.849H143.161C142.318 159.616 139.805 135.419 139.805 124.472Z" fill="url(#paint6_linear_3017_735)"/>
<path d="M194.349 113.232C210.056 113.232 210.679 92.6636 205.194 79.9482H150.593V105.379C157.076 107.747 173.703 113.232 194.349 113.232Z" fill="#FBCDCD"/>
<path d="M173.406 58.9654C173.406 48.2708 182.791 40.0033 193.4 41.3519L201.865 42.428C210.822 43.5666 217.535 51.1876 217.535 60.2169C217.535 71.3177 207.552 79.7518 196.607 77.8968L188.194 76.4709C179.655 75.0236 173.406 67.6263 173.406 58.9654Z" fill="#DAA75A"/>
<path d="M171.162 58.9654C171.162 48.2708 180.547 40.0033 191.157 41.3519L199.621 42.428C208.578 43.5666 215.292 51.1876 215.292 60.2169C215.292 71.3177 205.308 79.7518 194.363 77.8968L185.95 76.4709C177.411 75.0236 171.162 67.6263 171.162 58.9654Z" fill="#DFBB85"/>
<path d="M122.919 100.143L121.818 92.5071L203.325 96.5288L202.789 103.232C200.429 108.379 192.869 110.203 189.383 110.471C173.94 111.329 138.827 104.076 122.919 100.143Z" fill="#DAA75A"/>
<path d="M127.449 86.3403L144.608 76.9563L200.644 90.8982C202.431 92.2388 205.101 94.9953 201.455 100.143C197.809 105.291 186.496 105.379 180.512 105.379C163.442 102.519 127.717 96.8504 123.427 94.9199C119.137 92.9895 124.321 88.3958 127.449 86.3403Z" fill="#DFBB85"/>
<path d="M186.315 12.5308C182.828 0.427475 169.137 4.60516 170.599 9.3238C170.399 7.02762 176.319 5.64264 177.558 26.3646C178.52 42.4658 188.173 56.0221 196.69 53.0216C189.318 50.4558 190.674 27.6599 186.315 12.5308Z" fill="#382831"/>
<path d="M167.517 26.3002C165.536 13.8612 163.745 -0.171389 162.27 8.38832C162.352 6.08496 157.418 5.26611 156.785 25.9769C156.228 44.1825 160.567 56.4028 169.457 56.0583C165.077 54.1025 169.992 41.849 167.517 26.3002Z" fill="#24161E"/>
<path d="M164.805 42.1762C167.929 38.9267 167.904 35.3486 166.94 33.2096L180.596 25.794C178.803 38.8244 185.727 40.0895 187.617 41.4282L178.434 51.1221C172.964 49.9981 161.68 45.4257 164.805 42.1762Z" fill="#FFBC96"/>
<path d="M193.932 60.5013C193.665 62.014 193.229 65.3874 193.617 66.7803" stroke="#F49E9E"/>
<path d="M152.6 73.5075L157.086 54.6347L144.42 70.4385L152.6 73.5075Z" fill="#F49E9E"/>
<ellipse cx="181.247" cy="21.5985" rx="2.4791" ry="4.02853" transform="rotate(7.31615 181.247 21.5985)" fill="#FFBC96"/>
<path d="M184.011 16.9304C181.106 26.8621 178.357 32.0973 169.108 35.5249C162.473 35.5538 157.738 27.335 159.047 16.0664C160.356 4.7979 167.603 5.67752 175.804 4.91668C179.77 6.71077 183.084 6.93968 184.011 16.9304Z" fill="#FFBC96"/>
<path d="M163.55 23.8843L163.072 27.2757C163.139 27.5005 163.709 28.2039 164.852 27.8651" stroke="black" stroke-linecap="round"/>
<path d="M177.568 28.7567C173.844 33.5014 169.077 35.3281 167.187 35.2442C167.943 39.2158 165.356 40.9508 165.174 41.8025L167.188 41.1425C168.987 40.5529 170.598 39.4998 171.861 38.0891C172.342 37.5511 172.768 36.966 173.133 36.3426L177.568 28.7567Z" fill="#F4A176"/>
<path d="M169.035 15.2876C166.052 14.2511 165.475 13.6154 164.35 11.6034C166.241 2.33626 175.636 0.873999 180.103 4.67578C181.692 5.58853 183.438 7.35148 184.397 8.76653C186.33 11.6167 184.989 20.4318 183.582 19.3999C180.958 17.4768 179.923 20.7527 179.166 23.3322C179.408 21.196 179.411 19.4763 178.248 18.9233C178.248 18.9233 174.015 17.0179 169.035 15.2876Z" fill="#382831"/>
<path d="M167.719 19.8318C168.17 19.3691 169.953 18.6286 170.877 20.2367" stroke="#5B4444" stroke-linecap="round"/>
<path d="M159.525 21.049C160.114 20.3834 161.182 20.3101 161.86 21.0528" stroke="#5B4444" stroke-linecap="round"/>
<path d="M163.683 30.4868C164.516 31.1382 167.361 31.0023 168.687 29.4027" stroke="#292828" stroke-linecap="round"/>
<path d="M180.941 19.3673C179.008 19.9142 177.021 17.4664 173.995 17.0881C174.941 17.8446 176.799 18.118 178.011 19.7265C178.485 21.7277 179.083 23.2151 179.037 23.9592L179.962 20.5973L180.941 19.3673Z" fill="#24161E"/>
<ellipse cx="160.832" cy="23.4538" rx="0.729504" ry="0.987585" transform="rotate(-9.87651 160.832 23.4538)" fill="#343440"/>
<ellipse cx="168.365" cy="22.7597" rx="0.775414" ry="1.03389" transform="rotate(-9.92837 168.365 22.7597)" fill="#343440"/>
<path d="M159.432 9.7123C159.574 12.6562 157.49 21.1697 158.865 18.7903C160 13.3057 163.026 13.3056 164.161 11.4144C165.674 4.60593 171.984 3.06216 171.347 3.09292C170.711 3.12368 162.269 2.69482 159.432 9.7123Z" fill="#291D1D"/>
<path d="M150.733 84.7949C150.733 81.803 130.399 82.5661 139.748 69.1029C150.511 53.6025 151.243 48.156 160.69 42.5504C166.3 40.3065 165.924 40.6803 165.924 40.6803C165.924 40.6803 164.268 43.8777 170.213 45.4924C175.892 47.0331 181.463 44.0881 185.956 39.4711L190.606 39.9324C196.964 41.4283 197.338 43.6722 198.834 44.4201C204.046 48.1542 207.343 56.7314 209.3 59.3793C213.127 67.3973 214.459 66.7543 213.419 81.4441L211.175 88.1758C203.887 97.4428 178.724 87.4426 178.724 87.4426" fill="#849CCB"/>
<path d="M153.381 78.7427V74.582L146.383 71.9342L151.868 70.7995C154.642 69.7908 154.327 70.9887 158.298 63.991C160.016 60.9643 160.545 59.3718 160.666 58.9312C160.698 58.7628 160.714 58.757 160.666 58.9312C160.628 59.1331 160.568 59.5689 160.568 60.2085C158.298 78.7427 160.189 74.0524 153.381 78.7427Z" fill="#667BA2"/>
<path d="M163.617 41.9017C164.057 44.0462 164.709 45.1897 166.675 46.6641C168.63 48.1307 171.536 48.534 174.528 48.16C182.382 46.6641 184.862 43.4359 187.991 40.3064" stroke="#667BA3" stroke-linecap="round"/>
<path d="M199.959 75.8344C195.172 74.9369 185.997 76.7071 182.008 77.7043C183.005 75.8344 188.722 73.8102 191.357 73.5906C195.699 73.2288 192.574 59.4504 191.801 53.248C191.773 53.0415 191.75 52.8412 191.731 52.6477C191.752 52.8387 191.775 53.0391 191.801 53.248C192.681 59.7474 198.147 72.4515 199.959 75.8344Z" fill="#667BA3"/>
<path d="M152.669 75.2867C151.62 72.0563 154.028 68.7427 157.424 68.7427L160.39 68.7427C162.573 68.7427 164.503 70.1589 165.159 72.2412L167.456 79.5378C168.494 82.833 165.956 86.1623 162.504 86.036L159.576 85.9288C157.478 85.852 155.651 84.4729 155.003 82.4761L152.669 75.2867Z" fill="#343440"/>
<path d="M160.635 76.4734C160.635 77.0228 160.495 77.4779 160.272 77.7818C160.059 78.0711 159.759 78.2429 159.352 78.2429C158.919 78.2429 158.441 78.0472 158.069 77.7085C157.7 77.3721 157.474 76.9316 157.474 76.4734C157.474 75.924 157.614 75.4688 157.838 75.1649C158.051 74.8756 158.35 74.7039 158.758 74.7039C159.191 74.7039 159.669 74.8995 160.04 75.2382C160.41 75.5746 160.635 76.0151 160.635 76.4734Z" stroke="#16D2AA"/>
<path d="M158.109 75.9886C158.109 76.2503 158.099 76.5079 158.175 76.7499C158.246 76.9736 158.358 77.2489 158.541 77.229C158.634 77.2189 158.694 77.1069 158.743 76.9913C158.825 76.7991 158.851 76.5612 158.857 76.3348C158.861 76.186 158.864 76.0384 158.864 75.8894C158.864 75.8338 158.871 75.7672 158.855 75.717" stroke="#16D2AA" stroke-linecap="round"/>
<path d="M159.301 77.23C159.301 77.0537 159.303 76.8769 159.285 76.701C159.271 76.5554 159.247 76.4155 159.247 76.2691C159.247 76.1396 159.224 75.9864 159.305 75.8681C159.359 75.7881 159.491 75.7451 159.598 75.7269C159.745 75.702 159.896 75.7189 159.951 75.8396C160 75.9449 160.018 76.0745 159.98 76.1831C159.92 76.3581 159.714 76.4473 159.495 76.4729" stroke="#16D2AA" stroke-linecap="round"/>
<path d="M151.096 85.932C149.51 85.932 149.378 81.1787 149.51 78.802C150.699 77.9108 154.664 78.802 156.25 80.5845C157.519 82.0105 156.779 84.1495 156.25 85.0407C155.193 85.3378 152.682 85.932 151.096 85.932Z" fill="#FFBC96"/>
<path d="M174.047 79.2004L180.59 80.5474C182.746 80.9911 182.515 84.9227 182.13 86.833H176.741C174.817 87.282 170.352 87.9106 167.888 86.833C164.809 85.4861 165.194 81.8943 165.194 80.5474C165.194 79.4698 171.096 79.2004 174.047 79.2004Z" fill="#FFBC96"/>
<path d="M182.192 77.7043L178.476 78.3799C179.557 80.812 178.926 85.4735 178.476 87.5002L181.516 88.1758C182.597 87.0949 182.417 80.7444 182.192 77.7043Z" fill="#849CCB" stroke="#667BA3" stroke-linejoin="round"/>
<path d="M179.152 79.7312L182.192 79.0557" stroke="#667BA3"/>
<path d="M179.152 81.4201L182.192 81.0823" stroke="#667BA3"/>
<path d="M179.152 83.1091H182.192" stroke="#667BA3"/>
<path d="M179.152 84.7979L182.192 85.1356" stroke="#667BA3"/>
<path d="M178.813 86.4871L181.853 87.1626" stroke="#667BA3"/>
<path d="M163 182.988C163 169.872 175.267 158.063 183 156.996L231 145C230.333 148.732 228.76 158.276 227.8 166.593C226.84 174.911 203.667 184.188 192.2 187.787L183.287 198.707L185.541 233.245L166.757 234C165.557 222.937 163 196.104 163 182.988Z" fill="url(#paint7_linear_3017_735)"/>
<path d="M183 186.037C183 172.972 195.423 161.606 203.256 160.543L246.198 147C245.522 150.718 248.79 159.826 247.818 168.112C246.846 176.397 229.453 182.452 217.84 186.037L213.789 192.41L211.676 229.98L185.868 233C184.652 221.979 183 199.103 183 186.037Z" fill="url(#paint8_linear_3017_735)"/>
<path d="M57 157.525C57 145.888 65.0361 138.59 70.8588 137.644L107 127C106.498 130.311 105.313 138.779 104.591 146.159C103.868 153.539 86.4196 155.918 77.7859 159.111L76.2 165.454V211L60.9773 202.742C60.0737 192.926 57 169.163 57 157.525Z" fill="url(#paint9_linear_3017_735)"/>
<path d="M80.088 165.578C80.088 153.489 80.8962 150.562 88.5734 144.535L129.655 125C129.152 128.44 131.589 136.869 130.864 144.535C130.139 152.202 114.611 155.833 105.948 159.15L101.907 167.989L97.757 221L78 212.661C77.9999 208.303 80.088 177.668 80.088 165.578Z" fill="url(#paint10_linear_3017_735)"/>
<path d="M115.545 145.961C132.371 145.961 133.039 123.927 127.163 110.305H68.6726V137.548C75.6167 140.085 93.4286 145.961 115.545 145.961Z" fill="#FBCDCD"/>
<path d="M93.1104 87.8281C93.1104 76.3717 103.164 67.5153 114.529 68.96L123.596 70.1127C133.192 71.3324 140.384 79.4963 140.384 89.1688C140.384 101.06 129.688 110.095 117.964 108.108L108.952 106.581C99.8044 105.03 93.1104 97.1061 93.1104 87.8281Z" fill="#DAA75A"/>
<path d="M90.7068 87.8281C90.7068 76.3717 100.76 67.5153 112.125 68.96L121.193 70.1127C130.788 71.3324 137.98 79.4963 137.98 89.1688C137.98 101.06 127.285 110.095 115.56 108.108L106.548 106.581C97.4009 105.03 90.7068 97.1061 90.7068 87.8281Z" fill="#DFBB85"/>
<path d="M39.0263 131.939L37.8472 123.759L125.16 128.067L124.586 135.248C122.058 140.762 113.959 142.715 110.225 143.002C93.6814 143.921 56.0676 136.152 39.0263 131.939Z" fill="#DAA75A"/>
<path d="M43.8789 117.153L62.2605 107.101L122.288 122.036C124.203 123.472 127.063 126.425 123.157 131.939C119.251 137.454 107.132 137.548 100.722 137.548C82.4363 134.484 44.1661 128.412 39.5707 126.344C34.9753 124.276 40.5281 119.355 43.8789 117.153Z" fill="#DFBB85"/>
<path d="M114.317 33.8642C110.581 20.8987 95.9157 25.374 97.4813 30.4287C97.2674 27.969 103.609 26.4854 104.936 48.6835C105.967 65.9316 109.593 80.3256 118.718 77.1113C110.82 74.3627 118.987 50.071 114.317 33.8642Z" fill="#3E2D37"/>
<path d="M97.3311 31.0029C97.2713 31.3595 97.23 31.7587 97.2086 32.2023C97.1708 31.7677 97.2174 31.3213 97.3311 31.0029C98.524 23.8886 107.06 33.7285 110.618 46.0751C115.287 62.282 111.667 75.9538 116.581 77.4593C107.174 78.9906 103.319 68.4395 101.525 49.0106C99.8449 30.8139 97.8606 29.5195 97.3311 31.0029Z" fill="#24161E"/>
<path d="M83.8961 69.8428C87.243 66.3618 87.2167 62.5288 86.1837 60.2375L100.813 52.2936C98.8913 66.2522 106.309 67.6074 108.334 69.0416L98.4969 79.4259C92.6364 78.2219 80.5492 73.3238 83.8961 69.8428Z" fill="#F8A474"/>
<path d="M115.098 89.4734C114.812 91.0937 114.345 94.7075 114.761 96.1996" stroke="#F49E9E"/>
<path d="M70.822 103.406L75.6271 83.1887L62.0593 100.118L70.822 103.406Z" fill="#F49E9E"/>
<path d="M80.1892 40.8233C80.3424 43.9952 78.0975 47.0342 77.2078 47.0771C76.318 47.1201 74.8513 44.7052 74.6981 41.5333C74.5449 38.3614 75.7632 35.6337 76.653 35.5907C77.5427 35.5477 80.036 37.6514 80.1892 40.8233Z" fill="#291D1D"/>
<path d="M76.1285 52.4721C78.4443 48.1215 76.0554 47.0137 75.0114 42.697L79.1144 36.6263C80.5871 43.3587 77.7375 49.9953 76.1285 52.4721Z" fill="#291D1D"/>
<ellipse cx="101.51" cy="47.7992" rx="2.6557" ry="4.31551" transform="rotate(7.31615 101.51 47.7992)" fill="#F8A474"/>
<path d="M104.471 42.7985C101.359 53.4377 98.4138 59.0458 88.5067 62.7176C81.3982 62.7486 76.3264 53.9443 77.7288 41.873C79.1311 29.8018 86.8942 30.744 95.6797 29.929C99.9279 31.8509 103.478 32.0961 104.471 42.7985Z" fill="#F8A474"/>
<path d="M82.5527 50.2476L82.0408 53.8805C82.1122 54.1214 82.7225 54.8749 83.9468 54.5119" stroke="black" stroke-linecap="round"/>
<path d="M97.9744 55.4672C93.9852 60.5499 88.7528 62.5864 86.7278 62.4965C87.9618 65.9778 84.8919 68.5299 84.6973 69.4422L86.8544 68.7352C88.7814 68.1036 90.5079 66.9755 91.8602 65.4644C92.376 64.888 92.8325 64.2612 93.223 63.5935L97.9744 55.4672Z" fill="#E47A44"/>
<path d="M92.7562 40.6474C82.3021 42.9434 78.6817 40.3063 78.0125 38.6062L93.9895 37.1766L99.2472 45.8893C98.16 45.972 94.4061 42.541 92.7562 40.6474Z" fill="#CA5B22"/>
<path d="M88.4283 41.0385C81.8304 42.6575 77.7703 38.7517 76.5649 36.5965C82.0905 23.6288 95.499 25.5982 100.285 29.6708C101.986 30.6485 103.258 32.9965 104.286 34.5124C106.356 37.5656 105.519 46.5491 104.011 45.4437C101.201 43.3837 100.092 46.8929 99.2805 49.6562C99.5398 47.3678 99.5437 45.5256 98.2979 44.9332C97.052 44.3409 94.5468 42.6958 93.9135 40.5974C93.9135 40.5974 93.9135 39.6925 88.4283 41.0385Z" fill="#3E2D37"/>
<ellipse cx="8.00824" cy="6.01344" rx="8.00824" ry="6.01344" transform="matrix(0.997873 -0.0651938 0.0824159 0.996598 75.082 29.0737)" fill="#3E2D37"/>
<path d="M94.1863 39.8211C88.0252 40.9776 77.5872 38.1119 75.6212 34.2886C74.9237 35.9483 76.6708 37.9756 77.2807 38.5586C81.6997 42.6811 90.4669 41.0048 94.1863 39.8211Z" fill="#24161E"/>
<path d="M87.018 45.9064C87.5016 45.4107 89.4115 44.6175 90.4019 46.3402" stroke="#5B4444" stroke-linecap="round"/>
<path d="M78.241 47.2104C78.8711 46.4974 80.015 46.4189 80.7414 47.2144" stroke="#5B4444" stroke-linecap="round"/>
<path d="M82.6946 57.3203C83.5874 58.0181 86.6353 57.8725 88.0559 56.159" stroke="#292828" stroke-linecap="round"/>
<path d="M101.183 45.4087C99.1118 45.9946 95.64 42.6871 94.0373 39.8049C93.8595 42.2163 96.7449 44.0704 98.0435 45.7935C98.5508 47.9373 99.1916 49.5306 99.143 50.3278L100.133 46.7263L101.183 45.4087Z" fill="#24161E"/>
<ellipse cx="79.6403" cy="49.7861" rx="0.78147" ry="1.05794" transform="rotate(-9.87651 79.6403 49.7861)" fill="#343440"/>
<ellipse cx="87.7108" cy="49.0429" rx="0.830651" ry="1.10753" transform="rotate(-9.92837 87.7108 49.0429)" fill="#343440"/>
<path d="M73.4785 119.119C73.4786 115.914 47.0393 113.11 57.0544 98.6875C68.5848 82.083 69.3683 76.2485 79.4885 70.2436C85.4977 67.8399 85.0956 68.2403 85.0956 68.2403C85.0956 68.2403 83.3218 71.6655 89.6893 73.3951C95.7731 75.0456 101.741 71.8909 106.554 66.9449L111.535 67.4391C118.346 69.0416 118.747 71.4453 120.349 72.2465C125.933 76.2466 129.465 85.4347 131.561 88.2713C135.661 96.8605 137.088 96.1717 135.973 111.908L133.57 119.119C125.762 129.046 97.915 119.119 97.915 119.119" fill="#FBCDCD"/>
<path d="M82.6238 69.5488C83.0948 71.846 83.7934 73.071 85.8992 74.6504C87.994 76.2215 91.1072 76.6535 94.3122 76.2529C102.725 74.6504 105.382 71.1923 108.735 67.8398" stroke="#F4A6A6" stroke-linecap="round"/>
<path d="M121.554 105.898C116.426 104.937 106.598 106.833 102.324 107.902C103.393 105.898 109.517 103.73 112.34 103.495C116.991 103.107 113.643 88.3474 112.815 81.7032C112.785 81.4819 112.76 81.2674 112.741 81.0601C112.762 81.2646 112.787 81.4793 112.815 81.7032C113.758 88.6655 119.613 102.275 121.554 105.898Z" fill="#F4A6A6"/>
<path d="M65.1887 96.0172C64.1398 92.7868 66.5479 89.4731 69.9443 89.4731L83.834 89.4731C86.017 89.4731 87.9477 90.8894 88.6032 92.9717L95.3674 114.457C96.4048 117.753 93.8676 121.082 90.4153 120.955L76.5727 120.449C74.4748 120.372 72.6483 118.993 72 116.996L65.1887 96.0172Z" fill="#343440"/>
<path d="M93.7966 109.504L100.806 110.947C103.115 111.423 102.868 115.634 102.455 117.681H96.6825C94.621 118.162 89.8383 118.835 87.1994 117.681C83.9008 116.238 84.3131 112.39 84.3131 110.947C84.3131 109.793 90.6354 109.504 93.7966 109.504Z" fill="#F8A474"/>
<path d="M69.2109 116.715C67.512 116.715 67.3704 111.623 67.512 109.077C68.7862 108.123 73.0335 109.077 74.7324 110.987C76.0916 112.514 75.2987 114.806 74.7324 115.761C73.5998 116.079 70.9098 116.715 69.2109 116.715Z" fill="#F8A474"/>
<path d="M102.522 107.902L98.5415 108.626C99.6994 111.231 99.024 116.224 98.5415 118.396L101.798 119.119C102.956 117.961 102.763 111.159 102.522 107.902Z" fill="#FBCDCD" stroke="#F4A6A6" stroke-linejoin="round"/>
<path d="M99.2654 110.073L102.522 109.349" stroke="#F4A6A6"/>
<path d="M99.2654 111.882L102.522 111.52" stroke="#F4A6A6"/>
<path d="M99.2654 113.692H102.522" stroke="#F4A6A6"/>
<path d="M99.2654 115.501L102.522 115.863" stroke="#F4A6A6"/>
<path d="M98.9033 117.31L102.16 118.034" stroke="#F4A6A6"/>
<path d="M81.3931 104.697C81.3931 105.509 81.1959 106.201 80.8629 106.676C80.5407 107.134 80.0867 107.402 79.4894 107.402C78.8637 107.402 78.1816 107.107 77.6513 106.601C77.1243 106.098 76.7844 105.422 76.7844 104.697C76.7844 103.884 76.9816 103.192 77.3147 102.718C77.6368 102.259 78.0908 101.992 78.6881 101.992C79.3139 101.992 79.9959 102.286 80.5262 102.792C81.0532 103.295 81.3931 103.972 81.3931 104.697Z" stroke="#16D2AA"/>
<path d="M77.8873 104.183C77.8873 104.46 77.8759 104.733 77.9572 104.989C78.0323 105.226 78.151 105.518 78.344 105.497C78.4425 105.486 78.5068 105.368 78.5587 105.245C78.6449 105.042 78.6726 104.79 78.6792 104.55C78.6836 104.392 78.686 104.236 78.686 104.078C78.686 104.019 78.6941 103.949 78.6773 103.896" stroke="#16D2AA" stroke-linecap="round"/>
<path d="M79.5494 105.498C79.5494 105.311 79.5517 105.124 79.5329 104.938C79.5174 104.783 79.4923 104.635 79.4923 104.48C79.4923 104.343 79.4676 104.181 79.5532 104.055C79.6111 103.971 79.7508 103.925 79.8641 103.906C80.0196 103.88 80.1798 103.897 80.2384 104.025C80.2896 104.137 80.3087 104.274 80.2689 104.389C80.2047 104.574 79.9867 104.669 79.755 104.696" stroke="#16D2AA" stroke-linecap="round"/>
<path d="M97.9421 28.1126C98.6083 28.1126 99.1496 28.0994 99.7371 28.4475C100.238 28.7442 100.7 29.0831 101.005 29.5877C101.065 29.687 101.201 30.0129 101.291 30.0731C101.555 30.2488 100.817 29.6491 100.618 29.4033C100.221 28.9151 99.5728 28.67 99.0635 28.3459C98.8019 28.1795 98.2505 27.9094 97.9421 27.9094" stroke="white" stroke-linecap="round"/>
<path d="M233.621 169.175C252.245 169.175 252.984 144.786 246.48 129.709H181.739V159.863C189.425 162.671 209.141 169.175 233.621 169.175Z" fill="#FEDF85"/>
<path d="M209.045 104.658C209.045 91.9777 220.173 82.1748 232.753 83.7739L242.79 85.0498C253.41 86.3999 261.371 95.4362 261.371 106.142C261.371 119.305 249.533 129.305 236.555 127.106L226.58 125.415C216.455 123.699 209.045 114.928 209.045 104.658Z" fill="#DAA75A"/>
<path d="M206.385 104.83C206.385 92.1489 217.513 82.346 230.092 83.9451L240.129 85.2209C250.75 86.571 258.71 95.6073 258.71 106.314C258.71 119.476 246.872 129.476 233.895 127.277L223.92 125.586C213.794 123.87 206.385 115.099 206.385 104.83Z" fill="#DFBB85"/>
<path d="M148.925 153.655L147.62 144.6L244.264 149.369L243.628 157.317C240.831 163.42 231.866 165.582 227.733 165.9C209.421 166.917 167.788 158.317 148.925 153.655Z" fill="#DAA75A"/>
<path d="M154.296 137.289L174.642 126.162L241.084 142.693C243.204 144.283 246.37 147.551 242.046 153.655C237.723 159.759 224.309 159.863 217.214 159.863C196.974 156.472 154.614 149.751 149.527 147.462C144.441 145.173 150.587 139.726 154.296 137.289Z" fill="#DFBB85"/>
<path d="M198.59 84.9222C202.294 81.0692 202.265 76.8265 201.122 74.2903L217.314 65.4974C215.188 80.9478 223.397 82.4479 225.639 84.0353L214.751 95.5294C208.264 94.1967 194.885 88.7751 198.59 84.9222Z" fill="#C27D56"/>
<path d="M233.126 106.651C232.81 108.444 232.292 112.444 232.752 114.096" stroke="#F49E9E"/>
<path d="M184.119 122.072L189.437 99.6946L174.419 118.434L184.119 122.072Z" fill="#F49E9E"/>
<path d="M187.059 139.465C187.059 135.917 157.794 132.813 168.879 116.85C181.642 98.4706 182.509 92.0127 193.711 85.3659C200.362 82.7054 199.917 83.1486 199.917 83.1486C199.917 83.1486 197.954 86.9398 205.002 88.8543C211.736 90.6811 218.342 87.1893 223.669 81.7148L229.183 82.2617C236.721 84.0355 237.165 86.6961 238.938 87.5829C245.119 92.0105 249.028 102.181 251.349 105.32C255.886 114.827 257.466 114.065 256.232 131.483L253.572 139.465C244.93 150.453 214.107 139.465 214.107 139.465" fill="#FEDF85"/>
<path d="M184.775 128.825V124.664L177.778 122.016L183.262 120.882C186.036 119.873 185.721 121.071 189.692 114.073C191.41 111.046 191.94 109.454 192.061 109.013C192.092 108.845 192.108 108.839 192.061 109.013C192.023 109.215 191.962 109.651 191.962 110.29C189.692 128.825 191.584 124.134 184.775 128.825Z" fill="#F8BB44"/>
<path d="M197.182 84.5967C197.703 87.1394 198.476 88.4953 200.807 90.2435C203.126 91.9825 206.572 92.4606 210.119 92.0172C219.432 90.2435 222.372 86.4158 226.083 82.7051" stroke="#F8BB44" stroke-linecap="round"/>
<path d="M240.273 124.831C234.597 123.767 223.718 125.866 218.988 127.048C220.171 124.831 226.949 122.431 230.074 122.171C235.222 121.742 231.516 105.404 230.6 98.0502C230.567 97.8053 230.539 97.5678 230.517 97.3384C230.541 97.5648 230.569 97.8024 230.6 98.0502C231.643 105.757 238.124 120.82 240.273 124.831Z" fill="#F8BB44"/>
<path d="M209.548 128.823L217.307 130.42C219.863 130.946 219.589 135.608 219.132 137.873H212.743C210.461 138.405 205.167 139.15 202.246 137.873C198.595 136.276 199.051 132.017 199.051 130.42C199.051 129.142 206.049 128.823 209.548 128.823Z" fill="#C27D56"/>
<path d="M182.335 136.804C180.455 136.804 180.298 131.168 180.455 128.35C181.865 127.293 186.566 128.35 188.447 130.464C189.951 132.154 189.074 134.691 188.447 135.747C187.193 136.1 184.216 136.804 182.335 136.804Z" fill="#C27D56"/>
<path d="M219.206 127.049L214.8 127.85C216.082 130.733 215.334 136.261 214.8 138.664L218.405 139.465C219.687 138.183 219.473 130.653 219.206 127.049Z" fill="#FEDF85" stroke="#F8BB44" stroke-linejoin="round"/>
<path d="M215.602 129.452L219.207 128.651" stroke="#F8BB44"/>
<path d="M215.602 131.455L219.207 131.054" stroke="#F8BB44"/>
<path d="M215.602 133.457H219.207" stroke="#F8BB44"/>
<path d="M215.602 135.46L219.207 135.86" stroke="#F8BB44"/>
<path d="M215.201 137.462L218.805 138.263" stroke="#F8BB44"/>
<path d="M195.873 123.501C195.873 124.408 195.653 125.186 195.276 125.722C194.91 126.243 194.392 126.549 193.712 126.549C193.004 126.549 192.236 126.216 191.641 125.648C191.049 125.083 190.665 124.321 190.665 123.501C190.665 122.594 190.885 121.816 191.261 121.28C191.627 120.759 192.145 120.454 192.825 120.454C193.534 120.454 194.301 120.786 194.897 121.354C195.488 121.919 195.873 122.681 195.873 123.501Z" stroke="#16D2AA"/>
<path d="M191.939 122.933C191.939 123.239 191.926 123.541 192.016 123.825C192.099 124.087 192.231 124.41 192.444 124.387C192.553 124.375 192.625 124.244 192.682 124.108C192.777 123.883 192.808 123.604 192.815 123.338C192.82 123.164 192.823 122.991 192.823 122.816C192.823 122.751 192.832 122.673 192.813 122.614" stroke="#16D2AA" stroke-width="0.5" stroke-linecap="round"/>
<path d="M193.779 124.388C193.779 124.181 193.781 123.974 193.761 123.768C193.744 123.597 193.716 123.433 193.716 123.261C193.716 123.11 193.688 122.93 193.783 122.791C193.847 122.698 194.002 122.647 194.127 122.626C194.3 122.597 194.477 122.616 194.542 122.758C194.598 122.881 194.619 123.033 194.575 123.161C194.504 123.366 194.263 123.47 194.007 123.5" stroke="#16D2AA" stroke-width="0.5" stroke-linecap="round"/>
<ellipse cx="218.085" cy="60.5228" rx="2.93951" ry="4.77671" transform="rotate(7.31615 218.085 60.5228)" fill="#C27D56"/>
<path d="M221.363 54.9879C217.918 66.7642 214.658 72.9716 203.692 77.0358C195.824 77.0701 190.21 67.3249 191.763 53.9635C193.315 40.6022 201.907 41.6452 211.632 40.7431C216.334 42.8703 220.264 43.1418 221.363 54.9879Z" fill="#C27D56"/>
<path d="M197.102 63.2331L196.535 67.2542C196.614 67.5209 197.29 68.3548 198.645 67.9531" stroke="black" stroke-linecap="round"/>
<path d="M214.172 69.0102C209.756 74.6361 203.965 76.8903 201.723 76.7908C203.089 80.6442 199.691 83.469 199.476 84.4788L201.864 83.6962C203.996 82.9972 205.908 81.7485 207.404 80.0759C207.975 79.4379 208.481 78.7441 208.913 78.005L214.172 69.0102Z" fill="#A36342"/>
<path d="M210.386 50.3057C198.815 52.8471 194.807 49.9282 194.067 48.0464L211.751 46.464L217.571 56.1078C216.367 56.1993 212.212 52.4017 210.386 50.3057Z" fill="#A26342"/>
<path d="M202.045 58.4279C202.58 57.8792 204.694 57.0012 205.79 58.908" stroke="#5B4444" stroke-linecap="round"/>
<path d="M192.33 59.8714C193.027 59.0822 194.293 58.9953 195.097 59.8758" stroke="#5B4444" stroke-linecap="round"/>
<path d="M197.259 71.0615C198.247 71.8339 201.621 71.6727 203.193 69.7761" stroke="#292828" stroke-linecap="round"/>
<ellipse cx="193.878" cy="62.7223" rx="0.864985" ry="1.171" transform="rotate(-9.87651 193.878 62.7223)" fill="#343440"/>
<ellipse cx="202.811" cy="61.8996" rx="0.919423" ry="1.2259" transform="rotate(-9.92837 202.811 61.8996)" fill="#343440"/>
<path d="M228.323 141.399C228.493 141.358 228.674 141.391 228.825 141.489C228.976 141.588 229.085 141.745 229.128 141.925C229.171 142.105 229.145 142.294 229.055 142.45C228.965 142.606 228.818 142.717 228.648 142.758L207.361 147.852L205.838 146.78L228.323 141.399Z" fill="#988189"/>
<path d="M229.15 141.638L207.085 146.977L199.611 134.165L229.15 141.638Z" fill="#988189"/>
<path d="M200.823 117.769C200.969 117.778 201.111 117.828 201.231 117.912C201.351 117.997 201.446 118.113 201.504 118.247L207.297 148.134L166.475 142.045C166.332 142.035 166.195 141.988 166.077 141.907C165.959 141.827 165.865 141.716 165.804 141.587L159.154 113.969C159.064 113.778 159.054 113.558 159.125 113.359C159.197 113.16 159.345 112.998 159.537 112.908C159.658 112.851 159.791 112.826 159.925 112.834L200.823 117.769Z" fill="url(#paint11_linear_3017_735)"/>
<path d="M184.087 130.752C184.087 131.56 183.876 132.249 183.518 132.724C183.17 133.185 182.667 133.467 181.993 133.467C181.294 133.467 180.545 133.162 179.969 132.651C179.395 132.142 179.035 131.466 179.035 130.752C179.035 129.944 179.245 129.255 179.604 128.78C179.952 128.319 180.454 128.037 181.128 128.037C181.827 128.037 182.577 128.342 183.152 128.853C183.726 129.362 184.087 130.038 184.087 130.752Z" stroke="#16D2AA"/>
<path d="M180.048 130.214C180.048 130.607 180.032 130.993 180.147 131.356C180.254 131.691 180.422 132.104 180.695 132.075C180.835 132.059 180.926 131.891 180.999 131.718C181.121 131.43 181.161 131.073 181.17 130.733C181.176 130.51 181.18 130.289 181.18 130.065C181.18 129.982 181.191 129.882 181.167 129.807" stroke="#16D2AA" stroke-linecap="round"/>
<path d="M182.024 132.076C182.024 131.812 182.027 131.546 182.001 131.283C181.979 131.064 181.943 130.854 181.943 130.635C181.943 130.441 181.908 130.211 182.03 130.033C182.112 129.913 182.309 129.849 182.47 129.821C182.69 129.784 182.917 129.809 183 129.99C183.073 130.148 183.1 130.343 183.043 130.506C182.952 130.768 182.644 130.902 182.315 130.94" stroke="#16D2AA" stroke-linecap="round"/>
<path d="M219.118 57.7102C219.118 57.7102 217.703 57.4236 216.1 61.0292C215.64 62.4549 214.898 58.2249 214.898 58.2249C214.898 58.2249 213.739 57.1045 214.264 55.9608C214.264 55.9608 211.491 55.6674 211.293 53.4923C210.964 53.0539 209.69 55.0948 209.434 52.9403C208.195 53.7932 206.78 52.7224 206.78 52.7224C206.78 52.7224 203.865 51.9933 203.492 50.1136C203.492 50.1136 200.935 53.411 197.157 51.6778C197.157 51.6778 195.244 55.8209 192.897 53.4923C192.897 53.4923 192.462 55.8211 189.658 55.0198C187.047 53.818 188.456 51.6777 188.456 51.6777C188.456 51.6777 185.652 50.2124 187.655 47.8087C187.655 47.8087 186.316 44.1336 189.259 43.8025C189.259 43.8025 188.456 38.5944 193.478 39.7509C193.478 39.7509 194.466 35.5826 197.541 37.0291C197.541 37.0291 200.72 34.0863 203.492 36.1907C203.492 36.1907 207.099 34.3435 208.89 37.3926C208.89 37.3926 213.697 34.5882 215.299 38.5944C215.299 38.5944 219.138 38.5472 219.705 42.6006C219.705 42.6006 222.997 44.5079 222.11 47.4081C222.11 47.4081 224.913 51.6777 221.708 53.4923C221.966 54.2163 221.938 55.0113 221.631 55.7157L220.76 57.7102L219.118 57.7102Z" fill="#272828"/>
<defs>
<radialGradient id="paint0_radial_3017_735" cx="0" cy="0" r="1" gradientUnits="userSpaceOnUse" gradientTransform="translate(147.5 118) rotate(90) scale(125.231 159.238)">
<stop stop-color="#FBFEFF"/>
<stop offset="1" stop-color="#C6DDEA" stop-opacity="0"/>
</radialGradient>
<linearGradient id="paint1_linear_3017_735" x1="93.2525" y1="183.986" x2="93.2525" y2="193.585" gradientUnits="userSpaceOnUse">
<stop stop-color="#667BA2"/>
<stop offset="1" stop-color="#667BA2" stop-opacity="0"/>
</linearGradient>
<linearGradient id="paint2_linear_3017_735" x1="108.188" y1="179.923" x2="108.188" y2="190.347" gradientUnits="userSpaceOnUse">
<stop stop-color="#667BA2"/>
<stop offset="1" stop-color="#667BA2" stop-opacity="0"/>
</linearGradient>
<linearGradient id="paint3_linear_3017_735" x1="212.252" y1="213.312" x2="212.252" y2="222.687" gradientUnits="userSpaceOnUse">
<stop stop-color="#667BA2"/>
<stop offset="1" stop-color="#667BA2" stop-opacity="0"/>
</linearGradient>
<linearGradient id="paint4_linear_3017_735" x1="226.459" y1="209.923" x2="226.459" y2="220.347" gradientUnits="userSpaceOnUse">
<stop stop-color="#667BA2"/>
<stop offset="1" stop-color="#667BA2" stop-opacity="0"/>
</linearGradient>
<linearGradient id="paint5_linear_3017_735" x1="181.182" y1="154.582" x2="180.236" y2="169.901" gradientUnits="userSpaceOnUse">
<stop stop-color="#33415E"/>
<stop offset="1" stop-color="#33415E" stop-opacity="0"/>
</linearGradient>
<linearGradient id="paint6_linear_3017_735" x1="155.272" y1="144.937" x2="153.192" y2="170.469" gradientUnits="userSpaceOnUse">
<stop stop-color="#2F3541"/>
<stop offset="0.516202" stop-color="#2F3541" stop-opacity="0.540357"/>
<stop offset="1" stop-color="#2F3541" stop-opacity="0"/>
</linearGradient>
<linearGradient id="paint7_linear_3017_735" x1="184.602" y1="200.972" x2="183.844" y2="214.749" gradientUnits="userSpaceOnUse">
<stop stop-color="#526A9B"/>
<stop offset="1" stop-color="#526A9B" stop-opacity="0"/>
</linearGradient>
<linearGradient id="paint8_linear_3017_735" x1="207.279" y1="201.474" x2="206.161" y2="217.9" gradientUnits="userSpaceOnUse">
<stop stop-color="#5B77AF"/>
<stop offset="1" stop-color="#5B77AF" stop-opacity="0"/>
</linearGradient>
<linearGradient id="paint9_linear_3017_735" x1="76.3182" y1="183.223" x2="75.7602" y2="190.919" gradientUnits="userSpaceOnUse">
<stop stop-color="#2F3541"/>
<stop offset="1" stop-color="#2F3541" stop-opacity="0"/>
</linearGradient>
<linearGradient id="paint10_linear_3017_735" x1="98.5168" y1="186.888" x2="97.3823" y2="196.554" gradientUnits="userSpaceOnUse">
<stop stop-color="#33415E"/>
<stop offset="1" stop-color="#33415E" stop-opacity="0"/>
</linearGradient>
<linearGradient id="paint11_linear_3017_735" x1="180.069" y1="116.012" x2="179.815" y2="143.172" gradientUnits="userSpaceOnUse">
<stop stop-color="#D1C6C6"/>
<stop offset="1" stop-color="#988189"/>
</linearGradient>
</defs>
</svg>
