<svg id="Layer_1" data-name="Layer 1" xmlns="http://www.w3.org/2000/svg" viewBox="0 0 28 28"><defs><style>.cls-1{fill:#343440;}</style></defs><title>clear icon</title><path class="cls-1" d="M22,27H6a1,1,0,0,1-1-1V6A1,1,0,0,1,6,5H22a1,1,0,0,1,1,1V26A1,1,0,0,1,22,27ZM7,25H21V7H7Z"/><path class="cls-1" d="M26,7H2A1,1,0,0,1,2,5H26a1,1,0,0,1,0,2Z"/><path class="cls-1" d="M17.37,7a1,1,0,0,1-1-1V3H11.63V6a1,1,0,1,1-2,0V2a1,1,0,0,1,1-1h6.74a1,1,0,0,1,1,1V6A1,1,0,0,1,17.37,7Z"/><path class="cls-1" d="M10,22a1,1,0,0,1-1-1V11a1,1,0,0,1,2,0V21A1,1,0,0,1,10,22Z"/><path class="cls-1" d="M14,22a1,1,0,0,1-1-1V11a1,1,0,0,1,2,0V21A1,1,0,0,1,14,22Z"/><path class="cls-1" d="M18,22a1,1,0,0,1-1-1V11a1,1,0,0,1,2,0V21A1,1,0,0,1,18,22Z"/></svg>