<svg id="Layer_1" data-name="Layer 1" xmlns="http://www.w3.org/2000/svg" viewBox="0 0 28 28">
  <defs>
    <style>
      .cls-1{fill:#343440}
    </style>
  </defs>
  <path class="cls-1" d="M22 27H6a1 1 0 0 1-1-1V6a1 1 0 0 1 1-1h16a1 1 0 0 1 1 1v20a1 1 0 0 1-1 1zM7 25h14V7H7z"/>
  <path class="cls-1" d="M26 7H2a1 1 0 0 1 0-2h24a1 1 0 0 1 0 2z"/>
  <path class="cls-1" d="M17.37 7a1 1 0 0 1-1-1V3h-4.74v3a1 1 0 1 1-2 0V2a1 1 0 0 1 1-1h6.74a1 1 0 0 1 1 1v4a1 1 0 0 1-1 1zM10 22a1 1 0 0 1-1-1V11a1 1 0 0 1 2 0v10a1 1 0 0 1-1 1zm4 0a1 1 0 0 1-1-1V11a1 1 0 0 1 2 0v10a1 1 0 0 1-1 1zm4 0a1 1 0 0 1-1-1V11a1 1 0 0 1 2 0v10a1 1 0 0 1-1 1z"/>
</svg>
