<svg id="Layer_1" data-name="Layer 1" xmlns="http://www.w3.org/2000/svg" viewBox="0 0 32.84 32.84"><defs><style>.cls-1{fill:#343440;}</style></defs><title>trash-2</title><path class="cls-1" d="M23.69,28.23H9.15a.91.91,0,0,1-.91-.91V9.15a.91.91,0,0,1,.91-.91H23.69a.9.9,0,0,1,.9.91V27.32A.9.9,0,0,1,23.69,28.23ZM10.06,26.41H22.78V10.06H10.06Z"/><path class="cls-1" d="M27.32,10.06H5.52a.91.91,0,0,1,0-1.82h21.8a.91.91,0,0,1,0,1.82Z"/><path class="cls-1" d="M19.48,10.06a.91.91,0,0,1-.91-.91V6.43H14.26V9.15a.91.91,0,1,1-1.81,0V5.52a.9.9,0,0,1,.91-.91h6.12a.91.91,0,0,1,.91.91V9.15A.91.91,0,0,1,19.48,10.06Z"/><path class="cls-1" d="M12.78,23.69a.9.9,0,0,1-.9-.91V13.69a.91.91,0,1,1,1.81,0v9.09A.91.91,0,0,1,12.78,23.69Z"/><path class="cls-1" d="M16.42,23.69a.91.91,0,0,1-.91-.91V13.69a.91.91,0,1,1,1.82,0v9.09A.91.91,0,0,1,16.42,23.69Z"/><path class="cls-1" d="M20.05,23.69a.91.91,0,0,1-.91-.91V13.69a.91.91,0,0,1,1.82,0v9.09A.91.91,0,0,1,20.05,23.69Z"/></svg>