<svg fill="none" height="20" viewBox="0 0 20 20" width="20" xmlns="http://www.w3.org/2000/svg"><g fill="#ff0202"><g clip-rule="evenodd" fill-rule="evenodd"><path d="m6.28555 15.0753c.59629.2033.87414.7558.6206 1.234l-1.65294 3.1177c-.25353.4783-.94246.7011-1.53876.4977-.59629-.2033-.87414-.7558-.6206-1.2341l1.65294-3.1177c.25353-.4782.94246-.701 1.53876-.4976z"/><path d="m13.7145 15.0753c-.5964.2033-.8742.7558-.6207 1.234l1.653 3.1177c.2536.4783.9425.7011 1.5387.4977.5964-.2033.8742-.7558.6207-1.2341l-1.653-3.1177c-.2536-.4782-.9425-.701-1.5387-.4976z"/><path d="m10.0378 6c.5732 0 1.0379.38684 1.0379.86403v2.40793h1.8865c.5732 0 1.0378.3868 1.0378.86404 0 .4772-.4646.864-1.0378.864h-2.9244c-.57315 0-1.0378-.3868-1.0378-.864v-3.27197c0-.47719.46465-.86403 1.0378-.86403z"/><path d="m9.99999 16.0117c3.29651 0 5.99591-2.6767 5.99591-6.0117 0-3.33502-2.6994-6.01169-5.99591-6.01169-3.29653 0-5.9959 2.67667-5.9959 6.01169 0 3.335 2.69937 6.0117 5.9959 6.0117zm0 1.9883c4.41831 0 8.00001-3.5817 8.00001-8 0-4.41827-3.5817-8-8.00001-8-4.41828 0-7.99999 3.58173-7.99999 8 0 4.4183 3.58171 8 7.99999 8z"/></g><path d="m2.54801 8c-.45766-.34098-.8348-.78706-1.10255-1.30412-.26776-.51704-.41905-1.09136-.4423-1.67905-.023257-.58768.08215-1.17314.30814-1.71161s.56659-1.0157.99575-1.39515c.42916-.37947.9355-.65113 1.48031-.79421.54482-.143077 1.11365-.153787 1.66302-.0313.54938.12248 1.06472.3749 1.50662.73797s.79867.82716 1.043 1.35677l-1.88426.95324c-.10553-.22874-.2596-.42916-.45045-.58596s-.41341-.26582-.65067-.31872c-.23726-.05289-.48292-.04826-.71821.01353s-.45397.17911-.63931.343c-.18534.16388-.33244.36997-.43003.60253-.0976.23255-.14313.48539-.13308.73919.01004.25381.07538.50184.19101.72514.11564.2233.27851.41595.47617.56322z"/><path d="m17.452 8c.4577-.34098.8348-.78706 1.1025-1.30412.2678-.51704.4191-1.09136.4423-1.67905.0233-.58768-.0821-1.17314-.308-1.71161-.2261-.53847-.5667-1.0157-.9958-1.39515-.4291-.37947-.9356-.65113-1.4803-.79421-.5448-.143077-1.1136-.153787-1.663-.0313-.5494.12248-1.0647.3749-1.5066.73797s-.7987.82716-1.0431 1.35677l1.8843.95324c.1055-.22874.2596-.42916.4505-.58596.1908-.1568.4134-.26582.6506-.31872.2373-.05289.4829-.04826.7182.01353s.454.17911.6393.343c.1853.16388.3325.36997.4301.60253.0976.23255.1431.48539.133.73919-.01.25381-.0753.50184-.191.72514-.1156.2233-.2784.41595-.4761.56322z"/></g></svg>