<?xml version="1.0" encoding="utf-8"?>
<!-- Generator: Adobe Illustrator 21.0.0, SVG Export Plug-In . SVG Version: 6.00 Build 0)  -->
<svg version="1.1" id="Layer_1" xmlns="http://www.w3.org/2000/svg" xmlns:xlink="http://www.w3.org/1999/xlink" x="0px" y="0px"
	 viewBox="0 0 24 24" style="enable-background:new 0 0 24 24;" xml:space="preserve">
<style type="text/css">
	.st0{fill:none;stroke:#FFFFFF;stroke-linecap:round;stroke-linejoin:round;stroke-miterlimit:10;}
	.st1{fill:#FFFFFF;stroke:#FFFFFF;stroke-linecap:round;stroke-linejoin:round;stroke-miterlimit:10;}
</style>
<g>
	<path class="st0" d="M4.7,10.8v5.3c0,0,1.8,3.3,7.2,3.3c5.3,0,7.4-3.3,7.4-3.3v-5.3l-7.1,4.1L4.7,10.8z"/>
	<polygon class="st0" points="12.2,2 0.5,8.3 12.2,14.9 23.5,8.3 	"/>
	<polygon class="st0" points="17.3,18.8 16.6,22 18,22 	"/>
	<polygon class="st1" points="17.3,18.8 16.6,22 18,22 	"/>
	<polyline class="st0" points="12.1,8.2 17.3,11.7 17.3,18.8 	"/>
	<path class="st0" d="M12.8,8.2c0,0.3-0.3,0.6-0.7,0.6s-0.7-0.3-0.7-0.6s0.3-0.6,0.7-0.6S12.8,7.9,12.8,8.2"/>
</g>
</svg>
