<svg version="1.1" id="Layer_1" xmlns="http://www.w3.org/2000/svg" x="0" y="0" viewBox="0 0 24 24" xml:space="preserve">
  <style>
    .st0{fill:none;stroke:#fff;stroke-linecap:round;stroke-linejoin:round;stroke-miterlimit:10}
  </style>
  <path class="st0" d="M4.7 10.8v5.3s1.8 3.3 7.2 3.3c5.3 0 7.4-3.3 7.4-3.3v-5.3l-7.1 4.1-7.5-4.1z"/>
  <path class="st0" d="M12.2 2L.5 8.3l11.7 6.6 11.3-6.6zM17.3 18.8l-.7 3.2H18z"/>
  <path fill="#fff" stroke="#fff" stroke-linecap="round" stroke-linejoin="round" stroke-miterlimit="10" d="M17.3 18.8l-.7 3.2H18z"/>
  <path class="st0" d="M12.1 8.2l5.2 3.5v7.1"/>
  <path class="st0" d="M12.8 8.2c0 .3-.3.6-.7.6s-.7-.3-.7-.6.3-.6.7-.6.7.3.7.6"/>
</svg>
