<svg width="16px" height="20px" viewBox="0 0 16 20" version="1.1" xmlns="http://www.w3.org/2000/svg" xmlns:xlink="http://www.w3.org/1999/xlink">
    <!-- Generator: Sketch 46.2 (44496) - http://www.bohemiancoding.com/sketch -->
    <desc>Created with Sketch.</desc>
    <defs></defs>
    <g id="Page-2:-Students" stroke="none" stroke-width="1" fill="none" fill-rule="evenodd">
        <g id="student-chatroom_whiteboard" transform="translate(-474.000000, -762.000000)" fill-rule="nonzero" fill="#343440">
            <g id="Group" transform="translate(402.000000, 756.000000)">
                <g id="color" transform="translate(68.000000, 4.000000)">
                    <path d="M17.66,7.93 L12,2.27 L6.34,7.93 C3.22,11.05 3.22,16.12 6.34,19.24 C7.9,20.8 9.95,21.58 12,21.58 C14.05,21.58 16.1,20.8 17.66,19.24 C20.78,16.12 20.78,11.05 17.66,7.93 Z M12,19.59 C10.4,19.59 8.89,18.97 7.76,17.83 C6.62,16.69 6,15.19 6,13.59 C6,11.99 6.62,10.48 7.76,9.35 L12,5.1 L12,19.59 Z" id="Shape"></path>
                </g>
            </g>
        </g>
    </g>
</svg>
