<svg enable-background="new 0 0 115.77 122.88" viewBox="0 0 115.77 122.88" xmlns="http://www.w3.org/2000/svg"><path clip-rule="evenodd" d="m89.62 13.96v7.73h12.19.01v.02c3.85.01 7.34 1.57 9.86 4.1 2.5 2.51 4.06 5.98 4.07 9.82h.02v.02 73.27.01h-.02c-.01 3.84-1.57 7.33-4.1 9.86-2.51 2.5-5.98 4.06-9.82 4.07v.02h-.02-61.7-.01v-.02c-3.84-.01-7.34-1.57-9.86-4.1-2.5-2.51-4.06-5.98-4.07-9.82h-.02v-.02-16.41h-12.19-.01v-.02c-3.84-.01-7.34-1.57-9.86-4.1-2.5-2.51-4.06-5.98-4.07-9.82h-.02v-.02-64.59-.01h.02c.01-3.85 1.58-7.34 4.1-9.86 2.51-2.5 5.98-4.06 9.82-4.07v-.02h.02 61.7.01v.02c3.85.01 7.34 1.57 9.86 4.1 2.5 2.51 4.06 5.98 4.07 9.82h.02zm-10.58 7.73v-7.73-.02h.02c0-.91-.39-1.75-1.01-2.37-.61-.61-1.46-1-2.37-1v.02h-.01-61.7-.02v-.02c-.91 0-1.75.39-2.37 1.01-.61.61-1 1.46-1 2.37h.02v.01 64.59.02h-.02c0 .91.39 1.75 1.01 2.37.61.61 1.46 1 2.37 1v-.02h.01 12.19v-46.27-.01h.02c.01-3.85 1.58-7.34 4.1-9.86 2.51-2.5 5.98-4.06 9.82-4.07v-.02h.02zm26.14 87.23v-73.27-.02h.02c0-.91-.39-1.75-1.01-2.37-.61-.61-1.46-1-2.37-1v.02h-.01-61.7-.02v-.02c-.91 0-1.75.39-2.37 1.01-.61.61-1 1.46-1 2.37h.02v.01 73.27.02h-.02c0 .91.39 1.75 1.01 2.37.61.61 1.46 1 2.37 1v-.02h.01 61.7.02v.02c.91 0 1.75-.39 2.37-1.01.61-.61 1-1.46 1-2.37h-.02z" fill-rule="evenodd"/></svg>