<svg fill="none" height="80" viewBox="0 0 80 80" width="80" xmlns="http://www.w3.org/2000/svg"><g opacity=".2"><path d="m35.6196 3.80043c2.5132-2.18049 6.2476-2.18049 8.7608 0l1.8594 1.61321c1.5508 1.34544 3.6338 1.90359 5.6495 1.51379l2.4169-.46739c3.2668-.63173 6.5008 1.23544 7.5871 4.38046l.8037 2.3267c.6703 1.9406 2.1952 3.4655 4.1358 4.1358l2.3267.8037c3.145 1.0863 5.0122 4.3203 4.3805 7.5871l-.4674 2.4169c-.3898 2.0157.1683 4.0987 1.5138 5.6495l1.6132 1.8594c2.1805 2.5132 2.1805 6.2476 0 8.7608l-1.6132 1.8594c-1.3455 1.5508-1.9036 3.6338-1.5138 5.6495l.4674 2.4169c.6317 3.2668-1.2355 6.5008-4.3805 7.5871l-2.3267.8037c-1.9406.6703-3.4655 2.1952-4.1358 4.1357l-.8037 2.3268c-1.0863 3.145-4.3203 5.0122-7.5871 4.3805l-2.4169-.4674c-2.0157-.3898-4.0987.1683-5.6495 1.5138l-1.8594 1.6132c-2.5132 2.1805-6.2476 2.1805-8.7608 0l-1.8594-1.6132c-1.5508-1.3455-3.6338-1.9036-5.6495-1.5138l-2.4169.4674c-3.2668.6317-6.5008-1.2355-7.5871-4.3805l-.8037-2.3267c-.6703-1.9406-2.1952-3.4655-4.1358-4.1358l-2.3267-.8037c-3.14502-1.0863-5.01219-4.3203-4.38046-7.5871l.46739-2.4169c.38979-2.0157-.16835-4.0987-1.51379-5.6495l-1.61321-1.8594c-2.18049-2.5132-2.18049-6.2476 0-8.7608l1.61321-1.8594c1.34544-1.5508 1.90359-3.6338 1.51379-5.6495l-.46739-2.4169c-.63173-3.2668 1.23544-6.5008 4.38046-7.5871l2.3267-.8037c1.9406-.6703 3.4655-2.1952 4.1358-4.1358l.8037-2.3267c1.0863-3.14502 4.3203-5.01219 7.5871-4.38046l2.4169.46739c2.0157.38979 4.0987-.16835 5.6495-1.51379z" fill="#abb2bd"/><circle cx="40" cy="40" fill="#fff" r="27.5"/><circle cx="39.9123" cy="39.9128" fill="#abb2bd" r="22.9201"/><path d="m39.5973 52.264c-7.4663 0-11.2982-6.8492-11.4244-7.0174-.0452-.0593-.0695-.132-.0689-.2065v-9.4342c0-.0455.009-.0906.0266-.1326.0175-.042.0432-.0801.0756-.1121s.0708-.0573.113-.0744c.0423-.017.0875-.0256.133-.0251h23.8716c.0455-.0005.0907.0081.1329.0251.0422.0171.0807.0424.113.0744.0324.032.0581.0701.0757.1121.0175.042.0266.0871.0266.1326v9.4342c-.0011.0808.0509-.0628 0 0-.1454.1682-4.2898 7.2239-13.0747 7.2239z" fill="#33343f"/><path d="m27.5864 39.1165 11.3617 5.0316 13.9587-5.6808" stroke="#abb2bd" stroke-width="3.34214"/><path d="m39.0283 43.9538c-.0517 0-.1027-.0118-.1492-.0344l-17.8951-8.176c-.0617-.0261-.1143-.0697-.1514-.1255-.037-.0557-.0567-.1212-.0567-.1881 0-.067.0197-.1324.0567-.1882.0371-.0558.0897-.0994.1514-.1254l19.0583-7.8242c.0875-.0332.1841-.0332.2716 0l18.5226 7.8242c.0626.0262.116.0703.1536.1268s.0576.1228.0576.1906-.02.1341-.0576.1906-.091.1006-.1536.1268l-19.6704 8.176c-.0439.0174-.0906.0264-.1378.0268z" fill="#33343f"/><g fill="#fff"><path d="m50.8165 52.5047h-2.3263c-.0533-.0005-.1058-.0132-.1534-.0371s-.0891-.0585-.1213-.101c-.0321-.0424-.0541-.0918-.0642-.1441s-.008-.1062.006-.1576l1.1479-3.9618c.0208-.072.0646-.1353.1247-.1801.0601-.0449.1332-.0689.2082-.0685.0755-.0007.1492.0232.2099.0681.0607.0448.1052.1082.1268.1805l1.1478 3.9618c.0142.0517.0162.106.0059.1586s-.0326.1021-.0652.1447c-.0326.0425-.0746.077-.1227.1007-.0481.0236-.101.0359-.1547.0358z"/><path d="m50.0019 48.3821h-.6925v-8.7152l-8.8538-4.371.3099-.6157 9.0451 4.4628c.0574.0289.1056.0732.1394.1278.0338.0547.0517.1177.0519.1819z"/></g></g></svg>