<svg height="32" viewBox="0 0 32 32" width="32" xmlns="http://www.w3.org/2000/svg"><path d="m15.966 0c-.191.011-.379.062-.55.151s-.321.214-.44.365c-1.164 1.367-10.828 13.589-10.828 19.667.004 3.133 1.248 6.136 3.464 8.352s5.221 3.463 8.354 3.466c1.557.007 3.098-.292 4.539-.883s2.753-1.459 3.857-2.557 1.979-2.404 2.578-3.841.91-2.979.911-4.536c0-6.132-9.734-18.313-10.831-19.667-.126-.159-.286-.289-.469-.378s-.383-.137-.586-.138zm0 3.56c.01.01.02.026.025.036v25.695c-.01 0-.015 0-.025 0-2.416 0-4.734-.958-6.443-2.667s-2.669-4.027-2.669-6.443c0-3.871 5.85-12.305 9.112-16.609z"/></svg>