<svg height="32" viewBox="0 0 32 32" width="32" xmlns="http://www.w3.org/2000/svg"><path d="m16 0c-3.165 0-6.257.937-8.888 2.695s-4.682 4.259-5.893 7.182c-1.211 2.924-1.529 6.141-.911 9.245s2.143 5.953 4.38 8.19c2.238 2.238 5.089 3.763 8.193 4.38s6.321.299 9.245-.911c2.924-1.211 5.422-3.262 7.18-5.893s2.695-5.724 2.695-8.888c0-4.243-1.684-8.315-4.685-11.315s-7.072-4.685-11.315-4.685zm0 1.333c2.901 0 5.736.86 8.148 2.471s4.294 3.903 5.404 6.583 1.399 5.629.833 8.474-1.962 5.457-4.013 7.508-4.665 3.45-7.51 4.016-5.794.274-8.474-.836-4.972-2.989-6.583-5.401c-1.612-2.412-2.471-5.248-2.471-8.148 0-3.89 1.546-7.622 4.297-10.372s6.48-4.294 10.37-4.294zm-5.333 13.334c-.736 0-1.333.597-1.333 1.333s.597 1.333 1.333 1.333 1.333-.597 1.333-1.333-.597-1.333-1.333-1.333zm5.333 0c-.736 0-1.333.597-1.333 1.333s.597 1.333 1.333 1.333 1.333-.597 1.333-1.333-.597-1.333-1.333-1.333zm5.333 0c-.736 0-1.333.597-1.333 1.333s.597 1.333 1.333 1.333 1.333-.597 1.333-1.333-.597-1.333-1.333-1.333z"/></svg>