<svg width="681" height="692" viewBox="0 0 681 692" fill="none" xmlns="http://www.w3.org/2000/svg">
<path d="M65.5491 26V2.24H83.3691V6.236H70.5171V12.14H80.6331V15.956H70.5171V22.004H83.8731V26H65.5491ZM87.8264 26V8H92.2544L92.4344 11.24C93.0344 10.04 93.8504 9.14 94.8824 8.54C95.9384 7.94 97.1024 7.64 98.3744 7.64C99.6704 7.64 100.834 7.94 101.866 8.54C102.922 9.14 103.714 10.028 104.242 11.204C104.626 10.412 105.142 9.752 105.79 9.224C106.438 8.696 107.158 8.3 107.95 8.036C108.742 7.772 109.546 7.64 110.362 7.64C111.538 7.64 112.606 7.88 113.566 8.36C114.55 8.84 115.33 9.56 115.906 10.52C116.482 11.48 116.77 12.704 116.77 14.192V26H111.838V15.164C111.838 13.844 111.55 12.908 110.974 12.356C110.398 11.804 109.654 11.528 108.742 11.528C108.022 11.528 107.35 11.708 106.726 12.068C106.126 12.428 105.646 12.968 105.286 13.688C104.95 14.384 104.782 15.26 104.782 16.316V26H99.8504V15.164C99.8504 13.844 99.5504 12.908 98.9504 12.356C98.3744 11.804 97.6304 11.528 96.7184 11.528C96.0944 11.528 95.4704 11.696 94.8464 12.032C94.2464 12.368 93.7424 12.896 93.3344 13.616C92.9504 14.336 92.7584 15.284 92.7584 16.46V26H87.8264ZM121.858 33.56V8H126.286L126.61 13.724L125.998 13.076C126.214 12.02 126.61 11.084 127.186 10.268C127.786 9.452 128.542 8.816 129.454 8.36C130.366 7.88 131.386 7.64 132.514 7.64C133.978 7.64 135.286 8.012 136.438 8.756C137.59 9.5 138.49 10.568 139.138 11.96C139.81 13.328 140.146 14.996 140.146 16.964C140.146 18.932 139.81 20.624 139.138 22.04C138.466 23.432 137.542 24.5 136.366 25.244C135.214 25.988 133.894 26.36 132.406 26.36C130.822 26.36 129.502 25.916 128.446 25.028C127.414 24.14 126.706 23.024 126.322 21.68L126.79 20.924V33.56H121.858ZM130.966 22.58C132.286 22.58 133.318 22.112 134.062 21.176C134.83 20.216 135.214 18.824 135.214 17C135.214 15.176 134.842 13.796 134.098 12.86C133.378 11.9 132.358 11.42 131.038 11.42C130.198 11.42 129.454 11.648 128.806 12.104C128.182 12.536 127.69 13.172 127.33 14.012C126.97 14.828 126.79 15.824 126.79 17C126.79 18.152 126.958 19.148 127.294 19.988C127.63 20.828 128.11 21.476 128.734 21.932C129.382 22.364 130.126 22.58 130.966 22.58ZM152.636 7.64C154.46 7.64 156.056 8.012 157.424 8.756C158.816 9.5 159.896 10.568 160.664 11.96C161.456 13.352 161.852 15.032 161.852 17C161.852 18.944 161.456 20.624 160.664 22.04C159.896 23.432 158.816 24.5 157.424 25.244C156.056 25.988 154.46 26.36 152.636 26.36C150.836 26.36 149.24 25.988 147.848 25.244C146.456 24.5 145.364 23.432 144.572 22.04C143.804 20.624 143.42 18.944 143.42 17C143.42 15.032 143.804 13.352 144.572 11.96C145.364 10.568 146.456 9.5 147.848 8.756C149.24 8.012 150.836 7.64 152.636 7.64ZM152.636 11.312C151.724 11.312 150.944 11.528 150.296 11.96C149.672 12.368 149.192 12.992 148.856 13.832C148.52 14.672 148.352 15.728 148.352 17C148.352 18.272 148.52 19.328 148.856 20.168C149.192 21.008 149.672 21.644 150.296 22.076C150.944 22.484 151.724 22.688 152.636 22.688C153.524 22.688 154.28 22.484 154.904 22.076C155.552 21.644 156.044 21.008 156.38 20.168C156.716 19.328 156.884 18.272 156.884 17C156.884 15.728 156.716 14.672 156.38 13.832C156.044 12.992 155.552 12.368 154.904 11.96C154.28 11.528 153.524 11.312 152.636 11.312ZM188.707 8H193.963L188.203 26H182.515L178.591 13.76L174.811 26H169.123L163.363 8H168.619L172.219 21.788L176.215 8H181.111L185.143 21.788L188.707 8ZM204.882 26.36C202.986 26.36 201.33 25.988 199.914 25.244C198.522 24.5 197.442 23.432 196.674 22.04C195.906 20.648 195.522 18.968 195.522 17C195.522 15.032 195.906 13.352 196.674 11.96C197.442 10.568 198.51 9.5 199.878 8.756C201.27 8.012 202.854 7.64 204.63 7.64C206.454 7.64 208.002 8.012 209.274 8.756C210.546 9.476 211.518 10.472 212.19 11.744C212.862 12.992 213.198 14.42 213.198 16.028C213.198 16.508 213.186 16.964 213.162 17.396C213.138 17.828 213.102 18.212 213.054 18.548H198.689V15.128H210.894L208.518 15.992C208.518 14.48 208.17 13.316 207.474 12.5C206.802 11.684 205.842 11.276 204.594 11.276C203.682 11.276 202.89 11.492 202.218 11.924C201.57 12.356 201.078 13.004 200.742 13.868C200.406 14.708 200.238 15.776 200.238 17.072C200.238 18.344 200.418 19.4 200.778 20.24C201.162 21.056 201.69 21.668 202.362 22.076C203.058 22.484 203.886 22.688 204.846 22.688C205.902 22.688 206.754 22.484 207.402 22.076C208.05 21.668 208.554 21.104 208.914 20.384L212.838 21.896C212.454 22.832 211.866 23.636 211.074 24.308C210.306 24.98 209.382 25.496 208.302 25.856C207.246 26.192 206.106 26.36 204.882 26.36ZM217.377 26V8H221.661L221.985 11.528C222.465 10.28 223.161 9.32 224.073 8.648C225.009 7.976 226.173 7.64 227.565 7.64C227.973 7.64 228.345 7.676 228.681 7.748C229.017 7.82 229.293 7.916 229.509 8.036L228.933 12.176C228.693 12.08 228.393 12.008 228.033 11.96C227.697 11.912 227.253 11.888 226.701 11.888C225.981 11.888 225.285 12.068 224.613 12.428C223.941 12.764 223.389 13.292 222.957 14.012C222.525 14.708 222.309 15.596 222.309 16.676V26H217.377ZM261.289 2.24L252.865 17.108V26H247.897V17.108L239.473 2.24H244.765L248.581 9.368L250.381 13.076L252.217 9.368L256.033 2.24H261.289ZM269.003 7.64C270.827 7.64 272.423 8.012 273.791 8.756C275.183 9.5 276.263 10.568 277.031 11.96C277.823 13.352 278.219 15.032 278.219 17C278.219 18.944 277.823 20.624 277.031 22.04C276.263 23.432 275.183 24.5 273.791 25.244C272.423 25.988 270.827 26.36 269.003 26.36C267.203 26.36 265.607 25.988 264.215 25.244C262.823 24.5 261.731 23.432 260.939 22.04C260.171 20.624 259.787 18.944 259.787 17C259.787 15.032 260.171 13.352 260.939 11.96C261.731 10.568 262.823 9.5 264.215 8.756C265.607 8.012 267.203 7.64 269.003 7.64ZM269.003 11.312C268.091 11.312 267.311 11.528 266.663 11.96C266.039 12.368 265.559 12.992 265.223 13.832C264.887 14.672 264.719 15.728 264.719 17C264.719 18.272 264.887 19.328 265.223 20.168C265.559 21.008 266.039 21.644 266.663 22.076C267.311 22.484 268.091 22.688 269.003 22.688C269.891 22.688 270.647 22.484 271.271 22.076C271.919 21.644 272.411 21.008 272.747 20.168C273.083 19.328 273.251 18.272 273.251 17C273.251 15.728 273.083 14.672 272.747 13.832C272.411 12.992 271.919 12.368 271.271 11.96C270.647 11.528 269.891 11.312 269.003 11.312ZM288.61 26.36C287.41 26.36 286.33 26.144 285.37 25.712C284.41 25.28 283.642 24.596 283.066 23.66C282.514 22.7 282.238 21.464 282.238 19.952V8H287.17V18.764C287.17 20.156 287.458 21.128 288.034 21.68C288.61 22.208 289.438 22.472 290.518 22.472C291.022 22.472 291.514 22.388 291.994 22.22C292.474 22.028 292.894 21.74 293.254 21.356C293.638 20.972 293.938 20.48 294.154 19.88C294.37 19.256 294.478 18.524 294.478 17.684V8H299.41V26H295.018L294.838 22.868C294.238 24.068 293.41 24.956 292.354 25.532C291.322 26.084 290.074 26.36 288.61 26.36ZM304.6 26V8H308.884L309.208 11.528C309.688 10.28 310.384 9.32 311.296 8.648C312.232 7.976 313.396 7.64 314.788 7.64C315.196 7.64 315.568 7.676 315.904 7.748C316.24 7.82 316.516 7.916 316.732 8.036L316.156 12.176C315.916 12.08 315.616 12.008 315.256 11.96C314.92 11.912 314.476 11.888 313.924 11.888C313.204 11.888 312.508 12.068 311.836 12.428C311.164 12.764 310.612 13.292 310.18 14.012C309.748 14.708 309.532 15.596 309.532 16.676V26H304.6ZM339.303 1.88C341.463 1.88 343.359 2.252 344.991 2.996C346.623 3.74 348.015 4.844 349.167 6.308L346.395 9.512C345.411 8.264 344.331 7.352 343.155 6.776C342.003 6.176 340.659 5.876 339.123 5.876C338.115 5.876 337.275 6.008 336.603 6.272C335.955 6.536 335.475 6.884 335.163 7.316C334.875 7.748 334.731 8.228 334.731 8.756C334.731 9.404 334.983 9.956 335.487 10.412C335.991 10.844 336.855 11.204 338.079 11.492L342.507 12.5C344.859 13.028 346.539 13.82 347.547 14.876C348.579 15.908 349.095 17.252 349.095 18.908C349.095 20.468 348.687 21.812 347.871 22.94C347.055 24.044 345.915 24.896 344.451 25.496C342.987 26.072 341.307 26.36 339.411 26.36C337.755 26.36 336.231 26.168 334.839 25.784C333.471 25.376 332.247 24.824 331.167 24.128C330.087 23.432 329.187 22.628 328.467 21.716L331.275 18.368C331.827 19.136 332.511 19.82 333.327 20.42C334.143 21.02 335.067 21.5 336.099 21.86C337.155 22.196 338.259 22.364 339.411 22.364C340.395 22.364 341.223 22.256 341.895 22.04C342.591 21.8 343.107 21.476 343.443 21.068C343.803 20.636 343.983 20.12 343.983 19.52C343.983 18.896 343.767 18.368 343.335 17.936C342.927 17.48 342.159 17.132 341.031 16.892L336.207 15.812C334.815 15.476 333.615 15.044 332.607 14.516C331.623 13.964 330.867 13.268 330.339 12.428C329.835 11.564 329.583 10.544 329.583 9.368C329.583 7.952 329.967 6.68 330.735 5.552C331.503 4.424 332.607 3.536 334.047 2.888C335.511 2.216 337.263 1.88 339.303 1.88ZM359.663 2.492V20.132C359.663 20.996 359.879 21.632 360.311 22.04C360.767 22.424 361.379 22.616 362.147 22.616C362.747 22.616 363.275 22.532 363.731 22.364C364.187 22.172 364.595 21.92 364.955 21.608L365.747 24.884C365.171 25.34 364.451 25.7 363.587 25.964C362.723 26.228 361.811 26.36 360.851 26.36C359.651 26.36 358.583 26.18 357.647 25.82C356.735 25.46 356.015 24.884 355.487 24.092C354.983 23.3 354.731 22.244 354.731 20.924V3.86L359.663 2.492ZM365.423 8V11.672H351.419V8H365.423ZM375.024 26.36C373.824 26.36 372.744 26.144 371.784 25.712C370.824 25.28 370.056 24.596 369.48 23.66C368.928 22.7 368.652 21.464 368.652 19.952V8H373.584V18.764C373.584 20.156 373.872 21.128 374.448 21.68C375.024 22.208 375.852 22.472 376.932 22.472C377.436 22.472 377.928 22.388 378.408 22.22C378.888 22.028 379.308 21.74 379.668 21.356C380.052 20.972 380.352 20.48 380.568 19.88C380.784 19.256 380.892 18.524 380.892 17.684V8H385.824V26H381.432L381.252 22.868C380.652 24.068 379.824 24.956 378.768 25.532C377.736 26.084 376.488 26.36 375.024 26.36ZM397.818 26.36C396.33 26.36 394.998 25.988 393.822 25.244C392.67 24.5 391.758 23.432 391.086 22.04C390.438 20.648 390.114 18.98 390.114 17.036C390.114 15.044 390.462 13.352 391.158 11.96C391.854 10.544 392.79 9.476 393.966 8.756C395.166 8.012 396.51 7.64 397.998 7.64C399.582 7.64 400.89 8.096 401.922 9.008C402.954 9.92 403.626 11.096 403.938 12.536L403.47 13.112V0.115999H408.402V26H403.974L403.65 20.528L404.262 20.816C404.094 21.944 403.71 22.928 403.11 23.768C402.51 24.584 401.754 25.22 400.842 25.676C399.93 26.132 398.922 26.36 397.818 26.36ZM399.258 22.58C400.122 22.58 400.866 22.364 401.49 21.932C402.114 21.476 402.594 20.816 402.93 19.952C403.29 19.088 403.47 18.056 403.47 16.856C403.47 15.704 403.302 14.732 402.966 13.94C402.63 13.124 402.15 12.5 401.526 12.068C400.902 11.636 400.17 11.42 399.33 11.42C397.986 11.42 396.93 11.9 396.162 12.86C395.418 13.796 395.046 15.176 395.046 17C395.046 18.824 395.418 20.216 396.162 21.176C396.906 22.112 397.938 22.58 399.258 22.58ZM421.936 26.36C420.04 26.36 418.384 25.988 416.968 25.244C415.576 24.5 414.496 23.432 413.728 22.04C412.96 20.648 412.576 18.968 412.576 17C412.576 15.032 412.96 13.352 413.728 11.96C414.496 10.568 415.564 9.5 416.932 8.756C418.324 8.012 419.908 7.64 421.684 7.64C423.508 7.64 425.056 8.012 426.328 8.756C427.6 9.476 428.572 10.472 429.244 11.744C429.916 12.992 430.252 14.42 430.252 16.028C430.252 16.508 430.24 16.964 430.216 17.396C430.192 17.828 430.156 18.212 430.108 18.548H415.744V15.128H427.948L425.572 15.992C425.572 14.48 425.224 13.316 424.528 12.5C423.856 11.684 422.896 11.276 421.648 11.276C420.736 11.276 419.944 11.492 419.272 11.924C418.624 12.356 418.132 13.004 417.796 13.868C417.46 14.708 417.292 15.776 417.292 17.072C417.292 18.344 417.472 19.4 417.832 20.24C418.216 21.056 418.744 21.668 419.416 22.076C420.112 22.484 420.94 22.688 421.9 22.688C422.956 22.688 423.808 22.484 424.456 22.076C425.104 21.668 425.608 21.104 425.968 20.384L429.892 21.896C429.508 22.832 428.92 23.636 428.128 24.308C427.36 24.98 426.436 25.496 425.356 25.856C424.3 26.192 423.16 26.36 421.936 26.36ZM434.432 26V8H438.86L439.148 13.4L438.536 12.824C438.824 11.648 439.28 10.676 439.904 9.908C440.528 9.14 441.284 8.576 442.172 8.216C443.084 7.832 444.08 7.64 445.16 7.64C446.408 7.64 447.512 7.88 448.472 8.36C449.456 8.84 450.224 9.572 450.776 10.556C451.352 11.516 451.64 12.728 451.64 14.192V26H446.708V15.596C446.708 14.06 446.408 13.004 445.808 12.428C445.208 11.828 444.428 11.528 443.468 11.528C442.796 11.528 442.136 11.696 441.488 12.032C440.864 12.344 440.348 12.86 439.94 13.58C439.556 14.3 439.364 15.26 439.364 16.46V26H434.432ZM462.952 2.492V20.132C462.952 20.996 463.168 21.632 463.6 22.04C464.056 22.424 464.668 22.616 465.436 22.616C466.036 22.616 466.564 22.532 467.02 22.364C467.476 22.172 467.884 21.92 468.244 21.608L469.036 24.884C468.46 25.34 467.74 25.7 466.876 25.964C466.012 26.228 465.1 26.36 464.14 26.36C462.94 26.36 461.872 26.18 460.936 25.82C460.024 25.46 459.304 24.884 458.776 24.092C458.272 23.3 458.02 22.244 458.02 20.924V3.86L462.952 2.492ZM468.712 8V11.672H454.708V8H468.712ZM479.249 26.36C477.425 26.36 475.757 26.036 474.245 25.388C472.757 24.74 471.545 23.828 470.609 22.652L473.453 19.772C474.029 20.636 474.797 21.344 475.757 21.896C476.717 22.448 477.857 22.724 479.177 22.724C480.113 22.724 480.857 22.592 481.409 22.328C481.985 22.04 482.273 21.596 482.273 20.996C482.273 20.612 482.141 20.288 481.877 20.024C481.613 19.736 481.085 19.508 480.293 19.34L477.125 18.692C475.037 18.26 473.549 17.612 472.661 16.748C471.797 15.86 471.365 14.72 471.365 13.328C471.365 12.344 471.653 11.42 472.229 10.556C472.829 9.692 473.717 8.996 474.893 8.468C476.069 7.916 477.533 7.64 479.285 7.64C481.085 7.64 482.645 7.928 483.965 8.504C485.309 9.056 486.365 9.884 487.133 10.988L484.181 13.868C483.653 13.028 482.957 12.392 482.093 11.96C481.253 11.504 480.365 11.276 479.429 11.276C478.757 11.276 478.181 11.348 477.701 11.492C477.221 11.636 476.861 11.84 476.621 12.104C476.381 12.344 476.261 12.656 476.261 13.04C476.261 13.424 476.429 13.76 476.765 14.048C477.101 14.312 477.713 14.54 478.601 14.732L482.273 15.488C484.049 15.848 485.321 16.46 486.089 17.324C486.857 18.164 487.241 19.184 487.241 20.384C487.241 21.536 486.929 22.568 486.305 23.48C485.705 24.368 484.805 25.076 483.605 25.604C482.429 26.108 480.977 26.36 479.249 26.36ZM524.625 8H529.881L524.121 26H518.433L514.509 13.76L510.729 26H505.041L499.281 8H504.537L508.137 21.788L512.133 8H517.029L521.061 21.788L524.625 8ZM535.424 5.408C534.392 5.408 533.624 5.192 533.12 4.76C532.616 4.304 532.364 3.644 532.364 2.78C532.364 1.892 532.616 1.232 533.12 0.799998C533.624 0.343998 534.392 0.115999 535.424 0.115999C536.456 0.115999 537.224 0.343998 537.728 0.799998C538.232 1.232 538.484 1.892 538.484 2.78C538.484 3.644 538.232 4.304 537.728 4.76C537.224 5.192 536.456 5.408 535.424 5.408ZM537.872 8V26H532.94V8H537.872ZM549.472 2.492V20.132C549.472 20.996 549.688 21.632 550.12 22.04C550.576 22.424 551.188 22.616 551.956 22.616C552.556 22.616 553.084 22.532 553.54 22.364C553.996 22.172 554.404 21.92 554.764 21.608L555.556 24.884C554.98 25.34 554.26 25.7 553.396 25.964C552.532 26.228 551.62 26.36 550.66 26.36C549.46 26.36 548.392 26.18 547.456 25.82C546.544 25.46 545.824 24.884 545.296 24.092C544.792 23.3 544.54 22.244 544.54 20.924V3.86L549.472 2.492ZM555.232 8V11.672H541.228V8H555.232ZM558.85 26V0.115999H563.782V11.06C564.358 9.908 565.15 9.056 566.158 8.504C567.166 7.928 568.306 7.64 569.578 7.64C570.826 7.64 571.93 7.88 572.89 8.36C573.874 8.84 574.642 9.572 575.194 10.556C575.77 11.516 576.058 12.728 576.058 14.192V26H571.126V15.632C571.126 14.072 570.826 13.004 570.226 12.428C569.626 11.828 568.858 11.528 567.922 11.528C567.226 11.528 566.554 11.696 565.906 12.032C565.282 12.344 564.766 12.872 564.358 13.616C563.974 14.336 563.782 15.296 563.782 16.496V26H558.85ZM141.984 47.24C143.808 47.24 145.368 47.552 146.664 48.176C147.96 48.776 148.956 49.652 149.652 50.804C150.372 51.932 150.732 53.3 150.732 54.908C150.732 56.516 150.372 57.896 149.652 59.048C148.956 60.176 147.96 61.052 146.664 61.676C145.368 62.276 143.808 62.576 141.984 62.576H136.98V71H132.012V47.24H141.984ZM141.228 58.652C142.716 58.652 143.832 58.34 144.576 57.716C145.32 57.068 145.692 56.132 145.692 54.908C145.692 53.66 145.32 52.724 144.576 52.1C143.832 51.476 142.716 51.164 141.228 51.164H136.98V58.652H141.228ZM162.676 71.36C160.78 71.36 159.124 70.988 157.708 70.244C156.316 69.5 155.236 68.432 154.468 67.04C153.7 65.648 153.316 63.968 153.316 62C153.316 60.032 153.7 58.352 154.468 56.96C155.236 55.568 156.304 54.5 157.672 53.756C159.064 53.012 160.648 52.64 162.424 52.64C164.248 52.64 165.796 53.012 167.068 53.756C168.34 54.476 169.312 55.472 169.984 56.744C170.656 57.992 170.992 59.42 170.992 61.028C170.992 61.508 170.98 61.964 170.956 62.396C170.932 62.828 170.896 63.212 170.848 63.548H156.484V60.128H168.688L166.312 60.992C166.312 59.48 165.964 58.316 165.268 57.5C164.596 56.684 163.636 56.276 162.388 56.276C161.476 56.276 160.684 56.492 160.012 56.924C159.364 57.356 158.872 58.004 158.536 58.868C158.2 59.708 158.032 60.776 158.032 62.072C158.032 63.344 158.212 64.4 158.572 65.24C158.956 66.056 159.484 66.668 160.156 67.076C160.852 67.484 161.68 67.688 162.64 67.688C163.696 67.688 164.548 67.484 165.196 67.076C165.844 66.668 166.348 66.104 166.708 65.384L170.632 66.896C170.248 67.832 169.66 68.636 168.868 69.308C168.1 69.98 167.176 70.496 166.096 70.856C165.04 71.192 163.9 71.36 162.676 71.36ZM175.172 71V53H179.456L179.78 56.528C180.26 55.28 180.956 54.32 181.868 53.648C182.804 52.976 183.968 52.64 185.36 52.64C185.768 52.64 186.14 52.676 186.476 52.748C186.812 52.82 187.088 52.916 187.304 53.036L186.728 57.176C186.488 57.08 186.188 57.008 185.828 56.96C185.492 56.912 185.048 56.888 184.496 56.888C183.776 56.888 183.08 57.068 182.408 57.428C181.736 57.764 181.184 58.292 180.752 59.012C180.32 59.708 180.104 60.596 180.104 61.676V71H175.172ZM197.067 71.36C195.243 71.36 193.575 71.036 192.063 70.388C190.575 69.74 189.363 68.828 188.427 67.652L191.271 64.772C191.847 65.636 192.615 66.344 193.575 66.896C194.535 67.448 195.675 67.724 196.995 67.724C197.931 67.724 198.675 67.592 199.227 67.328C199.803 67.04 200.091 66.596 200.091 65.996C200.091 65.612 199.959 65.288 199.695 65.024C199.431 64.736 198.903 64.508 198.111 64.34L194.943 63.692C192.855 63.26 191.367 62.612 190.479 61.748C189.615 60.86 189.183 59.72 189.183 58.328C189.183 57.344 189.471 56.42 190.047 55.556C190.647 54.692 191.535 53.996 192.711 53.468C193.887 52.916 195.351 52.64 197.103 52.64C198.903 52.64 200.463 52.928 201.783 53.504C203.127 54.056 204.183 54.884 204.951 55.988L201.999 58.868C201.471 58.028 200.775 57.392 199.911 56.96C199.071 56.504 198.183 56.276 197.247 56.276C196.575 56.276 195.999 56.348 195.519 56.492C195.039 56.636 194.679 56.84 194.439 57.104C194.199 57.344 194.079 57.656 194.079 58.04C194.079 58.424 194.247 58.76 194.583 59.048C194.919 59.312 195.531 59.54 196.419 59.732L200.091 60.488C201.867 60.848 203.139 61.46 203.907 62.324C204.675 63.164 205.059 64.184 205.059 65.384C205.059 66.536 204.747 67.568 204.123 68.48C203.523 69.368 202.623 70.076 201.423 70.604C200.247 71.108 198.795 71.36 197.067 71.36ZM217.13 52.64C218.954 52.64 220.55 53.012 221.918 53.756C223.31 54.5 224.39 55.568 225.158 56.96C225.95 58.352 226.346 60.032 226.346 62C226.346 63.944 225.95 65.624 225.158 67.04C224.39 68.432 223.31 69.5 221.918 70.244C220.55 70.988 218.954 71.36 217.13 71.36C215.33 71.36 213.734 70.988 212.342 70.244C210.95 69.5 209.858 68.432 209.066 67.04C208.298 65.624 207.914 63.944 207.914 62C207.914 60.032 208.298 58.352 209.066 56.96C209.858 55.568 210.95 54.5 212.342 53.756C213.734 53.012 215.33 52.64 217.13 52.64ZM217.13 56.312C216.218 56.312 215.438 56.528 214.79 56.96C214.166 57.368 213.686 57.992 213.35 58.832C213.014 59.672 212.846 60.728 212.846 62C212.846 63.272 213.014 64.328 213.35 65.168C213.686 66.008 214.166 66.644 214.79 67.076C215.438 67.484 216.218 67.688 217.13 67.688C218.018 67.688 218.774 67.484 219.398 67.076C220.046 66.644 220.538 66.008 220.874 65.168C221.21 64.328 221.378 63.272 221.378 62C221.378 60.728 221.21 59.672 220.874 58.832C220.538 57.992 220.046 57.368 219.398 56.96C218.774 56.528 218.018 56.312 217.13 56.312ZM230.473 71V53H234.901L235.189 58.4L234.577 57.824C234.865 56.648 235.321 55.676 235.945 54.908C236.569 54.14 237.325 53.576 238.213 53.216C239.125 52.832 240.121 52.64 241.201 52.64C242.449 52.64 243.553 52.88 244.513 53.36C245.497 53.84 246.265 54.572 246.817 55.556C247.393 56.516 247.681 57.728 247.681 59.192V71H242.749V60.596C242.749 59.06 242.449 58.004 241.849 57.428C241.249 56.828 240.469 56.528 239.509 56.528C238.837 56.528 238.177 56.696 237.529 57.032C236.905 57.344 236.389 57.86 235.981 58.58C235.597 59.3 235.405 60.26 235.405 61.46V71H230.473ZM263.022 59.516C263.022 58.484 262.722 57.68 262.122 57.104C261.546 56.528 260.778 56.24 259.818 56.24C258.93 56.24 258.15 56.468 257.478 56.924C256.806 57.38 256.314 58.136 256.002 59.192L251.79 57.896C252.198 56.312 253.086 55.04 254.454 54.08C255.846 53.12 257.706 52.64 260.034 52.64C261.618 52.64 262.998 52.892 264.174 53.396C265.35 53.876 266.262 54.608 266.91 55.592C267.582 56.576 267.918 57.812 267.918 59.3V66.608C267.918 67.52 268.35 67.976 269.214 67.976C269.622 67.976 270.006 67.916 270.366 67.796L270.078 70.856C269.454 71.168 268.674 71.324 267.738 71.324C266.898 71.324 266.142 71.18 265.47 70.892C264.798 70.604 264.27 70.172 263.886 69.596C263.502 68.996 263.31 68.252 263.31 67.364V67.22L264.174 67.076C264.03 67.988 263.634 68.768 262.986 69.416C262.338 70.04 261.546 70.52 260.61 70.856C259.698 71.192 258.75 71.36 257.766 71.36C256.542 71.36 255.486 71.18 254.598 70.82C253.71 70.436 253.026 69.884 252.546 69.164C252.066 68.444 251.826 67.556 251.826 66.5C251.826 65.156 252.258 64.064 253.122 63.224C253.986 62.36 255.222 61.772 256.83 61.46L263.598 60.092L263.562 63.152L259.242 64.016C258.426 64.184 257.802 64.412 257.37 64.7C256.962 64.964 256.758 65.408 256.758 66.032C256.758 66.632 256.974 67.088 257.406 67.4C257.862 67.712 258.402 67.868 259.026 67.868C259.53 67.868 260.022 67.808 260.502 67.688C260.982 67.568 261.414 67.376 261.798 67.112C262.182 66.848 262.482 66.488 262.698 66.032C262.914 65.576 263.022 65.024 263.022 64.376V59.516ZM278.294 45.116V65.456C278.294 66.296 278.438 66.884 278.726 67.22C279.014 67.556 279.494 67.724 280.166 67.724C280.574 67.724 280.91 67.7 281.174 67.652C281.438 67.58 281.774 67.484 282.182 67.364L281.75 70.604C281.342 70.844 280.826 71.024 280.202 71.144C279.602 71.288 279.002 71.36 278.402 71.36C276.65 71.36 275.366 70.94 274.55 70.1C273.758 69.236 273.362 67.868 273.362 65.996V45.116H278.294ZM287.414 50.408C286.382 50.408 285.614 50.192 285.11 49.76C284.606 49.304 284.354 48.644 284.354 47.78C284.354 46.892 284.606 46.232 285.11 45.8C285.614 45.344 286.382 45.116 287.414 45.116C288.446 45.116 289.214 45.344 289.718 45.8C290.222 46.232 290.474 46.892 290.474 47.78C290.474 48.644 290.222 49.304 289.718 49.76C289.214 50.192 288.446 50.408 287.414 50.408ZM289.862 53V71H284.93V53H289.862ZM294.046 71V67.832L302.038 58.616L304.09 56.564L301.102 56.636H294.118V53H309.562V56.168L301.606 65.348L299.554 67.436L302.83 67.364H309.85V71H294.046ZM322.11 71.36C320.214 71.36 318.558 70.988 317.142 70.244C315.75 69.5 314.67 68.432 313.902 67.04C313.134 65.648 312.75 63.968 312.75 62C312.75 60.032 313.134 58.352 313.902 56.96C314.67 55.568 315.738 54.5 317.106 53.756C318.498 53.012 320.082 52.64 321.858 52.64C323.682 52.64 325.23 53.012 326.502 53.756C327.774 54.476 328.746 55.472 329.418 56.744C330.09 57.992 330.426 59.42 330.426 61.028C330.426 61.508 330.414 61.964 330.39 62.396C330.366 62.828 330.33 63.212 330.282 63.548H315.918V60.128H328.122L325.746 60.992C325.746 59.48 325.398 58.316 324.702 57.5C324.03 56.684 323.07 56.276 321.822 56.276C320.91 56.276 320.118 56.492 319.446 56.924C318.798 57.356 318.306 58.004 317.97 58.868C317.634 59.708 317.466 60.776 317.466 62.072C317.466 63.344 317.646 64.4 318.006 65.24C318.39 66.056 318.918 66.668 319.59 67.076C320.286 67.484 321.114 67.688 322.074 67.688C323.13 67.688 323.982 67.484 324.63 67.076C325.278 66.668 325.782 66.104 326.142 65.384L330.066 66.896C329.682 67.832 329.094 68.636 328.302 69.308C327.534 69.98 326.61 70.496 325.53 70.856C324.474 71.192 323.334 71.36 322.11 71.36ZM341.41 71.36C339.922 71.36 338.59 70.988 337.414 70.244C336.262 69.5 335.35 68.432 334.678 67.04C334.03 65.648 333.706 63.98 333.706 62.036C333.706 60.044 334.054 58.352 334.75 56.96C335.446 55.544 336.382 54.476 337.558 53.756C338.758 53.012 340.102 52.64 341.59 52.64C343.174 52.64 344.482 53.096 345.514 54.008C346.546 54.92 347.218 56.096 347.53 57.536L347.062 58.112V45.116H351.994V71H347.566L347.242 65.528L347.854 65.816C347.686 66.944 347.302 67.928 346.702 68.768C346.102 69.584 345.346 70.22 344.434 70.676C343.522 71.132 342.514 71.36 341.41 71.36ZM342.85 67.58C343.714 67.58 344.458 67.364 345.082 66.932C345.706 66.476 346.186 65.816 346.522 64.952C346.882 64.088 347.062 63.056 347.062 61.856C347.062 60.704 346.894 59.732 346.558 58.94C346.222 58.124 345.742 57.5 345.118 57.068C344.494 56.636 343.762 56.42 342.922 56.42C341.578 56.42 340.522 56.9 339.754 57.86C339.01 58.796 338.638 60.176 338.638 62C338.638 63.824 339.01 65.216 339.754 66.176C340.498 67.112 341.53 67.58 342.85 67.58ZM386.738 47.24V51.236H378.782V71H373.814V51.236H365.822V47.24H386.738ZM394.272 71.36C393.072 71.36 391.992 71.144 391.032 70.712C390.072 70.28 389.304 69.596 388.728 68.66C388.176 67.7 387.9 66.464 387.9 64.952V53H392.832V63.764C392.832 65.156 393.12 66.128 393.696 66.68C394.272 67.208 395.1 67.472 396.18 67.472C396.684 67.472 397.176 67.388 397.656 67.22C398.136 67.028 398.556 66.74 398.916 66.356C399.3 65.972 399.6 65.48 399.816 64.88C400.032 64.256 400.14 63.524 400.14 62.684V53H405.072V71H400.68L400.5 67.868C399.9 69.068 399.072 69.956 398.016 70.532C396.984 71.084 395.736 71.36 394.272 71.36ZM416.634 47.492V65.132C416.634 65.996 416.85 66.632 417.282 67.04C417.738 67.424 418.35 67.616 419.118 67.616C419.718 67.616 420.246 67.532 420.702 67.364C421.158 67.172 421.566 66.92 421.926 66.608L422.718 69.884C422.142 70.34 421.422 70.7 420.558 70.964C419.694 71.228 418.782 71.36 417.822 71.36C416.622 71.36 415.554 71.18 414.618 70.82C413.706 70.46 412.986 69.884 412.458 69.092C411.954 68.3 411.702 67.244 411.702 65.924V48.86L416.634 47.492ZM422.394 53V56.672H408.39V53H422.394ZM433.939 52.64C435.763 52.64 437.359 53.012 438.727 53.756C440.119 54.5 441.199 55.568 441.967 56.96C442.759 58.352 443.155 60.032 443.155 62C443.155 63.944 442.759 65.624 441.967 67.04C441.199 68.432 440.119 69.5 438.727 70.244C437.359 70.988 435.763 71.36 433.939 71.36C432.139 71.36 430.543 70.988 429.151 70.244C427.759 69.5 426.667 68.432 425.875 67.04C425.107 65.624 424.723 63.944 424.723 62C424.723 60.032 425.107 58.352 425.875 56.96C426.667 55.568 427.759 54.5 429.151 53.756C430.543 53.012 432.139 52.64 433.939 52.64ZM433.939 56.312C433.027 56.312 432.247 56.528 431.599 56.96C430.975 57.368 430.495 57.992 430.159 58.832C429.823 59.672 429.655 60.728 429.655 62C429.655 63.272 429.823 64.328 430.159 65.168C430.495 66.008 430.975 66.644 431.599 67.076C432.247 67.484 433.027 67.688 433.939 67.688C434.827 67.688 435.583 67.484 436.207 67.076C436.855 66.644 437.347 66.008 437.683 65.168C438.019 64.328 438.187 63.272 438.187 62C438.187 60.728 438.019 59.672 437.683 58.832C437.347 57.992 436.855 57.368 436.207 56.96C435.583 56.528 434.827 56.312 433.939 56.312ZM447.281 71V53H451.565L451.889 56.528C452.369 55.28 453.065 54.32 453.977 53.648C454.913 52.976 456.077 52.64 457.469 52.64C457.877 52.64 458.249 52.676 458.585 52.748C458.921 52.82 459.197 52.916 459.413 53.036L458.837 57.176C458.597 57.08 458.297 57.008 457.937 56.96C457.601 56.912 457.157 56.888 456.605 56.888C455.885 56.888 455.189 57.068 454.517 57.428C453.845 57.764 453.293 58.292 452.861 59.012C452.429 59.708 452.213 60.596 452.213 61.676V71H447.281ZM464.953 50.408C463.921 50.408 463.153 50.192 462.649 49.76C462.145 49.304 461.893 48.644 461.893 47.78C461.893 46.892 462.145 46.232 462.649 45.8C463.153 45.344 463.921 45.116 464.953 45.116C465.985 45.116 466.753 45.344 467.257 45.8C467.761 46.232 468.013 46.892 468.013 47.78C468.013 48.644 467.761 49.304 467.257 49.76C466.753 50.192 465.985 50.408 464.953 50.408ZM467.401 53V71H462.469V53H467.401ZM472.629 71V53H477.057L477.345 58.4L476.733 57.824C477.021 56.648 477.477 55.676 478.101 54.908C478.725 54.14 479.481 53.576 480.369 53.216C481.281 52.832 482.277 52.64 483.357 52.64C484.605 52.64 485.709 52.88 486.669 53.36C487.653 53.84 488.421 54.572 488.973 55.556C489.549 56.516 489.837 57.728 489.837 59.192V71H484.905V60.596C484.905 59.06 484.605 58.004 484.005 57.428C483.405 56.828 482.625 56.528 481.665 56.528C480.993 56.528 480.333 56.696 479.685 57.032C479.061 57.344 478.545 57.86 478.137 58.58C477.753 59.3 477.561 60.26 477.561 61.46V71H472.629ZM511.514 48.716L512.09 52.244C511.994 52.244 511.886 52.244 511.766 52.244C511.67 52.22 511.562 52.208 511.442 52.208C510.338 52.208 509.51 52.46 508.958 52.964C508.406 53.444 508.13 54.116 508.13 54.98L506.114 54.152C506.114 53.192 506.306 52.304 506.69 51.488C507.074 50.648 507.638 49.976 508.382 49.472C509.15 48.968 510.062 48.716 511.118 48.716C511.166 48.716 511.226 48.716 511.298 48.716C511.37 48.716 511.442 48.716 511.514 48.716ZM505.61 67.616C507.554 67.616 509.054 68.036 510.11 68.876C511.166 69.716 511.694 70.892 511.694 72.404C511.694 73.772 511.298 74.924 510.506 75.86C509.714 76.82 508.598 77.54 507.158 78.02C505.742 78.5 504.098 78.74 502.226 78.74C499.13 78.74 496.862 78.308 495.422 77.444C494.006 76.58 493.298 75.452 493.298 74.06C493.298 73.076 493.67 72.248 494.414 71.576C495.182 70.904 496.442 70.532 498.194 70.46L498.014 71.036C496.766 70.82 495.806 70.412 495.134 69.812C494.486 69.188 494.162 68.336 494.162 67.256C494.162 66.152 494.582 65.252 495.422 64.556C496.286 63.836 497.45 63.416 498.914 63.296L501.074 64.304H500.57C499.538 64.376 498.806 64.592 498.374 64.952C497.966 65.288 497.762 65.672 497.762 66.104C497.762 66.608 497.954 66.992 498.338 67.256C498.746 67.496 499.322 67.616 500.066 67.616H505.61ZM502.262 75.356C503.51 75.356 504.53 75.248 505.322 75.032C506.138 74.816 506.738 74.54 507.122 74.204C507.53 73.868 507.734 73.496 507.734 73.088C507.734 72.632 507.554 72.26 507.194 71.972C506.834 71.708 506.186 71.576 505.25 71.576H499.166C498.59 71.576 498.11 71.72 497.726 72.008C497.366 72.296 497.186 72.692 497.186 73.196C497.186 73.868 497.63 74.396 498.518 74.78C499.43 75.164 500.678 75.356 502.262 75.356ZM502.298 52.64C503.978 52.64 505.43 52.892 506.654 53.396C507.902 53.876 508.85 54.572 509.498 55.484C510.17 56.396 510.506 57.488 510.506 58.76C510.506 60.008 510.17 61.088 509.498 62C508.85 62.912 507.902 63.62 506.654 64.124C505.43 64.604 503.978 64.844 502.298 64.844C499.634 64.844 497.594 64.304 496.178 63.224C494.786 62.12 494.09 60.632 494.09 58.76C494.09 57.488 494.414 56.396 495.062 55.484C495.734 54.572 496.682 53.876 497.906 53.396C499.13 52.892 500.594 52.64 502.298 52.64ZM502.298 55.736C501.338 55.736 500.546 56 499.922 56.528C499.298 57.056 498.986 57.788 498.986 58.724C498.986 59.66 499.298 60.404 499.922 60.956C500.546 61.484 501.338 61.748 502.298 61.748C503.258 61.748 504.038 61.484 504.638 60.956C505.262 60.404 505.574 59.66 505.574 58.724C505.574 57.788 505.262 57.056 504.638 56.528C504.038 56 503.258 55.736 502.298 55.736Z" fill="#343440"/>
<ellipse cx="340.783" cy="343.718" rx="280.112" ry="220.05" fill="url(#paint0_radial_5475_2968)"/>
<path d="M197.324 425.74C212.496 426.027 241.174 425.86 253.616 425.74C257.63 428.365 265.476 436.623 264.754 448.652C264.031 460.68 264.453 487.792 264.754 499.844" stroke="url(#paint1_linear_5475_2968)" stroke-width="8"/>
<path d="M183.31 481.396C181.143 457.621 180.905 410.151 197.288 410.468C213.672 410.785 244.641 410.6 258.077 410.468C262.411 413.374 270.885 422.514 270.104 435.828C269.324 449.142 269.779 479.15 270.104 492.49" stroke="url(#paint2_linear_5475_2968)" stroke-width="8"/>
<path d="M281.554 418.089C281.554 429.484 261.71 441.014 229.455 441.014C197.199 441.014 164.746 429.484 164.746 418.089C164.746 406.694 190.894 397.457 223.15 397.457C255.405 397.457 281.554 406.694 281.554 418.089Z" fill="#DAA75A"/>
<ellipse cx="219.584" cy="414.71" rx="58.4038" ry="20.6473" fill="#DFBB85"/>
<path d="M319.137 376.506C319.137 356.835 320.452 352.073 332.942 342.268L399.784 310.482C398.964 316.08 402.93 329.794 401.75 342.268C400.57 354.742 375.306 360.649 361.211 366.047L354.637 380.428L357.99 441.223H323.081C321.606 424.63 319.137 396.177 319.137 376.506Z" fill="url(#paint3_linear_5475_2968)"/>
<path d="M281.43 363.715C281.43 344.596 294.544 332.606 304.047 331.052L363.028 313.564C362.209 319.005 360.275 332.917 359.096 345.041C357.916 357.166 329.441 361.074 315.351 366.321L312.763 376.741V441.221H287.305C285.83 425.094 281.43 382.835 281.43 363.715Z" fill="url(#paint4_linear_5475_2968)"/>
<path d="M376.919 344.085C404.418 344.085 405.509 308.161 395.906 285.953H300.316V330.369C311.665 334.505 340.775 344.085 376.919 344.085Z" fill="#FBCDCD"/>
<path d="M340.254 249.295C340.254 230.62 356.639 216.181 375.165 218.531L390.13 220.429C405.78 222.413 417.512 235.727 417.512 251.502C417.512 270.887 400.081 285.618 380.967 282.386L366.094 279.871C351.174 277.348 340.254 264.426 340.254 249.295Z" fill="#DAA75A"/>
<path d="M336.324 249.295C336.324 230.62 352.709 216.181 371.236 218.531L386.2 220.429C401.85 222.413 413.582 235.727 413.582 251.502C413.582 270.887 396.151 285.618 377.038 282.386L362.164 279.871C347.245 277.348 336.324 264.426 336.324 249.295Z" fill="#DFBB85"/>
<path d="M251.865 321.223L249.938 307.887L392.631 314.911L391.692 326.618C387.562 335.608 374.325 338.793 368.223 339.261C341.186 340.759 279.715 328.091 251.865 321.223Z" fill="#DAA75A"/>
<path d="M259.797 297.116L289.837 280.727L387.939 305.077C391.068 307.418 395.743 312.232 389.359 321.223C382.975 330.214 363.17 330.367 352.694 330.367C322.81 325.373 260.266 315.472 252.756 312.101C245.246 308.729 254.32 300.706 259.797 297.116Z" fill="#DFBB85"/>
<path d="M362.854 168.205C356.749 147.066 332.781 154.363 335.34 162.604C334.99 158.594 345.354 156.175 347.523 192.367C349.208 220.488 366.106 244.164 381.018 238.924C368.111 234.443 370.486 194.629 362.854 168.205Z" fill="#382831"/>
<path d="M329.945 192.254C326.478 170.528 323.343 146.02 320.759 160.97C320.904 156.947 312.266 155.517 311.157 191.689C310.182 223.486 317.779 244.829 333.343 244.227C325.675 240.811 334.28 219.41 329.945 192.254Z" fill="#24161E"/>
<path d="M325.196 219.983C330.666 214.307 330.623 208.058 328.935 204.322L352.843 191.371C349.703 214.129 361.825 216.338 365.135 218.676L349.058 235.607C339.481 233.644 319.727 225.658 325.196 219.983Z" fill="#FFBC96"/>
<path d="M376.187 251.988C375.72 254.63 374.956 260.522 375.635 262.954" stroke="#F49E9E"/>
<path d="M303.829 274.705L311.682 241.743L289.508 269.345L303.829 274.705Z" fill="#F49E9E"/>
<ellipse cx="4.33998" cy="7.03626" rx="4.33998" ry="7.03626" transform="matrix(0.991897 0.127047 -0.127642 0.99182 350.574 176.512)" fill="#FFBC96"/>
<path d="M358.822 175.89C353.735 193.236 348.922 202.38 332.731 208.366C321.114 208.417 312.826 194.062 315.117 174.381C317.409 154.7 330.096 156.237 344.454 154.908C351.397 158.041 357.199 158.441 358.822 175.89Z" fill="#FFBC96"/>
<path d="M323 188.034L322.164 193.957C322.28 194.35 323.278 195.578 325.279 194.987" stroke="black" stroke-linecap="round"/>
<path d="M347.54 196.545C341.02 204.832 332.675 208.022 329.365 207.875C330.69 214.812 326.159 217.842 325.841 219.33L329.371 218.176C332.517 217.147 335.337 215.309 337.546 212.846C338.39 211.905 339.137 210.882 339.776 209.792L347.54 196.545Z" fill="#F4A176"/>
<path d="M332.601 173.021C327.379 171.211 326.369 170.1 324.399 166.586C327.71 150.401 344.157 147.847 351.979 154.487C354.759 156.081 357.816 159.16 359.496 161.631C362.879 166.609 360.533 182.005 358.068 180.203C353.475 176.844 351.663 182.566 350.337 187.071C350.761 183.34 350.767 180.336 348.731 179.371C348.731 179.371 341.32 176.043 332.601 173.021Z" fill="#382831"/>
<path d="M330.297 180.956C331.087 180.148 334.208 178.855 335.827 181.664" stroke="#5B4444" stroke-linecap="round"/>
<path d="M315.954 183.082C316.984 181.919 318.853 181.791 320.04 183.088" stroke="#5B4444" stroke-linecap="round"/>
<path d="M323.23 199.566C324.69 200.704 329.671 200.467 331.992 197.673" stroke="#292828" stroke-linecap="round"/>
<path d="M353.446 180.145C350.062 181.1 346.583 176.825 341.285 176.164C342.941 177.485 346.193 177.963 348.316 180.772C349.145 184.267 350.192 186.865 350.113 188.165L351.731 182.293L353.446 180.145Z" fill="#24161E"/>
<ellipse cx="1.27705" cy="1.72498" rx="1.27705" ry="1.72498" transform="matrix(0.985249 -0.17113 0.171922 0.985111 316.688 185.801)" fill="#343440"/>
<ellipse cx="1.35742" cy="1.80585" rx="1.35742" ry="1.80585" transform="matrix(0.985094 -0.172019 0.172815 0.984954 329.781 184.525)" fill="#343440"/>
<path d="M315.792 163.283C316.04 168.424 312.391 183.293 314.799 179.138C316.785 169.559 322.083 169.559 324.07 166.255C326.718 154.364 337.766 151.668 336.651 151.722C335.536 151.775 320.758 151.026 315.792 163.283Z" fill="#291D1D"/>
<path d="M300.562 294.418C300.562 289.192 264.962 290.525 281.33 267.011C300.174 239.939 301.454 230.426 317.993 220.636C327.814 216.717 327.157 217.37 327.157 217.37C327.157 217.37 324.258 222.954 334.664 225.774C344.607 228.465 354.361 223.322 362.226 215.258L370.367 216.063C381.497 218.676 382.152 222.595 384.771 223.901C393.896 230.423 399.668 245.404 403.095 250.028C409.795 264.032 412.126 262.909 410.305 288.565L406.377 300.322C393.618 316.508 349.565 299.042 349.565 299.042" fill="#849CCB"/>
<path d="M305.196 283.847V276.581L292.945 271.956L302.547 269.974C307.403 268.213 306.852 270.305 313.805 258.083C316.812 252.797 317.739 250.015 317.951 249.246C318.006 248.952 318.034 248.942 317.951 249.246C317.884 249.599 317.778 250.36 317.778 251.477C313.805 283.847 317.116 275.656 305.196 283.847Z" fill="#667BA2"/>
<path d="M323.117 219.503C323.887 223.248 325.029 225.246 328.47 227.821C331.894 230.382 336.982 231.087 342.219 230.433C355.969 227.821 360.311 222.183 365.789 216.717" stroke="#667BA3" stroke-linecap="round"/>
<path d="M386.739 278.768C378.359 277.2 362.296 280.292 355.312 282.034C357.058 278.768 367.067 275.233 371.681 274.849C379.281 274.217 373.81 250.153 372.457 239.32C372.408 238.959 372.368 238.609 372.335 238.271C372.371 238.605 372.412 238.955 372.457 239.32C373.998 250.671 383.567 272.86 386.739 278.768Z" fill="#667BA3"/>
<path d="M302.359 272.921C301.308 269.692 303.713 266.381 307.11 266.381L320.218 266.381C322.403 266.381 324.336 267.798 324.993 269.88L331.432 290.284C332.471 293.578 329.937 296.904 326.485 296.778L313.423 296.301C311.323 296.225 309.494 294.845 308.844 292.848L302.359 272.921Z" fill="#343440"/>
<path d="M318.273 279.884C318.273 280.901 318.014 281.779 317.564 282.39C317.124 282.986 316.49 283.347 315.651 283.347C314.786 283.347 313.862 282.962 313.151 282.317C312.444 281.673 311.988 280.809 311.988 279.884C311.988 278.867 312.247 277.988 312.697 277.378C313.137 276.782 313.771 276.42 314.61 276.42C315.475 276.42 316.399 276.806 317.109 277.451C317.817 278.094 318.273 278.958 318.273 279.884Z" stroke="#16D2AA"/>
<path d="M313.474 279.037C313.474 279.494 313.455 279.944 313.589 280.366C313.713 280.757 313.909 281.238 314.229 281.203C314.391 281.186 314.498 280.99 314.583 280.788C314.726 280.452 314.772 280.037 314.783 279.641C314.79 279.382 314.794 279.124 314.794 278.864C314.794 278.766 314.807 278.65 314.779 278.562" stroke="#16D2AA" stroke-linecap="round"/>
<path d="M315.561 281.205C315.561 280.897 315.564 280.588 315.534 280.281C315.508 280.027 315.466 279.782 315.466 279.527C315.466 279.301 315.426 279.033 315.567 278.826C315.663 278.687 315.894 278.612 316.081 278.58C316.338 278.536 316.603 278.566 316.7 278.777C316.784 278.96 316.816 279.187 316.75 279.377C316.644 279.682 316.284 279.838 315.901 279.883" stroke="#16D2AA" stroke-linecap="round"/>
<path d="M301.196 296.403C298.419 296.403 298.188 288.101 298.419 283.951C300.502 282.394 307.443 283.951 310.22 287.064C312.441 289.554 311.145 293.29 310.22 294.847C308.369 295.366 303.972 296.403 301.196 296.403Z" fill="#FFBC96"/>
<path d="M341.377 284.646L352.833 286.999C356.607 287.774 356.202 294.641 355.528 297.977H346.094C342.724 298.761 334.908 299.859 330.596 297.977C325.205 295.625 325.879 289.351 325.879 286.999C325.879 285.117 336.211 284.646 341.377 284.646Z" fill="#FFBC96"/>
<path d="M355.634 282.033L349.129 283.213C351.021 287.461 349.917 295.602 349.129 299.142L354.451 300.322C356.344 298.434 356.028 287.343 355.634 282.033Z" fill="#849CCB" stroke="#667BA3" stroke-linejoin="round"/>
<path d="M350.312 285.572L355.635 284.393" stroke="#667BA3"/>
<path d="M350.312 288.524L355.635 287.934" stroke="#667BA3"/>
<path d="M350.312 291.473H355.635" stroke="#667BA3"/>
<path d="M350.312 294.422L355.635 295.012" stroke="#667BA3"/>
<path d="M349.719 297.373L355.041 298.553" stroke="#667BA3"/>
<path d="M380.477 480.466C380.477 457.606 402.043 437.719 415.64 435.861L490.186 412.164C489.014 418.669 494.687 434.606 492.999 449.103C491.311 463.599 461.118 474.193 440.957 480.466L433.925 491.617L430.258 557.35L385.455 562.635C383.345 543.353 380.477 503.326 380.477 480.466Z" fill="url(#paint5_linear_5475_2968)"/>
<path d="M142.469 431.311C142.469 410.857 156.594 398.029 166.83 396.367L230.358 377.658C229.476 383.479 227.393 398.362 226.123 411.333C224.852 424.304 194.182 428.486 179.006 434.098L176.218 445.247V525.301L149.46 510.786C147.872 493.533 142.469 451.765 142.469 431.311Z" fill="url(#paint6_linear_5475_2968)"/>
<path d="M182.965 445.04C182.965 423.953 184.375 418.848 197.763 408.337L269.405 374.264C268.527 380.264 272.777 394.965 271.513 408.337C270.248 421.709 243.169 428.042 228.062 433.828L221.016 449.244L213.778 541.705L179.324 527.161C179.324 519.559 182.965 466.127 182.965 445.04Z" fill="url(#paint7_linear_5475_2968)"/>
<path d="M244.954 410.248C274.412 410.248 275.58 371.764 265.294 347.975H162.895V395.554C175.052 399.986 206.235 410.248 244.954 410.248Z" fill="#FBCDCD"/>
<path d="M205.68 308.706C205.68 288.701 223.232 273.234 243.078 275.751L259.109 277.783C275.873 279.91 288.441 294.171 288.441 311.07C288.441 331.836 269.769 347.616 249.293 344.154L233.36 341.46C217.378 338.758 205.68 324.915 205.68 308.706Z" fill="#DAA75A"/>
<path d="M201.473 308.706C201.473 288.701 219.025 273.234 238.871 275.751L254.902 277.783C271.666 279.91 284.234 294.171 284.234 311.07C284.234 331.836 265.562 347.616 245.086 344.154L229.153 341.46C213.171 338.758 201.473 324.915 201.473 308.706Z" fill="#DFBB85"/>
<path d="M110.994 385.757L108.93 371.471L261.788 378.995L260.782 391.536C256.357 401.167 242.178 404.578 235.641 405.08C206.679 406.685 140.828 393.115 110.994 385.757Z" fill="#DAA75A"/>
<path d="M119.49 359.934L151.67 342.377L256.76 368.462C260.112 370.97 265.12 376.127 258.281 385.758C251.443 395.39 230.227 395.554 219.005 395.554C186.992 390.203 119.992 379.598 111.947 375.986C103.902 372.374 113.623 363.78 119.49 359.934Z" fill="#DFBB85"/>
<path d="M242.807 214.467C236.267 191.822 210.592 199.638 213.333 208.467C212.959 204.171 224.06 201.579 226.384 240.349C228.189 270.474 234.538 295.613 250.512 290C236.686 285.199 250.983 242.773 242.807 214.467Z" fill="#3E2D37"/>
<path d="M213.067 209.47C212.962 210.093 212.89 210.79 212.852 211.565C212.786 210.806 212.868 210.026 213.067 209.47C215.155 197.045 230.099 214.23 236.327 235.794C244.503 264.1 238.165 287.978 246.767 290.608C230.298 293.282 223.549 274.854 220.409 240.921C217.468 209.14 213.994 206.879 213.067 209.47Z" fill="#24161E"/>
<path d="M189.547 277.306C195.407 271.226 195.361 264.532 193.552 260.53L219.163 246.656C215.799 271.035 228.785 273.402 232.331 275.907L215.109 294.043C204.849 291.94 183.688 283.386 189.547 277.306Z" fill="#F8A474"/>
<path d="M244.172 311.591C243.672 314.421 242.854 320.733 243.581 323.339" stroke="#F49E9E"/>
<path d="M166.66 335.925L175.072 300.615L151.319 330.183L166.66 335.925Z" fill="#F49E9E"/>
<path d="M183.06 226.622C183.328 232.162 179.398 237.47 177.84 237.545C176.283 237.62 173.715 233.402 173.446 227.862C173.178 222.322 175.311 217.558 176.869 217.483C178.427 217.408 182.792 221.082 183.06 226.622Z" fill="#291D1D"/>
<path d="M175.95 246.966C180.004 239.368 175.822 237.433 173.994 229.894L181.177 219.291C183.755 231.05 178.766 242.641 175.95 246.966Z" fill="#291D1D"/>
<ellipse cx="4.64914" cy="7.53749" rx="4.64914" ry="7.53749" transform="matrix(0.991897 0.127047 -0.127642 0.99182 216.734 230.738)" fill="#F8A474"/>
<path d="M225.568 230.071C220.119 248.653 214.963 258.448 197.619 264.861C185.174 264.915 176.295 249.538 178.75 228.455C181.205 207.372 194.796 209.018 210.177 207.594C217.614 210.951 223.83 211.379 225.568 230.071Z" fill="#F8A474"/>
<path d="M187.198 243.082L186.302 249.427C186.427 249.847 187.495 251.163 189.638 250.529" stroke="black" stroke-linecap="round"/>
<path d="M214.195 252.197C207.211 261.074 198.051 264.631 194.506 264.474C196.666 270.554 191.292 275.011 190.951 276.605L194.787 275.35C198.122 274.26 201.109 272.312 203.451 269.702L203.504 269.642C204.398 268.646 205.19 267.561 205.867 266.406L214.195 252.197Z" fill="#E47A44"/>
<path d="M205.058 226.315C186.756 230.325 180.418 225.719 179.246 222.75L207.217 220.253L216.422 235.47C214.518 235.615 207.946 229.622 205.058 226.315Z" fill="#CA5B22"/>
<path d="M197.483 226.998C185.932 229.825 178.824 223.004 176.714 219.239C186.388 196.591 209.862 200.03 218.241 207.143C221.219 208.851 223.445 212.952 225.244 215.599C228.868 220.932 227.404 236.622 224.764 234.691C219.844 231.093 217.903 237.223 216.482 242.049C216.936 238.052 216.943 234.834 214.762 233.8C212.581 232.765 208.195 229.892 207.086 226.227C207.086 226.227 207.086 224.647 197.483 226.998Z" fill="#3E2D37"/>
<ellipse cx="14.0199" cy="10.5029" rx="14.0199" ry="10.5029" transform="matrix(0.997883 -0.0650396 0.0826108 0.996582 174.117 206.1)" fill="#3E2D37"/>
<path d="M207.562 224.872C196.776 226.892 178.502 221.887 175.06 215.209C173.839 218.108 176.898 221.649 177.965 222.667C185.702 229.867 201.05 226.939 207.562 224.872Z" fill="#24161E"/>
<path d="M195.011 235.5C195.858 234.634 199.201 233.249 200.935 236.258" stroke="#5B4444" stroke-linecap="round"/>
<path d="M179.646 237.777C180.749 236.532 182.752 236.395 184.024 237.784" stroke="#5B4444" stroke-linecap="round"/>
<path d="M187.445 255.434C189.008 256.652 194.344 256.398 196.831 253.405" stroke="#292828" stroke-linecap="round"/>
<path d="M219.809 234.629C216.184 235.652 210.106 229.876 207.3 224.842C206.989 229.053 212.04 232.292 214.314 235.301C215.202 239.045 216.323 241.828 216.238 243.22L217.972 236.93L219.809 234.629Z" fill="#24161E"/>
<ellipse cx="1.36802" cy="1.84785" rx="1.36802" ry="1.84785" transform="matrix(0.985249 -0.17113 0.171922 0.985111 180.43 240.689)" fill="#343440"/>
<ellipse cx="1.45412" cy="1.93449" rx="1.45412" ry="1.93449" transform="matrix(0.985094 -0.172019 0.172815 0.984954 194.461 239.322)" fill="#343440"/>
<path d="M171.312 363.369C171.312 357.771 125.024 352.873 142.558 327.684C162.744 298.684 164.116 288.494 181.833 278.006C192.353 273.808 191.65 274.507 191.65 274.507C191.65 274.507 188.544 280.489 199.692 283.51C210.343 286.393 220.791 280.883 229.217 272.245L237.938 273.108C249.861 275.907 250.562 280.105 253.368 281.504C263.143 288.49 269.326 304.538 272.997 309.492C280.174 324.493 282.672 323.29 280.721 350.774L276.513 363.369C262.845 380.707 214.092 363.369 214.092 363.369" fill="#FBCDCD"/>
<path d="M187.32 276.791C188.145 280.804 189.368 282.943 193.055 285.702C196.722 288.446 202.172 289.2 207.783 288.5C222.512 285.702 227.163 279.662 233.032 273.807" stroke="#F4A6A6" stroke-linecap="round"/>
<path d="M255.474 340.278C246.497 338.598 229.29 341.91 221.809 343.776C223.679 340.278 234.4 336.49 239.343 336.08C247.485 335.403 241.624 309.624 240.175 298.02C240.122 297.633 240.079 297.259 240.044 296.896C240.082 297.254 240.126 297.629 240.175 298.02C241.825 310.18 252.075 333.948 255.474 340.278Z" fill="#F4A6A6"/>
<path d="M155.207 318.13C154.156 314.901 156.561 311.59 159.957 311.59L192.191 311.59C194.375 311.59 196.309 313.007 196.966 315.089L211.225 360.275C212.265 363.569 209.73 366.895 206.278 366.769L174.109 365.594C172.009 365.518 170.18 364.138 169.53 362.141L155.207 318.13Z" fill="#343440"/>
<path d="M206.882 346.576L219.153 349.096C223.196 349.926 222.762 357.282 222.04 360.856H211.934C208.325 361.696 199.952 362.872 195.332 360.856C189.557 358.336 190.279 351.616 190.279 349.096C190.279 347.08 201.347 346.576 206.882 346.576Z" fill="#F8A474"/>
<path d="M163.84 359.17C160.866 359.17 160.618 350.277 160.866 345.83C163.096 344.162 170.532 345.83 173.506 349.165C175.886 351.833 174.498 355.835 173.506 357.502C171.524 358.058 166.814 359.17 163.84 359.17Z" fill="#F8A474"/>
<path d="M222.156 343.777L215.188 345.041C217.215 349.592 216.032 358.313 215.188 362.105L220.889 363.369C222.916 361.347 222.578 349.465 222.156 343.777Z" fill="#FBCDCD" stroke="#F4A6A6" stroke-linejoin="round"/>
<path d="M216.453 347.569L222.155 346.305" stroke="#F4A6A6"/>
<path d="M216.453 350.73L222.155 350.098" stroke="#F4A6A6"/>
<path d="M216.453 353.889H222.155" stroke="#F4A6A6"/>
<path d="M216.453 357.049L222.155 357.681" stroke="#F4A6A6"/>
<path d="M215.82 360.209L221.522 361.473" stroke="#F4A6A6"/>
<path d="M185.542 338.18C185.542 339.652 185.184 340.943 184.546 341.85C183.918 342.742 183.013 343.277 181.834 343.277C180.626 343.277 179.342 342.715 178.356 341.776C177.373 340.839 176.723 339.565 176.723 338.18C176.723 336.707 177.08 335.416 177.719 334.509C178.347 333.618 179.252 333.082 180.431 333.082C181.638 333.082 182.922 333.644 183.908 334.584C184.891 335.52 185.542 336.794 185.542 338.18Z" stroke="#16D2AA"/>
<path d="M179.028 337.282C179.028 337.766 179.008 338.242 179.151 338.69C179.282 339.104 179.49 339.613 179.828 339.576C180 339.558 180.113 339.35 180.204 339.136C180.355 338.781 180.403 338.341 180.415 337.922C180.422 337.647 180.427 337.374 180.427 337.098C180.427 336.995 180.441 336.872 180.411 336.779" stroke="#16D2AA" stroke-linecap="round"/>
<path d="M181.938 339.578C181.938 339.252 181.942 338.925 181.909 338.599C181.882 338.33 181.838 338.071 181.838 337.801C181.838 337.561 181.795 337.278 181.944 337.059C182.046 336.911 182.29 336.831 182.489 336.798C182.761 336.751 183.041 336.783 183.144 337.006C183.234 337.201 183.267 337.441 183.197 337.641C183.085 337.965 182.703 338.13 182.298 338.177" stroke="#16D2AA" stroke-linecap="round"/>
<path d="M214.137 204.421C215.303 204.421 216.251 204.398 217.279 205.006C218.156 205.524 218.965 206.116 219.499 206.998C219.604 207.171 219.842 207.74 220 207.845C220.461 208.152 219.17 207.105 218.821 206.676C218.126 205.823 216.991 205.395 216.1 204.829C215.642 204.538 214.677 204.066 214.137 204.066" stroke="white" stroke-linecap="round"/>
<path d="M415.289 477.783C430.461 478.07 459.138 477.903 471.581 477.783C475.594 480.408 483.441 488.666 482.719 500.695C481.996 512.723 482.418 539.835 482.719 551.887" stroke="url(#paint8_linear_5475_2968)" stroke-width="8"/>
<path d="M438.539 462.51C454.858 462.827 485.705 462.642 499.088 462.51C503.405 465.416 511.845 474.556 511.068 487.87C510.291 501.184 510.745 531.193 511.068 544.533" stroke="url(#paint9_linear_5475_2968)" stroke-width="8"/>
<path d="M514.522 466.439C514.522 477.982 494.775 489.662 462.676 489.662C430.577 489.662 398.281 477.982 398.281 466.439C398.281 454.896 424.303 445.539 456.402 445.539C488.501 445.539 514.522 454.896 514.522 466.439Z" fill="#DAA75A"/>
<ellipse cx="455.831" cy="463.077" rx="58.1203" ry="20.9302" fill="#DFBB85"/>
<path d="M356.32 474.604C356.32 451.679 378.005 431.037 391.676 429.173L476.53 408.205C475.352 414.728 472.57 431.41 470.873 445.948C469.176 460.486 428.21 476.701 407.94 482.991L392.184 502.078L396.169 562.448L362.962 563.767C360.84 544.43 356.32 497.529 356.32 474.604Z" fill="url(#paint10_linear_5475_2968)"/>
<path d="M480.673 450.337C513.279 450.337 514.572 407.74 503.186 381.408H389.844V434.073C403.3 438.978 437.816 450.337 480.673 450.337Z" fill="#FEDF85"/>
<path d="M437.648 337.645C437.648 315.502 457.077 298.382 479.044 301.168L496.787 303.418C515.344 305.771 529.254 321.557 529.254 340.262C529.254 363.247 508.587 380.714 485.923 376.881L468.287 373.899C450.597 370.908 437.648 355.586 437.648 337.645Z" fill="#DAA75A"/>
<path d="M432.992 337.944C432.992 315.801 452.42 298.681 474.387 301.466L492.131 303.717C510.687 306.07 524.598 321.856 524.598 340.561C524.598 363.546 503.93 381.012 481.267 377.18L463.631 374.198C445.941 371.207 432.992 355.885 432.992 337.944Z" fill="#DFBB85"/>
<path d="M332.394 423.23L330.109 407.416L499.304 415.745L498.191 429.626C493.293 440.286 477.598 444.062 470.363 444.617C438.305 446.394 365.417 431.373 332.394 423.23Z" fill="#DAA75A"/>
<path d="M341.798 394.646L377.418 375.213L493.739 404.085C497.449 406.861 502.992 412.57 495.423 423.23C487.853 433.891 464.37 434.073 451.949 434.073C416.514 428.151 342.355 416.412 333.45 412.414C324.545 408.416 335.305 398.903 341.798 394.646Z" fill="#DFBB85"/>
<path d="M419.342 303.187C425.827 296.458 425.776 289.048 423.775 284.618L452.123 269.261C448.4 296.246 462.772 298.866 466.698 301.638L447.635 321.713C436.279 319.385 412.856 309.916 419.342 303.187Z" fill="#C27D56"/>
<path d="M479.805 341.137C479.252 344.269 478.346 351.256 479.151 354.14" stroke="#F49E9E"/>
<path d="M394.008 368.072L403.319 328.988L377.028 361.716L394.008 368.072Z" fill="#F49E9E"/>
<path d="M399.154 398.449C399.154 392.253 347.92 386.831 367.328 358.95C389.671 326.851 391.19 315.571 410.801 303.963C422.445 299.316 421.666 300.09 421.666 300.09C421.666 300.09 418.229 306.712 430.568 310.055C442.357 313.246 453.922 307.147 463.248 297.586L472.901 298.541C486.098 301.639 486.875 306.286 489.98 307.835C500.8 315.568 507.644 333.33 511.707 338.814C519.651 355.418 522.416 354.087 520.256 384.508L515.599 398.448C500.47 417.64 446.507 398.448 446.507 398.448" fill="#FEDF85"/>
<path d="M395.157 379.865V372.598L382.906 367.974L392.508 365.992C397.364 364.23 396.812 366.322 403.766 354.101C406.773 348.814 407.7 346.033 407.912 345.263C407.967 344.969 407.995 344.959 407.912 345.263C407.845 345.616 407.739 346.377 407.739 347.494C403.766 379.865 407.077 371.673 395.157 379.865Z" fill="#F8BB44"/>
<path d="M416.879 302.618C417.792 307.059 419.145 309.427 423.226 312.481C427.285 315.518 433.318 316.353 439.529 315.578C455.831 312.481 460.98 305.795 467.476 299.314" stroke="#F8BB44" stroke-linecap="round"/>
<path d="M492.318 372.89C482.381 371.032 463.335 374.698 455.055 376.763C457.125 372.891 468.992 368.698 474.463 368.244C483.475 367.494 476.988 338.961 475.384 326.116C475.326 325.689 475.277 325.274 475.239 324.873C475.281 325.269 475.33 325.683 475.384 326.116C477.21 339.576 488.556 365.885 492.318 372.89Z" fill="#F8BB44"/>
<path d="M438.53 379.859L452.113 382.649C456.588 383.568 456.108 391.71 455.308 395.666H444.122C440.128 396.596 430.86 397.897 425.746 395.666C419.354 392.876 420.153 385.438 420.153 382.649C420.153 380.417 432.404 379.859 438.53 379.859Z" fill="#C27D56"/>
<path d="M390.888 393.8C387.596 393.8 387.322 383.956 387.596 379.035C390.065 377.189 398.296 379.035 401.588 382.726C404.222 385.679 402.685 390.109 401.588 391.954C399.393 392.57 394.18 393.8 390.888 393.8Z" fill="#C27D56"/>
<path d="M455.436 376.762L447.723 378.161C449.966 383.197 448.658 392.851 447.723 397.048L454.033 398.447C456.277 396.209 455.903 383.057 455.436 376.762Z" fill="#FEDF85" stroke="#F8BB44" stroke-linejoin="round"/>
<path d="M449.125 380.96L455.436 379.561" stroke="#F8BB44"/>
<path d="M449.125 384.457L455.436 383.758" stroke="#F8BB44"/>
<path d="M449.125 387.955H455.436" stroke="#F8BB44"/>
<path d="M449.125 391.451L455.436 392.151" stroke="#F8BB44"/>
<path d="M448.422 394.949L454.733 396.348" stroke="#F8BB44"/>
<path d="M414.962 370.567C414.962 372.205 414.565 373.645 413.85 374.66C413.146 375.66 412.128 376.263 410.804 376.263C409.452 376.263 408.018 375.633 406.918 374.586C405.822 373.542 405.094 372.117 405.094 370.567C405.094 368.929 405.491 367.489 406.206 366.474C406.91 365.474 407.928 364.871 409.252 364.871C410.604 364.871 412.038 365.5 413.138 366.548C414.234 367.592 414.962 369.016 414.962 370.567Z" stroke="#16D2AA"/>
<path d="M407.7 369.574C407.7 370.11 407.678 370.637 407.836 371.132C407.981 371.59 408.211 372.154 408.585 372.113C408.776 372.093 408.901 371.863 409.001 371.627C409.168 371.233 409.222 370.746 409.235 370.282C409.243 369.978 409.248 369.675 409.248 369.371C409.248 369.257 409.264 369.12 409.231 369.018" stroke="#16D2AA" stroke-width="0.5" stroke-linecap="round"/>
<path d="M410.922 372.115C410.922 371.754 410.926 371.392 410.89 371.032C410.86 370.734 410.811 370.448 410.811 370.148C410.811 369.883 410.763 369.569 410.929 369.327C411.041 369.163 411.312 369.075 411.532 369.038C411.833 368.987 412.143 369.021 412.257 369.268C412.356 369.484 412.393 369.75 412.316 369.972C412.192 370.33 411.769 370.513 411.32 370.565" stroke="#16D2AA" stroke-width="0.5" stroke-linecap="round"/>
<ellipse cx="5.146" cy="8.34302" rx="5.146" ry="8.34302" transform="matrix(0.991897 0.127047 -0.127642 0.99182 449.434 251.645)" fill="#C27D56"/>
<path d="M459.214 250.906C453.183 271.474 447.476 282.315 428.278 289.413C414.503 289.473 404.675 272.453 407.392 249.117C410.11 225.781 425.153 227.602 442.177 226.027C450.41 229.742 457.29 230.216 459.214 250.906Z" fill="#C27D56"/>
<path d="M416.741 265.307L415.749 272.33C415.887 272.796 417.07 274.253 419.442 273.551" stroke="black" stroke-linecap="round"/>
<path d="M446.623 275.397C438.893 285.223 428.753 289.16 424.829 288.986C427.22 295.716 421.272 300.65 420.895 302.414L425.685 300.847C429.019 299.757 432.007 297.809 434.349 295.199L434.933 294.547C435.827 293.55 436.619 292.466 437.296 291.311L446.623 275.397Z" fill="#A36342"/>
<path d="M439.996 242.729C419.738 247.168 412.723 242.07 411.426 238.783L442.386 236.02L452.574 252.863C450.468 253.023 443.193 246.39 439.996 242.729Z" fill="#A26342"/>
<path d="M425.39 256.913C426.328 255.955 430.029 254.422 431.948 257.752" stroke="#5B4444" stroke-linecap="round"/>
<path d="M408.382 259.436C409.603 258.058 411.82 257.906 413.228 259.444" stroke="#5B4444" stroke-linecap="round"/>
<path d="M417.016 278.979C418.746 280.327 424.652 280.046 427.405 276.733" stroke="#292828" stroke-linecap="round"/>
<ellipse cx="1.51422" cy="2.04533" rx="1.51422" ry="2.04533" transform="matrix(0.985249 -0.17113 0.171922 0.985111 409.254 262.658)" fill="#343440"/>
<ellipse cx="1.60952" cy="2.14123" rx="1.60952" ry="2.14123" transform="matrix(0.985094 -0.172019 0.172815 0.984954 424.777 261.145)" fill="#343440"/>
<path d="M471.396 402.282C471.694 402.21 472.01 402.267 472.274 402.439C472.539 402.611 472.729 402.885 472.805 403.199C472.88 403.514 472.834 403.844 472.677 404.117C472.519 404.39 472.263 404.583 471.965 404.654L434.698 413.552L432.031 411.68L471.396 402.282Z" fill="#988189"/>
<path d="M472.841 402.699L434.212 412.023L421.129 389.646L472.841 402.699Z" fill="#988189"/>
<path d="M423.254 361.01C423.51 361.026 423.758 361.113 423.968 361.261C424.179 361.408 424.345 361.611 424.447 361.846L434.588 414.044L363.121 403.409C362.872 403.393 362.631 403.31 362.424 403.17C362.218 403.029 362.053 402.835 361.947 402.609L350.304 354.375C350.147 354.04 350.129 353.657 350.254 353.309C350.38 352.961 350.639 352.678 350.974 352.52C351.186 352.421 351.42 352.377 351.654 352.392L423.254 361.01Z" fill="url(#paint11_linear_5475_2968)"/>
<path d="M394.326 383.686C394.326 385.156 393.942 386.446 393.254 387.354C392.576 388.25 391.587 388.801 390.285 388.801C388.959 388.801 387.56 388.227 386.492 387.282C385.426 386.338 384.73 385.062 384.73 383.686C384.73 382.215 385.114 380.926 385.802 380.017C386.48 379.122 387.47 378.57 388.771 378.57C390.098 378.57 391.496 379.144 392.564 380.089C393.63 381.033 394.326 382.309 394.326 383.686Z" stroke="#16D2AA"/>
<path d="M386.88 382.745C386.88 383.43 386.852 384.105 387.054 384.739C387.24 385.325 387.534 386.046 388.013 385.994C388.257 385.968 388.416 385.674 388.545 385.371C388.759 384.868 388.827 384.245 388.844 383.652C388.855 383.262 388.861 382.875 388.861 382.485C388.861 382.339 388.881 382.165 388.839 382.033" stroke="#16D2AA" stroke-linecap="round"/>
<path d="M390.341 385.997C390.341 385.535 390.347 385.072 390.3 384.611C390.262 384.229 390.2 383.863 390.2 383.48C390.2 383.14 390.138 382.739 390.351 382.429C390.494 382.219 390.84 382.107 391.121 382.059C391.507 381.994 391.904 382.038 392.05 382.354C392.176 382.63 392.224 382.97 392.125 383.254C391.966 383.713 391.425 383.946 390.851 384.013" stroke="#16D2AA" stroke-linecap="round"/>
<path d="M455.282 256.116C455.282 256.116 452.805 255.615 449.999 261.912C449.194 264.402 447.895 257.014 447.895 257.014C447.895 257.014 445.864 255.058 446.785 253.06C446.785 253.06 441.929 252.548 441.583 248.749C441.007 247.983 438.777 251.548 438.328 247.785C436.16 249.274 433.682 247.404 433.682 247.404C433.682 247.404 428.58 246.131 427.926 242.848C427.926 242.848 423.449 248.607 416.836 245.58C416.836 245.58 413.486 252.816 409.377 248.749C409.377 248.749 408.616 252.816 403.707 251.417C399.136 249.318 401.603 245.58 401.603 245.58C401.603 245.58 396.694 243.02 400.201 238.822C400.201 238.822 397.856 232.404 403.009 231.825C403.009 231.825 401.603 222.729 410.394 224.749C410.394 224.749 412.124 217.469 417.508 219.995C417.508 219.995 423.073 214.856 427.926 218.531C427.926 218.531 434.24 215.305 437.376 220.63C437.376 220.63 445.791 215.732 448.596 222.729C448.596 222.729 455.318 222.647 456.31 229.726C456.31 229.726 462.074 233.057 460.52 238.123C460.52 238.123 465.428 245.58 459.817 248.749C460.268 250.013 460.22 251.403 459.681 252.633L458.157 256.116L455.282 256.116Z" fill="#272828"/>
<path d="M195.23 601.773C211.116 602.073 241.142 601.898 254.17 601.773C258.373 604.522 266.588 613.168 265.832 625.763C265.075 638.357 265.517 666.744 265.832 679.363" stroke="url(#paint12_linear_5475_2968)" stroke-width="8"/>
<path d="M219.574 585.781C236.661 586.113 268.958 585.92 282.971 585.781C287.492 588.824 296.329 598.394 295.515 612.334C294.702 626.274 295.176 657.695 295.515 671.663" stroke="url(#paint13_linear_5475_2968)" stroke-width="8"/>
<path d="M299.13 589.895C299.13 601.981 278.454 614.21 244.846 614.21C211.237 614.21 177.422 601.981 177.422 589.895C177.422 577.809 204.667 568.012 238.276 568.012C271.885 568.012 299.13 577.809 299.13 589.895Z" fill="#DAA75A"/>
<ellipse cx="237.682" cy="586.374" rx="60.8542" ry="21.9147" fill="#DFBB85"/>
<path d="M133.488 598.444C133.488 574.441 156.193 552.828 170.507 550.876L259.353 528.922C258.119 535.752 255.206 553.218 253.43 568.44C251.653 583.662 208.76 600.64 187.536 607.226L171.039 627.211L175.211 690.42L140.442 691.801C138.221 671.555 133.488 622.448 133.488 598.444Z" fill="url(#paint14_linear_5475_2968)"/>
<path d="M170.297 604.581C170.297 580.646 192.878 559.824 207.114 557.878L289.23 540.713C288.003 547.524 289.879 556.564 288.112 571.743C286.345 586.921 254.731 598.014 233.623 604.581L226.259 616.257L222.42 685.082L175.509 690.616C173.3 670.426 170.297 628.517 170.297 604.581Z" fill="url(#paint15_linear_5475_2968)"/>
<path d="M234.418 478.043C234.418 454.858 254.76 436.933 277.76 439.85L296.339 442.206C315.768 444.67 330.333 461.199 330.333 480.783C330.333 504.85 308.693 523.138 284.963 519.125L266.498 516.003C247.976 512.871 234.418 496.829 234.418 478.043Z" fill="#DAA75A"/>
<path d="M227.449 485.686C227.449 462.501 247.791 444.576 270.792 447.493L289.37 449.849C308.799 452.313 323.364 468.841 323.364 488.426C323.364 512.492 301.724 530.78 277.995 526.768L259.53 523.646C241.007 520.514 227.449 504.471 227.449 485.686Z" fill="#DFBB85"/>
<path d="M226.488 466.561C226.488 443.376 246.83 425.451 269.831 428.368L288.409 430.724C307.838 433.188 322.403 449.716 322.403 469.301C322.403 493.367 300.763 511.655 277.034 507.643L258.569 504.521C240.046 501.389 226.488 485.346 226.488 466.561Z" fill="#DAA75A"/>
<path d="M221.609 466.873C221.609 443.689 241.951 425.763 264.952 428.68L283.53 431.036C302.959 433.5 317.524 450.029 317.524 469.613C317.524 493.68 295.884 511.968 272.155 507.955L253.69 504.833C235.167 501.701 221.609 485.659 221.609 466.873Z" fill="#DFBB85"/>
<path d="M270.627 470.216C270.048 473.496 269.099 480.811 269.942 483.831" stroke="#F49E9E"/>
<path d="M234.793 416.038C234.793 416.038 237.682 432.867 236.238 444.094C238.135 445.793 251.095 455.253 251.095 455.253L264.815 447.39C264.815 447.39 263.483 424.812 263.483 415.103C263.483 405.394 234.793 416.038 234.793 416.038Z" fill="#DE8F5C"/>
<path d="M340.406 328.603C340.406 328.603 341.817 309.055 341.12 306.019C340.423 302.983 340.276 297.414 344.252 298.451C348.229 299.488 347.651 309.338 347.651 309.338C347.651 309.338 352.251 303.107 355.814 303.107C359.377 303.107 366.4 311.253 366.95 316.328C367.499 321.404 363.489 322.791 359.082 329.594C354.675 336.397 340.406 328.603 340.406 328.603Z" fill="#F8A474"/>
<path d="M139.549 343.641C139.549 343.641 134.762 324.631 134.927 321.55C135.091 318.468 134.258 312.929 130.525 314.639C126.793 316.35 129.042 325.968 129.042 325.968C129.042 325.968 123.434 320.644 119.922 321.261C116.41 321.878 110.91 331.123 111.249 336.215C111.589 341.307 117.112 342.554 121.814 347.827C123.428 349.634 129.178 353.01 132.276 352.223C135.171 351.464 139.549 343.641 139.549 343.641Z" fill="#F8A474"/>
<path d="M127.168 357.254C127.168 357.254 137.755 342.764 145.113 346.797C152.471 350.83 158.827 370.299 181.932 401.205C205.037 432.11 220.819 430.133 226.557 433.991C232.295 437.848 233.564 444.719 242.899 444.719C250.914 457.368 251.48 458.971 261.563 442.793C270.847 441.4 306.879 403.216 313.993 388.839C333.332 349.896 334.386 335.089 338.668 333.129C346.547 331.747 356.913 338.964 356.913 338.964C356.913 338.964 363.546 391.904 355.905 418.085C348.354 443.943 296.258 551.557 296.258 551.557H207.014C207.014 551.557 164.242 458.416 146.603 427.057C132.442 401.918 127.168 357.254 127.168 357.254Z" fill="#77C190"/>
<path d="M127.168 357.216C127.168 357.216 137.755 342.727 145.113 346.76C152.471 350.793 158.832 370.267 181.932 401.178C205.032 432.089 220.819 430.107 226.551 433.97C232.284 437.833 233.564 444.698 242.899 444.698C250.914 457.353 251.48 458.95 261.563 442.772C270.847 441.379 306.879 403.189 313.993 388.813C333.332 349.858 334.386 335.045 338.668 333.091C346.553 331.709 357.077 340.608 357.077 340.608C357.077 340.608 361.751 380.31 358.918 391.996C348.87 433.545 305.514 443.973 289.427 461.414C270.893 481.512 210.192 526.861 210.192 526.861L207.009 551.553C207.009 551.553 164.242 458.395 146.597 427.036C132.442 401.875 127.168 357.216 127.168 357.216Z" fill="#82CC9B"/>
<g opacity="0.33">
<path opacity="0.33" d="M142.178 359.529L148.126 369.725H136.23L142.178 359.529Z" fill="white"/>
<path opacity="0.33" d="M162.002 391.252L167.95 401.448H156.055L162.002 391.252Z" fill="white"/>
<path opacity="0.33" d="M346.1 413.91L352.048 424.106H340.152L346.1 413.91Z" fill="white"/>
<path opacity="0.33" d="M165.401 426.369L171.349 436.565H159.453L165.401 426.369Z" fill="white"/>
<path opacity="0.33" d="M241.307 464.32L247.255 474.516H235.359L241.307 464.32Z" fill="white"/>
<path opacity="0.33" d="M198.26 436.566L204.208 446.762H192.312L198.26 436.566Z" fill="white"/>
<path opacity="0.33" d="M295.116 504.537L301.063 514.733H289.168L295.116 504.537Z" fill="white"/>
<path opacity="0.33" d="M197.69 471.686L203.638 481.882H191.742L197.69 471.686Z" fill="white"/>
<path opacity="0.33" d="M252.069 488.68L258.016 498.876H246.121L252.069 488.68Z" fill="white"/>
<path opacity="0.33" d="M307.01 417.875L312.958 428.071H301.062L307.01 417.875Z" fill="white"/>
<path opacity="0.33" d="M257.729 519.832L263.677 530.028H251.781L257.729 519.832Z" fill="white"/>
<path opacity="0.33" d="M333.065 372.559L339.013 382.755H327.117L333.065 372.559Z" fill="white"/>
<path opacity="0.33" d="M314.944 457.525L320.891 467.721H308.996L314.944 457.525Z" fill="white"/>
</g>
<g opacity="0.51">
<path d="M228 510.771H270.483C270.483 510.771 267.702 527.765 281.246 532.24C281.008 532.687 278.703 549.856 278.703 549.856" fill="#576C41"/>
<path d="M228 510.771H270.483C270.483 510.771 267.702 527.765 281.246 532.24C281.008 532.687 278.703 549.856 278.703 549.856" stroke="#576C41" stroke-width="2" stroke-linecap="round" stroke-linejoin="round"/>
</g>
<path d="M123.905 350.646C123.854 350.527 123.845 350.394 123.88 350.27C123.916 350.145 123.992 350.036 124.098 349.961L139.075 339.391C139.196 339.306 139.346 339.272 139.492 339.297C139.638 339.321 139.769 339.402 139.856 339.521L144.875 346.506C144.919 346.566 144.95 346.635 144.967 346.708C144.984 346.78 144.987 346.856 144.975 346.929C144.963 347.003 144.936 347.074 144.897 347.137C144.857 347.201 144.806 347.255 144.745 347.299H144.716L127.757 358.061C127.694 358.101 127.624 358.128 127.551 358.141C127.478 358.154 127.403 358.152 127.33 358.135C127.257 358.119 127.189 358.089 127.128 358.046C127.067 358.003 127.015 357.948 126.975 357.886C126.958 357.858 126.943 357.83 126.93 357.801L123.905 350.646Z" fill="#90D2A6"/>
<path d="M339.291 327.332C339.336 327.196 339.432 327.082 339.558 327.014C339.684 326.945 339.832 326.927 339.971 326.964L358.505 331.699C358.65 331.735 358.776 331.828 358.853 331.956C358.931 332.085 358.954 332.239 358.918 332.384L356.981 340.371C356.964 340.444 356.932 340.513 356.888 340.573C356.844 340.633 356.789 340.684 356.725 340.723C356.662 340.762 356.591 340.789 356.517 340.8C356.443 340.812 356.368 340.808 356.296 340.791H356.262L337.336 334.933C337.193 334.889 337.073 334.79 337.003 334.657C336.933 334.524 336.918 334.369 336.963 334.225L339.291 327.332Z" fill="#82CC9B"/>
<path d="M337.246 336.734C337.246 336.734 344.128 341.895 355.083 341.419" stroke="#76C190" stroke-linecap="round" stroke-linejoin="round"/>
<path d="M351.227 332.043L349.703 338.761" stroke="#76C190" stroke-linecap="round" stroke-linejoin="round"/>
<path d="M354.613 332.26L352.348 339.312" stroke="#76C190" stroke-linecap="round" stroke-linejoin="round"/>
<path d="M356.828 334.424L355.078 339.703" stroke="#76C190" stroke-linecap="round" stroke-linejoin="round"/>
<path d="M348.537 331.635L346.102 337.469" stroke="#76C190" stroke-linecap="round" stroke-linejoin="round"/>
<path d="M345.207 330.471L344.125 336.249" stroke="#76C190" stroke-linecap="round" stroke-linejoin="round"/>
<path d="M342.742 329.801L341.043 336.032" stroke="#76C190" stroke-linecap="round" stroke-linejoin="round"/>
<path d="M340.51 329.107L338.414 334.868" stroke="#76C190" stroke-linecap="round" stroke-linejoin="round"/>
<path d="M244.735 433.979C244.735 433.979 235.876 434.716 237.371 437.417C238.867 440.119 246.004 443.082 250.524 451.386C254.835 442.374 263.116 437.417 263.116 437.417L262.38 426.966C262.38 426.966 267.195 426.247 274.235 428.972C281.276 431.696 292.855 441.847 280.008 442.679C267.161 443.512 251.312 456.96 251.312 456.96C251.312 456.96 241.013 448.525 225 444.339C208.987 440.153 218.367 431.243 224.179 427.997C229.991 424.751 244.741 427.997 244.741 427.997L244.735 433.979Z" fill="#576C41"/>
<path d="M244.632 433.979C244.632 433.979 230.233 434.716 231.717 437.417C233.201 440.119 245.215 444.158 249.718 452.468C254.097 442.498 262.933 437.417 262.933 437.417L262.203 426.966C262.203 426.966 267.001 426.247 274.013 428.972C281.026 431.696 284.147 439.094 271.339 439.921C258.532 440.748 251.174 456.96 251.174 456.96C251.174 456.96 240.91 448.525 224.959 444.339C209.008 440.153 218.348 431.243 224.137 427.997C229.926 424.751 244.632 427.997 244.632 427.997V433.979Z" fill="#618F45"/>
<path d="M234.793 416.005C235.995 423.026 236.752 430.115 237.059 437.23C238.928 438.93 251.599 434.477 251.599 434.477L263.098 437.23C263.098 437.23 264.311 425.862 263.098 415.105C261.886 404.348 234.793 416.005 234.793 416.005Z" fill="#DE8F5C"/>
<path d="M234.793 415.926C234.793 415.926 236.226 425.318 236.64 430.654C236.804 432.835 263.115 419.891 263.115 414.119C263.115 408.347 234.793 415.926 234.793 415.926Z" fill="#D48857"/>
<path d="M218.911 368.939C218.911 368.939 214.985 371.698 215.625 376.014C216.265 380.331 222.332 382.189 222.332 382.189V364.629L218.911 368.939Z" fill="#291B23"/>
<path d="M246.295 421.273C258.61 421.273 267.82 414.504 274.357 391.75C280.894 368.996 282.44 351.459 240.024 351.6C224.838 351.6 220.318 364.272 220.199 380.97C218.618 402.212 233.986 421.273 246.295 421.273Z" fill="#F8A474"/>
<path d="M246.311 421.273C258.506 421.273 264.341 403.577 268.708 389.235C273.075 374.893 282.41 351.459 240.386 351.6C225.341 351.6 220.866 364.271 220.73 380.97C219.2 402.212 234.115 421.273 246.311 421.273Z" fill="#F49D6C"/>
<path d="M274.08 389.591C274.08 389.591 274.402 385.535 278.226 387.207C282.049 388.878 276.702 399.748 273.026 399.748C269.35 399.748 270.975 396.389 270.975 396.389L274.08 389.591Z" fill="#F8A474"/>
<path d="M216.544 360.894C216.544 360.894 211.888 367.227 215.564 370.348C219.24 373.469 223.494 369.272 223.494 369.272C223.494 369.272 224.298 373.475 229.402 374.33C234.506 375.186 237.502 370.365 237.502 370.365C237.502 370.365 241.201 375.327 245.863 375.327C250.525 375.327 254.06 370.365 254.06 370.365C254.06 370.365 256.172 376.539 262.8 376.539C269.427 376.539 269.184 371.209 269.184 371.209C269.184 371.209 272.951 373.016 274.995 370.365C277.04 367.714 273.013 364.383 273.013 364.383C273.013 364.383 283.056 360.985 279.94 354.085C277.709 348.5 270.453 351.151 270.453 351.151C270.453 351.151 269.472 345.067 265.207 343.419C260.942 341.771 255.577 345.94 255.577 345.94C255.577 345.94 254.541 340.275 247.902 340.275C241.263 340.275 239.264 347.158 239.264 347.158C239.264 347.158 234.761 341.805 229.413 343.408C222.395 344.977 222.667 351.14 222.667 351.14C222.667 351.14 215.87 350.007 214.301 354.074C212.732 358.141 216.544 360.894 216.544 360.894Z" fill="#3E2D37"/>
<path d="M217.098 360.923C217.098 360.923 212.464 367.244 216.123 370.359C219.783 373.475 224.008 369.283 224.008 369.283C224.008 369.283 224.807 373.475 229.888 374.336C234.969 375.197 237.949 370.371 237.949 370.371C237.949 370.371 241.625 375.327 246.264 375.327C250.903 375.327 254.421 370.371 254.421 370.371C254.421 370.371 256.522 376.534 263.116 376.534C261.077 375.621 259.254 374.288 257.767 372.621C256.279 370.955 255.16 368.993 254.483 366.865C254.483 366.865 242.803 367.369 236.686 359.75C230.568 352.131 239.688 347.22 239.688 347.22C239.688 347.22 235.207 341.879 229.888 343.482C222.904 345.051 223.176 351.202 223.176 351.202C223.176 351.202 216.378 350.07 214.849 354.125C213.319 358.181 217.098 360.923 217.098 360.923Z" fill="#35232E"/>
<path d="M238.014 387.285C237.023 390.99 232.673 394.145 233.131 396.195C234.055 400.296 239.328 399.662 239.328 399.662" stroke="#7C5430" stroke-linecap="round" stroke-linejoin="round"/>
<path d="M355.574 305.717C355.574 305.717 352.051 310.316 352.051 312.378C352.051 314.44 357.29 320.79 359.568 321.934C361.845 323.078 366.297 319.26 366.778 318.36" stroke="#DF8652" stroke-linecap="round" stroke-linejoin="round"/>
<path d="M121.45 324.355C121.45 324.355 121.915 329.453 125.613 330.818C129.312 332.184 120.816 343.949 117.474 343.711C111.645 343.711 111.764 338.047 111.543 336.863" fill="#F8A474"/>
<path d="M121.45 324.355C121.45 324.355 121.915 329.453 125.613 330.818C129.312 332.184 120.816 343.949 117.474 343.711C111.645 343.711 111.764 338.047 111.543 336.863" stroke="#DF8652" stroke-linecap="round" stroke-linejoin="round"/>
<path d="M128.301 358.397C128.301 358.397 139.063 353.798 144.161 348.768" stroke="#76C190" stroke-linecap="round" stroke-linejoin="round"/>
<path d="M134.352 344.928L138.226 350.632" stroke="#76C190" stroke-linecap="round" stroke-linejoin="round"/>
<path d="M136.82 342.6L140.446 349.046" stroke="#76C190" stroke-linecap="round" stroke-linejoin="round"/>
<path d="M139.027 341.779L142.89 346.6" stroke="#76C190" stroke-linecap="round" stroke-linejoin="round"/>
<path d="M132.199 346.598L134.805 352.358" stroke="#76C190" stroke-linecap="round" stroke-linejoin="round"/>
<path d="M129.098 348.264L132.587 352.994" stroke="#76C190" stroke-linecap="round" stroke-linejoin="round"/>
<path d="M126.926 349.6L130.324 355.111" stroke="#76C190" stroke-linecap="round" stroke-linejoin="round"/>
<path d="M124.891 350.76L127.677 356.226" stroke="#76C190" stroke-linecap="round" stroke-linejoin="round"/>
<path d="M260.281 369.274C260.281 369.274 269.973 384.228 272.103 390.686C274.935 386.721 274.935 387.236 275.87 386.947C276.759 384.115 279.387 374.712 279.387 374.712C279.387 374.712 285.279 366.572 276.838 361.95C268.398 357.328 260.281 369.274 260.281 369.274Z" fill="#3E2D37"/>
<path d="M264.25 377.844L275.579 378.031" stroke="#F49D6C" stroke-linecap="round" stroke-linejoin="round"/>
<path d="M263.117 381.339L274.305 381.197" stroke="#F49D6C" stroke-linecap="round" stroke-linejoin="round"/>
<path d="M230.407 383.6C229.722 383.283 228.975 383.124 228.22 383.135C227.405 383.14 226.602 383.334 225.875 383.702" stroke="#543921" stroke-linecap="round" stroke-linejoin="round"/>
<path d="M251.914 382.966C251.182 382.422 250.3 382.115 249.388 382.088C248.424 382.152 247.514 382.553 246.816 383.221" stroke="#543921" stroke-linecap="round" stroke-linejoin="round"/>
<path d="M235.005 405.195C235.866 405.433 241.14 406.401 245.048 405.795C247.783 405.282 250.433 404.39 252.922 403.145C252.922 403.145 249.982 413.907 238.698 413.907C236.093 412.1 234.139 404.951 235.005 405.195Z" fill="#543921"/>
<path d="M243.163 409.865C245.083 408.885 250.357 407.707 248.98 409.248C246.545 411.995 243.055 413.213 240.433 413.598C239.424 413.74 241.237 410.845 243.163 409.865Z" fill="#F26061"/>
<path d="M236.029 405.571C238.907 406.104 241.849 406.21 244.758 405.888C246.78 405.586 248.759 405.046 250.655 404.279C249.924 405.135 248.955 405.979 246.599 407.112C244.243 408.244 236.833 408.55 236.595 408.001C235.938 406.488 235.808 405.537 236.029 405.571Z" fill="#F9EDE2"/>
<path d="M256.887 393.518C257.179 393.801 257.441 394.114 257.668 394.452C257.896 394.859 258.017 395.317 258.02 395.783" stroke="#543921" stroke-linecap="round" stroke-linejoin="round"/>
<path d="M259.152 392.951C259.458 393.226 259.721 393.545 259.934 393.897C260.161 394.3 260.28 394.755 260.28 395.217" stroke="#543921" stroke-linecap="round" stroke-linejoin="round"/>
<path d="M254.617 393.518C254.914 393.881 255.176 394.271 255.399 394.684C255.63 395.209 255.75 395.776 255.75 396.35" stroke="#543921" stroke-linecap="round" stroke-linejoin="round"/>
<path d="M226.449 396.907C230.357 396.771 233.388 392.727 233.218 387.878C233.048 383.029 229.751 379.217 225.854 379.353C221.957 379.489 218.915 383.539 219.085 388.382C219.255 393.225 222.54 397.049 226.449 396.907Z" stroke="#231F20" stroke-miterlimit="10"/>
<path d="M250.016 398.041C254.706 397.888 258.342 393.453 258.144 388.139C257.946 382.826 253.987 378.64 249.296 378.793C244.606 378.946 240.97 383.376 241.168 388.695C241.366 394.014 245.331 398.194 250.016 398.041Z" stroke="#231F20" stroke-miterlimit="10"/>
<path d="M233.23 388.985C233.23 388.985 236.754 385.586 241.161 388.985" stroke="#231F20" stroke-miterlimit="10"/>
<path d="M258.59 388.983L274.309 387.283" stroke="#231F20" stroke-miterlimit="10"/>
<path d="M265.738 385.23H272.536" stroke="#F49D6C" stroke-linecap="round" stroke-linejoin="round"/>
<ellipse cx="248.387" cy="388.369" rx="1.57056" ry="2.09408" fill="#543921"/>
<ellipse cx="228.496" cy="388.369" rx="1.57056" ry="2.09408" fill="#543921"/>
<path d="M108.439 544.651L106.047 528.094L283.2 536.814L282.034 551.348C276.906 562.51 260.473 566.463 252.897 567.045C219.332 568.905 143.015 553.178 108.439 544.651Z" fill="#DAA75A"/>
<path d="M118.284 514.724L155.579 494.377L277.371 524.607C281.256 527.514 287.06 533.491 279.134 544.653C271.209 555.815 246.621 556.006 233.615 556.006C196.514 549.805 118.866 537.514 109.543 533.328C100.219 529.142 111.485 519.181 118.284 514.724Z" fill="#DFBB85"/>
<path d="M259.662 525.572C259.974 525.497 260.305 525.557 260.581 525.737C260.858 525.917 261.058 526.203 261.137 526.533C261.216 526.862 261.168 527.208 261.003 527.494C260.838 527.779 260.57 527.982 260.258 528.056L221.238 537.372L218.445 535.412L259.662 525.572Z" fill="#988189"/>
<path d="M261.176 526.009L220.73 535.771L207.031 512.342L261.176 526.009Z" fill="#988189"/>
<path d="M209.257 482.359C209.526 482.376 209.785 482.467 210.006 482.621C210.226 482.776 210.4 482.988 210.507 483.235L221.125 537.887L146.296 526.753C146.035 526.736 145.783 526.649 145.567 526.502C145.35 526.354 145.178 526.152 145.067 525.915L132.876 475.411C132.711 475.061 132.693 474.66 132.824 474.296C132.956 473.932 133.227 473.635 133.578 473.47C133.8 473.366 134.045 473.32 134.29 473.336L209.257 482.359Z" fill="url(#paint16_linear_5475_2968)"/>
<path d="M178.992 506.1C178.992 507.644 178.589 508.999 177.865 509.956C177.151 510.899 176.108 511.48 174.738 511.48C173.343 511.48 171.873 510.876 170.751 509.883C169.631 508.892 168.898 507.55 168.898 506.1C168.898 504.557 169.301 503.201 170.025 502.245C170.739 501.302 171.782 500.721 173.153 500.721C174.548 500.721 176.018 501.324 177.14 502.317C178.26 503.309 178.992 504.651 178.992 506.1Z" stroke="#16D2AA"/>
<path d="M171.173 505.116C171.173 505.834 171.144 506.54 171.355 507.204C171.55 507.818 171.858 508.573 172.359 508.519C172.615 508.491 172.782 508.183 172.916 507.866C173.14 507.339 173.212 506.687 173.229 506.066C173.241 505.657 173.247 505.252 173.247 504.844C173.247 504.691 173.268 504.509 173.224 504.371" stroke="#16D2AA" stroke-linecap="round"/>
<path d="M174.794 508.521C174.794 508.038 174.799 507.553 174.751 507.07C174.711 506.671 174.645 506.287 174.645 505.885C174.645 505.53 174.581 505.11 174.803 504.785C174.954 504.566 175.316 504.448 175.61 504.398C176.014 504.33 176.43 504.376 176.582 504.707C176.715 504.996 176.765 505.352 176.661 505.65C176.495 506.129 175.929 506.374 175.327 506.444" stroke="#16D2AA" stroke-linecap="round"/>
<defs>
<radialGradient id="paint0_radial_5475_2968" cx="0" cy="0" r="1" gradientUnits="userSpaceOnUse" gradientTransform="translate(340.783 343.718) rotate(90) scale(237.561 302.403)">
<stop stop-color="#95C9E6"/>
<stop offset="1" stop-color="#C6DDEA" stop-opacity="0"/>
</radialGradient>
<linearGradient id="paint1_linear_5475_2968" x1="224.408" y1="475.694" x2="224.408" y2="492.235" gradientUnits="userSpaceOnUse">
<stop stop-color="#667BA2"/>
<stop offset="1" stop-color="#667BA2" stop-opacity="0"/>
</linearGradient>
<linearGradient id="paint2_linear_5475_2968" x1="226.541" y1="469.669" x2="226.541" y2="487.86" gradientUnits="userSpaceOnUse">
<stop stop-color="#667BA2"/>
<stop offset="1" stop-color="#667BA2" stop-opacity="0"/>
</linearGradient>
<linearGradient id="paint3_linear_5475_2968" x1="353.867" y1="416.305" x2="352.22" y2="443.061" gradientUnits="userSpaceOnUse">
<stop stop-color="#33415E"/>
<stop offset="1" stop-color="#33415E" stop-opacity="0"/>
</linearGradient>
<linearGradient id="paint4_linear_5475_2968" x1="308.508" y1="399.457" x2="304.883" y2="444.051" gradientUnits="userSpaceOnUse">
<stop stop-color="#2F3541"/>
<stop offset="0.516202" stop-color="#2F3541" stop-opacity="0.540357"/>
<stop offset="1" stop-color="#2F3541" stop-opacity="0"/>
</linearGradient>
<linearGradient id="paint5_linear_5475_2968" x1="422.625" y1="507.475" x2="420.653" y2="536.213" gradientUnits="userSpaceOnUse">
<stop stop-color="#5B77AF"/>
<stop offset="1" stop-color="#5B77AF" stop-opacity="0"/>
</linearGradient>
<linearGradient id="paint6_linear_5475_2968" x1="176.426" y1="476.478" x2="175.445" y2="490.005" gradientUnits="userSpaceOnUse">
<stop stop-color="#2F3541"/>
<stop offset="1" stop-color="#2F3541" stop-opacity="0"/>
</linearGradient>
<linearGradient id="paint7_linear_5475_2968" x1="215.103" y1="482.207" x2="213.124" y2="499.066" gradientUnits="userSpaceOnUse">
<stop stop-color="#33415E"/>
<stop offset="1" stop-color="#33415E" stop-opacity="0"/>
</linearGradient>
<linearGradient id="paint8_linear_5475_2968" x1="442.373" y1="527.737" x2="442.373" y2="544.278" gradientUnits="userSpaceOnUse">
<stop stop-color="#667BA2"/>
<stop offset="1" stop-color="#667BA2" stop-opacity="0"/>
</linearGradient>
<linearGradient id="paint9_linear_5475_2968" x1="467.676" y1="521.712" x2="467.676" y2="539.903" gradientUnits="userSpaceOnUse">
<stop stop-color="#667BA2"/>
<stop offset="1" stop-color="#667BA2" stop-opacity="0"/>
</linearGradient>
<linearGradient id="paint10_linear_5475_2968" x1="394.509" y1="506.037" x2="393.198" y2="530.12" gradientUnits="userSpaceOnUse">
<stop stop-color="#526A9B"/>
<stop offset="1" stop-color="#526A9B" stop-opacity="0"/>
</linearGradient>
<linearGradient id="paint11_linear_5475_2968" x1="386.92" y1="357.943" x2="386.478" y2="405.378" gradientUnits="userSpaceOnUse">
<stop stop-color="#D1C6C6"/>
<stop offset="1" stop-color="#988189"/>
</linearGradient>
<linearGradient id="paint12_linear_5475_2968" x1="223.588" y1="654.077" x2="223.588" y2="671.396" gradientUnits="userSpaceOnUse">
<stop stop-color="#667BA2"/>
<stop offset="1" stop-color="#667BA2" stop-opacity="0"/>
</linearGradient>
<linearGradient id="paint13_linear_5475_2968" x1="250.082" y1="647.768" x2="250.082" y2="666.815" gradientUnits="userSpaceOnUse">
<stop stop-color="#667BA2"/>
<stop offset="1" stop-color="#667BA2" stop-opacity="0"/>
</linearGradient>
<linearGradient id="paint14_linear_5475_2968" x1="173.473" y1="631.356" x2="172.1" y2="656.571" gradientUnits="userSpaceOnUse">
<stop stop-color="#334872"/>
<stop offset="1" stop-color="#213254" stop-opacity="0"/>
</linearGradient>
<linearGradient id="paint15_linear_5475_2968" x1="214.428" y1="632.861" x2="212.363" y2="662.95" gradientUnits="userSpaceOnUse">
<stop stop-color="#365085"/>
<stop offset="1" stop-color="#5B77AF" stop-opacity="0"/>
</linearGradient>
<linearGradient id="paint16_linear_5475_2968" x1="171.215" y1="479.147" x2="170.752" y2="528.814" gradientUnits="userSpaceOnUse">
<stop stop-color="#D1C6C6"/>
<stop offset="1" stop-color="#988189"/>
</linearGradient>
</defs>
</svg>
