<svg width="681" height="692" viewBox="0 0 681 692" fill="none" xmlns="http://www.w3.org/2000/svg">
<path d="M69.7348 19.448C69.2788 20.984 68.5588 22.268 67.5748 23.3C66.5908 24.332 65.4268 25.1 64.0828 25.604C62.7388 26.108 61.2628 26.36 59.6548 26.36C57.3028 26.36 55.2628 25.868 53.5348 24.884C51.8308 23.9 50.5108 22.496 49.5748 20.672C48.6628 18.848 48.2068 16.664 48.2068 14.12C48.2068 11.576 48.6628 9.392 49.5748 7.568C50.5108 5.744 51.8308 4.34 53.5348 3.356C55.2628 2.372 57.2788 1.88 59.5828 1.88C61.2148 1.88 62.6908 2.108 64.0108 2.564C65.3308 2.996 66.4468 3.668 67.3588 4.58C68.2948 5.492 68.9788 6.644 69.4108 8.036L64.9108 9.944C64.5028 8.504 63.8788 7.484 63.0388 6.884C62.1988 6.26 61.1188 5.948 59.7988 5.948C58.5028 5.948 57.3628 6.26 56.3788 6.884C55.4188 7.508 54.6748 8.432 54.1468 9.656C53.6188 10.856 53.3548 12.344 53.3548 14.12C53.3548 15.872 53.5948 17.36 54.0748 18.584C54.5788 19.808 55.3108 20.732 56.2708 21.356C57.2308 21.98 58.4068 22.292 59.7988 22.292C61.0948 22.292 62.2108 21.944 63.1468 21.248C64.1068 20.552 64.7788 19.496 65.1628 18.08L69.7348 19.448ZM81.673 7.64C83.497 7.64 85.093 8.012 86.461 8.756C87.853 9.5 88.933 10.568 89.701 11.96C90.493 13.352 90.889 15.032 90.889 17C90.889 18.944 90.493 20.624 89.701 22.04C88.933 23.432 87.853 24.5 86.461 25.244C85.093 25.988 83.497 26.36 81.673 26.36C79.873 26.36 78.277 25.988 76.885 25.244C75.493 24.5 74.401 23.432 73.609 22.04C72.841 20.624 72.457 18.944 72.457 17C72.457 15.032 72.841 13.352 73.609 11.96C74.401 10.568 75.493 9.5 76.885 8.756C78.277 8.012 79.873 7.64 81.673 7.64ZM81.673 11.312C80.761 11.312 79.981 11.528 79.333 11.96C78.709 12.368 78.229 12.992 77.893 13.832C77.557 14.672 77.389 15.728 77.389 17C77.389 18.272 77.557 19.328 77.893 20.168C78.229 21.008 78.709 21.644 79.333 22.076C79.981 22.484 80.761 22.688 81.673 22.688C82.561 22.688 83.317 22.484 83.941 22.076C84.589 21.644 85.081 21.008 85.417 20.168C85.753 19.328 85.921 18.272 85.921 17C85.921 15.728 85.753 14.672 85.417 13.832C85.081 12.992 84.589 12.368 83.941 11.96C83.317 11.528 82.561 11.312 81.673 11.312ZM95.0158 26V8H99.4438L99.7318 13.4L99.1198 12.824C99.4078 11.648 99.8638 10.676 100.488 9.908C101.112 9.14 101.868 8.576 102.756 8.216C103.668 7.832 104.664 7.64 105.744 7.64C106.992 7.64 108.096 7.88 109.056 8.36C110.04 8.84 110.808 9.572 111.36 10.556C111.936 11.516 112.224 12.728 112.224 14.192V26H107.292V15.596C107.292 14.06 106.992 13.004 106.392 12.428C105.792 11.828 105.012 11.528 104.052 11.528C103.38 11.528 102.72 11.696 102.072 12.032C101.448 12.344 100.932 12.86 100.524 13.58C100.14 14.3 99.9478 15.26 99.9478 16.46V26H95.0158ZM117.305 26V8H121.733L122.021 13.4L121.409 12.824C121.697 11.648 122.153 10.676 122.777 9.908C123.401 9.14 124.157 8.576 125.045 8.216C125.957 7.832 126.953 7.64 128.033 7.64C129.281 7.64 130.385 7.88 131.345 8.36C132.329 8.84 133.097 9.572 133.649 10.556C134.225 11.516 134.513 12.728 134.513 14.192V26H129.581V15.596C129.581 14.06 129.281 13.004 128.681 12.428C128.081 11.828 127.301 11.528 126.341 11.528C125.669 11.528 125.009 11.696 124.361 12.032C123.737 12.344 123.221 12.86 122.813 13.58C122.429 14.3 122.237 15.26 122.237 16.46V26H117.305ZM147.946 26.36C146.05 26.36 144.394 25.988 142.978 25.244C141.586 24.5 140.506 23.432 139.738 22.04C138.97 20.648 138.586 18.968 138.586 17C138.586 15.032 138.97 13.352 139.738 11.96C140.506 10.568 141.574 9.5 142.942 8.756C144.334 8.012 145.918 7.64 147.694 7.64C149.518 7.64 151.066 8.012 152.338 8.756C153.61 9.476 154.582 10.472 155.254 11.744C155.926 12.992 156.262 14.42 156.262 16.028C156.262 16.508 156.25 16.964 156.226 17.396C156.202 17.828 156.166 18.212 156.118 18.548H141.754V15.128H153.958L151.582 15.992C151.582 14.48 151.234 13.316 150.538 12.5C149.866 11.684 148.906 11.276 147.658 11.276C146.746 11.276 145.954 11.492 145.282 11.924C144.634 12.356 144.142 13.004 143.806 13.868C143.47 14.708 143.302 15.776 143.302 17.072C143.302 18.344 143.482 19.4 143.842 20.24C144.226 21.056 144.754 21.668 145.426 22.076C146.122 22.484 146.95 22.688 147.91 22.688C148.966 22.688 149.818 22.484 150.466 22.076C151.114 21.668 151.618 21.104 151.978 20.384L155.902 21.896C155.518 22.832 154.93 23.636 154.138 24.308C153.37 24.98 152.446 25.496 151.366 25.856C150.31 26.192 149.17 26.36 147.946 26.36ZM168.614 7.64C170.222 7.64 171.578 7.88 172.682 8.36C173.81 8.816 174.71 9.452 175.382 10.268C176.078 11.06 176.57 11.948 176.858 12.932L172.25 14.588C172.01 13.508 171.602 12.692 171.026 12.14C170.45 11.588 169.67 11.312 168.686 11.312C167.774 11.312 166.994 11.528 166.346 11.96C165.698 12.368 165.206 13.004 164.87 13.868C164.534 14.708 164.366 15.764 164.366 17.036C164.366 18.308 164.534 19.364 164.87 20.204C165.23 21.044 165.734 21.668 166.382 22.076C167.054 22.484 167.834 22.688 168.722 22.688C169.442 22.688 170.054 22.568 170.558 22.328C171.062 22.064 171.47 21.692 171.782 21.212C172.118 20.732 172.346 20.156 172.466 19.484L176.93 20.924C176.666 22.004 176.174 22.952 175.454 23.768C174.734 24.584 173.81 25.22 172.682 25.676C171.554 26.132 170.246 26.36 168.758 26.36C166.91 26.36 165.278 25.988 163.862 25.244C162.446 24.5 161.354 23.432 160.586 22.04C159.818 20.648 159.434 18.968 159.434 17C159.434 15.032 159.818 13.352 160.586 11.96C161.354 10.568 162.434 9.5 163.826 8.756C165.218 8.012 166.814 7.64 168.614 7.64ZM187.134 2.492V20.132C187.134 20.996 187.35 21.632 187.782 22.04C188.238 22.424 188.85 22.616 189.618 22.616C190.218 22.616 190.746 22.532 191.202 22.364C191.658 22.172 192.066 21.92 192.426 21.608L193.218 24.884C192.642 25.34 191.922 25.7 191.058 25.964C190.194 26.228 189.282 26.36 188.322 26.36C187.122 26.36 186.054 26.18 185.118 25.82C184.206 25.46 183.486 24.884 182.958 24.092C182.454 23.3 182.202 22.244 182.202 20.924V3.86L187.134 2.492ZM192.894 8V11.672H178.89V8H192.894ZM223.592 8L216.32 27.116C215.744 28.748 215.096 30.044 214.376 31.004C213.68 31.964 212.864 32.66 211.928 33.092C211.016 33.524 209.924 33.74 208.652 33.74C207.716 33.74 206.852 33.62 206.06 33.38C205.292 33.164 204.62 32.876 204.044 32.516L205.088 28.952C205.544 29.312 206.024 29.564 206.528 29.708C207.032 29.876 207.608 29.96 208.256 29.96C208.928 29.96 209.504 29.816 209.984 29.528C210.488 29.24 210.908 28.664 211.244 27.8L211.856 26.252L209.876 21.572L204.368 8H209.84L213.26 18.8L214.196 22.4L215.312 18.584L218.588 8H223.592ZM234.321 7.64C236.145 7.64 237.741 8.012 239.109 8.756C240.501 9.5 241.581 10.568 242.349 11.96C243.141 13.352 243.537 15.032 243.537 17C243.537 18.944 243.141 20.624 242.349 22.04C241.581 23.432 240.501 24.5 239.109 25.244C237.741 25.988 236.145 26.36 234.321 26.36C232.521 26.36 230.925 25.988 229.533 25.244C228.141 24.5 227.049 23.432 226.257 22.04C225.489 20.624 225.105 18.944 225.105 17C225.105 15.032 225.489 13.352 226.257 11.96C227.049 10.568 228.141 9.5 229.533 8.756C230.925 8.012 232.521 7.64 234.321 7.64ZM234.321 11.312C233.409 11.312 232.629 11.528 231.981 11.96C231.357 12.368 230.877 12.992 230.541 13.832C230.205 14.672 230.037 15.728 230.037 17C230.037 18.272 230.205 19.328 230.541 20.168C230.877 21.008 231.357 21.644 231.981 22.076C232.629 22.484 233.409 22.688 234.321 22.688C235.209 22.688 235.965 22.484 236.589 22.076C237.237 21.644 237.729 21.008 238.065 20.168C238.401 19.328 238.569 18.272 238.569 17C238.569 15.728 238.401 14.672 238.065 13.832C237.729 12.992 237.237 12.368 236.589 11.96C235.965 11.528 235.209 11.312 234.321 11.312ZM253.928 26.36C252.728 26.36 251.648 26.144 250.688 25.712C249.728 25.28 248.96 24.596 248.384 23.66C247.832 22.7 247.556 21.464 247.556 19.952V8H252.488V18.764C252.488 20.156 252.776 21.128 253.352 21.68C253.928 22.208 254.756 22.472 255.836 22.472C256.34 22.472 256.832 22.388 257.312 22.22C257.792 22.028 258.212 21.74 258.572 21.356C258.956 20.972 259.256 20.48 259.472 19.88C259.688 19.256 259.796 18.524 259.796 17.684V8H264.728V26H260.336L260.156 22.868C259.556 24.068 258.728 24.956 257.672 25.532C256.64 26.084 255.392 26.36 253.928 26.36ZM269.918 26V8H274.202L274.526 11.528C275.006 10.28 275.702 9.32 276.614 8.648C277.55 7.976 278.714 7.64 280.106 7.64C280.514 7.64 280.886 7.676 281.222 7.748C281.558 7.82 281.834 7.916 282.05 8.036L281.474 12.176C281.234 12.08 280.934 12.008 280.574 11.96C280.238 11.912 279.794 11.888 279.242 11.888C278.522 11.888 277.826 12.068 277.154 12.428C276.482 12.764 275.93 13.292 275.498 14.012C275.066 14.708 274.85 15.596 274.85 16.676V26H269.918ZM304.622 1.88C306.782 1.88 308.678 2.252 310.31 2.996C311.942 3.74 313.334 4.844 314.486 6.308L311.714 9.512C310.73 8.264 309.65 7.352 308.474 6.776C307.322 6.176 305.978 5.876 304.442 5.876C303.434 5.876 302.594 6.008 301.922 6.272C301.274 6.536 300.794 6.884 300.482 7.316C300.194 7.748 300.05 8.228 300.05 8.756C300.05 9.404 300.302 9.956 300.806 10.412C301.31 10.844 302.174 11.204 303.398 11.492L307.826 12.5C310.178 13.028 311.858 13.82 312.866 14.876C313.898 15.908 314.414 17.252 314.414 18.908C314.414 20.468 314.006 21.812 313.19 22.94C312.374 24.044 311.234 24.896 309.77 25.496C308.306 26.072 306.626 26.36 304.73 26.36C303.074 26.36 301.55 26.168 300.158 25.784C298.79 25.376 297.566 24.824 296.486 24.128C295.406 23.432 294.506 22.628 293.786 21.716L296.594 18.368C297.146 19.136 297.83 19.82 298.646 20.42C299.462 21.02 300.386 21.5 301.418 21.86C302.474 22.196 303.578 22.364 304.73 22.364C305.714 22.364 306.542 22.256 307.214 22.04C307.91 21.8 308.426 21.476 308.762 21.068C309.122 20.636 309.302 20.12 309.302 19.52C309.302 18.896 309.086 18.368 308.654 17.936C308.246 17.48 307.478 17.132 306.35 16.892L301.526 15.812C300.134 15.476 298.934 15.044 297.926 14.516C296.942 13.964 296.186 13.268 295.658 12.428C295.154 11.564 294.902 10.544 294.902 9.368C294.902 7.952 295.286 6.68 296.054 5.552C296.822 4.424 297.926 3.536 299.366 2.888C300.83 2.216 302.582 1.88 304.622 1.88ZM324.982 2.492V20.132C324.982 20.996 325.198 21.632 325.63 22.04C326.086 22.424 326.698 22.616 327.466 22.616C328.066 22.616 328.594 22.532 329.05 22.364C329.506 22.172 329.914 21.92 330.274 21.608L331.066 24.884C330.49 25.34 329.77 25.7 328.906 25.964C328.042 26.228 327.13 26.36 326.17 26.36C324.97 26.36 323.902 26.18 322.966 25.82C322.054 25.46 321.334 24.884 320.806 24.092C320.302 23.3 320.05 22.244 320.05 20.924V3.86L324.982 2.492ZM330.742 8V11.672H316.738V8H330.742ZM340.342 26.36C339.142 26.36 338.062 26.144 337.102 25.712C336.142 25.28 335.374 24.596 334.798 23.66C334.246 22.7 333.97 21.464 333.97 19.952V8H338.902V18.764C338.902 20.156 339.19 21.128 339.766 21.68C340.342 22.208 341.17 22.472 342.25 22.472C342.754 22.472 343.246 22.388 343.726 22.22C344.206 22.028 344.626 21.74 344.986 21.356C345.37 20.972 345.67 20.48 345.886 19.88C346.102 19.256 346.21 18.524 346.21 17.684V8H351.142V26H346.75L346.57 22.868C345.97 24.068 345.142 24.956 344.086 25.532C343.054 26.084 341.806 26.36 340.342 26.36ZM363.136 26.36C361.648 26.36 360.316 25.988 359.14 25.244C357.988 24.5 357.076 23.432 356.404 22.04C355.756 20.648 355.432 18.98 355.432 17.036C355.432 15.044 355.78 13.352 356.476 11.96C357.172 10.544 358.108 9.476 359.284 8.756C360.484 8.012 361.828 7.64 363.316 7.64C364.9 7.64 366.208 8.096 367.24 9.008C368.272 9.92 368.944 11.096 369.256 12.536L368.788 13.112V0.115999H373.72V26H369.292L368.968 20.528L369.58 20.816C369.412 21.944 369.028 22.928 368.428 23.768C367.828 24.584 367.072 25.22 366.16 25.676C365.248 26.132 364.24 26.36 363.136 26.36ZM364.576 22.58C365.44 22.58 366.184 22.364 366.808 21.932C367.432 21.476 367.912 20.816 368.248 19.952C368.608 19.088 368.788 18.056 368.788 16.856C368.788 15.704 368.62 14.732 368.284 13.94C367.948 13.124 367.468 12.5 366.844 12.068C366.22 11.636 365.488 11.42 364.648 11.42C363.304 11.42 362.248 11.9 361.48 12.86C360.736 13.796 360.364 15.176 360.364 17C360.364 18.824 360.736 20.216 361.48 21.176C362.224 22.112 363.256 22.58 364.576 22.58ZM387.255 26.36C385.359 26.36 383.703 25.988 382.287 25.244C380.895 24.5 379.815 23.432 379.047 22.04C378.279 20.648 377.895 18.968 377.895 17C377.895 15.032 378.279 13.352 379.047 11.96C379.815 10.568 380.883 9.5 382.251 8.756C383.643 8.012 385.227 7.64 387.003 7.64C388.827 7.64 390.375 8.012 391.647 8.756C392.919 9.476 393.891 10.472 394.563 11.744C395.235 12.992 395.571 14.42 395.571 16.028C395.571 16.508 395.559 16.964 395.535 17.396C395.511 17.828 395.475 18.212 395.427 18.548H381.063V15.128H393.267L390.891 15.992C390.891 14.48 390.543 13.316 389.847 12.5C389.175 11.684 388.215 11.276 386.967 11.276C386.055 11.276 385.263 11.492 384.591 11.924C383.943 12.356 383.451 13.004 383.115 13.868C382.779 14.708 382.611 15.776 382.611 17.072C382.611 18.344 382.791 19.4 383.151 20.24C383.535 21.056 384.063 21.668 384.735 22.076C385.431 22.484 386.259 22.688 387.219 22.688C388.275 22.688 389.127 22.484 389.775 22.076C390.423 21.668 390.927 21.104 391.287 20.384L395.211 21.896C394.827 22.832 394.239 23.636 393.447 24.308C392.679 24.98 391.755 25.496 390.675 25.856C389.619 26.192 388.479 26.36 387.255 26.36ZM399.75 26V8H404.178L404.466 13.4L403.854 12.824C404.142 11.648 404.598 10.676 405.222 9.908C405.846 9.14 406.602 8.576 407.49 8.216C408.402 7.832 409.398 7.64 410.478 7.64C411.726 7.64 412.83 7.88 413.79 8.36C414.774 8.84 415.542 9.572 416.094 10.556C416.67 11.516 416.958 12.728 416.958 14.192V26H412.026V15.596C412.026 14.06 411.726 13.004 411.126 12.428C410.526 11.828 409.746 11.528 408.786 11.528C408.114 11.528 407.454 11.696 406.806 12.032C406.182 12.344 405.666 12.86 405.258 13.58C404.874 14.3 404.682 15.26 404.682 16.46V26H399.75ZM428.271 2.492V20.132C428.271 20.996 428.487 21.632 428.919 22.04C429.375 22.424 429.987 22.616 430.755 22.616C431.355 22.616 431.883 22.532 432.339 22.364C432.795 22.172 433.203 21.92 433.563 21.608L434.355 24.884C433.779 25.34 433.059 25.7 432.195 25.964C431.331 26.228 430.419 26.36 429.459 26.36C428.259 26.36 427.191 26.18 426.255 25.82C425.343 25.46 424.623 24.884 424.095 24.092C423.591 23.3 423.339 22.244 423.339 20.924V3.86L428.271 2.492ZM434.031 8V11.672H420.027V8H434.031ZM444.567 26.36C442.743 26.36 441.075 26.036 439.563 25.388C438.075 24.74 436.863 23.828 435.927 22.652L438.771 19.772C439.347 20.636 440.115 21.344 441.075 21.896C442.035 22.448 443.175 22.724 444.495 22.724C445.431 22.724 446.175 22.592 446.727 22.328C447.303 22.04 447.591 21.596 447.591 20.996C447.591 20.612 447.459 20.288 447.195 20.024C446.931 19.736 446.403 19.508 445.611 19.34L442.443 18.692C440.355 18.26 438.867 17.612 437.979 16.748C437.115 15.86 436.683 14.72 436.683 13.328C436.683 12.344 436.971 11.42 437.547 10.556C438.147 9.692 439.035 8.996 440.211 8.468C441.387 7.916 442.851 7.64 444.603 7.64C446.403 7.64 447.963 7.928 449.283 8.504C450.627 9.056 451.683 9.884 452.451 10.988L449.499 13.868C448.971 13.028 448.275 12.392 447.411 11.96C446.571 11.504 445.683 11.276 444.747 11.276C444.075 11.276 443.499 11.348 443.019 11.492C442.539 11.636 442.179 11.84 441.939 12.104C441.699 12.344 441.579 12.656 441.579 13.04C441.579 13.424 441.747 13.76 442.083 14.048C442.419 14.312 443.031 14.54 443.919 14.732L447.591 15.488C449.367 15.848 450.639 16.46 451.407 17.324C452.175 18.164 452.559 19.184 452.559 20.384C452.559 21.536 452.247 22.568 451.623 23.48C451.023 24.368 450.123 25.076 448.923 25.604C447.747 26.108 446.295 26.36 444.567 26.36ZM473.446 2.492V20.132C473.446 20.996 473.662 21.632 474.094 22.04C474.55 22.424 475.162 22.616 475.93 22.616C476.53 22.616 477.058 22.532 477.514 22.364C477.97 22.172 478.378 21.92 478.738 21.608L479.53 24.884C478.954 25.34 478.234 25.7 477.37 25.964C476.506 26.228 475.594 26.36 474.634 26.36C473.434 26.36 472.366 26.18 471.43 25.82C470.518 25.46 469.798 24.884 469.27 24.092C468.766 23.3 468.514 22.244 468.514 20.924V3.86L473.446 2.492ZM479.206 8V11.672H465.202V8H479.206ZM490.751 7.64C492.575 7.64 494.171 8.012 495.539 8.756C496.931 9.5 498.011 10.568 498.779 11.96C499.571 13.352 499.967 15.032 499.967 17C499.967 18.944 499.571 20.624 498.779 22.04C498.011 23.432 496.931 24.5 495.539 25.244C494.171 25.988 492.575 26.36 490.751 26.36C488.951 26.36 487.355 25.988 485.963 25.244C484.571 24.5 483.479 23.432 482.687 22.04C481.919 20.624 481.535 18.944 481.535 17C481.535 15.032 481.919 13.352 482.687 11.96C483.479 10.568 484.571 9.5 485.963 8.756C487.355 8.012 488.951 7.64 490.751 7.64ZM490.751 11.312C489.839 11.312 489.059 11.528 488.411 11.96C487.787 12.368 487.307 12.992 486.971 13.832C486.635 14.672 486.467 15.728 486.467 17C486.467 18.272 486.635 19.328 486.971 20.168C487.307 21.008 487.787 21.644 488.411 22.076C489.059 22.484 489.839 22.688 490.751 22.688C491.639 22.688 492.395 22.484 493.019 22.076C493.667 21.644 494.159 21.008 494.495 20.168C494.831 19.328 494.999 18.272 494.999 17C494.999 15.728 494.831 14.672 494.495 13.832C494.159 12.992 493.667 12.368 493.019 11.96C492.395 11.528 491.639 11.312 490.751 11.312ZM520.57 22.004H533.098V26H515.602V2.24H520.57V22.004ZM539.203 5.408C538.171 5.408 537.403 5.192 536.899 4.76C536.395 4.304 536.143 3.644 536.143 2.78C536.143 1.892 536.395 1.232 536.899 0.799998C537.403 0.343998 538.171 0.115999 539.203 0.115999C540.235 0.115999 541.003 0.343998 541.507 0.799998C542.011 1.232 542.263 1.892 542.263 2.78C542.263 3.644 542.011 4.304 541.507 4.76C541.003 5.192 540.235 5.408 539.203 5.408ZM541.651 8V26H536.719V8H541.651ZM558.687 8H563.799L556.959 26H551.271L544.431 8H549.687L554.151 22.22L558.687 8ZM574.673 26.36C572.777 26.36 571.121 25.988 569.705 25.244C568.313 24.5 567.233 23.432 566.465 22.04C565.697 20.648 565.313 18.968 565.313 17C565.313 15.032 565.697 13.352 566.465 11.96C567.233 10.568 568.301 9.5 569.669 8.756C571.061 8.012 572.645 7.64 574.421 7.64C576.245 7.64 577.793 8.012 579.065 8.756C580.337 9.476 581.309 10.472 581.981 11.744C582.653 12.992 582.989 14.42 582.989 16.028C582.989 16.508 582.977 16.964 582.953 17.396C582.929 17.828 582.893 18.212 582.845 18.548H568.481V15.128H580.685L578.309 15.992C578.309 14.48 577.961 13.316 577.265 12.5C576.593 11.684 575.633 11.276 574.385 11.276C573.473 11.276 572.681 11.492 572.009 11.924C571.361 12.356 570.869 13.004 570.533 13.868C570.197 14.708 570.029 15.776 570.029 17.072C570.029 18.344 570.209 19.4 570.569 20.24C570.953 21.056 571.481 21.668 572.153 22.076C572.849 22.484 573.677 22.688 574.637 22.688C575.693 22.688 576.545 22.484 577.193 22.076C577.841 21.668 578.345 21.104 578.705 20.384L582.629 21.896C582.245 22.832 581.657 23.636 580.865 24.308C580.097 24.98 579.173 25.496 578.093 25.856C577.037 26.192 575.897 26.36 574.673 26.36ZM589.58 20.492C590.348 20.492 590.984 20.684 591.488 21.068C591.992 21.428 592.376 21.92 592.64 22.544C592.904 23.144 593.036 23.816 593.036 24.56C593.036 25.544 592.832 26.492 592.424 27.404C592.04 28.316 591.5 29.132 590.804 29.852C590.108 30.572 589.316 31.136 588.428 31.544L586.304 29.852C586.952 29.588 587.54 29.264 588.068 28.88C588.62 28.496 589.088 28.064 589.472 27.584C589.856 27.104 590.132 26.612 590.3 26.108L590.12 26C590 26.072 589.856 26.132 589.688 26.18C589.52 26.252 589.28 26.288 588.968 26.288C588.584 26.288 588.2 26.192 587.816 26C587.432 25.784 587.108 25.484 586.844 25.1C586.58 24.692 586.448 24.188 586.448 23.588C586.448 22.94 586.592 22.388 586.88 21.932C587.168 21.476 587.552 21.128 588.032 20.888C588.512 20.624 589.028 20.492 589.58 20.492ZM97.7818 46.88C100.134 46.88 102.162 47.372 103.866 48.356C105.57 49.34 106.878 50.744 107.79 52.568C108.726 54.392 109.194 56.576 109.194 59.12C109.194 61.664 108.726 63.848 107.79 65.672C106.878 67.496 105.57 68.9 103.866 69.884C102.162 70.868 100.134 71.36 97.7818 71.36C95.4298 71.36 93.3898 70.868 91.6618 69.884C89.9578 68.9 88.6378 67.496 87.7018 65.672C86.7898 63.848 86.3338 61.664 86.3338 59.12C86.3338 56.576 86.7898 54.392 87.7018 52.568C88.6378 50.744 89.9578 49.34 91.6618 48.356C93.3898 47.372 95.4298 46.88 97.7818 46.88ZM97.7818 50.948C96.4378 50.948 95.2978 51.26 94.3618 51.884C93.4258 52.508 92.7058 53.432 92.2018 54.656C91.7218 55.856 91.4818 57.344 91.4818 59.12C91.4818 60.872 91.7218 62.36 92.2018 63.584C92.7058 64.808 93.4258 65.732 94.3618 66.356C95.2978 66.98 96.4378 67.292 97.7818 67.292C99.1018 67.292 100.23 66.98 101.166 66.356C102.102 65.732 102.81 64.808 103.29 63.584C103.794 62.36 104.046 60.872 104.046 59.12C104.046 57.344 103.794 55.856 103.29 54.656C102.81 53.432 102.102 52.508 101.166 51.884C100.23 51.26 99.1018 50.948 97.7818 50.948ZM113.596 71V53H118.024L118.312 58.4L117.7 57.824C117.988 56.648 118.444 55.676 119.068 54.908C119.692 54.14 120.448 53.576 121.336 53.216C122.248 52.832 123.244 52.64 124.324 52.64C125.572 52.64 126.676 52.88 127.636 53.36C128.62 53.84 129.388 54.572 129.94 55.556C130.516 56.516 130.804 57.728 130.804 59.192V71H125.872V60.596C125.872 59.06 125.572 58.004 124.972 57.428C124.372 56.828 123.592 56.528 122.632 56.528C121.96 56.528 121.3 56.696 120.652 57.032C120.028 57.344 119.512 57.86 119.104 58.58C118.72 59.3 118.528 60.26 118.528 61.46V71H113.596ZM144.237 71.36C142.341 71.36 140.685 70.988 139.269 70.244C137.877 69.5 136.797 68.432 136.029 67.04C135.261 65.648 134.877 63.968 134.877 62C134.877 60.032 135.261 58.352 136.029 56.96C136.797 55.568 137.865 54.5 139.233 53.756C140.625 53.012 142.209 52.64 143.985 52.64C145.809 52.64 147.357 53.012 148.629 53.756C149.901 54.476 150.873 55.472 151.545 56.744C152.217 57.992 152.553 59.42 152.553 61.028C152.553 61.508 152.541 61.964 152.517 62.396C152.493 62.828 152.457 63.212 152.409 63.548H138.045V60.128H150.249L147.873 60.992C147.873 59.48 147.525 58.316 146.829 57.5C146.157 56.684 145.197 56.276 143.949 56.276C143.037 56.276 142.245 56.492 141.573 56.924C140.925 57.356 140.433 58.004 140.097 58.868C139.761 59.708 139.593 60.776 139.593 62.072C139.593 63.344 139.773 64.4 140.133 65.24C140.517 66.056 141.045 66.668 141.717 67.076C142.413 67.484 143.241 67.688 144.201 67.688C145.257 67.688 146.109 67.484 146.757 67.076C147.405 66.668 147.909 66.104 148.269 65.384L152.193 66.896C151.809 67.832 151.221 68.636 150.429 69.308C149.661 69.98 148.737 70.496 147.657 70.856C146.601 71.192 145.461 71.36 144.237 71.36ZM169.873 59.336V63.584H157.165V59.336H169.873ZM181.28 47.492V65.132C181.28 65.996 181.496 66.632 181.928 67.04C182.384 67.424 182.996 67.616 183.764 67.616C184.364 67.616 184.892 67.532 185.348 67.364C185.804 67.172 186.212 66.92 186.572 66.608L187.364 69.884C186.788 70.34 186.068 70.7 185.204 70.964C184.34 71.228 183.428 71.36 182.468 71.36C181.268 71.36 180.2 71.18 179.264 70.82C178.352 70.46 177.632 69.884 177.104 69.092C176.6 68.3 176.348 67.244 176.348 65.924V48.86L181.28 47.492ZM187.04 53V56.672H173.036V53H187.04ZM198.585 52.64C200.409 52.64 202.005 53.012 203.373 53.756C204.765 54.5 205.845 55.568 206.613 56.96C207.405 58.352 207.801 60.032 207.801 62C207.801 63.944 207.405 65.624 206.613 67.04C205.845 68.432 204.765 69.5 203.373 70.244C202.005 70.988 200.409 71.36 198.585 71.36C196.785 71.36 195.189 70.988 193.797 70.244C192.405 69.5 191.313 68.432 190.521 67.04C189.753 65.624 189.369 63.944 189.369 62C189.369 60.032 189.753 58.352 190.521 56.96C191.313 55.568 192.405 54.5 193.797 53.756C195.189 53.012 196.785 52.64 198.585 52.64ZM198.585 56.312C197.673 56.312 196.893 56.528 196.245 56.96C195.621 57.368 195.141 57.992 194.805 58.832C194.469 59.672 194.301 60.728 194.301 62C194.301 63.272 194.469 64.328 194.805 65.168C195.141 66.008 195.621 66.644 196.245 67.076C196.893 67.484 197.673 67.688 198.585 67.688C199.473 67.688 200.229 67.484 200.853 67.076C201.501 66.644 201.993 66.008 202.329 65.168C202.665 64.328 202.833 63.272 202.833 62C202.833 60.728 202.665 59.672 202.329 58.832C201.993 57.992 201.501 57.368 200.853 56.96C200.229 56.528 199.473 56.312 198.585 56.312ZM225.068 59.336V63.584H212.36V59.336H225.068ZM241.465 46.88C243.817 46.88 245.845 47.372 247.549 48.356C249.253 49.34 250.561 50.744 251.473 52.568C252.409 54.392 252.877 56.576 252.877 59.12C252.877 61.664 252.409 63.848 251.473 65.672C250.561 67.496 249.253 68.9 247.549 69.884C245.845 70.868 243.817 71.36 241.465 71.36C239.113 71.36 237.073 70.868 235.345 69.884C233.641 68.9 232.321 67.496 231.385 65.672C230.473 63.848 230.017 61.664 230.017 59.12C230.017 56.576 230.473 54.392 231.385 52.568C232.321 50.744 233.641 49.34 235.345 48.356C237.073 47.372 239.113 46.88 241.465 46.88ZM241.465 50.948C240.121 50.948 238.981 51.26 238.045 51.884C237.109 52.508 236.389 53.432 235.885 54.656C235.405 55.856 235.165 57.344 235.165 59.12C235.165 60.872 235.405 62.36 235.885 63.584C236.389 64.808 237.109 65.732 238.045 66.356C238.981 66.98 240.121 67.292 241.465 67.292C242.785 67.292 243.913 66.98 244.849 66.356C245.785 65.732 246.493 64.808 246.973 63.584C247.477 62.36 247.729 60.872 247.729 59.12C247.729 57.344 247.477 55.856 246.973 54.656C246.493 53.432 245.785 52.508 244.849 51.884C243.913 51.26 242.785 50.948 241.465 50.948ZM257.28 71V53H261.708L261.996 58.4L261.384 57.824C261.672 56.648 262.128 55.676 262.752 54.908C263.376 54.14 264.132 53.576 265.02 53.216C265.932 52.832 266.928 52.64 268.008 52.64C269.256 52.64 270.36 52.88 271.32 53.36C272.304 53.84 273.072 54.572 273.624 55.556C274.2 56.516 274.488 57.728 274.488 59.192V71H269.556V60.596C269.556 59.06 269.256 58.004 268.656 57.428C268.056 56.828 267.276 56.528 266.316 56.528C265.644 56.528 264.984 56.696 264.336 57.032C263.712 57.344 263.196 57.86 262.788 58.58C262.404 59.3 262.212 60.26 262.212 61.46V71H257.28ZM287.921 71.36C286.025 71.36 284.369 70.988 282.953 70.244C281.561 69.5 280.481 68.432 279.713 67.04C278.945 65.648 278.561 63.968 278.561 62C278.561 60.032 278.945 58.352 279.713 56.96C280.481 55.568 281.549 54.5 282.917 53.756C284.309 53.012 285.893 52.64 287.669 52.64C289.493 52.64 291.041 53.012 292.313 53.756C293.585 54.476 294.557 55.472 295.229 56.744C295.901 57.992 296.237 59.42 296.237 61.028C296.237 61.508 296.225 61.964 296.201 62.396C296.177 62.828 296.141 63.212 296.093 63.548H281.729V60.128H293.933L291.557 60.992C291.557 59.48 291.209 58.316 290.513 57.5C289.841 56.684 288.881 56.276 287.633 56.276C286.721 56.276 285.929 56.492 285.257 56.924C284.609 57.356 284.117 58.004 283.781 58.868C283.445 59.708 283.277 60.776 283.277 62.072C283.277 63.344 283.457 64.4 283.817 65.24C284.201 66.056 284.729 66.668 285.401 67.076C286.097 67.484 286.925 67.688 287.885 67.688C288.941 67.688 289.793 67.484 290.441 67.076C291.089 66.668 291.593 66.104 291.953 65.384L295.877 66.896C295.493 67.832 294.905 68.636 294.113 69.308C293.345 69.98 292.421 70.496 291.341 70.856C290.285 71.192 289.145 71.36 287.921 71.36ZM302.828 65.492C303.596 65.492 304.232 65.684 304.736 66.068C305.24 66.428 305.624 66.92 305.888 67.544C306.152 68.144 306.284 68.816 306.284 69.56C306.284 70.544 306.08 71.492 305.672 72.404C305.288 73.316 304.748 74.132 304.052 74.852C303.356 75.572 302.564 76.136 301.676 76.544L299.552 74.852C300.2 74.588 300.788 74.264 301.316 73.88C301.868 73.496 302.336 73.064 302.72 72.584C303.104 72.104 303.38 71.612 303.548 71.108L303.368 71C303.248 71.072 303.104 71.132 302.936 71.18C302.768 71.252 302.528 71.288 302.216 71.288C301.832 71.288 301.448 71.192 301.064 71C300.68 70.784 300.356 70.484 300.092 70.1C299.828 69.692 299.696 69.188 299.696 68.588C299.696 67.94 299.84 67.388 300.128 66.932C300.416 66.476 300.8 66.128 301.28 65.888C301.76 65.624 302.276 65.492 302.828 65.492ZM321.293 71V67.652C323.453 66.188 325.277 64.868 326.765 63.692C328.277 62.492 329.489 61.388 330.401 60.38C331.337 59.348 332.009 58.376 332.417 57.464C332.849 56.552 333.065 55.64 333.065 54.728C333.065 53.624 332.729 52.724 332.057 52.028C331.385 51.308 330.437 50.948 329.213 50.948C327.869 50.948 326.813 51.404 326.045 52.316C325.301 53.228 324.893 54.524 324.821 56.204L320.537 54.584C320.657 52.952 321.089 51.572 321.833 50.444C322.601 49.292 323.633 48.416 324.929 47.816C326.249 47.192 327.761 46.88 329.465 46.88C330.929 46.88 332.189 47.084 333.245 47.492C334.325 47.9 335.213 48.464 335.909 49.184C336.629 49.88 337.169 50.684 337.529 51.596C337.889 52.508 338.069 53.456 338.069 54.44C338.069 55.976 337.685 57.428 336.917 58.796C336.173 60.164 335.021 61.52 333.461 62.864C331.901 64.208 329.921 65.624 327.521 67.112V67.148C327.881 67.124 328.313 67.1 328.817 67.076C329.345 67.052 329.885 67.04 330.437 67.04C330.989 67.016 331.469 67.004 331.877 67.004H338.429V71H321.293ZM352.731 71V65.42H341.139V62.18C341.259 61.94 341.427 61.652 341.643 61.316C341.883 60.956 342.147 60.548 342.435 60.092L351.291 47.24H357.231V61.82H361.083V65.42H357.231V71H352.731ZM345.387 61.82H352.767V53.972C352.767 53.468 352.779 52.928 352.803 52.352C352.827 51.776 352.851 51.212 352.875 50.66H352.803C352.539 51.188 352.215 51.764 351.831 52.388C351.471 52.988 351.135 53.528 350.823 54.008L345.855 61.136C345.783 61.256 345.699 61.376 345.603 61.496C345.531 61.592 345.459 61.7 345.387 61.82ZM378.068 45.116L367.628 73.52H363.056L373.46 45.116H378.068ZM380.014 47.24H398.842V51.02C396.85 53.012 395.266 55.064 394.09 57.176C392.914 59.288 392.062 61.484 391.534 63.764C391.03 66.044 390.778 68.456 390.778 71H385.846C385.846 68.36 386.17 65.828 386.818 63.404C387.49 60.956 388.51 58.628 389.878 56.42C391.27 54.188 393.034 52.052 395.17 50.012L396.178 51.308H380.014V47.24ZM431.228 47.24V51.236H423.272V71H418.304V51.236H410.312V47.24H431.228ZM438.762 71.36C437.562 71.36 436.482 71.144 435.522 70.712C434.562 70.28 433.794 69.596 433.218 68.66C432.666 67.7 432.39 66.464 432.39 64.952V53H437.322V63.764C437.322 65.156 437.61 66.128 438.186 66.68C438.762 67.208 439.59 67.472 440.67 67.472C441.174 67.472 441.666 67.388 442.146 67.22C442.626 67.028 443.046 66.74 443.406 66.356C443.79 65.972 444.09 65.48 444.306 64.88C444.522 64.256 444.63 63.524 444.63 62.684V53H449.562V71H445.17L444.99 67.868C444.39 69.068 443.562 69.956 442.506 70.532C441.474 71.084 440.226 71.36 438.762 71.36ZM461.124 47.492V65.132C461.124 65.996 461.34 66.632 461.772 67.04C462.228 67.424 462.84 67.616 463.608 67.616C464.208 67.616 464.736 67.532 465.192 67.364C465.648 67.172 466.056 66.92 466.416 66.608L467.208 69.884C466.632 70.34 465.912 70.7 465.048 70.964C464.184 71.228 463.272 71.36 462.312 71.36C461.112 71.36 460.044 71.18 459.108 70.82C458.196 70.46 457.476 69.884 456.948 69.092C456.444 68.3 456.192 67.244 456.192 65.924V48.86L461.124 47.492ZM466.884 53V56.672H452.88V53H466.884ZM478.429 52.64C480.253 52.64 481.849 53.012 483.217 53.756C484.609 54.5 485.689 55.568 486.457 56.96C487.249 58.352 487.645 60.032 487.645 62C487.645 63.944 487.249 65.624 486.457 67.04C485.689 68.432 484.609 69.5 483.217 70.244C481.849 70.988 480.253 71.36 478.429 71.36C476.629 71.36 475.033 70.988 473.641 70.244C472.249 69.5 471.157 68.432 470.365 67.04C469.597 65.624 469.213 63.944 469.213 62C469.213 60.032 469.597 58.352 470.365 56.96C471.157 55.568 472.249 54.5 473.641 53.756C475.033 53.012 476.629 52.64 478.429 52.64ZM478.429 56.312C477.517 56.312 476.737 56.528 476.089 56.96C475.465 57.368 474.985 57.992 474.649 58.832C474.313 59.672 474.145 60.728 474.145 62C474.145 63.272 474.313 64.328 474.649 65.168C474.985 66.008 475.465 66.644 476.089 67.076C476.737 67.484 477.517 67.688 478.429 67.688C479.317 67.688 480.073 67.484 480.697 67.076C481.345 66.644 481.837 66.008 482.173 65.168C482.509 64.328 482.677 63.272 482.677 62C482.677 60.728 482.509 59.672 482.173 58.832C481.837 57.992 481.345 57.368 480.697 56.96C480.073 56.528 479.317 56.312 478.429 56.312ZM491.772 71V53H496.056L496.38 56.528C496.86 55.28 497.556 54.32 498.468 53.648C499.404 52.976 500.568 52.64 501.96 52.64C502.368 52.64 502.74 52.676 503.076 52.748C503.412 52.82 503.688 52.916 503.904 53.036L503.328 57.176C503.088 57.08 502.788 57.008 502.428 56.96C502.092 56.912 501.648 56.888 501.096 56.888C500.376 56.888 499.68 57.068 499.008 57.428C498.336 57.764 497.784 58.292 497.352 59.012C496.92 59.708 496.704 60.596 496.704 61.676V71H491.772ZM509.443 50.408C508.411 50.408 507.643 50.192 507.139 49.76C506.635 49.304 506.383 48.644 506.383 47.78C506.383 46.892 506.635 46.232 507.139 45.8C507.643 45.344 508.411 45.116 509.443 45.116C510.475 45.116 511.243 45.344 511.747 45.8C512.251 46.232 512.503 46.892 512.503 47.78C512.503 48.644 512.251 49.304 511.747 49.76C511.243 50.192 510.475 50.408 509.443 50.408ZM511.891 53V71H506.959V53H511.891ZM517.119 71V53H521.547L521.835 58.4L521.223 57.824C521.511 56.648 521.967 55.676 522.591 54.908C523.215 54.14 523.971 53.576 524.859 53.216C525.771 52.832 526.767 52.64 527.847 52.64C529.095 52.64 530.199 52.88 531.159 53.36C532.143 53.84 532.911 54.572 533.463 55.556C534.039 56.516 534.327 57.728 534.327 59.192V71H529.395V60.596C529.395 59.06 529.095 58.004 528.495 57.428C527.895 56.828 527.115 56.528 526.155 56.528C525.483 56.528 524.823 56.696 524.175 57.032C523.551 57.344 523.035 57.86 522.627 58.58C522.243 59.3 522.051 60.26 522.051 61.46V71H517.119ZM556.004 48.716L556.58 52.244C556.484 52.244 556.376 52.244 556.256 52.244C556.16 52.22 556.052 52.208 555.932 52.208C554.828 52.208 554 52.46 553.448 52.964C552.896 53.444 552.62 54.116 552.62 54.98L550.604 54.152C550.604 53.192 550.796 52.304 551.18 51.488C551.564 50.648 552.128 49.976 552.872 49.472C553.64 48.968 554.552 48.716 555.608 48.716C555.656 48.716 555.716 48.716 555.788 48.716C555.86 48.716 555.932 48.716 556.004 48.716ZM550.1 67.616C552.044 67.616 553.544 68.036 554.6 68.876C555.656 69.716 556.184 70.892 556.184 72.404C556.184 73.772 555.788 74.924 554.996 75.86C554.204 76.82 553.088 77.54 551.648 78.02C550.232 78.5 548.588 78.74 546.716 78.74C543.62 78.74 541.352 78.308 539.912 77.444C538.496 76.58 537.788 75.452 537.788 74.06C537.788 73.076 538.16 72.248 538.904 71.576C539.672 70.904 540.932 70.532 542.684 70.46L542.504 71.036C541.256 70.82 540.296 70.412 539.624 69.812C538.976 69.188 538.652 68.336 538.652 67.256C538.652 66.152 539.072 65.252 539.912 64.556C540.776 63.836 541.94 63.416 543.404 63.296L545.564 64.304H545.06C544.028 64.376 543.296 64.592 542.864 64.952C542.456 65.288 542.252 65.672 542.252 66.104C542.252 66.608 542.444 66.992 542.828 67.256C543.236 67.496 543.812 67.616 544.556 67.616H550.1ZM546.752 75.356C548 75.356 549.02 75.248 549.812 75.032C550.628 74.816 551.228 74.54 551.612 74.204C552.02 73.868 552.224 73.496 552.224 73.088C552.224 72.632 552.044 72.26 551.684 71.972C551.324 71.708 550.676 71.576 549.74 71.576H543.656C543.08 71.576 542.6 71.72 542.216 72.008C541.856 72.296 541.676 72.692 541.676 73.196C541.676 73.868 542.12 74.396 543.008 74.78C543.92 75.164 545.168 75.356 546.752 75.356ZM546.788 52.64C548.468 52.64 549.92 52.892 551.144 53.396C552.392 53.876 553.34 54.572 553.988 55.484C554.66 56.396 554.996 57.488 554.996 58.76C554.996 60.008 554.66 61.088 553.988 62C553.34 62.912 552.392 63.62 551.144 64.124C549.92 64.604 548.468 64.844 546.788 64.844C544.124 64.844 542.084 64.304 540.668 63.224C539.276 62.12 538.58 60.632 538.58 58.76C538.58 57.488 538.904 56.396 539.552 55.484C540.224 54.572 541.172 53.876 542.396 53.396C543.62 52.892 545.084 52.64 546.788 52.64ZM546.788 55.736C545.828 55.736 545.036 56 544.412 56.528C543.788 57.056 543.476 57.788 543.476 58.724C543.476 59.66 543.788 60.404 544.412 60.956C545.036 61.484 545.828 61.748 546.788 61.748C547.748 61.748 548.528 61.484 549.128 60.956C549.752 60.404 550.064 59.66 550.064 58.724C550.064 57.788 549.752 57.056 549.128 56.528C548.528 56 547.748 55.736 546.788 55.736Z" fill="#343440"/>
<ellipse cx="340.783" cy="343.718" rx="280.112" ry="220.05" fill="url(#paint0_radial_5475_2968)"/>
<path d="M197.324 425.74C212.496 426.027 241.174 425.86 253.616 425.74C257.63 428.365 265.476 436.623 264.754 448.652C264.031 460.68 264.453 487.792 264.754 499.844" stroke="url(#paint1_linear_5475_2968)" stroke-width="8"/>
<path d="M183.31 481.396C181.143 457.621 180.905 410.151 197.288 410.468C213.672 410.785 244.641 410.6 258.077 410.468C262.411 413.374 270.885 422.514 270.104 435.828C269.324 449.142 269.779 479.15 270.104 492.49" stroke="url(#paint2_linear_5475_2968)" stroke-width="8"/>
<path d="M281.554 418.089C281.554 429.484 261.71 441.014 229.455 441.014C197.199 441.014 164.746 429.484 164.746 418.089C164.746 406.694 190.894 397.457 223.15 397.457C255.405 397.457 281.554 406.694 281.554 418.089Z" fill="#DAA75A"/>
<ellipse cx="219.584" cy="414.71" rx="58.4038" ry="20.6473" fill="#DFBB85"/>
<path d="M319.137 376.506C319.137 356.835 320.452 352.073 332.942 342.268L399.784 310.482C398.964 316.08 402.93 329.794 401.75 342.268C400.57 354.742 375.306 360.649 361.211 366.047L354.637 380.428L357.99 441.223H323.081C321.606 424.63 319.137 396.177 319.137 376.506Z" fill="url(#paint3_linear_5475_2968)"/>
<path d="M281.43 363.715C281.43 344.596 294.544 332.606 304.047 331.052L363.028 313.564C362.209 319.005 360.275 332.917 359.096 345.041C357.916 357.166 329.441 361.074 315.351 366.321L312.763 376.741V441.221H287.305C285.83 425.094 281.43 382.835 281.43 363.715Z" fill="url(#paint4_linear_5475_2968)"/>
<path d="M376.919 344.085C404.418 344.085 405.509 308.161 395.906 285.953H300.316V330.369C311.665 334.505 340.775 344.085 376.919 344.085Z" fill="#FBCDCD"/>
<path d="M340.254 249.295C340.254 230.62 356.639 216.181 375.165 218.531L390.13 220.429C405.78 222.413 417.512 235.727 417.512 251.502C417.512 270.887 400.081 285.618 380.967 282.386L366.094 279.871C351.174 277.348 340.254 264.426 340.254 249.295Z" fill="#DAA75A"/>
<path d="M336.324 249.295C336.324 230.62 352.709 216.181 371.236 218.531L386.2 220.429C401.85 222.413 413.582 235.727 413.582 251.502C413.582 270.887 396.151 285.618 377.038 282.386L362.164 279.871C347.245 277.348 336.324 264.426 336.324 249.295Z" fill="#DFBB85"/>
<path d="M251.865 321.223L249.938 307.887L392.631 314.911L391.692 326.618C387.562 335.608 374.325 338.793 368.223 339.261C341.186 340.759 279.715 328.091 251.865 321.223Z" fill="#DAA75A"/>
<path d="M259.797 297.116L289.837 280.727L387.939 305.077C391.068 307.418 395.743 312.232 389.359 321.223C382.975 330.214 363.17 330.367 352.694 330.367C322.81 325.373 260.266 315.472 252.756 312.101C245.246 308.729 254.32 300.706 259.797 297.116Z" fill="#DFBB85"/>
<path d="M362.854 168.205C356.749 147.066 332.781 154.363 335.34 162.604C334.99 158.594 345.354 156.175 347.523 192.367C349.208 220.488 366.106 244.164 381.018 238.924C368.111 234.443 370.486 194.629 362.854 168.205Z" fill="#382831"/>
<path d="M329.945 192.254C326.478 170.528 323.343 146.02 320.759 160.97C320.904 156.947 312.266 155.517 311.157 191.689C310.182 223.486 317.779 244.829 333.343 244.227C325.675 240.811 334.28 219.41 329.945 192.254Z" fill="#24161E"/>
<path d="M325.196 219.983C330.666 214.307 330.623 208.058 328.935 204.322L352.843 191.371C349.703 214.129 361.825 216.338 365.135 218.676L349.058 235.607C339.481 233.644 319.727 225.658 325.196 219.983Z" fill="#FFBC96"/>
<path d="M376.187 251.988C375.72 254.63 374.956 260.522 375.635 262.954" stroke="#F49E9E"/>
<path d="M303.829 274.705L311.682 241.743L289.508 269.345L303.829 274.705Z" fill="#F49E9E"/>
<ellipse cx="4.33998" cy="7.03626" rx="4.33998" ry="7.03626" transform="matrix(0.991897 0.127047 -0.127642 0.99182 350.574 176.512)" fill="#FFBC96"/>
<path d="M358.822 175.89C353.735 193.236 348.922 202.38 332.731 208.366C321.114 208.417 312.826 194.062 315.117 174.381C317.409 154.7 330.096 156.237 344.454 154.908C351.397 158.041 357.199 158.441 358.822 175.89Z" fill="#FFBC96"/>
<path d="M323 188.034L322.164 193.957C322.28 194.35 323.278 195.578 325.279 194.987" stroke="black" stroke-linecap="round"/>
<path d="M347.54 196.545C341.02 204.832 332.675 208.022 329.365 207.875C330.69 214.812 326.159 217.842 325.841 219.33L329.371 218.176C332.517 217.147 335.337 215.309 337.546 212.846C338.39 211.905 339.137 210.882 339.776 209.792L347.54 196.545Z" fill="#F4A176"/>
<path d="M332.601 173.021C327.379 171.211 326.369 170.1 324.399 166.586C327.71 150.401 344.157 147.847 351.979 154.487C354.759 156.081 357.816 159.16 359.496 161.631C362.879 166.609 360.533 182.005 358.068 180.203C353.475 176.844 351.663 182.566 350.337 187.071C350.761 183.34 350.767 180.336 348.731 179.371C348.731 179.371 341.32 176.043 332.601 173.021Z" fill="#382831"/>
<path d="M330.297 180.956C331.087 180.148 334.208 178.855 335.827 181.664" stroke="#5B4444" stroke-linecap="round"/>
<path d="M315.954 183.082C316.984 181.919 318.853 181.791 320.04 183.088" stroke="#5B4444" stroke-linecap="round"/>
<path d="M323.23 199.566C324.69 200.704 329.671 200.467 331.992 197.673" stroke="#292828" stroke-linecap="round"/>
<path d="M353.446 180.145C350.062 181.1 346.583 176.825 341.285 176.164C342.941 177.485 346.193 177.963 348.316 180.772C349.145 184.267 350.192 186.865 350.113 188.165L351.731 182.293L353.446 180.145Z" fill="#24161E"/>
<ellipse cx="1.27705" cy="1.72498" rx="1.27705" ry="1.72498" transform="matrix(0.985249 -0.17113 0.171922 0.985111 316.688 185.801)" fill="#343440"/>
<ellipse cx="1.35742" cy="1.80585" rx="1.35742" ry="1.80585" transform="matrix(0.985094 -0.172019 0.172815 0.984954 329.781 184.525)" fill="#343440"/>
<path d="M315.792 163.283C316.04 168.424 312.391 183.293 314.799 179.138C316.785 169.559 322.083 169.559 324.07 166.255C326.718 154.364 337.766 151.668 336.651 151.722C335.536 151.775 320.758 151.026 315.792 163.283Z" fill="#291D1D"/>
<path d="M300.562 294.418C300.562 289.192 264.962 290.525 281.33 267.011C300.174 239.939 301.454 230.426 317.993 220.636C327.814 216.717 327.157 217.37 327.157 217.37C327.157 217.37 324.258 222.954 334.664 225.774C344.607 228.465 354.361 223.322 362.226 215.258L370.367 216.063C381.497 218.676 382.152 222.595 384.771 223.901C393.896 230.423 399.668 245.404 403.095 250.028C409.795 264.032 412.126 262.909 410.305 288.565L406.377 300.322C393.618 316.508 349.565 299.042 349.565 299.042" fill="#849CCB"/>
<path d="M305.196 283.847V276.581L292.945 271.956L302.547 269.974C307.403 268.213 306.852 270.305 313.805 258.083C316.812 252.797 317.739 250.015 317.951 249.246C318.006 248.952 318.034 248.942 317.951 249.246C317.884 249.599 317.778 250.36 317.778 251.477C313.805 283.847 317.116 275.656 305.196 283.847Z" fill="#667BA2"/>
<path d="M323.117 219.503C323.887 223.248 325.029 225.246 328.47 227.821C331.894 230.382 336.982 231.087 342.219 230.433C355.969 227.821 360.311 222.183 365.789 216.717" stroke="#667BA3" stroke-linecap="round"/>
<path d="M386.739 278.768C378.359 277.2 362.296 280.292 355.312 282.034C357.058 278.768 367.067 275.233 371.681 274.849C379.281 274.217 373.81 250.153 372.457 239.32C372.408 238.959 372.368 238.609 372.335 238.271C372.371 238.605 372.412 238.955 372.457 239.32C373.998 250.671 383.567 272.86 386.739 278.768Z" fill="#667BA3"/>
<path d="M302.359 272.921C301.308 269.692 303.713 266.381 307.11 266.381L320.218 266.381C322.403 266.381 324.336 267.798 324.993 269.88L331.432 290.284C332.471 293.578 329.937 296.904 326.485 296.778L313.423 296.301C311.323 296.225 309.494 294.845 308.844 292.848L302.359 272.921Z" fill="#343440"/>
<path d="M318.273 279.884C318.273 280.901 318.014 281.779 317.564 282.39C317.124 282.986 316.49 283.347 315.651 283.347C314.786 283.347 313.862 282.962 313.151 282.317C312.444 281.673 311.988 280.809 311.988 279.884C311.988 278.867 312.247 277.988 312.697 277.378C313.137 276.782 313.771 276.42 314.61 276.42C315.475 276.42 316.399 276.806 317.109 277.451C317.817 278.094 318.273 278.958 318.273 279.884Z" stroke="#16D2AA"/>
<path d="M313.474 279.037C313.474 279.494 313.455 279.944 313.589 280.366C313.713 280.757 313.909 281.238 314.229 281.203C314.391 281.186 314.498 280.99 314.583 280.788C314.726 280.452 314.772 280.037 314.783 279.641C314.79 279.382 314.794 279.124 314.794 278.864C314.794 278.766 314.807 278.65 314.779 278.562" stroke="#16D2AA" stroke-linecap="round"/>
<path d="M315.561 281.205C315.561 280.897 315.564 280.588 315.534 280.281C315.508 280.027 315.466 279.782 315.466 279.527C315.466 279.301 315.426 279.033 315.567 278.826C315.663 278.687 315.894 278.612 316.081 278.58C316.338 278.536 316.603 278.566 316.7 278.777C316.784 278.96 316.816 279.187 316.75 279.377C316.644 279.682 316.284 279.838 315.901 279.883" stroke="#16D2AA" stroke-linecap="round"/>
<path d="M301.196 296.403C298.419 296.403 298.188 288.101 298.419 283.951C300.502 282.394 307.443 283.951 310.22 287.064C312.441 289.554 311.145 293.29 310.22 294.847C308.369 295.366 303.972 296.403 301.196 296.403Z" fill="#FFBC96"/>
<path d="M341.377 284.646L352.833 286.999C356.607 287.774 356.202 294.641 355.528 297.977H346.094C342.724 298.761 334.908 299.859 330.596 297.977C325.205 295.625 325.879 289.351 325.879 286.999C325.879 285.117 336.211 284.646 341.377 284.646Z" fill="#FFBC96"/>
<path d="M355.634 282.033L349.129 283.213C351.021 287.461 349.917 295.602 349.129 299.142L354.451 300.322C356.344 298.434 356.028 287.343 355.634 282.033Z" fill="#849CCB" stroke="#667BA3" stroke-linejoin="round"/>
<path d="M350.312 285.572L355.635 284.393" stroke="#667BA3"/>
<path d="M350.312 288.524L355.635 287.934" stroke="#667BA3"/>
<path d="M350.312 291.473H355.635" stroke="#667BA3"/>
<path d="M350.312 294.422L355.635 295.012" stroke="#667BA3"/>
<path d="M349.719 297.373L355.041 298.553" stroke="#667BA3"/>
<path d="M380.477 480.466C380.477 457.606 402.043 437.719 415.64 435.861L490.186 412.164C489.014 418.669 494.687 434.606 492.999 449.103C491.311 463.599 461.118 474.193 440.957 480.466L433.925 491.617L430.258 557.35L385.455 562.635C383.345 543.353 380.477 503.326 380.477 480.466Z" fill="url(#paint5_linear_5475_2968)"/>
<path d="M142.469 431.311C142.469 410.857 156.594 398.029 166.83 396.367L230.358 377.658C229.476 383.479 227.393 398.362 226.123 411.333C224.852 424.304 194.182 428.486 179.006 434.098L176.218 445.247V525.301L149.46 510.786C147.872 493.533 142.469 451.765 142.469 431.311Z" fill="url(#paint6_linear_5475_2968)"/>
<path d="M182.965 445.04C182.965 423.953 184.375 418.848 197.763 408.337L269.405 374.264C268.527 380.264 272.777 394.965 271.513 408.337C270.248 421.709 243.169 428.042 228.062 433.828L221.016 449.244L213.778 541.705L179.324 527.161C179.324 519.559 182.965 466.127 182.965 445.04Z" fill="url(#paint7_linear_5475_2968)"/>
<path d="M244.954 410.248C274.412 410.248 275.58 371.764 265.294 347.975H162.895V395.554C175.052 399.986 206.235 410.248 244.954 410.248Z" fill="#FBCDCD"/>
<path d="M205.68 308.706C205.68 288.701 223.232 273.234 243.078 275.751L259.109 277.783C275.873 279.91 288.441 294.171 288.441 311.07C288.441 331.836 269.769 347.616 249.293 344.154L233.36 341.46C217.378 338.758 205.68 324.915 205.68 308.706Z" fill="#DAA75A"/>
<path d="M201.473 308.706C201.473 288.701 219.025 273.234 238.871 275.751L254.902 277.783C271.666 279.91 284.234 294.171 284.234 311.07C284.234 331.836 265.562 347.616 245.086 344.154L229.153 341.46C213.171 338.758 201.473 324.915 201.473 308.706Z" fill="#DFBB85"/>
<path d="M110.994 385.757L108.93 371.471L261.788 378.995L260.782 391.536C256.357 401.167 242.178 404.578 235.641 405.08C206.679 406.685 140.828 393.115 110.994 385.757Z" fill="#DAA75A"/>
<path d="M119.49 359.934L151.67 342.377L256.76 368.462C260.112 370.97 265.12 376.127 258.281 385.758C251.443 395.39 230.227 395.554 219.005 395.554C186.992 390.203 119.992 379.598 111.947 375.986C103.902 372.374 113.623 363.78 119.49 359.934Z" fill="#DFBB85"/>
<path d="M242.807 214.467C236.267 191.822 210.592 199.638 213.333 208.467C212.959 204.171 224.06 201.579 226.384 240.349C228.189 270.474 234.538 295.613 250.512 290C236.686 285.199 250.983 242.773 242.807 214.467Z" fill="#3E2D37"/>
<path d="M213.067 209.47C212.962 210.093 212.89 210.79 212.852 211.565C212.786 210.806 212.868 210.026 213.067 209.47C215.155 197.045 230.099 214.23 236.327 235.794C244.503 264.1 238.165 287.978 246.767 290.608C230.298 293.282 223.549 274.854 220.409 240.921C217.468 209.14 213.994 206.879 213.067 209.47Z" fill="#24161E"/>
<path d="M189.547 277.306C195.407 271.226 195.361 264.532 193.552 260.53L219.163 246.656C215.799 271.035 228.785 273.402 232.331 275.907L215.109 294.043C204.849 291.94 183.688 283.386 189.547 277.306Z" fill="#F8A474"/>
<path d="M244.172 311.591C243.672 314.421 242.854 320.733 243.581 323.339" stroke="#F49E9E"/>
<path d="M166.66 335.925L175.072 300.615L151.319 330.183L166.66 335.925Z" fill="#F49E9E"/>
<path d="M183.06 226.622C183.328 232.162 179.398 237.47 177.84 237.545C176.283 237.62 173.715 233.402 173.446 227.862C173.178 222.322 175.311 217.558 176.869 217.483C178.427 217.408 182.792 221.082 183.06 226.622Z" fill="#291D1D"/>
<path d="M175.95 246.966C180.004 239.368 175.822 237.433 173.994 229.894L181.177 219.291C183.755 231.05 178.766 242.641 175.95 246.966Z" fill="#291D1D"/>
<ellipse cx="4.64914" cy="7.53749" rx="4.64914" ry="7.53749" transform="matrix(0.991897 0.127047 -0.127642 0.99182 216.734 230.738)" fill="#F8A474"/>
<path d="M225.568 230.071C220.119 248.653 214.963 258.448 197.619 264.861C185.174 264.915 176.295 249.538 178.75 228.455C181.205 207.372 194.796 209.018 210.177 207.594C217.614 210.951 223.83 211.379 225.568 230.071Z" fill="#F8A474"/>
<path d="M187.198 243.082L186.302 249.427C186.427 249.847 187.495 251.163 189.638 250.529" stroke="black" stroke-linecap="round"/>
<path d="M214.195 252.197C207.211 261.074 198.051 264.631 194.506 264.474C196.666 270.554 191.292 275.011 190.951 276.605L194.787 275.35C198.122 274.26 201.109 272.312 203.451 269.702L203.504 269.642C204.398 268.646 205.19 267.561 205.867 266.406L214.195 252.197Z" fill="#E47A44"/>
<path d="M205.058 226.315C186.756 230.325 180.418 225.719 179.246 222.75L207.217 220.253L216.422 235.47C214.518 235.615 207.946 229.622 205.058 226.315Z" fill="#CA5B22"/>
<path d="M197.483 226.998C185.932 229.825 178.824 223.004 176.714 219.239C186.388 196.591 209.862 200.03 218.241 207.143C221.219 208.851 223.445 212.952 225.244 215.599C228.868 220.932 227.404 236.622 224.764 234.691C219.844 231.093 217.903 237.223 216.482 242.049C216.936 238.052 216.943 234.834 214.762 233.8C212.581 232.765 208.195 229.892 207.086 226.227C207.086 226.227 207.086 224.647 197.483 226.998Z" fill="#3E2D37"/>
<ellipse cx="14.0199" cy="10.5029" rx="14.0199" ry="10.5029" transform="matrix(0.997883 -0.0650396 0.0826108 0.996582 174.117 206.1)" fill="#3E2D37"/>
<path d="M207.562 224.872C196.776 226.892 178.502 221.887 175.06 215.209C173.839 218.108 176.898 221.649 177.965 222.667C185.702 229.867 201.05 226.939 207.562 224.872Z" fill="#24161E"/>
<path d="M195.011 235.5C195.858 234.634 199.201 233.249 200.935 236.258" stroke="#5B4444" stroke-linecap="round"/>
<path d="M179.646 237.777C180.749 236.532 182.752 236.395 184.024 237.784" stroke="#5B4444" stroke-linecap="round"/>
<path d="M187.445 255.434C189.008 256.652 194.344 256.398 196.831 253.405" stroke="#292828" stroke-linecap="round"/>
<path d="M219.809 234.629C216.184 235.652 210.106 229.876 207.3 224.842C206.989 229.053 212.04 232.292 214.314 235.301C215.202 239.045 216.323 241.828 216.238 243.22L217.972 236.93L219.809 234.629Z" fill="#24161E"/>
<ellipse cx="1.36802" cy="1.84785" rx="1.36802" ry="1.84785" transform="matrix(0.985249 -0.17113 0.171922 0.985111 180.43 240.689)" fill="#343440"/>
<ellipse cx="1.45412" cy="1.93449" rx="1.45412" ry="1.93449" transform="matrix(0.985094 -0.172019 0.172815 0.984954 194.461 239.322)" fill="#343440"/>
<path d="M171.312 363.369C171.312 357.771 125.024 352.873 142.558 327.684C162.744 298.684 164.116 288.494 181.833 278.006C192.353 273.808 191.65 274.507 191.65 274.507C191.65 274.507 188.544 280.489 199.692 283.51C210.343 286.393 220.791 280.883 229.217 272.245L237.938 273.108C249.861 275.907 250.562 280.105 253.368 281.504C263.143 288.49 269.326 304.538 272.997 309.492C280.174 324.493 282.672 323.29 280.721 350.774L276.513 363.369C262.845 380.707 214.092 363.369 214.092 363.369" fill="#FBCDCD"/>
<path d="M187.32 276.791C188.145 280.804 189.368 282.943 193.055 285.702C196.722 288.446 202.172 289.2 207.783 288.5C222.512 285.702 227.163 279.662 233.032 273.807" stroke="#F4A6A6" stroke-linecap="round"/>
<path d="M255.474 340.278C246.497 338.598 229.29 341.91 221.809 343.776C223.679 340.278 234.4 336.49 239.343 336.08C247.485 335.403 241.624 309.624 240.175 298.02C240.122 297.633 240.079 297.259 240.044 296.896C240.082 297.254 240.126 297.629 240.175 298.02C241.825 310.18 252.075 333.948 255.474 340.278Z" fill="#F4A6A6"/>
<path d="M155.207 318.13C154.156 314.901 156.561 311.59 159.957 311.59L192.191 311.59C194.375 311.59 196.309 313.007 196.966 315.089L211.225 360.275C212.265 363.569 209.73 366.895 206.278 366.769L174.109 365.594C172.009 365.518 170.18 364.138 169.53 362.141L155.207 318.13Z" fill="#343440"/>
<path d="M206.882 346.576L219.153 349.096C223.196 349.926 222.762 357.282 222.04 360.856H211.934C208.325 361.696 199.952 362.872 195.332 360.856C189.557 358.336 190.279 351.616 190.279 349.096C190.279 347.08 201.347 346.576 206.882 346.576Z" fill="#F8A474"/>
<path d="M163.84 359.17C160.866 359.17 160.618 350.277 160.866 345.83C163.096 344.162 170.532 345.83 173.506 349.165C175.886 351.833 174.498 355.835 173.506 357.502C171.524 358.058 166.814 359.17 163.84 359.17Z" fill="#F8A474"/>
<path d="M222.156 343.777L215.188 345.041C217.215 349.592 216.032 358.313 215.188 362.105L220.889 363.369C222.916 361.347 222.578 349.465 222.156 343.777Z" fill="#FBCDCD" stroke="#F4A6A6" stroke-linejoin="round"/>
<path d="M216.453 347.569L222.155 346.305" stroke="#F4A6A6"/>
<path d="M216.453 350.73L222.155 350.098" stroke="#F4A6A6"/>
<path d="M216.453 353.889H222.155" stroke="#F4A6A6"/>
<path d="M216.453 357.049L222.155 357.681" stroke="#F4A6A6"/>
<path d="M215.82 360.209L221.522 361.473" stroke="#F4A6A6"/>
<path d="M185.542 338.18C185.542 339.652 185.184 340.943 184.546 341.85C183.918 342.742 183.013 343.277 181.834 343.277C180.626 343.277 179.342 342.715 178.356 341.776C177.373 340.839 176.723 339.565 176.723 338.18C176.723 336.707 177.08 335.416 177.719 334.509C178.347 333.618 179.252 333.082 180.431 333.082C181.638 333.082 182.922 333.644 183.908 334.584C184.891 335.52 185.542 336.794 185.542 338.18Z" stroke="#16D2AA"/>
<path d="M179.028 337.282C179.028 337.766 179.008 338.242 179.151 338.69C179.282 339.104 179.49 339.613 179.828 339.576C180 339.558 180.113 339.35 180.204 339.136C180.355 338.781 180.403 338.341 180.415 337.922C180.422 337.647 180.427 337.374 180.427 337.098C180.427 336.995 180.441 336.872 180.411 336.779" stroke="#16D2AA" stroke-linecap="round"/>
<path d="M181.938 339.578C181.938 339.252 181.942 338.925 181.909 338.599C181.882 338.33 181.838 338.071 181.838 337.801C181.838 337.561 181.795 337.278 181.944 337.059C182.046 336.911 182.29 336.831 182.489 336.798C182.761 336.751 183.041 336.783 183.144 337.006C183.234 337.201 183.267 337.441 183.197 337.641C183.085 337.965 182.703 338.13 182.298 338.177" stroke="#16D2AA" stroke-linecap="round"/>
<path d="M214.137 204.421C215.303 204.421 216.251 204.398 217.279 205.006C218.156 205.524 218.965 206.116 219.499 206.998C219.604 207.171 219.842 207.74 220 207.845C220.461 208.152 219.17 207.105 218.821 206.676C218.126 205.823 216.991 205.395 216.1 204.829C215.642 204.538 214.677 204.066 214.137 204.066" stroke="white" stroke-linecap="round"/>
<path d="M415.289 477.783C430.461 478.07 459.138 477.903 471.581 477.783C475.594 480.408 483.441 488.666 482.719 500.695C481.996 512.723 482.418 539.835 482.719 551.887" stroke="url(#paint8_linear_5475_2968)" stroke-width="8"/>
<path d="M438.539 462.51C454.858 462.827 485.705 462.642 499.088 462.51C503.405 465.416 511.845 474.556 511.068 487.87C510.291 501.184 510.745 531.193 511.068 544.533" stroke="url(#paint9_linear_5475_2968)" stroke-width="8"/>
<path d="M514.522 466.439C514.522 477.982 494.775 489.662 462.676 489.662C430.577 489.662 398.281 477.982 398.281 466.439C398.281 454.896 424.303 445.539 456.402 445.539C488.501 445.539 514.522 454.896 514.522 466.439Z" fill="#DAA75A"/>
<ellipse cx="455.831" cy="463.077" rx="58.1203" ry="20.9302" fill="#DFBB85"/>
<path d="M356.32 474.604C356.32 451.679 378.005 431.037 391.676 429.173L476.53 408.205C475.352 414.728 472.57 431.41 470.873 445.948C469.176 460.486 428.21 476.701 407.94 482.991L392.184 502.078L396.169 562.448L362.962 563.767C360.84 544.43 356.32 497.529 356.32 474.604Z" fill="url(#paint10_linear_5475_2968)"/>
<path d="M480.673 450.337C513.279 450.337 514.572 407.74 503.186 381.408H389.844V434.073C403.3 438.978 437.816 450.337 480.673 450.337Z" fill="#FEDF85"/>
<path d="M437.648 337.645C437.648 315.502 457.077 298.382 479.044 301.168L496.787 303.418C515.344 305.771 529.254 321.557 529.254 340.262C529.254 363.247 508.587 380.714 485.923 376.881L468.287 373.899C450.597 370.908 437.648 355.586 437.648 337.645Z" fill="#DAA75A"/>
<path d="M432.992 337.944C432.992 315.801 452.42 298.681 474.387 301.466L492.131 303.717C510.687 306.07 524.598 321.856 524.598 340.561C524.598 363.546 503.93 381.012 481.267 377.18L463.631 374.198C445.941 371.207 432.992 355.885 432.992 337.944Z" fill="#DFBB85"/>
<path d="M332.394 423.23L330.109 407.416L499.304 415.745L498.191 429.626C493.293 440.286 477.598 444.062 470.363 444.617C438.305 446.394 365.417 431.373 332.394 423.23Z" fill="#DAA75A"/>
<path d="M341.798 394.646L377.418 375.213L493.739 404.085C497.449 406.861 502.992 412.57 495.423 423.23C487.853 433.891 464.37 434.073 451.949 434.073C416.514 428.151 342.355 416.412 333.45 412.414C324.545 408.416 335.305 398.903 341.798 394.646Z" fill="#DFBB85"/>
<path d="M419.342 303.187C425.827 296.458 425.776 289.048 423.775 284.618L452.123 269.261C448.4 296.246 462.772 298.866 466.698 301.638L447.635 321.713C436.279 319.385 412.856 309.916 419.342 303.187Z" fill="#C27D56"/>
<path d="M479.805 341.137C479.252 344.269 478.346 351.256 479.151 354.14" stroke="#F49E9E"/>
<path d="M394.008 368.072L403.319 328.988L377.028 361.716L394.008 368.072Z" fill="#F49E9E"/>
<path d="M399.154 398.449C399.154 392.253 347.92 386.831 367.328 358.95C389.671 326.851 391.19 315.571 410.801 303.963C422.445 299.316 421.666 300.09 421.666 300.09C421.666 300.09 418.229 306.712 430.568 310.055C442.357 313.246 453.922 307.147 463.248 297.586L472.901 298.541C486.098 301.639 486.875 306.286 489.98 307.835C500.8 315.568 507.644 333.33 511.707 338.814C519.651 355.418 522.416 354.087 520.256 384.508L515.599 398.448C500.47 417.64 446.507 398.448 446.507 398.448" fill="#FEDF85"/>
<path d="M395.157 379.865V372.598L382.906 367.974L392.508 365.992C397.364 364.23 396.812 366.322 403.766 354.101C406.773 348.814 407.7 346.033 407.912 345.263C407.967 344.969 407.995 344.959 407.912 345.263C407.845 345.616 407.739 346.377 407.739 347.494C403.766 379.865 407.077 371.673 395.157 379.865Z" fill="#F8BB44"/>
<path d="M416.879 302.618C417.792 307.059 419.145 309.427 423.226 312.481C427.285 315.518 433.318 316.353 439.529 315.578C455.831 312.481 460.98 305.795 467.476 299.314" stroke="#F8BB44" stroke-linecap="round"/>
<path d="M492.318 372.89C482.381 371.032 463.335 374.698 455.055 376.763C457.125 372.891 468.992 368.698 474.463 368.244C483.475 367.494 476.988 338.961 475.384 326.116C475.326 325.689 475.277 325.274 475.239 324.873C475.281 325.269 475.33 325.683 475.384 326.116C477.21 339.576 488.556 365.885 492.318 372.89Z" fill="#F8BB44"/>
<path d="M438.53 379.859L452.113 382.649C456.588 383.568 456.108 391.71 455.308 395.666H444.122C440.128 396.596 430.86 397.897 425.746 395.666C419.354 392.876 420.153 385.438 420.153 382.649C420.153 380.417 432.404 379.859 438.53 379.859Z" fill="#C27D56"/>
<path d="M390.888 393.8C387.596 393.8 387.322 383.956 387.596 379.035C390.065 377.189 398.296 379.035 401.588 382.726C404.222 385.679 402.685 390.109 401.588 391.954C399.393 392.57 394.18 393.8 390.888 393.8Z" fill="#C27D56"/>
<path d="M455.436 376.762L447.723 378.161C449.966 383.197 448.658 392.851 447.723 397.048L454.033 398.447C456.277 396.209 455.903 383.057 455.436 376.762Z" fill="#FEDF85" stroke="#F8BB44" stroke-linejoin="round"/>
<path d="M449.125 380.96L455.436 379.561" stroke="#F8BB44"/>
<path d="M449.125 384.457L455.436 383.758" stroke="#F8BB44"/>
<path d="M449.125 387.955H455.436" stroke="#F8BB44"/>
<path d="M449.125 391.451L455.436 392.151" stroke="#F8BB44"/>
<path d="M448.422 394.949L454.733 396.348" stroke="#F8BB44"/>
<path d="M414.962 370.567C414.962 372.205 414.565 373.645 413.85 374.66C413.146 375.66 412.128 376.263 410.804 376.263C409.452 376.263 408.018 375.633 406.918 374.586C405.822 373.542 405.094 372.117 405.094 370.567C405.094 368.929 405.491 367.489 406.206 366.474C406.91 365.474 407.928 364.871 409.252 364.871C410.604 364.871 412.038 365.5 413.138 366.548C414.234 367.592 414.962 369.016 414.962 370.567Z" stroke="#16D2AA"/>
<path d="M407.7 369.574C407.7 370.11 407.678 370.637 407.836 371.132C407.981 371.59 408.211 372.154 408.585 372.113C408.776 372.093 408.901 371.863 409.001 371.627C409.168 371.233 409.222 370.746 409.235 370.282C409.243 369.978 409.248 369.675 409.248 369.371C409.248 369.257 409.264 369.12 409.231 369.018" stroke="#16D2AA" stroke-width="0.5" stroke-linecap="round"/>
<path d="M410.922 372.115C410.922 371.754 410.926 371.392 410.89 371.032C410.86 370.734 410.811 370.448 410.811 370.148C410.811 369.883 410.763 369.569 410.929 369.327C411.041 369.163 411.312 369.075 411.532 369.038C411.833 368.987 412.143 369.021 412.257 369.268C412.356 369.484 412.393 369.75 412.316 369.972C412.192 370.33 411.769 370.513 411.32 370.565" stroke="#16D2AA" stroke-width="0.5" stroke-linecap="round"/>
<ellipse cx="5.146" cy="8.34302" rx="5.146" ry="8.34302" transform="matrix(0.991897 0.127047 -0.127642 0.99182 449.434 251.645)" fill="#C27D56"/>
<path d="M459.214 250.906C453.183 271.474 447.476 282.315 428.278 289.413C414.503 289.473 404.675 272.453 407.392 249.117C410.11 225.781 425.153 227.602 442.177 226.027C450.41 229.742 457.29 230.216 459.214 250.906Z" fill="#C27D56"/>
<path d="M416.741 265.307L415.749 272.33C415.887 272.796 417.07 274.253 419.442 273.551" stroke="black" stroke-linecap="round"/>
<path d="M446.623 275.397C438.893 285.223 428.753 289.16 424.829 288.986C427.22 295.716 421.272 300.65 420.895 302.414L425.685 300.847C429.019 299.757 432.007 297.809 434.349 295.199L434.933 294.547C435.827 293.55 436.619 292.466 437.296 291.311L446.623 275.397Z" fill="#A36342"/>
<path d="M439.996 242.729C419.738 247.168 412.723 242.07 411.426 238.783L442.386 236.02L452.574 252.863C450.468 253.023 443.193 246.39 439.996 242.729Z" fill="#A26342"/>
<path d="M425.39 256.913C426.328 255.955 430.029 254.422 431.948 257.752" stroke="#5B4444" stroke-linecap="round"/>
<path d="M408.382 259.436C409.603 258.058 411.82 257.906 413.228 259.444" stroke="#5B4444" stroke-linecap="round"/>
<path d="M417.016 278.979C418.746 280.327 424.652 280.046 427.405 276.733" stroke="#292828" stroke-linecap="round"/>
<ellipse cx="1.51422" cy="2.04533" rx="1.51422" ry="2.04533" transform="matrix(0.985249 -0.17113 0.171922 0.985111 409.254 262.658)" fill="#343440"/>
<ellipse cx="1.60952" cy="2.14123" rx="1.60952" ry="2.14123" transform="matrix(0.985094 -0.172019 0.172815 0.984954 424.777 261.145)" fill="#343440"/>
<path d="M471.396 402.282C471.694 402.21 472.01 402.267 472.274 402.439C472.539 402.611 472.729 402.885 472.805 403.199C472.88 403.514 472.834 403.844 472.677 404.117C472.519 404.39 472.263 404.583 471.965 404.654L434.698 413.552L432.031 411.68L471.396 402.282Z" fill="#988189"/>
<path d="M472.841 402.699L434.212 412.023L421.129 389.646L472.841 402.699Z" fill="#988189"/>
<path d="M423.254 361.01C423.51 361.026 423.758 361.113 423.968 361.261C424.179 361.408 424.345 361.611 424.447 361.846L434.588 414.044L363.121 403.409C362.872 403.393 362.631 403.31 362.424 403.17C362.218 403.029 362.053 402.835 361.947 402.609L350.304 354.375C350.147 354.04 350.129 353.657 350.254 353.309C350.38 352.961 350.639 352.678 350.974 352.52C351.186 352.421 351.42 352.377 351.654 352.392L423.254 361.01Z" fill="url(#paint11_linear_5475_2968)"/>
<path d="M394.326 383.686C394.326 385.156 393.942 386.446 393.254 387.354C392.576 388.25 391.587 388.801 390.285 388.801C388.959 388.801 387.56 388.227 386.492 387.282C385.426 386.338 384.73 385.062 384.73 383.686C384.73 382.215 385.114 380.926 385.802 380.017C386.48 379.122 387.47 378.57 388.771 378.57C390.098 378.57 391.496 379.144 392.564 380.089C393.63 381.033 394.326 382.309 394.326 383.686Z" stroke="#16D2AA"/>
<path d="M386.88 382.745C386.88 383.43 386.852 384.105 387.054 384.739C387.24 385.325 387.534 386.046 388.013 385.994C388.257 385.968 388.416 385.674 388.545 385.371C388.759 384.868 388.827 384.245 388.844 383.652C388.855 383.262 388.861 382.875 388.861 382.485C388.861 382.339 388.881 382.165 388.839 382.033" stroke="#16D2AA" stroke-linecap="round"/>
<path d="M390.341 385.997C390.341 385.535 390.347 385.072 390.3 384.611C390.262 384.229 390.2 383.863 390.2 383.48C390.2 383.14 390.138 382.739 390.351 382.429C390.494 382.219 390.84 382.107 391.121 382.059C391.507 381.994 391.904 382.038 392.05 382.354C392.176 382.63 392.224 382.97 392.125 383.254C391.966 383.713 391.425 383.946 390.851 384.013" stroke="#16D2AA" stroke-linecap="round"/>
<path d="M455.282 256.116C455.282 256.116 452.805 255.615 449.999 261.912C449.194 264.402 447.895 257.014 447.895 257.014C447.895 257.014 445.864 255.058 446.785 253.06C446.785 253.06 441.929 252.548 441.583 248.749C441.007 247.983 438.777 251.548 438.328 247.785C436.16 249.274 433.682 247.404 433.682 247.404C433.682 247.404 428.58 246.131 427.926 242.848C427.926 242.848 423.449 248.607 416.836 245.58C416.836 245.58 413.486 252.816 409.377 248.749C409.377 248.749 408.616 252.816 403.707 251.417C399.136 249.318 401.603 245.58 401.603 245.58C401.603 245.58 396.694 243.02 400.201 238.822C400.201 238.822 397.856 232.404 403.009 231.825C403.009 231.825 401.603 222.729 410.394 224.749C410.394 224.749 412.124 217.469 417.508 219.995C417.508 219.995 423.073 214.856 427.926 218.531C427.926 218.531 434.24 215.305 437.376 220.63C437.376 220.63 445.791 215.732 448.596 222.729C448.596 222.729 455.318 222.647 456.31 229.726C456.31 229.726 462.074 233.057 460.52 238.123C460.52 238.123 465.428 245.58 459.817 248.749C460.268 250.013 460.22 251.403 459.681 252.633L458.157 256.116L455.282 256.116Z" fill="#272828"/>
<path d="M195.23 601.773C211.116 602.073 241.142 601.898 254.17 601.773C258.373 604.522 266.588 613.168 265.832 625.763C265.075 638.357 265.517 666.744 265.832 679.363" stroke="url(#paint12_linear_5475_2968)" stroke-width="8"/>
<path d="M219.574 585.781C236.661 586.113 268.958 585.92 282.971 585.781C287.492 588.824 296.329 598.394 295.515 612.334C294.702 626.274 295.176 657.695 295.515 671.663" stroke="url(#paint13_linear_5475_2968)" stroke-width="8"/>
<path d="M299.13 589.895C299.13 601.981 278.454 614.21 244.846 614.21C211.237 614.21 177.422 601.981 177.422 589.895C177.422 577.809 204.667 568.012 238.276 568.012C271.885 568.012 299.13 577.809 299.13 589.895Z" fill="#DAA75A"/>
<ellipse cx="237.682" cy="586.374" rx="60.8542" ry="21.9147" fill="#DFBB85"/>
<path d="M133.488 598.444C133.488 574.441 156.193 552.828 170.507 550.876L259.353 528.922C258.119 535.752 255.206 553.218 253.43 568.44C251.653 583.662 208.76 600.64 187.536 607.226L171.039 627.211L175.211 690.42L140.442 691.801C138.221 671.555 133.488 622.448 133.488 598.444Z" fill="url(#paint14_linear_5475_2968)"/>
<path d="M170.297 604.581C170.297 580.646 192.878 559.824 207.114 557.878L289.23 540.713C288.003 547.524 289.879 556.564 288.112 571.743C286.345 586.921 254.731 598.014 233.623 604.581L226.259 616.257L222.42 685.082L175.509 690.616C173.3 670.426 170.297 628.517 170.297 604.581Z" fill="url(#paint15_linear_5475_2968)"/>
<path d="M234.418 478.043C234.418 454.858 254.76 436.933 277.76 439.85L296.339 442.206C315.768 444.67 330.333 461.199 330.333 480.783C330.333 504.85 308.693 523.138 284.963 519.125L266.498 516.003C247.976 512.871 234.418 496.829 234.418 478.043Z" fill="#DAA75A"/>
<path d="M227.449 485.686C227.449 462.501 247.791 444.576 270.792 447.493L289.37 449.849C308.799 452.313 323.364 468.841 323.364 488.426C323.364 512.492 301.724 530.78 277.995 526.768L259.53 523.646C241.007 520.514 227.449 504.471 227.449 485.686Z" fill="#DFBB85"/>
<path d="M226.488 466.561C226.488 443.376 246.83 425.451 269.831 428.368L288.409 430.724C307.838 433.188 322.403 449.716 322.403 469.301C322.403 493.367 300.763 511.655 277.034 507.643L258.569 504.521C240.046 501.389 226.488 485.346 226.488 466.561Z" fill="#DAA75A"/>
<path d="M221.609 466.873C221.609 443.689 241.951 425.763 264.952 428.68L283.53 431.036C302.959 433.5 317.524 450.029 317.524 469.613C317.524 493.68 295.884 511.968 272.155 507.955L253.69 504.833C235.167 501.701 221.609 485.659 221.609 466.873Z" fill="#DFBB85"/>
<path d="M270.627 470.216C270.048 473.496 269.099 480.811 269.942 483.831" stroke="#F49E9E"/>
<path d="M234.793 416.038C234.793 416.038 237.682 432.867 236.238 444.094C238.135 445.793 251.095 455.253 251.095 455.253L264.815 447.39C264.815 447.39 263.483 424.812 263.483 415.103C263.483 405.394 234.793 416.038 234.793 416.038Z" fill="#DE8F5C"/>
<path d="M340.406 328.603C340.406 328.603 341.817 309.055 341.12 306.019C340.423 302.983 340.276 297.414 344.252 298.451C348.229 299.488 347.651 309.338 347.651 309.338C347.651 309.338 352.251 303.107 355.814 303.107C359.377 303.107 366.4 311.253 366.95 316.328C367.499 321.404 363.489 322.791 359.082 329.594C354.675 336.397 340.406 328.603 340.406 328.603Z" fill="#F8A474"/>
<path d="M139.549 343.641C139.549 343.641 134.762 324.631 134.927 321.55C135.091 318.468 134.258 312.929 130.525 314.639C126.793 316.35 129.042 325.968 129.042 325.968C129.042 325.968 123.434 320.644 119.922 321.261C116.41 321.878 110.91 331.123 111.249 336.215C111.589 341.307 117.112 342.554 121.814 347.827C123.428 349.634 129.178 353.01 132.276 352.223C135.171 351.464 139.549 343.641 139.549 343.641Z" fill="#F8A474"/>
<path d="M127.168 357.254C127.168 357.254 137.755 342.764 145.113 346.797C152.471 350.83 158.827 370.299 181.932 401.205C205.037 432.11 220.819 430.133 226.557 433.991C232.295 437.848 233.564 444.719 242.899 444.719C250.914 457.368 251.48 458.971 261.563 442.793C270.847 441.4 306.879 403.216 313.993 388.839C333.332 349.896 334.386 335.089 338.668 333.129C346.547 331.747 356.913 338.964 356.913 338.964C356.913 338.964 363.546 391.904 355.905 418.085C348.354 443.943 296.258 551.557 296.258 551.557H207.014C207.014 551.557 164.242 458.416 146.603 427.057C132.442 401.918 127.168 357.254 127.168 357.254Z" fill="#77C190"/>
<path d="M127.168 357.216C127.168 357.216 137.755 342.727 145.113 346.76C152.471 350.793 158.832 370.267 181.932 401.178C205.032 432.089 220.819 430.107 226.551 433.97C232.284 437.833 233.564 444.698 242.899 444.698C250.914 457.353 251.48 458.95 261.563 442.772C270.847 441.379 306.879 403.189 313.993 388.813C333.332 349.858 334.386 335.045 338.668 333.091C346.553 331.709 357.077 340.608 357.077 340.608C357.077 340.608 361.751 380.31 358.918 391.996C348.87 433.545 305.514 443.973 289.427 461.414C270.893 481.512 210.192 526.861 210.192 526.861L207.009 551.553C207.009 551.553 164.242 458.395 146.597 427.036C132.442 401.875 127.168 357.216 127.168 357.216Z" fill="#82CC9B"/>
<g opacity="0.33">
<path opacity="0.33" d="M142.178 359.529L148.126 369.725H136.23L142.178 359.529Z" fill="white"/>
<path opacity="0.33" d="M162.002 391.252L167.95 401.448H156.055L162.002 391.252Z" fill="white"/>
<path opacity="0.33" d="M346.1 413.91L352.048 424.106H340.152L346.1 413.91Z" fill="white"/>
<path opacity="0.33" d="M165.401 426.369L171.349 436.565H159.453L165.401 426.369Z" fill="white"/>
<path opacity="0.33" d="M241.307 464.32L247.255 474.516H235.359L241.307 464.32Z" fill="white"/>
<path opacity="0.33" d="M198.26 436.566L204.208 446.762H192.312L198.26 436.566Z" fill="white"/>
<path opacity="0.33" d="M295.116 504.537L301.063 514.733H289.168L295.116 504.537Z" fill="white"/>
<path opacity="0.33" d="M197.69 471.686L203.638 481.882H191.742L197.69 471.686Z" fill="white"/>
<path opacity="0.33" d="M252.069 488.68L258.016 498.876H246.121L252.069 488.68Z" fill="white"/>
<path opacity="0.33" d="M307.01 417.875L312.958 428.071H301.062L307.01 417.875Z" fill="white"/>
<path opacity="0.33" d="M257.729 519.832L263.677 530.028H251.781L257.729 519.832Z" fill="white"/>
<path opacity="0.33" d="M333.065 372.559L339.013 382.755H327.117L333.065 372.559Z" fill="white"/>
<path opacity="0.33" d="M314.944 457.525L320.891 467.721H308.996L314.944 457.525Z" fill="white"/>
</g>
<g opacity="0.51">
<path d="M228 510.771H270.483C270.483 510.771 267.702 527.765 281.246 532.24C281.008 532.687 278.703 549.856 278.703 549.856" fill="#576C41"/>
<path d="M228 510.771H270.483C270.483 510.771 267.702 527.765 281.246 532.24C281.008 532.687 278.703 549.856 278.703 549.856" stroke="#576C41" stroke-width="2" stroke-linecap="round" stroke-linejoin="round"/>
</g>
<path d="M123.905 350.646C123.854 350.527 123.845 350.394 123.88 350.27C123.916 350.145 123.992 350.036 124.098 349.961L139.075 339.391C139.196 339.306 139.346 339.272 139.492 339.297C139.638 339.321 139.769 339.402 139.856 339.521L144.875 346.506C144.919 346.566 144.95 346.635 144.967 346.708C144.984 346.78 144.987 346.856 144.975 346.929C144.963 347.003 144.936 347.074 144.897 347.137C144.857 347.201 144.806 347.255 144.745 347.299H144.716L127.757 358.061C127.694 358.101 127.624 358.128 127.551 358.141C127.478 358.154 127.403 358.152 127.33 358.135C127.257 358.119 127.189 358.089 127.128 358.046C127.067 358.003 127.015 357.948 126.975 357.886C126.958 357.858 126.943 357.83 126.93 357.801L123.905 350.646Z" fill="#90D2A6"/>
<path d="M339.291 327.332C339.336 327.196 339.432 327.082 339.558 327.014C339.684 326.945 339.832 326.927 339.971 326.964L358.505 331.699C358.65 331.735 358.776 331.828 358.853 331.956C358.931 332.085 358.954 332.239 358.918 332.384L356.981 340.371C356.964 340.444 356.932 340.513 356.888 340.573C356.844 340.633 356.789 340.684 356.725 340.723C356.662 340.762 356.591 340.789 356.517 340.8C356.443 340.812 356.368 340.808 356.296 340.791H356.262L337.336 334.933C337.193 334.889 337.073 334.79 337.003 334.657C336.933 334.524 336.918 334.369 336.963 334.225L339.291 327.332Z" fill="#82CC9B"/>
<path d="M337.246 336.734C337.246 336.734 344.128 341.895 355.083 341.419" stroke="#76C190" stroke-linecap="round" stroke-linejoin="round"/>
<path d="M351.227 332.043L349.703 338.761" stroke="#76C190" stroke-linecap="round" stroke-linejoin="round"/>
<path d="M354.613 332.26L352.348 339.312" stroke="#76C190" stroke-linecap="round" stroke-linejoin="round"/>
<path d="M356.828 334.424L355.078 339.703" stroke="#76C190" stroke-linecap="round" stroke-linejoin="round"/>
<path d="M348.537 331.635L346.102 337.469" stroke="#76C190" stroke-linecap="round" stroke-linejoin="round"/>
<path d="M345.207 330.471L344.125 336.249" stroke="#76C190" stroke-linecap="round" stroke-linejoin="round"/>
<path d="M342.742 329.801L341.043 336.032" stroke="#76C190" stroke-linecap="round" stroke-linejoin="round"/>
<path d="M340.51 329.107L338.414 334.868" stroke="#76C190" stroke-linecap="round" stroke-linejoin="round"/>
<path d="M244.735 433.979C244.735 433.979 235.876 434.716 237.371 437.417C238.867 440.119 246.004 443.082 250.524 451.386C254.835 442.374 263.116 437.417 263.116 437.417L262.38 426.966C262.38 426.966 267.195 426.247 274.235 428.972C281.276 431.696 292.855 441.847 280.008 442.679C267.161 443.512 251.312 456.96 251.312 456.96C251.312 456.96 241.013 448.525 225 444.339C208.987 440.153 218.367 431.243 224.179 427.997C229.991 424.751 244.741 427.997 244.741 427.997L244.735 433.979Z" fill="#576C41"/>
<path d="M244.632 433.979C244.632 433.979 230.233 434.716 231.717 437.417C233.201 440.119 245.215 444.158 249.718 452.468C254.097 442.498 262.933 437.417 262.933 437.417L262.203 426.966C262.203 426.966 267.001 426.247 274.013 428.972C281.026 431.696 284.147 439.094 271.339 439.921C258.532 440.748 251.174 456.96 251.174 456.96C251.174 456.96 240.91 448.525 224.959 444.339C209.008 440.153 218.348 431.243 224.137 427.997C229.926 424.751 244.632 427.997 244.632 427.997V433.979Z" fill="#618F45"/>
<path d="M234.793 416.005C235.995 423.026 236.752 430.115 237.059 437.23C238.928 438.93 251.599 434.477 251.599 434.477L263.098 437.23C263.098 437.23 264.311 425.862 263.098 415.105C261.886 404.348 234.793 416.005 234.793 416.005Z" fill="#DE8F5C"/>
<path d="M234.793 415.926C234.793 415.926 236.226 425.318 236.64 430.654C236.804 432.835 263.115 419.891 263.115 414.119C263.115 408.347 234.793 415.926 234.793 415.926Z" fill="#D48857"/>
<path d="M218.911 368.939C218.911 368.939 214.985 371.698 215.625 376.014C216.265 380.331 222.332 382.189 222.332 382.189V364.629L218.911 368.939Z" fill="#291B23"/>
<path d="M246.295 421.273C258.61 421.273 267.82 414.504 274.357 391.75C280.894 368.996 282.44 351.459 240.024 351.6C224.838 351.6 220.318 364.272 220.199 380.97C218.618 402.212 233.986 421.273 246.295 421.273Z" fill="#F8A474"/>
<path d="M246.311 421.273C258.506 421.273 264.341 403.577 268.708 389.235C273.075 374.893 282.41 351.459 240.386 351.6C225.341 351.6 220.866 364.271 220.73 380.97C219.2 402.212 234.115 421.273 246.311 421.273Z" fill="#F49D6C"/>
<path d="M274.08 389.591C274.08 389.591 274.402 385.535 278.226 387.207C282.049 388.878 276.702 399.748 273.026 399.748C269.35 399.748 270.975 396.389 270.975 396.389L274.08 389.591Z" fill="#F8A474"/>
<path d="M216.544 360.894C216.544 360.894 211.888 367.227 215.564 370.348C219.24 373.469 223.494 369.272 223.494 369.272C223.494 369.272 224.298 373.475 229.402 374.33C234.506 375.186 237.502 370.365 237.502 370.365C237.502 370.365 241.201 375.327 245.863 375.327C250.525 375.327 254.06 370.365 254.06 370.365C254.06 370.365 256.172 376.539 262.8 376.539C269.427 376.539 269.184 371.209 269.184 371.209C269.184 371.209 272.951 373.016 274.995 370.365C277.04 367.714 273.013 364.383 273.013 364.383C273.013 364.383 283.056 360.985 279.94 354.085C277.709 348.5 270.453 351.151 270.453 351.151C270.453 351.151 269.472 345.067 265.207 343.419C260.942 341.771 255.577 345.94 255.577 345.94C255.577 345.94 254.541 340.275 247.902 340.275C241.263 340.275 239.264 347.158 239.264 347.158C239.264 347.158 234.761 341.805 229.413 343.408C222.395 344.977 222.667 351.14 222.667 351.14C222.667 351.14 215.87 350.007 214.301 354.074C212.732 358.141 216.544 360.894 216.544 360.894Z" fill="#3E2D37"/>
<path d="M217.098 360.923C217.098 360.923 212.464 367.244 216.123 370.359C219.783 373.475 224.008 369.283 224.008 369.283C224.008 369.283 224.807 373.475 229.888 374.336C234.969 375.197 237.949 370.371 237.949 370.371C237.949 370.371 241.625 375.327 246.264 375.327C250.903 375.327 254.421 370.371 254.421 370.371C254.421 370.371 256.522 376.534 263.116 376.534C261.077 375.621 259.254 374.288 257.767 372.621C256.279 370.955 255.16 368.993 254.483 366.865C254.483 366.865 242.803 367.369 236.686 359.75C230.568 352.131 239.688 347.22 239.688 347.22C239.688 347.22 235.207 341.879 229.888 343.482C222.904 345.051 223.176 351.202 223.176 351.202C223.176 351.202 216.378 350.07 214.849 354.125C213.319 358.181 217.098 360.923 217.098 360.923Z" fill="#35232E"/>
<path d="M238.014 387.285C237.023 390.99 232.673 394.145 233.131 396.195C234.055 400.296 239.328 399.662 239.328 399.662" stroke="#7C5430" stroke-linecap="round" stroke-linejoin="round"/>
<path d="M355.574 305.717C355.574 305.717 352.051 310.316 352.051 312.378C352.051 314.44 357.29 320.79 359.568 321.934C361.845 323.078 366.297 319.26 366.778 318.36" stroke="#DF8652" stroke-linecap="round" stroke-linejoin="round"/>
<path d="M121.45 324.355C121.45 324.355 121.915 329.453 125.613 330.818C129.312 332.184 120.816 343.949 117.474 343.711C111.645 343.711 111.764 338.047 111.543 336.863" fill="#F8A474"/>
<path d="M121.45 324.355C121.45 324.355 121.915 329.453 125.613 330.818C129.312 332.184 120.816 343.949 117.474 343.711C111.645 343.711 111.764 338.047 111.543 336.863" stroke="#DF8652" stroke-linecap="round" stroke-linejoin="round"/>
<path d="M128.301 358.397C128.301 358.397 139.063 353.798 144.161 348.768" stroke="#76C190" stroke-linecap="round" stroke-linejoin="round"/>
<path d="M134.352 344.928L138.226 350.632" stroke="#76C190" stroke-linecap="round" stroke-linejoin="round"/>
<path d="M136.82 342.6L140.446 349.046" stroke="#76C190" stroke-linecap="round" stroke-linejoin="round"/>
<path d="M139.027 341.779L142.89 346.6" stroke="#76C190" stroke-linecap="round" stroke-linejoin="round"/>
<path d="M132.199 346.598L134.805 352.358" stroke="#76C190" stroke-linecap="round" stroke-linejoin="round"/>
<path d="M129.098 348.264L132.587 352.994" stroke="#76C190" stroke-linecap="round" stroke-linejoin="round"/>
<path d="M126.926 349.6L130.324 355.111" stroke="#76C190" stroke-linecap="round" stroke-linejoin="round"/>
<path d="M124.891 350.76L127.677 356.226" stroke="#76C190" stroke-linecap="round" stroke-linejoin="round"/>
<path d="M260.281 369.274C260.281 369.274 269.973 384.228 272.103 390.686C274.935 386.721 274.935 387.236 275.87 386.947C276.759 384.115 279.387 374.712 279.387 374.712C279.387 374.712 285.279 366.572 276.838 361.95C268.398 357.328 260.281 369.274 260.281 369.274Z" fill="#3E2D37"/>
<path d="M264.25 377.844L275.579 378.031" stroke="#F49D6C" stroke-linecap="round" stroke-linejoin="round"/>
<path d="M263.117 381.339L274.305 381.197" stroke="#F49D6C" stroke-linecap="round" stroke-linejoin="round"/>
<path d="M230.407 383.6C229.722 383.283 228.975 383.124 228.22 383.135C227.405 383.14 226.602 383.334 225.875 383.702" stroke="#543921" stroke-linecap="round" stroke-linejoin="round"/>
<path d="M251.914 382.966C251.182 382.422 250.3 382.115 249.388 382.088C248.424 382.152 247.514 382.553 246.816 383.221" stroke="#543921" stroke-linecap="round" stroke-linejoin="round"/>
<path d="M235.005 405.195C235.866 405.433 241.14 406.401 245.048 405.795C247.783 405.282 250.433 404.39 252.922 403.145C252.922 403.145 249.982 413.907 238.698 413.907C236.093 412.1 234.139 404.951 235.005 405.195Z" fill="#543921"/>
<path d="M243.163 409.865C245.083 408.885 250.357 407.707 248.98 409.248C246.545 411.995 243.055 413.213 240.433 413.598C239.424 413.74 241.237 410.845 243.163 409.865Z" fill="#F26061"/>
<path d="M236.029 405.571C238.907 406.104 241.849 406.21 244.758 405.888C246.78 405.586 248.759 405.046 250.655 404.279C249.924 405.135 248.955 405.979 246.599 407.112C244.243 408.244 236.833 408.55 236.595 408.001C235.938 406.488 235.808 405.537 236.029 405.571Z" fill="#F9EDE2"/>
<path d="M256.887 393.518C257.179 393.801 257.441 394.114 257.668 394.452C257.896 394.859 258.017 395.317 258.02 395.783" stroke="#543921" stroke-linecap="round" stroke-linejoin="round"/>
<path d="M259.152 392.951C259.458 393.226 259.721 393.545 259.934 393.897C260.161 394.3 260.28 394.755 260.28 395.217" stroke="#543921" stroke-linecap="round" stroke-linejoin="round"/>
<path d="M254.617 393.518C254.914 393.881 255.176 394.271 255.399 394.684C255.63 395.209 255.75 395.776 255.75 396.35" stroke="#543921" stroke-linecap="round" stroke-linejoin="round"/>
<path d="M226.449 396.907C230.357 396.771 233.388 392.727 233.218 387.878C233.048 383.029 229.751 379.217 225.854 379.353C221.957 379.489 218.915 383.539 219.085 388.382C219.255 393.225 222.54 397.049 226.449 396.907Z" stroke="#231F20" stroke-miterlimit="10"/>
<path d="M250.016 398.041C254.706 397.888 258.342 393.453 258.144 388.139C257.946 382.826 253.987 378.64 249.296 378.793C244.606 378.946 240.97 383.376 241.168 388.695C241.366 394.014 245.331 398.194 250.016 398.041Z" stroke="#231F20" stroke-miterlimit="10"/>
<path d="M233.23 388.985C233.23 388.985 236.754 385.586 241.161 388.985" stroke="#231F20" stroke-miterlimit="10"/>
<path d="M258.59 388.983L274.309 387.283" stroke="#231F20" stroke-miterlimit="10"/>
<path d="M265.738 385.23H272.536" stroke="#F49D6C" stroke-linecap="round" stroke-linejoin="round"/>
<ellipse cx="248.387" cy="388.369" rx="1.57056" ry="2.09408" fill="#543921"/>
<ellipse cx="228.496" cy="388.369" rx="1.57056" ry="2.09408" fill="#543921"/>
<path d="M108.439 544.651L106.047 528.094L283.2 536.814L282.034 551.348C276.906 562.51 260.473 566.463 252.897 567.045C219.332 568.905 143.015 553.178 108.439 544.651Z" fill="#DAA75A"/>
<path d="M118.284 514.724L155.579 494.377L277.371 524.607C281.256 527.514 287.06 533.491 279.134 544.653C271.209 555.815 246.621 556.006 233.615 556.006C196.514 549.805 118.866 537.514 109.543 533.328C100.219 529.142 111.485 519.181 118.284 514.724Z" fill="#DFBB85"/>
<path d="M259.662 525.572C259.974 525.497 260.305 525.557 260.581 525.737C260.858 525.917 261.058 526.203 261.137 526.533C261.216 526.862 261.168 527.208 261.003 527.494C260.838 527.779 260.57 527.982 260.258 528.056L221.238 537.372L218.445 535.412L259.662 525.572Z" fill="#988189"/>
<path d="M261.176 526.009L220.73 535.771L207.031 512.342L261.176 526.009Z" fill="#988189"/>
<path d="M209.257 482.359C209.526 482.376 209.785 482.467 210.006 482.621C210.226 482.776 210.4 482.988 210.507 483.235L221.125 537.887L146.296 526.753C146.035 526.736 145.783 526.649 145.567 526.502C145.35 526.354 145.178 526.152 145.067 525.915L132.876 475.411C132.711 475.061 132.693 474.66 132.824 474.296C132.956 473.932 133.227 473.635 133.578 473.47C133.8 473.366 134.045 473.32 134.29 473.336L209.257 482.359Z" fill="url(#paint16_linear_5475_2968)"/>
<path d="M178.992 506.1C178.992 507.644 178.589 508.999 177.865 509.956C177.151 510.899 176.108 511.48 174.738 511.48C173.343 511.48 171.873 510.876 170.751 509.883C169.631 508.892 168.898 507.55 168.898 506.1C168.898 504.557 169.301 503.201 170.025 502.245C170.739 501.302 171.782 500.721 173.153 500.721C174.548 500.721 176.018 501.324 177.14 502.317C178.26 503.309 178.992 504.651 178.992 506.1Z" stroke="#16D2AA"/>
<path d="M171.173 505.116C171.173 505.834 171.144 506.54 171.355 507.204C171.55 507.818 171.858 508.573 172.359 508.519C172.615 508.491 172.782 508.183 172.916 507.866C173.14 507.339 173.212 506.687 173.229 506.066C173.241 505.657 173.247 505.252 173.247 504.844C173.247 504.691 173.268 504.509 173.224 504.371" stroke="#16D2AA" stroke-linecap="round"/>
<path d="M174.794 508.521C174.794 508.038 174.799 507.553 174.751 507.07C174.711 506.671 174.645 506.287 174.645 505.885C174.645 505.53 174.581 505.11 174.803 504.785C174.954 504.566 175.316 504.448 175.61 504.398C176.014 504.33 176.43 504.376 176.582 504.707C176.715 504.996 176.765 505.352 176.661 505.65C176.495 506.129 175.929 506.374 175.327 506.444" stroke="#16D2AA" stroke-linecap="round"/>
<defs>
<radialGradient id="paint0_radial_5475_2968" cx="0" cy="0" r="1" gradientUnits="userSpaceOnUse" gradientTransform="translate(340.783 343.718) rotate(90) scale(237.561 302.403)">
<stop stop-color="#95C9E6"/>
<stop offset="1" stop-color="#C6DDEA" stop-opacity="0"/>
</radialGradient>
<linearGradient id="paint1_linear_5475_2968" x1="224.408" y1="475.694" x2="224.408" y2="492.235" gradientUnits="userSpaceOnUse">
<stop stop-color="#667BA2"/>
<stop offset="1" stop-color="#667BA2" stop-opacity="0"/>
</linearGradient>
<linearGradient id="paint2_linear_5475_2968" x1="226.541" y1="469.669" x2="226.541" y2="487.86" gradientUnits="userSpaceOnUse">
<stop stop-color="#667BA2"/>
<stop offset="1" stop-color="#667BA2" stop-opacity="0"/>
</linearGradient>
<linearGradient id="paint3_linear_5475_2968" x1="353.867" y1="416.305" x2="352.22" y2="443.061" gradientUnits="userSpaceOnUse">
<stop stop-color="#33415E"/>
<stop offset="1" stop-color="#33415E" stop-opacity="0"/>
</linearGradient>
<linearGradient id="paint4_linear_5475_2968" x1="308.508" y1="399.457" x2="304.883" y2="444.051" gradientUnits="userSpaceOnUse">
<stop stop-color="#2F3541"/>
<stop offset="0.516202" stop-color="#2F3541" stop-opacity="0.540357"/>
<stop offset="1" stop-color="#2F3541" stop-opacity="0"/>
</linearGradient>
<linearGradient id="paint5_linear_5475_2968" x1="422.625" y1="507.475" x2="420.653" y2="536.213" gradientUnits="userSpaceOnUse">
<stop stop-color="#5B77AF"/>
<stop offset="1" stop-color="#5B77AF" stop-opacity="0"/>
</linearGradient>
<linearGradient id="paint6_linear_5475_2968" x1="176.426" y1="476.478" x2="175.445" y2="490.005" gradientUnits="userSpaceOnUse">
<stop stop-color="#2F3541"/>
<stop offset="1" stop-color="#2F3541" stop-opacity="0"/>
</linearGradient>
<linearGradient id="paint7_linear_5475_2968" x1="215.103" y1="482.207" x2="213.124" y2="499.066" gradientUnits="userSpaceOnUse">
<stop stop-color="#33415E"/>
<stop offset="1" stop-color="#33415E" stop-opacity="0"/>
</linearGradient>
<linearGradient id="paint8_linear_5475_2968" x1="442.373" y1="527.737" x2="442.373" y2="544.278" gradientUnits="userSpaceOnUse">
<stop stop-color="#667BA2"/>
<stop offset="1" stop-color="#667BA2" stop-opacity="0"/>
</linearGradient>
<linearGradient id="paint9_linear_5475_2968" x1="467.676" y1="521.712" x2="467.676" y2="539.903" gradientUnits="userSpaceOnUse">
<stop stop-color="#667BA2"/>
<stop offset="1" stop-color="#667BA2" stop-opacity="0"/>
</linearGradient>
<linearGradient id="paint10_linear_5475_2968" x1="394.509" y1="506.037" x2="393.198" y2="530.12" gradientUnits="userSpaceOnUse">
<stop stop-color="#526A9B"/>
<stop offset="1" stop-color="#526A9B" stop-opacity="0"/>
</linearGradient>
<linearGradient id="paint11_linear_5475_2968" x1="386.92" y1="357.943" x2="386.478" y2="405.378" gradientUnits="userSpaceOnUse">
<stop stop-color="#D1C6C6"/>
<stop offset="1" stop-color="#988189"/>
</linearGradient>
<linearGradient id="paint12_linear_5475_2968" x1="223.588" y1="654.077" x2="223.588" y2="671.396" gradientUnits="userSpaceOnUse">
<stop stop-color="#667BA2"/>
<stop offset="1" stop-color="#667BA2" stop-opacity="0"/>
</linearGradient>
<linearGradient id="paint13_linear_5475_2968" x1="250.082" y1="647.768" x2="250.082" y2="666.815" gradientUnits="userSpaceOnUse">
<stop stop-color="#667BA2"/>
<stop offset="1" stop-color="#667BA2" stop-opacity="0"/>
</linearGradient>
<linearGradient id="paint14_linear_5475_2968" x1="173.473" y1="631.356" x2="172.1" y2="656.571" gradientUnits="userSpaceOnUse">
<stop stop-color="#334872"/>
<stop offset="1" stop-color="#213254" stop-opacity="0"/>
</linearGradient>
<linearGradient id="paint15_linear_5475_2968" x1="214.428" y1="632.861" x2="212.363" y2="662.95" gradientUnits="userSpaceOnUse">
<stop stop-color="#365085"/>
<stop offset="1" stop-color="#5B77AF" stop-opacity="0"/>
</linearGradient>
<linearGradient id="paint16_linear_5475_2968" x1="171.215" y1="479.147" x2="170.752" y2="528.814" gradientUnits="userSpaceOnUse">
<stop stop-color="#D1C6C6"/>
<stop offset="1" stop-color="#988189"/>
</linearGradient>
</defs>
</svg>
