<svg width="20px" height="19px" viewBox="0 0 20 19" version="1.1" xmlns="http://www.w3.org/2000/svg" xmlns:xlink="http://www.w3.org/1999/xlink">
    <!-- Generator: Sketch 46.2 (44496) - http://www.bohemiancoding.com/sketch -->
    <desc>Created with Sketch.</desc>
    <defs></defs>
    <g id="Page-2:-Students" stroke="none" stroke-width="1" fill="none" fill-rule="evenodd">
        <g id="student-chatroom_whiteboard" transform="translate(-568.000000, -763.000000)" fill-rule="nonzero" fill="#343440">
            <g id="Group" transform="translate(402.000000, 756.000000)">
                <g id="eraser" transform="translate(164.000000, 4.000000)">
                    <path d="M16.015,3.585 L20.965,8.525 C21.745,9.315 21.745,10.575 20.965,11.365 L11.775,20.555 C10.215,22.115 7.685,22.115 6.115,20.555 L2.585,17.025 C1.805,16.235 1.805,14.975 2.585,14.185 L13.185,3.585 C13.975,2.805 15.235,2.805 16.015,3.585 L16.015,3.585 Z M3.995,15.605 L7.535,19.135 C8.315,19.925 9.575,19.925 10.365,19.135 L13.895,15.605 L8.945,10.655 L3.995,15.605 Z" id="Shape"></path>
                </g>
            </g>
        </g>
    </g>
</svg>
