<svg fill="none" height="20" viewBox="0 0 20 20" width="20" xmlns="http://www.w3.org/2000/svg"><path clip-rule="evenodd" d="m4.07692 3.75c-.0867 0-.16986.03444-.23117.09575s-.09575.14447-.09575.23117v11.84618c0 .0867.03444.1698.09575.2311.06131.0614.14447.0958.23117.0958h11.84618c.0867 0 .1698-.0344.2311-.0958.0614-.0613.0958-.1444.0958-.2311v-4.8462c0-.4142.3358-.75.75-.75s.75.3358.75.75v4.8462c0 .4845-.1925.9492-.5351 1.2918s-.8073.5351-1.2918.5351h-11.84618c-.48453 0-.94921-.1925-1.29183-.5351-.34261-.3426-.53509-.8073-.53509-1.2918v-11.84618c0-.48453.19248-.94921.53509-1.29183.34262-.34261.8073-.53509 1.29183-.53509h4.84616c.41421 0 .75.33579.75.75s-.33579.75-.75.75zm8.40388-.75c0-.41421.3358-.75.75-.75h3.7692c.2005 0 .3825.07864.5171.20675.0091.00862.0179.01747.0265.02653.0637.06693.1126.14274.1468.22331.0384.09012.0596.18929.0596.29341v3.76923c0 .41421-.3358.75-.75.75s-.75-.33579-.75-.75v-1.95857l-5.7197 5.71964c-.2929.2929-.76774.2929-1.06063 0s-.29289-.76774 0-1.06063l5.71963-5.71967h-1.9585c-.4142 0-.75-.33579-.75-.75z" fill="#1855d1" fill-rule="evenodd"/></svg>