<svg width="20" height="19" viewBox="0 0 20 19" fill="none" xmlns="http://www.w3.org/2000/svg">
<path d="M14.6315 0.508611L14.6443 0.508525L14.6571 0.507779C15.3071 0.469988 15.958 0.57019 16.5663 0.801881C17.1699 1.03174 17.7183 1.38594 18.1763 1.84132C19.1017 2.89558 19.5741 4.27228 19.4905 5.67284L19.4896 5.68773V5.70264C19.4896 7.30114 18.6865 8.99933 17.0676 10.7897L10.1298 18.0355L10.1249 18.0406L10.1202 18.0458C10.1049 18.0626 10.0864 18.0759 10.0666 18.0847C10.0465 18.0935 10.025 18.098 10.0025 18.0979L9.99728 18.0979C9.97425 18.098 9.95195 18.0933 9.93245 18.0847C9.91263 18.0759 9.89407 18.0626 9.87885 18.0458L9.8741 18.0406L9.8692 18.0354L2.91021 10.7679L2.90183 10.7592L2.89304 10.7509C2.80558 10.668 2.72257 10.5812 2.64465 10.4907C2.57042 10.3856 2.46979 10.2536 2.35317 10.1007C2.25384 9.97038 2.14292 9.8249 2.02682 9.66782L2.02677 9.66776C1.76206 9.30975 1.52144 8.93466 1.30672 8.54486C1.07669 8.11269 0.892267 7.65774 0.756374 7.18736L0.756523 7.18731L0.752765 7.17543C0.597379 6.68388 0.515895 6.17175 0.510147 5.65561L0.510013 5.64363L0.509306 5.63167C0.427547 4.24884 0.886992 2.88896 1.79065 1.84006C2.24892 1.38623 2.79723 1.03314 3.40016 0.803507C4.00866 0.571759 4.65921 0.470977 5.30925 0.507821L5.32225 0.508557L5.33526 0.508617C5.75973 0.510554 6.18072 0.587336 6.57857 0.735357L6.57857 0.735366L6.58148 0.736428C7.01276 0.89385 7.42077 1.10809 7.7953 1.37372L7.79528 1.37374L7.79935 1.37657C8.15408 1.62291 8.49483 1.88892 8.81957 2.17331C9.09806 2.42064 9.36165 2.68427 9.60893 2.9628L9.98283 3.38395L10.3567 2.9628C10.6037 2.68465 10.8669 2.42137 11.1449 2.17433C11.4724 1.89093 11.8142 1.62411 12.1687 1.37492L12.1704 1.37372C12.5449 1.10809 12.9529 0.89385 13.3842 0.736432L13.3861 0.735727C13.7849 0.588338 14.2064 0.511457 14.6315 0.508611Z" stroke="black"/>
</svg>

