<svg width="20" height="20" xmlns="http://www.w3.org/2000/svg">
  <path d="M10 0c5.523 0 10 4.477 10 10s-4.477 10-10 10S0 15.523 0 10 4.477 0 10 0zm5.645 7.246c-.52-.44-1.35-.661-2.49-.661h-2.623v7.397l1.656-.992V11.92h.988c1.097 0 1.913-.212 2.447-.636.535-.423.802-1.091.802-2.005 0-.914-.26-1.59-.78-2.032zM5.69 12.072c-.276-.342-.414-.81-.414-1.402V6.585l-1.657.992v3.146c0 1.065.3 1.887.898 2.465.598.58 1.36.868 2.288.868.927 0 1.688-.287 2.282-.862.595-.575.892-1.399.892-2.471V6.585l-1.656.992v3.093c0 .592-.137 1.06-.41 1.402-.272.342-.641.513-1.108.513-.468 0-.84-.17-1.115-.513z" fill="#73737A" fill-rule="evenodd"/>
</svg>
