<svg width="20px" height="20px" viewBox="0 0 20 20" version="1.1" xmlns="http://www.w3.org/2000/svg" xmlns:xlink="http://www.w3.org/1999/xlink">
    <!-- Generator: Sketch 46.2 (44496) - http://www.bohemiancoding.com/sketch -->
    <desc>Created with Sketch.</desc>
    <defs></defs>
    <g id="Mobile_Volunteers" stroke="none" stroke-width="1" fill="none" fill-rule="evenodd">
        <g id="menu" transform="translate(-18.000000, -162.000000)" fill="#73737A">
            <g id="Group" transform="translate(16.000000, 160.000000)">
                <g id="up-icon">
                    <path d="M11.9999505,2.00002469 C17.5228255,2.00002469 21.9999505,6.47714968 21.9999505,12.0000247 C21.9999505,17.5228997 17.5228255,22.0000247 11.9999505,22.0000247 C6.47707545,22.0000247 1.99995046,17.5228997 1.99995046,12.0000247 C1.99995046,6.47714968 6.47707545,2.00002469 11.9999505,2.00002469 Z M17.6447299,9.24619753 C17.1245097,8.80545679 16.294387,8.58471605 15.1546093,8.58471605 L12.5324519,8.58471605 L12.5324519,15.9822469 L14.1884862,14.9901481 L14.1884862,13.9185432 L15.1759136,13.9185432 C16.2730827,13.9185432 17.0888375,13.7069383 17.6231779,13.2834815 C18.1580138,12.8602716 18.4250602,12.1918765 18.4250602,11.2780494 C18.4250602,10.3644691 18.1649501,9.68718519 17.6447299,9.24619753 Z M7.69058939,14.0720741 C7.41462497,13.7298519 7.27664276,13.2624444 7.27664276,12.6698519 L7.27664276,8.58466667 L5.62036082,9.57676543 L5.62036082,12.7226914 C5.62036082,13.7881235 5.91936356,14.6100988 6.51761676,15.1883704 C7.11562223,15.7671358 7.87811637,16.0562716 8.80559462,16.0562716 C9.73257743,16.0562716 10.4935852,15.7688642 11.0883703,15.1938025 C11.6829076,14.6187407 11.9801763,13.795284 11.9801763,12.7226914 L11.9801763,8.58466667 L10.3238944,9.57676543 L10.3238944,12.6698519 C10.3238944,13.2624444 10.1873985,13.7298519 9.91490221,14.0720741 C9.64240593,14.4142963 9.27280188,14.5851605 8.80559462,14.5851605 C8.33838736,14.5851605 7.9665538,14.4142963 7.69058939,14.0720741 Z" id="Combined-Shape"></path>
                </g>
            </g>
        </g>
    </g>
</svg>
