<svg width="20" height="20" viewBox="0 0 20 20" fill="none" xmlns="http://www.w3.org/2000/svg">
<path fill-rule="evenodd" clip-rule="evenodd" d="M14.5607 6.5L17.7803 3.28033C18.0732 2.98744 18.0732 2.51256 17.7803 2.21967C17.4874 1.92678 17.0126 1.92678 16.7197 2.21967L13.5 5.43934V2.75C13.5 2.33579 13.1642 2 12.75 2C12.3358 2 12 2.33579 12 2.75V7.25V8H12.75H17.25C17.6642 8 18 7.66421 18 7.25C18 6.83579 17.6642 6.5 17.25 6.5H14.5607ZM2.21967 16.7197C1.92678 17.0126 1.92678 17.4874 2.21967 17.7803C2.51256 18.0732 2.98744 18.0732 3.28033 17.7803L6.5 14.5607L6.5 17.25C6.5 17.6642 6.83579 18 7.25 18C7.66421 18 8 17.6642 8 17.25L8 12.75L8 12H7.25L2.75 12C2.33579 12 2 12.3358 2 12.75C2 13.1642 2.33579 13.5 2.75 13.5H5.43934L2.21967 16.7197Z" fill="#343440"/>
</svg>
