<svg fill="none" height="20" viewBox="0 0 20 20" width="20" xmlns="http://www.w3.org/2000/svg"><path clip-rule="evenodd" d="m14.5607 6.5 3.2196-3.21967c.2929-.29289.2929-.76777 0-1.06066s-.7677-.29289-1.0606 0l-3.2197 3.21967v-2.68934c0-.41421-.3358-.75-.75-.75s-.75.33579-.75.75v4.5.75h.75 4.5c.4142 0 .75-.33579.75-.75s-.3358-.75-.75-.75zm-12.34103 10.2197c-.29289.2929-.29289.7677 0 1.0606s.76777.2929 1.06066 0l3.21967-3.2196v2.6893c0 .4142.33579.75.75.75s.75-.3358.75-.75v-4.5-.75h-.75-4.5c-.41421 0-.75.3358-.75.75s.33579.75.75.75h2.68934z" fill="#343440" fill-rule="evenodd"/></svg>