<svg fill="none" height="20" viewBox="0 0 20 20" width="20" xmlns="http://www.w3.org/2000/svg"><path clip-rule="evenodd" d="m3.52441 12.7549c0-.4142-.33578-.75-.75-.75-.41421 0-.75.3358-.75.75v4.4466c0 .4142.33579.75.75.75h4.44665c.41422 0 .75-.3358.75-.75s-.33578-.75-.75-.75h-2.63614l4.27814-4.2781c.29289-.2929.29289-.7678 0-1.0607-.2929-.2929-.76777-.2929-1.06066 0l-4.27799 4.278zm7.69559-3.91598c-.2929-.29289-.2929-.76776 0-1.06066l4.2781-4.27813h-2.6362c-.4142 0-.75-.33579-.75-.75 0-.41422.3358-.75.75-.75h4.4467c.4142 0 .75.33579.75.75v4.44665c0 .41421-.3358.75-.75.75s-.75-.33579-.75-.75v-2.63584l-4.278 4.27798c-.2929.2929-.7678.2929-1.0606 0z" fill="#343440" fill-rule="evenodd"/></svg>