<svg width="16" height="16" viewBox="0 0 16 16" fill="none" xmlns="http://www.w3.org/2000/svg">
<path fill-rule="evenodd" clip-rule="evenodd" d="M8 16C12.4183 16 16 12.4183 16 8C16 3.58172 12.4183 0 8 0C3.58173 0 0 3.58172 0 8C0 12.4183 3.58173 16 8 16ZM7.216 5.392C7.36798 5.528 7.58398 5.596 7.86401 5.596C8.13599 5.596 8.34399 5.528 8.48798 5.392C8.64001 5.248 8.716 5.048 8.716 4.792C8.716 4.536 8.64001 4.34 8.48798 4.204C8.34399 4.068 8.13599 4 7.86401 4C7.58398 4 7.36798 4.068 7.216 4.204C7.07202 4.34 7 4.536 7 4.792C7 5.048 7.07202 5.248 7.216 5.392ZM8.5 12.604V6.604H7.216V12.604H8.5Z" fill="#8B939F"/>
</svg>
