<svg fill="none" height="17" viewBox="0 0 17 17" width="17" xmlns="http://www.w3.org/2000/svg"><circle cx="8.5" cy="8.5" fill="#d9d9d9" r="8.5"/><path d="m8.276 4.96c.528 0 .988.084 1.38.252s.696.408.912.72c.224.312.336.684.336 1.116 0 .464-.104.852-.312 1.164-.2.304-.472.536-.816.696-.336.16-.712.264-1.128.312v1.284h-.996v-1.8c.584-.088 1.036-.196 1.356-.324.328-.128.556-.288.684-.48.136-.192.204-.428.204-.708s-.064-.52-.192-.72c-.12-.2-.304-.352-.552-.456s-.564-.156-.948-.156c-.528 0-.96.148-1.296.444-.328.288-.524.684-.588 1.188l-.852-.492c.088-.408.256-.764.504-1.068.256-.312.576-.552.96-.72.392-.168.84-.252 1.344-.252zm-.144 6.6c.232 0 .42.072.564.216s.216.332.216.564-.072.42-.216.564-.332.216-.564.216-.42-.072-.564-.216-.216-.332-.216-.564.072-.42.216-.564.332-.216.564-.216z" fill="#000"/></svg>