<svg fill="none" height="16" viewBox="0 0 16 16" width="16" xmlns="http://www.w3.org/2000/svg"><path clip-rule="evenodd" d="m8 16c4.4183 0 8-3.5817 8-8 0-4.41828-3.5817-8-8-8-4.41827 0-8 3.58172-8 8 0 4.4183 3.58173 8 8 8zm-.784-10.608c.15198.136.36798.204.64801.204.27198 0 .47998-.068.62397-.204.15203-.144.22802-.344.22802-.6s-.07599-.452-.22802-.588c-.14399-.136-.35199-.204-.62397-.204-.28003 0-.49603.068-.64801.204-.14398.136-.216.332-.216.588s.07202.456.216.6zm1.284 7.212v-6h-1.284v6z" fill="#8b939f" fill-rule="evenodd"/></svg>