<svg fill="none" height="100" viewBox="0 0 100 100" width="100" xmlns="http://www.w3.org/2000/svg" xmlns:xlink="http://www.w3.org/1999/xlink"><filter id="a" color-interpolation-filters="sRGB" filterUnits="userSpaceOnUse" height="62.4667" width="51.333" x="25" y="22.7"><feFlood flood-opacity="0" result="BackgroundImageFix"/><feColorMatrix in="SourceAlpha" result="hardAlpha" type="matrix" values="0 0 0 0 0 0 0 0 0 0 0 0 0 0 0 0 0 0 127 0"/><feOffset dx="3" dy="4"/><feGaussianBlur stdDeviation="2"/><feComposite in2="hardAlpha" operator="out"/><feColorMatrix type="matrix" values="0 0 0 0 0 0 0 0 0 0 0 0 0 0 0 0 0 0 0.15 0"/><feBlend in2="BackgroundImageFix" mode="normal" result="effect1_dropShadow_5689_1942"/><feColorMatrix in="SourceAlpha" result="hardAlpha" type="matrix" values="0 0 0 0 0 0 0 0 0 0 0 0 0 0 0 0 0 0 127 0"/><feOffset dx="1" dy="1"/><feGaussianBlur stdDeviation=".65"/><feComposite in2="hardAlpha" operator="out"/><feColorMatrix type="matrix" values="0 0 0 0 0 0 0 0 0 0 0 0 0 0 0 0 0 0 0.25 0"/><feBlend in2="effect1_dropShadow_5689_1942" mode="normal" result="effect2_dropShadow_5689_1942"/><feBlend in="SourceGraphic" in2="effect2_dropShadow_5689_1942" mode="normal" result="shape"/></filter><clipPath id="b"><rect height="54.1667" rx="6" width="43.3333" x="26" y="23"/></clipPath><circle cx="50" cy="50" fill="#fed766" r="50"/><path d="m79.1667 36.5417h-3.4167c-.5523 0-1 .4478-1 1v14.25c0 .5523.4477 1 1 1h3.4167c.5523 0 1-.4477 1-1v-14.25c0-.5522-.4477-1-1-1z" fill="#f44747"/><path d="m75.75 58.2084h3.4167c.5523 0 1 .4477 1 1v3.4167c0 .5523-.4477 1-1 1h-3.4167c-.5523 0-1-.4477-1-1v-3.4167c0-.5523.4477-1 1-1z" fill="#f44747"/><g filter="url(#a)"><g clip-path="url(#b)"><rect fill="#fff" height="54.1667" rx="6" width="43.3333" x="26" y="23"/><path d="m47.6667 33.8333c-1.1105 1.6792-2.0313 3.4938-2.6 5.4167h5.2c-.5688-1.9229-1.4625-3.7375-2.6-5.4167zm-3.5209.5959c-2.4916.8395-4.6041 2.5729-5.85 4.8208h3.9542c.4875-1.6792 1.0833-3.3042 1.8958-4.8208zm7.0146 0c.8125 1.5166 1.4354 3.1416 1.9229 4.8208h3.9542c-1.2458-2.2479-3.3854-3.9542-5.8771-4.8208zm-13.975 7.5291c-.2166.8667-.3521 1.7605-.3521 2.7084s.1355 1.8416.3521 2.7083h4.5771c-.1083-.8937-.1896-1.7875-.1896-2.7083 0-.9209.0813-1.8146.1896-2.7084zm7.3125 0c-.1354.8667-.2167 1.7875-.2167 2.7084 0 .9208.0813 1.8146.2167 2.7083h6.3375c.1084-.8937.2167-1.7875.2167-2.7083 0-.9209-.1083-1.8417-.2167-2.7084zm9.0729 0c.1084.8938.1896 1.7875.1896 2.7084 0 .9208-.0812 1.8146-.1896 2.7083h4.5771c.2167-.8667.3521-1.7604.3521-2.7083s-.1354-1.8417-.3521-2.7084zm-15.275 8.125c1.2459 2.248 3.3584 3.9542 5.85 4.8209-.8125-1.5167-1.4083-3.1146-1.8958-4.8209zm6.7709 0c.5687 1.95 1.4895 3.7375 2.6 5.4167 1.1375-1.6792 2.0312-3.4667 2.6-5.4167zm8.0166 0c-.4875 1.7063-1.1104 3.3042-1.9229 4.8209 2.4917-.8667 4.6313-2.5729 5.8771-4.8209zm-21.6666-27.0833c-1.4355 0-2.8167.5687-3.8188 1.5979-1.0292 1.0021-1.5979 2.3833-1.5979 3.8188v43.3333c0 1.4354.5687 2.8167 1.5979 3.8187 1.0021 1.0292 2.3833 1.598 3.8188 1.598h32.5c1.4354 0 2.8166-.5688 3.8187-1.598 1.0292-1.002 1.5979-2.3833 1.5979-3.8187v-43.3333c0-1.4355-.5687-2.8167-1.5979-3.8188-1.0021-1.0292-2.3833-1.5979-3.8187-1.5979zm16.25 8.125c3.602 0 7.0416 1.4354 9.5875 3.9542 2.5187 2.5458 3.9541 5.9854 3.9541 9.5875 0 3.602-1.4354 7.0416-3.9541 9.5875-2.5459 2.5187-5.9855 3.9541-9.5875 3.9541-3.6021 0-7.0417-1.4354-9.5875-3.9541-2.5188-2.5459-3.9542-5.9855-3.9542-9.5875 0-3.6021 1.4354-7.0417 3.9542-9.5875 2.5458-2.5188 5.9854-3.9542 9.5875-3.9542zm13.5416 32.5v5.4167h-27.0833v-5.4167z" fill="#1855d1"/><rect fill="#2a4494" height="6.1" rx="1" width="28" x="34" y="63"/></g></g></svg>