<svg fill="none" height="20" viewBox="0 0 20 20" width="20" xmlns="http://www.w3.org/2000/svg"><path clip-rule="evenodd" d="m7.3125 5.3125c.41421 0 .75.33579.75.75s-.33579.75-.75.75h-.5c-1.81218 0-3.28125 1.46907-3.28125 3.2813 0 1.8121 1.46907 3.2812 3.28125 3.2812h.5c.41421 0 .75.3358.75.75s-.33579.75-.75.75h-.5c-2.64061 0-4.78125-2.1406-4.78125-4.7812 0-2.64066 2.14064-4.7813 4.78125-4.7813zm4.6563.75c0-.41421.3357-.75.75-.75h.4687c2.6406 0 4.7813 2.14064 4.7813 4.7813 0 2.6406-2.1407 4.7812-4.7813 4.7812h-.4687c-.4143 0-.75-.3358-.75-.75s.3357-.75.75-.75h.4687c1.8122 0 3.2813-1.4691 3.2813-3.2812 0-1.81223-1.4691-3.2813-3.2813-3.2813h-.4687c-.4143 0-.75-.33579-.75-.75zm-6.11046 4.0165c0-.41423.33578-.75002.75-.75002h6.75206c.4142 0 .75.33579.75.75002 0 .4142-.3358.75-.75.75h-6.75206c-.41422 0-.75-.3358-.75-.75z" fill="#1855d1" fill-rule="evenodd"/></svg>