<svg fill="none" height="23" viewBox="0 0 23 23" width="23" xmlns="http://www.w3.org/2000/svg"><g fill="#000"><path d="m13.1656 9.79712-.6021-.60215c-.1651-.15937-.4267-.15937-.5918 0-.1691.16342-.1738.43298-.0104.60215l.6022.60218c1.1617 1.1652 1.1617 3.0506 0 4.2158l-6.02236 6.0224c-1.16523 1.1617-3.05066 1.1617-4.21588 0l-.60215-.6022c-1.162137-1.165-1.162137-3.0509 0-4.2159l6.02232-6.02228c.15938-.16502.15938-.42665 0-.59166-.16336-.16917-.43298-.17386-.60215-.01049l-6.02232 6.02233c-1.494614 1.4976-1.494614 3.9226 0 5.4202l.60215.6021c.71808.7193 1.69327 1.1227 2.70966 1.1208 1.01666.002 1.99216-.4014 2.71051-1.1208l6.02232-6.0223c1.4939-1.4979 1.4939-3.9223 0-5.42018z"/><path d="m21.879 1.72311-.6022-.60215c-1.4976-1.494614-3.9226-1.494614-5.4202 0l-6.02229 6.02233c-1.49392 1.49791-1.49392 3.92221 0 5.42021l.60219.6021c.165.1594.4266.1594.5917 0 .1691-.1634.1738-.433.0104-.6021l-.6021-.6022c-1.16175-1.1652-1.16175-3.05064 0-4.21587l6.0223-6.02232c1.1652-1.161711 3.0506-1.161711 4.2159 0l.6021.60215c1.1621 1.16501 1.1621 3.05087 0 4.21588l-6.0223 6.02236c-.0798.0798-.1247.1881-.1247.3009 0 .2352.1906.4259.4258.426.113.0003.2214-.0446.301-.1248l6.0224-6.02231c1.4946-1.4976 1.4946-3.92258 0-5.42018z"/></g></svg>