<svg fill="none" height="20" viewBox="0 0 20 20" width="20" xmlns="http://www.w3.org/2000/svg"><rect height="19" rx="9.5" stroke="#d8dee6" width="19" x=".5" y=".5"/><path d="m10 4.89624c.7376.0001 1.4452.29298 1.9668.81445.5215.5217.8154 1.2301.8154 1.96778v.70117h.4112c.4139.00034.75.336.75.75v5.22556c-.0006.4136-.3364.7497-.75.75h-6.38676c-.41389 0-.74948-.3362-.75-.75v-5.22556c0-.41421.33579-.75.75-.75h.41113v-.70117c0-.73775.29284-1.44607.81446-1.96778.52172-.52172 1.22994-.81445 1.96777-.81445zm-2.44336 8.70896h4.88676v-3.72556h-4.88676zm2.44336-7.20896c-.34 0-.66681.13458-.90723.375-.24031.2404-.375.5673-.375.90723v.70117h2.56443v-.70117c0-.33986-.1357-.66684-.376-.90723-.2403-.24017-.5665-.3749-.9062-.375z" fill="#abb2bd"/></svg>