<svg width="1024" height="1024" viewBox="0 0 1024 1024" fill="none" xmlns="http://www.w3.org/2000/svg">
<rect width="1024" height="1024" fill="#16D2AA"/>
<path d="M474.133 100.837C393.483 108.751 317.32 139.699 253.909 190.019C237.26 203.367 203.606 237.031 190.263 253.686C138.661 318.653 107.842 396.141 100.875 478.472C99.1037 499.379 100.166 544.62 102.764 563.756C113.746 644.433 144.92 716.014 195.577 776.374C208.684 792.084 234.072 817.481 248.596 829.529C307.047 877.841 376.243 908.67 453.468 920.483C474.369 923.79 526.561 925.089 549.469 922.963C646.179 913.868 734.977 872.171 803.582 803.542C872.188 734.914 913.871 646.086 922.963 549.345C925.089 526.429 923.79 474.219 920.484 453.312C908.676 376.06 877.856 306.841 829.56 248.371C810.077 224.865 776.66 193.681 752.217 176.435C696.009 136.392 634.252 112.177 563.875 102.373C547.698 100.128 490.901 99.1834 474.133 100.837ZM552.54 159.189C706.991 177.262 831.214 292.43 860.734 445.043C872.07 503.75 868.055 566.354 849.044 623.407C825.428 694.28 782.564 753.341 722.46 797.991C643.817 856.224 541.558 879.376 445.203 860.713C319.681 836.38 216.95 746.726 175.739 625.769C167.591 601.909 161.569 573.441 158.853 546.746C156.728 526.075 157.909 477.763 161.097 458.037C170.898 396.495 194.278 342.868 233.245 292.076C244.345 277.665 277.88 244.119 292.286 233.015C343.298 193.799 398.678 169.82 458.31 161.079C480.155 157.89 480.155 157.89 510.738 157.654C528.215 157.535 542.621 158.008 552.54 159.189Z" fill="white"/>
<path d="M282.603 391.534L248.714 411.969L248.595 484.023C248.595 529.382 249.068 559.975 249.894 566.708C252.728 589.742 261.23 613.248 272.684 629.195C282.839 643.369 300.197 658.016 316.493 666.167C326.057 671.01 344.006 676.68 355.342 678.333C368.213 680.223 394.663 679.987 406.826 677.861C433.158 673.136 453.704 662.977 471.889 645.614C487.24 630.848 496.568 615.965 502.945 595.884C510.03 573.441 509.911 575.331 510.384 468.904L510.856 371.099L508.022 372.635C506.369 373.461 491.018 382.675 473.66 393.07L442.25 411.969V478.708C442.25 519.223 441.778 549.581 440.951 556.077C436.7 591.16 417.453 614.193 388.877 618.091C355.342 622.816 328.655 603.09 319.799 567.299C317.91 559.149 317.674 550.644 317.083 464.769L316.493 371.217L282.603 391.534Z" fill="white"/>
<path d="M533.174 524.067V677.034L567.182 656.717L601.071 636.282L601.425 614.311L601.662 592.459L635.669 591.75C672.039 591.041 685.264 589.624 703.803 584.309C724.703 578.284 741.235 568.716 752.807 555.841C760.364 547.336 768.394 531.154 771.936 517.097C774.416 507.648 774.652 503.75 774.534 481.661C774.534 458.863 774.298 455.91 771.464 445.516C760.482 405 735.094 383.856 686.09 374.525C674.046 372.28 668.024 372.044 603.197 371.572L533.174 371.099V524.067ZM669.913 433.113C692.467 438.901 702.858 450.595 704.983 472.447C706.873 490.638 700.378 512.845 691.168 520.641C680.068 530.091 670.74 531.863 632.127 531.863H601.662V480.952V430.042L632.127 430.632C654.917 430.987 664.363 431.577 669.913 433.113Z" fill="white"/>
</svg>
