<svg height="32" viewBox="0 0 32 32" width="32" xmlns="http://www.w3.org/2000/svg"><path d="m12.94 5.12c-.716 0-1.402.285-1.909.792s-.792 1.193-.792 1.909v4.76c0 .17.068.333.187.453s.283.188.453.188.333-.067.453-.188.187-.283.187-.453v-4.76c0-.377.15-.739.417-1.005s.626-.417 1.003-.417h16.359c.377 0 .739.15 1.005.417s.417.628.417 1.005v16.359c0 .377-.15.736-.417 1.003s-.628.417-1.005.417h-16.359c-.377 0-.736-.15-1.003-.417s-.417-.626-.417-1.003v-4.763c0-.17-.068-.333-.187-.453s-.283-.188-.453-.188-.333.068-.453.188-.187.283-.187.453v4.763c0 .716.285 1.402.792 1.909s1.193.792 1.909.792h16.359c.716 0 1.402-.285 1.909-.792s.792-1.193.792-1.909v-16.359c0-.716-.285-1.402-.792-1.909s-1.193-.792-1.909-.792zm-7.187 5.117c-.17.002-.334.073-.453.195l-5.12 5.234c-.117.125-.181.29-.18.461.003.169.073.329.193.448l5.12 5.005c.121.113.283.177.448.18.127 0 .251-.039.357-.109s.186-.173.237-.292c.05-.119.061-.247.035-.372-.025-.125-.09-.239-.182-.328l-4.109-4.021h20.966c.17 0 .333-.065.453-.185s.187-.283.187-.453-.068-.333-.187-.453c-.12-.12-.283-.188-.453-.188h-20.789l3.945-4.031c.119-.122.184-.288.182-.458s-.074-.332-.196-.451-.285-.185-.456-.182z"/></svg>