<svg width="95" height="40" xmlns="http://www.w3.org/2000/svg">
  <g fill="#16D2AA" fill-rule="evenodd">
    <path d="M20.045 37.196c-9.54 0-17.272-7.708-17.272-17.216 0-9.508 7.733-17.216 17.272-17.216 9.54 0 17.273 7.708 17.273 17.216 0 9.508-7.733 17.216-17.273 17.216m0-37.196C8.975 0 0 8.945 0 19.98c0 11.034 8.974 19.98 20.045 19.98 11.071 0 20.046-8.946 20.046-19.98C40.09 8.945 31.116 0 20.045 0"/>
    <path d="M11.381 24.144c.552.685 1.296 1.026 2.23 1.026.935 0 1.674-.341 2.219-1.026.545-.684.818-1.62.818-2.804v-6.186l3.312-1.985v8.276c0 2.146-.594 3.792-1.783 4.943-1.19 1.15-2.712 1.725-4.566 1.725-1.855 0-3.38-.579-4.576-1.736-1.196-1.157-1.794-2.8-1.794-4.932v-6.291l3.312-1.985v8.17c0 1.186.276 2.12.828 2.805M28.858 20.313c.396-.444.594-1.093.594-1.948 0-.853-.258-1.46-.775-1.82-.517-.36-1.32-.539-2.41-.539h-1.89v4.974h2.23c1.104 0 1.854-.222 2.25-.667m2.432-5.82c1.04.881 1.561 2.236 1.561 4.063 0 1.828-.534 3.165-1.604 4.011-1.068.847-2.7 1.27-4.894 1.27h-1.975v2.143l-3.312 1.984V13.17h5.244c2.28 0 3.94.442 4.98 1.323M51.496 20.213l-1.99.793c-.346-1.256-1.122-1.885-2.33-1.885-.889 0-1.579.305-2.07.913-.49.609-.737 1.468-.737 2.58 0 1.11.246 1.963.738 2.558.49.596 1.18.893 2.07.893.676 0 1.22-.165 1.631-.496.412-.33.684-.806.817-1.428l1.95.655c-.292.925-.809 1.65-1.553 2.172-.742.523-1.678.783-2.806.783-1.566 0-2.79-.456-3.672-1.368-.883-.913-1.324-2.176-1.324-3.79 0-1.613.438-2.876 1.314-3.79.876-.911 2.09-1.368 3.643-1.368 2.176 0 3.615.926 4.319 2.778M60.523 18.387c.696.635 1.044 1.548 1.044 2.738v6.428h-2.129V21.8c0-1.746-.71-2.62-2.13-2.62-.743 0-1.38.259-1.911.775-.53.516-.796 1.302-.796 2.36v5.238h-2.13V13.17h2.13v6.051c.332-.608.773-1.057 1.324-1.349.55-.29 1.184-.436 1.9-.436 1.101 0 2 .318 2.698.952M62.961 27.553h2.13v-9.92h-2.13v9.92zm.02-11.933c-.253-.231-.38-.559-.38-.982 0-.424.127-.748.38-.972.252-.225.604-.338 1.055-.338.45 0 .799.113 1.045.338.245.224.368.548.368.972 0 .423-.123.75-.368.982-.246.231-.595.347-1.045.347-.451 0-.803-.116-1.056-.347zM69.479 19.796c-.47.45-.766 1.104-.885 1.964h5.374c-.107-.833-.388-1.481-.846-1.944-.458-.463-1.053-.695-1.781-.695-.77 0-1.39.226-1.862.675m6.4 3.591h-7.285c.119.873.43 1.537.936 1.994.503.456 1.154.684 1.95.684.65 0 1.19-.115 1.622-.347a1.82 1.82 0 0 0 .886-1.002l1.772.734c-.744 1.535-2.17 2.302-4.28 2.302-1.566 0-2.79-.457-3.673-1.37-.882-.912-1.323-2.175-1.323-3.789 0-1.626.424-2.893 1.274-3.799.849-.906 2.043-1.359 3.583-1.359 1.46 0 2.593.443 3.403 1.33.81.886 1.214 2.063 1.214 3.53 0 .384-.027.748-.08 1.092M85.812 17.633l-3.962 9.92h-2.329l-3.98-9.92h2.347l2.808 8.194 2.885-8.194zM88.389 19.796c-.471.45-.766 1.104-.886 1.964h5.375c-.106-.833-.39-1.481-.846-1.944-.458-.463-1.052-.695-1.782-.695-.77 0-1.39.226-1.861.675m6.4 3.591h-7.286c.12.873.431 1.537.936 1.994.504.456 1.155.684 1.95.684.651 0 1.192-.115 1.623-.347.43-.231.726-.565.885-1.002l1.772.734c-.743 1.535-2.17 2.302-4.28 2.302-1.565 0-2.79-.457-3.672-1.37-.882-.912-1.324-2.175-1.324-3.789 0-1.626.425-2.893 1.274-3.799.85-.906 2.043-1.359 3.583-1.359 1.46 0 2.594.443 3.404 1.33.81.886 1.214 2.063 1.214 3.53 0 .384-.027.748-.08 1.092"/>
  </g>
</svg>
