<svg height="32" viewBox="0 0 32 32" width="32" xmlns="http://www.w3.org/2000/svg"><path d="m2.667 0c-.707 0-1.385.281-1.885.781s-.781 1.178-.781 1.885v26.667c0 .707.281 1.385.781 1.885s1.178.781 1.885.781h26.667c.707 0 1.385-.281 1.885-.781s.781-1.178.781-1.885v-26.667c0-.707-.281-1.385-.781-1.885s-1.178-.781-1.885-.781zm0 1.333h26.667c.354 0 .693.141.943.391s.391.589.391.943v26.667c0 .354-.141.693-.391.943s-.589.391-.943.391h-26.667c-.354 0-.693-.141-.943-.391s-.391-.589-.391-.943v-26.667c0-.354.141-.693.391-.943s.589-.391.943-.391zm6 4.24v3.333h-3.333v1.333h3.333v3.333h1.333v-3.333h3.333v-1.333h-3.333v-3.333zm10 3.333v1.333h8v-1.333zm-9.334 10.466c-.515 0-.932.417-.932.932s.417.935.932.935.935-.419.935-.935-.419-.932-.935-.932zm10.974.227-.932.948 2.391 2.391-2.391 2.396.932.932 2.393-2.393 2.326 2.326.935-.932-2.323-2.331 2.323-2.323-.935-.945-2.326 2.331zm-14.974 2.641v1.333h8v-1.333zm4 2.32c-.515 0-.932.417-.932.932s.417.932.932.932.935-.417.935-.932-.419-.932-.935-.932z"/></svg>