<?xml version="1.0" encoding="utf-8"?>
<!-- Generator: Adobe Illustrator 21.0.0, SVG Export Plug-In . SVG Version: 6.00 Build 0)  -->
<svg version="1.1" id="Layer_1" xmlns="http://www.w3.org/2000/svg" xmlns:xlink="http://www.w3.org/1999/xlink" x="0px" y="0px"
	 viewBox="0 0 24 24" style="enable-background:new 0 0 24 24;" xml:space="preserve">
<style type="text/css">
	.st0{fill:#FFFFFF;}
</style>
<g>
	<g>
		<path class="st0" d="M22,1c0.6,0,1,0.5,1,1v20c0,0.6-0.5,1-1,1H2c-0.6,0-1-0.5-1-1V2c0-0.6,0.5-1,1-1H22 M22,0H2C0.9,0,0,0.9,0,2
			v20c0,1.1,0.9,2,2,2h20c1.1,0,2-0.9,2-2V2C24,0.9,23.1,0,22,0L22,0z"/>
	</g>
	<rect x="6.5" y="4.2" class="st0" width="1" height="6"/>
	<rect x="4" y="6.7" class="st0" width="6" height="1"/>
	<rect x="14" y="6.7" class="st0" width="6" height="1"/>
	<path class="st0" d="M14.5,15.4l4.2,4.2l0.7-0.7l-4.2-4.2L14.5,15.4z"/>
	<path class="st0" d="M14.5,18.9l0.7,0.7l4.2-4.2l-0.7-0.7L14.5,18.9z"/>
	<rect x="4" y="16.7" class="st0" width="6" height="1"/>
	<circle class="st0" cx="7" cy="15.2" r="0.7"/>
	<circle class="st0" cx="7" cy="19.1" r="0.7"/>
</g>
</svg>
