<svg fill="none" height="20" viewBox="0 0 20 20" width="20" xmlns="http://www.w3.org/2000/svg"><path clip-rule="evenodd" d="m6 10.5c0 .8284-.67157 1.5-1.5 1.5s-1.5-.6716-1.5-1.5c0-.82843.67157-1.5 1.5-1.5s1.5.67157 1.5 1.5zm5.8333 0c0 .8284-.6715 1.5-1.5 1.5-.82838 0-1.49996-.6716-1.49996-1.5 0-.82843.67158-1.5 1.49996-1.5.8285 0 1.5.67157 1.5 1.5zm4.3334 1.5c.8284 0 1.5-.6716 1.5-1.5 0-.82843-.6716-1.5-1.5-1.5-.8285 0-1.5.67157-1.5 1.5 0 .8284.6715 1.5 1.5 1.5z" fill="#666f7d" fill-rule="evenodd"/></svg>