<svg fill="none" height="18" viewBox="0 0 16 18" width="16" xmlns="http://www.w3.org/2000/svg"><path clip-rule="evenodd" d="m7.88571 1.16748c-1.5221 0-2.75601 1.2339-2.75601 2.756v4.40961c0 1.5221 1.23391 2.75601 2.75601 2.75601s2.75599-1.2339 2.75599-2.756v-4.40961c0-1.5221-1.23389-2.75601-2.75599-2.75601zm-4.21091 7.71676c0-.41421-.33578-.75-.75-.75-.41421 0-.75.33579-.75.75 0 .80132.29282 2.07336 1.15434 3.16056.78462.9902 2.01226 1.7891 3.80706 1.9636v1.8426h-2.55735c-.41421 0-.75.3358-.75.75s.33579.75.75.75h6.61445c.4142 0 .75-.3358.75-.75s-.3358-.75-.75-.75h-2.5571v-1.8427c1.7942-.1747 3.0214-.9735 3.8059-1.9635.8615-1.0872 1.1543-2.35924 1.1543-3.16056 0-.41421-.3358-.75-.75-.75s-.75.33579-.75.75c0 .50523-.2032 1.43806-.83 2.22896-.5988.7558-1.62068 1.4307-3.38079 1.4307-1.7601 0-2.78194-.6749-3.38082-1.4307-.62672-.7909-.82999-1.72373-.82999-2.22896z" fill="#abb2bd" fill-rule="evenodd"/><path d="m15 1-14 16" stroke="#abb2bd" stroke-linecap="round" stroke-width="1.5"/></svg>