<svg width="18px" height="18px" viewBox="0 0 18 18" version="1.1" xmlns="http://www.w3.org/2000/svg" xmlns:xlink="http://www.w3.org/1999/xlink">
    <!-- Generator: Sketch 46.2 (44496) - http://www.bohemiancoding.com/sketch -->
    <desc>Created with Sketch.</desc>
    <defs></defs>
    <g id="Page-2:-Students" stroke="none" stroke-width="1" fill="none" fill-rule="evenodd">
        <g id="student-chatroom_whiteboard" transform="translate(-441.000000, -763.000000)" fill-rule="nonzero" fill="#343440">
            <g id="Group" transform="translate(402.000000, 756.000000)">
                <g id="new" transform="translate(36.000000, 4.000000)">
                    <path d="M19,3 L5,3 C3.89,3 3,3.9 3,5 L3,19 C3,20.1 3.89,21 5,21 L19,21 C20.1,21 21,20.1 21,19 L21,5 C21,3.9 20.1,3 19,3 Z M17,13 L13,13 L13,17 L11,17 L11,13 L7,13 L7,11 L11,11 L11,7 L13,7 L13,11 L17,11 L17,13 Z" id="Shape"></path>
                </g>
            </g>
        </g>
    </g>
</svg>
