<svg fill="none" height="20" viewBox="0 0 20 20" width="20" xmlns="http://www.w3.org/2000/svg"><path d="m10.0004 2.05005c.414.0002.75.33591.75.75v.81055c1.3044.14775 2.5285.73266 3.4658 1.66992 1.093 1.09304 1.707 2.57632 1.707 4.12207 0 2.33791.2496 3.65231.4727 4.35551.1109.3494.2128.5404.2685.6289.0278.044.0448.0623.045.0625 0 0-.0046-.005-.0127-.0127-.0041-.0039-.0096-.0083-.0157-.0137-.003-.0027-.0062-.0058-.0097-.0088-.0017-.0014-.0041-.0034-.0059-.0049-.001-.0008-.0028-.0021-.0039-.0029.2458.1994.3403.5321.2354.831-.1056.3002-.3899.5009-.7081.501h-3.2392c-.0013.065-.0073.131-.0264.1963-.1787.6099-.5503 1.146-1.0586 1.5274-.4448.3336-.9744.5333-1.5254.5781l-.2373.0097c-.6355 0-1.25415-.2065-1.76267-.5878-.44477-.3336-.7846-.7855-.98242-1.3018l-.07617-.2256-.01758-.0752c-.0075-.0405-.00992-.0809-.01074-.1211h-3.25195c-.28668 0-.5481-.1633-.67383-.4209-.12527-.2571-.09348-.5633.08203-.789l-.00391.0039c-.00119.0015-.00214.0037-.00293.0049-.00125.0016-.00249.0033-.00293.0039.001-.0014.0053-.0075.01172-.0176.01461-.0231.04241-.0699.0791-.1426.07365-.1459.184-.4001.29883-.7891.23005-.7796.47751-2.1036.47754-4.18941.00005-1.54578.61402-3.02903 1.70703-4.12207.89197-.89185 2.04379-1.46486 3.27735-1.64551v-.83496c0-.41421.33578-.75.75003-.75zm-1.18949 13.68845c.10003.2049.24483.3855.42871.5235.24905.1866.5516.288.86228.288l.1162-.0048c.2694-.022.5283-.1199.7461-.2832.1841-.1382.3307-.3183.4307-.5235z" fill="#fedf85"/></svg>