<svg fill="none" height="80" viewBox="0 0 80 80" width="80" xmlns="http://www.w3.org/2000/svg"><circle cx="40" cy="40" fill="#f9bef9" r="40"/><rect fill="#2a4494" height="38" rx="4" width="38" x="21" y="21"/><g fill="#fff"><path d="m51.2361 59h-22.4722c-.2026 0-.3969-.0816-.5401-.2268-.1433-.1452-.2237-.3422-.2237-.5476-.0066-1.9264.4338-3.8273 1.2856-5.5492.8519-1.7219 2.0914-3.2165 3.6182-4.3631.3789-.2883.8288-.4654 1.3003-.5119.4716-.0464.9466.0396 1.3732.2486 1.3649.7057 2.8752 1.0737 4.4074 1.0737 1.5321 0 3.0424-.368 4.4073-1.0737.428-.2138.9064-.3025 1.3813-.256.475.0465.9277.2264 1.3074.5193 1.5208 1.1322 2.7582 2.6105 3.6126 4.316s1.3019 3.5905 1.3066 5.5034c.0012.2148-.0762.4224-.2174.5826-.1411.1602-.3358.2617-.5465.2847z"/><path d="m39.9782 46.4084c-1.6981 0-3.358-.5104-4.7699-1.4669-1.4119-.9564-2.5124-2.3158-3.1622-3.9063s-.8198-3.3406-.4885-5.0291c.3312-1.6884 1.1489-3.2394 2.3496-4.4567 1.2008-1.2173 2.7306-2.0463 4.396-2.3821 1.6654-.3359 3.3917-.1635 4.9605.4953s2.9097 1.7744 3.8531 3.2058 1.4469 3.1143 1.4469 4.8358c0 1.1431-.222 2.2749-.6535 3.331-.4315 1.056-1.0639 2.0156-1.8611 2.8238-.7973.8083-1.7437 1.4494-2.7854 1.8869-1.0416.4374-2.1581.6625-3.2855.6625z"/></g></svg>