<svg height="32" viewBox="0 0 32 32" width="32" xmlns="http://www.w3.org/2000/svg"><path d="m16.396.005c-1.174-.029-2.354.071-3.518.302-3.104.617-5.955 2.14-8.193 4.378s-3.76 5.089-4.378 8.193-.299 6.321.911 9.245c1.211 2.924 3.259 5.422 5.891 7.18s5.726 2.698 8.891 2.698c4.241-.007 8.305-1.696 11.305-4.695s4.69-7.063 4.695-11.305c0-3.165-.94-6.259-2.698-8.891s-4.256-4.68-7.18-5.891c-1.827-.757-3.769-1.165-5.727-1.214zm-.396 1.273c3.903.003 7.644 1.555 10.404 4.315s4.312 6.503 4.315 10.406c0 2.911-.862 5.756-2.479 8.177s-3.917 4.308-6.607 5.422-5.65 1.407-8.505.839-5.478-1.97-7.537-4.029-3.461-4.681-4.029-7.536-.276-5.816.839-8.505c1.114-2.69 3.001-4.989 5.422-6.607s5.266-2.482 8.177-2.482zm0 5.722c-.56 0-1.113.111-1.63.326s-.987.529-1.383.924-.71.866-.924 1.383-.326 1.07-.326 1.63v1.664h-1.563c-.17 0-.331.067-.451.188s-.187.283-.187.453v9.471c0 .17.068.333.187.453s.281.188.451.188h11.648c.09.001.178-.019.261-.055s.156-.09.216-.156.103-.144.133-.229.04-.174.03-.263v-9.409c0-.17-.068-.333-.187-.453s-.283-.188-.453-.188h-1.56v-1.664c0-.56-.111-1.113-.326-1.63s-.529-.987-.924-1.383c-.396-.396-.866-.71-1.383-.924s-1.07-.326-1.63-.326zm0 1.281c.791 0 1.55.313 2.109.872s.872 1.318.872 2.109v1.664h-5.964v-1.664c0-.791.313-1.55.872-2.109s1.318-.872 2.109-.872zm-5.12 5.927h10.367v8.19h-10.367zm5.125 2.295c-.139 0-.277.029-.404.086s-.238.139-.331.242c-.093.104-.164.227-.206.359-.04.132-.054.271-.04.409 0 .151.035.3.102.435s.162.254.281.346l-.536 1.625h2.253l-.536-1.625c.123-.089.223-.208.292-.344s.105-.285.104-.438c.015-.138.003-.276-.04-.409-.04-.132-.11-.256-.203-.359s-.207-.185-.334-.242-.265-.086-.404-.086z"/></svg>