<svg fill="none" height="23" viewBox="0 0 28 23" width="28" xmlns="http://www.w3.org/2000/svg"><rect height="18" rx="1.5" stroke="#343440" width="27" x=".5" y="4.00012"/><rect fill="#343440" height="11" rx="1" width="11" x="3.00024" y="7.49976"/><path d="m11.7521 18.4996h-6.50509c-.05864 0-.11488-.0236-.15635-.0656-.04146-.0421-.06476-.0991-.06476-.1585-.00192-.5577.12557-1.1079.37217-1.6064.24659-.4984.60538-.9311 1.04737-1.263.10968-.0834.2399-.1347.3764-.1481.1365-.0135.27402.0114.39749.0719.3951.2043.83231.3108 1.27582.3108s.88072-.1065 1.27582-.3108c.12389-.0619.26233-.0876.39983-.0741s.2686.0655.3785.1503c.4402.3278.7984.7557 1.0457 1.2494s.3769 1.0394.3782 1.5931c.0004.0622-.022.1222-.0629.1686-.0408.0464-.0972.0758-.1582.0824z" fill="#fff"/><path d="m8.4936 14.8548c-.49154 0-.97205-.1477-1.38076-.4246-.4087-.2769-.72725-.6704-.91536-1.1308-.1881-.4604-.23732-.967-.14142-1.4558.09589-.4887.33259-.9377.68017-1.2901.34757-.3523.79041-.59231 1.27251-.68953s.98181-.04733 1.43594.14333c.45413.1908.84232.5137 1.11542.9281.273.4143.4188.9015.4188 1.3998 0 .3309-.0643.6585-.1892.9642s-.3079.5835-.5387.8175c-.2308.2339-.50479.4195-.80632.5461-.30153.1267-.62471.1918-.95108.1918z" fill="#fff"/><path clip-rule="evenodd" d="m17 10.0207c0-.28764.2332-.52082.5209-.52082h6.9583c.2877 0 .5208.23318.5208.52082 0 .2877-.2331.5208-.5208.5208h-6.9583c-.2877 0-.5209-.2331-.5209-.5208zm0 3.1251c0-.2877.2332-.5208.5208-.5208h6.9584c.2876 0 .5208.2331.5208.5208 0 .2876-.2332.5208-.5208.5208h-6.9584c-.2876 0-.5208-.2332-.5208-.5208zm.5208 2.479c-.2876 0-.5208.2332-.5208.5208 0 .2877.2332.5209.5208.5209h6.9584c.2876 0 .5208-.2332.5208-.5209 0-.2876-.2332-.5208-.5208-.5208z" fill="#343440" fill-rule="evenodd"/><path d="m11.5 3c0-1.38071 1.1193-2.5 2.5-2.5s2.5 1.11929 2.5 2.5v2.5h-5z" fill="#fff" stroke="#343440"/></svg>