<svg fill="none" height="26" viewBox="0 0 22 26" width="22" xmlns="http://www.w3.org/2000/svg"><rect height="24" rx="1.5" stroke="#343440" width="19.8333" x="1.08325" y="1"/><g fill="#343440"><path d="m15.3891 15.1619h-8.7782c-.07913 0-.15502-.0286-.21098-.0794s-.08739-.1197-.08739-.1916c-.00259-.6739.16945-1.339.50221-1.9414.33277-.6024.81692-1.1253 1.41336-1.5264.14801-.1009.32373-.1629.50793-.1791.18419-.0163.36976.0138.53639.087.53315.2469 1.12318.3756 1.72158.3756.5985 0 1.1885-.1287 1.7217-.3756.1672-.0749.354-.1059.5395-.0896.1856.0163.3624.0792.5108.1817.594.3961 1.0774.9133 1.4111 1.5099.3338.5967.5086 1.2562.5104 1.9254.0005.0752-.0298.1478-.0849.2039-.0551.056-.1312.0915-.2135.0996z"/><path d="m10.9912 10.757c-.6633 0-1.31173-.1786-1.86325-.5132-.55152-.33457-.98137-.81017-1.23521-1.36661s-.32025-1.16873-.19085-1.75944c.12941-.59072.44882-1.13332.91785-1.5592s1.06661-.71591 1.71716-.83341c.6506-.1175 1.3249-.05719 1.9377.17329s1.1366.6208 1.5051 1.12158.5652 1.08954.5652 1.69183c0 .3999-.0867.79589-.2553 1.16535-.1685.36946-.4155.70516-.727.98794-.3114.28277-.6811.50707-1.088.66007-.4069.1531-.843.2318-1.2834.2318z"/><rect height="1.04167" rx=".520833" width="12.5" x="4.75" y="17.1666"/><rect height="1.04167" rx=".520833" width="12.5" x="4.75" y="20.2916"/></g></svg>