<?xml version="1.0" encoding="utf-8"?>
<!-- Generator: Adobe Illustrator 21.0.0, SVG Export Plug-In . SVG Version: 6.00 Build 0)  -->
<svg version="1.1" id="Layer_1" xmlns="http://www.w3.org/2000/svg" xmlns:xlink="http://www.w3.org/1999/xlink" x="0px" y="0px"
	 viewBox="0 0 24 24" style="enable-background:new 0 0 24 24;" xml:space="preserve">
<style type="text/css">
	.st0{fill:#FFFFFF;}
	.st1{fill:none;stroke:#FFFFFF;stroke-linecap:round;stroke-linejoin:round;stroke-miterlimit:10;}
</style>
<g>
	<g>
		<path class="st0" d="M12,1c6.1,0,11,4.9,11,11s-4.9,11-11,11S1,18.1,1,12S5.9,1,12,1 M12,0C5.4,0,0,5.4,0,12s5.4,12,12,12
			s12-5.4,12-12S18.6,0,12,0L12,0z"/>
	</g>
	<path class="st1" d="M12,5.5c-1.6,0-2.8,1.3-2.8,2.8v1.8h5.7V8.3C14.8,6.7,13.6,5.5,12,5.5z"/>
	<rect x="7.4" y="10.1" class="st1" width="9.1" height="7.4"/>
	<path class="st0" d="M12.9,15.1l-0.4-1.3c0.2-0.1,0.3-0.4,0.3-0.6c0-0.4-0.3-0.8-0.8-0.8c-0.4,0-0.8,0.3-0.8,0.8
		c0,0.3,0.1,0.5,0.3,0.6l-0.4,1.3H12.9z"/>
</g>
</svg>
