<svg width="315" height="181" viewBox="0 0 315 181" fill="none" xmlns="http://www.w3.org/2000/svg">
<g clip-path="url(#clip0_8376_5916)">
<rect width="315" height="181" rx="14" fill="white"/>
<rect width="315" height="181" rx="14" fill="#E3F2FD"/>
<g filter="url(#filter0_d_8376_5916)">
<path d="M149.561 34.6791L143.267 26.1642C142.818 25.5577 142.158 25.1424 141.417 25.0008L55.4021 8.56419C53.7747 8.25321 52.2033 9.32038 51.8924 10.9478L27.5631 138.267C27.2521 139.894 28.3193 141.465 29.9467 141.776L132.451 161.364C134.079 161.675 135.65 160.608 135.961 158.98L157.365 46.9733C157.521 46.1566 157.331 45.3117 156.84 44.6403L149.561 34.6791Z" fill="white"/>
</g>
<g filter="url(#filter1_d_8376_5916)">
<path d="M157.609 45.6929L142.57 25.221L139.325 42.199L157.609 45.6929Z" fill="#F6F5F5"/>
</g>
<rect x="58.8521" y="24.1172" width="63.8223" height="3.98889" rx="1.5" transform="rotate(10.8182 58.8521 24.1172)" fill="#C3CAD9"/>
<rect x="40.1343" y="122.066" width="94.4038" height="3.98889" rx="1.5" transform="rotate(10.8182 40.1343 122.066)" fill="#C3CAD9"/>
<rect x="55.8574" y="39.7852" width="90.4149" height="3.98889" rx="1.5" transform="rotate(10.8182 55.8574 39.7852)" fill="#C3CAD9"/>
<rect x="57.0303" y="54.8984" width="73.1297" height="3.98889" rx="1.5" transform="rotate(100.818 57.0303 54.8984)" fill="#C3CAD9"/>
<rect x="56.1318" y="102.109" width="11.9667" height="22.6037" transform="rotate(10.8182 56.1318 102.109)" fill="#CEEDE7"/>
<rect x="79.5229" y="93.043" width="11.9667" height="35.9001" transform="rotate(10.8182 79.5229 93.043)" fill="#9AE4D4"/>
<rect x="98.6719" y="106.18" width="11.9667" height="26.5926" transform="rotate(10.8182 98.6719 106.18)" fill="#71E1C9"/>
<rect x="121.257" y="94.2461" width="11.9667" height="42.5482" transform="rotate(10.8182 121.257 94.2461)" fill="#16D2AA"/>
<path d="M88.4904 74.4457L89.2613 73.8087L88.6815 73.1072L87.9286 73.6185L88.4904 74.4457ZM104.433 93.7364L103.662 94.3734L104.232 95.0635L104.981 94.5728L104.433 93.7364ZM129.398 78.2184C129.511 77.6777 129.164 77.1481 128.623 77.0356L119.812 75.2017C119.271 75.0892 118.742 75.4362 118.629 75.9769C118.516 76.5176 118.864 77.0472 119.404 77.1597L127.236 78.7899L125.606 86.622C125.494 87.1627 125.841 87.6923 126.381 87.8048C126.922 87.9174 127.452 87.5703 127.564 87.0296L129.398 78.2184ZM62.6077 93.2324L89.0523 75.273L87.9286 73.6185L61.484 91.5779L62.6077 93.2324ZM87.7196 75.0828L103.662 94.3734L105.204 93.0994L89.2613 73.8087L87.7196 75.0828ZM104.981 94.5728L128.967 78.851L127.871 77.1783L103.885 92.9L104.981 94.5728Z" fill="#A5ACBC"/>
<path d="M150.279 130.854C150.279 130.854 133.416 66.9348 178.383 61.6303C207.931 58.1475 227.195 69.8511 236.923 78.2843C242.201 82.8615 245.83 89.1703 247.176 96.1873C248.336 102.264 248.966 110.035 246.626 116.337C246.626 116.337 248.009 128.092 267.064 143.922C267.064 143.922 282.248 152.426 289.353 166.074C296.457 179.722 294.038 197.908 294.038 197.908C294.038 197.908 292.26 219.467 271.107 222.834C249.947 226.201 244.46 222.834 244.46 222.834C244.46 222.834 240.583 220.478 247.527 216.094C254.472 211.71 258.836 209.695 258.836 209.695C258.836 209.695 229.121 211.549 219.103 211.208C219.103 211.208 216.517 226.871 202.789 228.39C189.061 229.909 201.98 210.197 201.98 210.197C201.98 210.197 185.993 210.699 177.432 203.966C177.432 203.966 178.642 219.126 166.612 221.991C154.581 224.856 150.705 218.116 153.285 215.759C155.871 213.403 161.359 209.695 161.359 209.695L155.791 172.048C155.791 172.048 151.279 168.913 150.977 137.697L150.279 130.854Z" fill="#E4B652"/>
<path d="M293.835 181.199C293.835 181.199 297.335 177.71 299.823 171.485C302.31 165.26 306.872 169.071 307.495 172.187C308.106 175.245 310.927 182.905 294.434 191.204L291.99 185.751L293.835 181.199Z" fill="#E4B652"/>
<path d="M169.291 62.151C169.291 62.151 150.983 68.7496 144.101 70.3654C137.218 71.9813 132.786 71.4083 133.008 83.0926C133.231 94.7768 139.193 103.088 141.582 103.635C144.057 104.201 147.44 104.053 149.002 96.1931C150.563 88.3328 152.057 78.6249 157.89 73.0628C162.809 68.3698 167.556 65.3119 168.908 64.475C169.223 64.2819 169.513 64.0501 169.772 63.7733C170.463 63.0459 171.439 61.7583 169.291 62.151Z" fill="#544B43"/>
<path d="M213.776 65.0276C213.776 65.0276 211.733 61.2552 219.338 63.856C226.942 66.4568 233.115 68.3173 240.01 68.9353C246.904 69.5533 250.701 69.9267 252.367 75.9973C254.034 82.068 249.991 92.4776 245.837 98.7929C243.553 102.269 241.584 101.696 240.281 100.48C239.269 99.5332 238.658 98.2006 238.448 96.8037C238.102 94.4926 236.936 89.3361 233.146 84.3018C230.3 80.5294 220.566 68.0598 213.776 65.0276Z" fill="#544B43"/>
<path d="M166.965 103.843C166.965 103.843 176.743 93.6455 189.995 93.1305C203.247 92.6155 210.537 103.843 210.537 103.843" stroke="#544B43" stroke-width="1.6" stroke-miterlimit="10" stroke-linecap="round" stroke-linejoin="round"/>
<path d="M189.16 98.4791C189.16 98.4791 180.765 97.5264 181.648 104.736C181.752 105.593 182.277 106.378 183.067 106.642C184.018 106.957 185.598 106.835 188.098 105.091C188.098 105.091 188.987 104.247 190.036 105.136C191.085 106.018 192.172 107.518 194.715 106.706C195.758 106.372 196.351 105.599 196.69 104.794C197.375 103.166 196.974 101.209 195.635 100.108C194.505 99.1808 192.548 98.3568 189.16 98.4791Z" fill="#544B43"/>
<path d="M148.626 122.758C148.626 122.758 196.894 142.403 246.632 116.238L249.784 124.463C249.784 124.463 191.157 153.23 148.743 130.922L148.626 122.758Z" fill="#16D2AA"/>
<path d="M191.159 158.756C186.431 158.756 182.598 154.655 182.598 149.595C182.598 144.535 186.431 140.434 191.159 140.434C195.888 140.434 199.721 144.535 199.721 149.595C199.721 154.655 195.888 158.756 191.159 158.756Z" fill="white"/>
<path d="M191.158 140.23C196.436 140.23 200.72 144.523 200.72 149.825C200.72 155.122 196.442 159.42 191.158 159.42C185.881 159.42 181.597 155.128 181.597 149.825C181.597 144.523 185.881 140.23 191.158 140.23ZM191.158 158.089C195.708 158.089 199.399 154.384 199.399 149.819C199.399 145.254 195.714 141.55 191.158 141.55C186.609 141.55 182.918 145.248 182.918 149.819C182.924 154.391 186.609 158.089 191.158 158.089Z" fill="#16D2AA"/>
<path d="M191.161 158.093C186.61 158.093 182.92 154.391 182.92 149.824C182.92 145.257 186.61 141.555 191.161 141.555C195.712 141.555 199.401 145.257 199.401 149.824C199.401 154.391 195.712 158.093 191.161 158.093Z" fill="white"/>
<path d="M187.037 151.818C187.303 152.147 187.655 152.314 188.099 152.314C188.543 152.314 188.895 152.147 189.155 151.818C189.414 151.49 189.543 151.038 189.543 150.474V147.501L191.124 146.547V150.524C191.124 151.552 190.84 152.345 190.272 152.896C189.704 153.447 188.982 153.726 188.093 153.726C187.21 153.726 186.482 153.447 185.908 152.89C185.34 152.332 185.05 151.546 185.05 150.524V147.501L186.63 146.547V150.468C186.642 151.044 186.778 151.49 187.037 151.818Z" fill="#16D2AA"/>
<path d="M196.535 147.185C197.029 147.606 197.282 148.256 197.282 149.136C197.282 150.016 197.029 150.654 196.516 151.063C196.004 151.471 195.226 151.67 194.183 151.67H193.239V152.698L191.659 153.652V146.547H194.159C195.245 146.553 196.035 146.764 196.535 147.185ZM195.375 149.979C195.566 149.768 195.658 149.452 195.658 149.043C195.658 148.634 195.535 148.343 195.288 148.17C195.041 147.996 194.659 147.91 194.14 147.91H193.239V150.301H194.301C194.825 150.301 195.183 150.195 195.375 149.979Z" fill="#16D2AA"/>
<path d="M191.374 138.295C191.374 138.295 192.27 139.791 191.414 140.599C190.553 141.413 191.862 140.869 191.862 140.869C191.862 140.869 192.661 139.384 191.862 138.295C191.862 138.295 191.692 137.701 191.374 138.295Z" fill="#B5E0D6"/>
<path d="M190.298 139.471L190.572 139.406V140.186L190.298 140.229V139.471Z" fill="#B5E0D6"/>
<path d="M167.822 94.2219C167.822 94.2219 168.501 91.3636 171.285 91.2284C174.075 91.0997 174.655 93.1597 174.655 93.1597" stroke="#1E1C1A" stroke-width="2" stroke-miterlimit="10" stroke-linecap="round" stroke-linejoin="round"/>
<path d="M204.333 93.4069C204.333 93.4069 205.593 90.7674 208.339 91.276C211.092 91.7846 211.222 93.9219 211.222 93.9219" stroke="#1E1C1A" stroke-width="2" stroke-miterlimit="10" stroke-linecap="round" stroke-linejoin="round"/>
<path d="M185.809 112.583C185.809 112.583 186.468 116.708 188.835 117.031C191.196 117.358 192.307 113.381 192.307 113.381L188.953 110.561L185.809 112.583Z" fill="#DA4351"/>
<path d="M189.026 104.73V110.202C189.026 110.202 190.249 112.823 194.693 112.977C195.001 112.99 195.31 112.945 195.612 112.861C196.582 112.597 198.674 111.87 199.476 110.344" stroke="#544B43" stroke-width="1.6" stroke-miterlimit="10" stroke-linecap="round" stroke-linejoin="round"/>
<path d="M189.025 110.195C189.025 110.195 186.963 113.89 183.655 112.976C180.346 112.062 180.297 110.195 180.297 110.195" stroke="#544B43" stroke-width="1.6" stroke-miterlimit="10" stroke-linecap="round" stroke-linejoin="round"/>
</g>
<defs>
<filter id="filter0_d_8376_5916" x="23.5093" y="4.51172" width="141.909" height="164.906" filterUnits="userSpaceOnUse" color-interpolation-filters="sRGB">
<feFlood flood-opacity="0" result="BackgroundImageFix"/>
<feColorMatrix in="SourceAlpha" type="matrix" values="0 0 0 0 0 0 0 0 0 0 0 0 0 0 0 0 0 0 127 0" result="hardAlpha"/>
<feOffset dx="2" dy="2"/>
<feGaussianBlur stdDeviation="3"/>
<feComposite in2="hardAlpha" operator="out"/>
<feColorMatrix type="matrix" values="0 0 0 0 0 0 0 0 0 0 0 0 0 0 0 0 0 0 0.25 0"/>
<feBlend mode="normal" in2="BackgroundImageFix" result="effect1_dropShadow_8376_5916"/>
<feBlend mode="normal" in="SourceGraphic" in2="effect1_dropShadow_8376_5916" result="shape"/>
</filter>
<filter id="filter1_d_8376_5916" x="139.125" y="25.0227" width="19.2842" height="21.4688" filterUnits="userSpaceOnUse" color-interpolation-filters="sRGB">
<feFlood flood-opacity="0" result="BackgroundImageFix"/>
<feColorMatrix in="SourceAlpha" type="matrix" values="0 0 0 0 0 0 0 0 0 0 0 0 0 0 0 0 0 0 127 0" result="hardAlpha"/>
<feOffset dx="0.3" dy="0.3"/>
<feGaussianBlur stdDeviation="0.25"/>
<feComposite in2="hardAlpha" operator="out"/>
<feColorMatrix type="matrix" values="0 0 0 0 0 0 0 0 0 0 0 0 0 0 0 0 0 0 0.25 0"/>
<feBlend mode="normal" in2="BackgroundImageFix" result="effect1_dropShadow_8376_5916"/>
<feBlend mode="normal" in="SourceGraphic" in2="effect1_dropShadow_8376_5916" result="shape"/>
</filter>
<clipPath id="clip0_8376_5916">
<rect width="315" height="181" rx="14" fill="white"/>
</clipPath>
</defs>
</svg>
