<svg fill="none" height="154" viewBox="0 0 154 154" width="154" xmlns="http://www.w3.org/2000/svg"><circle cx="77" cy="77" fill="#1855d1" r="77"/><path d="m67.8182 97.8182v-.5455c.0606-5.7879.6666-10.3939 1.8182-13.8182 1.1515-3.4242 2.7878-6.1969 4.9091-8.3181 2.1212-2.1212 4.6666-4.0758 7.6363-5.8637 1.7879-1.0909 3.394-2.3788 4.8182-3.8636 1.4242-1.5152 2.5455-3.2576 3.3636-5.2273.8485-1.9697 1.2728-4.1515 1.2728-6.5454 0-2.9697-.697-5.5455-2.0909-7.7273-1.394-2.1818-3.2576-3.8636-5.591-5.0455-2.3333-1.1818-4.9242-1.7727-7.7727-1.7727-2.4848 0-4.8788.5152-7.1818 1.5455s-4.2273 2.6515-5.7727 4.8636c-1.5455 2.2121-2.4394 5.1061-2.6818 8.6818h-11.4546c.2424-5.1515 1.5758-9.5606 4-13.2273 2.4546-3.6666 5.6818-6.4697 9.6818-8.4091 4.0303-1.9393 8.5-2.909 13.4091-2.909 5.3334 0 9.9697 1.0606 13.9091 3.1818 3.9697 2.1212 7.0303 5.0303 9.1818 8.7272 2.1823 3.697 3.2723 7.9091 3.2723 12.6364 0 3.3333-.515 6.3485-1.545 9.0455-1 2.6969-2.4545 5.106-4.3636 7.2272-1.8788 2.1213-4.1515 4-6.8182 5.6364-2.6667 1.6667-4.803 3.4243-6.4091 5.2727-1.6061 1.8182-2.7727 3.9849-3.5 6.5-.7273 2.5152-1.1212 5.6516-1.1818 9.4091v.5455zm5.8182 26.9088c-2.2425 0-4.1667-.803-5.7728-2.409-1.606-1.606-2.4091-3.53-2.4091-5.773 0-2.242.8031-4.166 2.4091-5.772 1.6061-1.606 3.5303-2.409 5.7728-2.409 2.2424 0 4.1666.803 5.7727 2.409s2.4091 3.53 2.4091 5.772c0 1.485-.3788 2.849-1.1364 4.091-.7273 1.243-1.7121 2.243-2.9545 3-1.2121.728-2.5758 1.091-4.0909 1.091z" fill="#fff"/></svg>