<svg height="24" viewBox="0 0 24 24" width="24" xmlns="http://www.w3.org/2000/svg"><g fill="#343440"><g fill-opacity=".85" opacity=".51516" transform="translate(6.418605)"><path d="m16.886681 21.8023097h-16.33154066c-.14723838 0-.28844477-.0593023-.39251454-.1648255-.10414244-.1055233-.16257267-.2486919-.16257267-.3979652-.00479652-1.4.31526162-2.781468.93430232-4.0328488.61911337-1.2513808 1.51991279-2.3375727 2.62950582-3.1708576.27536337-.2095203.60232558-.3382267.94498546-.3720203.34273256-.0337209.68793605.0287791.99796512.1806686.99193314.5128634 2.08953488.7803052 3.20305232.7803052 1.11344477 0 2.21104653-.2674418 3.20297963-.7803052.3110465-.1553779.658721-.2198401 1.0038518-.1860465.3452035.0337936.6742005.1645349.9501453.3773982 1.1052326.8228198 2.0045058 1.8971657 2.6254361 3.136628.6209302 1.2394622.9461482 2.609375.9495639 3.9995639.0008721.1561047-.0553779.3069768-.1579942.4234012-.1025436.1164244-.2440407.1901889-.3971657.206904z"/><path d="m8.70506766 12.6514376c-1.2340843 0-2.44040698-.3709302-3.46649709-1.066061-1.02609012-.6950581-1.8258721-1.68299418-2.29811047-2.83888081s-.59578488-2.42776163-.35501453-3.65486919c.24069767-1.22703488.83495639-2.35421511 1.70755814-3.23888081.87267442-.8846657 1.98444767-1.48713663 3.19476744-1.73117733 1.21031977-.24411337 2.46489826-.11882267 3.60501455.3599564 1.1401163.47877907 2.1146075 1.28953488 2.800218 2.32979651s1.0515262 2.26329942 1.0515262 3.51438953c0 .83074128-.1613372 1.65327035-.4749274 2.42078489-.3135901.76744186-.7731831 1.46482561-1.3525436 2.05218021-.5794331.5874273-1.2672238 1.053343-2.0242732 1.3712936-.7569768.3178779-1.56838664.481468-2.38771804.481468z"/></g><g transform="translate(.139535 1.395349)"><path d="m16.886681 21.8023097h-16.33154066c-.14723838 0-.28844477-.0593023-.39251454-.1648255-.10414244-.1055233-.16257267-.2486919-.16257267-.3979652-.00479652-1.4.31526162-2.781468.93430232-4.0328488.61911337-1.2513808 1.51991279-2.3375727 2.62950582-3.1708576.27536337-.2095203.60232558-.3382267.94498546-.3720203.34273256-.0337209.68793605.0287791.99796512.1806686.99193314.5128634 2.08953488.7803052 3.20305232.7803052 1.11344477 0 2.21104653-.2674418 3.20297963-.7803052.3110465-.1553779.658721-.2198401 1.0038518-.1860465.3452035.0337936.6742005.1645349.9501453.3773982 1.1052326.8228198 2.0045058 1.8971657 2.6254361 3.136628.6209302 1.2394622.9461482 2.609375.9495639 3.9995639.0008721.1561047-.0553779.3069768-.1579942.4234012-.1025436.1164244-.2440407.1901889-.3971657.206904z"/><path d="m8.70506766 12.6514376c-1.2340843 0-2.44040698-.3709302-3.46649709-1.066061-1.02609012-.6950581-1.8258721-1.68299418-2.29811047-2.83888081s-.59578488-2.42776163-.35501453-3.65486919c.24069767-1.22703488.83495639-2.35421511 1.70755814-3.23888081.87267442-.8846657 1.98444767-1.48713663 3.19476744-1.73117733 1.21031977-.24411337 2.46489826-.11882267 3.60501455.3599564 1.1401163.47877907 2.1146075 1.28953488 2.800218 2.32979651s1.0515262 2.26329942 1.0515262 3.51438953c0 .83074128-.1613372 1.65327035-.4749274 2.42078489-.3135901.76744186-.7731831 1.46482561-1.3525436 2.05218021-.5794331.5874273-1.2672238 1.053343-2.0242732 1.3712936-.7569768.3178779-1.56838664.481468-2.38771804.481468z"/></g></g></svg>