<svg width="27" height="27" viewBox="0 0 27 27" fill="none" xmlns="http://www.w3.org/2000/svg">
<circle cx="22" cy="5" r="5" fill="black"/>
<circle cx="15.0264" cy="11.9502" r="4.5" fill="white"/>
<circle cx="15.5378" cy="14" r="4" fill="white"/>
<path fill-rule="evenodd" clip-rule="evenodd" d="M7.63784 6C6.9681 6 6.30492 6.13192 5.68616 6.38821C5.0674 6.64451 4.50518 7.02018 4.0316 7.49376C3.55802 7.96733 3.18236 8.52955 2.92606 9.14831C2.66976 9.76708 2.53784 10.4303 2.53784 11.1C2.53784 11.7697 2.66976 12.4329 2.92606 13.0517C3.18236 13.6704 3.55802 14.2327 4.0316 14.7062C4.50518 15.1798 5.0674 15.5555 5.68616 15.8118C6.30492 16.0681 6.9681 16.2 7.63784 16.2C8.30758 16.2 8.97077 16.0681 9.58953 15.8118C9.65677 15.7839 9.72335 15.7547 9.78922 15.724C9.67114 15.3297 9.59252 14.9184 9.55794 14.4946C9.42005 14.5726 9.27727 14.6423 9.13031 14.7031C8.65714 14.8991 8.15 15 7.63784 15C7.12569 15 6.61855 14.8991 6.14538 14.7031C5.67221 14.5071 5.24227 14.2199 4.88013 13.8577C4.51798 13.4956 4.23071 13.0656 4.03471 12.5925C3.83872 12.1193 3.73784 11.6122 3.73784 11.1C3.73784 10.5878 3.83872 10.0807 4.03471 9.60753C4.23071 9.13436 4.51798 8.70443 4.88013 8.34228C5.24227 7.98014 5.67221 7.69286 6.14538 7.49687C6.61855 7.30088 7.12569 7.2 7.63784 7.2C8.15 7.2 8.65714 7.30088 9.13031 7.49687C9.60348 7.69286 10.0334 7.98013 10.3956 8.34228C10.7577 8.70443 11.045 9.13437 11.241 9.60753C11.2611 9.6561 11.2802 9.70501 11.2983 9.75426C11.5935 9.45951 11.9192 9.19534 12.2703 8.96693C12.0183 8.41952 11.671 7.92063 11.2441 7.49376C10.7705 7.02018 10.2083 6.64451 9.58953 6.38821C8.97077 6.13192 8.30758 6 7.63784 6Z" fill="black"/>
<path d="M22.0903 26H9.09034C8.79452 26 8.56253 25.7429 8.60539 25.4502C9.09978 22.0744 10.8432 20.5197 11.8452 20.0752C11.9664 20.0214 12.1051 20.0344 12.225 20.0909C15.1389 21.4656 17.6948 20.7642 18.8195 20.1331C18.9598 20.0544 19.1284 20.0324 19.2764 20.0954C21.9854 21.249 22.5974 23.9683 22.5659 25.5539C22.5609 25.8087 22.3451 26 22.0903 26Z" stroke="black" stroke-width="1.2"/>
<path fill-rule="evenodd" clip-rule="evenodd" d="M13.6862 9.38821C14.3049 9.13192 14.9681 9 15.6378 9C16.3076 9 16.9708 9.13192 17.5895 9.38821C18.2083 9.64451 18.7705 10.0202 19.2441 10.4938C19.7177 10.9673 20.0933 11.5296 20.3496 12.1483C20.6059 12.7671 20.7378 13.4303 20.7378 14.1C20.7378 14.7697 20.6059 15.4329 20.3496 16.0517C20.0933 16.6704 19.7177 17.2327 19.2441 17.7062C18.7705 18.1798 18.2083 18.5555 17.5895 18.8118C16.9708 19.0681 16.3076 19.2 15.6378 19.2C14.9681 19.2 14.3049 19.0681 13.6862 18.8118C13.0674 18.5555 12.5052 18.1798 12.0316 17.7062C11.558 17.2327 11.1824 16.6704 10.9261 16.0517C10.6698 15.4329 10.5378 14.7697 10.5378 14.1C10.5378 13.4303 10.6698 12.7671 10.9261 12.1483C11.1824 11.5296 11.558 10.9673 12.0316 10.4938C12.5052 10.0202 13.0674 9.64451 13.6862 9.38821ZM15.6378 10.2C15.1257 10.2 14.6185 10.3009 14.1454 10.4969C13.6722 10.6929 13.2423 10.9801 12.8801 11.3423C12.518 11.7044 12.2307 12.1344 12.0347 12.6075C11.8387 13.0807 11.7378 13.5878 11.7378 14.1C11.7378 14.6122 11.8387 15.1193 12.0347 15.5925C12.2307 16.0656 12.518 16.4956 12.8801 16.8577C13.2423 17.2199 13.6722 17.5071 14.1454 17.7031C14.6185 17.8991 15.1257 18 15.6378 18C16.15 18 16.6571 17.8991 17.1303 17.7031C17.6035 17.5071 18.0334 17.2199 18.3956 16.8577C18.7577 16.4956 19.045 16.0656 19.241 15.5925C19.437 15.1193 19.5378 14.6122 19.5378 14.1C19.5378 13.5878 19.437 13.0807 19.241 12.6075C19.045 12.1344 18.7577 11.7044 18.3956 11.3423C18.0334 10.9801 17.6035 10.6929 17.1303 10.4969C16.6571 10.3009 16.15 10.2 15.6378 10.2Z" fill="black"/>
<path fill-rule="evenodd" clip-rule="evenodd" d="M4.48107 16.5483C4.23976 16.4345 3.9159 16.3875 3.60194 16.5268C2.39061 17.0642 0.532485 18.8076 0.0117589 22.3632C-0.0865555 23.0346 0.445454 23.6 1.09037 23.6H6.99332C7.11927 23.1724 7.26393 22.7728 7.42289 22.4H1.22006C1.69953 19.3925 3.21527 18.0495 4.01811 17.6566C7.09797 19.0884 9.82334 18.3706 11.0908 17.6688C11.4787 17.8389 11.8178 18.0463 12.1135 18.2806C12.8754 18.6271 13.5991 18.8578 14.2791 18.9985C13.7218 18.0181 12.8475 17.1123 11.5115 16.5434C11.1603 16.3938 10.7954 16.4587 10.5259 16.6099C9.54071 17.1627 7.1906 17.8266 4.48107 16.5483Z" fill="black"/>
<path d="M22 2V8" stroke="white" stroke-width="1.2" stroke-linecap="round" stroke-linejoin="round"/>
<path d="M19 5H25" stroke="white" stroke-width="1.2" stroke-linecap="round" stroke-linejoin="round"/>
</svg>
