<svg height="202" viewBox="0 0 202 202" width="202" xmlns="http://www.w3.org/2000/svg"><g fill="none"><circle cx="101" cy="101" r="100" stroke="#343440"/><g fill="#343440"><g fill-opacity=".85" opacity=".51516" transform="translate(81 59)"><path d="m60.510607 78.1249432h-58.52135413c-.52760417 0-1.03359375-.2125-1.40651042-.590625-.37317708-.378125-.58255208-.8911458-.58255208-1.4260416-.0171875-5.0166667 1.1296875-9.9669271 3.34791667-14.4510417 2.21848958-4.4841146 5.44635416-8.3763021 9.42239586-11.3622396.9867187-.7507812 2.1583333-1.2119791 3.3861979-1.3330729 1.228125-.1208333 2.4651042.103125 3.5760417.6473958 3.554427 1.8377605 7.4875 2.7960938 11.4776041 2.7960938 3.9898438 0 7.9229167-.9583333 11.4773438-2.7960938 1.1145833-.5567708 2.3604166-.7877604 3.5971354-.6666666 1.2369792.1210937 2.4158854.5895833 3.4046875 1.3523437 3.9604167 2.9484375 7.1828125 6.7981771 9.4078125 11.2395834 2.225 4.4414062 3.3903646 9.3502604 3.4026042 14.3317708.003125.559375-.1984375 1.1-.5661459 1.5171875-.3674479.4171875-.8744791.6815104-1.4231771.7414062z"/><path d="m31.1931591 45.3343182c-4.4221354 0-8.7447916-1.3291666-12.4216146-3.820052-3.6768229-2.490625-6.5427083-6.0307292-8.2348958-10.1726563s-2.13489583-8.6994792-1.27213541-13.0966146c.86250001-4.396875 2.99192711-8.43593748 6.11875001-11.60598956 3.1270833-3.17005208 7.1109375-5.32890625 11.4479167-6.20338542 4.3369791-.87473958 8.832552-.42578125 12.9179687 1.28984375s7.5773438 4.62083334 10.0341146 8.34843753c2.4567708 3.7276041 3.7679687 8.1101562 3.7679687 12.5932291 0 2.976823-.578125 5.9242188-1.7018229 8.6744792-1.1236979 2.75-2.7705729 5.2489583-4.8466146 7.3536458-2.076302 2.104948-4.5408854 3.7744792-7.2536458 4.9138021-2.7125 1.1390625-5.6200521 1.7252604-8.5559896 1.7252604z"/></g><g transform="translate(58.5 64)"><path d="m60.510607 78.1249432h-58.52135413c-.52760417 0-1.03359375-.2125-1.40651042-.590625-.37317708-.378125-.58255208-.8911458-.58255208-1.4260416-.0171875-5.0166667 1.1296875-9.9669271 3.34791667-14.4510417 2.21848958-4.4841146 5.44635416-8.3763021 9.42239586-11.3622396.9867187-.7507812 2.1583333-1.2119791 3.3861979-1.3330729 1.228125-.1208333 2.4651042.103125 3.5760417.6473958 3.554427 1.8377605 7.4875 2.7960938 11.4776041 2.7960938 3.9898438 0 7.9229167-.9583333 11.4773438-2.7960938 1.1145833-.5567708 2.3604166-.7877604 3.5971354-.6666666 1.2369792.1210937 2.4158854.5895833 3.4046875 1.3523437 3.9604167 2.9484375 7.1828125 6.7981771 9.4078125 11.2395834 2.225 4.4414062 3.3903646 9.3502604 3.4026042 14.3317708.003125.559375-.1984375 1.1-.5661459 1.5171875-.3674479.4171875-.8744791.6815104-1.4231771.7414062z"/><path d="m31.1931591 45.3343182c-4.4221354 0-8.7447916-1.3291666-12.4216146-3.820052-3.6768229-2.490625-6.5427083-6.0307292-8.2348958-10.1726563s-2.13489583-8.6994792-1.27213541-13.0966146c.86250001-4.396875 2.99192711-8.43593748 6.11875001-11.60598956 3.1270833-3.17005208 7.1109375-5.32890625 11.4479167-6.20338542 4.3369791-.87473958 8.832552-.42578125 12.9179687 1.28984375s7.5773438 4.62083334 10.0341146 8.34843753c2.4567708 3.7276041 3.7679687 8.1101562 3.7679687 12.5932291 0 2.976823-.578125 5.9242188-1.7018229 8.6744792-1.1236979 2.75-2.7705729 5.2489583-4.8466146 7.3536458-2.076302 2.104948-4.5408854 3.7744792-7.2536458 4.9138021-2.7125 1.1390625-5.6200521 1.7252604-8.5559896 1.7252604z"/></g></g></g></svg>