<svg fill="none" height="20" viewBox="0 0 20 20" width="20" xmlns="http://www.w3.org/2000/svg"><path clip-rule="evenodd" d="m4.2931 4.29334c1.50029-1.50029 3.53512-2.34314 5.65685-2.34314 2.12175 0 4.15655.84285 5.65685 2.34314s2.3432 3.53512 2.3432 5.65686c0 2.1217-.8429 4.1566-2.3432 5.6569-1.5003 1.5002-3.5351 2.3431-5.65685 2.3431-2.12173 0-4.15656-.8429-5.65685-2.3431-1.50029-1.5003-2.34315-3.5352-2.34315-5.6569 0-2.12174.84286-4.15657 2.34315-5.65686zm5.65685-.84314c-1.72391 0-3.37721.68482-4.59619 1.9038-1.21899 1.21899-1.90381 2.87229-1.90381 4.5962 0 1.7239.68482 3.3772 1.90381 4.5962 1.21898 1.219 2.87228 1.9038 4.59619 1.9038 1.72395 0 3.37725-.6848 4.59615-1.9038 1.219-1.219 1.9039-2.8723 1.9039-4.5962 0-1.72391-.6849-3.37721-1.9039-4.5962-1.2189-1.21898-2.8722-1.9038-4.59615-1.9038z" fill="#abb2bd" fill-rule="evenodd"/><path d="m6 10h8" stroke="#abb2bd" stroke-linecap="round" stroke-width="1.5"/></svg>