<?xml version="1.0" encoding="utf-8"?>
<!-- Generator: Adobe Illustrator 21.0.0, SVG Export Plug-In . SVG Version: 6.00 Build 0)  -->
<svg version="1.1" id="Layer_1" xmlns="http://www.w3.org/2000/svg" xmlns:xlink="http://www.w3.org/1999/xlink" x="0px" y="0px"
	 viewBox="0 0 24 24" style="enable-background:new 0 0 24 24;" xml:space="preserve">
<style type="text/css">
	.st0{fill:none;stroke:#FFFFFF;stroke-linecap:round;stroke-linejoin:round;stroke-miterlimit:10;}
</style>
<g>
	<path class="st0" d="M1.5,2.4h5.9c0.3,0,0.6,0.1,0.8,0.3L10,4.4c0.3,0.2,0.6,0.4,0.9,0.4h8.2c0.6,0,1,0.5,1,1.2v2.6H6.5
		c-0.7,0-1.3,0.5-1.4,1.3L3,21.6H1.5c-0.6,0-1-0.5-1-1.2V3.6C0.5,2.9,1,2.4,1.5,2.4z"/>
	<path class="st0" d="M20.1,21.6H3L5.2,10C5.3,9.2,6,8.6,6.7,8.6h15.2c1,0,1.8,1,1.6,2.1l-1.8,9.5C21.5,21,20.8,21.6,20.1,21.6z"/>
</g>
</svg>
