<svg fill="none" height="93" viewBox="0 0 93 93" width="93" xmlns="http://www.w3.org/2000/svg" xmlns:xlink="http://www.w3.org/1999/xlink"><filter id="a" color-interpolation-filters="sRGB" filterUnits="userSpaceOnUse" height="93.511" width="93.511" x="-1" y="0"><feFlood flood-opacity="0" result="BackgroundImageFix"/><feBlend in="SourceGraphic" in2="BackgroundImageFix" mode="normal" result="shape"/><feColorMatrix in="SourceAlpha" result="hardAlpha" type="matrix" values="0 0 0 0 0 0 0 0 0 0 0 0 0 0 0 0 0 0 127 0"/><feOffset dx="-2" dy="2"/><feGaussianBlur stdDeviation=".5"/><feComposite in2="hardAlpha" k2="-1" k3="1" operator="arithmetic"/><feColorMatrix type="matrix" values="0 0 0 0 0 0 0 0 0 0 0 0 0 0 0 0 0 0 0.1 0"/><feBlend in2="shape" mode="normal" result="effect1_innerShadow_3676_24424"/></filter><filter id="b" color-interpolation-filters="sRGB" filterUnits="userSpaceOnUse" height="46.5153" width="48.0269" x="21.4866" y="22.5731"><feFlood flood-opacity="0" result="BackgroundImageFix"/><feBlend in="SourceGraphic" in2="BackgroundImageFix" mode="normal" result="shape"/><feColorMatrix in="SourceAlpha" result="hardAlpha" type="matrix" values="0 0 0 0 0 0 0 0 0 0 0 0 0 0 0 0 0 0 127 0"/><feOffset dx="-1" dy="2"/><feGaussianBlur stdDeviation=".5"/><feComposite in2="hardAlpha" k2="-1" k3="1" operator="arithmetic"/><feColorMatrix type="matrix" values="0 0 0 0 0 0 0 0 0 0 0 0 0 0 0 0 0 0 0.1 0"/><feBlend in2="shape" mode="normal" result="effect1_innerShadow_3676_24424"/></filter><g filter="url(#a)"><path clip-rule="evenodd" d="m46.2555 92.511c25.5462 0 46.2555-20.7093 46.2555-46.2555s-20.7093-46.2555-46.2555-46.2555-46.2555 20.7093-46.2555 46.2555 20.7093 46.2555 46.2555 46.2555zm.2445-11.511c19.0538 0 34.5-15.2223 34.5-34s-15.4462-34-34.5-34-34.5 15.2223-34.5 34 15.4462 34 34.5 34z" fill="#f6c73c" fill-rule="evenodd"/></g><g filter="url(#b)"><path d="m44.0948 23.9646c.5926-1.8553 3.2178-1.8553 3.8104 0l4.1613 13.0279c.2647.8289 1.035 1.3915 1.9051 1.3915h13.538c1.9291 0 2.7401 2.4618 1.1887 3.6084l-11.0109 8.1378c-.6891.5093-.9772 1.4008-.7165 2.217l4.1919 13.1236c.5905 1.8486-1.5332 3.3704-3.0939 2.2169l-10.8802-8.0412c-.7065-.5221-1.6709-.5221-2.3774 0l-10.8802 8.0412c-1.5607 1.1535-3.6844-.3682-3.0939-2.2169l4.1919-13.1236c.2607-.8162-.0274-1.7077-.7165-2.217l-11.0109-8.1378c-1.5514-1.1466-.7404-3.6084 1.1887-3.6084h13.538c.8701 0 1.6404-.5626 1.9051-1.3915z" fill="#f6c73c"/></g></svg>