<svg fill="none" height="1346" viewBox="0 0 2336 1346" width="2336" xmlns="http://www.w3.org/2000/svg" xmlns:xlink="http://www.w3.org/1999/xlink"><linearGradient id="a" gradientUnits="userSpaceOnUse" x1="1319.5" x2="995.5" y1="-345" y2="423.5"><stop offset="0" stop-color="#d8dee6"/><stop offset="1" stop-color="#fff"/></linearGradient><clipPath id="b"><rect height="1017" rx="50" width="2336" y="114"/></clipPath><g clip-path="url(#b)"><rect fill="#f7aef8" fill-opacity=".45" height="1017" rx="15" width="2336" y="114"/><path d="m1735.06 851.992s-129.85-303.877 97.67-361.678c149.53-37.984 256.45 6.279 312.17 41.102 30.22 18.87 53.12 47.488 64.77 81.249 10.09 29.196 28.27 87.376 20.55 120.142 0 0 5.28 36.859 113.96 101.657 0 0 83.77 31.351 129.52 93.739 45.75 62.387 45.58 153.937 45.58 153.937s5.44 107.75-101.06 139.24c-106.49 31.53-136.97 18.73-136.97 18.73s-21.51-8.92 11.24-35.43c32.74-26.51 53.79-39.55 53.79-39.55s-151.51 30.03-203.19 35.39c0 0-2.71 79.18-72.25 96.35-69.54 17.16-16.45-89.28-16.45-89.28s-81.85 13.75-130.39-13.51c0 0 16.47 74.04-43.44 96.61s-84.37-7.94-72.71-21.4c11.69-13.46 37.39-35.61 37.39-35.61l-54.02-182.02s-25.33-12.33-47.96-166.285z" fill="#e4b652"/><path d="m1787.12 499.056s-90.05 45.451-124.49 58.284c-34.45 12.833-57.74 13.11-48.7 70.592 9.03 57.444 45.38 94.178 58.06 95.192 13.17 1.028 30.52-2.072 33.27-41.89 2.79-39.824 3.93-88.758 30.26-120.283 22.25-26.643 44.69-45.028 51.14-50.113 1.5-1.175 2.82-2.527 3.99-4.061 3.08-4.14 7.27-11.179-3.53-7.721z" fill="#544b43"/><path d="m2017.39 482.952s-13.07-17.094 27.86-9.687c40.88 7.412 73.95 12.189 109.81 10.385 35.89-1.809 55.69-2.665 68.35 25.958 12.65 28.622-1.18 82.565-18.35 116.514-9.43 18.68-19.94 17.259-27.48 12.171-5.84-3.951-9.87-10.042-11.93-16.766-3.33-11.097-12.8-35.607-35.68-57.637-17.1-16.421-75.58-70.821-112.58-80.938z" fill="#544b43"/><path d="m1802.43 706.274s43.51-56.401 111.31-68.221 112.76 37.579 112.76 37.579" stroke="#544b43" stroke-linecap="round" stroke-linejoin="round" stroke-miterlimit="10" stroke-width=".8351"/><path d="m1913.27 663.465s-43.89 1.063-34.33 36.939c1.16 4.283 4.36 7.871 8.63 8.655 5.11.921 13.17-.804 24.83-11.404 0 0 3.98-4.902 10-1.16s12.65 10.553 25.16 4.652c5.14-2.404 7.65-6.774 8.85-11.046 2.41-8.713-1.01-18.329-8.64-22.97-6.52-3.881-17.14-6.662-34.5-3.666z" fill="#544b43"/><path d="m1734.7 851.514s253.63 62.75 505.66-104.269l41.36 38.163s-295.55 186.099-540.79 106.594z" fill="#48bda1"/><g fill="#c48f2c"><path d="m1924 1195.28s-11.23-70.36-8.12-79.49c3.12-9.13 15.25-5.29 8.12 79.49z"/><path d="m2055.48 1207.82s-3.49-81.36-7.2-104.17c-3.94-24.24 15.11 45.62 7.2 104.17z"/><path d="m2143.48 1201.1s-4.13-87.58 6.39-98.49c10.51-10.94-6.39 98.49-6.39 98.49z"/><path d="m2346.94 1165.31s-50.2-7.43-54.33-48.67c-4.13-41.23 24.69-81.31 24.69-81.31s-78.24 116.79 29.64 129.98z"/></g><path d="m1916.48 695.986 3.66 26.789s7.99 11.991 30.82 9.632c1.58-.177 3.13-.589 4.62-1.194 4.75-1.974 14.99-6.987 18.07-15.033" stroke="#544b43" stroke-linecap="round" stroke-linejoin="round" stroke-miterlimit="10" stroke-width="3"/><path d="m1920.04 722.041s-7.76 21.148-25.22 18.591c-17.47-2.557-19.07-12.534-19.07-12.534" stroke="#544b43" stroke-linecap="round" stroke-linejoin="round" stroke-miterlimit="10" stroke-width="3"/><path d="m1817.63 667.036c7.56-1.033 12.8-8.287 11.72-16.201s-8.08-13.493-15.64-12.459c-7.55 1.033-12.8 8.286-11.72 16.2 1.09 7.915 8.09 13.493 15.64 12.46z" fill="#1d1c1a"/><path d="m2007 639.812c7.92-1.082 13.46-8.375 12.37-16.29-1.08-7.914-8.37-13.453-16.29-12.37-7.91 1.082-13.45 8.375-12.37 16.29 1.09 7.914 8.38 13.452 16.29 12.37z" fill="#1d1c1a"/><path d="m1679.55 602.852s54.7-27.029 183.7-21.277c0 0 15.9 4.382 72.43-9.865 56.54-14.207 144.07-39.167 191.04-12.323 46.98 26.843 23.2 182.957-147.21 88.973 0 0-49.94-42.304-120.76 19.266s-138.36 82.987-185.63 14.863c-47.28-68.124 6.43-79.637 6.43-79.637z" fill="#ccc9c9" opacity=".53"/><path d="m1679.55 602.852s54.7-27.029 183.7-21.277c0 0 15.9 4.382 72.43-9.865 56.54-14.207 144.07-39.167 191.04-12.323 45.13 25.76 16.85 182.935-133.06 96.509-8.57-4.939-12.2-9.016-20.43-14.447-15.09-9.958-63.8-29.116-115.02 22.205-66.03 66.135-137.82 86.959-185.09 18.835-47.28-68.124 6.43-79.637 6.43-79.637z" stroke="#f7f5f5" stroke-miterlimit="10" stroke-width="8"/><path d="m1729.32 844.298 78.07 14.213 177.11 105.695 246.12-231.645 200.69 151.441c14.18 11.943 24.03 20.673 31.42 27.919 16.4 16.09 42.04 42.858 63.88 135.099l16.07 81.38s-212.77 43.18-292.53 56.8c-79.73 13.61-418.52 37.92-418.52 37.92s-128.5-247.432-102.31-378.822z" fill="#f4f2ee" stroke="#c9cbcb" stroke-miterlimit="10" stroke-width=".5308"/><path d="m1764.27 1040.66 76.79 191.33 106.35-14.54-4.15-92.56" fill="#f4f2ee"/><path d="m1764.42 1040.6 77.84 190.95-1.37-.83 53.16-7.55c17.72-2.38 35.46-4.93 53.2-7.19l-1.32 1.55-1.64-46.32c-.49-15.43-.86-30.88-1.2-46.33l.33-.01c1.05 15.4 2.11 30.84 2.96 46.26l2.57 46.27.06 1.37-1.39.19c-17.7 2.58-35.47 4.89-53.18 7.36l-53.24 6.99-.99.14-.37-.92-75.73-191.8z" fill="#cecdcb"/><path d="m2173.01 991.689-22.61 204.921-106.39 14.55-20.8-90.28" fill="#f4f2ee"/><path d="m2173.17 991.667-21.45 205.093-.11.98-.99.14-53.16 7.55c-17.73 2.38-35.47 4.93-53.21 7.2l-1.39.19-.3-1.34-9.96-45.26c-3.27-15.09-6.43-30.2-9.56-45.36l.31-.08c3.83 14.98 7.62 29.96 11.29 44.96l10.86 45.06-1.7-1.15c17.7-2.58 35.48-4.89 53.19-7.35l53.24-7-1.11 1.12 23.73-204.749z" fill="#cecdcb"/><path d="m2230.62 732.563-128.92 156.124 27.18 18.786-144.38 56.734-138.89-40.5 17.32-11.839-133.61-67.569" stroke="#cecdcb" stroke-miterlimit="10" stroke-width=".75"/><path d="m1984.5 964.207s-15.21 87.633 15.7 219.313" stroke="#cecdcb" stroke-miterlimit="10" stroke-width=".75"/><path d="m1960.71 901.241s6.6 8.299 2.12 13.917c-4.45 5.612 2.88 1.259 2.88 1.259s3.51-9.64-2.13-15.569c.05-.006-1.46-3.447-2.87.393z" fill="#b5dfd5"/><path d="m1954.5 906.081 2.56-.654.51 3.696-2.58.568z" fill="#b5dfd5"/><path d="m2014.53 994.993s7.8-27.635 27.56-19.253c0 0-.35-17.065 22.74-8.167 0 0 9.35-14.587 18.09-4.98 0 0 6.23-11.663 15.61-3.954l58.72-113.021-181.28-96.304-18.92-1.993-12.72-9.387-8.85 13.541-17.94 5.646-79.61 142.03z" fill="#ccc9c9" opacity=".46"/><path d="m2003.47 979.696s6.45-27.981 26.59-20.566c0 0-1.17-17.027 22.32-9.258 0 0 8.63-15.022 17.83-5.85 0 0 5.66-11.951 15.4-4.705l53.18-115.732-185.73-87.414-18.99-1.074-13.17-8.76-8.18 13.954-17.65 6.507-72.63 145.718z" fill="#fff"/></g><path d="m336.714 481.696s127.718-5.338 111.759-99.546c0 0 73.544 19.083 58.778-90.076 0 0 72.796-25.472 40.193-73.23 0 0 56.921-14.965 33.196-63.537l549.93-137.9633 230.45 884.2493-10.85 83.995 27.56 64.762-67.76 24.39-42.91 71.89-697.063 198.54z" fill="#000" fill-opacity=".25"/><path d="m397.698 387.202s127.645 6.858 120.737-88.442c0 0 71.39 26.005 67.094-84.064 0 0 74.893-18.419 46.989-69.066 0 0 58.089-9.473 39.1-60.0847l560.572-84.928126 145.14 902.186826-18.81 82.579 21.27 67.087-69.78 17.83-49.57 67.47-712.809 131.2z" fill="url(#a)"/><path d="m857.015 456.774c58.661-10.314 97.854-66.23 87.54-124.891-10.315-58.661-66.231-97.854-124.892-87.539-58.661 10.314-97.854 66.23-87.539 124.891 10.314 58.661 66.23 97.854 124.891 87.539z" fill="#fff"/><path d="m849.387 418.356c-35.931 6.318-38.482 31.396-38.482 31.396s40.526 17.805 86.062-13.886c0 0-11.643-23.828-47.58-17.51z" fill="#e0efe8"/><path d="m811.12 450.303s2.233-25.618 38.163-31.936c35.931-6.317 46.987 17.873 46.987 17.873" fill="#e0efe8"/><g stroke="#000" stroke-miterlimit="10" stroke-width="2"><path d="m811.12 450.303s2.233-25.618 38.163-31.936c35.931-6.317 46.987 17.873 46.987 17.873"/><path d="m831.404 307.514s-6.43-18.936 9.726-31.082"/><path d="m848.428 280.445c3.531-.621 5.891-3.987 5.27-7.518-.621-3.532-3.987-5.891-7.519-5.27-3.531.621-5.89 3.987-5.27 7.518.621 3.532 3.988 5.891 7.519 5.27z" fill="#f3f9f6"/><path d="m783.719 389.042c8.864-1.559 14.786-10.008 13.227-18.871-1.558-8.864-10.007-14.786-18.871-13.227-8.863 1.558-14.785 10.007-13.227 18.871 1.559 8.863 10.008 14.785 18.871 13.227z" fill="#e0efe8"/><path d="m903.876 367.915c8.863-1.559 14.785-10.007 13.227-18.871-1.559-8.864-10.008-14.786-18.871-13.227-8.864 1.558-14.786 10.007-13.227 18.871 1.558 8.863 10.007 14.785 18.871 13.227z" fill="#e0efe8"/><path d="m833.168 317.999c5.663-.995 9.447-6.394 8.451-12.057-.996-5.664-6.394-9.448-12.058-8.452-5.663.996-9.447 6.394-8.451 12.058.996 5.663 6.394 9.447 12.058 8.451z" fill="#e0efe8"/><path d="m867.846 407.391-36.792 6.469c-24.581 4.322-48.008-12.099-52.33-36.68l-2.479-14.094c-4.322-24.582 12.099-48.009 36.68-52.331l36.792-6.469c24.582-4.323 48.008 12.098 52.331 36.68l2.478 14.094c4.322 24.581-12.098 48.008-36.68 52.331z" fill="#e0efe8"/><path d="m873.912 387.595-55.297 9.723c-10.869 1.911-21.225-5.348-23.136-16.217l-3.304-18.788c-1.911-10.868 5.348-21.225 16.217-23.136l55.297-9.723c10.868-1.911 21.225 5.348 23.136 16.217l3.303 18.787c1.912 10.869-5.355 21.227-16.216 23.137z" fill="#fff"/><path d="m852.337 373.229s-.472 7.286-7.946 8.6c-7.481 1.315-10.404-5.374-10.404-5.374" stroke-linecap="round" stroke-linejoin="round"/><path d="m810.361 311.438 4.509 25.647"/><path d="m852.446 304.039 4.509 25.647"/><path d="m858.813 361.942s.335-5.174 5.649-6.108c5.315-.935 7.394 3.815 7.394 3.815" stroke-linecap="round" stroke-linejoin="round"/><path d="m811.082 370.335s.335-5.174 5.649-6.109c5.315-.934 7.394 3.815 7.394 3.815" stroke-linecap="round" stroke-linejoin="round"/></g><path d="m817.804 233.014c-64.849 11.402-108.215 73.272-96.813 138.121 11.403 64.849 73.273 108.215 138.122 96.813 64.848-11.403 108.215-73.273 96.812-138.122-11.497-64.832-73.272-108.215-138.121-96.812zm38.441 218.627c-55.936 9.835-109.128-27.531-118.947-83.373-9.835-55.937 27.531-109.129 83.373-118.947 55.937-9.836 109.129 27.531 118.947 83.373 9.819 55.841-27.531 109.128-83.373 118.947z" fill="#48bda1"/><rect fill="#d9d9d9" height="47.8563" rx="23.9282" transform="matrix(.9848912 -.17317428 .17317428 .9848912 -95.786789 104.651751)" width="476.723" x="551.856" y="601.271"/><rect fill="#d9d9d9" height="47.8563" rx="23.9282" transform="matrix(.9848912 -.17317428 .17317428 .9848912 -141.536864 116.874955)" width="476.723" x="599.031" y="869.572"/><rect fill="#d9d9d9" height="29.4501" rx="14.725" transform="matrix(.9848912 -.17317428 .17317428 .9848912 -109.078628 108.203182)" width="296.341" x="565.563" y="679.221"/><rect fill="#d9d9d9" height="29.4501" rx="14.725" transform="matrix(.984891 -.173174 -.173174 -.984891 628.356 1036.35)" width="296.341"/><rect fill="#d9d9d9" height="29.4501" rx="14.725" transform="matrix(.9848912 -.17317428 .17317428 .9848912 -119.280369 110.928732)" width="358.923" x="576.082" y="739.049"/><rect fill="#d9d9d9" height="29.4501" rx="14.725" transform="matrix(.984891 -.173174 -.173174 -.984891 617.838 976.525)" width="358.923"/><circle cx="1154.75" cy="543.853" fill="#48bda1" r="55.2189" transform="matrix(.9848912 -.17317428 .17317428 .9848912 -76.734461 208.189969)"/><circle cx="1203.2" cy="819.404" fill="#fed766" r="55.2189" transform="matrix(.9848912 -.17317428 .17317428 .9848912 -123.720786 220.743509)"/></svg>