<svg width="2336" height="1346" viewBox="0 0 2336 1346" fill="none" xmlns="http://www.w3.org/2000/svg">
<g clip-path="url(#clip0_6086_1668)">
<rect y="114" width="2336" height="1017" rx="15" fill="#F7AEF8" fill-opacity="0.45"/>
<path d="M1735.06 851.992C1735.06 851.992 1605.21 548.115 1832.73 490.314C1982.26 452.33 2089.18 496.593 2144.9 531.416C2175.12 550.286 2198.02 578.904 2209.67 612.665C2219.76 641.861 2237.94 700.041 2230.22 732.807C2230.22 732.807 2235.5 769.666 2344.18 834.464C2344.18 834.464 2427.95 865.815 2473.7 928.203C2519.45 990.59 2519.28 1082.14 2519.28 1082.14C2519.28 1082.14 2524.72 1189.89 2418.22 1221.38C2311.73 1252.91 2281.25 1240.11 2281.25 1240.11C2281.25 1240.11 2259.74 1231.19 2292.49 1204.68C2325.23 1178.17 2346.28 1165.13 2346.28 1165.13C2346.28 1165.13 2194.77 1195.16 2143.09 1200.52C2143.09 1200.52 2140.38 1279.7 2070.84 1296.87C2001.3 1314.03 2054.39 1207.59 2054.39 1207.59C2054.39 1207.59 1972.54 1221.34 1924 1194.08C1924 1194.08 1940.47 1268.12 1880.56 1290.69C1820.65 1313.26 1796.19 1282.75 1807.85 1269.29C1819.54 1255.83 1845.24 1233.68 1845.24 1233.68L1791.22 1051.66C1791.22 1051.66 1765.89 1039.33 1743.26 885.375L1735.06 851.992Z" fill="#E4B652"/>
<path d="M1787.12 499.056C1787.12 499.056 1697.07 544.507 1662.63 557.34C1628.18 570.173 1604.89 570.45 1613.93 627.932C1622.96 685.376 1659.31 722.11 1671.99 723.124C1685.16 724.152 1702.51 721.052 1705.26 681.234C1708.05 641.41 1709.19 592.476 1735.52 560.951C1757.77 534.308 1780.21 515.923 1786.66 510.838C1788.16 509.663 1789.48 508.311 1790.65 506.777C1793.73 502.637 1797.92 495.598 1787.12 499.056Z" fill="#544B43"/>
<path d="M2017.39 482.952C2017.39 482.952 2004.32 465.858 2045.25 473.265C2086.13 480.677 2119.2 485.454 2155.06 483.65C2190.95 481.841 2210.75 480.985 2223.41 509.608C2236.06 538.23 2222.23 592.173 2205.06 626.122C2195.63 644.802 2185.12 643.381 2177.58 638.293C2171.74 634.342 2167.71 628.251 2165.65 621.527C2162.32 610.43 2152.85 585.92 2129.97 563.89C2112.87 547.469 2054.39 493.069 2017.39 482.952Z" fill="#544B43"/>
<path d="M1802.43 706.274C1802.43 706.274 1845.94 649.873 1913.74 638.053C1981.54 626.233 2026.5 675.632 2026.5 675.632" stroke="#544B43" stroke-width="0.8351" stroke-miterlimit="10" stroke-linecap="round" stroke-linejoin="round"/>
<path d="M1913.27 663.465C1913.27 663.465 1869.38 664.528 1878.94 700.404C1880.1 704.687 1883.3 708.275 1887.57 709.059C1892.68 709.98 1900.74 708.255 1912.4 697.655C1912.4 697.655 1916.38 692.753 1922.4 696.495C1928.42 700.237 1935.05 707.048 1947.56 701.147C1952.7 698.743 1955.21 694.373 1956.41 690.101C1958.82 681.388 1955.4 671.772 1947.77 667.131C1941.25 663.25 1930.63 660.469 1913.27 663.465Z" fill="#544B43"/>
<path d="M1734.7 851.514C1734.7 851.514 1988.33 914.264 2240.36 747.245L2281.72 785.408C2281.72 785.408 1986.17 971.507 1740.93 892.002L1734.7 851.514Z" fill="#48BDA1"/>
<path d="M1924 1195.28C1924 1195.28 1912.77 1124.92 1915.88 1115.79C1919 1106.66 1931.13 1110.5 1924 1195.28Z" fill="#C48F2C"/>
<path d="M2055.48 1207.82C2055.48 1207.82 2051.99 1126.46 2048.28 1103.65C2044.34 1079.41 2063.39 1149.27 2055.48 1207.82Z" fill="#C48F2C"/>
<path d="M2143.48 1201.1C2143.48 1201.1 2139.35 1113.52 2149.87 1102.61C2160.38 1091.67 2143.48 1201.1 2143.48 1201.1Z" fill="#C48F2C"/>
<path d="M2346.94 1165.31C2346.94 1165.31 2296.74 1157.88 2292.61 1116.64C2288.48 1075.41 2317.3 1035.33 2317.3 1035.33C2317.3 1035.33 2239.06 1152.12 2346.94 1165.31Z" fill="#C48F2C"/>
<path d="M1916.48 695.986L1920.14 722.775C1920.14 722.775 1928.13 734.766 1950.96 732.407C1952.54 732.23 1954.09 731.818 1955.58 731.213C1960.33 729.239 1970.57 724.226 1973.65 716.18" stroke="#544B43" stroke-width="3" stroke-miterlimit="10" stroke-linecap="round" stroke-linejoin="round"/>
<path d="M1920.04 722.041C1920.04 722.041 1912.28 743.189 1894.82 740.632C1877.35 738.075 1875.75 728.098 1875.75 728.098" stroke="#544B43" stroke-width="3" stroke-miterlimit="10" stroke-linecap="round" stroke-linejoin="round"/>
<path d="M1817.63 667.036C1825.19 666.003 1830.43 658.749 1829.35 650.835C1828.27 642.921 1821.27 637.342 1813.71 638.376C1806.16 639.409 1800.91 646.662 1801.99 654.576C1803.08 662.491 1810.08 668.069 1817.63 667.036Z" fill="#1D1C1A"/>
<path d="M2007 639.812C2014.92 638.73 2020.46 631.437 2019.37 623.522C2018.29 615.608 2011 610.069 2003.08 611.152C1995.17 612.234 1989.63 619.527 1990.71 627.442C1991.8 635.356 1999.09 640.894 2007 639.812Z" fill="#1D1C1A"/>
<path opacity="0.53" d="M1679.55 602.852C1679.55 602.852 1734.25 575.823 1863.25 581.575C1863.25 581.575 1879.15 585.957 1935.68 571.71C1992.22 557.503 2079.75 532.543 2126.72 559.387C2173.7 586.23 2149.92 742.344 1979.51 648.36C1979.51 648.36 1929.57 606.056 1858.75 667.626C1787.93 729.196 1720.39 750.613 1673.12 682.489C1625.84 614.365 1679.55 602.852 1679.55 602.852Z" fill="#CCC9C9"/>
<path d="M1679.55 602.852C1679.55 602.852 1734.25 575.823 1863.25 581.575C1863.25 581.575 1879.15 585.957 1935.68 571.71C1992.22 557.503 2079.75 532.543 2126.72 559.387C2171.85 585.147 2143.57 742.322 1993.66 655.896C1985.09 650.957 1981.46 646.88 1973.23 641.449C1958.14 631.491 1909.43 612.333 1858.21 663.654C1792.18 729.789 1720.39 750.613 1673.12 682.489C1625.84 614.365 1679.55 602.852 1679.55 602.852Z" stroke="#F7F5F5" stroke-width="8" stroke-miterlimit="10"/>
<path d="M1729.32 844.298L1807.39 858.511L1984.5 964.206L2230.62 732.561L2431.31 884.002C2445.49 895.945 2455.34 904.675 2462.73 911.921C2479.13 928.011 2504.77 954.779 2526.61 1047.02L2542.68 1128.4C2542.68 1128.4 2329.91 1171.58 2250.15 1185.2C2170.42 1198.81 1831.63 1223.12 1831.63 1223.12C1831.63 1223.12 1703.13 975.688 1729.32 844.298Z" fill="#F4F2EE" stroke="#C9CBCB" stroke-width="0.5308" stroke-miterlimit="10"/>
<path d="M1764.27 1040.66L1841.06 1231.99L1947.41 1217.45L1943.26 1124.89" fill="#F4F2EE"/>
<path d="M1764.42 1040.6L1842.26 1231.55L1840.89 1230.72L1894.05 1223.17C1911.77 1220.79 1929.51 1218.24 1947.25 1215.98L1945.93 1217.53L1944.29 1171.21C1943.8 1155.78 1943.43 1140.33 1943.09 1124.88L1943.42 1124.87C1944.47 1140.27 1945.53 1155.71 1946.38 1171.13L1948.95 1217.4L1949.01 1218.77L1947.62 1218.96C1929.92 1221.54 1912.15 1223.85 1894.44 1226.32L1841.2 1233.31L1840.21 1233.45L1839.84 1232.53L1764.11 1040.73L1764.42 1040.6Z" fill="#CECDCB"/>
<path d="M2173.01 991.689L2150.4 1196.61L2044.01 1211.16L2023.21 1120.88" fill="#F4F2EE"/>
<path d="M2173.17 991.667L2151.72 1196.76L2151.61 1197.74L2150.62 1197.88L2097.46 1205.43C2079.73 1207.81 2061.99 1210.36 2044.25 1212.63L2042.86 1212.82L2042.56 1211.48L2032.6 1166.22C2029.33 1151.13 2026.17 1136.02 2023.04 1120.86L2023.35 1120.78C2027.18 1135.76 2030.97 1150.74 2034.64 1165.74L2045.5 1210.8L2043.8 1209.65C2061.5 1207.07 2079.28 1204.76 2096.99 1202.3L2150.23 1195.3L2149.12 1196.42L2172.85 991.671L2173.17 991.667Z" fill="#CECDCB"/>
<path d="M2230.62 732.563L2101.7 888.687L2128.88 907.473L1984.5 964.207L1845.61 923.707L1862.93 911.868L1729.32 844.299" stroke="#CECDCB" stroke-width="0.75" stroke-miterlimit="10"/>
<path d="M1984.5 964.207C1984.5 964.207 1969.29 1051.84 2000.2 1183.52" stroke="#CECDCB" stroke-width="0.75" stroke-miterlimit="10"/>
<path d="M1960.71 901.241C1960.71 901.241 1967.31 909.54 1962.83 915.158C1958.38 920.77 1965.71 916.417 1965.71 916.417C1965.71 916.417 1969.22 906.777 1963.58 900.848C1963.63 900.842 1962.12 897.401 1960.71 901.241Z" fill="#B5DFD5"/>
<path d="M1954.5 906.081L1957.06 905.427L1957.57 909.123L1954.99 909.691L1954.5 906.081Z" fill="#B5DFD5"/>
<path opacity="0.46" d="M2014.53 994.993C2014.53 994.993 2022.33 967.358 2042.09 975.74C2042.09 975.74 2041.74 958.675 2064.83 967.573C2064.83 967.573 2074.18 952.986 2082.92 962.593C2082.92 962.593 2089.15 950.93 2098.53 958.639L2157.25 845.618L1975.97 749.314L1957.05 747.321L1944.33 737.934L1935.48 751.475L1917.54 757.121L1837.93 899.151L2014.53 994.993Z" fill="#CCC9C9"/>
<path d="M2003.47 979.696C2003.47 979.696 2009.92 951.715 2030.06 959.13C2030.06 959.13 2028.89 942.103 2052.38 949.872C2052.38 949.872 2061.01 934.85 2070.21 944.022C2070.21 944.022 2075.87 932.071 2085.61 939.317L2138.79 823.585L1953.06 736.171L1934.07 735.097L1920.9 726.337L1912.72 740.291L1895.07 746.798L1822.44 892.516L2003.47 979.696Z" fill="white"/>
</g>
<path d="M336.714 481.696C336.714 481.696 464.432 476.358 448.473 382.15C448.473 382.15 522.017 401.233 507.251 292.074C507.251 292.074 580.047 266.602 547.444 218.844C547.444 218.844 604.365 203.879 580.64 155.307L1130.57 17.3437L1361.02 901.593L1350.17 985.588L1377.73 1050.35L1309.97 1074.74L1267.06 1146.63L569.997 1345.17L336.714 481.696Z" fill="black" fill-opacity="0.25"/>
<path d="M397.698 387.202C397.698 387.202 525.343 394.06 518.435 298.76C518.435 298.76 589.825 324.765 585.529 214.696C585.529 214.696 660.422 196.277 632.518 145.63C632.518 145.63 690.607 136.157 671.618 85.5453L1232.19 0.617174L1377.33 902.804L1358.52 985.383L1379.79 1052.47L1310.01 1070.3L1260.44 1137.77L547.631 1268.97L397.698 387.202Z" fill="url(#paint0_linear_6086_1668)"/>
<path d="M857.015 456.774C915.676 446.46 954.869 390.544 944.555 331.883C934.24 273.222 878.324 234.029 819.663 244.344C761.002 254.658 721.809 310.574 732.124 369.235C742.438 427.896 798.354 467.089 857.015 456.774Z" fill="white"/>
<path d="M849.387 418.356C813.456 424.674 810.905 449.752 810.905 449.752C810.905 449.752 851.431 467.557 896.967 435.866C896.967 435.866 885.324 412.038 849.387 418.356Z" fill="#E0EFE8"/>
<path d="M811.12 450.303C811.12 450.303 813.353 424.685 849.283 418.367C885.214 412.05 896.27 436.24 896.27 436.24" fill="#E0EFE8"/>
<path d="M811.12 450.303C811.12 450.303 813.353 424.685 849.283 418.367C885.214 412.05 896.27 436.24 896.27 436.24" stroke="black" stroke-width="2" stroke-miterlimit="10"/>
<path d="M831.404 307.514C831.404 307.514 824.974 288.578 841.13 276.432" stroke="black" stroke-width="2" stroke-miterlimit="10"/>
<path d="M848.428 280.445C851.959 279.824 854.319 276.458 853.698 272.927C853.077 269.395 849.711 267.036 846.179 267.657C842.648 268.278 840.289 271.644 840.909 275.175C841.53 278.707 844.897 281.066 848.428 280.445Z" fill="#F3F9F6" stroke="black" stroke-width="2" stroke-miterlimit="10"/>
<path d="M783.719 389.042C792.583 387.483 798.505 379.034 796.946 370.171C795.388 361.307 786.939 355.385 778.075 356.944C769.212 358.502 763.29 366.951 764.848 375.815C766.407 384.678 774.856 390.6 783.719 389.042Z" fill="#E0EFE8" stroke="black" stroke-width="2" stroke-miterlimit="10"/>
<path d="M903.876 367.915C912.739 366.356 918.661 357.908 917.103 349.044C915.544 340.18 907.095 334.258 898.232 335.817C889.368 337.375 883.446 345.824 885.005 354.688C886.563 363.551 895.012 369.473 903.876 367.915Z" fill="#E0EFE8" stroke="black" stroke-width="2" stroke-miterlimit="10"/>
<path d="M833.168 317.999C838.831 317.004 842.615 311.605 841.619 305.942C840.623 300.278 835.225 296.494 829.561 297.49C823.898 298.486 820.114 303.884 821.11 309.548C822.106 315.211 827.504 318.995 833.168 317.999Z" fill="#E0EFE8" stroke="black" stroke-width="2" stroke-miterlimit="10"/>
<path d="M867.846 407.391L831.054 413.86C806.473 418.182 783.046 401.761 778.724 377.18L776.245 363.086C771.923 338.504 788.344 315.077 812.925 310.755L849.717 304.286C874.299 299.963 897.725 316.384 902.048 340.966L904.526 355.06C908.848 379.641 892.428 403.068 867.846 407.391Z" fill="#E0EFE8" stroke="black" stroke-width="2" stroke-miterlimit="10"/>
<path d="M873.912 387.595L818.615 397.318C807.746 399.229 797.39 391.97 795.479 381.101L792.175 362.313C790.264 351.445 797.523 341.088 808.392 339.177L863.689 329.454C874.557 327.543 884.914 334.802 886.825 345.671L890.128 364.458C892.04 375.327 884.773 385.685 873.912 387.595Z" fill="white" stroke="black" stroke-width="2" stroke-miterlimit="10"/>
<path d="M852.337 373.229C852.337 373.229 851.865 380.515 844.391 381.829C836.91 383.144 833.987 376.455 833.987 376.455" stroke="black" stroke-width="2" stroke-miterlimit="10" stroke-linecap="round" stroke-linejoin="round"/>
<path d="M810.361 311.438L814.87 337.085" stroke="black" stroke-width="2" stroke-miterlimit="10"/>
<path d="M852.446 304.039L856.955 329.686" stroke="black" stroke-width="2" stroke-miterlimit="10"/>
<path d="M858.813 361.942C858.813 361.942 859.148 356.768 864.462 355.834C869.777 354.899 871.856 359.649 871.856 359.649" stroke="black" stroke-width="2" stroke-miterlimit="10" stroke-linecap="round" stroke-linejoin="round"/>
<path d="M811.082 370.335C811.082 370.335 811.417 365.161 816.731 364.226C822.046 363.292 824.125 368.041 824.125 368.041" stroke="black" stroke-width="2" stroke-miterlimit="10" stroke-linecap="round" stroke-linejoin="round"/>
<path d="M817.804 233.014C752.955 244.416 709.589 306.286 720.991 371.135C732.394 435.984 794.264 479.35 859.113 467.948C923.961 456.545 967.328 394.675 955.925 329.826C944.428 264.994 882.653 221.611 817.804 233.014ZM856.245 451.641C800.309 461.476 747.117 424.11 737.298 368.268C727.463 312.331 764.829 259.139 820.671 249.321C876.608 239.485 929.8 276.852 939.618 332.694C949.437 388.535 912.087 441.822 856.245 451.641Z" fill="#48BDA1"/>
<rect x="551.856" y="601.271" width="476.723" height="47.8563" rx="23.9282" transform="rotate(-9.97243 551.856 601.271)" fill="#D9D9D9"/>
<rect x="599.031" y="869.572" width="476.723" height="47.8563" rx="23.9282" transform="rotate(-9.97243 599.031 869.572)" fill="#D9D9D9"/>
<rect x="565.563" y="679.221" width="296.341" height="29.4501" rx="14.725" transform="rotate(-9.97243 565.563 679.221)" fill="#D9D9D9"/>
<rect width="296.341" height="29.4501" rx="14.725" transform="matrix(0.984891 -0.173174 -0.173174 -0.984891 628.356 1036.35)" fill="#D9D9D9"/>
<rect x="576.082" y="739.049" width="358.923" height="29.4501" rx="14.725" transform="rotate(-9.97243 576.082 739.049)" fill="#D9D9D9"/>
<rect width="358.923" height="29.4501" rx="14.725" transform="matrix(0.984891 -0.173174 -0.173174 -0.984891 617.838 976.525)" fill="#D9D9D9"/>
<circle cx="1154.75" cy="543.853" r="55.2189" transform="rotate(-9.97243 1154.75 543.853)" fill="#48BDA1"/>
<circle cx="1203.2" cy="819.404" r="55.2189" transform="rotate(-9.97243 1203.2 819.404)" fill="#FED766"/>
<defs>
<linearGradient id="paint0_linear_6086_1668" x1="1319.5" y1="-345" x2="995.5" y2="423.5" gradientUnits="userSpaceOnUse">
<stop stop-color="#D8DEE6"/>
<stop offset="1" stop-color="white"/>
</linearGradient>
<clipPath id="clip0_6086_1668">
<rect y="114" width="2336" height="1017" rx="50" fill="white"/>
</clipPath>
</defs>
</svg>
