<svg fill="none" height="24" viewBox="0 0 24 24" width="24" xmlns="http://www.w3.org/2000/svg"><path d="m22.7427 1.92h-10.1465v-1.440001c0-.127304-.0485-.249393-.135-.339411-.0865-.0900169-.2038-.140588-.3262-.140588-.1223 0-.2396.0505711-.3261.140588-.0865.090018-.1351.212107-.1351.339411v1.440001h-10.14641c-.24464 0-.47926.10114-.652243.28117-.172985.18004-.270167.42422-.270167.67882v1.44c0 .25461.097182.49879.270167.67882.172983.18004.407603.28118.652243.28118v12.00001c0 .3819.14577.7481.40524 1.0182.25948.27.61141.4218.97836.4218h8.76281v.7156l-4.88317 3.696c-.09896.0749-.16529.1876-.1844.3133-.01912.1258.01055.2543.08247.3573s.18021.172.30104.1919.24431-.011.34326-.0858l4.3408-3.2856v2.8972c0 .1273.0486.2494.1351.3395.0865.09.2038.1405.3261.1405.1224 0 .2397-.0505.3262-.1405.0865-.0901.135-.2122.135-.3395v-2.8972l4.3409 3.2856c.049.037.1045.0637.1634.0784s.12.0173.1798.0074c.0599-.0098.1172-.0319.1689-.0648s.0966-.0761.1322-.1271.0612-.1088.0754-.1701c.0141-.0613.0165-.1249.0071-.1872-.0095-.0622-.0307-.1219-.0623-.1757s-.0731-.1005-.1221-.1376l-4.8833-3.696v-.7156h8.7629c.3669 0 .7189-.1518.9783-.4218.2595-.2701.4053-.6363.4053-1.0182v-12.00001c.2446 0 .4792-.10114.6522-.28118.173-.18003.2702-.42421.2702-.67882v-1.44c0-.2546-.0972-.49878-.2702-.67882-.173-.18003-.4076-.28117-.6522-.28117zm-.9224 15.36c0 .1273-.0486.2494-.1351.3394s-.2038.1406-.3261.1406h-18.44811c-.12232 0-.23962-.0506-.32612-.1406-.08649-.09-.13508-.2121-.13508-.3394v-12.00001h19.37051zm.9224-12.96001h-21.21531v-1.44h21.21531z" fill="#000"/></svg>