<svg fill="none" height="22" viewBox="0 0 22 22" width="22" xmlns="http://www.w3.org/2000/svg"><path d="m11 22c-.2652 0-.5196-.1054-.7071-.2929s-.2929-.4419-.2929-.7071v-3h-4c-.53043 0-1.03914-.2107-1.41421-.5858-.37508-.3751-.58579-.8838-.58579-1.4142v-10c0-.53043.21071-1.03914.58579-1.41421.37507-.37508.88378-.58579 1.41421-.58579h14c.5304 0 1.0391.21071 1.4142.58579.3751.37507.5858.88378.5858 1.41421v10c0 .5304-.2107 1.0391-.5858 1.4142s-.8838.5858-1.4142.5858h-4.1l-3.7 3.71c-.2.18-.44.29-.7.29zm1-6v3.08l3.08-3.08h4.92v-10h-14v10zm-10-2h-2v-12c0-.53043.210714-1.039141.585786-1.414214.375073-.375072.883784-.585786 1.414214-.585786h16v2h-16zm6-6h10v2h-10zm0 4h8v2h-8z" fill="#000"/></svg>