<svg fill="none" height="19" viewBox="0 0 24 19" width="24" xmlns="http://www.w3.org/2000/svg"><path clip-rule="evenodd" d="m10.2803 7.21967c-.29286-.29289-.76774-.29289-1.06063 0s-.29289.76777 0 1.06066l1.82683 1.82677-1.82683 1.8269c-.29289.2928-.29289.7677 0 1.0606s.76777.2929 1.06063 0l1.8268-1.8268 1.8269 1.8268c.2928.2929.7677.2929 1.0606 0s.2929-.7678 0-1.0606l-1.8268-1.8269 1.8268-1.82677c.2929-.29289.2929-.76777 0-1.06066s-.7678-.29289-1.0606 0l-1.8269 1.82681z" fill="#f44747" fill-rule="evenodd"/><rect height="15.5" rx="1.25" stroke="#f44747" stroke-width="1.5" width="20.5" x="1.75" y="1.75"/></svg>