<svg fill="none" height="20" viewBox="0 0 20 20" width="20" xmlns="http://www.w3.org/2000/svg"><path clip-rule="evenodd" d="m7.81081 9.78682c-.15806.12503-.32105.22708-.46937.27448v3.8324c0 .5359.17147 1.0192.46937 1.3788.32828.3961.81009.6419 1.38514.6419h5.25385c.2065 0 .4142-.0832.5599-.2287.1239-.1248.1859-.312.1859-.4772 0-.1479-.0413-.2935-.1251-.3963-.1239-.1872-.1446-.3963-.0608-.6054.0826-.2068.2685-.3328.475-.3755.3316-.0612.5794-.3536.5794-.6863 0-.1456-.0401-.2923-.1457-.4171-.1239-.1456-.164-.3327-.1239-.5199.0413-.1883.1664-.3351.3316-.4171.2478-.1248.3936-.3547.3718-.625 0-.2924-.1641-.5419-.4338-.6459-.2283-.0843-.3729-.2715-.3935-.5003-.0207-.22873.0838-.45749.2696-.58343.2066-.14557.3305-.39629.3098-.64585-.0401-.3339-.3935-.62389-.7446-.62389h-2.8558c-.2467 0-.4957-.12594-.6609-.31311-.1653-.20912-.2479-.45868-.2066-.70824l.1859-1.45807c.0425-.27151.0207-.50027-.0206-.68744-.087-.36835-.2731-.69243-.5275-.9442-.0162-.01604-.0326-.03179-.0494-.04724-.1662-.15323-.3588-.27686-.5702-.36381-.2269-.09336-.4754-.14442-.7358-.14442-.0413 0-.0826.0208-.10325.04159-.02065.0208-.04131.06124-.04131.10283v1.70879c0 .93816-.26963 1.85436-.7653 2.64579l-.72399 1.16692c-.14863.18554-.37849.43001-.61984.6209zm-.51338-1.6396c-.36-.39491-.87861-.64272-1.45509-.64272h-1.87387c-1.08716 0-1.96847.88132-1.96847 1.96847v6.55853c0 1.0872.88131 1.9685 1.96847 1.9685h1.87387c.73706 0 1.37951-.4051 1.71685-1.0048.46557.2647 1.01546.4192 1.63676.4192h5.25385c.59 0 1.1833-.2312 1.6201-.6676l.0041-.0042c.4526-.4556.6216-1.0492.6216-1.5341 0-.0952-.0062-.1973-.0205-.3034.5384-.4011.889-1.0404.889-1.7601 0-.1748-.0205-.3636-.0705-.5563.3316-.3872.5348-.8987.5034-1.4832-.0127-.476-.1763-.9329-.4655-1.30177.166-.34298.2469-.73275.2134-1.13702l-.0023-.02775-.0033-.02765c-.0756-.62851-.4233-1.10956-.7854-1.41097-.3651-.30388-.8718-.53381-1.4485-.53381h-2.1501l.0984-.7716c.0709-.47525.0318-.88614-.0416-1.21851l-.0024-.01076-.0025-.01072c-.3624-1.53489-1.719-2.65494-3.3427-2.65494-.46859 0-.88545.20052-1.16758.48462-.27291.27481-.47698.68571-.47698 1.1598v1.70879c0 .65034-.18703 1.29152-.53655 1.84961zm9.76327 3.60838c.0009.0012.0019.0024.0029.0035zm-10.74989-2.28263c0-.25873-.20974-.46847-.46847-.46847h-1.87387c-.25873 0-.46847.20974-.46847.46847v6.55853c0 .2588.20974.4685.46847.4685h1.87387c.25873 0 .46847-.2097.46847-.4685z" fill="#666f7d" fill-rule="evenodd"/></svg>