<svg fill="none" height="20" viewBox="0 0 20 20" width="20" xmlns="http://www.w3.org/2000/svg"><path clip-rule="evenodd" d="m12.1892 10.2132c.1581-.125.321-.22708.4694-.27453v-3.83235c0-.53591-.1715-1.01927-.4694-1.37878-.3283-.39617-.8101-.64195-1.3851-.64196h-5.25389c-.20652 0-.4142.08319-.55992.22877-.12391.12478-.18587.31195-.18587.47716 0 .14789.04131.29347.12506.39629.12392.18717.14457.3963.06081.60542-.08261.20681-.26848.33274-.47501.37549-.33159.06123-.57942.35354-.57942.68629 0 .14557.04015.29231.14571.41709.12392.14557.16408.33274.12392.51991-.04131.18833-.16637.33506-.33159.41709-.24784.12478-.39355.3547-.37175.62505 0 .29231.16407.54187.43371.64585.22832.08434.37289.27151.39355.50028.02065.22873-.08376.45753-.26964.58343-.20653.1456-.33044.3963-.30979.6459.04016.3339.39355.6239.74465.6239h2.85582c.24668 0 .49566.1259.66089.3131.16522.2091.24783.4587.20652.7082l-.18587 1.4581c-.04245.2715-.02065.5003.02065.6874.08698.3684.27307.6925.52742.9442.0162.0161.03268.0318.04943.0473.16618.1532.35884.2768.57019.3638.22694.0933.47542.1444.73581.1444.0413 0 .08261-.0208.10321-.0416.0207-.0208.0414-.0612.0414-.1028v-1.7088c0-.9382.2696-1.8544.7653-2.6458l.724-1.1669c.1486-.1856.3784-.43.6198-.6209zm.5134 1.6396c.36.3949.8786.6427 1.4551.6427h1.8738c1.0872 0 1.9685-.8813 1.9685-1.9685v-6.55853c0-1.08716-.8813-1.96847-1.9685-1.96847h-1.8738c-.7371 0-1.3795.40509-1.7169 1.00478-.4656-.26468-1.0154-.41919-1.6367-.4192h-5.25389c-.59003 0-1.18329.23124-1.62006.66759l-.00419.0042c-.45251.45567-.62154 1.04924-.62154 1.53414 0 .09521.00613.19725.02047.30344-.53837.40104-.88903 1.04035-.88903 1.76005 0 .17478.02053.3636.07058.55626-.33168.38726-.53486.89872-.50348 1.48327.01277.47601.17631.93285.46554 1.30177-.16597.343-.24687.7327-.21341 1.137l.0023.0277.00332.0277c.07559.6285.42328 1.1095.78542 1.411.36511.3038.87179.5338 1.4485.5338h2.15008l-.09837.7716c-.07094.4752-.03181.8861.04155 1.2185l.00237.0107.00253.0108c.36244 1.5348 1.719 2.6549 3.3427 2.6549.46861 0 .88551-.2005 1.16761-.4846.2729-.2748.477-.6857.477-1.1598v-1.7088c0-.6504.187-1.2915.5365-1.8496zm-9.76325-3.60844c-.00099-.00116-.00198-.00232-.00297-.00349zm10.74985 2.28264c0 .2588.2097.4685.4685.4685h1.8738c.2588 0 .4685-.2097.4685-.4685v-6.55853c0-.25873-.2097-.46847-.4685-.46847h-1.8738c-.2588 0-.4685.20974-.4685.46847z" fill="#666f7d" fill-rule="evenodd"/></svg>