<svg height="32" viewBox="0 0 32 32" width="32" xmlns="http://www.w3.org/2000/svg" fill="#505056"><path d="m16.219 2.161c-.108 0-.215.026-.31.078l-15.552 8.344c-.104.055-.193.135-.255.234s-.097.213-.102.331c0 .119.03.236.091.339s.149.185.252.242l5.258 2.951v6.724c0 .115.025.226.078.328.105.185 2.741 4.628 10.162 4.628h.003c2.784 0 4.935-.625 6.544-1.414l-.919 4.089c-.025.095-.025.196-.003.292.02.096.062.186.122.263.063.079.143.142.234.185s.191.066.292.065h1.898c.106.005.211-.016.307-.06s.181-.108.247-.19c.061-.077.102-.167.122-.263s.02-.197-.005-.292l-.907-4.039c.001-.016.01-.031.01-.047v-.81c1.682-1.127 2.452-2.279 2.518-2.378.078-.102.121-.228.12-.357v-6.648l5.245-3.026c.1-.061.182-.146.239-.247.059-.101.088-.217.089-.333-.004-.116-.035-.229-.096-.328-.06-.099-.144-.18-.245-.237l-15.13-8.344c-.095-.052-.202-.078-.31-.078zm-.01 1.409 13.786 7.607-6.591 3.781-5.766-3.75c.005-.051.03-.099.035-.151.003-.29-.082-.572-.239-.815s-.383-.434-.648-.549c-.266-.115-.558-.152-.844-.102s-.55.183-.76.383c-.21.199-.357.457-.422.74s-.045.578.055.849c.102.271.279.507.513.677s.515.268.805.281c.197.005.394-.028.578-.099.067-.026.117-.08.18-.115l5.203 3.401-5.883 3.375-14.18-7.906zm-9.292 12.086 8.961 4.797c.094.056.201.086.31.086.005 0 .015-.005.02-.005.114.001.229-.026.331-.078l1.289-.742 4.589-2.557v6.331c-1.487.853-3.629 1.607-6.578 1.607-5.997 0-8.447-3.124-8.922-3.823zm18.149.026v5.562c-.176.24-.607.74-1.279 1.294v-6.146z"/></svg>