<svg height="32" viewBox="0 0 32 32" width="32" xmlns="http://www.w3.org/2000/svg"><path d="m11.904 0c-.321.007-.628.139-.854.367s-.353.536-.357.857v3.646h-9.39c-.334 0-.654.134-.891.37s-.37.557-.37.891.134.654.37.891.557.367.891.367h3.646v23.387c0 .166.03.329.096.482.065.152.162.289.281.404s.259.202.414.26.322.086.487.078h19.7c.166 0 .33-.034.482-.099s.289-.159.404-.279c.114-.12.203-.262.261-.417.056-.155.083-.322.078-.487v-23.33h3.7v-.055c.304-.032.584-.176.789-.404s.317-.522.317-.828-.113-.601-.317-.828-.485-.371-.789-.404h-9.364v-3.646c-.004-.326-.136-.635-.367-.865s-.544-.359-.87-.359zm1.25 2.463h5.872v2.406h-5.872zm-5.69 4.925h3.924c.01.006.02.018.03.024.159.071.332.107.505.107s.344-.036.502-.107c.01-.006.02-.018.03-.024h12.229v22.148h-17.223zm3.695 3.557c-.174 0-.344.036-.502.107s-.301.173-.417.302-.205.283-.258.448-.075.338-.055.51v12.299c-.002.162.025.324.089.474.061.15.152.286.266.401s.249.206.399.268c.149.062.309.096.471.096h.003c.329 0 .643-.132.875-.365s.362-.547.362-.875v-12.299c.02-.173.001-.345-.052-.51s-.142-.319-.258-.448-.258-.231-.417-.302-.332-.107-.505-.107zm9.836 0c-.174 0-.346.036-.505.107s-.3.173-.417.302c-.116.129-.202.283-.255.448s-.075.338-.055.51v12.299c0 .328.13.643.362.875s.549.365.878.365c.162 0 .322-.034.471-.096s.285-.153.399-.268.205-.251.266-.401c.059-.15.09-.312.089-.474v-12.299c.02-.173-.001-.345-.055-.51s-.142-.319-.258-.448-.258-.231-.417-.302-.329-.107-.502-.107zm-4.919.143c-.325 0-.635.13-.865.359s-.359.54-.359.865v12.299c-.002.162.03.324.089.474.061.15.152.286.266.401s.249.206.399.268c.149.062.309.096.471.096s.322-.034.471-.096c.15-.062.285-.153.399-.268s.205-.251.266-.401c.059-.15.09-.312.089-.474v-12.299c0-.325-.127-.635-.357-.865s-.543-.359-.867-.359z"/></svg>