<svg enable-background="new 0 0 2048 2048" viewBox="0 0 2048 2048" xmlns="http://www.w3.org/2000/svg"><path d="m1158.258 1032.62v-342.348c0-142.441 116.537-260.838 258.978-260.647 142.446.191 258.275 116.136 258.275 258.625v76.077c0 32.167 26.077 58.244 58.244 58.244 32.167 0 58.244-26.077 58.244-58.244v-76.077c0-50.614-9.926-99.746-29.502-146.029-18.896-44.675-45.935-84.785-80.366-119.217-34.432-34.431-74.542-61.471-119.217-80.366-46.283-19.577-95.415-29.503-146.029-29.503-50.615 0-99.746 9.926-146.03 29.503-44.675 18.896-84.786 45.935-119.217 80.366-34.43 34.43-61.469 74.541-80.366 119.217-19.576 46.283-29.503 95.414-29.503 146.029v344.371h116.489z" fill="#cfd8dd"/><path d="m1270.286 1734.865h-974.286c-22.091 0-40-17.909-40-40v-725.47c0-22.091 17.909-40 40-40h974.286c22.091 0 40 17.909 40 40v725.47c0 22.092-17.909 40-40 40z" fill="#f7e07f"/><path d="m832.62 1351.039v159.303h-98.955v-159.303c-32.911-17.655-55.285-52.398-55.285-92.36 0-57.861 46.902-104.762 104.762-104.762 57.861 0 104.762 46.901 104.762 104.762.001 39.962-22.373 74.706-55.284 92.36z" fill="#ebcd6d"/></svg>