<?xml version="1.0" encoding="iso-8859-1"?>
<!-- Generator: Adobe Illustrator 22.0.1, SVG Export Plug-In . SVG Version: 6.00 Build 0)  -->
<svg version="1.1" id="Layer_1" xmlns="http://www.w3.org/2000/svg" xmlns:xlink="http://www.w3.org/1999/xlink" x="0px" y="0px"
	 viewBox="0 0 2048 2048" style="enable-background:new 0 0 2048 2048;" xml:space="preserve">
<g>
	<path style="fill:#CFD8DD;" d="M1158.258,1032.62V690.272c0-142.441,116.537-260.838,258.978-260.647
		c142.446,0.191,258.275,116.136,258.275,258.625v76.077c0,32.167,26.077,58.244,58.244,58.244h0
		c32.167,0,58.244-26.077,58.244-58.244V688.25c0-50.614-9.926-99.746-29.502-146.029c-18.896-44.675-45.935-84.785-80.366-119.217
		c-34.432-34.431-74.542-61.471-119.217-80.366c-46.283-19.577-95.415-29.503-146.029-29.503c-50.615,0-99.746,9.926-146.03,29.503
		c-44.675,18.896-84.786,45.935-119.217,80.366c-34.43,34.43-61.469,74.541-80.366,119.217
		c-19.576,46.283-29.503,95.414-29.503,146.029v344.371H1158.258z"/>
	<g>
		<path style="fill:#F7E07F;" d="M1270.286,1734.865H296c-22.091,0-40-17.909-40-40v-725.47c0-22.091,17.909-40,40-40h974.286
			c22.091,0,40,17.909,40,40v725.47C1310.286,1716.957,1292.377,1734.865,1270.286,1734.865z"/>
		<g>
			<path style="fill:#EBCD6D;" d="M832.62,1351.039v159.303h-98.955v-159.303c-32.911-17.655-55.285-52.398-55.285-92.36
				c0-57.861,46.902-104.762,104.762-104.762c57.861,0,104.762,46.901,104.762,104.762
				C887.905,1298.641,865.531,1333.385,832.62,1351.039z"/>
		</g>
	</g>
</g>
</svg>
