<svg fill="none" height="115" viewBox="0 0 113 115" width="113" xmlns="http://www.w3.org/2000/svg"><circle cx="56.5" cy="56.5" fill="#16d2aa" r="56.5"/><path d="m56.2779 94.4258c-20.8033 0-24.5872 13.4482-24.5872 13.4482s23.962 14.682 49.1744.466c0 0-3.7798-13.9142-24.5872-13.9142z" fill="#e0efe8"/><path d="m31.6907 108.593s3.7839-14.1672 24.5872-14.1672 24.624 14.6782 24.624 14.6782" fill="#e0efe8"/><g stroke="#000" stroke-miterlimit="10" stroke-width="2"><path d="m31.6907 108.593s3.7839-14.1672 24.5872-14.1672 24.624 14.6782 24.624 14.6782"/><path d="m57.1237 30.3948s-1.7407-11.27 8.5322-16.4964"/><path d="m69.3582 16.8848c2.0446 0 3.7022-1.6575 3.7022-3.7022 0-2.0446-1.6576-3.70213-3.7022-3.70213-2.0447 0-3.7022 1.65753-3.7022 3.70213 0 2.0447 1.6575 3.7022 3.7022 3.7022z" fill="#f3f9f6"/><path d="m22.2922 71.4829c5.132 0 9.2922-4.1603 9.2922-9.2922 0-5.132-4.1602-9.2923-9.2922-9.2923-5.1319 0-9.2922 4.1603-9.2922 9.2923 0 5.1319 4.1603 9.2922 9.2922 9.2922z" fill="#e0efe8"/><path d="m91.8616 71.4829c5.1319 0 9.2924-4.1603 9.2924-9.2922 0-5.132-4.1605-9.2923-9.2924-9.2923-5.132 0-9.2923 4.1603-9.2923 9.2923 0 5.1319 4.1603 9.2922 9.2923 9.2922z" fill="#e0efe8"/><path d="m57.0792 36.4763c3.2792 0 5.9374-2.6582 5.9374-5.9374 0-3.2791-2.6582-5.9373-5.9374-5.9373-3.2791 0-5.9374 2.6582-5.9374 5.9373 0 3.2792 2.6583 5.9374 5.9374 5.9374z" fill="#e0efe8"/><path d="m67.7279 90.1146h-21.3018c-14.2325 0-25.7681-11.5356-25.7681-25.7682v-8.1603c0-14.2325 11.5356-25.7681 25.7681-25.7681h21.3018c14.2326 0 25.7682 11.5356 25.7682 25.7681v8.1603c0 14.2326-11.5356 25.7682-25.7682 25.7682z" fill="#e0efe8"/><path d="m73.0893 79.5808h-32.0161c-6.2928 0-11.3925-5.0997-11.3925-11.3925v-10.8778c0-6.2928 5.0997-11.3925 11.3925-11.3925h32.0161c6.2929 0 11.3926 5.0997 11.3926 11.3925v10.8778c0 6.2928-5.1038 11.3925-11.3926 11.3925z" fill="#fff"/><path d="m62.3912 69.3867s-.9848 4.0455-5.3122 4.0455c-4.3314 0-5.3122-4.0455-5.3122-4.0455" stroke-linecap="round" stroke-linejoin="round"/><path d="m44.9185 30.5391v14.8495"/><path d="m69.2849 30.5391v14.8495"/><path d="m67.1438 63.6813s.6988-2.8727 3.7757-2.8727c3.077 0 3.7758 2.8727 3.7758 2.8727" stroke-linecap="round" stroke-linejoin="round"/><path d="m39.5081 63.6813s.6987-2.8727 3.7757-2.8727 3.7757 2.8727 3.7757 2.8727" stroke-linecap="round" stroke-linejoin="round"/></g></svg>