<svg width="113" height="115" viewBox="0 0 113 115" fill="none" xmlns="http://www.w3.org/2000/svg">
<circle cx="56.5" cy="56.5" r="56.5" fill="#16D2AA"/>
<path d="M56.2779 94.4258C35.4746 94.4258 31.6907 107.874 31.6907 107.874C31.6907 107.874 55.6527 122.556 80.8651 108.34C80.8651 108.34 77.0853 94.4258 56.2779 94.4258Z" fill="#E0EFE8"/>
<path d="M31.6907 108.593C31.6907 108.593 35.4746 94.4258 56.2779 94.4258C77.0812 94.4258 80.9019 109.104 80.9019 109.104" fill="#E0EFE8"/>
<path d="M31.6907 108.593C31.6907 108.593 35.4746 94.4258 56.2779 94.4258C77.0812 94.4258 80.9019 109.104 80.9019 109.104" stroke="black" stroke-width="2" stroke-miterlimit="10"/>
<path d="M57.1237 30.3948C57.1237 30.3948 55.383 19.1248 65.6559 13.8984" stroke="black" stroke-width="2" stroke-miterlimit="10"/>
<path d="M69.3582 16.8848C71.4028 16.8848 73.0604 15.2273 73.0604 13.1826C73.0604 11.138 71.4028 9.48047 69.3582 9.48047C67.3135 9.48047 65.656 11.138 65.656 13.1826C65.656 15.2273 67.3135 16.8848 69.3582 16.8848Z" fill="#F3F9F6" stroke="black" stroke-width="2" stroke-miterlimit="10"/>
<path d="M22.2922 71.4829C27.4242 71.4829 31.5844 67.3226 31.5844 62.1907C31.5844 57.0587 27.4242 52.8984 22.2922 52.8984C17.1603 52.8984 13 57.0587 13 62.1907C13 67.3226 17.1603 71.4829 22.2922 71.4829Z" fill="#E0EFE8" stroke="black" stroke-width="2" stroke-miterlimit="10"/>
<path d="M91.8616 71.4829C96.9935 71.4829 101.154 67.3226 101.154 62.1907C101.154 57.0587 96.9935 52.8984 91.8616 52.8984C86.7296 52.8984 82.5693 57.0587 82.5693 62.1907C82.5693 67.3226 86.7296 71.4829 91.8616 71.4829Z" fill="#E0EFE8" stroke="black" stroke-width="2" stroke-miterlimit="10"/>
<path d="M57.0792 36.4763C60.3584 36.4763 63.0166 33.8181 63.0166 30.5389C63.0166 27.2598 60.3584 24.6016 57.0792 24.6016C53.8001 24.6016 51.1418 27.2598 51.1418 30.5389C51.1418 33.8181 53.8001 36.4763 57.0792 36.4763Z" fill="#E0EFE8" stroke="black" stroke-width="2" stroke-miterlimit="10"/>
<path d="M67.7279 90.1146H46.4261C32.1936 90.1146 20.658 78.579 20.658 64.3464V56.1861C20.658 41.9536 32.1936 30.418 46.4261 30.418H67.7279C81.9605 30.418 93.4961 41.9536 93.4961 56.1861V64.3464C93.4961 78.579 81.9605 90.1146 67.7279 90.1146Z" fill="#E0EFE8" stroke="black" stroke-width="2" stroke-miterlimit="10"/>
<path d="M73.0893 79.5808H41.0732C34.7804 79.5808 29.6807 74.4811 29.6807 68.1883V57.3105C29.6807 51.0177 34.7804 45.918 41.0732 45.918H73.0893C79.3822 45.918 84.4819 51.0177 84.4819 57.3105V68.1883C84.4819 74.4811 79.3781 79.5808 73.0893 79.5808Z" fill="white" stroke="black" stroke-width="2" stroke-miterlimit="10"/>
<path d="M62.3912 69.3867C62.3912 69.3867 61.4064 73.4322 57.079 73.4322C52.7476 73.4322 51.7668 69.3867 51.7668 69.3867" stroke="black" stroke-width="2" stroke-miterlimit="10" stroke-linecap="round" stroke-linejoin="round"/>
<path d="M44.9185 30.5391V45.3886" stroke="black" stroke-width="2" stroke-miterlimit="10"/>
<path d="M69.2849 30.5391V45.3886" stroke="black" stroke-width="2" stroke-miterlimit="10"/>
<path d="M67.1438 63.6813C67.1438 63.6813 67.8426 60.8086 70.9195 60.8086C73.9965 60.8086 74.6953 63.6813 74.6953 63.6813" stroke="black" stroke-width="2" stroke-miterlimit="10" stroke-linecap="round" stroke-linejoin="round"/>
<path d="M39.5081 63.6813C39.5081 63.6813 40.2068 60.8086 43.2838 60.8086C46.3608 60.8086 47.0595 63.6813 47.0595 63.6813" stroke="black" stroke-width="2" stroke-miterlimit="10" stroke-linecap="round" stroke-linejoin="round"/>
</svg>
