<svg width="91" height="107" viewBox="0 0 91 107" fill="none" xmlns="http://www.w3.org/2000/svg">
<path d="M44.2779 86.4258C23.4746 86.4258 19.6907 99.8738 19.6907 99.8738C19.6907 99.8738 43.6527 114.556 68.8651 100.34C68.8651 100.34 65.0853 86.4258 44.2779 86.4258Z" fill="#E0EFE8"/>
<path d="M19.6907 100.593C19.6907 100.593 23.4746 86.4258 44.2779 86.4258C65.0812 86.4258 68.9019 101.104 68.9019 101.104" fill="#E0EFE8"/>
<path d="M19.6907 100.593C19.6907 100.593 23.4746 86.4258 44.2779 86.4258C65.0812 86.4258 68.9019 101.104 68.9019 101.104" stroke="black" stroke-width="2" stroke-miterlimit="10"/>
<path d="M45.1237 22.3948C45.1237 22.3948 43.383 11.1248 53.6559 5.89844" stroke="black" stroke-width="2" stroke-miterlimit="10"/>
<path d="M57.3582 8.88483C59.4028 8.88483 61.0604 7.22731 61.0604 5.18265C61.0604 3.13799 59.4028 1.48047 57.3582 1.48047C55.3135 1.48047 53.656 3.13799 53.656 5.18265C53.656 7.22731 55.3135 8.88483 57.3582 8.88483Z" fill="#F3F9F6" stroke="black" stroke-width="2" stroke-miterlimit="10"/>
<path d="M10.2922 63.4829C15.4242 63.4829 19.5844 59.3226 19.5844 54.1907C19.5844 49.0587 15.4242 44.8984 10.2922 44.8984C5.16027 44.8984 1 49.0587 1 54.1907C1 59.3226 5.16027 63.4829 10.2922 63.4829Z" fill="#E0EFE8" stroke="black" stroke-width="2" stroke-miterlimit="10"/>
<path d="M79.8616 63.4829C84.9935 63.4829 89.1538 59.3226 89.1538 54.1907C89.1538 49.0587 84.9935 44.8984 79.8616 44.8984C74.7296 44.8984 70.5693 49.0587 70.5693 54.1907C70.5693 59.3226 74.7296 63.4829 79.8616 63.4829Z" fill="#E0EFE8" stroke="black" stroke-width="2" stroke-miterlimit="10"/>
<path d="M45.0792 28.4763C48.3584 28.4763 51.0166 25.8181 51.0166 22.5389C51.0166 19.2598 48.3584 16.6016 45.0792 16.6016C41.8001 16.6016 39.1418 19.2598 39.1418 22.5389C39.1418 25.8181 41.8001 28.4763 45.0792 28.4763Z" fill="#E0EFE8" stroke="black" stroke-width="2" stroke-miterlimit="10"/>
<path d="M55.7279 82.1146H34.4261C20.1936 82.1146 8.65796 70.579 8.65796 56.3464V48.1861C8.65796 33.9536 20.1936 22.418 34.4261 22.418H55.7279C69.9605 22.418 81.4961 33.9536 81.4961 48.1861V56.3464C81.4961 70.579 69.9605 82.1146 55.7279 82.1146Z" fill="#E0EFE8" stroke="black" stroke-width="2" stroke-miterlimit="10"/>
<path d="M61.0893 71.5808H29.0732C22.7804 71.5808 17.6807 66.4811 17.6807 60.1883V49.3105C17.6807 43.0177 22.7804 37.918 29.0732 37.918H61.0893C67.3822 37.918 72.4819 43.0177 72.4819 49.3105V60.1883C72.4819 66.4811 67.3781 71.5808 61.0893 71.5808Z" fill="white" stroke="black" stroke-width="2" stroke-miterlimit="10"/>
<path d="M50.3912 61.3867C50.3912 61.3867 49.4064 65.4322 45.079 65.4322C40.7476 65.4322 39.7668 61.3867 39.7668 61.3867" stroke="black" stroke-width="2" stroke-miterlimit="10" stroke-linecap="round" stroke-linejoin="round"/>
<path d="M32.9185 22.5391V37.3886" stroke="black" stroke-width="2" stroke-miterlimit="10"/>
<path d="M57.2849 22.5391V37.3886" stroke="black" stroke-width="2" stroke-miterlimit="10"/>
<path d="M55.1438 55.6813C55.1438 55.6813 55.8426 52.8086 58.9195 52.8086C61.9965 52.8086 62.6953 55.6813 62.6953 55.6813" stroke="black" stroke-width="2" stroke-miterlimit="10" stroke-linecap="round" stroke-linejoin="round"/>
<path d="M27.5081 55.6813C27.5081 55.6813 28.2068 52.8086 31.2838 52.8086C34.3608 52.8086 35.0595 55.6813 35.0595 55.6813" stroke="black" stroke-width="2" stroke-miterlimit="10" stroke-linecap="round" stroke-linejoin="round"/>
</svg>
