<svg fill="none" height="83" viewBox="0 0 83 83" width="83" xmlns="http://www.w3.org/2000/svg"><path d="m41.5 83c22.9198 0 41.5-18.5802 41.5-41.5s-18.5802-41.5-41.5-41.5-41.5 18.5802-41.5 41.5 18.5802 41.5 41.5 41.5z" fill="#16d2aa"/><path d="m41.1367 68.082c-15.4149 0-18.2187 9.9648-18.2187 9.9648s17.7554 10.8791 36.4374.3451c0 0-2.8008-10.3099-18.2187-10.3099z" fill="#e0efe8"/><path d="m22.918 78.5758s2.8038-10.4977 18.2187-10.4977 18.2459 10.8761 18.2459 10.8761" fill="#e0efe8"/><g stroke="#000" stroke-miterlimit="10" stroke-width="1.2"><path d="m22.918 78.5758s2.8038-10.4977 18.2187-10.4977 18.2459 10.8761 18.2459 10.8761"/><path d="m41.7634 20.6376s-1.2898-8.3509 6.3222-12.22354"/><path d="m50.8288 10.6193c1.5151 0 2.7433-1.22818 2.7433-2.74324 0-1.51505-1.2282-2.74325-2.7433-2.74325-1.515 0-2.7432 1.2282-2.7432 2.74325 0 1.51506 1.2282 2.74324 2.7432 2.74324z" fill="#f3f9f6"/><path d="m15.9541 51.0754c3.8027 0 6.8854-3.0826 6.8854-6.8853s-3.0827-6.8854-6.8854-6.8854-6.88537 3.0827-6.88537 6.8854 3.08267 6.8853 6.88537 6.8853z" fill="#e0efe8"/><path d="m67.5038 51.0754c3.8027 0 6.8854-3.0826 6.8854-6.8853s-3.0827-6.8854-6.8854-6.8854-6.8854 3.0827-6.8854 6.8854 3.0827 6.8853 6.8854 6.8853z" fill="#e0efe8"/><path d="m41.7304 25.131c2.4298 0 4.3995-1.9697 4.3995-4.3995 0-2.4297-1.9697-4.3995-4.3995-4.3995-2.4297 0-4.3995 1.9698-4.3995 4.3995 0 2.4298 1.9698 4.3995 4.3995 4.3995z" fill="#e0efe8"/><path d="m49.6211 64.8709h-15.7843c-10.5461 0-19.0938-8.5477-19.0938-19.0938v-6.0466c0-10.5461 8.5477-19.0938 19.0938-19.0938h15.7843c10.5461 0 19.0937 8.5477 19.0937 19.0938v6.0466c0 10.5461-8.5476 19.0938-19.0937 19.0938z" fill="#e0efe8"/><path d="m53.5937 57.0764h-23.7234c-4.6629 0-8.4417-3.7788-8.4417-8.4417v-8.0602c0-4.6629 3.7788-8.4417 8.4417-8.4417h23.7234c4.6629 0 8.4417 3.7788 8.4417 8.4417v8.0602c0 4.6629-3.7818 8.4417-8.4417 8.4417z" fill="#fff"/><path d="m45.6667 52.5156s-.7298-2.9976-3.9363-2.9976c-3.2095 0-3.9362 2.9976-3.9362 2.9976" stroke-linecap="round" stroke-linejoin="round"/><path d="m32.7195 20.7305v11.0033"/><path d="m50.7747 20.7305v11.0033"/><path d="m49.1879 43.1644s.5177 2.1286 2.7977 2.1286 2.7978-2.1286 2.7978-2.1286" stroke-linecap="round" stroke-linejoin="round"/><path d="m28.7103 43.1644s.5178 2.1286 2.7978 2.1286 2.7977-2.1286 2.7977-2.1286" stroke-linecap="round" stroke-linejoin="round"/></g></svg>