<svg fill="none" height="186" viewBox="0 0 411 186" width="411" xmlns="http://www.w3.org/2000/svg" xmlns:xlink="http://www.w3.org/1999/xlink"><linearGradient id="a" gradientUnits="userSpaceOnUse" x1="131.725" x2="134.042" y1="78.2371" y2="121.923"><stop offset="0" stop-color="#d1c6c6"/><stop offset="1" stop-color="#988189"/></linearGradient><rect fill="#e4f2fa" height="186" rx="15" width="411"/><ellipse cx="220.5" cy="168" fill="#000" fill-opacity=".19" rx="124.5" ry="10"/><path d="m189.829 138.635-3.655-10.965s-13.764-6.164-6.348-28.895l-.574-5.3543s-13.754-49.9651 22.922-54.1116c24.105-2.7225 39.812 6.4261 47.751 13.0184 4.29 3.5628 5.236 8.4692 6.334 13.9342.956 4.7555-3.615 13.8739-1.697 18.8206 8.257 21.2767 9.626 22.6547 11.851 25.4377 1.269 1.59 5.76 5.108 8.649 10.427 5.795 10.663 4.446 26.943 4.446 26.943l-57.957 10.376s-18.204 2.607-25.187-2.662l-.529-5.857" fill="#e4b652"/><path d="m278.8 139.878s2.866-2.724 4.903-7.586c2.037-4.861 5.772-1.885 6.282.548.501 2.388 2.81 8.371-10.694 14.851l-2.002-4.258z" fill="#e4b652"/><path d="m201.47 38.5391s-15.634 2.5107-21.397 2.788c-5.764.2773-9.251-.7915-10.654 8.2582-1.403 9.0498 2.276 16.2947 4.123 17.0509 1.918.7865 4.658 1.1495 6.98-4.6938 2.321-5.8433 4.839-13.1234 10.285-16.5921 4.602-2.9292 8.836-4.6181 10.042-5.0719.283-.1058.545-.247.788-.4184.656-.4639 1.614-1.3209-.167-1.3209z" fill="#544b43"/><path d="m192.933 68.8592s9.357-6.2483 20.01-4.5342c10.654 1.7142 14.757 11.4763 14.757 11.4763" stroke="#544b43" stroke-linecap="round" stroke-linejoin="round" stroke-miterlimit="10" stroke-width="2"/><path d="m211.403 68.271s-6.576-2.0447-6.969 3.5484c-.045.6651.252 1.34.842 1.6626.715.3871 1.995.5459 4.263-.3821 0 0 .841-.4963 1.542.3374.705.8338 1.345 2.1391 3.502 1.9257.887-.0894 1.482-.5807 1.875-1.1316.801-1.1216.776-2.6651-.126-3.7073-.756-.8784-2.197-1.8065-4.929-2.2531z" fill="#544b43"/><path d="m179.219 93.4207s32.36 11.3383 75.18-9.3074l3.636 7.6768s-42.477 20.9799-78.71 8.0719z" fill="#16d2aa"/><path d="m204.718 115.344c2.743 0 4.966-2.369 4.966-5.293 0-2.923-2.223-5.293-4.966-5.293s-4.966 2.37-4.966 5.293c0 2.924 2.223 5.293 4.966 5.293z" fill="#fff"/><path d="m204.718 104.641c-3.061 0-5.546 2.48-5.546 5.543 0 3.061 2.481 5.544 5.546 5.544 3.061 0 5.546-2.48 5.546-5.544 0-3.063-2.485-5.543-5.546-5.543zm0 10.318c-2.639 0-4.78-2.14-4.78-4.778s2.138-4.778 4.78-4.778c2.639 0 4.78 2.137 4.78 4.778s-2.141 4.778-4.78 4.778z" fill="#16d2aa"/><path d="m204.718 114.962c2.64 0 4.78-2.139 4.78-4.778s-2.14-4.778-4.78-4.778c-2.639 0-4.78 2.139-4.78 4.778s2.141 4.778 4.78 4.778z" fill="#fff"/><path d="m202.323 111.339c.154.189.358.286.616.286.257 0 .462-.097.612-.286.15-.19.226-.451.226-.777v-1.718l.916-.551v2.298c0 .594-.165 1.052-.494 1.37-.329.319-.748.48-1.264.48-.512 0-.934-.161-1.267-.483-.33-.322-.498-.777-.498-1.367v-1.747l.917-.551v2.265c.007.333.082.591.236.781z" fill="#16d2aa"/><path d="m207.83 108.662c.286.243.433.619.433 1.127s-.147.877-.444 1.113-.748.351-1.354.351h-.547v.594l-.917.551v-4.105h1.45c.63.004 1.089.125 1.379.369zm-.674 1.614c.111-.122.165-.304.165-.541 0-.236-.071-.404-.215-.504-.143-.101-.365-.151-.666-.151h-.522v1.382h.615c.305 0 .512-.061.623-.186z" fill="#16d2aa"/><path d="m205.42 103.391s.792 1.374.035 2.116c-.762.748.396.248.396.248s.707-1.364 0-2.364c0 0-.151-.546-.431 0z" fill="#b5dfd5"/><path d="m204.503 104.024.277-.044v.526l-.277.029z" fill="#b5dfd5"/><path d="m209.23 76.9664s-2.315-2.1417-5.185-.9785c-2.869 1.1631-2.683 2.4262-2.683 2.4262" stroke="#544b43" stroke-linecap="round" stroke-linejoin="round" stroke-miterlimit="10" stroke-width="2"/><path d="m197.781 63.749c1.224 0 2.216-.9923 2.216-2.2163s-.992-2.2163-2.216-2.2163-2.217.9923-2.217 2.2163.993 2.2163 2.217 2.2163z" fill="#1d1c1a"/><path d="m227.285 69.2919c1.224 0 2.216-.9922 2.216-2.2162 0-1.2241-.992-2.2163-2.216-2.2163s-2.217.9922-2.217 2.2163c0 1.224.993 2.2162 2.217 2.2162z" fill="#1d1c1a"/><path d="m178.702 106.497 10.231-15.4729c1.395-2.7089 4.855-3.7662 7.404-2.0896 2.846 1.8731 3.889 10.332-3.516 23.2215" fill="#e4b652"/><path d="m178.702 106.495 2.448-3.937c.816-1.314 1.657-2.6132 2.489-3.9173l2.503-3.9072 2.539-3.882-.015.0302c.67-1.3192 1.879-2.3564 3.294-2.8146 1.405-.4783 3.027-.3172 4.312.4481.665.3726 1.178.997 1.521 1.6414.343.6546.564 1.3545.715 2.0544.297 1.4148.302 2.8498.192 4.2596-.267 2.8297-1.063 5.5584-2.086 8.1714-1.032 2.614-2.337 5.111-3.788 7.503 1.315-2.472 2.519-5 3.461-7.628.952-2.619 1.657-5.3375 1.859-8.0917.1-1.3746.075-2.7643-.217-4.0935-.287-1.3041-.846-2.6535-1.975-3.2778-1.133-.6647-2.543-.7754-3.798-.3777-1.259.3928-2.342 1.2991-2.951 2.4773l-.01.0151-.011.0151-2.579 3.8568-2.614 3.8317c-.876 1.2737-1.738 2.5577-2.629 3.8217z" fill="#c58f2c"/><path d="m280.731 147.064s-7.095 20.766-24.51 21.447c-17.419.681-21.565-2.434-21.565-2.434s-2.931-2.183 3.073-4.951c6.004-2.769 9.712-3.934 9.712-3.934s-18.762 2.246-26.839 1.066" fill="#e4b652"/><path d="m228.116 158.046s-14.668 2.107-31.79 5.414c-8.808 1.7-13.053 1.534-15.005 1.167-1.318-.252-2.414-1.267-2.62-2.589-.191-1.247.322-2.921 3.148-4.63 5.659-3.418 5.946-2.624 5.946-2.624-6.947-7.495 2.072-16.096 2.072-16.096s9.839 14.965 24.044 17.167" fill="#e4b652"/><path d="m232.077 122.067s-18.97-6.906-21.043-3.495-10.943-1.293-1.464-11.476c9.479-10.1837 31.672-2.664 31.672-2.664" fill="#e4b652"/><path d="m232.076 122.065c-2.859-1.095-5.775-2.059-8.718-2.921-1.474-.416-2.962-.805-4.468-1.12s-3.027-.583-4.581-.649c-.779-.025-1.572-.008-2.366.231-.385.131-.803.331-1.08.719l-.168.232c-.049.069-.097.138-.162.191-.109.129-.25.222-.386.316-.578.34-1.319.395-1.988.187-.679-.189-1.274-.627-1.718-1.175-.434-.561-.705-1.239-.81-1.955-.105-.715-.041-1.45.129-2.168.336-1.437 1.06-2.782 1.912-4.017.224-.304.433-.613.666-.914.241-.293.468-.591.713-.878l.751-.85.8-.787c1.112-1.005 2.387-1.825 3.751-2.459s2.815-1.092 4.292-1.415c1.483-.311 2.993-.491 4.508-.586 3.037-.18 6.095.026 9.118.453 3.027.419 6.026 1.056 8.965 1.916-2.9-1.001-5.892-1.71-8.917-2.233-3.027-.498-6.108-.764-9.19-.64-3.079.109-6.188.664-9.025 1.96-1.416.649-2.752 1.493-3.919 2.538l-.843.821-.776.863c-.253.295-.492.6-.741.901-.24.305-.463.625-.694.937-.875 1.286-1.625 2.697-1.981 4.249-.177.773-.246 1.587-.122 2.393.12.804.436 1.586.948 2.236.522.636 1.218 1.138 2.024 1.362.79.241 1.705.188 2.45-.262.177-.123.355-.252.496-.413.082-.074.141-.161.205-.246l.171-.237c.163-.249.473-.41.801-.527.673-.22 1.435-.257 2.182-.247 1.507.03 3.016.267 4.517.549 1.499.286 2.987.643 4.467 1.024 2.948.763 5.874 1.663 8.787 2.621z" fill="#c58f2c"/><path d="m189.608 138.688c4.094 8.424 18.031 14.139 27.011 17.73z" fill="#e4b652"/><path d="m189.608 138.688c4.094 8.424 18.031 14.139 27.011 17.73" stroke="#c58f2c" stroke-miterlimit="10" stroke-width="1.302"/><path d="m247.309 157.164c-2.191-1.153-4.08-2.981-5.173-5.267-.539-1.143-.821-2.412-.851-3.676-.03-1.268.191-2.532.579-3.736.403-1.203.998-2.311 1.637-3.393.685-1.047 1.406-2.075 2.247-3.001 1.642-1.883 3.491-3.555 5.45-5.075l-1.355 1.268c-.458.413-.876.877-1.32 1.31-.448.428-.856.891-1.274 1.344-.428.443-.811.926-1.204 1.405-.781.951-1.496 1.953-2.151 2.991-.609 1.062-1.178 2.15-1.551 3.308-.383 1.153-.615 2.356-.595 3.564.01 1.209.282 2.407.746 3.53.478 1.118 1.174 2.14 2 3.051.811.912 1.763 1.717 2.815 2.377z" fill="#c48f2c"/><path d="m184.275 160.299c1.033 0 1.87-.434 1.87-.97s-.837-.97-1.87-.97-1.87.434-1.87.97.837.97 1.87.97z" fill="#c58f2c"/><path d="m182.336 162.512c.804 0 1.455-.341 1.455-.762s-.651-.762-1.455-.762c-.803 0-1.454.341-1.454.762s.651.762 1.454.762z" fill="#c58f2c"/><path d="m184.137 164.175c.88 0 1.593-.249 1.593-.555s-.713-.554-1.593-.554-1.593.248-1.593.554.713.555 1.593.555z" fill="#c58f2c"/><path d="m188.084 163.482c1.836 0 3.325-.775 3.325-1.731s-1.489-1.731-3.325-1.731-3.324.775-3.324 1.731 1.488 1.731 3.324 1.731z" fill="#c58f2c"/><path d="m196.05 153.535s-8.568.7-9.006 1.264z" fill="#e4b652"/><path d="m196.05 153.537c-.75.141-1.506.247-2.256.348-.751.105-1.506.191-2.262.281l-2.262.247c-.377.035-.755.081-1.128.136-.373.056-.766.076-1.098.252.136-.141.332-.196.509-.267.181-.06.367-.116.554-.166.373-.091.745-.166 1.123-.242.751-.146 1.506-.241 2.262-.332.755-.081 1.516-.156 2.277-.196.76-.041 1.521-.071 2.281-.061z" fill="#c58f2c"/><rect fill="#fbcaca" height="4.15634" rx="2" transform="matrix(-.931669 -.359192 -.365586 .932372 271.865 63.9609)" width="36.9786"/><path d="m0 0h33.6414v4.23913h-33.6414z" fill="#8b939f" transform="matrix(-.931669 -.359192 -.365586 .932372 268.775 62.7188)"/><path d="m0 0h31.7904v4.34814h-31.7904z" fill="#fedf85" transform="matrix(-.931669 -.359192 -.365586 .932372 267.052 62.0508)"/><path d="m235.939 54.5771 1.552-4.0447-4.415.4652z" fill="#343440"/><path d="m235.94 54.5755 1.552-4.0448-3.223.3026-.443 1.1557z" fill="#fff"/><path d="m232.862 50.8449 1.445-.0519-.467 1.2903z" fill="#565961"/><path d="m236.379 45.2613s-1.138-3.1953 4.647-.1208c5.786 3.0744 10.514 5.374 15.991 6.8181 5.477 1.4442 8.497 2.2694 9.012 7.1754.521 4.9061-4.152 12.3532-8.364 16.6302-2.317 2.3549-3.824 1.6354-4.709.5133-.687-.8705-1.001-1.9826-.981-3.0896.036-1.8265-.207-5.9627-2.584-10.3706-1.78-3.2958-7.94-14.2652-13.012-17.556z" fill="#544b43"/><path d="m219.807 119.453c.296 0 .579.112.787.312.209.2.326.471.326.754 0 .283-.117.554-.326.754-.208.2-.491.312-.787.312h-36.893l-2.08-2.132z" fill="#988189"/><path d="m160.459 78.3008c.234-.0002.463.0642.663.186s.362.2964.469.5046l21.802 42.5946h-66.153c-.228 0-.452-.062-.649-.178-.196-.117-.358-.284-.467-.484l-22.3428-40.7391c-.0802-.1467-.1308-.3079-.1488-.4741-.018-.1663-.0031-.3343.0438-.4948.047-.1605.1251-.3102.2298-.4405.1048-.1302.2342-.2386.3808-.3188.1873-.1025.3973-.156.6106-.1559z" fill="url(#a)"/><path d="m141.58 106.979c2.409-.637 3.561-2.321 3.859-4.331 0-1.927 0-5.5984-3.346-7.4678-1.937-1.1592-4.431-1.6497-6.599-1.0669-3.83 1.035-5.27 4.5732-4.223 8.5027 1.048 3.93 6.479 5.398 10.309 4.363z" fill="#cdc3c1"/><path d="m141.135 105.963c.848-.19 1.617-.644 2.197-1.299.581-.654.945-1.477 1.041-2.351 0-1.621 0-4.7111-2.798-6.2781-1.622-.9746-3.718-1.3854-5.532-.8917-3.212.8727-4.423 3.8507-3.549 7.1568.874 3.306 5.441 4.535 8.641 3.663z" opacity=".66" stroke="#e4e3e3" stroke-dasharray="5 5" stroke-linecap="round" stroke-miterlimit="10"/><path d="m134.352 99.263s.876 3.8 2.954 3.547-.161-3.8256-.161-3.8256" opacity=".66" stroke="#e4e3e3" stroke-linecap="round" stroke-linejoin="round"/><path d="m140.127 103.25-1.725-4.9408s2.735-.6856 3.492.6467c.758 1.3321-1.967 1.5391-1.967 1.5391" opacity=".66" stroke="#e4e3e3" stroke-linecap="round" stroke-linejoin="round"/><g fill="#7c6c53"><path d="m90 122h209v8h-209z"/><path d="m290 129h9l-4.39 43-4.61-.977z"/><path d="m90 126h9l-4.3902 43-4.6098-.977z"/><path d="m311 129h9v38h-9z"/><path d="m111 126h9v38h-9z"/></g><path d="m299 122h23v6.5l-23 1.5z" fill="#685a45"/><path d="m295 130h4v41.638l-4 1.362z" fill="#685a45"/><path d="m95 130h4v38.733l-4 1.267z" fill="#685a45"/><path d="m316 122h4v43.575l-4 1.425z" fill="#685a45"/><path d="m116 130h4v32.923l-4 1.077z" fill="#685a45"/><path d="m229.449 84.4844h33.05v37.5276h-33.05z" fill="#3d8dc7"/><path d="m262.499 84.4844h5.33065v37.5277h-5.33065z" fill="#287dba"/><path d="m267.83 84.4844h12.154v37.5276h-12.154z" fill="#2c6f9f"/><path d="m266.125 114.547h28.9987v7.03645h-28.9987z" fill="#e0dcdc"/><path d="m295.124 114.547h21.3226v7.03645h-21.3226z" fill="#ca6060"/><path d="m266.125 114.547h28.9987v.426452h-28.9987z" fill="#ca6060"/><path d="m266.125 121.156h28.9987v.426452h-28.9987z" fill="#ca6060"/><path d="m266.125 115.824h28.9987v.213226h-28.9987z" fill="#b0abab"/><path d="m266.125 116.891h28.9987v.213226h-28.9987z" fill="#b0abab"/><path d="m266.125 117.957h28.9987v.213226h-28.9987z" fill="#b0abab"/><path d="m266.125 119.023h28.9987v.213226h-28.9987z" fill="#b0abab"/><path d="m266.125 120.09h28.9987v.213226h-28.9987z" fill="#b0abab"/><path d="m263.566 107.512h28.9987v7.03645h-28.9987z" fill="#e0dcdc"/><path d="m292.565 107.512h21.3226v7.03645h-21.3226z" fill="#287b8d"/><path d="m263.566 107.512h28.9987v.426452h-28.9987z" fill="#287b8d"/><path d="m263.566 114.121h28.9987v.426452h-28.9987z" fill="#287b8d"/><path d="m263.566 108.789h28.9987v.213226h-28.9987z" fill="#b0abab"/><path d="m263.566 109.855h28.9987v.213226h-28.9987z" fill="#b0abab"/><path d="m263.566 110.922h28.9987v.213226h-28.9987z" fill="#b0abab"/><path d="m263.566 111.988h28.9987v.213226h-28.9987z" fill="#b0abab"/><path d="m263.566 113.055h28.9987v.213226h-28.9987z" fill="#b0abab"/><path d="m223 60c.252 1.2905 1.377 3.6623 3.863 2.8252 2.485-.8371 5.793-.3488 7.137 0" stroke="#544b43" stroke-linecap="round" stroke-width="1.5"/><path d="m210.053 72.8086c0 .9743.114 2.019-.082 2.9738-.128.6261-.085.8647.558.8944 1.626.0751 3.401.7423 3.971 2.3227 0 0 1 1.5 1 2.5" stroke="#544b43" stroke-linecap="round" stroke-width="2"/><circle cx="128" cy="40" fill="#fff" r="28"/><path d="m159.107 63.7167-18.646-1.9756 8.188-12.4176z" fill="#fff" stroke="#fff" stroke-width="2"/><path d="m125.733 42.2299c.614-2.0191 7.783-13.7455 10.3-9.7855 1.932 3.0402-5.261 7.874-6.599 8.6893-1.275.7764-2.632 1.4602-4.064 1.8448-1.114.2993-3.662.4264-2.432-1.8181 1.324-2.4174 5.638-5.7946 8.566-4.9462 3.312.9596.211 6.323-.751 7.5664-2.582 3.3403-2.871-.2765-1.733-2.2993 1.408-2.5054 8.718-6.9861 8.436-.7219-.104 2.3173-2.933 4.46-4.943 2.7538-1.473-1.2507-.375-4.0239 1.605-3.2618 1.776.6837 1.006 3.5329-.052 2.5132-.966-.9314-2.127-5.3334-.155-5.9355 3.432-1.0476 5.282 13.8587.336 12.2453-3.536-1.1538-6.211-6.4577-7.168-9.732-.332-1.1333-1.284-5.8776.724-7.0584 2.307-1.3567 3.863 4.3402 3.882 4.4382 1.013 5.2448-.096 12.5355-4.425 16.0686-4.22 3.4434-6.42-2.1875-6.703-5.5345-.332-3.9182.5-9.7684 3.908-12.272 2.437-1.7907 5.289-.0137 5.771 2.8074.458 2.6809-1.271 6.9606-4.529 6.6306-4.43-.4487-5.081-7.3357-4.736-10.5876.382-3.6066 2.535-8.7996 7.013-7.1921 4.542 1.6304 7.412 8.6133 6.703 13.2345-1.388 9.0554-11.968.3295-5.486-2.2459 3.694-1.468 7.945.949 10.248 3.8501.859 1.0819 3.389 6.6338-.492 6.283-7.177-.6488-5.008-14.8298-.621-10.8549 2.064 1.8694 2.526 5.4642 2.252 8.1011-.271 2.6071-2.145 3.1741-2.588.4278-.588-3.6412 3.567-.7787.31 1.5507-2.292 1.6393-4.128-.5778-4.632-2.7806-.772-3.3751.362-6.9494 2.924-9.1973 4.35-3.8161 12.528-2.1567 5.901 4.1708-4.587 4.3795-17.462 13.7166-21.092 3.7164-1.812-4.991-.254-14.826 7.169-11.9244 10.3 4.0263-.359 20.0986-6.16 23.0735-9.331 4.7854-10.351-9.7273-8.489-15.3734 1.646-4.9885 4.9-9.2637 9.731-11.3095 3.936-1.6667 11.891-2.2889 13.406 3.3688 1.564 5.8373-7.315 12.3987-11.801 7.9139-4.863-4.8614 5.748-10.1915 6.677-1.5507.874 8.1267-13.959 12.5427-14.7 4.1709-.256-2.893 2.567-4.6945 4.995-4.5452 3.679.2262 2.481 3.8754-.776 2.5667-7.858-3.1567-2.028-17.0761 5.564-13.2345 1.917.9701 3.633 4.6277.724 5.8018-2.791 1.1266-5.688-1.4884-6.806-3.8233-.002-.0033-1.179-5.9496 1.165-3.3955 2.023 2.2058 2.024 6.2158.698 8.7428-1.452 2.7685-4.753 4.271-7.583 2.6469-3.809-2.1867-1.693-4.889-1.138-7.7536" stroke="#343440" stroke-linecap="round" stroke-width="2"/></svg>