<svg fill="none" height="259" viewBox="0 0 261 259" width="261" xmlns="http://www.w3.org/2000/svg"><ellipse cx="122" cy="123" fill="#e3f2fd" rx="122" ry="123"/><ellipse cx="165.841" cy="237.677" fill="#c4c4c4" fill-opacity=".5" rx="95.1586" ry="20.5112"/><ellipse cx="58.9152" cy="180.592" fill="#c8bbbb" rx="3.02625" ry="2.35375"/><path d="m102.379 198.663-5.5371-16.612s-9.6173-10.185-9.6173-43.774l-.8695-8.111s-20.8363-75.6931 34.7249-81.9748c36.517-4.1243 60.312 9.7351 72.34 19.7218 6.498 5.3974 7.932 12.8302 9.594 21.1093 1.449 7.2041-5.476 21.0177-2.57 28.5117 12.508 32.232 14.582 34.321 17.953 38.536 1.922 2.409 8.725 7.738 13.103 15.796 8.779 16.154 6.735 40.816 6.735 40.816l-87.8 15.72s-27.578 3.948-38.157-4.033l-.8-8.874" fill="#e4b652"/><path d="m237.164 200.546s4.342-4.128 7.427-11.493c3.086-7.364 8.744-2.856 9.518.83.758 3.618 4.257 12.681-16.202 22.498l-3.032-6.451z" fill="#e4b652"/><path d="m120.013 47.0229s-23.6849 3.8036-32.4157 4.2237-14.0136-1.1991-16.1389 12.5106c-2.1254 13.7096 3.4479 24.685 6.2461 25.8307 2.9051 1.1915 7.0564 1.7414 10.5732-7.1107s7.3317-19.881 15.5813-25.1357c6.972-4.4375 13.386-6.9961 15.213-7.6835.429-.1604.826-.3743 1.193-.634.994-.7026 2.446-2.0011-.252-2.0011z" fill="#544b43"/><path d="m172.898 57.2012s-1.723-4.8405 7.041-.1829c8.765 4.6575 15.928 8.1411 24.225 10.3289 8.297 2.1877 12.871 3.4379 13.653 10.8701.789 7.4323-6.29 18.7141-12.672 25.1937-3.509 3.567-5.792 2.477-7.133.777-1.042-1.318-1.517-3.003-1.486-4.6801.053-2.7671-.314-9.0331-3.915-15.7107-2.697-4.9929-12.028-21.6107-19.713-26.596z" fill="#544b43"/><path d="m107.083 92.9545s14.176-9.4658 30.315-6.869 22.356 17.3855 22.356 17.3855" stroke="#544b43" stroke-linecap="round" stroke-linejoin="round" stroke-miterlimit="10" stroke-width="1.6"/><path d="m135.062 92.0628s-9.962-3.0976-10.558 5.3756c-.068 1.0075.382 2.03 1.275 2.5187 1.084.5869 3.023.8269 6.459-.5789 0 0 1.274-.7519 2.336.5112 1.068 1.2636 2.038 3.2406 5.305 2.9176 1.344-.136 2.245-.88 2.84-1.715 1.214-1.6988 1.176-4.037-.191-5.6159-1.145-1.3307-3.328-2.7367-7.466-3.4133z" fill="#544b43"/><path d="m86.3075 130.162s49.0235 17.176 113.8925-14.1l5.508 11.63s-64.35 31.782-119.2403 12.228z" fill="#16d2aa"/><path d="m134.789 169.589c5.846 0 10.585-5.051 10.585-11.282 0-6.23-4.739-11.281-10.585-11.281-5.845 0-10.584 5.051-10.584 11.281 0 6.231 4.739 11.282 10.584 11.282z" fill="#fff"/><path d="m134.788 146.776c-6.524 0-11.82 5.286-11.82 11.815 0 6.522 5.288 11.816 11.82 11.816 6.524 0 11.82-5.286 11.82-11.816 0-6.529-5.296-11.815-11.82-11.815zm0 21.991c-5.624 0-10.187-4.562-10.187-10.183 0-5.622 4.555-10.183 10.187-10.183 5.624 0 10.187 4.554 10.187 10.183s-4.563 10.183-10.187 10.183z" fill="#16d2aa"/><path d="m134.79 168.774c5.626 0 10.187-4.559 10.187-10.183s-4.561-10.183-10.187-10.183-10.187 4.559-10.187 10.183 4.561 10.183 10.187 10.183z" fill="#fff"/><path d="m129.684 161.045c.328.404.763.61 1.312.61.55 0 .985-.206 1.305-.61.321-.405.481-.961.481-1.656v-3.661l1.954-1.175v4.897c0 1.267-.351 2.243-1.053 2.922-.703.679-1.595 1.022-2.694 1.022-1.091 0-1.992-.343-2.701-1.03-.703-.686-1.061-1.655-1.061-2.914v-3.722l1.953-1.175v4.829c.016.709.176 1.258.504 1.663z" fill="#16d2aa"/><path d="m141.418 155.339c.61.519.923 1.32.923 2.403s-.313 1.869-.946 2.372-1.595.748-2.885.748h-1.167v1.266l-1.954 1.174v-8.749h3.091c1.343.008 2.32.267 2.938.786zm-1.435 3.44c.237-.259.351-.648.351-1.152 0-.503-.152-.862-.458-1.075-.305-.214-.778-.32-1.419-.32h-1.114v2.944h1.312c.649 0 1.092-.13 1.328-.397z" fill="#16d2aa"/><path d="m134.699 145.177s1.2 2.081.053 3.206c-1.154 1.133.6.375.6.375s1.07-2.066 0-3.581c0 0-.228-.827-.653 0z" fill="#b5dfd5"/><path d="m133.312 146.134.42-.066v.795l-.42.044z" fill="#b5dfd5"/><path d="m133.522 99.2727-1.262 6.2773s.874 3.301 6.204 4.537c.372.083.752.113 1.133.09 1.231-.068 3.93-.407 5.253-1.967" stroke="#544b43" stroke-linecap="round" stroke-linejoin="round" stroke-miterlimit="10" stroke-width="1.6"/><path d="m132.263 105.361s-2.528 4.239-6.585 3.19c-4.056-1.049-4.117-3.19-4.117-3.19" stroke="#544b43" stroke-linecap="round" stroke-linejoin="round" stroke-miterlimit="10" stroke-width="1.6"/><path d="m114.426 85.2152c1.854 0 3.358-1.5032 3.358-3.3575s-1.504-3.3575-3.358-3.3575-3.357 1.5032-3.357 3.3575 1.503 3.3575 3.357 3.3575z" fill="#1d1c1a"/><path d="m159.123 93.6083c1.854 0 3.357-1.5032 3.357-3.3575s-1.503-3.3575-3.357-3.3575c-1.855 0-3.358 1.5032-3.358 3.3575s1.503 3.3575 3.358 3.3575z" fill="#1d1c1a"/><path d="m94.7822 143.494-24.1954-14.693c-3.6778-2.828-9.225-2.046-11.7603 1.91-2.8303 4.42 1.8498 23.175 33.4578 35.989" fill="#e4b652"/><path d="m94.7816 143.49-5.938-3.839c-1.9805-1.282-3.9868-2.527-5.9822-3.785l-5.9971-3.762-6.031-3.704.0404.031c-1.7776-1.383-4.1372-2.03-6.4224-1.746-2.2837.25-4.469 1.521-5.7969 3.405-.7023.943-1.0326 2.135-1.1086 3.244-.0697 1.123.0597 2.23.2885 3.292.4744 2.14 1.3733 4.119 2.4198 5.989 2.1632 3.724 5.0085 6.968 8.1004 9.905 3.1061 2.931 6.5226 5.526 10.0783 7.882-3.4148-2.554-6.7083-5.257-9.6961-8.267-2.9956-2.99-5.7068-6.278-7.7299-9.94-1.01-1.828-1.852-3.758-2.2793-5.778-.4186-1.981-.4823-4.201.7145-5.79 1.1785-1.648 3.0973-2.712 5.117-2.976 2.0237-.273 4.123.275 5.7264 1.503l.0237.015.0238.014 6.0718 3.643 6.1057 3.587c2.0403 1.187 4.0655 2.398 6.1207 3.562z" fill="#c58f2c"/><path d="m238.233 212.799s-7.524 25.512-33.623 29.496c-26.107 3.984-32.878 0-32.878 0s-4.782-2.788 3.785-7.976c8.568-5.188 13.953-7.572 13.953-7.572s-36.663 2.194-49.023 1.79" fill="#e4b652"/><path d="m160.381 228.066s-22.22 3.191-48.159 8.202c-13.3427 2.574-19.7741 2.323-22.7307 1.767-1.9965-.381-3.6576-1.919-3.9701-3.922-.2895-1.889.4877-4.425 4.7702-7.014 8.5726-5.178 9.007-3.975 9.007-3.975-10.5234-11.355 3.1396-24.385 3.1396-24.385s14.905 22.671 36.424 26.007" fill="#e4b652"/><path d="m144.512 198.711s1.259 30.557-4.617 31.983c-5.876 1.427-3.159 16.392 15.895 7.384s18.391-44.5 18.391-44.5" fill="#e4b652"/><path d="m144.512 198.712c.267 4.63.32 9.283.213 13.928-.076 2.319-.198 4.645-.434 6.964-.237 2.319-.55 4.638-1.168 6.911-.32 1.136-.71 2.273-1.419 3.31-.367.496-.847 1.007-1.534 1.228l-.412.138c-.122.038-.244.076-.351.145-.237.099-.435.259-.634.411-.755.679-1.175 1.724-1.182 2.785-.039 1.067.32 2.128.908 3.02.61.885 1.465 1.587 2.449 2.067.985.481 2.076.725 3.19.809 2.228.175 4.502-.252 6.677-.916.542-.183 1.084-.343 1.625-.541.534-.214 1.069-.404 1.595-.626l1.572-.694 1.503-.793c1.962-1.144 3.732-2.609 5.273-4.287 1.542-1.678 2.87-3.562 4.014-5.545 1.13-1.999 2.083-4.096 2.915-6.24 1.656-4.302 2.763-8.81 3.533-13.371.786-4.561 1.244-9.184 1.351-13.821.114 4.645-.237 9.29-.87 13.897-.671 4.6-1.702 9.169-3.296 13.562-1.572 4.394-3.801 8.627-6.975 12.128-1.587 1.747-3.419 3.288-5.464 4.493l-1.572.839-1.602.725c-.542.229-1.092.435-1.641.656-.549.206-1.114.381-1.671.572-2.259.671-4.64 1.106-7.043.908-1.198-.1-2.404-.374-3.511-.923-1.106-.542-2.09-1.358-2.793-2.395-.679-1.045-1.083-2.281-1.037-3.547.015-1.251.511-2.548 1.503-3.417.259-.199.526-.397.824-.527.145-.084.298-.129.45-.183l.42-.137c.435-.122.809-.496 1.129-.915.626-.87 1.031-1.953 1.359-3.036.648-2.189.999-4.478 1.282-6.774.274-2.296.442-4.607.572-6.918.252-4.607.298-9.245.252-13.89z" fill="#c58f2c"/><path d="m102.045 198.739c6.201 12.762 27.315 21.42 40.919 26.86z" fill="#e4b652"/><path d="m102.045 198.739c6.201 12.762 27.315 21.42 40.919 26.86" stroke="#c58f2c" stroke-miterlimit="10" stroke-width="1.302"/><path d="m189.457 226.73c-3.32-1.746-6.181-4.515-7.837-7.978-.817-1.732-1.244-3.654-1.29-5.568-.046-1.923.29-3.837.878-5.66.61-1.823 1.511-3.501 2.48-5.141 1.038-1.587 2.129-3.143 3.403-4.546 2.488-2.853 5.288-5.385 8.257-7.689l-2.053 1.922c-.694.626-1.328 1.327-1.999 1.983-.679.649-1.297 1.35-1.931 2.037-.648.671-1.228 1.403-1.824 2.128-1.182 1.442-2.266 2.96-3.258 4.531-.923 1.609-1.786 3.257-2.35 5.011-.58 1.747-.931 3.57-.901 5.401.016 1.83.428 3.646 1.13 5.347.725 1.693 1.778 3.242 3.029 4.622 1.229 1.381 2.671 2.601 4.266 3.6z" fill="#c48f2c"/><path d="m93.9664 231.477c1.5646 0 2.8329-.658 2.8329-1.469s-1.2683-1.469-2.8329-1.469c-1.5645 0-2.8329.658-2.8329 1.469s1.2684 1.469 2.8329 1.469z" fill="#c58f2c"/><path d="m91.0284 234.833c1.2169 0 2.2034-.517 2.2034-1.154s-.9865-1.154-2.2034-1.154-2.2033.517-2.2033 1.154.9864 1.154 2.2033 1.154z" fill="#c58f2c"/><path d="m93.7561 237.352c1.3328 0 2.4132-.376 2.4132-.839 0-.464-1.0804-.84-2.4132-.84s-2.4132.376-2.4132.84c0 .463 1.0804.839 2.4132.839z" fill="#c58f2c"/><path d="m99.7369 236.3c2.7811 0 5.0361-1.175 5.0361-2.624 0-1.448-2.255-2.623-5.0361-2.623-2.7814 0-5.0362 1.175-5.0362 2.623 0 1.449 2.2548 2.624 5.0362 2.624z" fill="#c58f2c"/><path d="m111.804 221.237s-12.9797 1.06-13.6436 1.914z" fill="#e4b652"/><path d="m111.804 221.237c-1.137.213-2.281.373-3.418.526-1.137.16-2.282.29-3.426.427l-3.427.374c-.572.053-1.144.122-1.7091.206-.5647.084-1.1599.114-1.6635.381.206-.213.5036-.297.7707-.404.2747-.092.5571-.176.8394-.252.5645-.137 1.1295-.252 1.7015-.366 1.137-.221 2.282-.366 3.426-.503 1.145-.122 2.297-.237 3.45-.298 1.152-.061 2.304-.107 3.456-.091z" fill="#c58f2c"/><path d="m59.7207 133.689c.1633-1.809 1.7617-3.143 3.5703-2.979 1.8085.163 3.1422 1.762 2.9789 3.57l-1.8482 20.466-6.5492-.591z" fill="#565961"/><path d="m56.0641 154.495c.7544-2.167 2.8867-3.542 5.1717-3.336l.4104.037c2.285.207 4.1364 1.942 4.4904 4.208l.4436 2.84-11.4612-1.035z" fill="#565961"/><path d="m50.5113 160.177c.6107-2.373 2.8514-3.954 5.2919-3.734l10.2467.926c2.4405.22 4.3617 2.177 4.5375 4.621l1.3676 19.021-26.1968-2.366z" fill="#fae265"/><g stroke-linecap="round" stroke-linejoin="round"><path d="m50.1939 152.216c-2.8356.431-8.4096 3.239-8.0206 11.018" stroke="#939393"/><path d="m72.2091 154.211c2.8858.822 8.2618 4.61 6.6796 13.187" stroke="#939393"/><path d="m44.5062 151.025c-2.8357.431-8.4097 3.239-8.0206 11.018" stroke="#939393"/><path d="m77.4568 153.426c2.8858.822 8.2618 4.61 6.6796 13.187" stroke="#939393"/></g><path d="m43.1129 178.54 4.4396-5.683 23.9239 2.082 3.244 6.661z" fill="#fae265"/><path d="m67.3231 160.079c.3363.112 1.0088.739 1.0088 2.353v8.407c0 .224.0672.874.3362 1.681" stroke="#fef8c7" stroke-linecap="round" stroke-linejoin="round" stroke-width="2"/></svg>