<svg fill="none" height="621" viewBox="0 0 535 621" width="535" xmlns="http://www.w3.org/2000/svg" xmlns:xlink="http://www.w3.org/1999/xlink"><filter id="a" color-interpolation-filters="sRGB" filterUnits="userSpaceOnUse" height="112.339" width="112.339" x="82.4521" y="105.509"><feFlood flood-opacity="0" result="BackgroundImageFix"/><feBlend in="SourceGraphic" in2="BackgroundImageFix" mode="normal" result="shape"/><feGaussianBlur result="effect1_foregroundBlur_608_1702" stdDeviation="2"/></filter><ellipse cx="287.787" cy="567.351" fill="#e1e1e1" rx="246.371" ry="53.1046"/><path d="m123.482 466.338-14.336-43.007s-18.2185-26.37-24.9-113.333l-2.251-21.001s-53.9464-195.9729 89.904-212.2365c94.544-10.678 156.152 25.2045 187.292 51.0605 16.823 13.974 20.535 33.218 24.84 54.653 3.752 18.652-14.178 54.416-6.654 73.818 32.383 83.45 37.754 88.858 46.482 99.773 4.976 6.237 22.59 20.034 33.924 40.896 22.728 41.824 17.436 105.675 17.436 105.675l-227.317 40.698s-71.402 10.224-98.79-10.441l-2.073-22.974" fill="#e4b652"/><path d="m472.455 471.213s11.24-10.687 19.228-29.754c7.989-19.067 22.639-7.394 24.641 2.149 1.963 9.366 11.022 32.831-41.947 58.247l-7.85-16.701z" fill="#e4b652"/><path d="m169.141 73.7366s-61.321 9.8476-83.9254 10.9352-36.2818-3.1046-41.7845 32.3902c-5.5026 35.495 8.927 63.911 16.1715 66.877 7.5216 3.085 18.2696 4.509 27.3747-18.41 9.1051-22.918 18.9817-51.472 40.3397-65.077 18.052-11.4891 34.659-18.1136 39.389-19.8933 1.109-.4152 2.138-.9689 3.088-1.6412 2.573-1.8193 6.334-5.1809-.653-5.1809z" fill="#544b43"/><path d="m306.067 100.087s-4.463-12.5321 18.228-.4734c22.692 12.0584 41.239 21.0774 62.72 26.7424 21.482 5.664 33.324 8.901 35.347 28.143 2.043 19.243-16.285 48.452-32.808 65.227-9.084 9.237-14.995 6.414-18.466 2.013-2.698-3.414-3.928-7.776-3.849-12.118.139-7.164-.813-23.387-10.136-40.675-6.982-12.927-31.141-55.952-51.036-68.859z" fill="#544b43"/><path d="m201.227 173.605c41.784 6.723 70.805 46.279 70.805 46.279" stroke="#544b43" stroke-linecap="round" stroke-linejoin="round" stroke-miterlimit="10" stroke-width="1.6"/><path d="m208.101 190.346s-25.794-8.02-27.335 13.918c-.178 2.608.988 5.256 3.3 6.521 2.807 1.518 7.827 2.141 16.722-1.499 0 0 3.3-1.947 6.048 1.324 2.767 3.27 5.277 8.389 13.736 7.552 3.479-.35 5.811-2.277 7.353-4.438 3.142-4.399 3.043-10.453-.494-14.541-2.965-3.445-8.618-7.085-19.33-8.837z" fill="#544b43"/><path d="m81.877 288.988s126.924 44.47 294.873-36.506l14.261 30.111s-166.606 82.286-308.7193 31.659z" fill="#16d2aa"/><path d="m207.404 391.061c15.134 0 27.402-13.077 27.402-29.208s-12.268-29.208-27.402-29.208-27.403 13.077-27.403 29.208 12.269 29.208 27.403 29.208z" fill="#fff"/><path d="m207.399 331.999c-16.892 0-30.603 13.686-30.603 30.59 0 16.885 13.691 30.591 30.603 30.591 16.892 0 30.603-13.686 30.603-30.591 0-16.904-13.711-30.59-30.603-30.59zm0 56.935c-14.561 0-26.375-11.81-26.375-26.364 0-14.555 11.795-26.365 26.375-26.365 14.561 0 26.375 11.79 26.375 26.365 0 14.574-11.814 26.364-26.375 26.364z" fill="#16d2aa"/><path d="m207.407 388.952c14.566 0 26.375-11.804 26.375-26.364 0-14.561-11.809-26.365-26.375-26.365-14.567 0-26.376 11.804-26.376 26.365 0 14.56 11.809 26.364 26.376 26.364z" fill="#fff"/><path d="m194.185 368.942c.849 1.047 1.976 1.58 3.398 1.58 1.423 0 2.549-.533 3.378-1.58.83-1.047 1.245-2.488 1.245-4.285v-9.48l5.058-3.041v12.679c0 3.278-.909 5.806-2.727 7.563-1.817 1.758-4.129 2.646-6.974 2.646-2.825 0-5.156-.888-6.994-2.666-1.817-1.777-2.746-4.285-2.746-7.543v-9.638l5.058-3.041v12.501c.039 1.836.454 3.258 1.304 4.305z" fill="#16d2aa"/><path d="m224.561 354.17c1.581 1.343 2.391 3.417 2.391 6.221s-.81 4.838-2.45 6.142c-1.64 1.303-4.129 1.935-7.468 1.935h-3.023v3.278l-5.058 3.041v-22.651h8.002c3.477.02 6.006.691 7.606 2.034zm-3.714 8.907c.612-.672.909-1.679.909-2.982 0-1.304-.396-2.232-1.186-2.785s-2.015-.829-3.675-.829h-2.884v7.623h3.398c1.679 0 2.825-.336 3.438-1.027z" fill="#16d2aa"/><path d="m207.164 327.861s3.106 5.389.137 8.302c-2.988 2.932 1.553.97 1.553.97s2.772-5.349 0-9.272c0 0-.589-2.14-1.69 0z" fill="#b5dfd5"/><path d="m203.575 330.339 1.087-.17v2.06l-1.087.113z" fill="#b5dfd5"/><path d="m204.118 209.013-3.267 16.253s2.263 8.546 16.062 11.745c.965.215 1.949.293 2.933.235" stroke="#544b43" stroke-linecap="round" stroke-linejoin="round" stroke-miterlimit="10" stroke-width="1.6"/><path d="m200.86 224.775s-6.545 10.976-17.048 8.26" stroke="#544b43" stroke-linecap="round" stroke-linejoin="round" stroke-miterlimit="10" stroke-width="1.6"/><path d="m152.038 184.038c11.525 0 20.867-9.343 20.867-20.868s-9.342-20.868-20.867-20.868-20.868 9.343-20.868 20.868 9.343 20.868 20.868 20.868z" fill="#1d1c1a"/><path d="m270.4 194.349c4.801 0 8.692-3.892 8.692-8.693s-3.891-8.693-8.692-8.693-8.693 3.892-8.693 8.693 3.892 8.693 8.693 8.693z" fill="#1d1c1a"/><path d="m103.815 323.503-62.6434-38.039c-9.5222-7.322-23.8842-5.299-30.4481 4.945-7.32794 11.442 4.1866 58.38 89.1483 98.625" fill="#e4b652"/><path d="m103.816 323.494-15.3739-9.94c-5.1274-3.319-10.322-6.542-15.4881-9.801l-15.5269-9.739-15.6145-9.591.1046.083c-4.6024-3.582-10.7114-5.256-16.6278-4.521-5.9126.648-11.5705 3.937-15.0086 8.816-1.8183 2.441-2.67333 5.527-2.8702 8.398-.18041 2.908.15461 5.774.74708 8.522 1.22801 5.542 3.55552 10.666 6.26482 15.507 5.6006 9.642 12.9674 18.039 20.9724 25.644 8.0418 7.589 16.8873 14.308 26.0933 20.407-8.8412-6.613-17.3683-13.61-25.1038-21.404-7.7558-7.741-14.7751-16.254-20.0132-25.736-2.6149-4.732-4.7947-9.729-5.9012-14.957-1.08372-5.13-1.24849-10.877 1.85-14.992 3.0511-4.266 8.019-7.022 13.2482-7.704 5.2393-.707 10.6746.711 14.8258 3.891l.0615.037.0615.037 15.7204 9.434 15.8079 9.284c5.2823 3.075 10.5258 6.211 15.8467 9.224z" fill="#c58f2c"/><path d="m475.222 502.938s-19.481 66.051-87.054 76.366c-67.592 10.315-85.121 0-85.121 0s-12.383-7.218 9.8-20.649c22.182-13.432 36.122-19.605 36.122-19.605s-94.92 5.68-126.922 4.635" fill="#e4b652"/><path d="m273.655 542.467s-57.529 8.261-124.686 21.235c-34.545 6.664-51.1966 6.014-58.8514 4.574-5.169-.986-9.4698-4.968-10.2787-10.154-.7497-4.89 1.2626-11.455 12.3502-18.159 22.1949-13.408 23.3199-10.292 23.3199-10.292-27.2459-29.398 8.128-63.134 8.128-63.134s38.589 58.697 94.304 67.333" fill="#e4b652"/><path d="m232.564 466.466s3.26 79.112-11.953 82.805c-15.212 3.693-8.179 42.44 41.154 19.117 49.332-23.323 47.614-115.213 47.614-115.213" fill="#e4b652"/><path d="m232.566 466.467c.691 11.987.829 24.034.553 36.061-.198 6.003-.514 12.026-1.126 18.03-.613 6.004-1.423 12.007-3.023 17.892-.83 2.943-1.838 5.885-3.675 8.571-.948 1.284-2.193 2.607-3.971 3.179l-1.067.356c-.316.099-.632.197-.909.375-.612.257-1.126.672-1.64 1.067-1.955 1.757-3.042 4.463-3.062 7.208-.099 2.765.83 5.51 2.351 7.82 1.581 2.291 3.793 4.108 6.342 5.352s5.374 1.876 8.258 2.093c5.769.455 11.657-.651 17.288-2.369 1.402-.474 2.805-.889 4.208-1.403 1.383-.553 2.766-1.046 4.129-1.619l4.07-1.797 3.892-2.054c5.077-2.962 9.661-6.754 13.652-11.099 3.991-4.344 7.428-9.222 10.392-14.357 2.924-5.174 5.394-10.605 7.547-16.154 4.287-11.138 7.152-22.81 9.147-34.619 2.035-11.81 3.221-23.777 3.497-35.784.297 12.026-.612 24.053-2.252 35.981-1.738 11.909-4.406 23.738-8.535 35.113-4.07 11.375-9.839 22.336-18.058 31.4-4.109 4.523-8.851 8.512-14.145 11.632l-4.07 2.172-4.149 1.877c-1.403.592-2.825 1.125-4.248 1.698-1.422.533-2.884.987-4.327 1.481-5.848 1.738-12.012 2.864-18.235 2.35-3.102-.257-6.224-.968-9.088-2.389-2.865-1.403-5.414-3.516-7.231-6.201-1.759-2.706-2.806-5.905-2.687-9.183.039-3.239 1.324-6.596 3.892-8.848.672-.513 1.363-1.027 2.134-1.362.375-.218.77-.336 1.165-.474l1.087-.356c1.126-.316 2.094-1.284 2.924-2.37 1.62-2.251 2.667-5.055 3.517-7.86 1.679-5.667 2.588-11.592 3.319-17.536.711-5.945 1.146-11.928 1.482-17.912.652-11.928.77-23.935.652-35.962z" fill="#c58f2c"/><path d="m122.617 466.537c16.057 33.042 70.721 55.457 105.942 69.542z" fill="#e4b652"/><path d="m122.617 466.537c16.057 33.042 70.721 55.457 105.942 69.542" stroke="#c58f2c" stroke-miterlimit="10" stroke-width="1.302"/><path d="m348.937 539.009c-8.594-4.522-16.003-11.691-20.29-20.657-2.114-4.483-3.221-9.459-3.339-14.416-.119-4.977.75-9.934 2.272-14.653 1.58-4.72 3.912-9.065 6.421-13.311 2.687-4.108 5.512-8.136 8.811-11.77 6.441-7.386 13.692-13.943 21.377-19.907l-5.315 4.977c-1.797 1.619-3.437 3.436-5.176 5.135-1.758 1.678-3.359 3.495-4.998 5.273-1.68 1.737-3.181 3.633-4.722 5.509-3.063 3.733-5.868 7.663-8.436 11.731-2.391 4.167-4.623 8.433-6.085 12.975-1.502 4.522-2.411 9.242-2.332 13.982.04 4.739 1.107 9.439 2.924 13.843 1.877 4.385 4.604 8.393 7.844 11.968 3.181 3.574 6.915 6.734 11.044 9.321z" fill="#c48f2c"/><path d="m101.707 551.296c4.05 0 7.334-1.703 7.334-3.803 0-2.101-3.284-3.803-7.334-3.803-4.0512 0-7.3349 1.702-7.3349 3.803 0 2.1 3.2837 3.803 7.3349 3.803z" fill="#c58f2c"/><path d="m94.1001 559.986c3.1505 0 5.7046-1.338 5.7046-2.988s-2.5541-2.988-5.7046-2.988c-3.1506 0-5.7046 1.338-5.7046 2.988s2.554 2.988 5.7046 2.988z" fill="#c58f2c"/><path d="m101.161 566.508c3.451 0 6.248-.973 6.248-2.173 0-1.201-2.797-2.174-6.248-2.174-3.4506 0-6.2479.973-6.2479 2.174 0 1.2 2.7973 2.173 6.2479 2.173z" fill="#c58f2c"/><path d="m116.645 563.784c7.202 0 13.04-3.04 13.04-6.791 0-3.75-5.838-6.791-13.04-6.791-7.201 0-13.039 3.041-13.039 6.791 0 3.751 5.838 6.791 13.039 6.791z" fill="#c58f2c"/><path d="m147.893 524.787s-33.607 2.745-35.326 4.957z" fill="#e4b652"/><g fill="#c58f2c"><path d="m147.893 524.786c-2.944.553-5.908.967-8.852 1.362-2.943.415-5.907.751-8.87 1.106l-8.871.968c-1.482.138-2.964.316-4.426.533s-3.003.296-4.307.988c.534-.553 1.304-.771 1.996-1.047.711-.237 1.442-.454 2.173-.652 1.462-.355 2.924-.651 4.406-.948 2.944-.572 5.907-.948 8.871-1.303 2.963-.316 5.946-.612 8.93-.77 2.983-.158 5.966-.277 8.95-.237z"/><path d="m34.5476 301.449c3.3276 3.332 7.4256 4.634 9.1531 2.909 1.7275-1.726.4304-5.825-2.8972-9.157s-7.4256-4.634-9.1531-2.908c-1.7275 1.725-.4304 5.825 2.8972 9.156z"/><path d="m20.3625 303.127c2.5881 2.592 5.9646 3.416 7.5415 1.841s.7571-4.953-1.831-7.544c-2.5882-2.591-5.9646-3.415-7.5415-1.84s-.7571 4.952 1.831 7.543z"/><path d="m20.0382 315.059c2.8346 2.838 6.281 3.992 7.6978 2.577 1.4167-1.415.2673-4.863-2.5673-7.701s-6.2811-3.992-7.6978-2.577c-1.4168 1.415-.2673 4.863 2.5673 7.701z"/><path d="m34.8504 322.294c4.9749 4.981 11.5087 6.521 14.5935 3.44 3.0849-3.081 1.5527-9.616-3.4223-14.597-4.9749-4.981-11.5087-6.522-14.5935-3.44-3.0849 3.081-1.5527 9.616 3.4223 14.597z"/></g><rect fill="#343440" height="74.5278" rx="3" transform="matrix(.81662342 .57717085 -.57717085 .81662342 153.440852 10.050717)" width="29.8111" x="60.9033" y="246.5"/><path d="m101.206 197.662h11.9244v66.4767h-11.9244z" fill="#565961" transform="matrix(.84630103 .53270495 -.53270495 .84630103 120.850783 -23.532492)"/><path clip-rule="evenodd" d="m133.458 227.143c36.129 2.589 67.516-24.601 70.104-60.729 2.589-36.129-24.601-67.5156-60.729-70.1042-36.129-2.5887-67.5155 24.6012-70.1042 60.7292-2.5886 36.129 24.6009 67.516 60.7292 70.104zm1.066-14.867c27.917 2.001 52.171-19.009 54.171-46.927s-19.01-52.171-46.927-54.171c-27.918-2.001-52.1714 19.009-54.1717 46.927s19.0097 52.171 46.9277 54.171z" fill="#565961" fill-rule="evenodd"/><g filter="url(#a)"><circle cx="138.622" cy="161.678" fill="#fff" fill-opacity=".2" r="52.1695"/></g><path d="m101.353 134.849c-6.9564 5.962-16.6947 25.637 0 56.641" opacity=".7" stroke="#fff" stroke-linecap="round" stroke-width="2"/><path d="m180.358 182.546c-3.478 5.466-12.223 16.695-19.378 17.887" opacity=".7" stroke="#fff" stroke-linecap="round"/><path d="m224.934.0846277c-25.965-2.0261777-53.163 32.7922723-64.094 53.6599723 34.581 40.5404 136.634 35.7745 183.338 28.324-19.377-81.980569-53.903-76.2441-60.973-73.88732-8.943 2.98112-16.536 15.75562-25.479 14.26512-8.943-1.4906-5.823-20.25715-32.792-22.3617723z" fill="#754922"/><path d="m102.703 78.2076c11.924 0 44.716-16.893 59.622-25.3394 36.961 19.0791 136.636 27.8237 181.853 29.8111l22.353 31.3017c-168.433-2.981-278.7338-35.7734-263.828-35.7734z" fill="#6b3f19"/><path d="m160.387 57.0369c15.282 7.7447 72.688 22.8807 180.059 21.467" stroke="#4c2d2d" stroke-linecap="round" stroke-width="3"/></svg>