<svg fill="none" height="160" viewBox="0 0 160 160" width="160" xmlns="http://www.w3.org/2000/svg"><ellipse cx="88.8826" cy="144.142" fill="#dbdfdf" rx="71.0554" ry="15.0947"/><path d="m41.4748 115.018-4.1316-12.37s-2.5564-6.0685-5.546-18.3717c-.7945-4.178-1.0749-8.4242-1.6303-14.2262l-.6488-6.0404s-17.3327-54.27901 24.1259-58.95693c19.0872-2.15382 30.5856-2.52981 45.0735 4.13943 4.8485 4.0194 12.7875 11.427 14.0285 17.5923 3.84 19.0873-.265 22.2377 1.903 27.8183 3.043 7.8267 6.984 7.6196 8.675 11.5061-1.035 8.6237 3.026 15.0758 4.722 17.1916 1.434 1.7939 6.51 5.7622 9.777 11.7629 6.55 12.0296 5.025 30.3956 5.025 30.3956l-65.5144 11.706s-20.5785 2.94-28.4719-3.003l-.5976-6.609" fill="#e4b652"/><path d="m44.9515 41.5463s8.4011-9.4454 20.4604-10.5797c12.0594-1.1342 19.2769 8.3466 19.2769 8.3466" stroke="#544b43" stroke-linecap="round" stroke-linejoin="round" stroke-miterlimit="10"/><path d="m65.1157 35.6735s-7.6209-.3108-6.5226 5.6613c.132.7097.6349 1.3343 1.3561 1.5081.874.2064 2.2922.0162 4.4762-1.5884 0 0 .7692-.7547 1.7483-.0759.9846.6773 2.027 1.8671 4.2861 1.0424.9286-.3407 1.4338-1.0214 1.7064-1.7083.5559-1.3989.1092-3.0097-1.1432-3.8508-1.0509-.7101-2.8515-1.2813-5.9073-.9884z" fill="#544b43"/><path d="m27.543 56.2105s30.3556 20.697 85.893-7.3589l2.299 7.1289s-57.3716 30.0107-87.0422 5.0593z" fill="#16d2aa"/><path d="m64.9627 87.7649c4.3454 0 7.868-3.7547 7.868-8.3864 0-4.6316-3.5226-8.3863-7.868-8.3863s-7.868 3.7547-7.868 8.3863c0 4.6317 3.5226 8.3864 7.868 8.3864z" fill="#fff"/><path d="m64.9608 70.8047c-4.8501 0-8.787 3.9295-8.787 8.7833 0 4.8481 3.9312 8.7832 8.787 8.7832 4.8501 0 8.7869-3.9295 8.7869-8.7832 0-4.8538-3.9368-8.7833-8.7869-8.7833zm0 16.3474c-4.1808 0-7.573-3.3908-7.573-7.5698s3.3866-7.5698 7.573-7.5698c4.1807 0 7.573 3.3851 7.573 7.5698s-3.3923 7.5698-7.573 7.5698z" fill="#16d2aa"/><path d="m64.9617 87.1475c4.1824 0 7.573-3.3892 7.573-7.5699s-3.3906-7.5698-7.573-7.5698c-4.1825 0-7.573 3.3891-7.573 7.5698s3.3905 7.5699 7.573 7.5699z" fill="#fff"/><path d="m61.1664 81.4113c.244.3006.5673.4537.9757.4537.4085 0 .7318-.1531.9701-.4537.2382-.3005.3573-.7144.3573-1.2304v-2.7217l1.4522-.8733v3.6404c0 .9412-.2609 1.667-.7828 2.1717-.5219.5046-1.1856.7598-2.0024.7598-.8112 0-1.4806-.2552-2.0082-.7655-.5218-.5103-.7885-1.2304-.7885-2.166v-2.7671l1.4522-.8733v3.5893c.0114.5274.1305.9356.3744 1.2361z" fill="#16d2aa"/><path d="m69.8896 77.17c.4538.3856.6864.9809.6864 1.7861s-.2326 1.3892-.7034 1.7635c-.4708.3742-1.1856.5556-2.1443.5556h-.8679v.9413l-1.4522.8732v-6.5038h2.2974c.9984.0057 1.7245.1985 2.184.5841zm-1.0665 2.5573c.1759-.1928.261-.482.261-.8562 0-.3743-.1135-.6408-.3404-.7996-.2269-.1587-.5786-.2381-1.0551-.2381h-.8282v2.1887h.9757c.4822 0 .8112-.0964.987-.2948z" fill="#16d2aa"/><path d="m64.9996 69.8203s.6014 1.4608.0266 2.2502c-.5785.7949.3007.2632.3007.2632s.5367-1.45 0-2.5134c0 0-.1142-.58-.3273 0z" fill="#b5dfd5"/><path d="m143.002 125.375s-2.247 7.701-8.828 14.116c-1.822 1.775-3.975 3.452-6.505 4.84-2.773 1.521-5.998 2.696-9.732 3.272-19.4622 3.002-24.5093 0-24.5093 0s-3.5653-2.101 2.8216-6.01c6.3867-3.91 10.4007-5.707 10.4007-5.707s-27.3303 1.654-36.5445 1.349" fill="#e4b652"/><path d="m84.8328 136.842s-16.5985 2.37-35.9749 6.091c-9.9671 1.911-14.7713 1.725-16.9799 1.312-1.4913-.283-2.7323-1.425-2.9656-2.913-.2163-1.402.3643-3.286 3.5633-5.208 6.4038-3.846 6.7282-2.953 6.7282-2.953-7.861-8.432 2.3452-18.109 2.3452-18.109s11.134 16.837 27.2089 19.314" fill="#e4b652"/><path d="m41.3896 115.062c4.5756 9.447 20.1526 15.855 30.1894 19.881z" fill="#e4b652"/><path d="m41.3896 115.062c4.5756 9.447 20.1526 15.855 30.1894 19.881" stroke="#c58f2c" stroke-miterlimit="10" stroke-width="1.302"/><path d="m106.46 136.007c-2.467-1.298-4.594-3.357-5.825-5.931-.607-1.287-.925-2.716-.9591-4.139-.034-1.429.2156-2.852.6521-4.208.454-1.355 1.123-2.602 1.844-3.821.771-1.18 1.583-2.337 2.53-3.38 1.849-2.121 3.931-4.003 6.138-5.716l-1.526 1.429c-.516.465-.987.987-1.486 1.475-.505.482-.965 1.003-1.436 1.514-.482.499-.913 1.043-1.355 1.582-.88 1.071-1.685 2.2-2.423 3.368-.686 1.196-1.327 2.421-1.747 3.725-.431 1.299-.692 2.654-.669 4.015.011 1.361.317 2.71.839 3.975.539 1.258 1.322 2.409 2.252 3.436.914 1.026 1.986 1.933 3.171 2.676z" fill="#c48f2c"/><path d="m31.1891 62.4792-18.1718-8.5922c-2.7081-1.7425-7.25179-.6674-9.65583 2.4652-1.8164 2.3678-3.013701 8.8339 8.02473 12.0534 6.2685 9.4129 13.8361 16.6532 21.9062 18.745" fill="#e4b652"/><g fill="#c58f2c"><path d="m30.4097 62.0888-4.3217-2.2343c-1.4412-.7463-2.9061-1.4637-4.3612-2.1917l-4.375-2.1734-4.4066-2.1291.0289.0193c-1.273-.8371-3.06823-1.0932-4.88748-.6867-1.81505.3817-3.64331 1.4883-4.85283 2.9603-.63491.74-.9998 1.626-1.15776 2.4298-.15419.8133-.15069 1.5976-.06508 2.3403.18272 1.4967.71313 2.8399 1.36902 4.0912 1.36833 2.4855 5.73368 2.2462 7.90083 4.0841 2.1789 1.8319 3.0634 4.635 5.6462 6.0135-2.4546-1.5339-3.2331-4.4246-5.312-6.3241-2.08695-1.8841-6.34297-1.6889-7.60683-4.1424-.63099-1.2244-1.12101-2.5372-1.27761-3.9509-.15305-1.3872-.00634-2.9771 1.07405-4.2254 1.07121-1.2888 2.67197-2.2237 4.28096-2.5916 1.61298-.3755 3.21263-.1675 4.36253.5736l.0174.0082.0174.0081 4.4441 2.0818 4.4758 2.0376c1.4966.673 2.9793 1.3644 4.4897 2.0192z"/><path d="m9.55758 55.3769c1.11832.2575 2.15922.0875 2.32492-.3797s-.6066-1.0547-1.7248-1.3122c-1.11833-.2575-2.15922-.0875-2.32493.3797-.1657.4672.60652 1.0547 1.72481 1.3122z"/><path d="m6.69607 57.0477c.86978.2002 1.6975.0169 1.84876-.4096s-.43122-.9346-1.301-1.1348c-.86979-.2003-1.6975-.0169-1.84876.4095-.15126.4265.43122.9346 1.301 1.1349z"/><path d="m8.05794 59.1519c.95262.2194 1.83503.0866 1.97096-.2966.1359-.3832-.52622-.8716-1.47884-1.0909-.95261-.2194-1.83503-.0866-1.97093.2966-.1359.3831.52619.8716 1.47881 1.0909z"/><path d="m12.1237 58.984c1.6719.385 3.2671.0207 3.563-.8136s-.8196-1.8227-2.4915-2.2077-3.26711-.0207-3.56302.8136c-.2959.8343.81952 1.8227 2.49152 2.2077z"/></g><path d="m65.5624 41.2308.3125 4.7327s1.209 2.2176 5.0599 2.1665c.2685-.006.5324-.0514.7864-.1346.8241-.2657 2.5944-.9849 3.2023-2.3388" stroke="#544b43" stroke-linecap="round" stroke-linejoin="round" stroke-miterlimit="10"/><path d="m65.8148 45.7322s-1.1517 3.1802-4.2969 3.2831c-3.1451.1029-3.5433-1.2497-3.5433-1.2497" stroke="#544b43" stroke-linecap="round" stroke-linejoin="round" stroke-miterlimit="10"/><path d="m136.678 110.54s3.368-3.12 5.761-8.686c2.393-5.5659 6.782-2.1584 7.382.627.588 2.734 3.302 9.584-12.567 17.003l-2.352-4.875z" fill="#e4b652"/><path d="m48.3045 35.2165c1.323-.1672 2.2535-1.4264 2.0783-2.8124-.1752-1.3861-1.3897-2.3741-2.7128-2.2069-1.323.1672-2.2536 1.4264-2.0784 2.8125.1752 1.386 1.3898 2.3741 2.7129 2.2068z" fill="#544b43"/><path d="m81.4713 30.7959c1.386-.1752 2.3676-1.4409 2.1924-2.8269-.1752-1.3861-1.4408-2.3677-2.8269-2.1925-1.386.1752-2.3676 1.4409-2.1924 2.8269.1752 1.3861 1.4408 2.3677 2.8269 2.1925z" fill="#544b43"/><path d="m41.5313 8.20089s-15.7869 7.53161-21.8301 9.79941c-6.0433 2.2678-10.14411 2.6564-8.4668 10.3148 1.6774 7.6584 8.141 12.0891 10.3755 12.0326 2.3188-.0582 5.3709-.7428 5.798-6.1906.427-5.4477.5532-12.1028 5.146-16.7795 3.8784-3.9521 7.8014-6.7902 8.9228-7.57831.2644-.18454.495-.38582.6936-.61298.5346-.59991 1.2583-1.61709-.639-.98542z" fill="#544b43"/><path d="m87.2035 3.71771c-.1026 4.81363-4.1103 1.27362-5.8937 2.97974l6.4961 2.52503 6.5313 3.08392 5.3106 3.0858 4.1022 2.9669 2.807 2.4733 1.574 1.3754 8.518-16.21246z" fill="#6a5542" stroke="#544b43"/><path d="m80.9482 6.76073s1.5824-5.918056 8.5282-4.90747c6.9457 1.01058 11.9766-1.750609 18.2536-1.60231 6.278.148299 9.743.245157 11.309 2.89719 1.567 2.65203-2.019 7.32326-5.748 10.19156-2.052 1.5772-3.845 1.3587-5.042.8439-.93-.3995-1.5-.9756-1.702-1.5911-.336-1.0139-1.441-3.27402-4.939-5.42824-2.6134-1.61069-14.4501.81185-20.6598-.40353z" fill="#544b43"/><path d="m111.711 81.288-10.211-15.504 12.328-14.2776 13.086-6.0126c2.708-1.7425 7.252-.6674 9.656 2.4652 1.817 2.3678 3.014 8.8339-8.025 12.0534-6.268 9.4129-8.764 19.1838-16.834 21.2756z" fill="#e4b652"/><path d="m113.368 54.4926 2.529-3.5646c1.442-.7464.891-.9311 2.346-1.6591l4.375-2.1734 4.406-2.1291-.029.0193c1.273-.8371 3.069-1.0932 4.888-.6867 1.815.3817 3.643 1.4884 4.853 2.9603.635.74.999 1.626 1.157 2.4299.155.8132.151 1.5975.065 2.3403-.182 1.4966-.713 2.8398-1.369 4.0912-1.368 2.4854-5.733 2.2462-7.9 4.084-2.179 1.8319-5.019 12.9148-13.298 19.3539 5.618-4.3694 10.884-17.765 12.963-19.6645 2.087-1.8841 6.343-1.6889 7.607-4.1424.631-1.2244 1.121-2.5372 1.278-3.9509.153-1.3872.006-2.9771-1.074-4.2253-1.071-1.2889-2.672-2.2238-4.281-2.5917-1.613-.3755-3.213-.1675-4.363.5736l-.017.0082-.018.0081-4.444 2.0819-4.475 2.0375c-1.497.6731.91-.2246-.6.4301z" fill="#c58f2c"/><path d="m130.412 46.9941c-1.118.2575-2.159.0875-2.325-.3797-.165-.4672.607-1.0547 1.725-1.3122s2.159-.0875 2.325.3797-.607 1.0547-1.725 1.3122z" fill="#c58f2c"/><path d="m133.274 48.657c-.87.2003-1.698.0169-1.849-.4095-.151-.4265.431-.9346 1.301-1.1349.87-.2002 1.697-.0169 1.849.4096.151.4265-.432.9346-1.301 1.1348z" fill="#c58f2c"/><path d="m131.912 50.7691c-.953.2194-1.835.0866-1.971-.2966s.526-.8716 1.479-1.091c.952-.2193 1.835-.0865 1.971.2967.135.3831-.527.8716-1.479 1.0909z" fill="#c58f2c"/><path d="m127.846 50.5855c-1.672.385-3.267.0208-3.563-.8136-.296-.8343.82-1.8227 2.492-2.2077 1.671-.3849 3.267-.0207 3.563.8136.295.8343-.82 1.8228-2.492 2.2077z" fill="#c58f2c"/><path d="m76.8096 18.719c1.6097-1.0732 5.4962-2.5756 8.1638 0" stroke="#544b43" stroke-linecap="round"/><path d="m42.4307 24.2794c1.3066-1.4268 4.7214-3.8146 7.9273-1.9511" stroke="#544b43" stroke-linecap="round"/></svg>