<svg fill="none" height="142" viewBox="0 0 167 142" width="167" xmlns="http://www.w3.org/2000/svg"><ellipse cx="102.47" cy="128.127" fill="#dbdfdf" rx="64.23" ry="13.6447"/><path d="m59.6163 101.793-3.7347-11.182s-4.5231-8.9496-6.487-29.4666l-.5865-5.4602s-14.0542-50.95322 23.422-55.181789c24.6309-2.776281 40.6809 6.553259 48.7939 13.275889 4.383 3.6333 5.35 8.6367 6.471 14.2098.978 4.8495-3.693 14.1483-1.733 19.1928 8.436 21.6971 9.836 23.1032 12.109 25.9411 1.297 1.6216 5.885 5.2087 8.838 10.633 5.921 10.8742 4.543 27.475 4.543 27.475l-59.2215 10.582s-18.6018 2.658-25.7369-2.715l-.5401-5.973" fill="#e4b652"/><path d="m71.8133 0s-15.8979 2.57688-21.7582 2.86148c-5.8603.28459-9.4063-.81239-10.8329 8.47582-1.4266 9.2881 2.3144 16.7238 4.1925 17.5 1.9501.8072 4.7366 1.1798 7.0971-4.8174 2.3606-5.9972 4.9213-13.4692 10.4583-17.0292 4.6801-3.00636 8.9855-4.73981 10.212-5.20551.2873-.10866.5542-.25355.8005-.42948.6671-.476051 1.6421-1.35571-.1693-1.35571z" fill="#544b43"/><path d="m107.553 6.79922s-1.145-3.23565 4.674-.1223c5.819 3.11336 10.574 5.44198 16.083 6.90438 5.508 1.4625 8.544 2.2981 9.063 7.2662.524 4.9682-4.176 12.5095-8.412 16.8407-2.33 2.3847-3.846 1.6561-4.736.5198-.691-.8816-1.007-2.0077-.986-3.1287.035-1.8497-.209-6.0382-2.599-10.5018-1.791-3.3376-7.986-14.4458-13.087-17.77828z" fill="#544b43"/><path d="m62.8666 30.8757s9.4944-6.3581 20.3036-4.6138c10.8093 1.7442 14.973 11.6778 14.973 11.6778" stroke="#544b43" stroke-linecap="round" stroke-linejoin="round" stroke-miterlimit="10" stroke-width="2"/><path d="m81.8438 30.3101s-6.5977-2.0014-6.992 3.4734c-.0455.6509.2527 1.3116.8443 1.6273.7179.3789 2.002.5344 4.2771-.374 0 0 .8443-.4858 1.547.3303.7078.8161 1.3499 2.0937 3.5138 1.8848.8898-.0874 1.4863-.5683 1.8807-1.1075.8038-1.0979.7786-2.6087-.1264-3.6288-.7584-.8599-2.2043-1.7683-4.9445-2.2055z" fill="#544b43"/><path d="m48.889 55.9092s33.067 11.3502 76.822-9.3174l3.265 7.9759s-42.9548 20.7114-79.979 7.7897z" fill="#16d2aa"/><path d="m81.6249 82.3608c3.928 0 7.1122-3.3941 7.1122-7.5808s-3.1842-7.5808-7.1122-7.5808-7.1122 3.3941-7.1122 7.5808 3.1842 7.5808 7.1122 7.5808z" fill="#fff"/><path d="m81.623 67.0312c-4.3842 0-7.9429 3.5521-7.9429 7.9396 0 4.3824 3.5535 7.9396 7.9429 7.9396 4.3842 0 7.9429-3.5521 7.9429-7.9396s-3.5587-7.9396-7.9429-7.9396zm0 14.7772c-3.7791 0-6.8455-3.0651-6.8455-6.8427s3.0612-6.8427 6.8455-6.8427c3.7792 0 6.8456 3.06 6.8456 6.8427s-3.0664 6.8427-6.8456 6.8427z" fill="#16d2aa"/><path d="m81.6241 81.8123c3.7807 0 6.8456-3.0635 6.8456-6.8427 0-3.7791-3.0649-6.8426-6.8456-6.8426s-6.8455 3.0635-6.8455 6.8426c0 3.7792 3.0648 6.8427 6.8455 6.8427z" fill="#fff"/><path d="m78.1932 76.6177c.2205.2717.5128.4101.882.4101s.6614-.1384.8768-.4101c.2154-.2716.3231-.6458.3231-1.1122v-2.4603l1.3127-.7893v3.2906c0 .8508-.2359 1.5069-.7077 1.9631-.4717.4562-1.0717.6868-1.8101.6868-.7332 0-1.3383-.2306-1.8152-.6919-.4717-.4613-.7127-1.1123-.7127-1.958v-2.5013l1.3127-.7893v3.2445c.0102.4766.1179.8457.3384 1.1173z" fill="#16d2aa"/><path d="m86.0781 72.7838c.4103.3485.6205.8867.6205 1.6146 0 .7278-.2102 1.2557-.6358 1.594s-1.0717.5023-1.9383.5023h-.7846v.8509l-1.3127.7893v-5.879h2.0768c.9024.0051 1.5588.1794 1.9741.5279zm-.964 2.3116c.159-.1742.2359-.4356.2359-.7739s-.1025-.5792-.3077-.7227c-.2051-.1436-.523-.2153-.9537-.2153h-.7487v1.9785h.882c.4359 0 .7333-.0872.8922-.2666z" fill="#16d2aa"/><path d="m81.6573 66.1276s.5436 1.3204.0241 2.034c-.523.7185.2718.2379.2718.2379s.4851-1.3107 0-2.2719c0 0-.1032-.5243-.2959 0z" fill="#b5dfd5"/><path d="m55.9308 63.6566-16.4263-7.7669c-2.448-1.5751-6.5552-.6033-8.7283 2.2284-2.4262 3.1627.4754 16.7278 23.0424 22.5774" fill="#e4b652"/><path d="m55.2274 63.3077-3.9066-2.0196c-1.3028-.6747-2.627-1.3231-3.9423-1.9812l-3.9547-1.9646-3.9834-1.9246.0262.0175c-1.1508-.7568-2.7735-.9882-4.418-.6208-1.6407.345-3.2934 1.3454-4.3867 2.676-.5739.6689-.9038 1.4697-1.0465 2.1964-.1394.7351-.1363 1.4441-.0589 2.1155.1652 1.3528.6447 2.567 1.2375 3.6982 1.2369 2.2467 2.9965 4.1266 4.9554 5.7879 1.9696 1.6559 4.1863 3.0691 6.5211 4.3152-2.2188-1.3866-4.3397-2.879-6.219-4.596-1.8864-1.7031-3.5471-3.6228-4.6896-5.8406-.5704-1.1068-1.0133-2.2935-1.1549-3.5714-.1383-1.254-.0057-2.6911.9709-3.8195.9683-1.165 2.4153-2.0101 3.8697-2.3427 1.4581-.3395 2.9041-.1514 3.9435.5185l.0158.0074.0157.0074 4.0172 1.8818 4.0459 1.8418c1.3528.6084 2.693 1.2334 4.0583 1.8253z" fill="#c58f2c"/><path d="m112.443 62.507-16.2429-7.7055c-2.4208-1.5627-6.4823-.5988-8.6312 2.2102-2.3993 3.1373.9501 14.1001 16.8751 20.5991" fill="#e4b652"/><path d="m112.058 62.2823-3.907-2.0196c-1.302-.6746-2.627-1.3231-3.942-1.9812l-3.955-1.9646-3.983-1.9246.0261.0175c-1.1507-.7567-2.7734-.9882-4.4179-.6208-1.6407.3451-3.2934 1.3454-4.3867 2.676-.5739.6689-.9038 1.4698-1.0465 2.1964-.1394.7351-.1363 1.4441-.0589 2.1155.1652 1.3529.6447 2.567 1.2375 3.6982 1.2369 2.2467 2.9965 4.1266 4.9554 5.7879 1.9696 1.6559 4.1863 3.0691 6.5211 4.3152-2.2188-1.3865-4.3398-2.8789-6.219-4.596-1.8865-1.7031-3.5471-3.6228-4.6896-5.8406-.5704-1.1068-1.0133-2.2935-1.1549-3.5714-.1383-1.2539-.0057-2.6911.9709-3.8195.9683-1.165 2.4153-2.0101 3.8697-2.3427 1.4581-.3394 2.904-.1514 3.9435.5185l.0157.0074.0157.0074 4.0173 1.8818 4.0456 1.8419c1.353.6084 2.693 1.2333 4.059 1.8252z" fill="#c58f2c"/><path d="m151.391 111.154s-2.031 6.961-7.98 12.76c-1.647 1.605-3.594 3.121-5.88 4.376-2.507 1.375-5.422 2.436-8.798 2.957-17.592 2.714-22.154 0-22.154 0s-3.223-1.899 2.55-5.433c5.774-3.534 9.402-5.158 9.402-5.158s-24.7051 1.494-33.0342 1.219" fill="#e4b652"/><path d="m98.8087 121.523s-15.0041 2.142-32.5192 5.506c-9.0097 1.728-13.3525 1.559-15.3489 1.186-1.3481-.255-2.4698-1.288-2.6808-2.633-.1955-1.267.3293-2.97 3.2211-4.708 5.7886-3.476 6.0819-2.669 6.0819-2.669-7.1059-7.622 2.1199-16.369 2.1199-16.369s10.0645 15.219 24.5953 17.458" fill="#e4b652"/><path d="m59.5386 101.836c4.136 8.539 18.2167 14.331 27.2894 17.971z" fill="#e4b652"/><path d="m59.5386 101.836c4.136 8.539 18.2167 14.331 27.2894 17.971" stroke="#c58f2c" stroke-miterlimit="10" stroke-width="1.302"/><path d="m118.359 120.76c-2.23-1.174-4.153-3.034-5.266-5.361-.549-1.164-.836-2.455-.867-3.742-.03-1.292.195-2.578.59-3.803.41-1.225 1.015-2.353 1.667-3.455.697-1.066 1.43-2.112 2.286-3.055 1.672-1.9166 3.554-3.6183 5.549-5.1663l-1.38 1.2917c-.466.4203-.892.8918-1.343 1.3327-.456.4356-.872.9072-1.297 1.3689-.436.451-.826.943-1.226 1.43-.795.968-1.523 1.988-2.19 3.044-.62 1.082-1.199 2.189-1.579 3.368-.39 1.174-.625 2.399-.605 3.629.01 1.23.287 2.45.759 3.593.487 1.138 1.195 2.178 2.036 3.106.825.928 1.794 1.748 2.866 2.419z" fill="#c48f2c"/><g fill="#c58f2c"><path d="m35.0524 59.572c.7429.7439 1.6579 1.0346 2.0436.6494.3857-.3853.0961-1.3006-.6469-2.0444-.7429-.7439-1.6579-1.0346-2.0436-.6494-.3857.3853-.0961 1.3006.6469 2.0444z"/><path d="m31.8839 59.948c.5779.5785 1.3317.7625 1.6838.4108.3521-.3516.1691-1.1057-.4088-1.6843-.5778-.5785-1.3317-.7625-1.6838-.4108-.3521.3516-.169 1.1057.4088 1.6843z"/><path d="m31.8114 62.6098c.6329.6337 1.4024.8912 1.7187.5753s.0597-1.0857-.5732-1.7194-1.4024-.8912-1.7187-.5753c-.3163.316-.0597 1.0857.5732 1.7194z"/><path d="m35.1187 64.2236c1.1108 1.1121 2.5696 1.456 3.2584.768.6887-.6879.3466-2.1471-.7641-3.2592-1.1108-1.1121-2.5696-1.456-3.2584-.7681-.6887.688-.3466 2.1472.7641 3.2593z"/><path d="m92.0222 58.3751c.6379.8356 1.5064 1.2449 1.9397.9141s.2673-1.2764-.3706-2.1121c-.638-.8356-1.5065-1.2449-1.9398-.9141-.4332.3308-.2673 1.2764.3707 2.1121z"/><path d="m89.0311 58.1747c.4962.65 1.1745.9661 1.5149.7062.3405-.2599.2142-.9975-.282-1.6474-.4962-.65-1.1744-.9662-1.5149-.7062-.3404.2599-.2142.9975.282 1.6474z"/><path d="m88.6267 60.4333c.4483.5872 1.0124.91 1.26.7209.2476-.189.0849-.8183-.3634-1.4054-.4483-.5872-1.0124-.91-1.26-.721-.2476.1891-.0849.8183.3634 1.4055z"/><path d="m91.444 62.9589c.9377 1.2283 2.3252 1.7452 3.0989 1.1545.7738-.5908.6408-2.0654-.297-3.2937-.9377-1.2283-2.3252-1.7451-3.0989-1.1544s-.6408 2.0653.297 3.2936z"/></g><path d="m98.2629 27.5625s-.3215-2.7645-2.4122-3.0402c-2.0958-.2698-2.6708 1.6662-2.6708 1.6662" stroke="#1e1c1a" stroke-linecap="round" stroke-linejoin="round" stroke-miterlimit="10" stroke-width="2"/><path d="m70.2729 24.0215s-.7863-2.296-2.8714-2.0098c-2.0897.2859-2.3128 2.085-2.3128 2.085" stroke="#1e1c1a" stroke-linecap="round" stroke-linejoin="round" stroke-miterlimit="10" stroke-width="2"/><path d="m80.9727 35.2773-.8006 4.2121s.5546 2.2147 3.9357 3.044c.2363.0556.4774.0758.7186.0606.7814-.0455 2.4936-.273 3.3328-1.3197" stroke="#544b43" stroke-linecap="round" stroke-linejoin="round" stroke-miterlimit="10" stroke-width="2"/><path d="m80.172 39.2695s-1.7294 2.5213-4.5048 1.8976c-2.7753-.6237-2.8167-1.8976-2.8167-1.8976" stroke="#544b43" stroke-linecap="round" stroke-linejoin="round" stroke-miterlimit="10" stroke-width="2"/><rect fill="#c4c4c4" height="36.6078" rx=".665596" width="1.33119" x="34.2459" y="29.9531"/><path d="m34.2459 48.6189v-16.0136c0-.6633-.6339-1.1428-1.2722-.9623l-29.16764 8.2494c-.97829.2767-.96753 1.6671.01492 1.9286l29.16762 7.7642c.6348.169 1.2573-.3095 1.2573-.9663z" fill="#1855d1"/><path d="m145.674 97.7446s3.044-2.82 5.208-7.8513c2.163-5.0313 6.131-1.9511 6.673.5671.531 2.4714 2.985 8.663-11.36 15.3696l-2.126-4.407z" fill="#e4b652"/></svg>