<svg width="1093" height="956" viewBox="0 0 1093 956" fill="none" xmlns="http://www.w3.org/2000/svg">
<ellipse cx="526.302" cy="825.459" rx="336.892" ry="72.6163" fill="#C4C4C4" fill-opacity="0.5"/>
<ellipse cx="722.5" cy="875.339" rx="279.5" ry="60" fill="#C4C4C4" fill-opacity="0.5"/>
<path d="M301.627 687.334L282.024 628.524C282.024 628.524 237.999 553.482 247.976 473.551L244.897 444.834C244.897 444.834 171.13 176.856 367.834 154.617C497.116 140.016 581.36 189.083 623.94 224.439C646.945 243.547 652.022 269.862 657.908 299.172C663.038 324.677 638.521 373.582 648.809 400.113C693.091 514.224 700.435 521.619 712.369 536.544C719.174 545.073 743.259 563.939 758.758 592.466C789.836 649.657 782.6 736.968 782.6 736.968L471.762 792.62C471.762 792.62 374.125 806.6 336.675 778.343L333.839 746.927" fill="#E4B652"/>
<path d="M778.81 694.002C778.81 694.002 794.18 679.388 805.104 653.315C816.028 627.242 836.06 643.204 838.798 656.254C841.482 669.061 853.87 701.147 781.44 735.902L770.705 713.064L778.81 694.002Z" fill="#E4B652"/>
<path d="M364.057 150.482C364.057 150.482 280.206 163.948 249.296 165.435C218.386 166.922 199.683 161.19 192.159 209.726C184.634 258.263 204.366 297.119 214.272 301.175C224.557 305.393 239.254 307.34 251.705 276.001C264.155 244.662 277.661 205.616 306.866 187.013C331.55 171.302 354.259 162.244 360.728 159.81C362.243 159.243 363.651 158.486 364.95 157.566C368.469 155.078 373.611 150.482 364.057 150.482Z" fill="#544B43"/>
<path d="M551.287 186.516C551.287 186.516 545.184 169.379 576.214 185.868C607.243 202.357 632.603 214.691 661.978 222.436C691.353 230.181 707.546 234.607 710.312 260.92C713.106 287.232 688.044 327.173 665.45 350.113C653.027 362.743 644.945 358.884 640.198 352.865C636.509 348.197 634.828 342.232 634.936 336.295C635.126 326.499 633.824 304.315 621.076 280.674C611.529 262.998 578.492 204.166 551.287 186.516Z" fill="#544B43"/>
<path d="M318.277 313.094C318.277 313.094 368.464 279.582 425.602 288.775C482.739 297.969 504.748 350.326 504.748 350.326" stroke="#544B43" stroke-width="3" stroke-miterlimit="10" stroke-linecap="round" stroke-linejoin="round"/>
<path d="M417.334 309.936C417.334 309.936 382.064 298.97 379.956 328.968C379.713 332.535 381.307 336.155 384.469 337.885C388.307 339.961 395.172 340.813 407.334 335.835C407.334 335.835 411.848 333.173 415.604 337.645C419.388 342.117 422.82 349.117 434.388 347.973C439.145 347.494 442.334 344.859 444.442 341.904C448.739 335.888 448.604 327.61 443.766 322.021C439.712 317.309 431.983 312.332 417.334 309.936Z" fill="#544B43"/>
<path d="M244.727 444.821C244.727 444.821 418.286 505.631 647.942 394.903L667.443 436.076C667.443 436.076 439.623 548.596 245.294 479.368L244.727 444.821Z" fill="#16D2AA"/>
<path d="M416.369 584.403C437.064 584.403 453.84 566.521 453.84 544.463C453.84 522.405 437.064 504.523 416.369 504.523C395.675 504.523 378.898 522.405 378.898 544.463C378.898 566.521 395.675 584.403 416.369 584.403Z" fill="white"/>
<path d="M416.363 503.64C393.265 503.64 374.516 522.354 374.516 545.47C374.516 568.559 393.238 587.3 416.363 587.3C439.462 587.3 458.211 568.586 458.211 545.47C458.211 522.354 439.462 503.64 416.363 503.64ZM416.363 581.494C396.452 581.494 380.297 565.345 380.297 545.443C380.297 525.54 396.425 509.392 416.363 509.392C436.274 509.392 452.429 525.513 452.429 545.443C452.429 565.372 436.274 581.494 416.363 581.494Z" fill="#16D2AA"/>
<path d="M416.371 581.518C436.29 581.518 452.437 565.377 452.437 545.467C452.437 525.557 436.29 509.416 416.371 509.416C396.452 509.416 380.305 525.557 380.305 545.467C380.305 565.377 396.452 581.518 416.371 581.518Z" fill="white"/>
<path d="M398.293 554.155C399.455 555.586 400.994 556.315 402.94 556.315C404.885 556.315 406.425 555.586 407.559 554.155C408.694 552.724 409.261 550.753 409.261 548.295V535.333L416.177 531.174V548.511C416.177 552.994 414.935 556.451 412.449 558.854C409.964 561.257 406.803 562.473 402.913 562.473C399.049 562.473 395.861 561.257 393.349 558.827C390.863 556.396 389.594 552.967 389.594 548.511V535.333L396.51 531.174V548.268C396.564 550.78 397.131 552.724 398.293 554.155Z" fill="#16D2AA"/>
<path d="M439.837 533.956C441.998 535.792 443.106 538.628 443.106 542.462C443.106 546.297 441.998 549.079 439.756 550.861C437.513 552.643 434.109 553.507 429.544 553.507H425.41V557.99L418.494 562.149V531.175H429.436C434.19 531.202 437.648 532.12 439.837 533.956ZM434.758 546.135C435.595 545.217 436 543.84 436 542.057C436 540.275 435.46 539.006 434.379 538.25C433.299 537.494 431.624 537.116 429.355 537.116H425.41V547.539H430.057C432.353 547.539 433.92 547.08 434.758 546.135Z" fill="#16D2AA"/>
<path d="M416.05 497.977C416.05 497.977 420.297 505.346 416.238 509.329C412.152 513.339 418.361 510.657 418.361 510.657C418.361 510.657 422.152 503.342 418.361 497.977C418.361 497.977 417.555 495.051 416.05 497.977Z" fill="#B5DFD5"/>
<path d="M411.139 501.365L412.624 501.133V503.949L411.139 504.104V501.365Z" fill="#B5DFD5"/>
<path d="M411.882 335.462L407.414 357.686C407.414 357.686 410.51 369.372 429.378 373.747C430.697 374.041 432.043 374.148 433.389 374.068C437.75 373.827 447.305 372.627 451.989 367.104" stroke="#544B43" stroke-width="3" stroke-miterlimit="10" stroke-linecap="round" stroke-linejoin="round"/>
<path d="M407.424 357.015C407.424 357.015 398.474 372.024 384.112 368.311C369.75 364.598 369.535 357.015 369.535 357.015" stroke="#544B43" stroke-width="3" stroke-miterlimit="10" stroke-linecap="round" stroke-linejoin="round"/>
<path d="M344.277 285.694C350.842 285.694 356.164 280.372 356.164 273.808C356.164 267.243 350.842 261.921 344.277 261.921C337.712 261.921 332.391 267.243 332.391 273.808C332.391 280.372 337.712 285.694 344.277 285.694Z" fill="#1D1C1A"/>
<path d="M502.515 315.409C509.08 315.409 514.402 310.087 514.402 303.522C514.402 296.957 509.08 291.635 502.515 291.635C495.951 291.635 490.629 296.957 490.629 303.522C490.629 310.087 495.951 315.409 502.515 315.409Z" fill="#1D1C1A"/>
<path d="M274.732 492.02L189.073 440.004C176.052 429.992 156.413 432.758 147.437 446.767C137.417 462.413 154.999 521.982 265.999 584.482" fill="#E4B652"/>
<path d="M274.729 492.008L253.706 478.416C246.695 473.877 239.592 469.469 232.528 465.014L211.296 451.696L189.944 438.581L190.087 438.694C183.794 433.796 175.44 431.507 167.35 432.513C159.265 433.398 151.528 437.896 146.827 444.567C144.341 447.906 143.171 452.126 142.902 456.052C142.656 460.027 143.114 463.946 143.924 467.704C145.603 475.282 148.786 482.29 152.49 488.909C160.149 502.093 170.222 513.576 181.169 523.975C192.165 534.352 204.261 543.541 216.849 551.88C204.759 542.837 193.099 533.27 182.522 522.612C171.916 512.027 162.318 500.386 155.155 487.42C151.579 480.949 148.599 474.117 147.086 466.967C145.604 459.952 145.378 452.094 149.615 446.467C153.788 440.633 160.581 436.864 167.731 435.933C174.896 434.965 182.328 436.904 188.004 441.253L188.088 441.304L188.173 441.354L209.669 454.254L231.285 466.95C238.508 471.154 245.678 475.442 252.954 479.563L274.729 492.008Z" fill="#C58F2C"/>
<path d="M782.593 737.381C782.593 737.381 755.954 827.701 663.554 841.806C571.127 855.911 547.158 841.806 547.158 841.806C547.158 841.806 530.225 831.935 560.558 813.569C590.891 795.203 609.953 786.762 609.953 786.762C609.953 786.762 480.156 794.529 436.396 793.1" fill="#E4B652"/>
<path d="M506.971 791.434C506.971 791.434 428.304 802.73 336.472 820.471C289.235 829.584 266.466 828.694 255.998 826.726C248.93 825.378 243.049 819.932 241.943 812.841C240.918 806.154 243.67 797.176 258.831 788.01C289.181 769.676 290.718 773.936 290.718 773.936C253.462 733.737 301.833 687.606 301.833 687.606C301.833 687.606 354.601 767.87 430.786 779.679" fill="#E4B652"/>
<path d="M450.791 687.507C450.791 687.507 455.248 795.687 434.446 800.736C413.644 805.786 423.262 858.769 490.72 826.877C558.179 794.985 555.828 669.333 555.828 669.333" fill="#E4B652"/>
<path d="M450.791 687.509C451.736 703.901 451.926 720.374 451.547 736.819C451.277 745.029 450.845 753.265 450.007 761.475C449.17 769.684 448.062 777.893 445.874 785.941C444.739 789.964 443.362 793.988 440.849 797.661C439.552 799.416 437.85 801.225 435.419 802.008L433.96 802.494C433.528 802.629 433.096 802.764 432.717 803.007C431.88 803.358 431.177 803.926 430.475 804.466C427.8 806.869 426.315 810.569 426.288 814.322C426.152 818.103 427.422 821.857 429.502 825.016C431.664 828.149 434.689 830.633 438.175 832.334C441.66 834.036 445.523 834.9 449.467 835.197C457.356 835.818 465.406 834.306 473.106 831.956C475.024 831.308 476.942 830.741 478.86 830.039C480.751 829.283 482.643 828.608 484.507 827.825L490.072 825.367L495.394 822.559C502.337 818.508 508.605 813.323 514.062 807.382C519.519 801.441 524.22 794.771 528.272 787.75C532.271 780.675 535.648 773.248 538.592 765.66C544.455 750.43 548.372 734.47 551.101 718.321C553.883 702.173 555.504 685.808 555.882 669.389C556.288 685.835 555.045 702.281 552.803 718.591C550.425 734.875 546.778 751.051 541.132 766.605C535.567 782.16 527.678 797.147 516.439 809.543C510.82 815.727 504.336 821.181 497.096 825.448L491.531 828.419L485.857 830.984C483.939 831.794 481.994 832.523 480.049 833.307C478.104 834.036 476.105 834.657 474.133 835.332C466.136 837.708 457.707 839.248 449.197 838.545C444.955 838.194 440.687 837.222 436.77 835.278C432.852 833.36 429.367 830.471 426.882 826.798C424.478 823.099 423.046 818.724 423.208 814.241C423.262 809.813 425.018 805.222 428.53 802.143C429.448 801.441 430.394 800.739 431.448 800.28C431.961 799.983 432.501 799.821 433.042 799.632L434.527 799.146C436.067 798.714 437.391 797.391 438.526 795.905C440.741 792.827 442.173 788.992 443.335 785.157C445.631 777.407 446.874 769.306 447.873 761.177C448.846 753.049 449.44 744.867 449.899 736.684C450.791 720.374 450.953 703.955 450.791 687.509Z" fill="#C58F2C"/>
<path d="M300.441 687.606C322.398 732.788 397.146 763.438 445.309 782.698L300.441 687.606Z" fill="#E4B652"/>
<path d="M300.441 687.606C322.398 732.788 397.146 763.438 445.309 782.698" stroke="#C58F2C" stroke-width="1.302" stroke-miterlimit="10"/>
<path d="M609.91 786.704C598.158 780.52 588.027 770.717 582.164 758.457C579.274 752.327 577.761 745.522 577.599 738.744C577.437 731.938 578.625 725.16 580.706 718.706C582.867 712.252 586.055 706.311 589.486 700.505C593.16 694.888 597.023 689.379 601.535 684.41C610.342 674.311 620.257 665.345 630.766 657.19L623.499 663.995C621.04 666.209 618.798 668.694 616.42 671.016C614.016 673.312 611.828 675.796 609.585 678.226C607.289 680.603 605.236 683.195 603.129 685.761C598.941 690.865 595.105 696.238 591.593 701.801C588.324 707.499 585.271 713.332 583.272 719.543C581.219 725.727 579.976 732.181 580.084 738.663C580.138 745.144 581.597 751.571 584.082 757.593C586.649 763.588 590.377 769.07 594.808 773.957C599.157 778.845 604.263 783.166 609.91 786.704Z" fill="#C48F2C"/>
<path d="M271.842 803.507C277.381 803.507 281.871 801.179 281.871 798.307C281.871 795.435 277.381 793.106 271.842 793.106C266.303 793.106 261.812 795.435 261.812 798.307C261.812 801.179 266.303 803.507 271.842 803.507Z" fill="#C58F2C"/>
<path d="M261.441 815.39C265.749 815.39 269.242 813.56 269.242 811.304C269.242 809.047 265.749 807.218 261.441 807.218C257.133 807.218 253.641 809.047 253.641 811.304C253.641 813.56 257.133 815.39 261.441 815.39Z" fill="#C58F2C"/>
<path d="M271.098 824.308C275.817 824.308 279.642 822.978 279.642 821.336C279.642 819.695 275.817 818.365 271.098 818.365C266.38 818.365 262.555 819.695 262.555 821.336C262.555 822.978 266.38 824.308 271.098 824.308Z" fill="#C58F2C"/>
<path d="M292.271 820.582C302.118 820.582 310.101 816.424 310.101 811.296C310.101 806.167 302.118 802.009 292.271 802.009C282.424 802.009 274.441 806.167 274.441 811.296C274.441 816.424 282.424 820.582 292.271 820.582Z" fill="#C58F2C"/>
<path d="M334.994 767.254C334.994 767.254 289.04 771.008 286.689 774.033L334.994 767.254Z" fill="#E4B652"/>
<path d="M334.994 767.254C330.968 768.01 326.916 768.577 322.891 769.117C318.865 769.684 314.813 770.143 310.761 770.629L298.63 771.952C296.604 772.141 294.578 772.384 292.579 772.682C290.58 772.979 288.472 773.087 286.689 774.032C287.419 773.276 288.472 772.979 289.418 772.601C290.391 772.276 291.39 771.979 292.39 771.709C294.389 771.223 296.388 770.818 298.414 770.413C302.44 769.63 306.492 769.117 310.544 768.631C314.597 768.199 318.676 767.794 322.756 767.578C326.835 767.362 330.914 767.2 334.994 767.254Z" fill="#C58F2C"/>
<path d="M357.5 218.982C303.1 224.582 258.833 185.648 243.5 165.482C265.9 122.682 531.167 183.315 661 218.982C658.333 223.982 651.3 236.282 644.5 245.482C636 256.982 561 261.982 532.5 245.482C504 228.982 425.5 211.982 357.5 218.982Z" fill="#EDA12D"/>
<path d="M347.5 181.982C322.3 181.982 289 161.982 275.5 151.982C294 108.482 347.5 16.9817 477.5 31.9817C580.815 43.9026 628.833 150.982 639.5 210.482C610.3 225.282 564 216.648 544.5 210.482C463 171.982 379 181.982 347.5 181.982Z" fill="#EDB72D"/>
<path d="M534 42.3387V198.339C513.6 176.339 399.5 176.505 345 179.339L383 33.8387C447 7.03871 510.333 28.3387 534 42.3387Z" fill="#EDB72D" stroke="#EDB72D"/>
<path d="M524 94.3386L533.5 44.3386L543 180.339L524 94.3386Z" fill="#EDA02D" stroke="#EDB72D"/>
<path d="M427.5 56.3386V22.3386L433.5 36.3386L427.5 56.3386Z" fill="#EDA02D"/>
<path d="M483.5 62.8386L487 25.3386L481.5 36.3386L483.5 62.8386Z" fill="#EFCC6F"/>
<path d="M380.5 75.3386L352 180.339C366 177.139 400.833 179.005 416.5 180.339L420 75.3386H380.5Z" fill="url(#paint0_linear_659_1959)"/>
<path d="M348.5 178.339L379.5 43.8386C331.5 61.4386 301.5 131.172 292.5 163.839C296.1 168.639 331.333 178.839 348.5 183.339V178.339Z" fill="url(#paint1_linear_659_1959)"/>
<path d="M544 209.339L531.5 46.3386C575.5 75.1386 598.167 172.672 604 217.839C597.2 221.039 561.167 213.505 544 209.339Z" fill="url(#paint2_linear_659_1959)"/>
<g filter="url(#filter0_f_659_1959)">
<path d="M256 173.339C270.833 189.672 311.6 221.139 356 216.339C411.5 210.339 481 217.339 524 238.339C558.4 255.139 606.333 253.005 626 249.839" stroke="#FEDF85" stroke-opacity="0.9"/>
</g>
<path d="M478.5 263.839C480 270.005 486.7 281.339 501.5 277.339C516.3 273.339 536 275.672 544 277.339" stroke="black" stroke-width="2.5" stroke-linecap="round"/>
<path d="M428 357.339C421.6 363.339 411 363.29 407 360.79C417 377.79 436.751 377.021 446 368.839C459 357.339 436 349.839 428 357.339Z" fill="#DA4351"/>
<rect x="143" y="349.419" width="28" height="157.36" rx="3" transform="rotate(-10.4539 143 349.419)" fill="#F0DAA8"/>
<path d="M161.797 318.427L133.965 323.322C131.6 324.592 122.313 332.705 112.489 333.793C108.15 334.273 105.577 331.255 104.303 329.986L92.2966 333.793C90.5502 340.32 96.8561 357.588 102.312 362.483L114.126 357.18L115.763 352.829C116.854 351.741 120.784 349.239 127.769 347.934C134.754 346.629 138.683 348.478 139.775 349.566L145.778 365.339L173.064 360.444L170.336 338.144C175.793 334.881 195.985 341.407 203.625 341.407C209.737 341.407 206.172 336.694 203.625 334.337C181.359 321.283 166.526 317.702 161.797 318.427Z" fill="#565961"/>
<rect x="505.5" y="742.839" width="415" height="150" fill="#FF8C5F"/>
<path d="M920.5 740.839L963 715.839V869.839L920.5 894.839V740.839Z" fill="#FC8354"/>
<path d="M565.5 713.839H965L917 743.839H508L565.5 713.839Z" fill="#FCA887"/>
<path d="M503 802.839H923L963 773.339" stroke="#FD520F" stroke-width="2"/>
<path d="M662.5 722.839H678C681.167 723.172 688.2 722.339 691 716.339C693.195 711.635 698.607 704.985 702.609 700.484C704.423 698.444 707.044 697.339 709.773 697.339H744.109C747.474 697.339 750.614 699.031 752.463 701.843L760.582 714.183C761.512 715.597 761.956 717.305 762.805 718.769C763.963 720.765 766.519 722.839 771.5 722.839C778.7 722.839 790.167 722.839 795 722.839" stroke="#1855D1" stroke-width="6" stroke-linecap="round"/>
<path d="M668.5 718.839C668.5 717.734 669.395 716.839 670.5 716.839H679.5C681.157 716.839 682.5 718.182 682.5 719.839V728.839H668.5V718.839Z" fill="#F2FBF9"/>
<path d="M770.5 718.839C770.5 717.734 771.395 716.839 772.5 716.839H781.5C783.157 716.839 784.5 718.182 784.5 719.839V728.839H770.5V718.839Z" fill="#F2FBF9"/>
<path d="M583.5 793.839C583.5 792.734 584.395 791.839 585.5 791.839H605.5C607.157 791.839 608.5 793.182 608.5 794.839V827.839H583.5V793.839Z" fill="#F2FBF9"/>
<path d="M797.5 793.839C797.5 792.734 798.395 791.839 799.5 791.839H819.5C821.157 791.839 822.5 793.182 822.5 794.839V827.839H797.5V793.839Z" fill="#F2FBF9"/>
<rect x="587.5" y="800.839" width="17" height="32" rx="5" fill="#C4C4C4"/>
<rect x="801.5" y="800.839" width="17" height="32" rx="5" fill="#C4C4C4"/>
<defs>
<filter id="filter0_f_659_1959" x="251.629" y="169.002" width="378.451" height="87.5203" filterUnits="userSpaceOnUse" color-interpolation-filters="sRGB">
<feFlood flood-opacity="0" result="BackgroundImageFix"/>
<feBlend mode="normal" in="SourceGraphic" in2="BackgroundImageFix" result="shape"/>
<feGaussianBlur stdDeviation="2" result="effect1_foregroundBlur_659_1959"/>
</filter>
<linearGradient id="paint0_linear_659_1959" x1="361.5" y1="127.839" x2="420" y2="147.339" gradientUnits="userSpaceOnUse">
<stop stop-color="#EFCB6F"/>
<stop offset="1" stop-color="#EFCB6F" stop-opacity="0"/>
</linearGradient>
<linearGradient id="paint1_linear_659_1959" x1="372" y1="118.839" x2="317.5" y2="98.8386" gradientUnits="userSpaceOnUse">
<stop stop-color="#EEC458"/>
<stop offset="1" stop-color="#EEC458" stop-opacity="0"/>
</linearGradient>
<linearGradient id="paint2_linear_659_1959" x1="497.5" y1="141.339" x2="599.5" y2="106.339" gradientUnits="userSpaceOnUse">
<stop stop-color="#EDA02D"/>
<stop offset="1" stop-color="#EDA02D" stop-opacity="0"/>
</linearGradient>
</defs>
</svg>
