<svg fill="none" height="956" viewBox="0 0 1093 956" width="1093" xmlns="http://www.w3.org/2000/svg" xmlns:xlink="http://www.w3.org/1999/xlink"><filter id="a" color-interpolation-filters="sRGB" filterUnits="userSpaceOnUse" height="87.5203" width="378.451" x="251.629" y="169.002"><feFlood flood-opacity="0" result="BackgroundImageFix"/><feBlend in="SourceGraphic" in2="BackgroundImageFix" mode="normal" result="shape"/><feGaussianBlur result="effect1_foregroundBlur_659_1959" stdDeviation="2"/></filter><linearGradient id="b" gradientUnits="userSpaceOnUse" x1="361.5" x2="420" y1="127.839" y2="147.339"><stop offset="0" stop-color="#efcb6f"/><stop offset="1" stop-color="#efcb6f" stop-opacity="0"/></linearGradient><linearGradient id="c" gradientUnits="userSpaceOnUse" x1="372" x2="317.5" y1="118.839" y2="98.8386"><stop offset="0" stop-color="#eec458"/><stop offset="1" stop-color="#eec458" stop-opacity="0"/></linearGradient><linearGradient id="d" gradientUnits="userSpaceOnUse" x1="497.5" x2="599.5" y1="141.339" y2="106.339"><stop offset="0" stop-color="#eda02d"/><stop offset="1" stop-color="#eda02d" stop-opacity="0"/></linearGradient><ellipse cx="526.302" cy="825.459" fill="#c4c4c4" fill-opacity=".5" rx="336.892" ry="72.6163"/><ellipse cx="722.5" cy="875.339" fill="#c4c4c4" fill-opacity=".5" rx="279.5" ry="60"/><path d="m301.627 687.334-19.603-58.81s-44.025-75.042-34.048-154.973l-3.079-28.717s-73.767-267.978 122.937-290.217c129.282-14.601 213.526 34.466 256.106 69.822 23.005 19.108 28.082 45.423 33.968 74.733 5.13 25.505-19.387 74.41-9.099 100.941 44.282 114.111 51.626 121.506 63.56 136.431 6.805 8.529 30.89 27.395 46.389 55.922 31.078 57.191 23.842 144.502 23.842 144.502l-310.838 55.652s-97.637 13.98-135.087-14.277l-2.836-31.416" fill="#e4b652"/><path d="m778.81 694.002s15.37-14.614 26.294-40.687 30.956-10.111 33.694 2.939c2.684 12.807 15.072 44.893-57.358 79.648l-10.735-22.838z" fill="#e4b652"/><path d="m364.057 150.482s-83.851 13.466-114.761 14.953-49.613-4.245-57.137 44.291c-7.525 48.537 12.207 87.393 22.113 91.449 10.285 4.218 24.982 6.165 37.433-25.174 12.45-31.339 25.956-70.385 55.161-88.988 24.684-15.711 47.393-24.769 53.862-27.203 1.515-.567 2.923-1.324 4.222-2.244 3.519-2.488 8.661-7.084-.893-7.084z" fill="#544b43"/><path d="m551.287 186.516s-6.103-17.137 24.927-.648c31.029 16.489 56.389 28.823 85.764 36.568s45.568 12.171 48.334 38.484c2.794 26.312-22.268 66.253-44.862 89.193-12.423 12.63-20.505 8.771-25.252 2.752-3.689-4.668-5.37-10.633-5.262-16.57.19-9.796-1.112-31.98-13.86-55.621-9.547-17.676-42.584-76.508-69.789-94.158z" fill="#544b43"/><path d="m318.277 313.094s50.187-33.512 107.325-24.319c57.137 9.194 79.146 61.551 79.146 61.551" stroke="#544b43" stroke-linecap="round" stroke-linejoin="round" stroke-miterlimit="10" stroke-width="3"/><path d="m417.334 309.936s-35.27-10.966-37.378 19.032c-.243 3.567 1.351 7.187 4.513 8.917 3.838 2.076 10.703 2.928 22.865-2.05 0 0 4.514-2.662 8.27 1.81 3.784 4.472 7.216 11.472 18.784 10.328 4.757-.479 7.946-3.114 10.054-6.069 4.297-6.016 4.162-14.294-.676-19.883-4.054-4.712-11.783-9.689-26.432-12.085z" fill="#544b43"/><path d="m244.727 444.821s173.559 60.81 403.215-49.918l19.501 41.173s-227.82 112.52-422.149 43.292z" fill="#16d2aa"/><path d="m416.369 584.403c20.695 0 37.471-17.882 37.471-39.94s-16.776-39.94-37.471-39.94c-20.694 0-37.471 17.882-37.471 39.94s16.777 39.94 37.471 39.94z" fill="#fff"/><path d="m416.363 503.64c-23.098 0-41.847 18.714-41.847 41.83 0 23.089 18.722 41.83 41.847 41.83 23.099 0 41.848-18.714 41.848-41.83s-18.749-41.83-41.848-41.83zm0 77.854c-19.911 0-36.066-16.149-36.066-36.051 0-19.903 16.128-36.051 36.066-36.051 19.911 0 36.066 16.121 36.066 36.051 0 19.929-16.155 36.051-36.066 36.051z" fill="#16d2aa"/><path d="m416.371 581.518c19.919 0 36.066-16.141 36.066-36.051s-16.147-36.051-36.066-36.051-36.066 16.141-36.066 36.051 16.147 36.051 36.066 36.051z" fill="#fff"/><path d="m398.293 554.155c1.162 1.431 2.701 2.16 4.647 2.16 1.945 0 3.485-.729 4.619-2.16 1.135-1.431 1.702-3.402 1.702-5.86v-12.962l6.916-4.159v17.337c0 4.483-1.242 7.94-3.728 10.343-2.485 2.403-5.646 3.619-9.536 3.619-3.864 0-7.052-1.216-9.564-3.646-2.486-2.431-3.755-5.86-3.755-10.316v-13.178l6.916-4.159v17.094c.054 2.512.621 4.456 1.783 5.887z" fill="#16d2aa"/><path d="m439.837 533.956c2.161 1.836 3.269 4.672 3.269 8.506 0 3.835-1.108 6.617-3.35 8.399-2.243 1.782-5.647 2.646-10.212 2.646h-4.134v4.483l-6.916 4.159v-30.974h10.942c4.754.027 8.212.945 10.401 2.781zm-5.079 12.179c.837-.918 1.242-2.295 1.242-4.078 0-1.782-.54-3.051-1.621-3.807-1.08-.756-2.755-1.134-5.024-1.134h-3.945v10.423h4.647c2.296 0 3.863-.459 4.701-1.404z" fill="#16d2aa"/><path d="m416.05 497.977s4.247 7.369.188 11.352c-4.086 4.01 2.123 1.328 2.123 1.328s3.791-7.315 0-12.68c0 0-.806-2.926-2.311 0z" fill="#b5dfd5"/><path d="m411.139 501.365 1.485-.232v2.816l-1.485.155z" fill="#b5dfd5"/><path d="m411.882 335.462-4.468 22.224s3.096 11.686 21.964 16.061c1.319.294 2.665.401 4.011.321 4.361-.241 13.916-1.441 18.6-6.964" stroke="#544b43" stroke-linecap="round" stroke-linejoin="round" stroke-miterlimit="10" stroke-width="3"/><path d="m407.424 357.015s-8.95 15.009-23.312 11.296-14.577-11.296-14.577-11.296" stroke="#544b43" stroke-linecap="round" stroke-linejoin="round" stroke-miterlimit="10" stroke-width="3"/><path d="m344.277 285.694c6.565 0 11.887-5.322 11.887-11.886 0-6.565-5.322-11.887-11.887-11.887s-11.886 5.322-11.886 11.887c0 6.564 5.321 11.886 11.886 11.886z" fill="#1d1c1a"/><path d="m502.515 315.409c6.565 0 11.887-5.322 11.887-11.887s-5.322-11.887-11.887-11.887c-6.564 0-11.886 5.322-11.886 11.887s5.322 11.887 11.886 11.887z" fill="#1d1c1a"/><path d="m274.732 492.02-85.659-52.016c-13.021-10.012-32.66-7.246-41.636 6.763-10.02 15.646 7.562 75.215 118.562 137.715" fill="#e4b652"/><path d="m274.729 492.008-21.023-13.592c-7.011-4.539-14.114-8.947-21.178-13.402l-21.232-13.318-21.352-13.115.143.113c-6.293-4.898-14.647-7.187-22.737-6.181-8.085.885-15.822 5.383-20.523 12.054-2.486 3.339-3.656 7.559-3.925 11.485-.246 3.975.212 7.894 1.022 11.652 1.679 7.578 4.862 14.586 8.566 21.205 7.659 13.184 17.732 24.667 28.679 35.066 10.996 10.377 23.092 19.566 35.68 27.905-12.09-9.043-23.75-18.61-34.327-29.268-10.606-10.585-20.204-22.226-27.367-35.192-3.576-6.471-6.556-13.303-8.069-20.453-1.482-7.015-1.708-14.873 2.529-20.5 4.173-5.834 10.966-9.603 18.116-10.534 7.165-.968 14.597.971 20.273 5.32l.084.051.085.05 21.496 12.9 21.616 12.696c7.223 4.204 14.393 8.492 21.669 12.613z" fill="#c58f2c"/><path d="m782.593 737.381s-26.639 90.32-119.039 104.425c-92.427 14.105-116.396 0-116.396 0s-16.933-9.871 13.4-28.237 49.395-26.807 49.395-26.807-129.797 7.767-173.557 6.338" fill="#e4b652"/><path d="m506.971 791.434s-78.667 11.296-170.499 29.037c-47.237 9.113-70.006 8.223-80.474 6.255-7.068-1.348-12.949-6.794-14.055-13.885-1.025-6.687 1.727-15.665 16.888-24.831 30.35-18.334 31.887-14.074 31.887-14.074-37.256-40.199 11.115-86.33 11.115-86.33s52.768 80.264 128.953 92.073" fill="#e4b652"/><path d="m450.791 687.507s4.457 108.18-16.345 113.229c-20.802 5.05-11.184 58.033 56.274 26.141 67.459-31.892 65.108-157.544 65.108-157.544" fill="#e4b652"/><path d="m450.791 687.509c.945 16.392 1.135 32.865.756 49.31-.27 8.21-.702 16.446-1.54 24.656-.837 8.209-1.945 16.418-4.133 24.466-1.135 4.023-2.512 8.047-5.025 11.72-1.297 1.755-2.999 3.564-5.43 4.347l-1.459.486c-.432.135-.864.27-1.243.513-.837.351-1.54.919-2.242 1.459-2.675 2.403-4.16 6.103-4.187 9.856-.136 3.781 1.134 7.535 3.214 10.694 2.162 3.133 5.187 5.617 8.673 7.318 3.485 1.702 7.348 2.566 11.292 2.863 7.889.621 15.939-.891 23.639-3.241 1.918-.648 3.836-1.215 5.754-1.917 1.891-.756 3.783-1.431 5.647-2.214l5.565-2.458 5.322-2.808c6.943-4.051 13.211-9.236 18.668-15.177s10.158-12.611 14.21-19.632c3.999-7.075 7.376-14.502 10.32-22.09 5.863-15.23 9.78-31.19 12.509-47.339 2.782-16.148 4.403-32.513 4.781-48.932.406 16.446-.837 32.892-3.079 49.202-2.378 16.284-6.025 32.46-11.671 48.014-5.565 15.555-13.454 30.542-24.693 42.938-5.619 6.184-12.103 11.638-19.343 15.905l-5.565 2.971-5.674 2.565c-1.918.81-3.863 1.539-5.808 2.323-1.945.729-3.944 1.35-5.916 2.025-7.997 2.376-16.426 3.916-24.936 3.213-4.242-.351-8.51-1.323-12.427-3.267-3.918-1.918-7.403-4.807-9.888-8.48-2.404-3.699-3.836-8.074-3.674-12.557.054-4.428 1.81-9.019 5.322-12.098.918-.702 1.864-1.404 2.918-1.863.513-.297 1.053-.459 1.594-.648l1.485-.486c1.54-.432 2.864-1.755 3.999-3.241 2.215-3.078 3.647-6.913 4.809-10.748 2.296-7.75 3.539-15.851 4.538-23.98.973-8.128 1.567-16.31 2.026-24.493.892-16.31 1.054-32.729.892-49.175z" fill="#c58f2c"/><path d="m300.441 687.606c21.957 45.182 96.705 75.832 144.868 95.092z" fill="#e4b652"/><path d="m300.441 687.606c21.957 45.182 96.705 75.832 144.868 95.092" stroke="#c58f2c" stroke-miterlimit="10" stroke-width="1.302"/><path d="m609.91 786.704c-11.752-6.184-21.883-15.987-27.746-28.247-2.89-6.13-4.403-12.935-4.565-19.713-.162-6.806 1.026-13.584 3.107-20.038 2.161-6.454 5.349-12.395 8.78-18.201 3.674-5.617 7.537-11.126 12.049-16.095 8.807-10.099 18.722-19.065 29.231-27.22l-7.267 6.805c-2.459 2.214-4.701 4.699-7.079 7.021-2.404 2.296-4.592 4.78-6.835 7.21-2.296 2.377-4.349 4.969-6.456 7.535-4.188 5.104-8.024 10.477-11.536 16.04-3.269 5.698-6.322 11.531-8.321 17.742-2.053 6.184-3.296 12.638-3.188 19.12.054 6.481 1.513 12.908 3.998 18.93 2.567 5.995 6.295 11.477 10.726 16.364 4.349 4.888 9.455 9.209 15.102 12.747z" fill="#c48f2c"/><g fill="#c58f2c"><path d="m271.842 803.507c5.539 0 10.029-2.328 10.029-5.2s-4.49-5.201-10.029-5.201-10.03 2.329-10.03 5.201 4.491 5.2 10.03 5.2z"/><path d="m261.441 815.39c4.308 0 7.801-1.83 7.801-4.086 0-2.257-3.493-4.086-7.801-4.086s-7.8 1.829-7.8 4.086c0 2.256 3.492 4.086 7.8 4.086z"/><path d="m271.098 824.308c4.719 0 8.544-1.33 8.544-2.972 0-1.641-3.825-2.971-8.544-2.971-4.718 0-8.543 1.33-8.543 2.971 0 1.642 3.825 2.972 8.543 2.972z"/><path d="m292.271 820.582c9.847 0 17.83-4.158 17.83-9.286 0-5.129-7.983-9.287-17.83-9.287s-17.83 4.158-17.83 9.287c0 5.128 7.983 9.286 17.83 9.286z"/></g><path d="m334.994 767.254s-45.954 3.754-48.305 6.779z" fill="#e4b652"/><path d="m334.994 767.254c-4.026.756-8.078 1.323-12.103 1.863-4.026.567-8.078 1.026-12.13 1.512l-12.131 1.323c-2.026.189-4.052.432-6.051.73-1.999.297-4.107.405-5.89 1.35.73-.756 1.783-1.053 2.729-1.431.973-.325 1.972-.622 2.972-.892 1.999-.486 3.998-.891 6.024-1.296 4.026-.783 8.078-1.296 12.13-1.782 4.053-.432 8.132-.837 12.212-1.053 4.079-.216 8.158-.378 12.238-.324z" fill="#c58f2c"/><path d="m357.5 218.982c-54.4 5.6-98.667-33.334-114-53.5 22.4-42.8 287.667 17.833 417.5 53.5-2.667 5-9.7 17.3-16.5 26.5-8.5 11.5-83.5 16.5-112 0s-107-33.5-175-26.5z" fill="#eda12d"/><path d="m347.5 181.982c-25.2 0-58.5-20-72-30 18.5-43.5 72-135.0003 202-120.0003 103.315 11.9209 151.333 119.0003 162 178.5003-29.2 14.8-75.5 6.166-95 0-81.5-38.5-165.5-28.5-197-28.5z" fill="#edb72d"/><path d="m534 42.3387v156.0003c-20.4-22-134.5-21.834-189-19l38-145.5003c64-26.79999 127.333-5.5 151 8.5z" fill="#edb72d" stroke="#edb72d"/><path d="m524 94.3386 9.5-50 9.5 136.0004z" fill="#eda02d" stroke="#edb72d"/><path d="m427.5 56.3386v-34l6 14z" fill="#eda02d"/><path d="m483.5 62.8386 3.5-37.5-5.5 11z" fill="#efcc6f"/><path d="m380.5 75.3386-28.5 105.0004c14-3.2 48.833-1.334 64.5 0l3.5-105.0004z" fill="url(#b)"/><path d="m348.5 178.339 31-134.5004c-48 17.6-78 87.3334-87 120.0004 3.6 4.8 38.833 15 56 19.5z" fill="url(#c)"/><path d="m544 209.339-12.5-163.0004c44 28.8 66.667 126.3334 72.5 171.5004-6.8 3.2-42.833-4.334-60-8.5z" fill="url(#d)"/><g filter="url(#a)"><path d="m256 173.339c14.833 16.333 55.6 47.8 100 43 55.5-6 125 1 168 22 34.4 16.8 82.333 14.666 102 11.5" stroke="#fedf85" stroke-opacity=".9"/></g><path d="m478.5 263.839c1.5 6.166 8.2 17.5 23 13.5s34.5-1.667 42.5 0" stroke="#000" stroke-linecap="round" stroke-width="2.5"/><path d="m428 357.339c-6.4 6-17 5.951-21 3.451 10 17 29.751 16.231 39 8.049 13-11.5-10-19-18-11.5z" fill="#da4351"/><rect fill="#f0daa8" height="157.36" rx="3" transform="matrix(.98340122 -.18144434 .18144434 .98340122 -61.026475 31.746472)" width="28" x="143" y="349.419"/><path d="m161.797 318.427-27.832 4.895c-2.365 1.27-11.652 9.383-21.476 10.471-4.339.48-6.912-2.538-8.186-3.807l-12.0064 3.807c-1.7464 6.527 4.5595 23.795 10.0154 28.69l11.814-5.303 1.637-4.351c1.091-1.088 5.021-3.59 12.006-4.895s10.914.544 12.006 1.632l6.003 15.773 27.286-4.895-2.728-22.3c5.457-3.263 25.649 3.263 33.289 3.263 6.112 0 2.547-4.713 0-7.07-22.266-13.054-37.099-16.635-41.828-15.91z" fill="#565961"/><path d="m505.5 742.839h415v150h-415z" fill="#ff8c5f"/><path d="m920.5 740.839 42.5-25v154l-42.5 25z" fill="#fc8354"/><path d="m565.5 713.839h399.5l-48 30h-409z" fill="#fca887"/><path d="m503 802.839h420l40-29.5" stroke="#fd520f" stroke-width="2"/><path d="m662.5 722.839h15.5c3.167.333 10.2-.5 13-6.5 2.195-4.704 7.607-11.354 11.609-15.855 1.814-2.04 4.435-3.145 7.164-3.145h34.336c3.365 0 6.505 1.692 8.354 4.504l8.119 12.34c.93 1.414 1.374 3.122 2.223 4.586 1.158 1.996 3.714 4.07 8.695 4.07h23.5" stroke="#1855d1" stroke-linecap="round" stroke-width="6"/><path d="m668.5 718.839c0-1.105.895-2 2-2h9c1.657 0 3 1.343 3 3v9h-14z" fill="#f2fbf9"/><path d="m770.5 718.839c0-1.105.895-2 2-2h9c1.657 0 3 1.343 3 3v9h-14z" fill="#f2fbf9"/><path d="m583.5 793.839c0-1.105.895-2 2-2h20c1.657 0 3 1.343 3 3v33h-25z" fill="#f2fbf9"/><path d="m797.5 793.839c0-1.105.895-2 2-2h20c1.657 0 3 1.343 3 3v33h-25z" fill="#f2fbf9"/><rect fill="#c4c4c4" height="32" rx="5" width="17" x="587.5" y="800.839"/><rect fill="#c4c4c4" height="32" rx="5" width="17" x="801.5" y="800.839"/></svg>