<svg fill="none" height="638" viewBox="0 0 627 638" width="627" xmlns="http://www.w3.org/2000/svg"><path d="m153.34 489.68-17.966-53.792s-21.758-43.052-31.206-141.75l-2.821-26.267s-67.6082-245.1124 112.673-265.45413c118.488-13.35547 195.698 31.52473 234.723 63.86413 21.085 17.4781 25.737 41.547 31.132 68.357 4.702 23.329-17.768 68.061-8.34 92.328 40.585 104.375 47.316 111.139 58.254 124.79 6.237 7.801 28.311 25.057 42.515 51.151 28.484 52.311 21.852 132.172 21.852 132.172l-284.886 50.903s-89.484 12.788-123.808-13.059l-2.599-28.735" fill="#e4b652"/><path d="m212.014 0s-76.477 12.3962-104.668 13.7653c-28.1918 1.369-45.2499-3.90808-52.1126 40.773-6.8627 44.6811 11.1334 80.4507 20.1685 84.1847 9.3807 3.883 22.7851 5.675 34.1411-23.174 11.355-28.8502 23.673-64.7943 50.31-81.9199 22.513-14.4623 43.225-22.8011 49.125-25.04137 1.382-.52273 2.666-1.2197 3.851-2.06603 3.209-2.29006 7.899-6.5217-.815-6.5217z" fill="#544b43"/><path d="m383.94 32.7105s-5.505-15.5652 22.485-.5883c27.991 14.977 50.868 26.179 77.366 33.214 26.499 7.035 41.106 11.055 43.601 34.9548 2.52 23.899-20.087 60.177-40.469 81.012-11.206 11.472-18.497 7.967-22.779 2.501-3.328-4.241-4.845-9.658-4.747-15.051.172-8.898-1.003-29.047-12.503-50.519-8.612-16.056-38.413-69.4925-62.954-85.5235z" fill="#544b43"/><path d="m168.976 148.526s45.673-30.586 97.671-22.196c51.999 8.391 72.028 56.177 72.028 56.177" stroke="#544b43" stroke-linecap="round" stroke-linejoin="round" stroke-miterlimit="10" stroke-width="3"/><path d="m260.266 145.802s-31.739-9.628-33.636 16.708c-.219 3.132 1.216 6.31 4.062 7.829 3.453 1.823 9.631 2.571 20.575-1.799 0 0 4.062-2.337 7.442 1.589 3.405 3.926 6.494 10.072 16.903 9.067 4.281-.421 7.15-2.734 9.047-5.328 3.867-5.282 3.746-12.549-.608-17.457-3.648-4.136-10.603-8.506-23.785-10.609z" fill="#544b43"/><path d="m101.735 268.953s159.071 54.601 369.555-44.822l15.708 38.369s-206.637 99.633-384.743 37.472z" fill="#16d2aa"/><path d="m259.214 396.198c18.895 0 34.213-16.327 34.213-36.467 0-20.141-15.318-36.468-34.213-36.468-18.896 0-34.214 16.327-34.214 36.468 0 20.14 15.318 36.467 34.214 36.467z" fill="#fff"/><path d="m259.205 322.452c-21.091 0-38.21 17.087-38.21 38.193 0 21.082 17.095 38.194 38.21 38.194 21.09 0 38.209-17.087 38.209-38.194 0-21.106-17.119-38.193-38.209-38.193zm0 71.086c-18.18 0-32.931-14.745-32.931-32.917 0-18.173 14.726-32.917 32.931-32.917 18.18 0 32.931 14.72 32.931 32.917 0 18.196-14.751 32.917-32.931 32.917z" fill="#16d2aa"/><path d="m259.21 393.562c18.187 0 32.931-14.738 32.931-32.917 0-18.18-14.744-32.917-32.931-32.917s-32.931 14.737-32.931 32.917c0 18.179 14.744 32.917 32.931 32.917z" fill="#fff"/><path d="m242.706 368.573c1.06 1.307 2.466 1.972 4.242 1.972s3.182-.665 4.218-1.972 1.554-3.107 1.554-5.351v-11.835l6.315-3.797v15.83c0 4.093-1.134 7.249-3.404 9.443-2.269 2.195-5.155 3.304-8.707 3.304-3.528 0-6.438-1.109-8.733-3.328-2.269-2.22-3.428-5.351-3.428-9.419v-12.033l6.315-3.797v15.608c.049 2.293.567 4.068 1.628 5.375z" fill="#16d2aa"/><path d="m280.637 350.13c1.973 1.676 2.984 4.265 2.984 7.766 0 3.502-1.011 6.041-3.058 7.669-2.048 1.627-5.156 2.416-9.325 2.416h-3.774v4.093l-6.315 3.797v-28.281h9.991c4.341.025 7.499.863 9.497 2.54zm-4.638 11.12c.765-.839 1.135-2.096 1.135-3.723 0-1.628-.494-2.787-1.48-3.477-.987-.69-2.516-1.036-4.588-1.036h-3.602v9.518h4.243c2.097 0 3.527-.419 4.292-1.282z" fill="#16d2aa"/><path d="m259.369 318.107s2.615 6.352.116 9.785c-2.516 3.456 1.308 1.144 1.308 1.144s2.333-6.305 0-10.929c0 0-.497-2.522-1.424 0z" fill="#b5dfd5"/><path d="m137.128 301.204-79.2324-28.303c-11.7464-6.178-31.9874.419-43.0388 14.785-12.33866 16.044-.1416 78.262 109.4222 94.523" fill="#e4b652"/><path d="m132.83 298.278-18.689-7.401c-6.233-2.473-12.573-4.815-18.8688-7.206l-18.9316-7.124-19.0765-6.925.1243.068c-5.4816-2.926-13.3338-3.2-21.3792-.704-8.0236 2.392-16.2011 7.81-21.7088 14.477-2.8868 3.363-4.60672 7.215-5.40677 10.634-.78477 3.456-.87299 6.722-.59504 9.779.60499 6.155 2.75761 11.517 5.47351 16.441 5.6826 9.751 13.9587 17.556 23.2359 24.256 9.3295 6.671 19.8956 12.102 31.0596 16.705-10.5802-5.307-20.669-11.15-29.5507-18.146-8.9186-6.929-16.7086-14.965-21.9365-24.63-2.6101-4.822-4.5893-10.075-5.0904-15.896-.4892-5.712.3653-12.401 5.2762-18.078 4.8759-5.843 12.0313-10.445 19.148-12.688 7.1352-2.277 14.1347-2.116 19.0884.464l.0752.026.0752.027 19.2476 6.711 19.3924 6.513c6.485 2.144 12.907 4.37 19.456 6.431z" fill="#c58f2c"/><path d="m408.564 295.219-78.119-27.899c-11.581-6.089-31.539.404-42.437 14.553-12.167 15.801 2.564 65.233 79.307 87.667" fill="#e4b652"/><path d="m406.215 293.349-18.69-7.4c-6.232-2.473-12.572-4.816-18.868-7.206l-18.932-7.124-19.076-6.925.124.068c-5.481-2.926-13.333-3.2-21.379-.704-8.023 2.392-16.201 7.81-21.709 14.476-2.886 3.364-4.606 7.216-5.406 10.635-.785 3.456-.873 6.722-.595 9.779.605 6.155 2.757 11.517 5.473 16.441 5.683 9.751 13.959 17.556 23.236 24.256 9.329 6.671 19.895 12.102 31.059 16.705-10.58-5.307-20.669-11.15-29.55-18.146-8.919-6.929-16.709-14.965-21.937-24.63-2.61-4.822-4.589-10.075-5.09-15.896-.489-5.712.365-12.401 5.276-18.079 4.876-5.842 12.031-10.444 19.148-12.687 7.135-2.277 14.135-2.116 19.088.464l.076.026.075.026 19.247 6.712 19.393 6.513c6.485 2.144 12.907 4.369 19.455 6.431z" fill="#c58f2c"/><path d="m594.825 534.714s-9.77 33.485-38.389 61.381c-7.921 7.72-17.285 15.013-28.286 21.049-12.057 6.615-26.079 11.721-42.32 14.227-84.628 13.056-106.575 0-106.575 0s-15.504-9.136 12.269-26.136c27.774-17 45.227-24.814 45.227-24.814s-118.845 7.19-158.912 5.867" fill="#e4b652"/><path d="m341.877 584.594s-72.178 10.304-156.435 26.486c-43.342 8.312-64.233 7.501-73.837 5.706-6.485-1.23-11.8807-6.198-12.8956-12.666-.9406-6.099 1.5846-14.288 15.4946-22.65 27.847-16.723 29.258-12.837 29.258-12.837-34.183-36.668 10.198-78.746 10.198-78.746s48.415 73.213 118.316 83.984" fill="#e4b652"/><path d="m152.966 489.887c19.896 41.076 87.632 68.941 131.277 86.451z" fill="#e4b652"/><path d="m152.966 489.887c19.896 41.076 87.632 68.941 131.277 86.451" stroke="#c58f2c" stroke-miterlimit="10" stroke-width="1.302"/><path d="m435.925 580.913c-10.731-5.646-19.981-14.596-25.334-25.791-2.639-5.597-4.02-11.81-4.168-17.999-.148-6.214.937-12.403 2.836-18.296 1.974-5.893 4.884-11.317 8.017-16.619 3.355-5.128 6.882-10.158 11.002-14.695 8.041-9.222 17.094-17.408 26.69-24.854l-6.636 6.213c-2.244 2.022-4.292 4.291-6.463 6.411-2.195 2.096-4.193 4.364-6.24 6.583-2.097 2.17-3.972 4.537-5.896 6.88-3.823 4.66-7.326 9.567-10.533 14.646-2.984 5.203-5.772 10.529-7.597 16.2-1.875 5.646-3.01 11.539-2.911 17.457.049 5.917 1.381 11.786 3.651 17.284 2.343 5.474 5.747 10.479 9.793 14.942 3.971 4.463 8.633 8.408 13.789 11.638z" fill="#c48f2c"/><g fill="#c58f2c"><path d="m35.175 286.575c3.5741 3.579 7.9755 4.977 9.831 3.124 1.8554-1.853.4622-6.256-3.1118-9.835-3.574-3.578-7.9755-4.976-9.8309-3.123-1.8555 1.853-.4623 6.256 3.1117 9.834z"/><path d="m19.9322 288.378c2.7798 2.783 6.4062 3.668 8.0999 1.976 1.6937-1.691.8132-5.319-1.9666-8.102s-6.4063-3.668-8.0999-1.976c-1.6937 1.691-.8132 5.319 1.9666 8.102z"/><path d="m19.5833 301.187c3.0445 3.048 6.7461 4.287 8.2678 2.768 1.5217-1.52.2871-5.223-2.7574-8.272-3.0446-3.048-6.7462-4.287-8.2679-2.767-1.5216 1.52-.2871 5.223 2.7575 8.271z"/><path d="m35.4939 308.958c5.3434 5.35 12.361 7.004 15.6743 3.695s1.6676-10.329-3.6758-15.679-12.361-7.004-15.6743-3.695c-3.3133 3.31-1.6676 10.329 3.6758 15.679z"/><path d="m309.23 280.817c3.069 4.02 7.247 5.989 9.332 4.398 2.084-1.592 1.286-6.141-1.783-10.16-3.069-4.02-7.247-5.989-9.331-4.398-2.085 1.592-1.287 6.14 1.782 10.16z"/><path d="m294.842 279.853c2.387 3.127 5.649 4.648 7.287 3.398 1.638-1.251 1.03-4.799-1.357-7.926-2.387-3.126-5.649-4.647-7.287-3.397-1.638 1.251-1.03 4.799 1.357 7.925z"/><path d="m292.897 290.717c2.157 2.825 4.871 4.377 6.062 3.468s.408-3.936-1.749-6.761c-2.156-2.825-4.87-4.377-6.061-3.468s-.408 3.936 1.748 6.761z"/><path d="m306.448 302.867c4.511 5.909 11.185 8.396 14.908 5.554 3.722-2.842 3.082-9.935-1.429-15.844s-11.186-8.395-14.908-5.554c-3.722 2.842-3.082 9.936 1.429 15.844z"/></g><path d="m339.252 132.593s-1.547-13.298-11.604-14.624c-10.082-1.299-12.848 8.015-12.848 8.015" stroke="#1e1c1a" stroke-linecap="round" stroke-linejoin="round" stroke-miterlimit="10" stroke-width="3"/><path d="m204.604 115.557s-3.783-11.045-13.813-9.668c-10.053 1.375-11.126 10.03-11.126 10.03" stroke="#1e1c1a" stroke-linecap="round" stroke-linejoin="round" stroke-miterlimit="10" stroke-width="3"/><path d="m256.075 169.699-3.851 20.263s2.668 10.654 18.932 14.643c1.137.267 2.297.365 3.458.292 3.758-.219 11.995-1.314 16.032-6.349" stroke="#544b43" stroke-linecap="round" stroke-linejoin="round" stroke-miterlimit="10" stroke-width="3"/><path d="m252.224 188.911s-8.32 12.129-21.671 9.128c-13.351-3-13.55-9.128-13.55-9.128" stroke="#544b43" stroke-linecap="round" stroke-linejoin="round" stroke-miterlimit="10" stroke-width="3"/><path d="m567.326 470.203s14.643-13.566 25.051-37.769 29.493-9.386 32.101 2.728c2.557 11.889 14.359 41.674-54.647 73.937l-10.227-21.2z" fill="#e4b652"/></svg>