<svg fill="none" height="230" viewBox="0 0 230 230" width="230" xmlns="http://www.w3.org/2000/svg"><circle cx="115" cy="115" fill="#f2fbf9" r="115"/><ellipse cx="99.7891" cy="208" fill="#c4c4c4" fill-opacity=".5" rx="88.5" ry="19"/><path d="m23.9195 107.498s-18.4674-69.9986 30.7767-75.8078c32.3585-3.814 53.4558 9.0028 64.1088 18.2382 5.779 5.0125 9.754 11.9215 11.228 19.6059 1.27 6.6551 1.96 15.1644-.602 22.0663 0 0 1.514 12.8734 22.381 30.2094 0 0 16.629 9.313 24.409 24.258 7.781 14.946 5.131 34.862 5.131 34.862s-1.947 23.611-25.112 27.298c-23.172 3.687-29.182 0-29.182 0s-4.245-2.58 3.36-7.381 12.384-7.008 12.384-7.008-32.541 2.03-43.5123 1.657c0 0-2.8323 17.152-17.8658 18.816s-.8855-19.923-.8855-19.923-17.5075.55-26.8832-6.825c0 0 1.3249 16.603-11.8496 19.74-13.1746 3.138-17.4197-4.244-14.5942-6.824 2.8323-2.58 8.8417-6.641 8.8417-6.641l-6.0972-41.228s-4.9413-3.433-5.2726-37.619z" fill="#e4b652"/><path d="m181.134 162.636s3.833-3.821 6.557-10.639c2.724-6.817 7.72-2.644 8.403.769.669 3.348 3.758 11.738-14.304 20.825l-2.677-5.971z" fill="#e4b652"/><path d="m44.742 32.2625s-20.0491 7.2262-27.5861 8.9957c-7.53706 1.7695-12.3905 1.1421-12.14715 13.9377.24334 12.7957 6.77315 21.8971 9.38915 22.4964 2.7106.6204 6.4149.4582 8.1251-8.1497 1.7102-8.608 3.3461-19.2393 9.7339-25.3305 5.3875-5.1394 10.5857-8.4881 12.066-9.4046.3448-.2115.6625-.4653.9464-.7685.7571-.7966 1.8251-2.2066-.5273-1.7765z" fill="#544b43"/><path d="m93.4569 35.4116s-2.2374-4.1312 6.0905-1.2831c8.3276 2.8482 15.0876 4.8857 22.6376 5.5625 7.551.6767 11.708 1.0856 13.533 7.7337s-2.602 18.0479-7.151 24.9639c-2.501 3.807-4.658 3.1795-6.084 1.8471-1.109-1.0364-1.778-2.4957-2.008-4.0255-.378-2.531-1.656-8.178-5.806-13.691-3.116-4.1313-13.776-17.787-21.2121-21.1076z" fill="#544b43"/><path d="m42.1953 77.916s10.7073-11.1672 25.2203-11.7312 22.4962 11.7312 22.4962 11.7312" stroke="#544b43" stroke-linecap="round" stroke-linejoin="round" stroke-miterlimit="10" stroke-width="1.6"/><path d="m66.5009 72.0427s-9.1932-1.0434-8.2266 6.8525c.115.9377.6895 1.7977 1.5548 2.0868 1.041.3454 2.7714.2115 5.5091-1.699 0 0 .9734-.9236 2.1225.0493 1.1492.9658 2.3389 2.6085 5.1238 1.7202 1.1424-.3666 1.7914-1.2126 2.1631-2.0938.7504-1.7837.311-3.9269-1.1559-5.1324-1.237-1.0152-3.3798-1.9176-7.0908-1.7836z" fill="#544b43"/><path d="m22.1133 98.6313s52.8591 21.5137 107.3277-7.1401l3.452 9.0068s-64.2042 31.503-110.6516 7.073z" fill="#16d2aa"/><path d="m68.6908 138.053c-5.1781 0-9.3757-4.492-9.3757-10.033s4.1976-10.033 9.3757-10.033c5.178 0 9.3756 4.492 9.3756 10.033s-4.1976 10.033-9.3756 10.033z" fill="#fff"/><path d="m68.6894 117.765c5.7796 0 10.4708 4.701 10.4708 10.507 0 5.8-4.6845 10.508-10.4708 10.508-5.7795 0-10.4707-4.701-10.4707-10.508 0-5.806 4.6912-10.507 10.4707-10.507zm0 19.556c4.9819 0 9.0242-4.056 9.0242-9.056 0-4.999-4.0355-9.055-9.0242-9.055-4.9818 0-9.0241 4.049-9.0241 9.055.0067 5.007 4.0423 9.056 9.0241 9.056z" fill="#16d2aa"/><path d="m68.6907 137.329c-4.9839 0-9.0242-4.055-9.0242-9.056 0-5.002 4.0403-9.056 9.0242-9.056s9.0241 4.054 9.0241 9.056c0 5.001-4.0402 9.056-9.0241 9.056z" fill="#fff"/><path d="m64.1766 130.455c.2907.36.676.543 1.1627.543s.872-.183 1.1559-.543c.2839-.359.4258-.854.4258-1.472v-3.256l1.7305-1.044v4.355c0 1.126-.3109 1.994-.9328 2.598-.6219.603-1.4128.909-2.3862.909-.9666 0-1.7643-.306-2.3929-.916-.6219-.611-.9396-1.472-.9396-2.591v-3.311l1.7305-1.044v4.294c.0135.63.1622 1.119.4461 1.478z" fill="#16d2aa"/><path d="m74.5784 125.381c.5408.462.8179 1.174.8179 2.137s-.2771 1.662-.8382 2.11c-.561.447-1.4127.665-2.5551.665h-1.0342v1.126l-1.7305 1.044v-7.78h2.7376c1.1897.006 2.055.237 2.6025.698zm-1.2708 3.06c.2095-.231.3109-.577.3109-1.025 0-.447-.1351-.766-.4055-.956s-.6895-.285-1.2573-.285h-.9869v2.618h1.1626c.5746 0 .9667-.115 1.1762-.352z" fill="#16d2aa"/><path d="m68.9264 115.648s.9808 1.638.0435 2.523c-.9436.892.4904.296.4904.296s.8753-1.626 0-2.819c0 0-.1862-.65-.5339 0z" fill="#b5e0d6"/><path d="m67.7461 116.932.3002-.071v.854l-.3002.047z" fill="#b5e0d6"/><g fill="#c58f2c"><path d="m53.6692 188.093s-.311-15.806.534-17.717c.8382-1.91 3.0891-.712-.534 17.717z"/><path d="m80.5352 194.402s1.8589-17.758 1.7169-22.82c-.1487-5.386 2.1631 10.342-1.7169 22.82z"/><path d="m99.2852 195.509s1.6768-19.126 4.2318-21.185c2.555-2.058-4.2318 21.185-4.2318 21.185z"/><path d="m142.726 193.846s-10.194-3.095-9.883-12.14 7.422-16.863 7.422-16.863-19.515 22.961 2.461 29.003z"/></g><path d="m43.1328 67.3812s.7436-3.1301 3.7922-3.2782c3.0554-.141 3.6908 2.115 3.6908 2.115" stroke="#1e1c1a" stroke-linecap="round" stroke-linejoin="round" stroke-miterlimit="10" stroke-width="2"/><path d="m83.1172 66.4898s1.379-2.8905 4.387-2.3336c3.0148.557 3.1568 2.8975 3.1568 2.8975" stroke="#1e1c1a" stroke-linecap="round" stroke-linejoin="round" stroke-miterlimit="10" stroke-width="2"/><path d="m62.8293 87.4889s.7219 4.5181 3.3132 4.8718c2.5866.3575 3.8027-3.9975 3.8027-3.9975l-3.6728-3.0878z" fill="#da4351"/><path d="m66.3555 78.8887v5.9924s1.3384 2.8693 6.2053 3.0385c.338.0141.676-.0352 1.0072-.1269 1.0613-.289 3.3528-1.0856 4.2316-2.7565" stroke="#544b43" stroke-linecap="round" stroke-linejoin="round" stroke-miterlimit="10" stroke-width="1.6"/><path d="m66.3511 84.873s-2.2577 4.0467-5.8809 3.0456-3.6772-3.0456-3.6772-3.0456" stroke="#544b43" stroke-linecap="round" stroke-linejoin="round" stroke-miterlimit="10" stroke-width="1.6"/></svg>