<svg fill="none" height="186" viewBox="0 0 420 186" width="420" xmlns="http://www.w3.org/2000/svg" xmlns:xlink="http://www.w3.org/1999/xlink"><linearGradient id="a" gradientUnits="userSpaceOnUse" x1="180.725" x2="183.042" y1="78.2371" y2="121.923"><stop offset="0" stop-color="#d1c6c6"/><stop offset="1" stop-color="#988189"/></linearGradient><clipPath id="b"><path d="m0 0h420v186h-420z"/></clipPath><g clip-path="url(#b)"><rect fill="#e4f2fa" height="186" rx="15" width="420"/><ellipse cx="269.5" cy="168" fill="#000" fill-opacity=".19" rx="124.5" ry="10"/><path d="m238.829 138.635-3.655-10.965s-13.764-6.164-6.348-28.895l-.574-5.3543s-13.754-49.9651 22.922-54.1116c24.105-2.7225 39.812 6.4261 47.751 13.0184 4.29 3.5628 5.236 8.4692 6.334 13.9342.956 4.7555-3.615 13.8739-1.697 18.8206 8.257 21.2767 9.626 22.6547 11.851 25.4377 1.269 1.59 5.76 5.108 8.649 10.427 5.795 10.663 4.446 26.943 4.446 26.943l-57.957 10.376s-18.204 2.607-25.187-2.662l-.529-5.857" fill="#e4b652"/><path d="m327.8 139.878s2.866-2.724 4.903-7.586c2.037-4.861 5.772-1.885 6.282.548.501 2.388 2.81 8.371-10.694 14.851l-2.002-4.258z" fill="#e4b652"/><path d="m250.47 38.5391s-15.635 2.5107-21.398 2.788-9.25-.7915-10.653 8.2582c-1.403 9.0498 2.276 16.2947 4.123 17.0509 1.918.7865 4.658 1.1495 6.979-4.6938 2.322-5.8433 4.84-13.1234 10.285-16.5921 4.603-2.9292 8.837-4.6181 10.043-5.0719.282-.1058.545-.247.787-.4184.656-.4639 1.615-1.3209-.166-1.3209z" fill="#544b43"/><path d="m241.932 68.8592s9.358-6.2483 20.011-4.5342c10.653 1.7142 14.757 11.4763 14.757 11.4763" stroke="#544b43" stroke-linecap="round" stroke-linejoin="round" stroke-miterlimit="10" stroke-width="2"/><path d="m260.402 68.271s-6.576-2.0447-6.969 3.5484c-.045.6651.252 1.34.842 1.6626.715.3871 1.995.5459 4.263-.3821 0 0 .842-.4963 1.542.3374.705.8338 1.345 2.1391 3.502 1.9257.887-.0894 1.482-.5807 1.875-1.1316.801-1.1216.776-2.6651-.126-3.7073-.756-.8784-2.197-1.8065-4.929-2.2531z" fill="#544b43"/><path d="m228.219 93.4188s32.36 11.3382 75.18-9.3075l3.636 7.6769s-42.477 20.9798-78.71 8.0718z" fill="#16d2aa"/><path d="m253.718 115.343c2.743 0 4.966-2.37 4.966-5.294 0-2.923-2.223-5.293-4.966-5.293s-4.966 2.37-4.966 5.293c0 2.924 2.223 5.294 4.966 5.294z" fill="#fff"/><path d="m253.718 104.639c-3.061 0-5.546 2.48-5.546 5.544 0 3.06 2.481 5.543 5.546 5.543 3.061 0 5.546-2.48 5.546-5.543 0-3.064-2.485-5.544-5.546-5.544zm0 10.318c-2.639 0-4.78-2.14-4.78-4.778s2.138-4.778 4.78-4.778c2.639 0 4.78 2.137 4.78 4.778s-2.141 4.778-4.78 4.778z" fill="#16d2aa"/><path d="m253.718 114.96c2.64 0 4.78-2.139 4.78-4.778s-2.14-4.778-4.78-4.778-4.78 2.139-4.78 4.778 2.14 4.778 4.78 4.778z" fill="#fff"/><path d="m251.323 111.335c.154.189.358.286.616.286.257 0 .462-.097.612-.286.15-.19.226-.451.226-.777v-1.718l.916-.551v2.298c0 .594-.165 1.052-.494 1.371-.329.318-.748.479-1.264.479-.512 0-.934-.161-1.267-.483-.33-.322-.498-.777-.498-1.367v-1.747l.917-.551v2.266c.007.332.082.59.236.78z" fill="#16d2aa"/><path d="m256.83 108.658c.286.243.433.619.433 1.127s-.147.877-.444 1.113-.748.351-1.354.351h-.547v.594l-.917.551v-4.105h1.45c.63.004 1.089.125 1.379.369zm-.674 1.614c.111-.122.165-.304.165-.541 0-.236-.071-.404-.215-.504-.143-.1-.365-.151-.666-.151h-.522v1.382h.615c.305 0 .512-.061.623-.186z" fill="#16d2aa"/><path d="m254.42 103.389s.792 1.374.035 2.117c-.762.747.396.247.396.247s.707-1.364 0-2.364c0 0-.151-.546-.431 0z" fill="#b5dfd5"/><path d="m253.502 104.022.277-.043v.525l-.277.029z" fill="#b5dfd5"/><path d="m259.387 73.0312-.833 4.1438s.577 2.1788 4.095 2.9947c.246.0547.497.0746.748.0597.813-.0448 2.595-.2687 3.468-1.2984" stroke="#544b43" stroke-linecap="round" stroke-linejoin="round" stroke-miterlimit="10" stroke-width="2"/><path d="m258.554 77.0488s-1.669 2.7985-4.346 2.1062c-2.678-.6923-2.718-2.1062-2.718-2.1062" stroke="#544b43" stroke-linecap="round" stroke-linejoin="round" stroke-miterlimit="10" stroke-width="2"/><path d="m246.78 63.7509c1.224 0 2.216-.9922 2.216-2.2163 0-1.224-.992-2.2162-2.216-2.2162s-2.217.9922-2.217 2.2162c0 1.2241.993 2.2163 2.217 2.2163z" fill="#1d1c1a"/><path d="m276.284 69.2919c1.224 0 2.216-.9922 2.216-2.2162 0-1.2241-.992-2.2163-2.216-2.2163s-2.216.9922-2.216 2.2163c0 1.224.992 2.2162 2.216 2.2162z" fill="#1d1c1a"/><path d="m227.702 106.495 10.231-15.4729c1.395-2.7088 4.855-3.7662 7.404-2.0895 2.846 1.873 3.889 10.3319-3.516 23.2214" fill="#e4b652"/><path d="m227.702 106.495 2.448-3.937c.816-1.314 1.657-2.6132 2.489-3.9173l2.503-3.9072 2.539-3.882-.015.0302c.67-1.3192 1.879-2.3564 3.294-2.8146 1.405-.4783 3.027-.3172 4.312.4481.665.3726 1.178.997 1.521 1.6414.343.6546.564 1.3545.715 2.0544.297 1.4148.302 2.8498.192 4.2596-.267 2.8297-1.063 5.5584-2.086 8.1714-1.032 2.614-2.337 5.111-3.788 7.503 1.315-2.472 2.519-5 3.461-7.628.952-2.619 1.657-5.3375 1.859-8.0917.1-1.3746.075-2.7643-.217-4.0935-.287-1.3041-.846-2.6535-1.975-3.2778-1.133-.6647-2.543-.7754-3.798-.3777-1.259.3928-2.342 1.2991-2.951 2.4773l-.01.0151-.011.0151-2.579 3.8568-2.614 3.8317c-.876 1.2737-1.738 2.5577-2.629 3.8217z" fill="#c58f2c"/><path d="m329.731 147.064s-7.096 20.766-24.51 21.447c-17.42.681-21.566-2.434-21.566-2.434s-2.931-2.183 3.073-4.951c6.004-2.769 9.713-3.934 9.713-3.934s-18.762 2.246-26.84 1.066" fill="#e4b652"/><path d="m277.115 158.046s-14.667 2.107-31.79 5.414c-8.807 1.7-13.053 1.534-15.004 1.167-1.318-.252-2.415-1.267-2.621-2.589-.191-1.247.322-2.921 3.149-4.63 5.659-3.418 5.945-2.624 5.945-2.624-6.946-7.495 2.073-16.096 2.073-16.096s9.839 14.965 24.043 17.167" fill="#e4b652"/><path d="m281.076 122.064s-18.97-6.907-21.043-3.496-10.943-1.293-1.464-11.476c9.479-10.1836 31.672-2.664 31.672-2.664" fill="#e4b652"/><path d="m281.075 122.065c-2.859-1.095-5.775-2.059-8.718-2.921-1.474-.416-2.962-.805-4.468-1.12s-3.027-.583-4.581-.649c-.779-.025-1.572-.008-2.366.231-.385.131-.803.331-1.08.719l-.168.232c-.049.069-.097.138-.162.191-.109.129-.25.222-.386.316-.578.34-1.319.395-1.988.187-.679-.189-1.274-.627-1.718-1.175-.434-.561-.705-1.239-.81-1.955-.105-.715-.041-1.45.13-2.168.335-1.437 1.059-2.782 1.911-4.017.224-.304.433-.613.666-.914.241-.293.468-.591.713-.878l.751-.85.8-.787c1.112-1.005 2.387-1.825 3.751-2.459s2.815-1.092 4.292-1.415c1.483-.311 2.993-.491 4.508-.586 3.037-.18 6.095.026 9.118.453 3.027.419 6.026 1.056 8.965 1.916-2.9-1.001-5.892-1.71-8.917-2.233-3.027-.498-6.108-.764-9.19-.64-3.079.109-6.188.664-9.025 1.96-1.416.649-2.752 1.493-3.919 2.538l-.843.821-.776.863c-.253.295-.492.6-.741.901-.24.305-.463.625-.694.937-.875 1.286-1.625 2.697-1.981 4.249-.177.773-.246 1.587-.122 2.393.12.804.436 1.586.948 2.236.522.636 1.218 1.138 2.024 1.362.79.241 1.705.188 2.45-.262.177-.123.355-.252.496-.413.082-.074.141-.161.205-.246l.171-.237c.163-.249.473-.41.801-.527.673-.22 1.435-.257 2.182-.247 1.507.03 3.016.267 4.517.549 1.499.286 2.987.643 4.467 1.024 2.948.763 5.875 1.663 8.787 2.621z" fill="#c58f2c"/><path d="m238.607 138.688c4.094 8.424 18.031 14.139 27.011 17.73z" fill="#e4b652"/><path d="m238.607 138.688c4.094 8.424 18.031 14.139 27.011 17.73" stroke="#c58f2c" stroke-miterlimit="10" stroke-width="1.302"/><path d="m296.308 157.164c-2.191-1.153-4.08-2.981-5.173-5.267-.539-1.143-.821-2.412-.851-3.676-.03-1.268.191-2.532.579-3.736.403-1.203.998-2.311 1.637-3.393.685-1.047 1.406-2.075 2.247-3.001 1.642-1.883 3.491-3.555 5.45-5.075l-1.355 1.268c-.458.413-.876.877-1.32 1.31-.448.428-.856.891-1.274 1.344-.428.443-.811.926-1.204 1.405-.781.951-1.496 1.953-2.151 2.991-.609 1.062-1.178 2.15-1.551 3.308-.383 1.153-.615 2.356-.595 3.564.01 1.209.282 2.407.746 3.53.478 1.118 1.174 2.14 2 3.051.811.912 1.763 1.717 2.815 2.377z" fill="#c48f2c"/><path d="m233.275 160.297c1.033 0 1.87-.434 1.87-.97 0-.535-.837-.97-1.87-.97s-1.87.435-1.87.97c0 .536.837.97 1.87.97z" fill="#c58f2c"/><path d="m231.335 162.514c.804 0 1.455-.341 1.455-.762s-.651-.762-1.455-.762c-.803 0-1.454.341-1.454.762s.651.762 1.454.762z" fill="#c58f2c"/><path d="m233.136 164.175c.88 0 1.593-.249 1.593-.555s-.713-.554-1.593-.554-1.593.248-1.593.554.713.555 1.593.555z" fill="#c58f2c"/><path d="m237.084 163.482c1.836 0 3.324-.775 3.324-1.731s-1.488-1.731-3.324-1.731-3.325.775-3.325 1.731 1.489 1.731 3.325 1.731z" fill="#c58f2c"/><path d="m245.05 153.539s-8.568.7-9.006 1.264z" fill="#e4b652"/><path d="m245.05 153.539c-.75.141-1.506.247-2.256.347-.751.106-1.506.192-2.262.282l-2.262.247c-.377.035-.755.081-1.128.136s-.766.076-1.098.252c.136-.141.332-.197.509-.267.181-.06.367-.116.554-.166.373-.091.745-.166 1.123-.242.751-.146 1.506-.242 2.262-.332.755-.081 1.516-.156 2.277-.197.76-.04 1.521-.07 2.281-.06z" fill="#c58f2c"/><rect fill="#fbcaca" height="4.15634" rx="2" transform="matrix(-.931669 -.359192 -.365586 .932372 320.865 63.959)" width="36.9786"/><path d="m0 0h33.6414v4.23913h-33.6414z" fill="#8b939f" transform="matrix(-.931669 -.359192 -.365586 .932372 317.774 62.7188)"/><path d="m0 0h31.7904v4.34814h-31.7904z" fill="#fedf85" transform="matrix(-.931669 -.359192 -.365586 .932372 316.051 62.0488)"/><path d="m284.938 54.579 1.552-4.0447-4.415.4653z" fill="#343440"/><path d="m284.939 54.5774 1.552-4.0447-3.223.3026-.443 1.1556z" fill="#fff"/><path d="m281.861 50.8449 1.445-.0519-.467 1.2903z" fill="#565961"/><path d="m285.378 45.2593s-1.138-3.1952 4.648-.1208c5.785 3.0745 10.514 5.374 15.991 6.8182 5.477 1.4441 8.496 2.2693 9.012 7.1754.521 4.906-4.152 12.3531-8.365 16.6302-2.316 2.3549-3.823 1.6353-4.708.5132-.688-.8705-1.001-1.9825-.981-3.0895.035-1.8266-.208-5.9627-2.584-10.3706-1.781-3.2959-7.94-14.2653-13.013-17.5561z" fill="#544b43"/><path d="m268.808 119.453c.295 0 .578.112.787.312s.326.471.326.754c0 .283-.117.554-.326.754s-.492.312-.787.312h-36.893l-2.081-2.132z" fill="#988189"/><path d="m209.459 78.3008c.234-.0002.463.0642.663.186s.362.2964.469.5046l21.802 42.5946h-66.153c-.228 0-.452-.062-.649-.178-.196-.117-.358-.284-.467-.484l-22.343-40.7391c-.08-.1467-.131-.3079-.149-.4741-.018-.1663-.003-.3343.044-.4948s.125-.3102.23-.4405c.105-.1302.234-.2386.381-.3188.187-.1025.397-.156.61-.1559z" fill="url(#a)"/><path d="m190.58 106.979c2.409-.637 3.561-2.321 3.859-4.331 0-1.927 0-5.5984-3.346-7.4678-1.937-1.1592-4.431-1.6497-6.599-1.0669-3.83 1.035-5.27 4.5732-4.223 8.5027 1.048 3.93 6.479 5.398 10.309 4.363z" fill="#cdc3c1"/><path d="m190.135 105.961c.848-.19 1.617-.644 2.197-1.299.581-.654.945-1.477 1.041-2.351 0-1.621 0-4.711-2.798-6.278-1.622-.9746-3.718-1.3854-5.532-.8918-3.212.8727-4.423 3.8507-3.549 7.1568.874 3.306 5.441 4.535 8.641 3.663z" opacity=".66" stroke="#e4e3e3" stroke-dasharray="5 5" stroke-linecap="round" stroke-miterlimit="10"/><path d="m183.351 99.263s.877 3.8 2.955 3.547c2.077-.253-.161-3.8256-.161-3.8256" opacity=".66" stroke="#e4e3e3" stroke-linecap="round" stroke-linejoin="round" stroke-width="3"/><path d="m189.127 103.248-1.725-4.9408s2.735-.6855 3.492.6467c.758 1.3321-1.967 1.5391-1.967 1.5391" opacity=".66" stroke="#e4e3e3" stroke-linecap="round" stroke-linejoin="round" stroke-width="3"/><g fill="#7c6c53"><path d="m139 122h209v8h-209z"/><path d="m339 129h9l-4.39 43-4.61-.977z"/><path d="m139 126h9l-4.39 43-4.61-.977z"/><path d="m360 129h9v38h-9z"/><path d="m160 126h9v38h-9z"/></g><path d="m348 122h23v6.5l-23 1.5z" fill="#685a45"/><path d="m344 130h4v41.638l-4 1.362z" fill="#685a45"/><path d="m144 130h4v38.733l-4 1.267z" fill="#685a45"/><path d="m365 122h4v43.575l-4 1.425z" fill="#685a45"/><path d="m165 130h4v32.923l-4 1.077z" fill="#685a45"/><path d="m278.45 84.4824h33.05v37.5276h-33.05z" fill="#3d8dc7"/><path d="m311.5 84.4824h5.33065v37.5277h-5.33065z" fill="#287dba"/><path d="m316.831 84.4824h12.153v37.5276h-12.153z" fill="#2c6f9f"/><path d="m315.125 114.549h28.9987v7.03645h-28.9987z" fill="#e0dcdc"/><path d="m344.123 114.549h21.3226v7.03645h-21.3226z" fill="#ca6060"/><path d="m315.125 114.549h28.9987v.426452h-28.9987z" fill="#ca6060"/><path d="m315.125 121.158h28.9987v.426452h-28.9987z" fill="#ca6060"/><path d="m315.125 115.828h28.9987v.213226h-28.9987z" fill="#b0abab"/><path d="m315.125 116.895h28.9987v.213226h-28.9987z" fill="#b0abab"/><path d="m315.125 117.961h28.9987v.213226h-28.9987z" fill="#b0abab"/><path d="m315.125 119.027h28.9987v.213226h-28.9987z" fill="#b0abab"/><path d="m315.125 120.094h28.9987v.213226h-28.9987z" fill="#b0abab"/><path d="m312.566 107.512h28.9987v7.03645h-28.9987z" fill="#e0dcdc"/><path d="m341.564 107.512h21.3226v7.03645h-21.3226z" fill="#287b8d"/><path d="m312.566 107.512h28.9987v.426452h-28.9987z" fill="#287b8d"/><path d="m312.566 114.121h28.9987v.426452h-28.9987z" fill="#287b8d"/><path d="m312.566 108.791h28.9987v.213226h-28.9987z" fill="#b0abab"/><path d="m312.566 109.857h28.9987v.213226h-28.9987z" fill="#b0abab"/><path d="m312.566 110.924h28.9987v.213226h-28.9987z" fill="#b0abab"/><path d="m312.566 111.99h28.9987v.213226h-28.9987z" fill="#b0abab"/><path d="m312.566 113.057h28.9987v.213226h-28.9987z" fill="#b0abab"/><path d="m272 60c.252 1.2905 1.377 3.6623 3.863 2.8252 2.485-.8371 5.793-.3488 7.137 0" stroke="#000" stroke-linecap="round" stroke-width="1.5"/><path d="m63.5 90c19.6061 0 35.5-15.8939 35.5-35.5s-15.8939-35.5-35.5-35.5-35.5 15.8939-35.5 35.5 15.8939 35.5 35.5 35.5z" fill="#fed766"/><path d="m63.841 68.6559c-10.8925 0-14.7191-4.9463-14.8754-5.1546-.0559-.0734-.0859-.1633-.0852-.2556v-11.6771c0-.0563.0112-.1121.0329-.1641s.0535-.0992.0936-.1388.0876-.0709.1399-.092c.0522-.0212.1082-.0317.1645-.0311h29.5471c.0563-.0006.1123.0099.1645.0311.0523.0211.0998.0524.1399.092s.0719.0868.0936.1388c.0218.052.0329.1078.0329.1641v11.6771c-.0013.1001-.0363.1968-.0994.2746-.18.2082-4.4754 5.1356-15.3489 5.1356z" fill="#2a4494"/><path d="m62.4015 61.902c-.064 0-.1271-.0146-.1847-.0426l-22.1496-10.1199c-.0764-.0322-.1415-.0862-.1874-.1552-.0458-.069-.0702-.15-.0702-.2329 0-.0828.0244-.1638.0702-.2329.0459-.069.111-.123.1874-.1552l23.5893-9.6844c.1083-.0411.228-.0411.3363 0l22.9263 9.6844c.0774.0324.1436.087.1901.1569s.0713.152.0713.2359c0 .084-.0248.1661-.0713.236-.0465.0698-.1127.1245-.1901.1569l-24.3471 10.1199c-.0543.0214-.1121.0327-.1705.0331z" fill="#1855d1"/><path d="m76.9927 72.4862h-2.8794c-.066-.0005-.1309-.0162-.1899-.0459-.0589-.0296-.1103-.0723-.1501-.1249s-.067-.1136-.0795-.1784c-.0125-.0647-.0099-.1315.0075-.1951l1.4208-4.9037c.0257-.0892.0799-.1675.1543-.223s.1648-.0853.2577-.0847c.0934-.0008.1846.0287.2598.0842.0751.0555.1302.1339.1569.2235l1.4208 4.9037c.0175.064.02.1312.0072.1963-.0127.0651-.0403.1264-.0807.179-.0403.0527-.0923.0954-.1518.1247-.0596.0293-.1251.0445-.1915.0443z" fill="#fff"/><path d="m75.9839 67.3834h-.8571v-10.7873l-10.9588-5.4102.3836-.7621 11.1955 5.5238c.0711.0359.1308.0906.1726.1583s.064.1456.0642.2251z" fill="#fff"/><path d="m66.0147 50.8073c0 .7005-.7672 1.2733-1.7191 1.2733s-1.7238-.5728-1.7238-1.2733.7719-1.278 1.7238-1.278 1.7191.5727 1.7191 1.278z" fill="#fff"/></g></svg>