<svg fill="none" height="200" viewBox="0 0 739 725" width="200" xmlns="http://www.w3.org/2000/svg"><ellipse cx="376.5" cy="645.5" fill="#c4c4c4" fill-opacity=".5" rx="339.5" ry="53.5"/><path d="m76.2217 295.86s-66.53147-242.3574 110.8653-262.4674c116.59-13.2134 192.591 31.1567 230.987 63.1374 20.827 17.333 35.139 41.258 40.437 67.898 4.598 23.039 12.301 68.752 3.106 92.646 0 0 .182 28.319 75.392 88.344 0 0 59.893 32.255 87.937 83.98 28.044 51.724 18.482 120.69 18.482 120.69s-7.003 81.752-90.494 94.508c-83.492 12.786-105.141 0-105.141 0s-15.286-8.941 12.118-25.542c27.405-16.6 44.608-24.26 44.608-24.26s-117.259 7.019-156.752 5.737c0 0-10.2 59.384-64.369 65.152-54.169 5.767-3.197-68.966-3.197-68.966s-63.091 1.922-96.859-23.62c0 0 4.78 57.492-42.69 68.325-47.4702 10.834-62.7556-14.678-52.5856-23.619 10.2004-8.941 31.8496-22.978 31.8496-22.978l-21.9536-142.723s-17.8128-11.902-19.0003-130.242z" fill="#e4b652"/><path d="m74.2217 289.86s-66.53147-242.3574 110.8653-262.4674c116.59-13.2134 192.591 31.1567 230.987 63.1374 20.827 17.333 35.139 41.258 40.437 67.898 4.598 23.039 12.301 68.752 3.106 92.646 0 0 .182 28.319 75.392 88.344 0 0 59.893 32.255 87.937 83.98 28.044 51.724 18.482 120.69 18.482 120.69s-7.003 81.752-90.494 94.508c-83.492 12.786-105.141 0-105.141 0s-15.286-8.941 12.118-25.542c27.405-16.6 44.608-24.26 44.608-24.26s-117.259 7.019-156.752 5.737c0 0-10.2 59.384-64.369 65.152-54.169 5.767-3.197-68.966-3.197-68.966s-63.091 1.922-96.859-23.62c0 0 4.78 57.492-42.69 68.325-47.4702 10.834-62.7556-14.678-52.5856-23.619 10.2004-8.941 31.8496-22.978 31.8496-22.978l-21.9536-142.723s-17.8128-11.902-19.0003-130.242z" fill="#e4b652"/><path d="m645.476 526.602s13.93 13.056 38.135 21.691c24.205 8.605 10.507 27.145-1.25 30.153-11.545 2.937-40.228 15.373-74.908-47.717l20.316-10.557z" fill="#e4b652"/><path d="m76 295.463s192 75.037 385.5-36.963l24 35s-232.378 118.292-408.9822 33.113z" fill="#16d2aa"/><g fill="#c48f2c"><path d="m183.22 574s-1.217-54.175 2.072-60.732c3.289-6.556 12.037-2.417-2.072 60.732z"/><path d="m281 597s5.749-61.668 5.304-79.235c-.47-18.668 6.69 35.93-5.304 79.235z"/><path d="m348 601s5.913-66.418 14.962-73.55c9.048-7.162-14.962 73.55-14.962 73.55z"/><path d="m505 595s-37.06-10.775-35.923-42.273c1.137-31.497 26.981-58.727 26.981-58.727s-70.986 79.94 8.942 101z"/></g><path d="m240.907 434.234c18.678 0 33.82-16.152 33.82-36.077s-15.142-36.077-33.82-36.077-33.82 16.152-33.82 36.077 15.142 36.077 33.82 36.077z" fill="#fff"/><path d="m240.907 361.256c-20.86 0-37.785 16.926-37.785 37.785 0 20.86 16.925 37.785 37.785 37.785 20.859 0 37.785-16.925 37.785-37.785-.031-20.859-16.926-37.785-37.785-37.785zm0 70.325c-17.993 0-32.54-14.578-32.54-32.54 0-17.993 14.578-32.539 32.54-32.539 17.993 0 32.539 14.577 32.539 32.539s-14.577 32.54-32.539 32.54z" fill="#16d2aa"/><path d="m240.907 431.58c17.971 0 32.539-14.568 32.539-32.539s-14.568-32.54-32.539-32.54-32.54 14.569-32.54 32.54 14.569 32.539 32.54 32.539z" fill="#fff"/><path d="m224.561 406.909c1.037 1.281 2.44 1.952 4.208 1.952 1.769 0 3.142-.641 4.178-1.952 1.037-1.281 1.556-3.05 1.556-5.307v-11.71l6.251-3.751v15.644c0 4.056-1.128 7.167-3.354 9.332s-5.123 3.263-8.6 3.263c-3.507 0-6.374-1.098-8.63-3.293-2.257-2.196-3.386-5.307-3.386-9.332v-11.894l6.252-3.751v15.462c-.03 2.287.488 4.056 1.525 5.337z" fill="#16d2aa"/><path d="m262.102 388.672c1.952 1.677 2.928 4.239 2.928 7.685s-1.007 5.977-3.019 7.594c-2.013 1.616-5.093 2.409-9.21 2.409h-3.721v4.056l-6.252 3.751v-27.965h9.881c4.3-.031 7.411.793 9.393 2.47zm-4.605 11.009c.732-.854 1.128-2.073 1.128-3.69 0-1.616-.487-2.775-1.463-3.446s-2.501-1.006-4.544-1.006h-3.568v9.393h4.208c2.074 0 3.507-.427 4.239-1.251z" fill="#16d2aa"/><path d="m241.176 356.221s4.123 6.935.162 10.705c-3.929 3.771 2.046 1.247 2.046 1.247s3.636-6.903 0-11.952c.032 0-.747-2.748-2.208 0z" fill="#b5dfd5"/><path d="m236 359.228 2-.228v2.837l-2 .163z" fill="#b5dfd5"/><path d="m151.585 34.5348s-62.024 28.5945-89.3557 37.2605-42.1356 26.6595-37.3338 71.7097c4.8017 45.05 18.4426 59.884 28.2455 61.191 10.2182 1.323 23.8758-.414 27.5643-31.423s6.4798-69.03 28.2457-92.6133c12.68-13.6872 26.675-26.106 41.786-37.0785 1.236-.8533 2.354-1.8653 3.323-3.0099 2.559-2.9769 6.082-8.2691-2.475-6.0365z" fill="#544b43"/><path d="m166.5 179c8.56 0 15.5-7.387 15.5-16.5s-6.94-16.5-15.5-16.5-15.5 7.387-15.5 16.5 6.94 16.5 15.5 16.5z" fill="#1d1c1a"/><path d="m320.5 178c8.56 0 15.5-7.163 15.5-16s-6.94-16-15.5-16-15.5 7.163-15.5 16 6.94 16 15.5 16z" fill="#1d1c1a"/><path d="m150 204s39.704-40.847 93.544-42.93c53.84-2.082 83.456 42.93 83.456 42.93" stroke="#544b43" stroke-linecap="round" stroke-linejoin="round" stroke-width="3"/><path d="m239.428 182.162s-33.71-3.704-30.167 24.292c.161 1.647.781 3.215 1.788 4.523s2.361 2.302 3.904 2.868c3.822 1.224 10.171.761 20.21-6.019 1.096-.926 2.488-1.42 3.918-1.39 1.43.031 2.801.583 3.857 1.555 4.2 3.423 8.579 9.261 18.783 6.102 1.783-.57 3.418-1.531 4.789-2.815 1.37-1.284 2.44-2.858 3.134-4.609 1.384-3.078 1.72-6.531.955-9.821-.766-3.29-2.59-6.233-5.187-8.369-4.512-3.588-12.369-6.78-25.984-6.317z" fill="#544b43"/><path d="m239 207v20.91s28.256 12.998 29 12.039" stroke="#544b43" stroke-linecap="round" stroke-linejoin="round" stroke-width="3"/><path d="m239 228s-12.046 11.527-26 15" stroke="#544b43" stroke-linecap="round" stroke-linejoin="round" stroke-width="3"/><path d="m305.01 121s-1.841 13.362 43.99 36" stroke="#544b43" stroke-linecap="round" stroke-linejoin="round" stroke-width="3"/><path d="m166 118s-12.069 41.817-38 54" stroke="#544b43" stroke-linecap="round" stroke-linejoin="round" stroke-width="3"/><path d="m326 174s15.683 0 19.906 28.396c2.046 13.796 7.105 41.286-2.963 31.569-7.039-6.713-4.911-21.818-3.127-30.209 1.517-6.551.83-13.435-1.948-19.535-2.259-4.867-5.926-9.365-11.868-10.221z" fill="#28c7dd"/><path d="m317 176.985s11.497-1.895 14.957-3.537 1.478 1.761 1.478 1.761-16.273 4.836-16.435 1.776z" fill="#28c7dd"/><path d="m336.57 55.4728s-6.282-15.6462 22.853-1.6592c29.136 13.987 52.945 24.4233 80.234 30.413 27.288 5.9896 42.309 9.4076 45.937 33.7314 3.627 24.324-17.709 62.402-37.495 84.619-10.883 12.245-18.451 9.009-23.084 3.617-3.512-4.27-5.462-9.623-5.524-15.165-.665-18.021-5.825-35.583-15.004-51.07-9.547-15.962-42.293-69.2216-67.917-84.4862z" fill="#544b43"/><ellipse cx="170.5" cy="158" fill="#fff" rx="6.5" ry="7"/><ellipse cx="2" cy="2.01429" fill="#fff" rx="2" ry="2.01429" transform="matrix(-.198561 .980088 -.980089 -.19856 162.742 160.8)"/><ellipse cx="315.867" cy="159.758" fill="#fff" rx="5" ry="6"/><ellipse cx="2" cy="1.96234" fill="#fff" rx="2" ry="1.96234" transform="matrix(-.198558 .980089 -.980088 -.198563 326.641 161.779)"/></svg>