<svg fill="none" height="638" viewBox="0 0 627 638" width="627" xmlns="http://www.w3.org/2000/svg"><path d="m473.503 489.68 17.967-53.792s21.758-43.052 31.205-141.75l2.822-26.267s67.608-245.1124-112.673-265.45413c-118.488-13.35547-195.698 31.52473-234.724 63.86413-21.084 17.4781-25.736 41.547-31.131 68.357-4.702 23.329 17.768 68.061 8.339 92.328-40.584 104.375-47.316 111.139-58.2536 124.79-6.2362 7.801-28.3104 25.057-42.5151 51.151-28.4836 52.311-21.8515 132.172-21.8515 132.172l284.8862 50.903s89.484 12.788 123.808-13.059l2.598-28.735" fill="#e4b652"/><path d="m414.83 0s76.477 12.3962 104.668 13.7653c28.192 1.369 45.25-3.90808 52.112 40.773 6.863 44.6811-11.133 80.4507-20.168 84.1847-9.381 3.883-22.785 5.675-34.141-23.174-11.355-28.8502-23.674-64.7943-50.31-81.9199-22.513-14.4623-43.225-22.8011-49.125-25.04137-1.382-.52273-2.666-1.21971-3.851-2.06603-3.209-2.29006-7.9-6.5217.815-6.5217z" fill="#544b43"/><path d="m242.904 32.7105s5.505-15.5652-22.486-.5883c-27.99 14.977-50.867 26.179-77.366 33.214-26.498 7.035-41.105 11.055-43.6006 34.9548-2.5201 23.899 20.0876 60.177 40.4696 81.012 11.206 11.472 18.497 7.967 22.779 2.501 3.327-4.241 4.844-9.658 4.746-15.051-.171-8.898 1.004-29.047 12.503-50.519 8.613-16.056 38.414-69.4925 62.955-85.5235z" fill="#544b43"/><path d="m457.868 148.526s-45.673-30.586-97.671-22.196c-51.999 8.391-72.028 56.177-72.028 56.177" stroke="#544b43" stroke-linecap="round" stroke-linejoin="round" stroke-miterlimit="10" stroke-width="3"/><path d="m366.578 145.802s31.739-9.628 33.636 16.708c.218 3.132-1.216 6.31-4.062 7.829-3.454 1.823-9.631 2.571-20.575-1.799 0 0-4.062-2.337-7.442 1.589-3.405 3.926-6.494 10.072-16.903 9.067-4.281-.421-7.151-2.734-9.048-5.328-3.867-5.282-3.745-12.549.608-17.457 3.649-4.136 10.604-8.506 23.786-10.609z" fill="#544b43"/><path d="m525.108 268.953s-159.07 54.601-369.554-44.822l-15.708 38.369s206.636 99.633 384.743 37.472z" fill="#16d2aa"/><path d="m367.63 396.198c-18.895 0-34.213-16.327-34.213-36.467 0-20.141 15.318-36.468 34.213-36.468 18.896 0 34.214 16.327 34.214 36.468 0 20.14-15.318 36.467-34.214 36.467z" fill="#fff"/><path d="m367.639 322.452c21.091 0 38.21 17.087 38.21 38.193 0 21.082-17.095 38.194-38.21 38.194-21.091 0-38.21-17.087-38.21-38.194 0-21.106 17.119-38.193 38.21-38.193zm0 71.086c18.18 0 32.931-14.745 32.931-32.917 0-18.173-14.727-32.917-32.931-32.917-18.18 0-32.931 14.72-32.931 32.917 0 18.196 14.751 32.917 32.931 32.917z" fill="#16d2aa"/><path d="m367.634 393.562c-18.188 0-32.931-14.738-32.931-32.917 0-18.18 14.743-32.917 32.931-32.917 18.187 0 32.93 14.737 32.93 32.917 0 18.179-14.743 32.917-32.93 32.917z" fill="#fff"/><path d="m351.943 367.983c1.061 1.307 2.467 1.973 4.243 1.973s3.182-.666 4.218-1.973 1.554-3.107 1.554-5.351v-11.835l6.315-3.797v15.83c0 4.093-1.135 7.249-3.404 9.443-2.27 2.195-5.156 3.304-8.708 3.304-3.527 0-6.438-1.109-8.732-3.328-2.27-2.219-3.429-5.351-3.429-9.419v-12.033l6.315-3.797v15.608c.049 2.293.567 4.068 1.628 5.375z" fill="#16d2aa"/><path d="m389.874 349.54c1.973 1.676 2.985 4.265 2.985 7.767 0 3.501-1.012 6.041-3.059 7.668-2.048 1.627-5.156 2.416-9.324 2.416h-3.774v4.093l-6.315 3.797v-28.281h9.99c4.341.025 7.499.863 9.497 2.54zm-4.638 11.12c.765-.838 1.135-2.096 1.135-3.723 0-1.628-.493-2.787-1.48-3.477s-2.516-1.035-4.588-1.035h-3.601v9.517h4.242c2.097 0 3.528-.419 4.292-1.282z" fill="#16d2aa"/><path d="m367.475 318.107s-2.616 6.352-.116 9.785c2.515 3.456-1.308 1.144-1.308 1.144s-2.334-6.305 0-10.929c0 0 .497-2.522 1.424 0z" fill="#b5dfd5"/><path d="m489.716 301.204 79.232-28.303c11.747-6.178 31.988.419 43.039 14.785 12.339 16.044.142 78.262-109.422 94.523" fill="#e4b652"/><path d="m494.013 298.278 18.69-7.401c6.233-2.473 12.573-4.815 18.869-7.206l18.931-7.124 19.077-6.925-.125.068c5.482-2.926 13.334-3.2 21.38-.704 8.023 2.392 16.201 7.81 21.708 14.477 2.887 3.363 4.607 7.215 5.407 10.634.785 3.456.873 6.722.595 9.779-.605 6.155-2.757 11.517-5.473 16.441-5.683 9.751-13.959 17.556-23.236 24.256-9.33 6.671-19.896 12.102-31.06 16.705 10.58-5.307 20.669-11.15 29.551-18.146 8.918-6.929 16.708-14.965 21.936-24.63 2.61-4.822 4.59-10.075 5.091-15.896.489-5.712-.366-12.401-5.276-18.078-4.876-5.843-12.032-10.445-19.148-12.688-7.136-2.277-14.135-2.116-19.089.464l-.075.026-.075.027-19.248 6.711-19.392 6.513c-6.485 2.144-12.907 4.37-19.456 6.431z" fill="#c58f2c"/><path d="m218.279 295.219 78.12-27.899c11.581-6.089 31.539.404 42.437 14.553 12.167 15.801-2.564 65.233-79.307 87.667" fill="#e4b652"/><path d="m220.629 293.349 18.689-7.4c6.233-2.473 12.573-4.816 18.869-7.206l18.931-7.124 19.077-6.925-.125.068c5.482-2.926 13.334-3.2 21.38-.704 8.023 2.392 16.201 7.81 21.708 14.476 2.887 3.364 4.607 7.216 5.407 10.635.785 3.456.873 6.722.595 9.779-.605 6.155-2.757 11.517-5.473 16.441-5.683 9.751-13.959 17.556-23.236 24.256-9.33 6.671-19.896 12.102-31.06 16.705 10.58-5.307 20.669-11.15 29.551-18.146 8.919-6.929 16.708-14.965 21.936-24.63 2.61-4.822 4.59-10.075 5.091-15.896.489-5.712-.366-12.401-5.276-18.079-4.876-5.842-12.032-10.444-19.148-12.687-7.136-2.277-14.135-2.116-19.089.464l-.075.026-.075.026-19.248 6.712-19.392 6.513c-6.485 2.144-12.907 4.369-19.456 6.431z" fill="#c58f2c"/><path d="m32.019 534.714s9.7695 33.485 38.3888 61.381c7.9207 7.72 17.2852 15.013 28.286 21.049 12.0562 6.615 26.0792 11.721 42.3202 14.227 84.628 13.056 106.575 0 106.575 0s15.504-9.136-12.269-26.136c-27.774-17-45.228-24.814-45.228-24.814s118.845 7.19 158.913 5.867" fill="#e4b652"/><path d="m284.967 584.594s72.178 10.304 156.435 26.486c43.341 8.312 64.232 7.501 73.836 5.706 6.485-1.23 11.881-6.198 12.896-12.666.941-6.099-1.584-14.288-15.495-22.65-27.846-16.723-29.257-12.837-29.257-12.837 34.183-36.668-10.198-78.746-10.198-78.746s-48.416 73.213-118.316 83.984" fill="#e4b652"/><path d="m473.878 489.887c-19.896 41.076-87.633 68.941-131.277 86.451z" fill="#e4b652"/><path d="m473.878 489.887c-19.896 41.076-87.633 68.941-131.277 86.451" stroke="#c58f2c" stroke-miterlimit="10" stroke-width="1.302"/><path d="m190.919 580.913c10.73-5.646 19.981-14.596 25.333-25.791 2.64-5.597 4.021-11.81 4.169-17.999.148-6.214-.937-12.403-2.837-18.296-1.973-5.893-4.884-11.317-8.016-16.619-3.355-5.128-6.883-10.158-11.002-14.695-8.042-9.222-17.094-17.408-26.69-24.854l6.635 6.213c2.245 2.022 4.293 4.291 6.463 6.411 2.196 2.096 4.194 4.364 6.241 6.583 2.097 2.17 3.972 4.537 5.896 6.88 3.823 4.66 7.326 9.567 10.532 14.646 2.985 5.203 5.773 10.529 7.598 16.2 1.875 5.646 3.009 11.539 2.911 17.457-.05 5.917-1.382 11.786-3.651 17.284-2.343 5.474-5.747 10.479-9.793 14.942-3.971 4.463-8.633 8.408-13.789 11.638z" fill="#c48f2c"/><g fill="#c58f2c"><path d="m591.669 286.575c-3.574 3.579-7.976 4.977-9.831 3.124-1.856-1.853-.462-6.256 3.112-9.835 3.574-3.578 7.975-4.976 9.83-3.123 1.856 1.853.463 6.256-3.111 9.834z"/><path d="m606.912 288.378c-2.78 2.783-6.407 3.668-8.1 1.976-1.694-1.691-.814-5.319 1.966-8.102s6.407-3.668 8.1-1.976c1.694 1.691.813 5.319-1.966 8.102z"/><path d="m607.26 301.187c-3.044 3.048-6.746 4.287-8.267 2.768-1.522-1.52-.287-5.223 2.757-8.272 3.045-3.048 6.746-4.287 8.268-2.767s.287 5.223-2.758 8.271z"/><path d="m591.35 308.958c-5.344 5.35-12.361 7.004-15.674 3.695-3.314-3.31-1.668-10.329 3.675-15.679 5.344-5.35 12.361-7.004 15.675-3.695 3.313 3.309 1.667 10.329-3.676 15.679z"/><path d="m317.613 280.817c-3.069 4.02-7.246 5.989-9.331 4.398-2.084-1.592-1.286-6.141 1.783-10.16 3.069-4.02 7.247-5.989 9.331-4.398 2.085 1.592 1.286 6.14-1.783 10.16z"/><path d="m332.002 279.854c-2.387 3.126-5.65 4.647-7.287 3.397-1.638-1.251-1.031-4.799 1.356-7.925 2.387-3.127 5.65-4.648 7.288-3.398 1.638 1.251 1.03 4.799-1.357 7.926z"/><path d="m333.947 290.717c-2.157 2.825-4.871 4.377-6.062 3.468s-.408-3.936 1.748-6.761c2.157-2.825 4.871-4.377 6.062-3.468s.408 3.936-1.748 6.761z"/><path d="m320.396 302.867c-4.511 5.909-11.186 8.396-14.908 5.554s-3.082-9.935 1.429-15.844 11.185-8.395 14.907-5.554c3.723 2.842 3.083 9.936-1.428 15.844z"/></g><path d="m287.592 132.593s1.547-13.298 11.604-14.624c10.082-1.299 12.848 8.015 12.848 8.015" stroke="#1e1c1a" stroke-linecap="round" stroke-linejoin="round" stroke-miterlimit="10" stroke-width="3"/><path d="m422.24 115.557s3.782-11.045 13.813-9.668c10.052 1.375 11.126 10.03 11.126 10.03" stroke="#1e1c1a" stroke-linecap="round" stroke-linejoin="round" stroke-miterlimit="10" stroke-width="3"/><path d="m370.769 169.699 3.851 20.263s-2.668 10.654-18.933 14.643c-1.137.267-2.297.365-3.457.292-3.759-.219-11.995-1.314-16.032-6.349" stroke="#544b43" stroke-linecap="round" stroke-linejoin="round" stroke-miterlimit="10" stroke-width="3"/><path d="m374.62 188.911s8.32 12.129 21.671 9.128c13.351-3 13.55-9.128 13.55-9.128" stroke="#544b43" stroke-linecap="round" stroke-linejoin="round" stroke-miterlimit="10" stroke-width="3"/><path d="m59.5174 470.203s-14.643-13.566-25.0507-37.769c-10.4076-24.203-29.4926-9.386-32.10097 2.728-2.556724 11.889-14.35903 41.674 54.64667 73.937l10.2269-21.2z" fill="#e4b652"/></svg>