<svg width="535" height="621" viewBox="0 0 535 621" fill="none" xmlns="http://www.w3.org/2000/svg">
<ellipse cx="287.787" cy="567.351" rx="246.371" ry="53.1046" fill="#E1E1E1"/>
<path d="M123.482 466.338L109.146 423.331C109.146 423.331 90.9275 396.961 84.246 309.998L81.995 288.997C81.995 288.997 28.0486 93.0241 171.899 76.7605C266.443 66.0825 328.051 101.965 359.191 127.821C376.014 141.795 379.726 161.039 384.031 182.474C387.783 201.126 369.853 236.89 377.377 256.292C409.76 339.742 415.131 345.15 423.859 356.065C428.835 362.302 446.449 376.099 457.783 396.961C480.511 438.785 475.219 502.636 475.219 502.636L247.902 543.334C247.902 543.334 176.5 553.558 149.112 532.893L147.039 509.919" fill="#E4B652"/>
<path d="M472.455 471.213C472.455 471.213 483.695 460.526 491.683 441.459C499.672 422.392 514.322 434.065 516.324 443.608C518.287 452.974 527.346 476.439 474.377 501.855L466.527 485.154L472.455 471.213Z" fill="#E4B652"/>
<path d="M169.141 73.7366C169.141 73.7366 107.82 83.5842 85.2156 84.6718C62.6112 85.7594 48.9338 81.5672 43.4311 117.062C37.9285 152.557 52.3581 180.973 59.6026 183.939C67.1242 187.024 77.8722 188.448 86.9773 165.529C96.0824 142.611 105.959 114.057 127.317 100.452C145.369 88.9629 161.976 82.3384 166.706 80.5587C167.815 80.1435 168.844 79.5898 169.794 78.9175C172.367 77.0982 176.128 73.7366 169.141 73.7366Z" fill="#544B43"/>
<path d="M306.067 100.087C306.067 100.087 301.604 87.5549 324.295 99.6136C346.987 111.672 365.534 120.691 387.015 126.356C408.497 132.02 420.339 135.257 422.362 154.499C424.405 173.742 406.077 202.951 389.554 219.726C380.47 228.963 374.559 226.14 371.088 221.739C368.39 218.325 367.16 213.963 367.239 209.621C367.378 202.457 366.426 186.234 357.103 168.946C350.121 156.019 325.962 112.994 306.067 100.087Z" fill="#544B43"/>
<path d="M201.227 173.605C243.011 180.328 272.032 219.884 272.032 219.884" stroke="#544B43" stroke-width="1.6" stroke-miterlimit="10" stroke-linecap="round" stroke-linejoin="round"/>
<path d="M208.101 190.346C208.101 190.346 182.307 182.326 180.766 204.264C180.588 206.872 181.754 209.52 184.066 210.785C186.873 212.303 191.893 212.926 200.788 209.286C200.788 209.286 204.088 207.339 206.836 210.61C209.603 213.88 212.113 218.999 220.572 218.162C224.051 217.812 226.383 215.885 227.925 213.724C231.067 209.325 230.968 203.271 227.431 199.183C224.466 195.738 218.813 192.098 208.101 190.346Z" fill="#544B43"/>
<path d="M81.877 288.988C81.877 288.988 208.801 333.458 376.75 252.482L391.011 282.593C391.011 282.593 224.405 364.879 82.2917 314.252L81.877 288.988Z" fill="#16D2AA"/>
<path d="M207.404 391.061C222.538 391.061 234.806 377.984 234.806 361.853C234.806 345.722 222.538 332.645 207.404 332.645C192.27 332.645 180.001 345.722 180.001 361.853C180.001 377.984 192.27 391.061 207.404 391.061Z" fill="white"/>
<path d="M207.399 331.999C190.507 331.999 176.796 345.685 176.796 362.589C176.796 379.474 190.487 393.18 207.399 393.18C224.291 393.18 238.002 379.494 238.002 362.589C238.002 345.685 224.291 331.999 207.399 331.999ZM207.399 388.934C192.838 388.934 181.024 377.124 181.024 362.57C181.024 348.015 192.819 336.205 207.399 336.205C221.96 336.205 233.774 347.995 233.774 362.57C233.774 377.144 221.96 388.934 207.399 388.934Z" fill="#16D2AA"/>
<path d="M207.407 388.952C221.973 388.952 233.782 377.148 233.782 362.588C233.782 348.027 221.973 336.223 207.407 336.223C192.84 336.223 181.031 348.027 181.031 362.588C181.031 377.148 192.84 388.952 207.407 388.952Z" fill="white"/>
<path d="M194.185 368.942C195.034 369.989 196.161 370.522 197.583 370.522C199.006 370.522 200.132 369.989 200.961 368.942C201.791 367.895 202.206 366.454 202.206 364.657V355.177L207.264 352.136V364.815C207.264 368.093 206.355 370.621 204.537 372.378C202.72 374.136 200.408 375.024 197.563 375.024C194.738 375.024 192.407 374.136 190.569 372.358C188.752 370.581 187.823 368.073 187.823 364.815V355.177L192.881 352.136V364.637C192.92 366.473 193.335 367.895 194.185 368.942Z" fill="#16D2AA"/>
<path d="M224.561 354.17C226.142 355.513 226.952 357.587 226.952 360.391C226.952 363.195 226.142 365.229 224.502 366.533C222.862 367.836 220.373 368.468 217.034 368.468H214.011V371.746L208.953 374.787V352.136H216.955C220.432 352.156 222.961 352.827 224.561 354.17ZM220.847 363.077C221.459 362.405 221.756 361.398 221.756 360.095C221.756 358.791 221.36 357.863 220.57 357.31C219.78 356.757 218.555 356.481 216.895 356.481H214.011V364.104H217.409C219.088 364.104 220.234 363.768 220.847 363.077Z" fill="#16D2AA"/>
<path d="M207.164 327.861C207.164 327.861 210.27 333.25 207.301 336.163C204.313 339.095 208.854 337.133 208.854 337.133C208.854 337.133 211.626 331.784 208.854 327.861C208.854 327.861 208.265 325.721 207.164 327.861Z" fill="#B5DFD5"/>
<path d="M203.575 330.339L204.662 330.169V332.229L203.575 332.342V330.339Z" fill="#B5DFD5"/>
<path d="M204.118 209.013L200.851 225.266C200.851 225.266 203.114 233.812 216.913 237.011C217.878 237.226 218.862 237.304 219.846 237.246" stroke="#544B43" stroke-width="1.6" stroke-miterlimit="10" stroke-linecap="round" stroke-linejoin="round"/>
<path d="M200.86 224.775C200.86 224.775 194.315 235.751 183.812 233.035" stroke="#544B43" stroke-width="1.6" stroke-miterlimit="10" stroke-linecap="round" stroke-linejoin="round"/>
<path d="M152.038 184.038C163.563 184.038 172.905 174.695 172.905 163.17C172.905 151.645 163.563 142.302 152.038 142.302C140.513 142.302 131.17 151.645 131.17 163.17C131.17 174.695 140.513 184.038 152.038 184.038Z" fill="#1D1C1A"/>
<path d="M270.4 194.349C275.201 194.349 279.092 190.457 279.092 185.656C279.092 180.855 275.201 176.963 270.4 176.963C265.599 176.963 261.707 180.855 261.707 185.656C261.707 190.457 265.599 194.349 270.4 194.349Z" fill="#1D1C1A"/>
<path d="M103.815 323.503L41.1716 285.464C31.6494 278.142 17.2874 280.165 10.7235 290.409C3.39556 301.851 14.9101 348.789 99.8718 389.034" fill="#E4B652"/>
<path d="M103.816 323.494L88.4421 313.554C83.3147 310.235 78.1201 307.012 72.954 303.753L57.4271 294.014L41.8126 284.423L41.9172 284.506C37.3148 280.924 31.2058 279.25 25.2894 279.985C19.3768 280.633 13.7189 283.922 10.2808 288.801C8.4625 291.242 7.60747 294.328 7.4106 297.199C7.23019 300.107 7.56521 302.973 8.15768 305.721C9.38569 311.263 11.7132 316.387 14.4225 321.228C20.0231 330.87 27.3899 339.267 35.3949 346.872C43.4367 354.461 52.2822 361.18 61.4882 367.279C52.647 360.666 44.1199 353.669 36.3844 345.875C28.6286 338.134 21.6093 329.621 16.3712 320.139C13.7563 315.407 11.5765 310.41 10.47 305.182C9.38628 300.052 9.22151 294.305 12.32 290.19C15.3711 285.924 20.339 283.168 25.5682 282.486C30.8075 281.779 36.2428 283.197 40.394 286.377L40.4555 286.414L40.517 286.451L56.2374 295.885L72.0453 305.169C77.3276 308.244 82.5711 311.38 87.892 314.393L103.816 323.494Z" fill="#C58F2C"/>
<path d="M475.222 502.938C475.222 502.938 455.741 568.989 388.168 579.304C320.576 589.619 303.047 579.304 303.047 579.304C303.047 579.304 290.664 572.086 312.847 558.655C335.029 545.223 348.969 539.05 348.969 539.05C348.969 539.05 254.049 544.73 222.047 543.685" fill="#E4B652"/>
<path d="M273.655 542.467C273.655 542.467 216.126 550.728 148.969 563.702C114.424 570.366 97.7724 569.716 90.1176 568.276C84.9486 567.29 80.6478 563.308 79.8389 558.122C79.0892 553.232 81.1015 546.667 92.1891 539.963C114.384 526.555 115.509 529.671 115.509 529.671C88.2631 500.273 123.637 466.537 123.637 466.537C123.637 466.537 162.226 525.234 217.941 533.87" fill="#E4B652"/>
<path d="M232.564 466.466C232.564 466.466 235.824 545.578 220.611 549.271C205.399 552.964 212.432 591.711 261.765 568.388C311.097 545.065 309.379 453.175 309.379 453.175" fill="#E4B652"/>
<path d="M232.566 466.467C233.257 478.454 233.395 490.501 233.119 502.528C232.921 508.531 232.605 514.554 231.993 520.558C231.38 526.562 230.57 532.565 228.97 538.45C228.14 541.393 227.132 544.335 225.295 547.021C224.347 548.305 223.102 549.628 221.324 550.2L220.257 550.556C219.941 550.655 219.625 550.753 219.348 550.931C218.736 551.188 218.222 551.603 217.708 551.998C215.753 553.755 214.666 556.461 214.646 559.206C214.547 561.971 215.476 564.716 216.997 567.026C218.578 569.317 220.79 571.134 223.339 572.378C225.888 573.622 228.713 574.254 231.597 574.471C237.366 574.926 243.254 573.82 248.885 572.102C250.287 571.628 251.69 571.213 253.093 570.699C254.476 570.146 255.859 569.653 257.222 569.08L261.292 567.283L265.184 565.229C270.261 562.267 274.845 558.475 278.836 554.13C282.827 549.786 286.264 544.908 289.228 539.773C292.152 534.599 294.622 529.168 296.775 523.619C301.062 512.481 303.927 500.809 305.922 489C307.957 477.19 309.143 465.223 309.419 453.216C309.716 465.242 308.807 477.269 307.167 489.197C305.429 501.106 302.761 512.935 298.632 524.31C294.562 535.685 288.793 546.646 280.574 555.71C276.465 560.233 271.723 564.222 266.429 567.342L262.359 569.514L258.21 571.391C256.807 571.983 255.385 572.516 253.962 573.089C252.54 573.622 251.078 574.076 249.635 574.57C243.787 576.308 237.623 577.434 231.4 576.92C228.298 576.663 225.176 575.952 222.312 574.531C219.447 573.128 216.898 571.015 215.081 568.33C213.322 565.624 212.275 562.425 212.394 559.147C212.433 555.908 213.718 552.551 216.286 550.299C216.958 549.786 217.649 549.272 218.42 548.937C218.795 548.719 219.19 548.601 219.585 548.463L220.672 548.107C221.798 547.791 222.766 546.823 223.596 545.737C225.216 543.486 226.263 540.682 227.113 537.877C228.792 532.21 229.701 526.285 230.432 520.341C231.143 514.396 231.578 508.413 231.914 502.429C232.566 490.501 232.684 478.494 232.566 466.467Z" fill="#C58F2C"/>
<path d="M122.617 466.537C138.674 499.579 193.338 521.994 228.559 536.079L122.617 466.537Z" fill="#E4B652"/>
<path d="M122.617 466.537C138.674 499.579 193.338 521.994 228.559 536.079" stroke="#C58F2C" stroke-width="1.302" stroke-miterlimit="10"/>
<path d="M348.937 539.009C340.343 534.487 332.934 527.318 328.647 518.352C326.533 513.869 325.426 508.893 325.308 503.936C325.189 498.959 326.058 494.002 327.58 489.283C329.16 484.563 331.492 480.218 334.001 475.972C336.688 471.864 339.513 467.836 342.812 464.202C349.253 456.816 356.504 450.259 364.189 444.295L358.874 449.272C357.077 450.891 355.437 452.708 353.698 454.407C351.94 456.085 350.339 457.902 348.7 459.68C347.02 461.417 345.519 463.313 343.978 465.189C340.915 468.922 338.11 472.852 335.542 476.92C333.151 481.087 330.919 485.353 329.457 489.895C327.955 494.417 327.046 499.137 327.125 503.877C327.165 508.616 328.232 513.316 330.049 517.72C331.926 522.105 334.653 526.113 337.893 529.688C341.074 533.262 344.808 536.422 348.937 539.009Z" fill="#C48F2C"/>
<path d="M101.707 551.296C105.757 551.296 109.041 549.593 109.041 547.493C109.041 545.392 105.757 543.69 101.707 543.69C97.6558 543.69 94.3721 545.392 94.3721 547.493C94.3721 549.593 97.6558 551.296 101.707 551.296Z" fill="#C58F2C"/>
<path d="M94.1001 559.986C97.2506 559.986 99.8047 558.648 99.8047 556.998C99.8047 555.348 97.2506 554.01 94.1001 554.01C90.9495 554.01 88.3955 555.348 88.3955 556.998C88.3955 558.648 90.9495 559.986 94.1001 559.986Z" fill="#C58F2C"/>
<path d="M101.161 566.508C104.612 566.508 107.409 565.535 107.409 564.335C107.409 563.134 104.612 562.161 101.161 562.161C97.7104 562.161 94.9131 563.134 94.9131 564.335C94.9131 565.535 97.7104 566.508 101.161 566.508Z" fill="#C58F2C"/>
<path d="M116.645 563.784C123.847 563.784 129.685 560.744 129.685 556.993C129.685 553.243 123.847 550.202 116.645 550.202C109.444 550.202 103.606 553.243 103.606 556.993C103.606 560.744 109.444 563.784 116.645 563.784Z" fill="#C58F2C"/>
<path d="M147.893 524.787C147.893 524.787 114.286 527.532 112.567 529.744L147.893 524.787Z" fill="#E4B652"/>
<path d="M147.893 524.786C144.949 525.339 141.985 525.753 139.041 526.148C136.098 526.563 133.134 526.899 130.171 527.254L121.3 528.222C119.818 528.36 118.336 528.538 116.874 528.755C115.412 528.972 113.871 529.051 112.567 529.743C113.101 529.19 113.871 528.972 114.563 528.696C115.274 528.459 116.005 528.242 116.736 528.044C118.198 527.689 119.66 527.393 121.142 527.096C124.086 526.524 127.049 526.148 130.013 525.793C132.976 525.477 135.959 525.181 138.943 525.023C141.926 524.865 144.909 524.746 147.893 524.786Z" fill="#C58F2C"/>
<path d="M34.5476 301.449C37.8752 304.781 41.9732 306.083 43.7007 304.358C45.4282 302.632 44.1311 298.533 40.8035 295.201C37.4759 291.869 33.3779 290.567 31.6504 292.293C29.9229 294.018 31.22 298.118 34.5476 301.449Z" fill="#C58F2C"/>
<path d="M20.3625 303.127C22.9506 305.719 26.3271 306.543 27.904 304.968C29.4809 303.393 28.6611 300.015 26.073 297.424C23.4848 294.833 20.1084 294.009 18.5315 295.584C16.9546 297.159 17.7744 300.536 20.3625 303.127Z" fill="#C58F2C"/>
<path d="M20.0382 315.059C22.8728 317.897 26.3192 319.051 27.736 317.636C29.1527 316.221 28.0033 312.773 25.1687 309.935C22.3341 307.097 18.8876 305.943 17.4709 307.358C16.0541 308.773 17.2036 312.221 20.0382 315.059Z" fill="#C58F2C"/>
<path d="M34.8504 322.294C39.8253 327.275 46.3591 328.815 49.4439 325.734C52.5288 322.653 50.9966 316.118 46.0216 311.137C41.0467 306.156 34.5129 304.615 31.4281 307.697C28.3432 310.778 29.8754 317.313 34.8504 322.294Z" fill="#C58F2C"/>
<rect x="60.9033" y="246.5" width="29.8111" height="74.5278" rx="3" transform="rotate(35.2518 60.9033 246.5)" fill="#343440"/>
<rect x="101.206" y="197.662" width="11.9244" height="66.4767" transform="rotate(32.1884 101.206 197.662)" fill="#565961"/>
<path fill-rule="evenodd" clip-rule="evenodd" d="M133.458 227.143C169.587 229.732 200.974 202.542 203.562 166.414C206.151 130.285 178.961 98.8984 142.833 96.3098C106.704 93.7211 75.3175 120.911 72.7288 157.039C70.1402 193.168 97.3297 224.555 133.458 227.143ZM134.524 212.276C162.441 214.277 186.695 193.267 188.695 165.349C190.695 137.431 169.685 113.178 141.768 111.178C113.85 109.177 89.5966 130.187 87.5963 158.105C85.596 186.023 106.606 210.276 134.524 212.276Z" fill="#565961"/>
<g filter="url(#filter0_f_608_1702)">
<circle cx="138.622" cy="161.678" r="52.1695" fill="white" fill-opacity="0.2"/>
</g>
<path opacity="0.7" d="M101.353 134.849C94.3966 140.811 84.6583 160.486 101.353 191.49" stroke="white" stroke-width="2" stroke-linecap="round"/>
<path opacity="0.7" d="M180.358 182.546C176.88 188.012 168.135 199.241 160.98 200.433" stroke="white" stroke-linecap="round"/>
<path d="M224.934 0.0846277C198.969 -1.94155 171.771 32.8769 160.84 53.7446C195.421 94.285 297.474 89.5191 344.178 82.0686C324.801 0.088031 290.275 5.8245 283.205 8.18128C274.262 11.1624 266.669 23.9369 257.726 22.4464C248.783 20.9558 251.903 2.18925 224.934 0.0846277Z" fill="#754922"/>
<path d="M102.703 78.2076C114.627 78.2076 147.419 61.3146 162.325 52.8682C199.286 71.9473 298.961 80.6919 344.178 82.6793L366.531 113.981C198.098 111 87.7972 78.2076 102.703 78.2076Z" fill="#6B3F19"/>
<path d="M160.387 57.0369C175.669 64.7816 233.075 79.9176 340.446 78.5039" stroke="#4C2D2D" stroke-width="3" stroke-linecap="round"/>
<defs>
<filter id="filter0_f_608_1702" x="82.4521" y="105.509" width="112.339" height="112.339" filterUnits="userSpaceOnUse" color-interpolation-filters="sRGB">
<feFlood flood-opacity="0" result="BackgroundImageFix"/>
<feBlend mode="normal" in="SourceGraphic" in2="BackgroundImageFix" result="shape"/>
<feGaussianBlur stdDeviation="2" result="effect1_foregroundBlur_608_1702"/>
</filter>
</defs>
</svg>
