<svg width="411" height="186" viewBox="0 0 411 186" fill="none" xmlns="http://www.w3.org/2000/svg">
<rect width="411" height="186" rx="15" fill="#E4F2FA"/>
<ellipse cx="220.5" cy="168" rx="124.5" ry="10" fill="black" fill-opacity="0.19"/>
<path d="M189.829 138.635L186.174 127.67C186.174 127.67 172.41 121.506 179.826 98.775L179.252 93.4207C179.252 93.4207 165.498 43.4556 202.174 39.3091C226.279 36.5866 241.986 45.7352 249.925 52.3275C254.215 55.8903 255.161 60.7967 256.259 66.2617C257.215 71.0172 252.644 80.1356 254.562 85.0823C262.819 106.359 264.188 107.737 266.413 110.52C267.682 112.11 272.173 115.628 275.062 120.947C280.857 131.61 279.508 147.89 279.508 147.89L221.551 158.266C221.551 158.266 203.347 160.873 196.364 155.604L195.835 149.747" fill="#E4B652"/>
<path d="M278.8 139.878C278.8 139.878 281.666 137.154 283.703 132.292C285.74 127.431 289.475 130.407 289.985 132.84C290.486 135.228 292.795 141.211 279.291 147.691L277.289 143.433L278.8 139.878Z" fill="#E4B652"/>
<path d="M201.47 38.5391C201.47 38.5391 185.836 41.0498 180.073 41.3271C174.309 41.6044 170.822 40.5356 169.419 49.5853C168.016 58.6351 171.695 65.88 173.542 66.6362C175.46 67.4227 178.2 67.7857 180.522 61.9424C182.843 56.0991 185.361 48.819 190.807 45.3503C195.409 42.4211 199.643 40.7322 200.849 40.2784C201.132 40.1726 201.394 40.0314 201.637 39.86C202.293 39.3961 203.251 38.5391 201.47 38.5391Z" fill="#544B43"/>
<path d="M192.933 68.8592C192.933 68.8592 202.29 62.6109 212.943 64.325C223.597 66.0392 227.7 75.8013 227.7 75.8013" stroke="#544B43" stroke-width="2" stroke-miterlimit="10" stroke-linecap="round" stroke-linejoin="round"/>
<path d="M211.403 68.271C211.403 68.271 204.827 66.2263 204.434 71.8194C204.389 72.4845 204.686 73.1594 205.276 73.482C205.991 73.8691 207.271 74.0279 209.539 73.0999C209.539 73.0999 210.38 72.6036 211.081 73.4373C211.786 74.2711 212.426 75.5764 214.583 75.363C215.47 75.2736 216.065 74.7823 216.458 74.2314C217.259 73.1098 217.234 71.5663 216.332 70.5241C215.576 69.6457 214.135 68.7176 211.403 68.271Z" fill="#544B43"/>
<path d="M179.219 93.4207C179.219 93.4207 211.579 104.759 254.399 84.1133L258.035 91.7901C258.035 91.7901 215.558 112.77 179.325 99.862L179.219 93.4207Z" fill="#16D2AA"/>
<path d="M204.718 115.344C207.461 115.344 209.684 112.975 209.684 110.051C209.684 107.128 207.461 104.758 204.718 104.758C201.975 104.758 199.752 107.128 199.752 110.051C199.752 112.975 201.975 115.344 204.718 115.344Z" fill="white"/>
<path d="M204.718 104.641C201.657 104.641 199.172 107.121 199.172 110.184C199.172 113.245 201.653 115.728 204.718 115.728C207.779 115.728 210.264 113.248 210.264 110.184C210.264 107.121 207.779 104.641 204.718 104.641ZM204.718 114.959C202.079 114.959 199.938 112.819 199.938 110.181C199.938 107.543 202.076 105.403 204.718 105.403C207.357 105.403 209.498 107.54 209.498 110.181C209.498 112.822 207.357 114.959 204.718 114.959Z" fill="#16D2AA"/>
<path d="M204.718 114.962C207.358 114.962 209.498 112.823 209.498 110.184C209.498 107.545 207.358 105.406 204.718 105.406C202.079 105.406 199.938 107.545 199.938 110.184C199.938 112.823 202.079 114.962 204.718 114.962Z" fill="white"/>
<path d="M202.323 111.339C202.477 111.528 202.681 111.625 202.939 111.625C203.196 111.625 203.401 111.528 203.551 111.339C203.701 111.149 203.777 110.888 203.777 110.562V108.844L204.693 108.293V110.591C204.693 111.185 204.528 111.643 204.199 111.961C203.87 112.28 203.451 112.441 202.935 112.441C202.423 112.441 202.001 112.28 201.668 111.958C201.338 111.636 201.17 111.181 201.17 110.591V108.844L202.087 108.293V110.558C202.094 110.891 202.169 111.149 202.323 111.339Z" fill="#16D2AA"/>
<path d="M207.83 108.662C208.116 108.905 208.263 109.281 208.263 109.789C208.263 110.297 208.116 110.666 207.819 110.902C207.522 111.138 207.071 111.253 206.465 111.253H205.918V111.847L205.001 112.398V108.293H206.451C207.081 108.297 207.54 108.418 207.83 108.662ZM207.156 110.276C207.267 110.154 207.321 109.972 207.321 109.735C207.321 109.499 207.25 109.331 207.106 109.231C206.963 109.13 206.741 109.08 206.44 109.08H205.918V110.462H206.533C206.838 110.462 207.045 110.401 207.156 110.276Z" fill="#16D2AA"/>
<path d="M205.42 103.391C205.42 103.391 206.212 104.765 205.455 105.507C204.693 106.255 205.851 105.755 205.851 105.755C205.851 105.755 206.558 104.391 205.851 103.391C205.851 103.391 205.7 102.845 205.42 103.391Z" fill="#B5DFD5"/>
<path d="M204.503 104.024L204.78 103.98V104.506L204.503 104.535V104.024Z" fill="#B5DFD5"/>
<path d="M209.23 76.9664C209.23 76.9664 206.915 74.8247 204.045 75.9879C201.176 77.151 201.362 78.4141 201.362 78.4141" stroke="#544B43" stroke-width="2" stroke-miterlimit="10" stroke-linecap="round" stroke-linejoin="round"/>
<path d="M197.781 63.749C199.005 63.749 199.997 62.7567 199.997 61.5327C199.997 60.3087 199.005 59.3164 197.781 59.3164C196.557 59.3164 195.564 60.3087 195.564 61.5327C195.564 62.7567 196.557 63.749 197.781 63.749Z" fill="#1D1C1A"/>
<path d="M227.285 69.2919C228.509 69.2919 229.501 68.2997 229.501 67.0757C229.501 65.8516 228.509 64.8594 227.285 64.8594C226.061 64.8594 225.068 65.8516 225.068 67.0757C225.068 68.2997 226.061 69.2919 227.285 69.2919Z" fill="#1D1C1A"/>
<path d="M178.702 106.497L188.933 91.0241C190.328 88.3152 193.788 87.2579 196.337 88.9345C199.183 90.8076 200.226 99.2665 192.821 112.156" fill="#E4B652"/>
<path d="M178.702 106.495L181.15 102.558C181.966 101.244 182.807 99.9448 183.639 98.6407L186.142 94.7335L188.681 90.8515L188.666 90.8817C189.336 89.5625 190.545 88.5253 191.96 88.0671C193.365 87.5888 194.987 87.7499 196.272 88.5152C196.937 88.8878 197.45 89.5122 197.793 90.1566C198.136 90.8112 198.357 91.5111 198.508 92.211C198.805 93.6258 198.81 95.0608 198.7 96.4706C198.433 99.3003 197.637 102.029 196.614 104.642C195.582 107.256 194.277 109.753 192.826 112.145C194.141 109.673 195.345 107.145 196.287 104.517C197.239 101.898 197.944 99.1795 198.146 96.4253C198.246 95.0507 198.221 93.661 197.929 92.3318C197.642 91.0277 197.083 89.6783 195.954 89.054C194.821 88.3893 193.411 88.2786 192.156 88.6763C190.897 89.0691 189.814 89.9754 189.205 91.1536L189.195 91.1687L189.184 91.1838L186.605 95.0406L183.991 98.8723C183.115 100.146 182.253 101.43 181.362 102.694L178.702 106.495Z" fill="#C58F2C"/>
<path d="M280.731 147.064C280.731 147.064 273.636 167.83 256.221 168.511C238.802 169.192 234.656 166.077 234.656 166.077C234.656 166.077 231.725 163.894 237.729 161.126C243.733 158.357 247.441 157.192 247.441 157.192C247.441 157.192 228.679 159.438 220.602 158.258" fill="#E4B652"/>
<path d="M228.116 158.046C228.116 158.046 213.448 160.153 196.326 163.46C187.518 165.16 183.273 164.994 181.321 164.627C180.003 164.375 178.907 163.36 178.701 162.038C178.51 160.791 179.023 159.117 181.849 157.408C187.508 153.99 187.795 154.784 187.795 154.784C180.848 147.289 189.867 138.688 189.867 138.688C189.867 138.688 199.706 153.653 213.911 155.855" fill="#E4B652"/>
<path d="M232.077 122.067C232.077 122.067 213.107 115.161 211.034 118.572C208.961 121.983 200.091 117.279 209.57 107.096C219.049 96.9123 241.242 104.432 241.242 104.432" fill="#E4B652"/>
<path d="M232.076 122.065C229.217 120.97 226.301 120.006 223.358 119.144C221.884 118.728 220.396 118.339 218.89 118.024C217.384 117.709 215.863 117.441 214.309 117.375C213.53 117.35 212.737 117.367 211.943 117.606C211.558 117.737 211.14 117.937 210.863 118.325L210.695 118.557C210.646 118.626 210.598 118.695 210.533 118.748C210.424 118.877 210.283 118.97 210.147 119.064C209.569 119.404 208.828 119.459 208.159 119.251C207.48 119.062 206.885 118.624 206.441 118.076C206.007 117.515 205.736 116.837 205.631 116.121C205.526 115.406 205.59 114.671 205.76 113.953C206.096 112.516 206.82 111.171 207.672 109.936C207.896 109.632 208.105 109.323 208.338 109.022C208.579 108.729 208.806 108.431 209.051 108.144L209.802 107.294L210.602 106.507C211.714 105.502 212.989 104.682 214.353 104.048C215.717 103.414 217.168 102.956 218.645 102.633C220.128 102.322 221.638 102.142 223.153 102.047C226.19 101.867 229.248 102.073 232.271 102.5C235.298 102.919 238.297 103.556 241.236 104.416C238.336 103.415 235.344 102.706 232.319 102.183C229.292 101.685 226.211 101.419 223.129 101.543C220.05 101.652 216.941 102.207 214.104 103.503C212.688 104.152 211.352 104.996 210.185 106.041L209.342 106.862L208.566 107.725C208.313 108.02 208.074 108.325 207.825 108.626C207.585 108.931 207.362 109.251 207.131 109.563C206.256 110.849 205.506 112.26 205.15 113.812C204.973 114.585 204.904 115.399 205.028 116.205C205.148 117.009 205.464 117.791 205.976 118.441C206.498 119.077 207.194 119.579 208 119.803C208.79 120.044 209.705 119.991 210.45 119.541C210.627 119.418 210.805 119.289 210.946 119.128C211.028 119.054 211.087 118.967 211.151 118.882L211.322 118.645C211.485 118.396 211.795 118.235 212.123 118.118C212.796 117.898 213.558 117.861 214.305 117.871C215.812 117.901 217.321 118.138 218.822 118.42C220.321 118.706 221.809 119.063 223.289 119.444C226.237 120.207 229.163 121.107 232.076 122.065Z" fill="#C58F2C"/>
<path d="M189.608 138.688C193.702 147.112 207.639 152.827 216.619 156.418Z" fill="#E4B652"/>
<path d="M189.608 138.688C193.702 147.112 207.639 152.827 216.619 156.418" stroke="#C58F2C" stroke-width="1.302" stroke-miterlimit="10"/>
<path d="M247.309 157.164C245.118 156.011 243.229 154.183 242.136 151.897C241.597 150.754 241.315 149.485 241.285 148.221C241.255 146.953 241.476 145.689 241.864 144.485C242.267 143.282 242.862 142.174 243.501 141.092C244.186 140.045 244.907 139.017 245.748 138.091C247.39 136.208 249.239 134.536 251.198 133.016L249.843 134.284C249.385 134.697 248.967 135.161 248.523 135.594C248.075 136.022 247.667 136.485 247.249 136.938C246.821 137.381 246.438 137.864 246.045 138.343C245.264 139.294 244.549 140.296 243.894 141.334C243.285 142.396 242.716 143.484 242.343 144.642C241.96 145.795 241.728 146.998 241.748 148.206C241.758 149.415 242.03 150.613 242.494 151.736C242.972 152.854 243.668 153.876 244.494 154.787C245.305 155.699 246.257 156.504 247.309 157.164Z" fill="#C48F2C"/>
<path d="M184.275 160.299C185.308 160.299 186.145 159.865 186.145 159.329C186.145 158.793 185.308 158.359 184.275 158.359C183.242 158.359 182.405 158.793 182.405 159.329C182.405 159.865 183.242 160.299 184.275 160.299Z" fill="#C58F2C"/>
<path d="M182.336 162.512C183.14 162.512 183.791 162.171 183.791 161.75C183.791 161.329 183.14 160.988 182.336 160.988C181.533 160.988 180.882 161.329 180.882 161.75C180.882 162.171 181.533 162.512 182.336 162.512Z" fill="#C58F2C"/>
<path d="M184.137 164.175C185.017 164.175 185.73 163.926 185.73 163.62C185.73 163.314 185.017 163.066 184.137 163.066C183.257 163.066 182.544 163.314 182.544 163.62C182.544 163.926 183.257 164.175 184.137 164.175Z" fill="#C58F2C"/>
<path d="M188.084 163.482C189.92 163.482 191.409 162.707 191.409 161.751C191.409 160.795 189.92 160.02 188.084 160.02C186.248 160.02 184.76 160.795 184.76 161.751C184.76 162.707 186.248 163.482 188.084 163.482Z" fill="#C58F2C"/>
<path d="M196.05 153.535C196.05 153.535 187.482 154.235 187.044 154.799Z" fill="#E4B652"/>
<path d="M196.05 153.537C195.3 153.678 194.544 153.784 193.794 153.885C193.043 153.99 192.288 154.076 191.532 154.166L189.27 154.413C188.893 154.448 188.515 154.494 188.142 154.549C187.769 154.605 187.376 154.625 187.044 154.801C187.18 154.66 187.376 154.605 187.553 154.534C187.734 154.474 187.92 154.418 188.107 154.368C188.48 154.277 188.852 154.202 189.23 154.126C189.981 153.98 190.736 153.885 191.492 153.794C192.247 153.713 193.008 153.638 193.769 153.598C194.529 153.557 195.29 153.527 196.05 153.537Z" fill="#C58F2C"/>
<rect width="36.9786" height="4.15634" rx="2" transform="matrix(-0.931669 -0.359192 -0.365586 0.932372 271.865 63.9609)" fill="#FBCACA"/>
<rect width="33.6414" height="4.23913" transform="matrix(-0.931669 -0.359192 -0.365586 0.932372 268.775 62.7188)" fill="#8B939F"/>
<rect width="31.7904" height="4.34814" transform="matrix(-0.931669 -0.359192 -0.365586 0.932372 267.052 62.0508)" fill="#FEDF85"/>
<path d="M235.939 54.5771L237.491 50.5324L233.076 50.9976L235.939 54.5771Z" fill="#343440"/>
<path d="M235.94 54.5755L237.492 50.5307L234.269 50.8333L233.826 51.989L235.94 54.5755Z" fill="white"/>
<path d="M232.862 50.8449L234.307 50.793L233.84 52.0833L232.862 50.8449Z" fill="#565961"/>
<path d="M236.379 45.2613C236.379 45.2613 235.241 42.066 241.026 45.1405C246.812 48.2149 251.54 50.5145 257.017 51.9586C262.494 53.4028 265.514 54.228 266.029 59.134C266.55 64.0401 261.877 71.4872 257.665 75.7642C255.348 78.1191 253.841 77.3996 252.956 76.2775C252.269 75.407 251.955 74.2949 251.975 73.1879C252.011 71.3614 251.768 67.2252 249.391 62.8173C247.611 59.5215 241.451 48.5521 236.379 45.2613Z" fill="#544B43"/>
<path d="M219.807 119.453C220.103 119.453 220.386 119.565 220.594 119.765C220.803 119.965 220.92 120.236 220.92 120.519V120.519C220.92 120.802 220.803 121.073 220.594 121.273C220.386 121.473 220.103 121.585 219.807 121.585H182.914L180.834 119.453H219.807Z" fill="#988189"/>
<path d="M160.459 78.3008C160.693 78.3006 160.922 78.365 161.122 78.4868C161.322 78.6086 161.484 78.7832 161.591 78.9914L183.393 121.586H117.24C117.012 121.586 116.788 121.524 116.591 121.408C116.395 121.291 116.233 121.124 116.124 120.924L93.7812 80.1849C93.701 80.0382 93.6504 79.877 93.6324 79.7108C93.6144 79.5445 93.6293 79.3765 93.6762 79.216C93.7232 79.0555 93.8013 78.9058 93.906 78.7755C94.0108 78.6453 94.1402 78.5369 94.2868 78.4567C94.4741 78.3542 94.6841 78.3007 94.8974 78.3008H160.459Z" fill="url(#paint0_linear_1533_25228)"/>
<path d="M141.58 106.979C143.989 106.342 145.141 104.658 145.439 102.648C145.439 100.721 145.439 97.0496 142.093 95.1802C140.156 94.021 137.662 93.5305 135.494 94.1133C131.664 95.1483 130.224 98.6865 131.271 102.616C132.319 106.546 137.75 108.014 141.58 106.979Z" fill="#CDC3C1"/>
<path opacity="0.66" d="M141.135 105.963C141.983 105.773 142.752 105.319 143.332 104.664C143.913 104.01 144.277 103.187 144.373 102.313C144.373 100.692 144.373 97.6019 141.575 96.0349C139.953 95.0603 137.857 94.6495 136.043 95.1432C132.831 96.0159 131.62 98.9939 132.494 102.3C133.368 105.606 137.935 106.835 141.135 105.963Z" stroke="#E4E3E3" stroke-miterlimit="10" stroke-linecap="round" stroke-dasharray="5 5"/>
<path opacity="0.66" d="M134.352 99.263C134.352 99.263 135.228 103.063 137.306 102.81C139.384 102.557 137.145 98.9844 137.145 98.9844" stroke="#E4E3E3" stroke-linecap="round" stroke-linejoin="round"/>
<path opacity="0.66" d="M140.127 103.25L138.402 98.3092C138.402 98.3092 141.137 97.6236 141.894 98.9559C142.652 100.288 139.927 100.495 139.927 100.495" stroke="#E4E3E3" stroke-linecap="round" stroke-linejoin="round"/>
<rect x="90" y="122" width="209" height="8" fill="#7C6C53"/>
<path d="M290 129H299L294.61 172L290 171.023V129Z" fill="#7C6C53"/>
<path d="M90 126H99L94.6098 169L90 168.023V126Z" fill="#7C6C53"/>
<rect x="311" y="129" width="9" height="38" fill="#7C6C53"/>
<rect x="111" y="126" width="9" height="38" fill="#7C6C53"/>
<path d="M299 122H322V128.5L299 130V122Z" fill="#685A45"/>
<path d="M295 130H299V171.638L295 173V130Z" fill="#685A45"/>
<path d="M95 130H99V168.733L95 170V130Z" fill="#685A45"/>
<path d="M316 122H320V165.575L316 167V122Z" fill="#685A45"/>
<path d="M116 130H120V162.923L116 164V130Z" fill="#685A45"/>
<path d="M229.449 84.4844H262.499V122.012H229.449V84.4844Z" fill="#3D8DC7"/>
<rect x="262.499" y="84.4844" width="5.33065" height="37.5277" fill="#287DBA"/>
<path d="M267.83 84.4844H279.984V122.012H267.83V84.4844Z" fill="#2C6F9F"/>
<rect x="266.125" y="114.547" width="28.9987" height="7.03645" fill="#E0DCDC"/>
<rect x="295.124" y="114.547" width="21.3226" height="7.03645" fill="#CA6060"/>
<rect x="266.125" y="114.547" width="28.9987" height="0.426452" fill="#CA6060"/>
<rect x="266.125" y="121.156" width="28.9987" height="0.426452" fill="#CA6060"/>
<rect x="266.125" y="115.824" width="28.9987" height="0.213226" fill="#B0ABAB"/>
<rect x="266.125" y="116.891" width="28.9987" height="0.213226" fill="#B0ABAB"/>
<rect x="266.125" y="117.957" width="28.9987" height="0.213226" fill="#B0ABAB"/>
<rect x="266.125" y="119.023" width="28.9987" height="0.213226" fill="#B0ABAB"/>
<rect x="266.125" y="120.09" width="28.9987" height="0.213226" fill="#B0ABAB"/>
<rect x="263.566" y="107.512" width="28.9987" height="7.03645" fill="#E0DCDC"/>
<rect x="292.565" y="107.512" width="21.3226" height="7.03645" fill="#287B8D"/>
<rect x="263.566" y="107.512" width="28.9987" height="0.426452" fill="#287B8D"/>
<rect x="263.566" y="114.121" width="28.9987" height="0.426452" fill="#287B8D"/>
<rect x="263.566" y="108.789" width="28.9987" height="0.213226" fill="#B0ABAB"/>
<rect x="263.566" y="109.855" width="28.9987" height="0.213226" fill="#B0ABAB"/>
<rect x="263.566" y="110.922" width="28.9987" height="0.213226" fill="#B0ABAB"/>
<rect x="263.566" y="111.988" width="28.9987" height="0.213226" fill="#B0ABAB"/>
<rect x="263.566" y="113.055" width="28.9987" height="0.213226" fill="#B0ABAB"/>
<path d="M223 60C223.252 61.2905 224.377 63.6623 226.863 62.8252C229.348 61.9881 232.656 62.4764 234 62.8252" stroke="#544B43" stroke-width="1.5" stroke-linecap="round"/>
<path d="M210.053 72.8086C210.053 73.7829 210.167 74.8276 209.971 75.7824C209.843 76.4085 209.886 76.6471 210.529 76.6768C212.155 76.7519 213.93 77.4191 214.5 78.9995C214.5 78.9995 215.5 80.4995 215.5 81.4995" stroke="#544B43" stroke-width="2" stroke-linecap="round"/>
<circle cx="128" cy="40" r="28" fill="white"/>
<path d="M159.107 63.7167L140.461 61.7411L148.649 49.3235L159.107 63.7167Z" fill="white" stroke="white" stroke-width="2"/>
<path d="M125.733 42.2299C126.347 40.2108 133.516 28.4844 136.033 32.4444C137.965 35.4846 130.772 40.3184 129.434 41.1337C128.159 41.9101 126.802 42.5939 125.37 42.9785C124.256 43.2778 121.708 43.4049 122.938 41.1604C124.262 38.743 128.576 35.3658 131.504 36.2142C134.816 37.1738 131.715 42.5372 130.753 43.7806C128.171 47.1209 127.882 43.5041 129.02 41.4813C130.428 38.9759 137.738 34.4952 137.456 40.7594C137.352 43.0767 134.523 45.2194 132.513 43.5132C131.04 42.2625 132.138 39.4893 134.118 40.2514C135.894 40.9351 135.124 43.7843 134.066 42.7646C133.1 41.8332 131.939 37.4312 133.911 36.8291C137.343 35.7815 139.193 50.6878 134.247 49.0744C130.711 47.9206 128.036 42.6167 127.079 39.3424C126.747 38.2091 125.795 33.4648 127.803 32.284C130.11 30.9273 131.666 36.6242 131.685 36.7222C132.698 41.967 131.589 49.2577 127.26 52.7908C123.04 56.2342 120.84 50.6033 120.557 47.2563C120.225 43.3381 121.057 37.4879 124.465 34.9843C126.902 33.1936 129.754 34.9706 130.236 37.7917C130.694 40.4726 128.965 44.7523 125.707 44.4223C121.277 43.9736 120.626 37.0866 120.971 33.8347C121.353 30.2281 123.506 25.0351 127.984 26.6426C132.526 28.273 135.396 35.2559 134.687 39.8771C133.299 48.9325 122.719 40.2066 129.201 37.6312C132.895 36.1632 137.146 38.5802 139.449 41.4813C140.308 42.5632 142.838 48.1151 138.957 47.7643C131.78 47.1155 133.949 32.9345 138.336 36.9094C140.4 38.7788 140.862 42.3736 140.588 45.0105C140.317 47.6176 138.443 48.1846 138 45.4383C137.412 41.7971 141.567 44.6596 138.31 46.989C136.018 48.6283 134.182 46.4112 133.678 44.2084C132.906 40.8333 134.04 37.259 136.602 35.0111C140.952 31.195 149.13 32.8544 142.503 39.1819C137.916 43.5614 125.041 52.8985 121.411 42.8983C119.599 37.9073 121.157 28.0723 128.58 30.9739C138.88 35.0002 128.221 51.0725 122.42 54.0474C113.089 58.8328 112.069 44.3201 113.931 38.674C115.577 33.6855 118.831 29.4103 123.662 27.3645C127.598 25.6978 135.553 25.0756 137.068 30.7333C138.632 36.5706 129.753 43.132 125.267 38.6472C120.404 33.7858 131.015 28.4557 131.944 37.0965C132.818 45.2232 117.985 49.6392 117.244 41.2674C116.988 38.3744 119.811 36.5729 122.239 36.7222C125.918 36.9484 124.72 40.5976 121.463 39.2889C113.605 36.1322 119.435 22.2128 127.027 26.0544C128.944 27.0245 130.66 30.6821 127.751 31.8562C124.96 32.9828 122.063 30.3678 120.945 28.0329C120.943 28.0296 119.766 22.0833 122.11 24.6374C124.133 26.8432 124.134 30.8532 122.808 33.3802C121.356 36.1487 118.055 37.6512 115.225 36.0271C111.416 33.8404 113.532 31.1381 114.087 28.2735" stroke="#343440" stroke-width="2" stroke-linecap="round"/>
<defs>
<linearGradient id="paint0_linear_1533_25228" x1="131.725" y1="78.2371" x2="134.042" y2="121.923" gradientUnits="userSpaceOnUse">
<stop stop-color="#D1C6C6"/>
<stop offset="1" stop-color="#988189"/>
</linearGradient>
</defs>
</svg>
