<svg fill="none" height="725" viewBox="0 0 799 725" width="799" xmlns="http://www.w3.org/2000/svg" xmlns:xlink="http://www.w3.org/1999/xlink"><clipPath id="a"><path d="m0 0h799v725h-799z"/></clipPath><g clip-path="url(#a)"><ellipse cx="490.488" cy="637.361" fill="#dbdfdf" rx="308.981" ry="65.6385"/><path d="m284.341 510.68-17.966-53.792s-21.758-43.052-31.206-141.75l-2.821-26.267s-67.608-245.1124 112.673-265.4541c118.488-13.3555 195.698 31.5247 234.723 63.8641 21.085 17.478 25.737 41.547 31.132 68.357 4.702 23.329-17.768 68.061-8.34 92.328 40.585 104.375 47.316 111.139 58.254 124.79 6.237 7.801 28.311 25.057 42.515 51.151 28.484 52.311 21.852 132.172 21.852 132.172l-284.886 50.903s-89.484 12.788-123.808-13.059l-2.599-28.735" fill="#e4b652"/><path d="m343.015 21s-76.477 12.3962-104.668 13.7653c-28.192 1.369-45.25-3.9081-52.113 40.773-6.862 44.6807 11.134 80.4507 20.169 84.1847 9.381 3.883 22.785 5.675 34.141-23.174 11.355-28.85 23.673-64.7943 50.31-81.9199 22.513-14.4623 43.225-22.8011 49.125-25.0414 1.382-.5227 2.666-1.2197 3.851-2.066 3.209-2.2901 7.899-6.5217-.815-6.5217z" fill="#544b43"/><path d="m514.941 53.7108s-5.505-15.5653 22.486-.5883c27.991 14.9769 50.868 26.179 77.366 33.214s41.105 11.055 43.601 34.9545c2.52 23.899-20.088 60.177-40.469 81.013-11.206 11.471-18.498 7.966-22.78 2.5-3.327-4.241-4.844-9.658-4.746-15.051.171-8.898-1.003-29.047-12.503-50.519-8.613-16.056-38.414-69.4923-62.955-85.5232z" fill="#544b43"/><path d="m299.977 169.525s45.673-30.586 97.671-22.195c51.999 8.391 72.028 56.177 72.028 56.177" stroke="#544b43" stroke-linecap="round" stroke-linejoin="round" stroke-miterlimit="10" stroke-width="3"/><path d="m391.268 166.802s-31.739-9.628-33.636 16.708c-.219 3.132 1.216 6.31 4.062 7.829 3.453 1.823 9.631 2.571 20.575-1.799 0 0 4.062-2.337 7.442 1.589 3.405 3.926 6.494 10.072 16.903 9.067 4.28-.421 7.15-2.734 9.047-5.328 3.867-5.282 3.746-12.549-.608-17.457-3.648-4.136-10.604-8.506-23.785-10.609z" fill="#544b43"/><path d="m232.737 289.953s159.07 54.601 369.555-44.822l15.708 38.369s-206.637 99.633-384.743 37.472z" fill="#16d2aa"/><path d="m390.214 417.198c18.896 0 34.214-16.327 34.214-36.467 0-20.141-15.318-36.468-34.214-36.468s-34.214 16.327-34.214 36.468c0 20.14 15.318 36.467 34.214 36.467z" fill="#fff"/><path d="m390.205 343.452c-21.091 0-38.21 17.087-38.21 38.193 0 21.082 17.095 38.194 38.21 38.194 21.091 0 38.21-17.087 38.21-38.194 0-21.106-17.119-38.193-38.21-38.193zm0 71.086c-18.18 0-32.931-14.745-32.931-32.917 0-18.173 14.727-32.917 32.931-32.917 18.18 0 32.931 14.72 32.931 32.917 0 18.196-14.751 32.917-32.931 32.917z" fill="#16d2aa"/><path d="m390.21 414.562c18.187 0 32.931-14.738 32.931-32.917 0-18.18-14.744-32.917-32.931-32.917s-32.931 14.737-32.931 32.917c0 18.179 14.744 32.917 32.931 32.917z" fill="#fff"/><path d="m373.706 389.573c1.06 1.307 2.466 1.972 4.242 1.972s3.182-.665 4.218-1.972 1.554-3.107 1.554-5.351v-11.835l6.315-3.797v15.83c0 4.093-1.134 7.249-3.404 9.443-2.269 2.195-5.155 3.304-8.707 3.304-3.528 0-6.438-1.109-8.733-3.328-2.269-2.22-3.428-5.351-3.428-9.419v-12.033l6.315-3.797v15.608c.049 2.293.567 4.068 1.628 5.375z" fill="#16d2aa"/><path d="m411.637 371.13c1.973 1.676 2.985 4.265 2.985 7.766 0 3.502-1.012 6.041-3.059 7.669-2.048 1.627-5.156 2.416-9.324 2.416h-3.775v4.093l-6.314 3.797v-28.281h9.99c4.341.025 7.499.863 9.497 2.54zm-4.638 11.12c.765-.839 1.135-2.096 1.135-3.723 0-1.628-.493-2.787-1.48-3.477s-2.516-1.036-4.588-1.036h-3.602v9.518h4.243c2.097 0 3.528-.419 4.292-1.282z" fill="#16d2aa"/><path d="m390.37 339.107s2.616 6.352.116 9.785c-2.516 3.456 1.308 1.144 1.308 1.144s2.334-6.305 0-10.929c0 0-.497-2.522-1.424 0z" fill="#b5dfd5"/><path d="m266.612 327.23-79.019-37.363c-11.776-7.578-31.534-2.903-41.988 10.719-11.671 15.215 2.287 80.47 110.846 108.61" fill="#e4b652"/><path d="m263.228 325.543-18.793-9.715c-6.267-3.246-12.637-6.365-18.964-9.531l-19.025-9.451-19.162-9.258.126.084c-5.536-3.64-13.342-4.754-21.253-2.986-7.892 1.66-15.843 6.472-21.102 12.873-2.761 3.217-4.348 7.07-5.035 10.566-.67 3.536-.655 6.947-.283 10.176.795 6.508 3.101 12.349 5.954 17.791 5.95 10.808 14.414 19.851 23.838 27.843 9.474 7.965 20.138 14.764 31.37 20.758-10.674-6.67-20.877-13.849-29.917-22.109-9.075-8.193-17.064-17.428-22.56-28.097-2.744-5.324-4.874-11.032-5.555-17.18-.666-6.032-.028-12.946 4.67-18.374 4.658-5.604 11.619-9.67 18.616-11.269 7.014-1.633 13.97-.729 18.97 2.494l.076.035.075.036 19.325 9.053 19.463 8.86c6.508 2.927 12.955 5.933 19.523 8.78z" fill="#c58f2c"/><path d="m538.468 321.694-78.139-37.067c-11.645-7.518-31.183-2.881-41.521 10.632-11.542 15.092 4.571 67.829 81.178 99.093" fill="#e4b652"/><path d="m536.614 320.615-18.793-9.715c-6.267-3.246-12.637-6.365-18.964-9.531l-19.025-9.451-19.162-9.258.126.084c-5.536-3.64-13.342-4.754-21.253-2.986-7.893 1.66-15.843 6.472-21.102 12.873-2.761 3.217-4.348 7.07-5.035 10.565-.67 3.537-.655 6.947-.283 10.177.795 6.508 3.101 12.349 5.953 17.791 5.951 10.808 14.415 19.851 23.839 27.842 9.474 7.966 20.138 14.765 31.369 20.759-10.673-6.67-20.876-13.849-29.916-22.109-9.075-8.193-17.064-17.428-22.56-28.097-2.744-5.324-4.874-11.033-5.555-17.18-.666-6.032-.028-12.946 4.67-18.374 4.658-5.604 11.619-9.67 18.615-11.269 7.014-1.634 13.97-.729 18.971 2.494l.075.035.076.036 19.325 9.053 19.463 8.86c6.507 2.926 12.955 5.933 19.523 8.78z" fill="#c58f2c"/><path d="m725.826 555.714s-9.769 33.485-38.389 61.381c-7.92 7.721-17.285 15.013-28.286 21.049-12.056 6.615-26.078 11.721-42.32 14.227-84.628 13.056-106.575 0-106.575 0s-15.504-9.136 12.27-26.136c27.773-17 45.227-24.813 45.227-24.813s-118.845 7.189-158.913 5.866" fill="#e4b652"/><path d="m472.878 605.594s-72.178 10.304-156.435 26.486c-43.342 8.313-64.233 7.501-73.837 5.706-6.485-1.23-11.881-6.197-12.896-12.665-.94-6.099 1.585-14.289 15.495-22.65 27.847-16.723 29.258-12.838 29.258-12.838-34.183-36.667 10.198-78.745 10.198-78.745s48.415 73.212 118.316 83.984" fill="#e4b652"/><path d="m283.967 510.888c19.896 41.076 87.633 68.94 131.277 86.45z" fill="#e4b652"/><path d="m283.967 510.888c19.896 41.076 87.633 68.94 131.277 86.45" stroke="#c58f2c" stroke-miterlimit="10" stroke-width="1.302"/><path d="m566.926 601.913c-10.731-5.646-19.981-14.597-25.334-25.791-2.639-5.597-4.02-11.811-4.168-18-.148-6.213.937-12.402 2.836-18.295 1.974-5.893 4.884-11.318 8.017-16.619 3.355-5.129 6.882-10.159 11.002-14.696 8.041-9.221 17.094-17.407 26.69-24.854l-6.636 6.214c-2.244 2.022-4.292 4.29-6.463 6.411-2.195 2.095-4.193 4.364-6.24 6.583-2.097 2.17-3.972 4.537-5.896 6.879-3.823 4.66-7.326 9.567-10.533 14.647-2.985 5.202-5.772 10.528-7.597 16.199-1.875 5.647-3.01 11.54-2.911 17.457.049 5.918 1.381 11.786 3.651 17.285 2.343 5.474 5.747 10.479 9.793 14.942 3.971 4.463 8.633 8.408 13.789 11.638z" fill="#c48f2c"/><g fill="#c58f2c"><path d="m166.175 307.575c3.574 3.579 7.976 4.977 9.831 3.124 1.856-1.853.462-6.256-3.112-9.835-3.574-3.578-7.975-4.976-9.83-3.123-1.856 1.853-.463 6.256 3.111 9.834z"/><path d="m150.933 309.378c2.78 2.783 6.407 3.668 8.1 1.976 1.694-1.692.814-5.319-1.966-8.102s-6.407-3.668-8.1-1.977c-1.694 1.692-.813 5.32 1.966 8.103z"/><path d="m150.585 322.187c3.045 3.048 6.746 4.287 8.268 2.768 1.521-1.52.287-5.223-2.758-8.272-3.044-3.048-6.746-4.287-8.267-2.767-1.522 1.52-.288 5.223 2.757 8.271z"/><path d="m166.495 329.958c5.343 5.35 12.361 7.004 15.674 3.695 3.313-3.31 1.668-10.329-3.676-15.679-5.343-5.35-12.361-7.004-15.674-3.695s-1.668 10.329 3.676 15.679z"/><path d="m440.231 301.817c3.069 4.02 7.247 5.989 9.331 4.398 2.085-1.592 1.286-6.141-1.783-10.16-3.069-4.02-7.246-5.989-9.331-4.398-2.084 1.592-1.286 6.14 1.783 10.16z"/><path d="m425.843 300.854c2.387 3.126 5.649 4.647 7.287 3.397 1.638-1.251 1.03-4.799-1.357-7.925-2.387-3.127-5.649-4.648-7.287-3.398-1.638 1.251-1.031 4.799 1.357 7.926z"/><path d="m423.897 311.717c2.157 2.825 4.871 4.378 6.062 3.468 1.191-.909.408-3.936-1.749-6.761-2.156-2.825-4.87-4.377-6.061-3.468s-.408 3.936 1.748 6.761z"/><path d="m437.449 323.867c4.512 5.909 11.186 8.396 14.908 5.554s3.083-9.935-1.429-15.844c-4.511-5.909-11.185-8.395-14.907-5.554-3.722 2.842-3.083 9.936 1.428 15.844z"/></g><path d="m470.252 153.594s-1.546-13.299-11.604-14.625c-10.082-1.298-12.848 8.015-12.848 8.015" stroke="#1e1c1a" stroke-linecap="round" stroke-linejoin="round" stroke-miterlimit="10" stroke-width="3"/><path d="m335.606 136.557s-3.783-11.045-13.814-9.668c-10.052 1.375-11.125 10.03-11.125 10.03" stroke="#1e1c1a" stroke-linecap="round" stroke-linejoin="round" stroke-miterlimit="10" stroke-width="3"/><path d="m387.077 190.7-3.852 20.262s2.669 10.654 18.933 14.643c1.137.268 2.297.365 3.457.292 3.759-.219 11.996-1.314 16.033-6.349" stroke="#544b43" stroke-linecap="round" stroke-linejoin="round" stroke-miterlimit="10" stroke-width="3"/><path d="m383.225 209.911s-8.319 12.129-21.67 9.128-13.55-9.128-13.55-9.128" stroke="#544b43" stroke-linecap="round" stroke-linejoin="round" stroke-miterlimit="10" stroke-width="3"/><rect fill="#c4c4c4" height="176.103" rx="1.5" width="6.40376" x="162.296" y="165.084"/><path d="m162.296 259.84v-87.03c0-.663-.634-1.142-1.272-.962l-158.51842 44.833c-.97829.277-.96752 1.668.01493 1.929l158.51849 42.196c.634.169 1.257-.309 1.257-.966z" fill="#1855d1"/><path d="m698.328 491.203s14.643-13.566 25.05-37.769c10.408-24.203 29.493-9.386 32.101 2.728 2.557 11.889 14.359 41.674-54.646 73.936l-10.227-21.199z" fill="#e4b652"/></g></svg>