<svg width="100%" height="100%" viewBox="-150 -100 800 800" fill="none" xmlns="http://www.w3.org/2000/svg">
<circle cx="250.5" cy="242.5" r="193.5" fill="#CFE2F9" fill-opacity="0.75"/>
<path d="M68.5 265C92.5244 265 112 245.524 112 221.5C112 197.476 92.5244 178 68.5 178C44.4756 178 25 197.476 25 221.5C25 245.524 44.4756 265 68.5 265Z" fill="#F584F6"/>
<path d="M133.5 144C157.524 144 177 124.524 177 100.5C177 76.4756 157.524 57 133.5 57C109.476 57 90 76.4756 90 100.5C90 124.524 109.476 144 133.5 144Z" fill="#F7C32E"/>
<path d="M250.5 92C274.524 92 294 72.3005 294 48C294 23.6995 274.524 4 250.5 4C226.476 4 207 23.6995 207 48C207 72.3005 226.476 92 250.5 92Z" fill="#03CFFC"/>
<path d="M368.5 144C392.524 144 412 124.524 412 100.5C412 76.4756 392.524 57 368.5 57C344.476 57 325 76.4756 325 100.5C325 124.524 344.476 144 368.5 144Z" fill="#7846CE"/>
<path d="M432.5 265C456.524 265 476 245.524 476 221.5C476 197.476 456.524 178 432.5 178C408.476 178 389 197.476 389 221.5C389 245.524 408.476 265 432.5 265Z" fill="#5CC0F6"/>
<path d="M67 261C91.3005 261 111 241.524 111 217.5C111 193.476 91.3005 174 67 174C42.6995 174 23 193.476 23 217.5C23 241.524 42.6995 261 67 261Z" fill="#F7AEF8"/>
<path d="M67 261C91.3005 261 111 241.524 111 217.5C111 193.476 91.3005 174 67 174C42.6995 174 23 193.476 23 217.5C23 241.524 42.6995 261 67 261Z" fill="#F7AEF8"/>
<path d="M58.2429 218.369H54.0952C53.784 218.369 53.4856 218.247 53.2655 218.029C53.0455 217.812 52.9219 217.517 52.9219 217.209V214.379C52.9219 214.071 53.0455 213.776 53.2655 213.559C53.4856 213.341 53.784 213.219 54.0952 213.219H58.2664C58.5715 213.228 58.8609 213.354 59.0734 213.571C59.2859 213.787 59.4047 214.077 59.4045 214.379V217.232C59.3985 217.534 59.2738 217.821 59.0569 218.034C58.84 218.246 58.5481 218.366 58.2429 218.369ZM54.0952 213.822C53.9396 213.822 53.7904 213.883 53.6804 213.992C53.5704 214.101 53.5085 214.248 53.5085 214.402V217.256C53.5085 217.409 53.5704 217.557 53.6804 217.666C53.7904 217.774 53.9396 217.836 54.0952 217.836H58.2664C58.4158 217.827 58.5562 217.762 58.6587 217.654C58.7612 217.546 58.8181 217.404 58.8179 217.256V214.379C58.8181 214.231 58.7612 214.088 58.6587 213.98C58.5562 213.873 58.4158 213.808 58.2664 213.799L54.0952 213.822Z" fill="#F44747"/>
<path d="M65.4676 218.369H61.3022C60.9911 218.369 60.6926 218.247 60.4726 218.029C60.2525 217.812 60.1289 217.517 60.1289 217.209V214.379C60.1289 214.071 60.2525 213.776 60.4726 213.559C60.6926 213.341 60.9911 213.219 61.3022 213.219H65.4676C65.7788 213.219 66.0772 213.341 66.2972 213.559C66.5173 213.776 66.6409 214.071 66.6409 214.379V217.232C66.6348 217.536 66.5084 217.825 66.2891 218.038C66.0697 218.25 65.7747 218.369 65.4676 218.369ZM61.3022 213.822C61.1466 213.822 60.9974 213.883 60.8874 213.992C60.7774 214.101 60.7156 214.248 60.7156 214.402V217.256C60.7156 217.409 60.7774 217.557 60.8874 217.666C60.9974 217.774 61.1466 217.836 61.3022 217.836H65.4676C65.6232 217.836 65.7724 217.774 65.8824 217.666C65.9924 217.557 66.0542 217.409 66.0542 217.256V214.379C66.0542 214.225 65.9924 214.077 65.8824 213.969C65.7724 213.86 65.6232 213.799 65.4676 213.799L61.3022 213.822Z" fill="#F44747"/>
<path d="M72.7039 218.369H68.5327C68.2276 218.36 67.9381 218.234 67.7257 218.017C67.5132 217.801 67.3944 217.511 67.3945 217.209V214.379C67.3944 214.077 67.5132 213.787 67.7257 213.571C67.9381 213.354 68.2276 213.228 68.5327 213.219H72.7039C73.015 213.219 73.3135 213.341 73.5335 213.559C73.7536 213.776 73.8772 214.071 73.8772 214.379V217.232C73.871 217.536 73.7447 217.825 73.5253 218.038C73.306 218.25 73.011 218.369 72.7039 218.369ZM68.5327 213.822C68.3833 213.831 68.2429 213.896 68.1404 214.004C68.0379 214.111 67.9809 214.254 67.9812 214.402V217.256C67.9809 217.404 68.0379 217.546 68.1404 217.654C68.2429 217.762 68.3833 217.827 68.5327 217.836H72.7039C72.8595 217.836 73.0087 217.774 73.1187 217.666C73.2287 217.557 73.2905 217.409 73.2905 217.256V214.379C73.2905 214.225 73.2287 214.077 73.1187 213.969C73.0087 213.86 72.8595 213.799 72.7039 213.799L68.5327 213.822Z" fill="#F44747"/>
<path d="M79.9051 218.369H75.7397C75.4286 218.369 75.1301 218.247 74.9101 218.029C74.69 217.812 74.5664 217.517 74.5664 217.209V214.379C74.5664 214.071 74.69 213.776 74.9101 213.559C75.1301 213.341 75.4286 213.219 75.7397 213.219H79.9051C80.2112 213.226 80.5021 213.352 80.7159 213.569C80.9296 213.785 81.0492 214.076 81.0491 214.379V217.232C81.0431 217.531 80.9209 217.816 80.7078 218.028C80.4947 218.239 80.2071 218.362 79.9051 218.369ZM75.7397 213.822C75.5841 213.822 75.4349 213.883 75.3249 213.992C75.2149 214.101 75.1531 214.248 75.1531 214.402V217.256C75.1531 217.409 75.2149 217.557 75.3249 217.666C75.4349 217.774 75.5841 217.836 75.7397 217.836H79.9051C80.0555 217.828 80.1973 217.764 80.3011 217.656C80.4048 217.548 80.4626 217.404 80.4624 217.256V214.379C80.4626 214.23 80.4048 214.087 80.3011 213.979C80.1973 213.871 80.0555 213.806 79.9051 213.799L75.7397 213.822Z" fill="#F44747"/>
<path d="M58.2429 224.141H54.0952C53.784 224.141 53.4856 224.018 53.2655 223.801C53.0455 223.583 52.9219 223.288 52.9219 222.981V220.144C52.9219 219.837 53.0455 219.542 53.2655 219.324C53.4856 219.107 53.784 218.984 54.0952 218.984H58.2664C58.5715 218.993 58.8609 219.12 59.0734 219.336C59.2859 219.553 59.4047 219.843 59.4045 220.144V223.004C59.3985 223.305 59.2738 223.593 59.0569 223.805C58.84 224.017 58.5481 224.138 58.2429 224.141ZM54.0952 219.593C53.9396 219.593 53.7904 219.654 53.6804 219.763C53.5704 219.872 53.5085 220.02 53.5085 220.173V223.033C53.5085 223.187 53.5704 223.334 53.6804 223.443C53.7904 223.552 53.9396 223.613 54.0952 223.613H58.2664C58.4158 223.604 58.5562 223.539 58.6587 223.431C58.7612 223.323 58.8181 223.181 58.8179 223.033V220.144C58.8181 219.996 58.7612 219.854 58.6587 219.746C58.5562 219.638 58.4158 219.573 58.2664 219.564L54.0952 219.593Z" fill="#F44747"/>
<path d="M65.4676 224.141H61.3022C60.9911 224.141 60.6926 224.018 60.4726 223.801C60.2525 223.583 60.1289 223.288 60.1289 222.981V220.144C60.1289 219.837 60.2525 219.542 60.4726 219.324C60.6926 219.107 60.9911 218.984 61.3022 218.984H65.4676C65.7788 218.984 66.0772 219.107 66.2972 219.324C66.5173 219.542 66.6409 219.837 66.6409 220.144V223.004C66.6348 223.307 66.5084 223.597 66.2891 223.809C66.0697 224.022 65.7747 224.141 65.4676 224.141ZM61.3022 219.593C61.1466 219.593 60.9974 219.654 60.8874 219.763C60.7774 219.872 60.7156 220.02 60.7156 220.173V223.033C60.7156 223.187 60.7774 223.334 60.8874 223.443C60.9974 223.552 61.1466 223.613 61.3022 223.613H65.4676C65.6232 223.613 65.7724 223.552 65.8824 223.443C65.9924 223.334 66.0542 223.187 66.0542 223.033V220.144C66.0542 219.991 65.9924 219.843 65.8824 219.734C65.7724 219.625 65.6232 219.564 65.4676 219.564L61.3022 219.593Z" fill="#F44747"/>
<path d="M72.7039 224.141H68.5327C68.2276 224.132 67.9381 224.005 67.7257 223.789C67.5132 223.572 67.3944 223.282 67.3945 222.981V220.144C67.3944 219.843 67.5132 219.553 67.7257 219.336C67.9381 219.12 68.2276 218.993 68.5327 218.984H72.7039C73.015 218.984 73.3135 219.107 73.5335 219.324C73.7536 219.542 73.8772 219.837 73.8772 220.144V223.004C73.871 223.307 73.7447 223.597 73.5253 223.809C73.306 224.022 73.011 224.141 72.7039 224.141ZM68.5327 219.593C68.3833 219.602 68.2429 219.667 68.1404 219.775C68.0379 219.883 67.9809 220.025 67.9812 220.173V223.033C67.9809 223.181 68.0379 223.323 68.1404 223.431C68.2429 223.539 68.3833 223.604 68.5327 223.613H72.7039C72.8595 223.613 73.0087 223.552 73.1187 223.443C73.2287 223.334 73.2905 223.187 73.2905 223.033V220.144C73.2905 219.991 73.2287 219.843 73.1187 219.734C73.0087 219.625 72.8595 219.564 72.7039 219.564L68.5327 219.593Z" fill="#F44747"/>
<path d="M79.9051 224.141H75.7397C75.4286 224.141 75.1301 224.018 74.9101 223.801C74.69 223.583 74.5664 223.288 74.5664 222.981V220.144C74.5664 219.837 74.69 219.542 74.9101 219.324C75.1301 219.107 75.4286 218.984 75.7397 218.984H79.9051C80.2112 218.992 80.5021 219.117 80.7159 219.334C80.9296 219.551 81.0492 219.842 81.0491 220.144V223.004C81.0431 223.302 80.9209 223.587 80.7078 223.799C80.4947 224.011 80.2071 224.133 79.9051 224.141ZM75.7397 219.593C75.5841 219.593 75.4349 219.654 75.3249 219.763C75.2149 219.872 75.1531 220.02 75.1531 220.173V223.033C75.1531 223.187 75.2149 223.334 75.3249 223.443C75.4349 223.552 75.5841 223.613 75.7397 223.613H79.9051C80.0555 223.605 80.1973 223.541 80.3011 223.433C80.4048 223.325 80.4626 223.182 80.4624 223.033V220.144C80.4626 219.995 80.4048 219.852 80.3011 219.744C80.1973 219.636 80.0555 219.572 79.9051 219.564L75.7397 219.593Z" fill="#F44747"/>
<path d="M58.2429 229.906H54.0952C53.784 229.906 53.4856 229.784 53.2655 229.567C53.0455 229.349 52.9219 229.054 52.9219 228.746V225.916C52.9219 225.608 53.0455 225.313 53.2655 225.096C53.4856 224.878 53.784 224.756 54.0952 224.756H58.2664C58.5715 224.765 58.8609 224.891 59.0734 225.108C59.2859 225.324 59.4047 225.614 59.4045 225.916V228.775C59.4054 228.925 59.3757 229.074 59.3174 229.213C59.2591 229.352 59.1733 229.478 59.065 229.583C58.9568 229.688 58.8283 229.771 58.6871 229.827C58.5459 229.882 58.3949 229.909 58.2429 229.906ZM54.0952 225.359C53.9396 225.359 53.7904 225.42 53.6804 225.529C53.5704 225.638 53.5085 225.785 53.5085 225.939V228.798C53.5085 228.952 53.5704 229.1 53.6804 229.209C53.7904 229.317 53.9396 229.378 54.0952 229.378H58.2664C58.4158 229.37 58.5562 229.305 58.6587 229.197C58.7612 229.089 58.8181 228.946 58.8179 228.798V225.916C58.8181 225.768 58.7612 225.625 58.6587 225.518C58.5562 225.41 58.4158 225.345 58.2664 225.336L54.0952 225.359Z" fill="#F44747"/>
<path d="M65.4676 229.906H61.3022C60.9911 229.906 60.6926 229.784 60.4726 229.566C60.2525 229.349 60.1289 229.054 60.1289 228.746V225.916C60.1289 225.608 60.2525 225.313 60.4726 225.096C60.6926 224.878 60.9911 224.756 61.3022 224.756H65.4676C65.7788 224.756 66.0772 224.878 66.2972 225.096C66.5173 225.313 66.6409 225.608 66.6409 225.916V228.775C66.6332 229.078 66.5063 229.366 66.287 229.577C66.0678 229.788 65.7737 229.906 65.4676 229.906ZM61.3022 225.359C61.1466 225.359 60.9974 225.42 60.8874 225.529C60.7774 225.638 60.7156 225.785 60.7156 225.939V228.798C60.7156 228.952 60.7774 229.1 60.8874 229.209C60.9974 229.317 61.1466 229.378 61.3022 229.378H65.4676C65.6232 229.378 65.7724 229.317 65.8824 229.209C65.9924 229.1 66.0542 228.952 66.0542 228.798V225.916C66.0542 225.762 65.9924 225.615 65.8824 225.506C65.7724 225.397 65.6232 225.336 65.4676 225.336L61.3022 225.359Z" fill="#F44747"/>
<path d="M79.9051 229.906H75.7397C75.4286 229.906 75.1301 229.784 74.9101 229.566C74.69 229.349 74.5664 229.054 74.5664 228.746V225.916C74.5664 225.608 74.69 225.313 74.9101 225.096C75.1301 224.878 75.4286 224.756 75.7397 224.756H79.9051C80.2112 224.763 80.5021 224.889 80.7159 225.106C80.9296 225.322 81.0492 225.613 81.0491 225.916V228.775C81.0416 229.073 80.9187 229.356 80.7058 229.567C80.4928 229.777 80.2061 229.899 79.9051 229.906ZM75.7397 225.359C75.5841 225.359 75.4349 225.42 75.3249 225.529C75.2149 225.638 75.1531 225.785 75.1531 225.939V228.798C75.1531 228.952 75.2149 229.1 75.3249 229.209C75.4349 229.317 75.5841 229.378 75.7397 229.378H79.9051C80.0555 229.371 80.1973 229.307 80.3011 229.199C80.4048 229.091 80.4626 228.947 80.4624 228.798V225.916C80.4626 225.767 80.4048 225.624 80.3011 225.516C80.1973 225.408 80.0555 225.343 79.9051 225.336L75.7397 225.359Z" fill="#F44747"/>
<path d="M58.2429 235.678H54.0952C53.784 235.678 53.4856 235.556 53.2655 235.338C53.0455 235.12 52.9219 234.825 52.9219 234.518V231.687C52.9219 231.38 53.0455 231.085 53.2655 230.867C53.4856 230.65 53.784 230.527 54.0952 230.527H58.2664C58.5715 230.536 58.8609 230.663 59.0734 230.879C59.2859 231.096 59.4047 231.386 59.4045 231.687V234.541C59.3985 234.843 59.2738 235.13 59.0569 235.342C58.84 235.554 58.5481 235.675 58.2429 235.678ZM54.0952 231.131C53.9396 231.131 53.7904 231.192 53.6804 231.3C53.5704 231.409 53.5085 231.557 53.5085 231.711V234.564C53.5085 234.718 53.5704 234.865 53.6804 234.974C53.7904 235.083 53.9396 235.144 54.0952 235.144H58.2664C58.4158 235.135 58.5562 235.07 58.6587 234.962C58.7612 234.855 58.8181 234.712 58.8179 234.564V231.687C58.8181 231.539 58.7612 231.397 58.6587 231.289C58.5562 231.181 58.4158 231.116 58.2664 231.107L54.0952 231.131Z" fill="#F44747"/>
<path d="M65.4676 235.678H61.3022C60.9911 235.678 60.6926 235.556 60.4726 235.338C60.2525 235.12 60.1289 234.825 60.1289 234.518V231.687C60.1289 231.38 60.2525 231.085 60.4726 230.867C60.6926 230.65 60.9911 230.527 61.3022 230.527H65.4676C65.7788 230.527 66.0772 230.65 66.2972 230.867C66.5173 231.085 66.6409 231.38 66.6409 231.687V234.541C66.6348 234.845 66.5084 235.134 66.2891 235.346C66.0697 235.559 65.7747 235.678 65.4676 235.678ZM61.3022 231.131C61.1466 231.131 60.9974 231.192 60.8874 231.3C60.7774 231.409 60.7156 231.557 60.7156 231.711V234.564C60.7156 234.718 60.7774 234.865 60.8874 234.974C60.9974 235.083 61.1466 235.144 61.3022 235.144H65.4676C65.6232 235.144 65.7724 235.083 65.8824 234.974C65.9924 234.865 66.0542 234.718 66.0542 234.564V231.687C66.0542 231.534 65.9924 231.386 65.8824 231.277C65.7724 231.168 65.6232 231.107 65.4676 231.107L61.3022 231.131Z" fill="#F44747"/>
<path d="M79.9051 235.678H75.7397C75.4286 235.678 75.1301 235.556 74.9101 235.338C74.69 235.12 74.5664 234.825 74.5664 234.518V231.687C74.5664 231.38 74.69 231.085 74.9101 230.867C75.1301 230.65 75.4286 230.527 75.7397 230.527H79.9051C80.2112 230.535 80.5021 230.66 80.7159 230.877C80.9296 231.094 81.0492 231.385 81.0491 231.687V234.541C81.0431 234.84 80.9209 235.124 80.7078 235.336C80.4947 235.548 80.2071 235.67 79.9051 235.678ZM75.7397 231.131C75.5841 231.131 75.4349 231.192 75.3249 231.3C75.2149 231.409 75.1531 231.557 75.1531 231.711V234.564C75.1531 234.718 75.2149 234.865 75.3249 234.974C75.4349 235.083 75.5841 235.144 75.7397 235.144H79.9051C80.0555 235.137 80.1973 235.072 80.3011 234.964C80.4048 234.856 80.4626 234.713 80.4624 234.564V231.687C80.4626 231.538 80.4048 231.395 80.3011 231.287C80.1973 231.179 80.0555 231.115 79.9051 231.107L75.7397 231.131Z" fill="#F44747"/>
<path d="M72.5105 229.906H68.3452C68.034 229.906 67.7356 229.784 67.5155 229.566C67.2955 229.349 67.1719 229.054 67.1719 228.746V225.916C67.1719 225.608 67.2955 225.313 67.5155 225.096C67.7356 224.878 68.034 224.756 68.3452 224.756H72.5105C72.8217 224.756 73.1202 224.878 73.3402 225.096C73.5602 225.313 73.6839 225.608 73.6839 225.916V228.775C73.6762 229.078 73.5492 229.366 73.33 229.577C73.1108 229.788 72.8167 229.906 72.5105 229.906ZM68.3452 225.359C68.1896 225.359 68.0404 225.42 67.9304 225.529C67.8203 225.638 67.7585 225.785 67.7585 225.939V228.798C67.7585 228.952 67.8203 229.1 67.9304 229.209C68.0404 229.317 68.1896 229.378 68.3452 229.378H72.5105C72.6661 229.378 72.8154 229.317 72.9254 229.209C73.0354 229.1 73.0972 228.952 73.0972 228.798V225.916C73.0972 225.762 73.0354 225.615 72.9254 225.506C72.8154 225.397 72.6661 225.336 72.5105 225.336L68.3452 225.359Z" fill="#F44747"/>
<path d="M82.6918 238.379H51.3051C51.057 238.382 50.8109 238.335 50.5808 238.244C50.3508 238.152 50.1412 238.016 49.9642 237.845C49.7871 237.673 49.646 237.468 49.5489 237.242C49.4519 237.017 49.4007 236.774 49.3984 236.529V198.469C49.4007 198.224 49.4519 197.982 49.5489 197.756C49.646 197.53 49.7871 197.326 49.9642 197.154C50.1412 196.982 50.3508 196.846 50.5808 196.755C50.8109 196.663 51.057 196.617 51.3051 196.619H82.6918C82.9398 196.617 83.186 196.663 83.416 196.755C83.6461 196.846 83.8557 196.982 84.0327 197.154C84.2098 197.326 84.3509 197.53 84.4479 197.756C84.545 197.982 84.5961 198.224 84.5984 198.469V236.529C84.5961 236.774 84.545 237.017 84.4479 237.242C84.3509 237.468 84.2098 237.673 84.0327 237.845C83.8557 238.016 83.6461 238.152 83.416 238.244C83.186 238.335 82.9398 238.382 82.6918 238.379Z" fill="#F44747"/>
<path d="M79.7714 210.202H54.228C53.9229 210.193 53.6335 210.067 53.421 209.85C53.2085 209.634 53.0897 209.344 53.0898 209.042V201.142C53.0897 200.841 53.2085 200.551 53.421 200.334C53.6335 200.118 53.9229 199.991 54.228 199.982H79.7714C80.0765 199.991 80.366 200.118 80.5785 200.334C80.7909 200.551 80.9097 200.841 80.9096 201.142V209.019C80.9159 209.325 80.7999 209.62 80.5867 209.842C80.3736 210.063 80.0806 210.193 79.7714 210.202Z" fill="white"/>
<path d="M58.2406 218.078H54.0929C53.9807 218.078 53.8696 218.057 53.766 218.014C53.6624 217.971 53.5683 217.909 53.4893 217.83C53.4102 217.751 53.3477 217.658 53.3053 217.555C53.2629 217.453 53.2414 217.343 53.2422 217.232V214.378C53.2414 214.267 53.2629 214.157 53.3053 214.054C53.3477 213.952 53.4102 213.858 53.4893 213.78C53.5683 213.701 53.6624 213.638 53.766 213.596C53.8696 213.553 53.9807 213.531 54.0929 213.531H58.2641C58.376 213.531 58.4868 213.553 58.5901 213.596C58.6934 213.639 58.787 213.701 58.8656 213.78C58.9442 213.859 59.0062 213.952 59.048 214.055C59.0897 214.158 59.1104 214.267 59.1089 214.378V217.232C59.1105 217.344 59.0891 217.456 59.0459 217.56C59.0026 217.665 58.9386 217.759 58.8574 217.838C58.7763 217.917 58.6799 217.979 58.5739 218.021C58.4679 218.062 58.3545 218.082 58.2406 218.078Z" fill="#2A4494"/>
<path d="M65.4691 218.078H61.3038C61.1916 218.078 61.0805 218.057 60.9769 218.014C60.8733 217.971 60.7793 217.909 60.7002 217.83C60.6211 217.751 60.5586 217.658 60.5162 217.555C60.4738 217.453 60.4524 217.343 60.4531 217.232V214.378C60.4524 214.267 60.4738 214.157 60.5162 214.054C60.5586 213.952 60.6211 213.858 60.7002 213.78C60.7793 213.701 60.8733 213.638 60.9769 213.596C61.0805 213.553 61.1916 213.531 61.3038 213.531H65.4691C65.5814 213.531 65.6925 213.553 65.796 213.596C65.8996 213.638 65.9937 213.701 66.0727 213.78C66.1518 213.858 66.2143 213.952 66.2568 214.054C66.2992 214.157 66.3206 214.267 66.3198 214.378V217.232C66.3206 217.343 66.2992 217.453 66.2568 217.555C66.2143 217.658 66.1518 217.751 66.0727 217.83C65.9937 217.909 65.8996 217.971 65.796 218.014C65.6925 218.057 65.5814 218.078 65.4691 218.078Z" fill="#2A4494"/>
<path d="M72.6997 218.078H68.5285C68.4165 218.078 68.3057 218.056 68.2025 218.014C68.0992 217.971 68.0055 217.909 67.9269 217.83C67.8483 217.751 67.7863 217.657 67.7446 217.555C67.7028 217.452 67.6821 217.342 67.6837 217.232V214.378C67.6821 214.267 67.7028 214.158 67.7446 214.055C67.7863 213.952 67.8483 213.859 67.9269 213.78C68.0055 213.701 68.0992 213.639 68.2025 213.596C68.3057 213.553 68.4165 213.531 68.5285 213.531H72.6997C72.8119 213.531 72.923 213.553 73.0266 213.596C73.1302 213.638 73.2242 213.701 73.3033 213.78C73.3823 213.858 73.4449 213.952 73.4873 214.054C73.5297 214.157 73.5511 214.267 73.5503 214.378V217.232C73.5511 217.343 73.5297 217.453 73.4873 217.555C73.4449 217.658 73.3823 217.751 73.3033 217.83C73.2242 217.909 73.1302 217.971 73.0266 218.014C72.923 218.057 72.8119 218.078 72.6997 218.078Z" fill="#2A4494"/>
<path d="M79.9066 218.078H75.7413C75.6291 218.078 75.518 218.057 75.4144 218.014C75.3108 217.971 75.2168 217.909 75.1377 217.83C75.0587 217.751 74.9961 217.658 74.9537 217.555C74.9113 217.453 74.8899 217.343 74.8906 217.232V214.378C74.8899 214.267 74.9113 214.157 74.9537 214.054C74.9961 213.952 75.0587 213.858 75.1377 213.78C75.2168 213.701 75.3108 213.638 75.4144 213.596C75.518 213.553 75.6291 213.531 75.7413 213.531H79.9066C80.0189 213.531 80.13 213.553 80.2335 213.596C80.3371 213.638 80.4312 213.701 80.5102 213.78C80.5893 213.858 80.6518 213.952 80.6943 214.054C80.7367 214.157 80.7581 214.267 80.7573 214.378V217.232C80.7581 217.343 80.7367 217.453 80.6943 217.555C80.6518 217.658 80.5893 217.751 80.5102 217.83C80.4312 217.909 80.3371 217.971 80.2335 218.014C80.13 218.057 80.0189 218.078 79.9066 218.078Z" fill="#2A4494"/>
<path d="M58.2406 223.879H54.0929C53.8667 223.877 53.6503 223.788 53.491 223.629C53.3316 223.47 53.2422 223.256 53.2422 223.032V220.144C53.2422 220.033 53.2642 219.924 53.3069 219.822C53.3497 219.72 53.4123 219.627 53.4913 219.549C53.5703 219.471 53.6641 219.409 53.7673 219.367C53.8705 219.324 53.9811 219.303 54.0929 219.303H58.2641C58.3755 219.303 58.4858 219.325 58.5887 219.367C58.6916 219.409 58.785 219.471 58.8635 219.549C58.942 219.628 59.0041 219.72 59.0462 219.822C59.0883 219.924 59.1096 220.034 59.1089 220.144V223.003C59.1137 223.118 59.0947 223.233 59.053 223.34C59.0113 223.447 58.9478 223.545 58.8664 223.627C58.7851 223.709 58.6876 223.774 58.5799 223.817C58.4723 223.86 58.3568 223.881 58.2406 223.879Z" fill="#2A4494"/>
<path d="M65.4691 223.879H61.3038C61.0776 223.877 60.8613 223.788 60.7019 223.629C60.5426 223.47 60.4531 223.256 60.4531 223.032V220.144C60.4531 219.921 60.5427 219.707 60.7023 219.549C60.8618 219.391 61.0782 219.303 61.3038 219.303H65.4691C65.6947 219.303 65.9111 219.391 66.0706 219.549C66.2302 219.707 66.3198 219.921 66.3198 220.144V223.003C66.3237 223.116 66.3047 223.229 66.2637 223.335C66.2228 223.44 66.1609 223.537 66.0816 223.619C66.0023 223.7 65.9072 223.765 65.802 223.81C65.6968 223.855 65.5836 223.878 65.4691 223.879Z" fill="#2A4494"/>
<path d="M72.6996 223.879H68.5284C68.4167 223.878 68.3062 223.856 68.2033 223.813C68.1004 223.77 68.0071 223.707 67.9286 223.629C67.8502 223.55 67.7882 223.457 67.7461 223.354C67.7041 223.252 67.6828 223.143 67.6836 223.032V220.144C67.6828 220.034 67.7041 219.924 67.7462 219.822C67.7883 219.72 67.8504 219.628 67.929 219.549C68.0075 219.471 68.1009 219.409 68.2038 219.367C68.3066 219.325 68.417 219.303 68.5284 219.303H72.6996C72.9252 219.303 73.1416 219.391 73.3011 219.549C73.4607 219.707 73.5503 219.921 73.5503 220.144V223.003C73.5542 223.116 73.5352 223.229 73.4942 223.335C73.4533 223.44 73.3914 223.537 73.3121 223.619C73.2328 223.7 73.1377 223.765 73.0325 223.81C72.9273 223.855 72.8141 223.878 72.6996 223.879Z" fill="#2A4494"/>
<path d="M79.9066 223.879H75.7413C75.5151 223.877 75.2988 223.788 75.1394 223.629C74.9801 223.47 74.8906 223.256 74.8906 223.032V220.144C74.8906 219.921 74.9803 219.707 75.1398 219.549C75.2993 219.391 75.5157 219.303 75.7413 219.303H79.9066C80.1322 219.303 80.3486 219.391 80.5081 219.549C80.6677 219.707 80.7573 219.921 80.7573 220.144V223.003C80.7612 223.116 80.7422 223.229 80.7012 223.335C80.6603 223.44 80.5984 223.537 80.5191 223.619C80.4398 223.7 80.3447 223.765 80.2395 223.81C80.1343 223.855 80.0211 223.878 79.9066 223.879Z" fill="#2A4494"/>
<path d="M58.2406 229.616H54.0929C53.9811 229.616 53.8705 229.594 53.7673 229.552C53.6641 229.509 53.5703 229.447 53.4913 229.369C53.4123 229.291 53.3497 229.198 53.3069 229.096C53.2642 228.994 53.2422 228.885 53.2422 228.775V225.915C53.2422 225.692 53.3316 225.477 53.491 225.318C53.6503 225.16 53.8667 225.07 54.0929 225.068H58.2641C58.3758 225.069 58.4862 225.092 58.5891 225.135C58.6921 225.178 58.7854 225.24 58.8639 225.319C58.9423 225.397 59.0043 225.491 59.0464 225.593C59.0884 225.695 59.1096 225.805 59.1089 225.915V228.775C59.1097 228.887 59.0877 228.998 59.0441 229.101C59.0005 229.205 58.9363 229.299 58.8553 229.377C58.7743 229.456 58.6781 229.517 58.5725 229.558C58.4669 229.599 58.354 229.619 58.2406 229.616Z" fill="#2A4494"/>
<path d="M65.4691 229.616H61.3038C61.0782 229.616 60.8618 229.527 60.7023 229.369C60.5427 229.212 60.4531 228.998 60.4531 228.775V225.915C60.4531 225.692 60.5426 225.477 60.7019 225.318C60.8613 225.16 61.0776 225.07 61.3038 225.068H65.4691C65.6953 225.07 65.9116 225.16 66.071 225.318C66.2304 225.477 66.3198 225.692 66.3198 225.915V228.775C66.3198 228.998 66.2302 229.212 66.0706 229.369C65.9111 229.527 65.6947 229.616 65.4691 229.616Z" fill="#2A4494"/>
<path d="M79.9066 229.616H75.7413C75.5157 229.616 75.2993 229.527 75.1398 229.369C74.9803 229.212 74.8906 228.998 74.8906 228.775V225.915C74.8906 225.692 74.9801 225.477 75.1394 225.318C75.2988 225.16 75.5151 225.07 75.7413 225.068H79.9066C80.1328 225.07 80.3491 225.16 80.5085 225.318C80.6679 225.477 80.7573 225.692 80.7573 225.915V228.775C80.7573 228.998 80.6677 229.212 80.5081 229.369C80.3486 229.527 80.1322 229.616 79.9066 229.616Z" fill="#2A4494"/>
<path d="M58.2406 235.387H54.0929C53.9807 235.387 53.8696 235.365 53.766 235.322C53.6624 235.28 53.5683 235.217 53.4893 235.139C53.4102 235.06 53.3477 234.967 53.3053 234.864C53.2629 234.761 53.2414 234.651 53.2422 234.54V231.687C53.2414 231.576 53.2629 231.466 53.3053 231.363C53.3477 231.26 53.4102 231.167 53.4893 231.088C53.5683 231.01 53.6624 230.947 53.766 230.904C53.8696 230.862 53.9807 230.84 54.0929 230.84H58.2641C58.376 230.84 58.4868 230.862 58.5901 230.905C58.6934 230.947 58.787 231.01 58.8656 231.089C58.9442 231.167 59.0062 231.261 59.048 231.363C59.0897 231.466 59.1104 231.576 59.1089 231.687V234.54C59.1105 234.653 59.0891 234.765 59.0459 234.869C59.0026 234.973 58.9386 235.068 58.8574 235.147C58.7763 235.226 58.6799 235.288 58.5739 235.329C58.4679 235.371 58.3545 235.39 58.2406 235.387Z" fill="#2A4494"/>
<path d="M65.4691 235.387H61.3038C61.1916 235.387 61.0805 235.365 60.9769 235.322C60.8733 235.28 60.7793 235.217 60.7002 235.139C60.6211 235.06 60.5586 234.967 60.5162 234.864C60.4738 234.761 60.4524 234.651 60.4531 234.54V231.687C60.4524 231.576 60.4738 231.466 60.5162 231.363C60.5586 231.26 60.6211 231.167 60.7002 231.088C60.7793 231.01 60.8733 230.947 60.9769 230.904C61.0805 230.862 61.1916 230.84 61.3038 230.84H65.4691C65.5814 230.84 65.6925 230.862 65.796 230.904C65.8996 230.947 65.9937 231.01 66.0727 231.088C66.1518 231.167 66.2143 231.26 66.2568 231.363C66.2992 231.466 66.3206 231.576 66.3198 231.687V234.54C66.3206 234.651 66.2992 234.761 66.2568 234.864C66.2143 234.967 66.1518 235.06 66.0727 235.139C65.9937 235.217 65.8996 235.28 65.796 235.322C65.6925 235.365 65.5814 235.387 65.4691 235.387Z" fill="#2A4494"/>
<path d="M79.9066 235.387H75.7413C75.6291 235.387 75.518 235.365 75.4144 235.323C75.3108 235.28 75.2168 235.218 75.1377 235.139C75.0587 235.06 74.9961 234.967 74.9537 234.864C74.9113 234.761 74.8899 234.651 74.8906 234.541V231.687C74.8898 231.574 74.912 231.462 74.9559 231.358C74.9997 231.254 75.0644 231.159 75.1459 231.08C75.2275 231.001 75.3243 230.939 75.4307 230.898C75.537 230.857 75.6506 230.837 75.7648 230.84H79.9066C80.0189 230.84 80.13 230.862 80.2335 230.905C80.3371 230.947 80.4312 231.01 80.5102 231.089C80.5893 231.167 80.6518 231.261 80.6943 231.363C80.7367 231.466 80.7581 231.576 80.7573 231.687V234.541C80.7581 234.651 80.7367 234.761 80.6943 234.864C80.6518 234.967 80.5893 235.06 80.5102 235.139C80.4312 235.218 80.3371 235.28 80.2335 235.323C80.13 235.365 80.0189 235.387 79.9066 235.387Z" fill="#2A4494"/>
<path d="M72.5082 229.616H68.3429C68.1172 229.616 67.9009 229.527 67.7413 229.369C67.5818 229.212 67.4922 228.998 67.4922 228.775V225.915C67.4922 225.692 67.5816 225.477 67.741 225.318C67.9004 225.16 68.1167 225.07 68.3429 225.068H72.5082C72.7343 225.07 72.9507 225.16 73.1101 225.318C73.2694 225.477 73.3589 225.692 73.3589 225.915V228.775C73.3589 228.998 73.2692 229.212 73.1097 229.369C72.9502 229.527 72.7338 229.616 72.5082 229.616Z" fill="#2A4494"/>
<path d="M72.5082 235.416H68.3429C68.1172 235.416 67.9009 235.328 67.7413 235.17C67.5818 235.012 67.4922 234.798 67.4922 234.575V231.716C67.4922 231.492 67.5816 231.278 67.741 231.119C67.9004 230.961 68.1167 230.871 68.3429 230.869H72.5082C72.7343 230.871 72.9507 230.961 73.1101 231.119C73.2694 231.278 73.3589 231.492 73.3589 231.716V234.575C73.3589 234.798 73.2692 235.012 73.1097 235.17C72.9502 235.328 72.7338 235.416 72.5082 235.416Z" fill="#2A4494"/>
<path d="M72.5105 235.707H68.3452C68.034 235.707 67.7356 235.585 67.5155 235.367C67.2955 235.15 67.1719 234.855 67.1719 234.547V231.717C67.1719 231.409 67.2955 231.114 67.5155 230.896C67.7356 230.679 68.034 230.557 68.3452 230.557H72.5105C72.8217 230.557 73.1202 230.679 73.3402 230.896C73.5602 231.114 73.6839 231.409 73.6839 231.717V234.576C73.6762 234.879 73.5492 235.166 73.33 235.378C73.1108 235.589 72.8167 235.707 72.5105 235.707ZM68.3452 231.16C68.1896 231.16 68.0404 231.221 67.9304 231.33C67.8203 231.438 67.7585 231.586 67.7585 231.74V234.599C67.7585 234.753 67.8203 234.901 67.9304 235.009C68.0404 235.118 68.1896 235.179 68.3452 235.179H72.5105C72.6661 235.179 72.8154 235.118 72.9254 235.009C73.0354 234.901 73.0972 234.753 73.0972 234.599V231.717C73.0972 231.563 73.0354 231.415 72.9254 231.307C72.8154 231.198 72.6661 231.137 72.5105 231.137L68.3452 231.16Z" fill="#F44747"/>
<path d="M132.5 140C156.524 140 176 120.301 176 96C176 71.6995 156.524 52 132.5 52C108.476 52 89 71.6995 89 96C89 120.301 108.476 140 132.5 140Z" fill="#FED766"/>
<path d="M132.918 113.547C119.571 113.547 114.882 107.416 114.69 107.158C114.622 107.067 114.585 106.955 114.586 106.841V92.3679C114.586 92.298 114.6 92.2289 114.626 92.1645C114.653 92.1 114.692 92.0415 114.741 91.9924C114.79 91.9433 114.848 91.9046 114.912 91.8784C114.976 91.8522 115.045 91.8391 115.114 91.8399H151.32C151.389 91.8391 151.457 91.8522 151.521 91.8784C151.585 91.9046 151.643 91.9433 151.693 91.9924C151.742 92.0415 151.781 92.1 151.807 92.1645C151.834 92.2289 151.848 92.298 151.848 92.3679V106.841C151.846 106.965 151.803 107.085 151.726 107.181C151.505 107.439 146.242 113.547 132.918 113.547Z" fill="#2A4494"/>
<path d="M131.156 105.175C131.077 105.175 131 105.157 130.929 105.123L103.788 92.5797C103.695 92.5398 103.615 92.4729 103.559 92.3873C103.503 92.3017 103.473 92.2013 103.473 92.0987C103.473 91.996 103.503 91.8956 103.559 91.81C103.615 91.7244 103.695 91.6575 103.788 91.6176L132.694 79.6144C132.826 79.5634 132.973 79.5634 133.106 79.6144L161.198 91.6176C161.293 91.6578 161.374 91.7255 161.431 91.8121C161.488 91.8988 161.519 92.0005 161.519 92.1045C161.519 92.2086 161.488 92.3103 161.431 92.3969C161.374 92.4835 161.293 92.5512 161.198 92.5915L131.365 105.134C131.298 105.161 131.227 105.175 131.156 105.175Z" fill="#1855D1"/>
<path d="M149.036 118.294H145.508C145.427 118.293 145.347 118.274 145.275 118.237C145.203 118.2 145.14 118.147 145.091 118.082C145.043 118.017 145.009 117.941 144.994 117.861C144.979 117.781 144.982 117.698 145.003 117.619L146.744 111.542C146.776 111.431 146.842 111.334 146.933 111.265C147.024 111.196 147.135 111.159 147.249 111.16C147.363 111.159 147.475 111.196 147.567 111.265C147.659 111.333 147.727 111.431 147.76 111.542L149.5 117.619C149.522 117.699 149.525 117.782 149.509 117.863C149.494 117.943 149.46 118.019 149.41 118.085C149.361 118.15 149.297 118.203 149.224 118.239C149.151 118.275 149.071 118.294 148.99 118.294H149.036Z" fill="white"/>
<path d="M147.799 111.969H146.749V98.5994L133.32 91.8938L133.79 90.9492L147.509 97.7956C147.596 97.84 147.669 97.9079 147.72 97.9918C147.772 98.0757 147.799 98.1723 147.799 98.2708V111.969Z" fill="white"/>
<path d="M135.582 91.4238C135.582 92.2921 134.642 93.002 133.476 93.002C132.309 93.002 131.363 92.2921 131.363 91.4238C131.363 90.5556 132.309 89.8398 133.476 89.8398C134.642 89.8398 135.582 90.5497 135.582 91.4238Z" fill="white"/>
<path d="M250.5 88C274.524 88 294 68.3005 294 44C294 19.6995 274.524 0 250.5 0C226.476 0 207 19.6995 207 44C207 68.3005 226.476 88 250.5 88Z" fill="#54DEFD"/>
<path d="M266.74 63.9466H236.58C236.426 63.9466 236.279 63.8848 236.17 63.7747C236.061 63.6647 236 63.5155 236 63.3599V25.8132C236 25.6576 236.061 25.5084 236.17 25.3984C236.279 25.2884 236.426 25.2266 236.58 25.2266H266.74C266.894 25.2266 267.041 25.2884 267.15 25.3984C267.259 25.5084 267.32 25.6576 267.32 25.8132V63.3599C267.32 63.5155 267.259 63.6647 267.15 63.7747C267.041 63.8848 266.894 63.9466 266.74 63.9466Z" fill="white"/>
<path d="M277.262 23.6698L275.823 22.2138C275.157 21.5402 274.077 21.5402 273.411 22.2138L270.586 25.072C269.92 25.7456 269.92 26.8376 270.586 27.5112L272.025 28.9673C272.691 29.6409 273.771 29.6409 274.437 28.9673L277.262 26.1091C277.928 25.4355 277.928 24.3434 277.262 23.6698Z" fill="#F44747"/>
<path d="M275.644 27.7391L271.793 23.8438L252.169 43.6936L256.02 47.589L275.644 27.7391Z" fill="#FED766"/>
<path d="M252.171 43.6953L256.022 47.5908L250.593 49.9374C250.49 49.9752 250.378 49.9824 250.27 49.9582C250.163 49.9339 250.064 49.8792 249.986 49.8004C249.908 49.7217 249.854 49.6221 249.83 49.5134C249.806 49.4047 249.813 49.2913 249.851 49.1865L252.171 43.6953Z" fill="#E3F2FD"/>
<path d="M275.644 27.7391L271.793 23.8438L270.542 25.109L274.393 29.0043L275.644 27.7391Z" fill="#343440"/>
<path d="M250.975 46.5234L253.33 48.7528L250.186 50.1138C250.115 50.1449 250.036 50.1535 249.96 50.1387C249.883 50.1238 249.813 50.0862 249.758 50.0306C249.703 49.975 249.666 49.9041 249.652 49.8269C249.637 49.7497 249.645 49.6698 249.676 49.5976L250.975 46.5234Z" fill="#343440"/>
<path d="M370 140C394.301 140 414 120.301 414 96C414 71.6995 394.301 52 370 52C345.699 52 326 71.6995 326 96C326 120.301 345.699 140 370 140Z" fill="#9575CD"/>
<path d="M382.8 117.12H356.462C354.66 117.12 353.334 116.498 352.729 115.36C352.125 114.222 352.348 112.585 353.41 110.966L365.191 93.4187V77.7371C365.191 77.5815 365.253 77.4322 365.363 77.3222C365.473 77.2122 365.622 77.1504 365.778 77.1504H374.048C374.204 77.1504 374.353 77.2122 374.463 77.3222C374.573 77.4322 374.635 77.5815 374.635 77.7371V93.4245L386.604 111.412C387.649 113.066 387.889 114.41 387.337 115.419C386.703 116.533 385.177 117.12 382.8 117.12Z" fill="#E3F2FD"/>
<path d="M383 115.36H357.085C355.864 115.36 355.048 115.031 354.655 114.392C354.487 114.065 354.408 113.7 354.424 113.332C354.44 112.965 354.552 112.609 354.748 112.298C354.756 112.279 354.766 112.261 354.778 112.245L364.299 97.9301C364.374 97.8213 364.484 97.7412 364.611 97.7029C364.738 97.6645 364.874 97.6702 364.997 97.7189C366.513 98.3222 368.126 98.6481 369.758 98.6811C371.368 98.6516 372.96 98.3275 374.453 97.7248C374.576 97.6755 374.712 97.6689 374.838 97.7062C374.965 97.7434 375.076 97.8223 375.152 97.9301L384.497 112.01C385.136 113.072 385.271 113.911 384.919 114.539C384.673 114.902 384.18 115.36 383 115.36Z" fill="#16D2AA"/>
<path d="M374.722 78.9875H365.248C364.749 78.9221 364.291 78.6778 363.96 78.3C363.628 77.9222 363.445 77.4368 363.445 76.9342C363.445 76.4316 363.628 75.9462 363.96 75.5684C364.291 75.1906 364.749 74.9462 365.248 74.8809H374.722C375.22 74.9462 375.678 75.1906 376.01 75.5684C376.341 75.9462 376.524 76.4316 376.524 76.9342C376.524 77.4368 376.341 77.9222 376.01 78.3C375.678 78.6778 375.22 78.9221 374.722 78.9875Z" fill="#B5E2FA"/>
<path d="M375.463 109.33C375.463 109.678 375.36 110.019 375.167 110.308C374.973 110.598 374.698 110.823 374.376 110.956C374.054 111.09 373.7 111.124 373.359 111.056C373.017 110.989 372.703 110.821 372.457 110.575C372.211 110.329 372.043 110.015 371.975 109.674C371.907 109.332 371.942 108.978 372.075 108.657C372.209 108.335 372.434 108.06 372.724 107.867C373.014 107.674 373.354 107.57 373.702 107.57C374.169 107.57 374.617 107.756 374.948 108.086C375.278 108.416 375.463 108.864 375.463 109.33Z" fill="white"/>
<path d="M370.809 104.103C370.809 104.567 370.671 105.02 370.413 105.406C370.155 105.792 369.789 106.093 369.36 106.271C368.931 106.448 368.459 106.495 368.003 106.404C367.548 106.314 367.129 106.09 366.801 105.762C366.473 105.434 366.249 105.016 366.158 104.56C366.068 104.105 366.114 103.633 366.292 103.204C366.47 102.776 366.771 102.409 367.157 102.151C367.543 101.893 367.997 101.756 368.461 101.756C369.084 101.756 369.681 102.003 370.121 102.443C370.562 102.883 370.809 103.48 370.809 104.103Z" fill="white"/>
<path d="M365.617 110.878C365.617 111.11 365.549 111.337 365.42 111.53C365.291 111.723 365.107 111.874 364.893 111.962C364.678 112.051 364.442 112.074 364.214 112.029C363.987 111.984 363.778 111.872 363.613 111.708C363.449 111.544 363.337 111.335 363.292 111.107C363.247 110.88 363.27 110.644 363.359 110.429C363.448 110.215 363.598 110.032 363.791 109.903C363.984 109.774 364.211 109.705 364.443 109.705C364.755 109.705 365.053 109.829 365.274 110.049C365.494 110.269 365.617 110.567 365.617 110.878Z" fill="white"/>
<path d="M434 261C458.301 261 478 241.524 478 217.5C478 193.476 458.301 174 434 174C409.699 174 390 193.476 390 217.5C390 241.524 409.699 261 434 261Z" fill="#B5E2FA"/>
<path d="M410.496 221.879C411.603 223.503 412.225 225.403 412.291 227.36C412.229 229.319 411.609 231.221 410.502 232.847H444.945L451.985 230.91L452.114 224.245L444.922 221.925L410.496 221.879Z" fill="white"/>
<path d="M413.684 202.148C414.706 203.491 415.293 205.109 415.367 206.788C415.293 208.468 414.706 210.086 413.684 211.428H440.923L444.865 209.456V203.726L441.486 202.166L413.684 202.148Z" fill="white"/>
<path d="M410.497 233.258C410.388 233.258 410.283 233.215 410.206 233.139C410.129 233.063 410.086 232.96 410.086 232.852V230.532C410.086 230.425 410.129 230.321 410.206 230.245C410.283 230.169 410.388 230.126 410.497 230.126H448.894C449.205 230.057 451.317 229.482 451.317 227.371C451.317 224.616 448.97 224.39 448.906 224.378L410.497 224.593C410.389 224.589 410.287 224.545 410.209 224.471C410.171 224.434 410.14 224.39 410.119 224.341C410.098 224.293 410.086 224.24 410.086 224.187V221.867C410.086 221.814 410.097 221.761 410.117 221.713C410.138 221.664 410.168 221.619 410.207 221.582C410.245 221.545 410.29 221.515 410.34 221.496C410.39 221.476 410.443 221.466 410.497 221.467H448.935C449.023 221.467 454.28 221.925 454.28 227.354C454.28 232.783 449 233.241 448.964 233.247L410.497 233.258Z" fill="#1855D1"/>
<path d="M457.519 212.281C456.506 213.54 455.919 215.082 455.841 216.689C455.919 218.296 456.506 219.838 457.519 221.097H425.158L418.887 219.514L418.746 214.166L425.158 212.281H457.519Z" fill="white"/>
<path d="M457.466 221.48H455.254L421.474 221.439C421.403 221.439 419.062 221.567 417.502 220.123C417.054 219.682 416.705 219.154 416.477 218.571C416.25 217.988 416.149 217.365 416.182 216.741C416.153 216.111 416.255 215.481 416.482 214.892C416.709 214.302 417.056 213.765 417.502 213.313C418.61 212.364 420.031 211.847 421.497 211.858H457.477C457.531 211.857 457.584 211.867 457.633 211.887C457.682 211.907 457.727 211.936 457.765 211.974C457.842 212.049 457.886 212.151 457.888 212.258V214.578C457.888 214.684 457.845 214.786 457.769 214.861C457.693 214.936 457.591 214.978 457.483 214.978L421.491 215.268C421.427 215.268 419.561 215.367 419.561 216.73C419.561 218.093 421.509 218.313 421.526 218.313L457.483 218.354C457.591 218.357 457.694 218.4 457.77 218.476C457.847 218.551 457.891 218.653 457.894 218.76V221.08C457.893 221.134 457.881 221.188 457.859 221.237C457.837 221.287 457.805 221.332 457.765 221.369C457.725 221.407 457.678 221.436 457.627 221.455C457.575 221.474 457.52 221.482 457.466 221.48Z" fill="#16D2AA"/>
<path d="M441.038 211.857H413.682C413.575 211.857 413.472 211.815 413.396 211.74C413.32 211.665 413.277 211.563 413.277 211.457V209.137C413.277 209.031 413.32 208.929 413.396 208.854C413.472 208.779 413.575 208.737 413.682 208.737H440.962C441.604 208.788 442.243 208.605 442.757 208.22C442.946 208.035 443.091 207.811 443.184 207.565C443.277 207.319 443.316 207.056 443.297 206.794C443.309 206.524 443.266 206.254 443.17 206.001C443.074 205.748 442.928 205.516 442.74 205.32C442.23 204.902 441.59 204.67 440.927 204.665L413.688 204.874C413.58 204.87 413.476 204.829 413.395 204.758C413.319 204.682 413.277 204.58 413.277 204.474V202.154C413.277 202.047 413.32 201.944 413.396 201.868C413.471 201.793 413.574 201.749 413.682 201.748H440.921C442.355 201.716 443.752 202.205 444.846 203.122C445.329 203.604 445.705 204.181 445.948 204.815C446.192 205.45 446.298 206.128 446.26 206.805C446.298 207.482 446.192 208.159 445.948 208.792C445.704 209.426 445.329 210.002 444.846 210.482C443.788 211.382 442.434 211.871 441.038 211.857Z" fill="#1855D1"/>
<ellipse cx="287.5" cy="455" rx="134.5" ry="28" fill="#DBDFDF"/>
<path d="M155.672 298.243C155.672 298.243 125.837 189.563 205.387 180.546C257.669 174.62 291.75 194.517 308.968 208.858C318.308 216.631 324.725 227.359 327.101 239.306C329.163 249.637 332.617 270.136 328.494 280.851C328.494 280.851 328.576 293.55 362.302 320.467C362.302 320.467 389.16 334.931 401.735 358.125C414.311 381.32 410.023 412.247 410.023 412.247C410.023 412.247 406.883 448.906 369.443 454.626C332.003 460.36 322.295 454.626 322.295 454.626C322.295 454.626 315.44 450.617 327.729 443.173C340.018 435.729 347.733 432.294 347.733 432.294C347.733 432.294 295.15 435.441 277.441 434.866C277.441 434.866 272.866 461.496 248.576 464.082C224.285 466.669 247.142 433.156 247.142 433.156C247.142 433.156 218.85 434.018 203.708 422.564C203.708 422.564 205.851 448.345 184.564 453.203C163.277 458.061 156.423 446.621 160.983 442.612C165.558 438.602 175.266 432.308 175.266 432.308L165.421 368.307C165.421 368.307 157.433 362.97 156.901 309.902L155.672 298.243Z" fill="#E4B652"/>
<path d="M409.95 383.878C409.95 383.878 416.093 377.915 420.473 367.255C424.84 356.595 432.855 363.123 433.953 368.453C435.025 373.687 439.988 386.798 410.994 400.997L406.695 391.673L409.95 383.878Z" fill="#E4B652"/>
<path d="M189.573 181.392C189.573 181.392 157.047 192.589 144.815 195.334C132.583 198.079 124.699 197.096 125.096 216.937C125.494 236.764 136.08 250.856 140.317 251.785C144.719 252.741 150.725 252.495 153.495 239.168C156.279 225.84 158.925 209.358 169.278 199.922C178.027 191.948 186.46 186.772 188.873 185.352C189.435 185.024 189.943 184.628 190.409 184.164C191.643 182.908 193.385 180.723 189.573 181.392Z" fill="#544B43"/>
<path d="M268.127 186.59C268.127 186.59 264.502 180.211 277.987 184.605C291.459 188.998 302.413 192.14 314.613 193.188C326.826 194.235 333.554 194.861 336.509 205.117C339.463 215.373 332.296 232.961 324.925 243.639C320.876 249.516 317.389 248.55 315.078 246.482C313.286 244.877 312.206 242.633 311.823 240.266C311.207 236.362 309.142 227.643 302.427 219.141C297.408 212.803 280.162 191.719 268.127 186.59Z" fill="#544B43"/>
<path d="M185.172 252.119C185.172 252.119 202.48 235.071 225.936 234.21C249.392 233.349 262.302 252.119 262.302 252.119" stroke="#544B43" stroke-miterlimit="10" stroke-linecap="round" stroke-linejoin="round"/>
<path d="M224.606 242.779C224.606 242.779 209.727 241.11 211.3 253.674C211.491 255.175 212.408 256.535 213.816 256.997C215.498 257.544 218.302 257.334 222.732 254.291C222.732 254.291 224.305 252.819 226.165 254.361C228.025 255.904 229.953 258.512 234.452 257.096C236.298 256.521 237.351 255.161 237.953 253.772C239.17 250.94 238.459 247.532 236.093 245.611C234.069 243.999 230.609 242.568 224.606 242.779Z" fill="#544B43"/>
<path d="M155.574 298.066C155.574 298.066 238.374 330.989 331.255 286.199L343.466 301.005C343.466 301.005 235.001 350.231 155.806 312.035L155.574 298.066Z" fill="#16D2AA"/>
<path d="M203.653 422.968C203.653 422.968 203.108 398.674 204.583 395.734C206.057 392.794 209.98 394.65 203.653 422.968Z" fill="#C48F2C"/>
<path d="M247.504 433.28C247.504 433.28 250.082 405.626 249.883 397.749C249.672 389.377 252.882 413.861 247.504 433.28Z" fill="#C48F2C"/>
<path d="M277.547 435.076C277.547 435.076 280.198 405.292 284.256 402.094C288.314 398.883 277.547 435.076 277.547 435.076Z" fill="#C48F2C"/>
<path d="M347.95 432.387C347.95 432.387 331.332 427.555 331.842 413.431C332.351 399.306 343.94 387.096 343.94 387.096C343.94 387.096 312.108 422.943 347.95 432.387Z" fill="#C48F2C"/>
<path d="M192.115 239.559C194.715 239.559 196.823 237.35 196.823 234.626C196.823 231.902 194.715 229.693 192.115 229.693C189.514 229.693 187.406 231.902 187.406 234.626C187.406 237.35 189.514 239.559 192.115 239.559Z" fill="#544B43"/>
<path d="M257.37 239.112C260.094 239.112 262.303 236.903 262.303 234.179C262.303 231.455 260.094 229.246 257.37 229.246C254.646 229.246 252.438 231.455 252.438 234.179C252.438 236.903 254.646 239.112 257.37 239.112Z" fill="#544B43"/>
<path d="M229.525 360.303C237.901 360.303 244.691 353.06 244.691 344.125C244.691 335.19 237.901 327.947 229.525 327.947C221.149 327.947 214.359 335.19 214.359 344.125C214.359 353.06 221.149 360.303 229.525 360.303Z" fill="white"/>
<path d="M229.522 327.576C220.168 327.576 212.578 335.166 212.578 344.52C212.578 353.874 220.168 361.464 229.522 361.464C238.876 361.464 246.466 353.874 246.466 344.52C246.452 335.166 238.876 327.576 229.522 327.576ZM229.522 359.112C221.453 359.112 214.93 352.575 214.93 344.52C214.93 336.451 221.467 329.928 229.522 329.928C237.59 329.928 244.114 336.465 244.114 344.52C244.114 352.575 237.577 359.112 229.522 359.112Z" fill="#16D2AA"/>
<path d="M229.525 359.119C237.584 359.119 244.117 352.586 244.117 344.527C244.117 336.468 237.584 329.936 229.525 329.936C221.466 329.936 214.934 336.468 214.934 344.527C214.934 352.586 221.466 359.119 229.525 359.119Z" fill="white"/>
<path d="M222.19 348.043C222.655 348.618 223.284 348.919 224.078 348.919C224.871 348.919 225.486 348.631 225.951 348.043C226.416 347.469 226.649 346.676 226.649 345.664V340.413L229.452 338.73V345.746C229.452 347.565 228.946 348.96 227.948 349.931C226.949 350.902 225.65 351.394 224.091 351.394C222.519 351.394 221.233 350.902 220.221 349.917C219.209 348.932 218.703 347.537 218.703 345.732V340.399L221.507 338.717V345.65C221.493 346.676 221.725 347.469 222.19 348.043Z" fill="#16D2AA"/>
<path d="M239.03 339.866C239.905 340.618 240.342 341.767 240.342 343.312C240.342 344.857 239.891 345.992 238.989 346.717C238.086 347.442 236.705 347.798 234.859 347.798H233.19V349.616L230.387 351.298V338.758H234.818C236.746 338.745 238.141 339.114 239.03 339.866ZM236.965 344.803C237.293 344.42 237.471 343.873 237.471 343.148C237.471 342.423 237.252 341.904 236.814 341.603C236.377 341.302 235.693 341.151 234.777 341.151H233.177V345.363H235.064C235.994 345.363 236.636 345.172 236.965 344.803Z" fill="#16D2AA"/>
<path d="M229.644 325.313C229.644 325.313 231.494 328.423 229.717 330.114C227.955 331.805 230.635 330.673 230.635 330.673C230.635 330.673 232.265 327.577 230.635 325.313C230.649 325.313 230.3 324.081 229.644 325.313Z" fill="#B5DFD5"/>
<path d="M227.32 326.661L228.217 326.559V327.831L227.32 327.904V326.661Z" fill="#B5DFD5"/>
<path d="M220.246 266.445C220.246 266.445 221.112 271.869 224.224 272.294C227.329 272.723 228.79 267.494 228.79 267.494L224.38 263.787L220.246 266.445Z" fill="#DA4351"/>
<path d="M224.184 253.912V263.133C224.184 263.133 226.329 267.554 234.15 267.812C234.693 267.825 235.237 267.757 235.766 267.622C237.464 267.174 241.157 265.954 242.569 263.377" stroke="#544B43" stroke-miterlimit="10" stroke-linecap="round" stroke-linejoin="round"/>
<path d="M224.184 262.883C224.184 262.883 220.585 269.67 214.802 267.999C209.018 266.328 208.938 262.883 208.938 262.883" stroke="#544B43" stroke-miterlimit="10" stroke-linecap="round" stroke-linejoin="round"/>
<path d="M47.3511 514.92V540H41.3471L32.5691 525.256L30.4031 521.152H30.3651L30.5171 525.484V540H25.8051V514.92H31.7711L40.5491 529.626L42.7151 533.768H42.7911L42.6391 529.436V514.92H47.3511ZM61.8434 520.62C63.7687 520.62 65.4534 521.013 66.8974 521.798C68.3667 522.583 69.5067 523.711 70.3174 525.18C71.1534 526.649 71.5714 528.423 71.5714 530.5C71.5714 532.552 71.1534 534.325 70.3174 535.82C69.5067 537.289 68.3667 538.417 66.8974 539.202C65.4534 539.987 63.7687 540.38 61.8434 540.38C59.9434 540.38 58.2587 539.987 56.7894 539.202C55.32 538.417 54.1674 537.289 53.3314 535.82C52.5207 534.325 52.1154 532.552 52.1154 530.5C52.1154 528.423 52.5207 526.649 53.3314 525.18C54.1674 523.711 55.32 522.583 56.7894 521.798C58.2587 521.013 59.9434 520.62 61.8434 520.62ZM61.8434 524.496C60.8807 524.496 60.0574 524.724 59.3734 525.18C58.7147 525.611 58.208 526.269 57.8534 527.156C57.4987 528.043 57.3214 529.157 57.3214 530.5C57.3214 531.843 57.4987 532.957 57.8534 533.844C58.208 534.731 58.7147 535.402 59.3734 535.858C60.0574 536.289 60.8807 536.504 61.8434 536.504C62.7807 536.504 63.5787 536.289 64.2374 535.858C64.9214 535.402 65.4407 534.731 65.7954 533.844C66.15 532.957 66.3274 531.843 66.3274 530.5C66.3274 529.157 66.15 528.043 65.7954 527.156C65.4407 526.269 64.9214 525.611 64.2374 525.18C63.5787 524.724 62.7807 524.496 61.8434 524.496ZM99.9179 521H105.466L99.3859 540H93.3819L89.2399 527.08L85.2499 540H79.2459L73.1659 521H78.7139L82.5139 535.554L86.7319 521H91.8999L96.1559 535.554L99.9179 521ZM128.158 520.62C130.083 520.62 131.768 521.013 133.212 521.798C134.681 522.583 135.821 523.711 136.632 525.18C137.468 526.649 137.886 528.423 137.886 530.5C137.886 532.552 137.468 534.325 136.632 535.82C135.821 537.289 134.681 538.417 133.212 539.202C131.768 539.987 130.083 540.38 128.158 540.38C126.258 540.38 124.573 539.987 123.104 539.202C121.634 538.417 120.482 537.289 119.646 535.82C118.835 534.325 118.43 532.552 118.43 530.5C118.43 528.423 118.835 526.649 119.646 525.18C120.482 523.711 121.634 522.583 123.104 521.798C124.573 521.013 126.258 520.62 128.158 520.62ZM128.158 524.496C127.195 524.496 126.372 524.724 125.688 525.18C125.029 525.611 124.522 526.269 124.168 527.156C123.813 528.043 123.636 529.157 123.636 530.5C123.636 531.843 123.813 532.957 124.168 533.844C124.522 534.731 125.029 535.402 125.688 535.858C126.372 536.289 127.195 536.504 128.158 536.504C129.095 536.504 129.893 536.289 130.552 535.858C131.236 535.402 131.755 534.731 132.11 533.844C132.464 532.957 132.642 531.843 132.642 530.5C132.642 529.157 132.464 528.043 132.11 527.156C131.755 526.269 131.236 525.611 130.552 525.18C129.893 524.724 129.095 524.496 128.158 524.496ZM150.53 512.298C151.417 512.298 152.215 512.399 152.924 512.602C153.659 512.779 154.204 513.007 154.558 513.286L153.836 516.744C153.558 516.567 153.241 516.427 152.886 516.326C152.532 516.225 152.114 516.174 151.632 516.174C150.644 516.174 149.859 516.402 149.276 516.858C148.694 517.289 148.402 518.036 148.402 519.1V521.722L148.63 522.748V540H143.424V518.72C143.424 517.656 143.602 516.719 143.956 515.908C144.311 515.097 144.805 514.426 145.438 513.894C146.072 513.362 146.819 512.969 147.68 512.716C148.567 512.437 149.517 512.298 150.53 512.298ZM154.406 521V524.876H140.118V521H154.406ZM165.692 512.298C166.579 512.298 167.377 512.399 168.086 512.602C168.821 512.779 169.366 513.007 169.72 513.286L168.998 516.744C168.72 516.567 168.403 516.427 168.048 516.326C167.694 516.225 167.276 516.174 166.794 516.174C165.806 516.174 165.021 516.402 164.438 516.858C163.856 517.289 163.564 518.036 163.564 519.1V521.722L163.792 522.748V540H158.586V518.72C158.586 517.656 158.764 516.719 159.118 515.908C159.473 515.097 159.967 514.426 160.6 513.894C161.234 513.362 161.981 512.969 162.842 512.716C163.729 512.437 164.679 512.298 165.692 512.298ZM169.568 521V524.876H155.28V521H169.568ZM181.154 540.38C179.152 540.38 177.404 539.987 175.91 539.202C174.44 538.417 173.3 537.289 172.49 535.82C171.679 534.351 171.274 532.577 171.274 530.5C171.274 528.423 171.679 526.649 172.49 525.18C173.3 523.711 174.428 522.583 175.872 521.798C177.341 521.013 179.013 520.62 180.888 520.62C182.813 520.62 184.447 521.013 185.79 521.798C187.132 522.558 188.158 523.609 188.868 524.952C189.577 526.269 189.932 527.777 189.932 529.474C189.932 529.981 189.919 530.462 189.894 530.918C189.868 531.374 189.83 531.779 189.78 532.134H174.618V528.524H187.5L184.992 529.436C184.992 527.84 184.624 526.611 183.89 525.75C183.18 524.889 182.167 524.458 180.85 524.458C179.887 524.458 179.051 524.686 178.342 525.142C177.658 525.598 177.138 526.282 176.784 527.194C176.429 528.081 176.252 529.208 176.252 530.576C176.252 531.919 176.442 533.033 176.822 533.92C177.227 534.781 177.784 535.427 178.494 535.858C179.228 536.289 180.102 536.504 181.116 536.504C182.23 536.504 183.13 536.289 183.814 535.858C184.498 535.427 185.03 534.832 185.41 534.072L189.552 535.668C189.146 536.656 188.526 537.505 187.69 538.214C186.879 538.923 185.904 539.468 184.764 539.848C183.649 540.203 182.446 540.38 181.154 540.38ZM194.343 540V521H198.865L199.207 524.724C199.714 523.407 200.449 522.393 201.411 521.684C202.399 520.975 203.628 520.62 205.097 520.62C205.528 520.62 205.921 520.658 206.275 520.734C206.63 520.81 206.921 520.911 207.149 521.038L206.541 525.408C206.288 525.307 205.971 525.231 205.591 525.18C205.237 525.129 204.768 525.104 204.185 525.104C203.425 525.104 202.691 525.294 201.981 525.674C201.272 526.029 200.689 526.586 200.233 527.346C199.777 528.081 199.549 529.018 199.549 530.158V540H194.343ZM212.997 518.264C211.907 518.264 211.097 518.036 210.565 517.58C210.033 517.099 209.767 516.402 209.767 515.49C209.767 514.553 210.033 513.856 210.565 513.4C211.097 512.919 211.907 512.678 212.997 512.678C214.086 512.678 214.897 512.919 215.429 513.4C215.961 513.856 216.227 514.553 216.227 515.49C216.227 516.402 215.961 517.099 215.429 517.58C214.897 518.036 214.086 518.264 212.997 518.264ZM215.581 521V540H210.375V521H215.581ZM221.099 540V521H225.773L226.077 526.7L225.431 526.092C225.735 524.851 226.217 523.825 226.875 523.014C227.534 522.203 228.332 521.608 229.269 521.228C230.232 520.823 231.283 520.62 232.423 520.62C233.741 520.62 234.906 520.873 235.919 521.38C236.958 521.887 237.769 522.659 238.351 523.698C238.959 524.711 239.263 525.991 239.263 527.536V540H234.057V529.018C234.057 527.397 233.741 526.282 233.107 525.674C232.474 525.041 231.651 524.724 230.637 524.724C229.928 524.724 229.231 524.901 228.547 525.256C227.889 525.585 227.344 526.13 226.913 526.89C226.508 527.65 226.305 528.663 226.305 529.93V540H221.099ZM262.145 516.478L262.753 520.202C262.651 520.202 262.537 520.202 262.411 520.202C262.309 520.177 262.195 520.164 262.069 520.164C260.903 520.164 260.029 520.43 259.447 520.962C258.864 521.469 258.573 522.178 258.573 523.09L256.445 522.216C256.445 521.203 256.647 520.265 257.053 519.404C257.458 518.517 258.053 517.808 258.839 517.276C259.649 516.744 260.612 516.478 261.727 516.478C261.777 516.478 261.841 516.478 261.917 516.478C261.993 516.478 262.069 516.478 262.145 516.478ZM255.913 536.428C257.965 536.428 259.548 536.871 260.663 537.758C261.777 538.645 262.335 539.886 262.335 541.482C262.335 542.926 261.917 544.142 261.081 545.13C260.245 546.143 259.067 546.903 257.547 547.41C256.052 547.917 254.317 548.17 252.341 548.17C249.073 548.17 246.679 547.714 245.159 546.802C243.664 545.89 242.917 544.699 242.917 543.23C242.917 542.191 243.309 541.317 244.095 540.608C244.905 539.899 246.235 539.506 248.085 539.43L247.895 540.038C246.577 539.81 245.564 539.379 244.855 538.746C244.171 538.087 243.829 537.188 243.829 536.048C243.829 534.883 244.272 533.933 245.159 533.198C246.071 532.438 247.299 531.995 248.845 531.868L251.125 532.932H250.593C249.503 533.008 248.731 533.236 248.275 533.616C247.844 533.971 247.629 534.376 247.629 534.832C247.629 535.364 247.831 535.769 248.237 536.048C248.667 536.301 249.275 536.428 250.061 536.428H255.913ZM252.379 544.598C253.696 544.598 254.773 544.484 255.609 544.256C256.47 544.028 257.103 543.737 257.509 543.382C257.939 543.027 258.155 542.635 258.155 542.204C258.155 541.723 257.965 541.33 257.585 541.026C257.205 540.747 256.521 540.608 255.533 540.608H249.111C248.503 540.608 247.996 540.76 247.591 541.064C247.211 541.368 247.021 541.786 247.021 542.318C247.021 543.027 247.489 543.585 248.427 543.99C249.389 544.395 250.707 544.598 252.379 544.598ZM252.417 520.62C254.19 520.62 255.723 520.886 257.015 521.418C258.332 521.925 259.333 522.659 260.017 523.622C260.726 524.585 261.081 525.737 261.081 527.08C261.081 528.397 260.726 529.537 260.017 530.5C259.333 531.463 258.332 532.21 257.015 532.742C255.723 533.249 254.19 533.502 252.417 533.502C249.605 533.502 247.451 532.932 245.957 531.792C244.487 530.627 243.753 529.056 243.753 527.08C243.753 525.737 244.095 524.585 244.779 523.622C245.488 522.659 246.489 521.925 247.781 521.418C249.073 520.886 250.618 520.62 252.417 520.62ZM252.417 523.888C251.403 523.888 250.567 524.167 249.909 524.724C249.25 525.281 248.921 526.054 248.921 527.042C248.921 528.03 249.25 528.815 249.909 529.398C250.567 529.955 251.403 530.234 252.417 530.234C253.43 530.234 254.253 529.955 254.887 529.398C255.545 528.815 255.875 528.03 255.875 527.042C255.875 526.054 255.545 525.281 254.887 524.724C254.253 524.167 253.43 523.888 252.417 523.888ZM277.097 540V521H281.771L281.961 524.42C282.595 523.153 283.456 522.203 284.545 521.57C285.66 520.937 286.889 520.62 288.231 520.62C289.599 520.62 290.828 520.937 291.917 521.57C293.032 522.203 293.868 523.141 294.425 524.382C294.831 523.546 295.375 522.849 296.059 522.292C296.743 521.735 297.503 521.317 298.339 521.038C299.175 520.759 300.024 520.62 300.885 520.62C302.127 520.62 303.254 520.873 304.267 521.38C305.306 521.887 306.129 522.647 306.737 523.66C307.345 524.673 307.649 525.965 307.649 527.536V540H302.443V528.562C302.443 527.169 302.139 526.181 301.531 525.598C300.923 525.015 300.138 524.724 299.175 524.724C298.415 524.724 297.706 524.914 297.047 525.294C296.414 525.674 295.907 526.244 295.527 527.004C295.173 527.739 294.995 528.663 294.995 529.778V540H289.789V528.562C289.789 527.169 289.473 526.181 288.839 525.598C288.231 525.015 287.446 524.724 286.483 524.724C285.825 524.724 285.166 524.901 284.507 525.256C283.874 525.611 283.342 526.168 282.911 526.928C282.506 527.688 282.303 528.689 282.303 529.93V540H277.097ZM321.683 520.62C323.609 520.62 325.293 521.013 326.737 521.798C328.207 522.583 329.347 523.711 330.157 525.18C330.993 526.649 331.411 528.423 331.411 530.5C331.411 532.552 330.993 534.325 330.157 535.82C329.347 537.289 328.207 538.417 326.737 539.202C325.293 539.987 323.609 540.38 321.683 540.38C319.783 540.38 318.099 539.987 316.629 539.202C315.16 538.417 314.007 537.289 313.171 535.82C312.361 534.325 311.955 532.552 311.955 530.5C311.955 528.423 312.361 526.649 313.171 525.18C314.007 523.711 315.16 522.583 316.629 521.798C318.099 521.013 319.783 520.62 321.683 520.62ZM321.683 524.496C320.721 524.496 319.897 524.724 319.213 525.18C318.555 525.611 318.048 526.269 317.693 527.156C317.339 528.043 317.161 529.157 317.161 530.5C317.161 531.843 317.339 532.957 317.693 533.844C318.048 534.731 318.555 535.402 319.213 535.858C319.897 536.289 320.721 536.504 321.683 536.504C322.621 536.504 323.419 536.289 324.077 535.858C324.761 535.402 325.281 534.731 325.635 533.844C325.99 532.957 326.167 531.843 326.167 530.5C326.167 529.157 325.99 528.043 325.635 527.156C325.281 526.269 324.761 525.611 324.077 525.18C323.419 524.724 322.621 524.496 321.683 524.496ZM335.767 540V521H340.289L340.631 524.724C341.138 523.407 341.873 522.393 342.835 521.684C343.823 520.975 345.052 520.62 346.521 520.62C346.952 520.62 347.345 520.658 347.699 520.734C348.054 520.81 348.345 520.911 348.573 521.038L347.965 525.408C347.712 525.307 347.395 525.231 347.015 525.18C346.661 525.129 346.192 525.104 345.609 525.104C344.849 525.104 344.115 525.294 343.405 525.674C342.696 526.029 342.113 526.586 341.657 527.346C341.201 528.081 340.973 529.018 340.973 530.158V540H335.767ZM360.243 540.38C358.242 540.38 356.494 539.987 354.999 539.202C353.53 538.417 352.39 537.289 351.579 535.82C350.769 534.351 350.363 532.577 350.363 530.5C350.363 528.423 350.769 526.649 351.579 525.18C352.39 523.711 353.517 522.583 354.961 521.798C356.431 521.013 358.103 520.62 359.977 520.62C361.903 520.62 363.537 521.013 364.879 521.798C366.222 522.558 367.248 523.609 367.957 524.952C368.667 526.269 369.021 527.777 369.021 529.474C369.021 529.981 369.009 530.462 368.983 530.918C368.958 531.374 368.92 531.779 368.869 532.134H353.707V528.524H366.589L364.081 529.436C364.081 527.84 363.714 526.611 362.979 525.75C362.27 524.889 361.257 524.458 359.939 524.458C358.977 524.458 358.141 524.686 357.431 525.142C356.747 525.598 356.228 526.282 355.873 527.194C355.519 528.081 355.341 529.208 355.341 530.576C355.341 531.919 355.531 533.033 355.911 533.92C356.317 534.781 356.874 535.427 357.583 535.858C358.318 536.289 359.192 536.504 360.205 536.504C361.32 536.504 362.219 536.289 362.903 535.858C363.587 535.427 364.119 534.832 364.499 534.072L368.641 535.668C368.236 536.656 367.615 537.505 366.779 538.214C365.969 538.923 364.993 539.468 363.853 539.848C362.739 540.203 361.535 540.38 360.243 540.38ZM391.329 515.186V533.806C391.329 534.718 391.557 535.389 392.013 535.82C392.495 536.225 393.141 536.428 393.951 536.428C394.585 536.428 395.142 536.339 395.623 536.162C396.105 535.959 396.535 535.693 396.915 535.364L397.751 538.822C397.143 539.303 396.383 539.683 395.471 539.962C394.559 540.241 393.597 540.38 392.583 540.38C391.317 540.38 390.189 540.19 389.201 539.81C388.239 539.43 387.479 538.822 386.921 537.986C386.389 537.15 386.123 536.035 386.123 534.642V516.63L391.329 515.186ZM397.409 521V524.876H382.627V521H397.409ZM401.228 540V512.678H406.434V524.23C407.042 523.014 407.878 522.115 408.942 521.532C410.006 520.924 411.21 520.62 412.552 520.62C413.87 520.62 415.035 520.873 416.048 521.38C417.087 521.887 417.898 522.659 418.48 523.698C419.088 524.711 419.392 525.991 419.392 527.536V540H414.186V529.056C414.186 527.409 413.87 526.282 413.236 525.674C412.603 525.041 411.792 524.724 410.804 524.724C410.07 524.724 409.36 524.901 408.676 525.256C408.018 525.585 407.473 526.143 407.042 526.928C406.637 527.688 406.434 528.701 406.434 529.968V540H401.228ZM435.586 527.878C435.586 526.789 435.269 525.94 434.636 525.332C434.028 524.724 433.217 524.42 432.204 524.42C431.266 524.42 430.443 524.661 429.734 525.142C429.024 525.623 428.505 526.421 428.176 527.536L423.73 526.168C424.16 524.496 425.098 523.153 426.542 522.14C428.011 521.127 429.974 520.62 432.432 520.62C434.104 520.62 435.56 520.886 436.802 521.418C438.043 521.925 439.006 522.697 439.69 523.736C440.399 524.775 440.754 526.079 440.754 527.65V535.364C440.754 536.327 441.21 536.808 442.122 536.808C442.552 536.808 442.958 536.745 443.338 536.618L443.034 539.848C442.375 540.177 441.552 540.342 440.564 540.342C439.677 540.342 438.879 540.19 438.17 539.886C437.46 539.582 436.903 539.126 436.498 538.518C436.092 537.885 435.89 537.099 435.89 536.162V536.01L436.802 535.858C436.65 536.821 436.232 537.644 435.548 538.328C434.864 538.987 434.028 539.493 433.04 539.848C432.077 540.203 431.076 540.38 430.038 540.38C428.746 540.38 427.631 540.19 426.694 539.81C425.756 539.405 425.034 538.822 424.528 538.062C424.021 537.302 423.768 536.365 423.768 535.25C423.768 533.831 424.224 532.679 425.136 531.792C426.048 530.88 427.352 530.259 429.05 529.93L436.194 528.486L436.156 531.716L431.596 532.628C430.734 532.805 430.076 533.046 429.62 533.35C429.189 533.629 428.974 534.097 428.974 534.756C428.974 535.389 429.202 535.871 429.658 536.2C430.139 536.529 430.709 536.694 431.368 536.694C431.9 536.694 432.419 536.631 432.926 536.504C433.432 536.377 433.888 536.175 434.294 535.896C434.699 535.617 435.016 535.237 435.244 534.756C435.472 534.275 435.586 533.692 435.586 533.008V527.878ZM446.576 540V521H451.25L451.554 526.7L450.908 526.092C451.212 524.851 451.693 523.825 452.352 523.014C453.011 522.203 453.809 521.608 454.746 521.228C455.709 520.823 456.76 520.62 457.9 520.62C459.217 520.62 460.383 520.873 461.396 521.38C462.435 521.887 463.245 522.659 463.828 523.698C464.436 524.711 464.74 525.991 464.74 527.536V540H459.534V529.018C459.534 527.397 459.217 526.282 458.584 525.674C457.951 525.041 457.127 524.724 456.114 524.724C455.405 524.724 454.708 524.901 454.024 525.256C453.365 525.585 452.821 526.13 452.39 526.89C451.985 527.65 451.782 528.663 451.782 529.93V540H446.576ZM486.023 540V524.116C486.023 523.533 486.023 522.938 486.023 522.33C486.048 521.697 486.074 521.051 486.099 520.392C485.238 521.177 484.275 521.861 483.211 522.444C482.147 523.027 481.058 523.432 479.943 523.66L479.259 519.252C479.842 519.201 480.488 519.037 481.197 518.758C481.932 518.454 482.666 518.099 483.401 517.694C484.161 517.263 484.845 516.82 485.453 516.364C486.086 515.883 486.568 515.401 486.897 514.92H491.153V540H486.023ZM505.214 540.38C503.01 540.38 501.148 539.924 499.628 539.012C498.133 538.1 496.904 536.707 495.942 534.832L500.654 532.476C500.983 533.591 501.502 534.49 502.212 535.174C502.921 535.858 503.96 536.2 505.328 536.2C506.265 536.2 507.063 536.035 507.722 535.706C508.38 535.377 508.887 534.895 509.242 534.262C509.622 533.629 509.812 532.856 509.812 531.944C509.812 531.032 509.634 530.272 509.28 529.664C508.95 529.031 508.469 528.562 507.836 528.258C507.202 527.929 506.404 527.764 505.442 527.764C504.783 527.764 504.162 527.827 503.58 527.954C503.022 528.081 502.516 528.283 502.06 528.562C501.604 528.815 501.198 529.157 500.844 529.588L496.74 528.828L498.298 514.92H513.46V519.138H502.25L501.49 525.256L501.376 525.75H501.452C501.984 525.142 502.706 524.673 503.618 524.344C504.555 524.015 505.619 523.85 506.81 523.85C508.456 523.85 509.862 524.179 511.028 524.838C512.193 525.497 513.092 526.421 513.726 527.612C514.359 528.777 514.676 530.12 514.676 531.64C514.676 533.084 514.435 534.363 513.954 535.478C513.472 536.567 512.788 537.479 511.902 538.214C511.04 538.923 510.04 539.468 508.9 539.848C507.76 540.203 506.531 540.38 505.214 540.38ZM200.737 588.38C198.812 588.38 197.051 588.038 195.455 587.354C193.885 586.67 192.605 585.707 191.617 584.466L194.619 581.426C195.227 582.338 196.038 583.085 197.051 583.668C198.065 584.251 199.268 584.542 200.661 584.542C201.649 584.542 202.435 584.403 203.017 584.124C203.625 583.82 203.929 583.351 203.929 582.718C203.929 582.313 203.79 581.971 203.511 581.692C203.233 581.388 202.675 581.147 201.839 580.97L198.495 580.286C196.291 579.83 194.721 579.146 193.783 578.234C192.871 577.297 192.415 576.093 192.415 574.624C192.415 573.585 192.719 572.61 193.327 571.698C193.961 570.786 194.898 570.051 196.139 569.494C197.381 568.911 198.926 568.62 200.775 568.62C202.675 568.62 204.322 568.924 205.715 569.532C207.134 570.115 208.249 570.989 209.059 572.154L205.943 575.194C205.386 574.307 204.651 573.636 203.739 573.18C202.853 572.699 201.915 572.458 200.927 572.458C200.218 572.458 199.61 572.534 199.103 572.686C198.597 572.838 198.217 573.053 197.963 573.332C197.71 573.585 197.583 573.915 197.583 574.32C197.583 574.725 197.761 575.08 198.115 575.384C198.47 575.663 199.116 575.903 200.053 576.106L203.929 576.904C205.804 577.284 207.147 577.93 207.957 578.842C208.768 579.729 209.173 580.805 209.173 582.072C209.173 583.288 208.844 584.377 208.185 585.34C207.552 586.277 206.602 587.025 205.335 587.582C204.094 588.114 202.561 588.38 200.737 588.38ZM219.937 588.38C218.67 588.38 217.53 588.152 216.517 587.696C215.504 587.24 214.693 586.518 214.085 585.53C213.502 584.517 213.211 583.212 213.211 581.616V569H218.417V580.362C218.417 581.831 218.721 582.857 219.329 583.44C219.937 583.997 220.811 584.276 221.951 584.276C222.483 584.276 223.002 584.187 223.509 584.01C224.016 583.807 224.459 583.503 224.839 583.098C225.244 582.693 225.561 582.173 225.789 581.54C226.017 580.881 226.131 580.109 226.131 579.222V569H231.337V588H226.701L226.511 584.694C225.878 585.961 225.004 586.898 223.889 587.506C222.8 588.089 221.482 588.38 219.937 588.38ZM247.987 588.38C246.822 588.38 245.758 588.139 244.795 587.658C243.858 587.151 243.072 586.467 242.439 585.606C241.831 584.719 241.413 583.731 241.185 582.642L241.717 581.958L241.413 588H236.815V560.678H242.021V574.358L241.527 573.56C241.932 572.141 242.705 570.963 243.845 570.026C244.985 569.089 246.416 568.62 248.139 568.62C249.634 568.62 250.989 569.013 252.205 569.798C253.421 570.583 254.371 571.711 255.055 573.18C255.764 574.649 256.119 576.435 256.119 578.538C256.119 580.59 255.764 582.351 255.055 583.82C254.371 585.289 253.408 586.417 252.167 587.202C250.951 587.987 249.558 588.38 247.987 588.38ZM246.429 584.39C247.822 584.39 248.912 583.896 249.697 582.908C250.508 581.895 250.913 580.425 250.913 578.5C250.913 576.575 250.52 575.118 249.735 574.13C248.95 573.117 247.86 572.61 246.467 572.61C245.555 572.61 244.77 572.851 244.111 573.332C243.452 573.813 242.933 574.497 242.553 575.384C242.198 576.271 242.021 577.322 242.021 578.538C242.021 579.779 242.198 580.843 242.553 581.73C242.933 582.591 243.452 583.25 244.111 583.706C244.795 584.162 245.568 584.39 246.429 584.39ZM263.261 566.264C262.172 566.264 261.361 566.036 260.829 565.58C260.297 565.099 260.031 564.402 260.031 563.49C260.031 562.553 260.297 561.856 260.829 561.4C261.361 560.919 262.172 560.678 263.261 560.678C264.351 560.678 265.161 560.919 265.693 561.4C266.225 561.856 266.491 562.553 266.491 563.49C266.491 564.402 266.225 565.099 265.693 565.58C265.161 566.036 264.351 566.264 263.261 566.264ZM265.845 569V589.406C265.845 591.053 265.541 592.37 264.933 593.358C264.351 594.346 263.553 595.055 262.539 595.486C261.526 595.942 260.373 596.17 259.081 596.17C258.144 596.17 257.295 596.056 256.535 595.828C255.775 595.625 255.117 595.334 254.559 594.954L255.357 591.23C255.661 591.483 256.041 591.699 256.497 591.876C256.953 592.053 257.46 592.142 258.017 592.142C258.803 592.142 259.436 591.901 259.917 591.42C260.399 590.939 260.639 590.103 260.639 588.912V569H265.845ZM280.18 588.38C278.179 588.38 276.431 587.987 274.936 587.202C273.467 586.417 272.327 585.289 271.516 583.82C270.705 582.351 270.3 580.577 270.3 578.5C270.3 576.423 270.705 574.649 271.516 573.18C272.327 571.711 273.454 570.583 274.898 569.798C276.367 569.013 278.039 568.62 279.914 568.62C281.839 568.62 283.473 569.013 284.816 569.798C286.159 570.558 287.185 571.609 287.894 572.952C288.603 574.269 288.958 575.777 288.958 577.474C288.958 577.981 288.945 578.462 288.92 578.918C288.895 579.374 288.857 579.779 288.806 580.134H273.644V576.524H286.526L284.018 577.436C284.018 575.84 283.651 574.611 282.916 573.75C282.207 572.889 281.193 572.458 279.876 572.458C278.913 572.458 278.077 572.686 277.368 573.142C276.684 573.598 276.165 574.282 275.81 575.194C275.455 576.081 275.278 577.208 275.278 578.576C275.278 579.919 275.468 581.033 275.848 581.92C276.253 582.781 276.811 583.427 277.52 583.858C278.255 584.289 279.129 584.504 280.142 584.504C281.257 584.504 282.156 584.289 282.84 583.858C283.524 583.427 284.056 582.832 284.436 582.072L288.578 583.668C288.173 584.656 287.552 585.505 286.716 586.214C285.905 586.923 284.93 587.468 283.79 587.848C282.675 588.203 281.472 588.38 280.18 588.38ZM301.996 568.62C303.693 568.62 305.124 568.873 306.29 569.38C307.48 569.861 308.43 570.533 309.14 571.394C309.874 572.23 310.394 573.167 310.698 574.206L305.834 575.954C305.58 574.814 305.15 573.953 304.542 573.37C303.934 572.787 303.11 572.496 302.072 572.496C301.109 572.496 300.286 572.724 299.602 573.18C298.918 573.611 298.398 574.282 298.044 575.194C297.689 576.081 297.512 577.195 297.512 578.538C297.512 579.881 297.689 580.995 298.044 581.882C298.424 582.769 298.956 583.427 299.64 583.858C300.349 584.289 301.172 584.504 302.11 584.504C302.87 584.504 303.516 584.377 304.048 584.124C304.58 583.845 305.01 583.453 305.34 582.946C305.694 582.439 305.935 581.831 306.062 581.122L310.774 582.642C310.495 583.782 309.976 584.783 309.216 585.644C308.456 586.505 307.48 587.177 306.29 587.658C305.099 588.139 303.718 588.38 302.148 588.38C300.197 588.38 298.474 587.987 296.98 587.202C295.485 586.417 294.332 585.289 293.522 583.82C292.711 582.351 292.306 580.577 292.306 578.5C292.306 576.423 292.711 574.649 293.522 573.18C294.332 571.711 295.472 570.583 296.942 569.798C298.411 569.013 300.096 568.62 301.996 568.62ZM321.545 563.186V581.806C321.545 582.718 321.773 583.389 322.229 583.82C322.71 584.225 323.356 584.428 324.167 584.428C324.8 584.428 325.358 584.339 325.839 584.162C326.32 583.959 326.751 583.693 327.131 583.364L327.967 586.822C327.359 587.303 326.599 587.683 325.687 587.962C324.775 588.241 323.812 588.38 322.799 588.38C321.532 588.38 320.405 588.19 319.417 587.81C318.454 587.43 317.694 586.822 317.137 585.986C316.605 585.15 316.339 584.035 316.339 582.642V564.63L321.545 563.186ZM327.625 569V572.876H312.843V569H327.625ZM338.747 588.38C336.822 588.38 335.061 588.038 333.465 587.354C331.894 586.67 330.615 585.707 329.627 584.466L332.629 581.426C333.237 582.338 334.048 583.085 335.061 583.668C336.074 584.251 337.278 584.542 338.671 584.542C339.659 584.542 340.444 584.403 341.027 584.124C341.635 583.82 341.939 583.351 341.939 582.718C341.939 582.313 341.8 581.971 341.521 581.692C341.242 581.388 340.685 581.147 339.849 580.97L336.505 580.286C334.301 579.83 332.73 579.146 331.793 578.234C330.881 577.297 330.425 576.093 330.425 574.624C330.425 573.585 330.729 572.61 331.337 571.698C331.97 570.786 332.908 570.051 334.149 569.494C335.39 568.911 336.936 568.62 338.785 568.62C340.685 568.62 342.332 568.924 343.725 569.532C345.144 570.115 346.258 570.989 347.069 572.154L343.953 575.194C343.396 574.307 342.661 573.636 341.749 573.18C340.862 572.699 339.925 572.458 338.937 572.458C338.228 572.458 337.62 572.534 337.113 572.686C336.606 572.838 336.226 573.053 335.973 573.332C335.72 573.585 335.593 573.915 335.593 574.32C335.593 574.725 335.77 575.08 336.125 575.384C336.48 575.663 337.126 575.903 338.063 576.106L341.939 576.904C343.814 577.284 345.156 577.93 345.967 578.842C346.778 579.729 347.183 580.805 347.183 582.072C347.183 583.288 346.854 584.377 346.195 585.34C345.562 586.277 344.612 587.025 343.345 587.582C342.104 588.114 340.571 588.38 338.747 588.38Z" fill="#343440"/>
</svg>
