<svg fill="none" height="841" viewBox="0 0 864 841" width="864" xmlns="http://www.w3.org/2000/svg" xmlns:xlink="http://www.w3.org/1999/xlink"><filter id="a" color-interpolation-filters="sRGB" filterUnits="userSpaceOnUse" height="68" width="166" x="454" y="369"><feFlood flood-opacity="0" result="BackgroundImageFix"/><feBlend in="SourceGraphic" in2="BackgroundImageFix" mode="normal" result="shape"/><feGaussianBlur result="effect1_foregroundBlur_918_1688" stdDeviation="2"/></filter><radialGradient id="b" cx="0" cy="0" gradientTransform="matrix(110.35348507 222.94426087 -232.60908337 115.13740209 356.647 460.056)" gradientUnits="userSpaceOnUse" r="1"><stop offset=".114583" stop-color="#ffe662" stop-opacity="0"/><stop offset="1" stop-color="#f7d835"/></radialGradient><ellipse cx="440.696" cy="702.277" fill="#c4c4c4" fill-opacity=".5" rx="339.956" ry="73.2767"/><path d="m213.918 582.481-19.781-57.065s-34.358-41.724-34.358-150.377l-3.106-27.865s-74.4379-260.0304 124.054-281.61c130.457-14.1683 215.467 33.4432 258.434 67.751 23.215 18.542 28.337 44.076 34.277 72.517 5.177 24.748-19.563 72.203-9.182 97.947 44.684 110.726 52.095 117.902 64.138 132.385 6.866 8.275 31.17 26.581 46.81 54.263 31.361 55.494 24.059 140.216 24.059 140.216l-313.664 54.001s-98.524 13.566-136.315-13.854l-2.861-30.484" fill="#e4b652"/><path d="m688.179 596.176s15.509-14.747 26.533-41.057c11.023-26.31 31.238-10.203 34 2.965 2.708 12.924 15.209 45.302-57.88 80.373l-10.832-23.045z" fill="#e4b652"/><path d="m276.983 61s-84.614 13.5884-115.805 15.0891-50.063-4.2839-57.656 44.6939c-7.5931 48.978 12.318 88.188 22.314 92.281 10.379 4.257 25.209 6.221 37.773-25.403s26.193-71.025 55.663-89.7978c24.909-15.8531 47.824-24.9939 54.352-27.4496 1.529-.573 2.949-1.337 4.26-2.2647 3.551-2.5103 8.74-7.1489-.901-7.1489z" fill="#544b43"/><path d="m465.917 97.3601s-6.159-17.2928 25.153-.6536c31.311 16.6395 56.902 29.0845 86.544 36.9005s45.982 12.282 48.774 38.834c2.819 26.552-22.471 66.856-45.27 90.004-12.536 12.745-20.692 8.85-25.482 2.777-3.722-4.711-5.419-10.729-5.31-16.72.192-9.886-1.122-32.271-13.986-56.127-9.634-17.837-42.971-77.205-70.423-95.0149z" fill="#544b43"/><path d="m230.791 225.091s50.643-33.817 108.3-24.54 79.866 62.111 79.866 62.111" stroke="#544b43" stroke-linecap="round" stroke-linejoin="round" stroke-miterlimit="10" stroke-width="5"/><path d="m330.743 221.904s-35.591-11.066-37.719 19.205c-.245 3.599 1.364 7.252 4.555 8.998 3.873 2.095 10.8 2.954 23.073-2.069 0 0 4.554-2.685 8.345 1.827 3.818 4.512 7.282 11.576 18.955 10.421 4.8-.483 8.018-3.142 10.145-6.124 4.336-6.07 4.2-14.423-.682-20.064-4.091-4.754-11.891-9.777-26.672-12.194z" fill="#544b43"/><path d="m156.571 358.015s175.138 61.363 406.883-50.372l19.678 41.547s-229.892 113.544-425.988 43.686z" fill="#16d2aa"/><path d="m329.779 498.863c20.883 0 37.812-18.044 37.812-40.303 0-22.258-16.929-40.303-37.812-40.303-20.882 0-37.811 18.045-37.811 40.303 0 22.259 16.929 40.303 37.811 40.303z" fill="#fff"/><path d="m329.773 417.365c-23.309 0-42.228 18.884-42.228 42.21 0 23.299 18.892 42.211 42.228 42.211 23.309 0 42.228-18.885 42.228-42.211s-18.919-42.21-42.228-42.21zm0 78.562c-20.092 0-36.394-16.296-36.394-36.379s16.275-36.379 36.394-36.379c20.092 0 36.394 16.268 36.394 36.379s-16.302 36.379-36.394 36.379z" fill="#16d2aa"/><path d="m329.784 495.951c20.1 0 36.394-16.287 36.394-36.379 0-20.091-16.294-36.379-36.394-36.379s-36.394 16.288-36.394 36.379c0 20.092 16.294 36.379 36.394 36.379z" fill="#fff"/><path d="m311.54 468.34c1.172 1.444 2.726 2.18 4.689 2.18s3.517-.736 4.662-2.18c1.145-1.445 1.717-3.434 1.717-5.914v-13.08l6.979-4.196v17.494c0 4.524-1.254 8.012-3.762 10.437s-5.698 3.652-9.623 3.652c-3.899 0-7.116-1.227-9.651-3.679-2.508-2.453-3.789-5.913-3.789-10.41v-13.298l6.979-4.196v17.249c.054 2.534.627 4.496 1.799 5.941z" fill="#16d2aa"/><path d="m353.455 447.957c2.18 1.853 3.298 4.714 3.298 8.583 0 3.87-1.118 6.677-3.38 8.475-2.263 1.799-5.698 2.671-10.305 2.671h-4.171v4.523l-6.979 4.197v-31.256h11.041c4.798.027 8.287.954 10.496 2.807zm-5.126 12.289c.846-.926 1.254-2.316 1.254-4.114 0-1.799-.545-3.08-1.635-3.843-1.091-.763-2.781-1.144-5.071-1.144h-3.98v10.518h4.689c2.317 0 3.898-.463 4.743-1.417z" fill="#16d2aa"/><path d="m329.448 411.656s4.286 7.436.19 11.455c-4.123 4.046 2.143 1.34 2.143 1.34s3.825-7.382 0-12.795c0 0-.814-2.953-2.333 0z" fill="#b5dfd5"/><path d="m324.498 415.076 1.499-.235v2.842l-1.499.156z" fill="#b5dfd5"/><path d="m325.246 247.664-4.509 22.426s3.124 11.792 22.164 16.207c1.331.296 2.689.404 4.047.323 4.401-.242 14.043-1.454 18.769-7.026" stroke="#544b43" stroke-linecap="round" stroke-linejoin="round" stroke-miterlimit="10" stroke-width="5"/><path d="m320.748 269.411s-9.031 15.146-23.524 11.399-14.709-11.399-14.709-11.399" stroke="#544b43" stroke-linecap="round" stroke-linejoin="round" stroke-miterlimit="10" stroke-width="5"/><path d="m699.331 623.236s-26.881 91.142-120.121 105.375c-93.268 14.233-117.455 0-117.455 0s-17.086-9.961 13.522-28.494 49.844-27.051 49.844-27.051-130.977 7.838-175.135 6.395" fill="#e4b652"/><path d="m421.197 677.781s-79.382 11.399-172.049 29.301c-47.667 9.196-70.643 8.298-81.206 6.312-7.132-1.36-13.067-6.856-14.183-14.011-1.034-6.748 1.742-15.807 17.042-25.058 30.626-18.5 32.177-14.201 32.177-14.201-37.595-40.565 11.216-87.115 11.216-87.115s53.248 80.993 130.126 92.91" fill="#e4b652"/><path d="m212.786 573.009c22.156 45.593 97.584 76.522 146.185 95.957z" fill="#e4b652"/><path d="m212.786 573.009c22.156 45.593 97.584 76.522 146.185 95.957" stroke="#c58f2c" stroke-miterlimit="10" stroke-width="1.302"/><path d="m525.077 673.008c-11.859-6.24-22.082-16.132-27.998-28.503-2.917-6.186-4.444-13.053-4.607-19.893-.164-6.867 1.036-13.707 3.135-20.219 2.181-6.513 5.398-12.508 8.86-18.367 3.707-5.668 7.606-11.227 12.159-16.241 8.887-10.192 18.892-19.239 29.496-27.468l-7.333 6.867c-2.481 2.234-4.743 4.741-7.142 7.085-2.427 2.316-4.635 4.823-6.898 7.276-2.317 2.398-4.389 5.014-6.515 7.603-4.226 5.15-8.097 10.573-11.641 16.186-3.298 5.75-6.379 11.636-8.396 17.903-2.072 6.241-3.326 12.753-3.217 19.293.054 6.54 1.527 13.026 4.035 19.103 2.589 6.049 6.352 11.581 10.822 16.513 4.39 4.933 9.542 9.293 15.24 12.862z" fill="#c48f2c"/><g fill="#c58f2c"><path d="m183.933 689.963c5.589 0 10.121-2.349 10.121-5.248 0-2.898-4.532-5.247-10.121-5.247s-10.121 2.349-10.121 5.247c0 2.899 4.532 5.248 10.121 5.248z"/><path d="m173.437 701.954c4.347 0 7.871-1.846 7.871-4.123s-3.524-4.123-7.871-4.123-7.872 1.846-7.872 4.123 3.525 4.123 7.872 4.123z"/><path d="m183.181 710.952c4.761 0 8.621-1.342 8.621-2.998s-3.86-2.999-8.621-2.999c-4.762 0-8.621 1.343-8.621 2.999s3.859 2.998 8.621 2.998z"/><path d="m204.547 707.195c9.936 0 17.992-4.196 17.992-9.371s-8.056-9.371-17.992-9.371c-9.937 0-17.992 4.196-17.992 9.371s8.055 9.371 17.992 9.371z"/></g><path d="m247.663 653.385s-46.372 3.788-48.744 6.84z" fill="#e4b652"/><path d="m247.663 653.384c-4.062.763-8.152 1.335-12.214 1.88-4.062.572-8.151 1.035-12.24 1.526l-12.24 1.335c-2.045.191-4.09.436-6.107.736s-4.144.409-5.943 1.362c.736-.763 1.799-1.062 2.753-1.444.982-.327 1.99-.627 2.999-.899 2.017-.491 4.035-.899 6.079-1.308 4.062-.79 8.152-1.308 12.241-1.799 4.089-.436 8.206-.844 12.322-1.062 4.117-.218 8.233-.382 12.35-.327z" fill="#c58f2c"/><g filter="url(#a)" opacity=".1"><path d="m458 402.981c31.43-17.971 107.032-37.126 158 30.019-18.688-37.575-76.452-96.185-158-30.019z" fill="#fff"/></g><path d="m253.932 180.152s4.991-11.199 16.514-9.605c11.543 1.626 12.333 10.524 12.333 10.524" stroke="#1e1c1a" stroke-linecap="round" stroke-linejoin="round" stroke-miterlimit="10" stroke-width="5"/><path d="m404.324 204.998s7.203-9.854 18.077-5.647c10.899 4.211 9.781 13.078 9.781 13.078" stroke="#1e1c1a" stroke-linecap="round" stroke-linejoin="round" stroke-miterlimit="10" stroke-width="5"/><path d="m404.183 261.244c6.74-7.057 18.636-3.547 20.466 6.038l22.701 118.934c.732 3.833 3.281 7.071 6.836 8.681l113.199 51.272c9.198 4.166 9.452 17.136.425 21.659l-108.158 54.196c-3.639 1.824-6.105 5.368-6.551 9.413l-13.041 118.254c-1.085 9.831-12.928 14.203-20.14 7.435l-90.68-85.1c-2.773-2.602-6.616-3.736-10.358-3.056l-122.352 22.245c-9.731 1.769-17.304-8.332-12.878-17.177l53.241-106.393c1.822-3.64 1.674-7.955-.392-11.462l-61.415-104.228c-5.126-8.699 2.129-19.454 12.114-17.96l122.901 18.39c3.86.577 7.759-.758 10.454-3.58z" fill="#ffe662"/><path d="m404.183 261.244c6.74-7.057 18.636-3.547 20.466 6.038l22.701 118.934c.732 3.833 3.281 7.071 6.836 8.681l113.199 51.272c9.198 4.166 9.452 17.136.425 21.659l-108.158 54.196c-3.639 1.824-6.105 5.368-6.551 9.413l-13.041 118.254c-1.085 9.831-12.928 14.203-20.14 7.435l-90.68-85.1c-2.773-2.602-6.616-3.736-10.358-3.056l-122.352 22.245c-9.731 1.769-17.304-8.332-12.878-17.177l53.241-106.393c1.822-3.64 1.674-7.955-.392-11.462l-61.415-104.228c-5.126-8.699 2.129-19.454 12.114-17.96l122.901 18.39c3.86.577 7.759-.758 10.454-3.58z" fill="url(#b)"/><path d="m261.444 414.647c-43.409-10.981-79.221-60.449-104.344-61.768-12.772-.67-35.042 63.998-2.003 92.428 47.657 41.008 103.685 38.17 116.097 20.46s13.025-45.358-9.75-51.12z" fill="#e4b652"/><path d="m445.169 398.87c50.651.166 104.091-41.693 133.7-35.463 22.943-5.767 47.058 67.124-31.475 97.755-60.217 23.487-117.17 3.436-126.391-16.839-9.22-20.276-3.02-45.543 24.166-45.453z" fill="#e4b652"/></svg>