<svg fill="none" height="80" viewBox="0 0 81 80" width="81" xmlns="http://www.w3.org/2000/svg" xmlns:xlink="http://www.w3.org/1999/xlink"><clipPath id="a"><path d="m22 21h38.9268v38h-38.9268z"/></clipPath><circle cx="40.5" cy="40" fill="#4677da" r="40"/><g clip-path="url(#a)"><path clip-rule="evenodd" d="m42.4363 21.5108c.0257.0242.0507.0492.0749.0749l3.124 3.3069 4.4642-1.0818c.9949-.2413 1.9971.3695 2.2385 1.3644.0083.0343.0156.0688.022.1036l.8234 4.5066 4.3223 1.4349c.9716.3225 1.4978 1.3716 1.1753 2.3432-.0111.0335-.0232.0667-.0362.0995l-1.705 4.2961 2.8239 3.5321c.6392.7997.5091 1.9662-.2906 2.6054-.0276.022-.0558.0432-.0845.0637l-3.7352 2.65.4493 4.5427c.1005 1.0188-.6438 1.9262-1.6626 2.0268l-.1057.0074-4.533.1871-2.1169 4.0921c-.4705.9092-1.589 1.2648-2.4982.7943-.0314-.0163-.0622-.0334-.0926-.0514l-3.9304-2.3279-3.9296 2.3279c-.8809.5217-2.0179.2306-2.5396-.6503-.018-.0304-.0351-.0612-.0513-.0926l-2.1184-4.0921-4.5315-.1871c-1.0229-.0422-1.8178-.9057-1.7756-1.9285l.0074-.1057.4477-4.5427-3.7336-2.65c-.8349-.5925-1.0313-1.7496-.4388-2.5845.0204-.0288.0416-.057.0637-.0846l2.8232-3.5321-1.7044-4.2961c-.3774-.9516.088-2.029 1.0396-2.4065.0328-.013.066-.0251.0995-.0362l4.3208-1.4349.825-4.5066c.1841-1.0071 1.1498-1.6742 2.1568-1.49.0348.0064.0693.0137.1036.022l4.4636 1.0828 3.1246-3.3079c.703-.7443 1.8762-.7778 2.6204-.0749z" fill="#14d2aa" fill-rule="evenodd"/><path d="m37.9178 43.7768-3.55-3.55c-.1875-.1898-.4432-.2966-.71-.2966s-.5225.1068-.71.2966c-.3956.3956-.3956 1.0245 0 1.42l4.2499 4.2499c.3955.3956 1.0346.3956 1.4301 0l10.7515-10.7413c.3956-.3956.3956-1.0244 0-1.42-.1875-.1898-.4432-.2967-.71-.2967s-.5225.1069-.71.2967z" fill="#fff"/></g></svg>