<svg width="20" height="20" viewBox="0 0 20 20" fill="none" xmlns="http://www.w3.org/2000/svg">
<path fill-rule="evenodd" clip-rule="evenodd" d="M10.5 14C11.3284 14 12 14.6716 12 15.5C12 16.3284 11.3284 17 10.5 17C9.67157 17 9 16.3284 9 15.5C9 14.6716 9.67157 14 10.5 14ZM10.5 8.16666C11.3284 8.16666 12 8.83823 12 9.66666C12 10.4951 11.3284 11.1667 10.5 11.1667C9.67157 11.1667 9 10.4951 9 9.66666C9 8.83823 9.67157 8.16666 10.5 8.16666ZM12 3.83333C12 3.0049 11.3284 2.33333 10.5 2.33333C9.67157 2.33333 9 3.0049 9 3.83333C9 4.66176 9.67157 5.33333 10.5 5.33333C11.3284 5.33333 12 4.66176 12 3.83333Z" fill="#666F7D"/>
</svg>
