<svg fill="none" height="20" viewBox="0 0 20 20" width="20" xmlns="http://www.w3.org/2000/svg"><path clip-rule="evenodd" d="m10.5 14c.8284 0 1.5.6716 1.5 1.5s-.6716 1.5-1.5 1.5c-.82843 0-1.5-.6716-1.5-1.5s.67157-1.5 1.5-1.5zm0-5.83334c.8284 0 1.5.67157 1.5 1.5 0 .82844-.6716 1.50004-1.5 1.50004-.82843 0-1.5-.6716-1.5-1.50004 0-.82843.67157-1.5 1.5-1.5zm1.5-4.33333c0-.82843-.6716-1.5-1.5-1.5-.82843 0-1.5.67157-1.5 1.5s.67157 1.5 1.5 1.5c.8284 0 1.5-.67157 1.5-1.5z" fill="#666f7d" fill-rule="evenodd"/></svg>