<svg enable-background="new 0 0 2048 2048" viewBox="0 0 2048 2048" xmlns="http://www.w3.org/2000/svg"><path d="m409.654 1709.607c-27.971 0-55.305-7.542-79.049-21.809-22.244-13.367-40.898-32.376-53.945-54.974-13.047-22.597-20.183-48.257-20.637-74.205-.485-27.696 6.651-55.14 20.636-79.363l614.347-1064.08c13.985-24.223 34.183-44.125 58.411-57.553 22.698-12.581 48.489-19.231 74.582-19.231 26.094 0 51.883 6.65 74.581 19.23 24.228 13.429 44.426 33.33 58.412 57.553l614.346 1064.08c13.985 24.222 21.121 51.665 20.638 79.362-.454 25.948-7.59 51.608-20.637 74.206-13.047 22.597-31.701 41.608-53.946 54.976-23.743 14.268-51.078 21.809-79.049 21.809h-1228.69z" fill="#e6c86b"/><path d="m972.038 466.784-610.168 1056.843c-23.094 40 5.774 90 51.962 90h1220.337c46.188 0 75.056-50 51.961-90l-610.168-1056.843c-23.094-40-80.829-40-103.924 0z" fill="#f7e07f"/><g fill="#fc636e"><path d="m1024 1302.971c-25.039 0-45.337-20.298-45.337-45.337v-477.071c0-25.039 20.298-45.337 45.337-45.337 25.039 0 45.337 20.298 45.337 45.337v477.071c0 25.039-20.298 45.337-45.337 45.337z"/><circle cx="1024" cy="1438.027" r="51.143"/></g></svg>