<svg width="25" height="23" viewBox="0 0 25 23" fill="none" xmlns="http://www.w3.org/2000/svg">
<path d="M9.21777 13.5L14.2178 6.5L17.2178 8.5L24.2178 1M24.2178 1H20.2178M24.2178 1V5" stroke="black" stroke-linecap="round"/>
<path fill-rule="evenodd" clip-rule="evenodd" d="M6.31777 1.55C6.31777 1.30147 6.51924 1.1 6.76777 1.1H9.6556H14.7159C14.8267 1.1 14.9337 1.14094 15.0163 1.21498L18.8074 4.61471L19.5433 3.79709L15.7507 0.396037C15.4663 0.141031 15.0978 0 14.7159 0H9.6556H6.76777C5.91173 0 5.21777 0.693957 5.21777 1.55V16.285C5.21777 17.141 5.91173 17.835 6.76777 17.835H18.764C19.62 17.835 20.314 17.141 20.314 16.285V7.42532L19.214 8.64754V16.285C19.214 16.5335 19.0125 16.735 18.764 16.735H6.76777C6.51925 16.735 6.31777 16.5335 6.31777 16.285V1.55Z" fill="black"/>
<path d="M13.5966 18.729V21.2154C13.5966 21.7677 13.1489 22.2154 12.5966 22.2154H2C1.44772 22.2154 1 21.7677 1 21.2154V6.48047C1 5.92818 1.44772 5.48047 2 5.48047H4.49905" stroke="black" stroke-width="1.1"/>
</svg>
