<svg width="641" height="638" viewBox="0 0 641 638" fill="none" xmlns="http://www.w3.org/2000/svg">
<ellipse cx="354.5" cy="411" rx="236.5" ry="227" fill="url(#paint0_linear_5506_2979)" fill-opacity="0.35"/>
<path d="M69.7348 19.448C69.2788 20.984 68.5588 22.268 67.5748 23.3C66.5908 24.332 65.4268 25.1 64.0828 25.604C62.7388 26.108 61.2628 26.36 59.6548 26.36C57.3028 26.36 55.2628 25.868 53.5348 24.884C51.8308 23.9 50.5108 22.496 49.5748 20.672C48.6628 18.848 48.2068 16.664 48.2068 14.12C48.2068 11.576 48.6628 9.392 49.5748 7.568C50.5108 5.744 51.8308 4.34 53.5348 3.356C55.2628 2.372 57.2788 1.88 59.5828 1.88C61.2148 1.88 62.6908 2.108 64.0108 2.564C65.3308 2.996 66.4468 3.668 67.3588 4.58C68.2948 5.492 68.9788 6.644 69.4108 8.036L64.9108 9.944C64.5028 8.504 63.8788 7.484 63.0388 6.884C62.1988 6.26 61.1188 5.948 59.7988 5.948C58.5028 5.948 57.3628 6.26 56.3788 6.884C55.4188 7.508 54.6748 8.432 54.1468 9.656C53.6188 10.856 53.3548 12.344 53.3548 14.12C53.3548 15.872 53.5948 17.36 54.0748 18.584C54.5788 19.808 55.3108 20.732 56.2708 21.356C57.2308 21.98 58.4068 22.292 59.7988 22.292C61.0948 22.292 62.2108 21.944 63.1468 21.248C64.1068 20.552 64.7788 19.496 65.1628 18.08L69.7348 19.448ZM81.673 7.64C83.497 7.64 85.093 8.012 86.461 8.756C87.853 9.5 88.933 10.568 89.701 11.96C90.493 13.352 90.889 15.032 90.889 17C90.889 18.944 90.493 20.624 89.701 22.04C88.933 23.432 87.853 24.5 86.461 25.244C85.093 25.988 83.497 26.36 81.673 26.36C79.873 26.36 78.277 25.988 76.885 25.244C75.493 24.5 74.401 23.432 73.609 22.04C72.841 20.624 72.457 18.944 72.457 17C72.457 15.032 72.841 13.352 73.609 11.96C74.401 10.568 75.493 9.5 76.885 8.756C78.277 8.012 79.873 7.64 81.673 7.64ZM81.673 11.312C80.761 11.312 79.981 11.528 79.333 11.96C78.709 12.368 78.229 12.992 77.893 13.832C77.557 14.672 77.389 15.728 77.389 17C77.389 18.272 77.557 19.328 77.893 20.168C78.229 21.008 78.709 21.644 79.333 22.076C79.981 22.484 80.761 22.688 81.673 22.688C82.561 22.688 83.317 22.484 83.941 22.076C84.589 21.644 85.081 21.008 85.417 20.168C85.753 19.328 85.921 18.272 85.921 17C85.921 15.728 85.753 14.672 85.417 13.832C85.081 12.992 84.589 12.368 83.941 11.96C83.317 11.528 82.561 11.312 81.673 11.312ZM95.0158 26V8H99.4438L99.7318 13.4L99.1198 12.824C99.4078 11.648 99.8638 10.676 100.488 9.908C101.112 9.14 101.868 8.576 102.756 8.216C103.668 7.832 104.664 7.64 105.744 7.64C106.992 7.64 108.096 7.88 109.056 8.36C110.04 8.84 110.808 9.572 111.36 10.556C111.936 11.516 112.224 12.728 112.224 14.192V26H107.292V15.596C107.292 14.06 106.992 13.004 106.392 12.428C105.792 11.828 105.012 11.528 104.052 11.528C103.38 11.528 102.72 11.696 102.072 12.032C101.448 12.344 100.932 12.86 100.524 13.58C100.14 14.3 99.9478 15.26 99.9478 16.46V26H95.0158ZM117.305 26V8H121.733L122.021 13.4L121.409 12.824C121.697 11.648 122.153 10.676 122.777 9.908C123.401 9.14 124.157 8.576 125.045 8.216C125.957 7.832 126.953 7.64 128.033 7.64C129.281 7.64 130.385 7.88 131.345 8.36C132.329 8.84 133.097 9.572 133.649 10.556C134.225 11.516 134.513 12.728 134.513 14.192V26H129.581V15.596C129.581 14.06 129.281 13.004 128.681 12.428C128.081 11.828 127.301 11.528 126.341 11.528C125.669 11.528 125.009 11.696 124.361 12.032C123.737 12.344 123.221 12.86 122.813 13.58C122.429 14.3 122.237 15.26 122.237 16.46V26H117.305ZM147.946 26.36C146.05 26.36 144.394 25.988 142.978 25.244C141.586 24.5 140.506 23.432 139.738 22.04C138.97 20.648 138.586 18.968 138.586 17C138.586 15.032 138.97 13.352 139.738 11.96C140.506 10.568 141.574 9.5 142.942 8.756C144.334 8.012 145.918 7.64 147.694 7.64C149.518 7.64 151.066 8.012 152.338 8.756C153.61 9.476 154.582 10.472 155.254 11.744C155.926 12.992 156.262 14.42 156.262 16.028C156.262 16.508 156.25 16.964 156.226 17.396C156.202 17.828 156.166 18.212 156.118 18.548H141.754V15.128H153.958L151.582 15.992C151.582 14.48 151.234 13.316 150.538 12.5C149.866 11.684 148.906 11.276 147.658 11.276C146.746 11.276 145.954 11.492 145.282 11.924C144.634 12.356 144.142 13.004 143.806 13.868C143.47 14.708 143.302 15.776 143.302 17.072C143.302 18.344 143.482 19.4 143.842 20.24C144.226 21.056 144.754 21.668 145.426 22.076C146.122 22.484 146.95 22.688 147.91 22.688C148.966 22.688 149.818 22.484 150.466 22.076C151.114 21.668 151.618 21.104 151.978 20.384L155.902 21.896C155.518 22.832 154.93 23.636 154.138 24.308C153.37 24.98 152.446 25.496 151.366 25.856C150.31 26.192 149.17 26.36 147.946 26.36ZM168.614 7.64C170.222 7.64 171.578 7.88 172.682 8.36C173.81 8.816 174.71 9.452 175.382 10.268C176.078 11.06 176.57 11.948 176.858 12.932L172.25 14.588C172.01 13.508 171.602 12.692 171.026 12.14C170.45 11.588 169.67 11.312 168.686 11.312C167.774 11.312 166.994 11.528 166.346 11.96C165.698 12.368 165.206 13.004 164.87 13.868C164.534 14.708 164.366 15.764 164.366 17.036C164.366 18.308 164.534 19.364 164.87 20.204C165.23 21.044 165.734 21.668 166.382 22.076C167.054 22.484 167.834 22.688 168.722 22.688C169.442 22.688 170.054 22.568 170.558 22.328C171.062 22.064 171.47 21.692 171.782 21.212C172.118 20.732 172.346 20.156 172.466 19.484L176.93 20.924C176.666 22.004 176.174 22.952 175.454 23.768C174.734 24.584 173.81 25.22 172.682 25.676C171.554 26.132 170.246 26.36 168.758 26.36C166.91 26.36 165.278 25.988 163.862 25.244C162.446 24.5 161.354 23.432 160.586 22.04C159.818 20.648 159.434 18.968 159.434 17C159.434 15.032 159.818 13.352 160.586 11.96C161.354 10.568 162.434 9.5 163.826 8.756C165.218 8.012 166.814 7.64 168.614 7.64ZM187.134 2.492V20.132C187.134 20.996 187.35 21.632 187.782 22.04C188.238 22.424 188.85 22.616 189.618 22.616C190.218 22.616 190.746 22.532 191.202 22.364C191.658 22.172 192.066 21.92 192.426 21.608L193.218 24.884C192.642 25.34 191.922 25.7 191.058 25.964C190.194 26.228 189.282 26.36 188.322 26.36C187.122 26.36 186.054 26.18 185.118 25.82C184.206 25.46 183.486 24.884 182.958 24.092C182.454 23.3 182.202 22.244 182.202 20.924V3.86L187.134 2.492ZM192.894 8V11.672H178.89V8H192.894ZM223.592 8L216.32 27.116C215.744 28.748 215.096 30.044 214.376 31.004C213.68 31.964 212.864 32.66 211.928 33.092C211.016 33.524 209.924 33.74 208.652 33.74C207.716 33.74 206.852 33.62 206.06 33.38C205.292 33.164 204.62 32.876 204.044 32.516L205.088 28.952C205.544 29.312 206.024 29.564 206.528 29.708C207.032 29.876 207.608 29.96 208.256 29.96C208.928 29.96 209.504 29.816 209.984 29.528C210.488 29.24 210.908 28.664 211.244 27.8L211.856 26.252L209.876 21.572L204.368 8H209.84L213.26 18.8L214.196 22.4L215.312 18.584L218.588 8H223.592ZM234.321 7.64C236.145 7.64 237.741 8.012 239.109 8.756C240.501 9.5 241.581 10.568 242.349 11.96C243.141 13.352 243.537 15.032 243.537 17C243.537 18.944 243.141 20.624 242.349 22.04C241.581 23.432 240.501 24.5 239.109 25.244C237.741 25.988 236.145 26.36 234.321 26.36C232.521 26.36 230.925 25.988 229.533 25.244C228.141 24.5 227.049 23.432 226.257 22.04C225.489 20.624 225.105 18.944 225.105 17C225.105 15.032 225.489 13.352 226.257 11.96C227.049 10.568 228.141 9.5 229.533 8.756C230.925 8.012 232.521 7.64 234.321 7.64ZM234.321 11.312C233.409 11.312 232.629 11.528 231.981 11.96C231.357 12.368 230.877 12.992 230.541 13.832C230.205 14.672 230.037 15.728 230.037 17C230.037 18.272 230.205 19.328 230.541 20.168C230.877 21.008 231.357 21.644 231.981 22.076C232.629 22.484 233.409 22.688 234.321 22.688C235.209 22.688 235.965 22.484 236.589 22.076C237.237 21.644 237.729 21.008 238.065 20.168C238.401 19.328 238.569 18.272 238.569 17C238.569 15.728 238.401 14.672 238.065 13.832C237.729 12.992 237.237 12.368 236.589 11.96C235.965 11.528 235.209 11.312 234.321 11.312ZM253.928 26.36C252.728 26.36 251.648 26.144 250.688 25.712C249.728 25.28 248.96 24.596 248.384 23.66C247.832 22.7 247.556 21.464 247.556 19.952V8H252.488V18.764C252.488 20.156 252.776 21.128 253.352 21.68C253.928 22.208 254.756 22.472 255.836 22.472C256.34 22.472 256.832 22.388 257.312 22.22C257.792 22.028 258.212 21.74 258.572 21.356C258.956 20.972 259.256 20.48 259.472 19.88C259.688 19.256 259.796 18.524 259.796 17.684V8H264.728V26H260.336L260.156 22.868C259.556 24.068 258.728 24.956 257.672 25.532C256.64 26.084 255.392 26.36 253.928 26.36ZM269.918 26V8H274.202L274.526 11.528C275.006 10.28 275.702 9.32 276.614 8.648C277.55 7.976 278.714 7.64 280.106 7.64C280.514 7.64 280.886 7.676 281.222 7.748C281.558 7.82 281.834 7.916 282.05 8.036L281.474 12.176C281.234 12.08 280.934 12.008 280.574 11.96C280.238 11.912 279.794 11.888 279.242 11.888C278.522 11.888 277.826 12.068 277.154 12.428C276.482 12.764 275.93 13.292 275.498 14.012C275.066 14.708 274.85 15.596 274.85 16.676V26H269.918ZM304.622 1.88C306.782 1.88 308.678 2.252 310.31 2.996C311.942 3.74 313.334 4.844 314.486 6.308L311.714 9.512C310.73 8.264 309.65 7.352 308.474 6.776C307.322 6.176 305.978 5.876 304.442 5.876C303.434 5.876 302.594 6.008 301.922 6.272C301.274 6.536 300.794 6.884 300.482 7.316C300.194 7.748 300.05 8.228 300.05 8.756C300.05 9.404 300.302 9.956 300.806 10.412C301.31 10.844 302.174 11.204 303.398 11.492L307.826 12.5C310.178 13.028 311.858 13.82 312.866 14.876C313.898 15.908 314.414 17.252 314.414 18.908C314.414 20.468 314.006 21.812 313.19 22.94C312.374 24.044 311.234 24.896 309.77 25.496C308.306 26.072 306.626 26.36 304.73 26.36C303.074 26.36 301.55 26.168 300.158 25.784C298.79 25.376 297.566 24.824 296.486 24.128C295.406 23.432 294.506 22.628 293.786 21.716L296.594 18.368C297.146 19.136 297.83 19.82 298.646 20.42C299.462 21.02 300.386 21.5 301.418 21.86C302.474 22.196 303.578 22.364 304.73 22.364C305.714 22.364 306.542 22.256 307.214 22.04C307.91 21.8 308.426 21.476 308.762 21.068C309.122 20.636 309.302 20.12 309.302 19.52C309.302 18.896 309.086 18.368 308.654 17.936C308.246 17.48 307.478 17.132 306.35 16.892L301.526 15.812C300.134 15.476 298.934 15.044 297.926 14.516C296.942 13.964 296.186 13.268 295.658 12.428C295.154 11.564 294.902 10.544 294.902 9.368C294.902 7.952 295.286 6.68 296.054 5.552C296.822 4.424 297.926 3.536 299.366 2.888C300.83 2.216 302.582 1.88 304.622 1.88ZM324.982 2.492V20.132C324.982 20.996 325.198 21.632 325.63 22.04C326.086 22.424 326.698 22.616 327.466 22.616C328.066 22.616 328.594 22.532 329.05 22.364C329.506 22.172 329.914 21.92 330.274 21.608L331.066 24.884C330.49 25.34 329.77 25.7 328.906 25.964C328.042 26.228 327.13 26.36 326.17 26.36C324.97 26.36 323.902 26.18 322.966 25.82C322.054 25.46 321.334 24.884 320.806 24.092C320.302 23.3 320.05 22.244 320.05 20.924V3.86L324.982 2.492ZM330.742 8V11.672H316.738V8H330.742ZM340.342 26.36C339.142 26.36 338.062 26.144 337.102 25.712C336.142 25.28 335.374 24.596 334.798 23.66C334.246 22.7 333.97 21.464 333.97 19.952V8H338.902V18.764C338.902 20.156 339.19 21.128 339.766 21.68C340.342 22.208 341.17 22.472 342.25 22.472C342.754 22.472 343.246 22.388 343.726 22.22C344.206 22.028 344.626 21.74 344.986 21.356C345.37 20.972 345.67 20.48 345.886 19.88C346.102 19.256 346.21 18.524 346.21 17.684V8H351.142V26H346.75L346.57 22.868C345.97 24.068 345.142 24.956 344.086 25.532C343.054 26.084 341.806 26.36 340.342 26.36ZM363.136 26.36C361.648 26.36 360.316 25.988 359.14 25.244C357.988 24.5 357.076 23.432 356.404 22.04C355.756 20.648 355.432 18.98 355.432 17.036C355.432 15.044 355.78 13.352 356.476 11.96C357.172 10.544 358.108 9.476 359.284 8.756C360.484 8.012 361.828 7.64 363.316 7.64C364.9 7.64 366.208 8.096 367.24 9.008C368.272 9.92 368.944 11.096 369.256 12.536L368.788 13.112V0.115999H373.72V26H369.292L368.968 20.528L369.58 20.816C369.412 21.944 369.028 22.928 368.428 23.768C367.828 24.584 367.072 25.22 366.16 25.676C365.248 26.132 364.24 26.36 363.136 26.36ZM364.576 22.58C365.44 22.58 366.184 22.364 366.808 21.932C367.432 21.476 367.912 20.816 368.248 19.952C368.608 19.088 368.788 18.056 368.788 16.856C368.788 15.704 368.62 14.732 368.284 13.94C367.948 13.124 367.468 12.5 366.844 12.068C366.22 11.636 365.488 11.42 364.648 11.42C363.304 11.42 362.248 11.9 361.48 12.86C360.736 13.796 360.364 15.176 360.364 17C360.364 18.824 360.736 20.216 361.48 21.176C362.224 22.112 363.256 22.58 364.576 22.58ZM387.255 26.36C385.359 26.36 383.703 25.988 382.287 25.244C380.895 24.5 379.815 23.432 379.047 22.04C378.279 20.648 377.895 18.968 377.895 17C377.895 15.032 378.279 13.352 379.047 11.96C379.815 10.568 380.883 9.5 382.251 8.756C383.643 8.012 385.227 7.64 387.003 7.64C388.827 7.64 390.375 8.012 391.647 8.756C392.919 9.476 393.891 10.472 394.563 11.744C395.235 12.992 395.571 14.42 395.571 16.028C395.571 16.508 395.559 16.964 395.535 17.396C395.511 17.828 395.475 18.212 395.427 18.548H381.063V15.128H393.267L390.891 15.992C390.891 14.48 390.543 13.316 389.847 12.5C389.175 11.684 388.215 11.276 386.967 11.276C386.055 11.276 385.263 11.492 384.591 11.924C383.943 12.356 383.451 13.004 383.115 13.868C382.779 14.708 382.611 15.776 382.611 17.072C382.611 18.344 382.791 19.4 383.151 20.24C383.535 21.056 384.063 21.668 384.735 22.076C385.431 22.484 386.259 22.688 387.219 22.688C388.275 22.688 389.127 22.484 389.775 22.076C390.423 21.668 390.927 21.104 391.287 20.384L395.211 21.896C394.827 22.832 394.239 23.636 393.447 24.308C392.679 24.98 391.755 25.496 390.675 25.856C389.619 26.192 388.479 26.36 387.255 26.36ZM399.75 26V8H404.178L404.466 13.4L403.854 12.824C404.142 11.648 404.598 10.676 405.222 9.908C405.846 9.14 406.602 8.576 407.49 8.216C408.402 7.832 409.398 7.64 410.478 7.64C411.726 7.64 412.83 7.88 413.79 8.36C414.774 8.84 415.542 9.572 416.094 10.556C416.67 11.516 416.958 12.728 416.958 14.192V26H412.026V15.596C412.026 14.06 411.726 13.004 411.126 12.428C410.526 11.828 409.746 11.528 408.786 11.528C408.114 11.528 407.454 11.696 406.806 12.032C406.182 12.344 405.666 12.86 405.258 13.58C404.874 14.3 404.682 15.26 404.682 16.46V26H399.75ZM428.271 2.492V20.132C428.271 20.996 428.487 21.632 428.919 22.04C429.375 22.424 429.987 22.616 430.755 22.616C431.355 22.616 431.883 22.532 432.339 22.364C432.795 22.172 433.203 21.92 433.563 21.608L434.355 24.884C433.779 25.34 433.059 25.7 432.195 25.964C431.331 26.228 430.419 26.36 429.459 26.36C428.259 26.36 427.191 26.18 426.255 25.82C425.343 25.46 424.623 24.884 424.095 24.092C423.591 23.3 423.339 22.244 423.339 20.924V3.86L428.271 2.492ZM434.031 8V11.672H420.027V8H434.031ZM444.567 26.36C442.743 26.36 441.075 26.036 439.563 25.388C438.075 24.74 436.863 23.828 435.927 22.652L438.771 19.772C439.347 20.636 440.115 21.344 441.075 21.896C442.035 22.448 443.175 22.724 444.495 22.724C445.431 22.724 446.175 22.592 446.727 22.328C447.303 22.04 447.591 21.596 447.591 20.996C447.591 20.612 447.459 20.288 447.195 20.024C446.931 19.736 446.403 19.508 445.611 19.34L442.443 18.692C440.355 18.26 438.867 17.612 437.979 16.748C437.115 15.86 436.683 14.72 436.683 13.328C436.683 12.344 436.971 11.42 437.547 10.556C438.147 9.692 439.035 8.996 440.211 8.468C441.387 7.916 442.851 7.64 444.603 7.64C446.403 7.64 447.963 7.928 449.283 8.504C450.627 9.056 451.683 9.884 452.451 10.988L449.499 13.868C448.971 13.028 448.275 12.392 447.411 11.96C446.571 11.504 445.683 11.276 444.747 11.276C444.075 11.276 443.499 11.348 443.019 11.492C442.539 11.636 442.179 11.84 441.939 12.104C441.699 12.344 441.579 12.656 441.579 13.04C441.579 13.424 441.747 13.76 442.083 14.048C442.419 14.312 443.031 14.54 443.919 14.732L447.591 15.488C449.367 15.848 450.639 16.46 451.407 17.324C452.175 18.164 452.559 19.184 452.559 20.384C452.559 21.536 452.247 22.568 451.623 23.48C451.023 24.368 450.123 25.076 448.923 25.604C447.747 26.108 446.295 26.36 444.567 26.36ZM473.446 2.492V20.132C473.446 20.996 473.662 21.632 474.094 22.04C474.55 22.424 475.162 22.616 475.93 22.616C476.53 22.616 477.058 22.532 477.514 22.364C477.97 22.172 478.378 21.92 478.738 21.608L479.53 24.884C478.954 25.34 478.234 25.7 477.37 25.964C476.506 26.228 475.594 26.36 474.634 26.36C473.434 26.36 472.366 26.18 471.43 25.82C470.518 25.46 469.798 24.884 469.27 24.092C468.766 23.3 468.514 22.244 468.514 20.924V3.86L473.446 2.492ZM479.206 8V11.672H465.202V8H479.206ZM490.751 7.64C492.575 7.64 494.171 8.012 495.539 8.756C496.931 9.5 498.011 10.568 498.779 11.96C499.571 13.352 499.967 15.032 499.967 17C499.967 18.944 499.571 20.624 498.779 22.04C498.011 23.432 496.931 24.5 495.539 25.244C494.171 25.988 492.575 26.36 490.751 26.36C488.951 26.36 487.355 25.988 485.963 25.244C484.571 24.5 483.479 23.432 482.687 22.04C481.919 20.624 481.535 18.944 481.535 17C481.535 15.032 481.919 13.352 482.687 11.96C483.479 10.568 484.571 9.5 485.963 8.756C487.355 8.012 488.951 7.64 490.751 7.64ZM490.751 11.312C489.839 11.312 489.059 11.528 488.411 11.96C487.787 12.368 487.307 12.992 486.971 13.832C486.635 14.672 486.467 15.728 486.467 17C486.467 18.272 486.635 19.328 486.971 20.168C487.307 21.008 487.787 21.644 488.411 22.076C489.059 22.484 489.839 22.688 490.751 22.688C491.639 22.688 492.395 22.484 493.019 22.076C493.667 21.644 494.159 21.008 494.495 20.168C494.831 19.328 494.999 18.272 494.999 17C494.999 15.728 494.831 14.672 494.495 13.832C494.159 12.992 493.667 12.368 493.019 11.96C492.395 11.528 491.639 11.312 490.751 11.312ZM520.57 22.004H533.098V26H515.602V2.24H520.57V22.004ZM539.203 5.408C538.171 5.408 537.403 5.192 536.899 4.76C536.395 4.304 536.143 3.644 536.143 2.78C536.143 1.892 536.395 1.232 536.899 0.799998C537.403 0.343998 538.171 0.115999 539.203 0.115999C540.235 0.115999 541.003 0.343998 541.507 0.799998C542.011 1.232 542.263 1.892 542.263 2.78C542.263 3.644 542.011 4.304 541.507 4.76C541.003 5.192 540.235 5.408 539.203 5.408ZM541.651 8V26H536.719V8H541.651ZM558.687 8H563.799L556.959 26H551.271L544.431 8H549.687L554.151 22.22L558.687 8ZM574.673 26.36C572.777 26.36 571.121 25.988 569.705 25.244C568.313 24.5 567.233 23.432 566.465 22.04C565.697 20.648 565.313 18.968 565.313 17C565.313 15.032 565.697 13.352 566.465 11.96C567.233 10.568 568.301 9.5 569.669 8.756C571.061 8.012 572.645 7.64 574.421 7.64C576.245 7.64 577.793 8.012 579.065 8.756C580.337 9.476 581.309 10.472 581.981 11.744C582.653 12.992 582.989 14.42 582.989 16.028C582.989 16.508 582.977 16.964 582.953 17.396C582.929 17.828 582.893 18.212 582.845 18.548H568.481V15.128H580.685L578.309 15.992C578.309 14.48 577.961 13.316 577.265 12.5C576.593 11.684 575.633 11.276 574.385 11.276C573.473 11.276 572.681 11.492 572.009 11.924C571.361 12.356 570.869 13.004 570.533 13.868C570.197 14.708 570.029 15.776 570.029 17.072C570.029 18.344 570.209 19.4 570.569 20.24C570.953 21.056 571.481 21.668 572.153 22.076C572.849 22.484 573.677 22.688 574.637 22.688C575.693 22.688 576.545 22.484 577.193 22.076C577.841 21.668 578.345 21.104 578.705 20.384L582.629 21.896C582.245 22.832 581.657 23.636 580.865 24.308C580.097 24.98 579.173 25.496 578.093 25.856C577.037 26.192 575.897 26.36 574.673 26.36ZM589.58 20.492C590.348 20.492 590.984 20.684 591.488 21.068C591.992 21.428 592.376 21.92 592.64 22.544C592.904 23.144 593.036 23.816 593.036 24.56C593.036 25.544 592.832 26.492 592.424 27.404C592.04 28.316 591.5 29.132 590.804 29.852C590.108 30.572 589.316 31.136 588.428 31.544L586.304 29.852C586.952 29.588 587.54 29.264 588.068 28.88C588.62 28.496 589.088 28.064 589.472 27.584C589.856 27.104 590.132 26.612 590.3 26.108L590.12 26C590 26.072 589.856 26.132 589.688 26.18C589.52 26.252 589.28 26.288 588.968 26.288C588.584 26.288 588.2 26.192 587.816 26C587.432 25.784 587.108 25.484 586.844 25.1C586.58 24.692 586.448 24.188 586.448 23.588C586.448 22.94 586.592 22.388 586.88 21.932C587.168 21.476 587.552 21.128 588.032 20.888C588.512 20.624 589.028 20.492 589.58 20.492ZM97.7818 46.88C100.134 46.88 102.162 47.372 103.866 48.356C105.57 49.34 106.878 50.744 107.79 52.568C108.726 54.392 109.194 56.576 109.194 59.12C109.194 61.664 108.726 63.848 107.79 65.672C106.878 67.496 105.57 68.9 103.866 69.884C102.162 70.868 100.134 71.36 97.7818 71.36C95.4298 71.36 93.3898 70.868 91.6618 69.884C89.9578 68.9 88.6378 67.496 87.7018 65.672C86.7898 63.848 86.3338 61.664 86.3338 59.12C86.3338 56.576 86.7898 54.392 87.7018 52.568C88.6378 50.744 89.9578 49.34 91.6618 48.356C93.3898 47.372 95.4298 46.88 97.7818 46.88ZM97.7818 50.948C96.4378 50.948 95.2978 51.26 94.3618 51.884C93.4258 52.508 92.7058 53.432 92.2018 54.656C91.7218 55.856 91.4818 57.344 91.4818 59.12C91.4818 60.872 91.7218 62.36 92.2018 63.584C92.7058 64.808 93.4258 65.732 94.3618 66.356C95.2978 66.98 96.4378 67.292 97.7818 67.292C99.1018 67.292 100.23 66.98 101.166 66.356C102.102 65.732 102.81 64.808 103.29 63.584C103.794 62.36 104.046 60.872 104.046 59.12C104.046 57.344 103.794 55.856 103.29 54.656C102.81 53.432 102.102 52.508 101.166 51.884C100.23 51.26 99.1018 50.948 97.7818 50.948ZM113.596 71V53H118.024L118.312 58.4L117.7 57.824C117.988 56.648 118.444 55.676 119.068 54.908C119.692 54.14 120.448 53.576 121.336 53.216C122.248 52.832 123.244 52.64 124.324 52.64C125.572 52.64 126.676 52.88 127.636 53.36C128.62 53.84 129.388 54.572 129.94 55.556C130.516 56.516 130.804 57.728 130.804 59.192V71H125.872V60.596C125.872 59.06 125.572 58.004 124.972 57.428C124.372 56.828 123.592 56.528 122.632 56.528C121.96 56.528 121.3 56.696 120.652 57.032C120.028 57.344 119.512 57.86 119.104 58.58C118.72 59.3 118.528 60.26 118.528 61.46V71H113.596ZM144.237 71.36C142.341 71.36 140.685 70.988 139.269 70.244C137.877 69.5 136.797 68.432 136.029 67.04C135.261 65.648 134.877 63.968 134.877 62C134.877 60.032 135.261 58.352 136.029 56.96C136.797 55.568 137.865 54.5 139.233 53.756C140.625 53.012 142.209 52.64 143.985 52.64C145.809 52.64 147.357 53.012 148.629 53.756C149.901 54.476 150.873 55.472 151.545 56.744C152.217 57.992 152.553 59.42 152.553 61.028C152.553 61.508 152.541 61.964 152.517 62.396C152.493 62.828 152.457 63.212 152.409 63.548H138.045V60.128H150.249L147.873 60.992C147.873 59.48 147.525 58.316 146.829 57.5C146.157 56.684 145.197 56.276 143.949 56.276C143.037 56.276 142.245 56.492 141.573 56.924C140.925 57.356 140.433 58.004 140.097 58.868C139.761 59.708 139.593 60.776 139.593 62.072C139.593 63.344 139.773 64.4 140.133 65.24C140.517 66.056 141.045 66.668 141.717 67.076C142.413 67.484 143.241 67.688 144.201 67.688C145.257 67.688 146.109 67.484 146.757 67.076C147.405 66.668 147.909 66.104 148.269 65.384L152.193 66.896C151.809 67.832 151.221 68.636 150.429 69.308C149.661 69.98 148.737 70.496 147.657 70.856C146.601 71.192 145.461 71.36 144.237 71.36ZM169.873 59.336V63.584H157.165V59.336H169.873ZM181.28 47.492V65.132C181.28 65.996 181.496 66.632 181.928 67.04C182.384 67.424 182.996 67.616 183.764 67.616C184.364 67.616 184.892 67.532 185.348 67.364C185.804 67.172 186.212 66.92 186.572 66.608L187.364 69.884C186.788 70.34 186.068 70.7 185.204 70.964C184.34 71.228 183.428 71.36 182.468 71.36C181.268 71.36 180.2 71.18 179.264 70.82C178.352 70.46 177.632 69.884 177.104 69.092C176.6 68.3 176.348 67.244 176.348 65.924V48.86L181.28 47.492ZM187.04 53V56.672H173.036V53H187.04ZM198.585 52.64C200.409 52.64 202.005 53.012 203.373 53.756C204.765 54.5 205.845 55.568 206.613 56.96C207.405 58.352 207.801 60.032 207.801 62C207.801 63.944 207.405 65.624 206.613 67.04C205.845 68.432 204.765 69.5 203.373 70.244C202.005 70.988 200.409 71.36 198.585 71.36C196.785 71.36 195.189 70.988 193.797 70.244C192.405 69.5 191.313 68.432 190.521 67.04C189.753 65.624 189.369 63.944 189.369 62C189.369 60.032 189.753 58.352 190.521 56.96C191.313 55.568 192.405 54.5 193.797 53.756C195.189 53.012 196.785 52.64 198.585 52.64ZM198.585 56.312C197.673 56.312 196.893 56.528 196.245 56.96C195.621 57.368 195.141 57.992 194.805 58.832C194.469 59.672 194.301 60.728 194.301 62C194.301 63.272 194.469 64.328 194.805 65.168C195.141 66.008 195.621 66.644 196.245 67.076C196.893 67.484 197.673 67.688 198.585 67.688C199.473 67.688 200.229 67.484 200.853 67.076C201.501 66.644 201.993 66.008 202.329 65.168C202.665 64.328 202.833 63.272 202.833 62C202.833 60.728 202.665 59.672 202.329 58.832C201.993 57.992 201.501 57.368 200.853 56.96C200.229 56.528 199.473 56.312 198.585 56.312ZM225.068 59.336V63.584H212.36V59.336H225.068ZM241.465 46.88C243.817 46.88 245.845 47.372 247.549 48.356C249.253 49.34 250.561 50.744 251.473 52.568C252.409 54.392 252.877 56.576 252.877 59.12C252.877 61.664 252.409 63.848 251.473 65.672C250.561 67.496 249.253 68.9 247.549 69.884C245.845 70.868 243.817 71.36 241.465 71.36C239.113 71.36 237.073 70.868 235.345 69.884C233.641 68.9 232.321 67.496 231.385 65.672C230.473 63.848 230.017 61.664 230.017 59.12C230.017 56.576 230.473 54.392 231.385 52.568C232.321 50.744 233.641 49.34 235.345 48.356C237.073 47.372 239.113 46.88 241.465 46.88ZM241.465 50.948C240.121 50.948 238.981 51.26 238.045 51.884C237.109 52.508 236.389 53.432 235.885 54.656C235.405 55.856 235.165 57.344 235.165 59.12C235.165 60.872 235.405 62.36 235.885 63.584C236.389 64.808 237.109 65.732 238.045 66.356C238.981 66.98 240.121 67.292 241.465 67.292C242.785 67.292 243.913 66.98 244.849 66.356C245.785 65.732 246.493 64.808 246.973 63.584C247.477 62.36 247.729 60.872 247.729 59.12C247.729 57.344 247.477 55.856 246.973 54.656C246.493 53.432 245.785 52.508 244.849 51.884C243.913 51.26 242.785 50.948 241.465 50.948ZM257.28 71V53H261.708L261.996 58.4L261.384 57.824C261.672 56.648 262.128 55.676 262.752 54.908C263.376 54.14 264.132 53.576 265.02 53.216C265.932 52.832 266.928 52.64 268.008 52.64C269.256 52.64 270.36 52.88 271.32 53.36C272.304 53.84 273.072 54.572 273.624 55.556C274.2 56.516 274.488 57.728 274.488 59.192V71H269.556V60.596C269.556 59.06 269.256 58.004 268.656 57.428C268.056 56.828 267.276 56.528 266.316 56.528C265.644 56.528 264.984 56.696 264.336 57.032C263.712 57.344 263.196 57.86 262.788 58.58C262.404 59.3 262.212 60.26 262.212 61.46V71H257.28ZM287.921 71.36C286.025 71.36 284.369 70.988 282.953 70.244C281.561 69.5 280.481 68.432 279.713 67.04C278.945 65.648 278.561 63.968 278.561 62C278.561 60.032 278.945 58.352 279.713 56.96C280.481 55.568 281.549 54.5 282.917 53.756C284.309 53.012 285.893 52.64 287.669 52.64C289.493 52.64 291.041 53.012 292.313 53.756C293.585 54.476 294.557 55.472 295.229 56.744C295.901 57.992 296.237 59.42 296.237 61.028C296.237 61.508 296.225 61.964 296.201 62.396C296.177 62.828 296.141 63.212 296.093 63.548H281.729V60.128H293.933L291.557 60.992C291.557 59.48 291.209 58.316 290.513 57.5C289.841 56.684 288.881 56.276 287.633 56.276C286.721 56.276 285.929 56.492 285.257 56.924C284.609 57.356 284.117 58.004 283.781 58.868C283.445 59.708 283.277 60.776 283.277 62.072C283.277 63.344 283.457 64.4 283.817 65.24C284.201 66.056 284.729 66.668 285.401 67.076C286.097 67.484 286.925 67.688 287.885 67.688C288.941 67.688 289.793 67.484 290.441 67.076C291.089 66.668 291.593 66.104 291.953 65.384L295.877 66.896C295.493 67.832 294.905 68.636 294.113 69.308C293.345 69.98 292.421 70.496 291.341 70.856C290.285 71.192 289.145 71.36 287.921 71.36ZM302.828 65.492C303.596 65.492 304.232 65.684 304.736 66.068C305.24 66.428 305.624 66.92 305.888 67.544C306.152 68.144 306.284 68.816 306.284 69.56C306.284 70.544 306.08 71.492 305.672 72.404C305.288 73.316 304.748 74.132 304.052 74.852C303.356 75.572 302.564 76.136 301.676 76.544L299.552 74.852C300.2 74.588 300.788 74.264 301.316 73.88C301.868 73.496 302.336 73.064 302.72 72.584C303.104 72.104 303.38 71.612 303.548 71.108L303.368 71C303.248 71.072 303.104 71.132 302.936 71.18C302.768 71.252 302.528 71.288 302.216 71.288C301.832 71.288 301.448 71.192 301.064 71C300.68 70.784 300.356 70.484 300.092 70.1C299.828 69.692 299.696 69.188 299.696 68.588C299.696 67.94 299.84 67.388 300.128 66.932C300.416 66.476 300.8 66.128 301.28 65.888C301.76 65.624 302.276 65.492 302.828 65.492ZM321.293 71V67.652C323.453 66.188 325.277 64.868 326.765 63.692C328.277 62.492 329.489 61.388 330.401 60.38C331.337 59.348 332.009 58.376 332.417 57.464C332.849 56.552 333.065 55.64 333.065 54.728C333.065 53.624 332.729 52.724 332.057 52.028C331.385 51.308 330.437 50.948 329.213 50.948C327.869 50.948 326.813 51.404 326.045 52.316C325.301 53.228 324.893 54.524 324.821 56.204L320.537 54.584C320.657 52.952 321.089 51.572 321.833 50.444C322.601 49.292 323.633 48.416 324.929 47.816C326.249 47.192 327.761 46.88 329.465 46.88C330.929 46.88 332.189 47.084 333.245 47.492C334.325 47.9 335.213 48.464 335.909 49.184C336.629 49.88 337.169 50.684 337.529 51.596C337.889 52.508 338.069 53.456 338.069 54.44C338.069 55.976 337.685 57.428 336.917 58.796C336.173 60.164 335.021 61.52 333.461 62.864C331.901 64.208 329.921 65.624 327.521 67.112V67.148C327.881 67.124 328.313 67.1 328.817 67.076C329.345 67.052 329.885 67.04 330.437 67.04C330.989 67.016 331.469 67.004 331.877 67.004H338.429V71H321.293ZM352.731 71V65.42H341.139V62.18C341.259 61.94 341.427 61.652 341.643 61.316C341.883 60.956 342.147 60.548 342.435 60.092L351.291 47.24H357.231V61.82H361.083V65.42H357.231V71H352.731ZM345.387 61.82H352.767V53.972C352.767 53.468 352.779 52.928 352.803 52.352C352.827 51.776 352.851 51.212 352.875 50.66H352.803C352.539 51.188 352.215 51.764 351.831 52.388C351.471 52.988 351.135 53.528 350.823 54.008L345.855 61.136C345.783 61.256 345.699 61.376 345.603 61.496C345.531 61.592 345.459 61.7 345.387 61.82ZM378.068 45.116L367.628 73.52H363.056L373.46 45.116H378.068ZM380.014 47.24H398.842V51.02C396.85 53.012 395.266 55.064 394.09 57.176C392.914 59.288 392.062 61.484 391.534 63.764C391.03 66.044 390.778 68.456 390.778 71H385.846C385.846 68.36 386.17 65.828 386.818 63.404C387.49 60.956 388.51 58.628 389.878 56.42C391.27 54.188 393.034 52.052 395.17 50.012L396.178 51.308H380.014V47.24ZM431.228 47.24V51.236H423.272V71H418.304V51.236H410.312V47.24H431.228ZM438.762 71.36C437.562 71.36 436.482 71.144 435.522 70.712C434.562 70.28 433.794 69.596 433.218 68.66C432.666 67.7 432.39 66.464 432.39 64.952V53H437.322V63.764C437.322 65.156 437.61 66.128 438.186 66.68C438.762 67.208 439.59 67.472 440.67 67.472C441.174 67.472 441.666 67.388 442.146 67.22C442.626 67.028 443.046 66.74 443.406 66.356C443.79 65.972 444.09 65.48 444.306 64.88C444.522 64.256 444.63 63.524 444.63 62.684V53H449.562V71H445.17L444.99 67.868C444.39 69.068 443.562 69.956 442.506 70.532C441.474 71.084 440.226 71.36 438.762 71.36ZM461.124 47.492V65.132C461.124 65.996 461.34 66.632 461.772 67.04C462.228 67.424 462.84 67.616 463.608 67.616C464.208 67.616 464.736 67.532 465.192 67.364C465.648 67.172 466.056 66.92 466.416 66.608L467.208 69.884C466.632 70.34 465.912 70.7 465.048 70.964C464.184 71.228 463.272 71.36 462.312 71.36C461.112 71.36 460.044 71.18 459.108 70.82C458.196 70.46 457.476 69.884 456.948 69.092C456.444 68.3 456.192 67.244 456.192 65.924V48.86L461.124 47.492ZM466.884 53V56.672H452.88V53H466.884ZM478.429 52.64C480.253 52.64 481.849 53.012 483.217 53.756C484.609 54.5 485.689 55.568 486.457 56.96C487.249 58.352 487.645 60.032 487.645 62C487.645 63.944 487.249 65.624 486.457 67.04C485.689 68.432 484.609 69.5 483.217 70.244C481.849 70.988 480.253 71.36 478.429 71.36C476.629 71.36 475.033 70.988 473.641 70.244C472.249 69.5 471.157 68.432 470.365 67.04C469.597 65.624 469.213 63.944 469.213 62C469.213 60.032 469.597 58.352 470.365 56.96C471.157 55.568 472.249 54.5 473.641 53.756C475.033 53.012 476.629 52.64 478.429 52.64ZM478.429 56.312C477.517 56.312 476.737 56.528 476.089 56.96C475.465 57.368 474.985 57.992 474.649 58.832C474.313 59.672 474.145 60.728 474.145 62C474.145 63.272 474.313 64.328 474.649 65.168C474.985 66.008 475.465 66.644 476.089 67.076C476.737 67.484 477.517 67.688 478.429 67.688C479.317 67.688 480.073 67.484 480.697 67.076C481.345 66.644 481.837 66.008 482.173 65.168C482.509 64.328 482.677 63.272 482.677 62C482.677 60.728 482.509 59.672 482.173 58.832C481.837 57.992 481.345 57.368 480.697 56.96C480.073 56.528 479.317 56.312 478.429 56.312ZM491.772 71V53H496.056L496.38 56.528C496.86 55.28 497.556 54.32 498.468 53.648C499.404 52.976 500.568 52.64 501.96 52.64C502.368 52.64 502.74 52.676 503.076 52.748C503.412 52.82 503.688 52.916 503.904 53.036L503.328 57.176C503.088 57.08 502.788 57.008 502.428 56.96C502.092 56.912 501.648 56.888 501.096 56.888C500.376 56.888 499.68 57.068 499.008 57.428C498.336 57.764 497.784 58.292 497.352 59.012C496.92 59.708 496.704 60.596 496.704 61.676V71H491.772ZM509.443 50.408C508.411 50.408 507.643 50.192 507.139 49.76C506.635 49.304 506.383 48.644 506.383 47.78C506.383 46.892 506.635 46.232 507.139 45.8C507.643 45.344 508.411 45.116 509.443 45.116C510.475 45.116 511.243 45.344 511.747 45.8C512.251 46.232 512.503 46.892 512.503 47.78C512.503 48.644 512.251 49.304 511.747 49.76C511.243 50.192 510.475 50.408 509.443 50.408ZM511.891 53V71H506.959V53H511.891ZM517.119 71V53H521.547L521.835 58.4L521.223 57.824C521.511 56.648 521.967 55.676 522.591 54.908C523.215 54.14 523.971 53.576 524.859 53.216C525.771 52.832 526.767 52.64 527.847 52.64C529.095 52.64 530.199 52.88 531.159 53.36C532.143 53.84 532.911 54.572 533.463 55.556C534.039 56.516 534.327 57.728 534.327 59.192V71H529.395V60.596C529.395 59.06 529.095 58.004 528.495 57.428C527.895 56.828 527.115 56.528 526.155 56.528C525.483 56.528 524.823 56.696 524.175 57.032C523.551 57.344 523.035 57.86 522.627 58.58C522.243 59.3 522.051 60.26 522.051 61.46V71H517.119ZM556.004 48.716L556.58 52.244C556.484 52.244 556.376 52.244 556.256 52.244C556.16 52.22 556.052 52.208 555.932 52.208C554.828 52.208 554 52.46 553.448 52.964C552.896 53.444 552.62 54.116 552.62 54.98L550.604 54.152C550.604 53.192 550.796 52.304 551.18 51.488C551.564 50.648 552.128 49.976 552.872 49.472C553.64 48.968 554.552 48.716 555.608 48.716C555.656 48.716 555.716 48.716 555.788 48.716C555.86 48.716 555.932 48.716 556.004 48.716ZM550.1 67.616C552.044 67.616 553.544 68.036 554.6 68.876C555.656 69.716 556.184 70.892 556.184 72.404C556.184 73.772 555.788 74.924 554.996 75.86C554.204 76.82 553.088 77.54 551.648 78.02C550.232 78.5 548.588 78.74 546.716 78.74C543.62 78.74 541.352 78.308 539.912 77.444C538.496 76.58 537.788 75.452 537.788 74.06C537.788 73.076 538.16 72.248 538.904 71.576C539.672 70.904 540.932 70.532 542.684 70.46L542.504 71.036C541.256 70.82 540.296 70.412 539.624 69.812C538.976 69.188 538.652 68.336 538.652 67.256C538.652 66.152 539.072 65.252 539.912 64.556C540.776 63.836 541.94 63.416 543.404 63.296L545.564 64.304H545.06C544.028 64.376 543.296 64.592 542.864 64.952C542.456 65.288 542.252 65.672 542.252 66.104C542.252 66.608 542.444 66.992 542.828 67.256C543.236 67.496 543.812 67.616 544.556 67.616H550.1ZM546.752 75.356C548 75.356 549.02 75.248 549.812 75.032C550.628 74.816 551.228 74.54 551.612 74.204C552.02 73.868 552.224 73.496 552.224 73.088C552.224 72.632 552.044 72.26 551.684 71.972C551.324 71.708 550.676 71.576 549.74 71.576H543.656C543.08 71.576 542.6 71.72 542.216 72.008C541.856 72.296 541.676 72.692 541.676 73.196C541.676 73.868 542.12 74.396 543.008 74.78C543.92 75.164 545.168 75.356 546.752 75.356ZM546.788 52.64C548.468 52.64 549.92 52.892 551.144 53.396C552.392 53.876 553.34 54.572 553.988 55.484C554.66 56.396 554.996 57.488 554.996 58.76C554.996 60.008 554.66 61.088 553.988 62C553.34 62.912 552.392 63.62 551.144 64.124C549.92 64.604 548.468 64.844 546.788 64.844C544.124 64.844 542.084 64.304 540.668 63.224C539.276 62.12 538.58 60.632 538.58 58.76C538.58 57.488 538.904 56.396 539.552 55.484C540.224 54.572 541.172 53.876 542.396 53.396C543.62 52.892 545.084 52.64 546.788 52.64ZM546.788 55.736C545.828 55.736 545.036 56 544.412 56.528C543.788 57.056 543.476 57.788 543.476 58.724C543.476 59.66 543.788 60.404 544.412 60.956C545.036 61.484 545.828 61.748 546.788 61.748C547.748 61.748 548.528 61.484 549.128 60.956C549.752 60.404 550.064 59.66 550.064 58.724C550.064 57.788 549.752 57.056 549.128 56.528C548.528 56 547.748 55.736 546.788 55.736Z" fill="#343440"/>
<path d="M445 561.987C398.483 569.513 289.961 592.271 323.875 618.545C359.841 646.408 373.158 558.169 316.557 564.059C288.323 566.997 281.709 590.696 252.358 609.486C236.256 619.794 209.488 635.502 209 555" stroke="black" stroke-opacity="0.2" stroke-width="6" stroke-linecap="round" stroke-linejoin="round" stroke-dasharray="15 15"/>
<path d="M191 329C200.053 318.472 234.452 297.338 299.63 297.026C347.119 296.799 383.614 277.888 385.043 262.681C386.473 247.474 359.902 234.461 347.119 250.031C330.184 270.659 360.378 277.14 454 329" stroke="#1855D1" stroke-opacity="0.2" stroke-width="6" stroke-linecap="round" stroke-linejoin="round" stroke-dasharray="15 15"/>
<circle opacity="0.7" cx="471.266" cy="448.723" r="135.739" fill="#F7F6E2"/>
<circle opacity="0.8" cx="166.739" cy="456.985" r="135.739" fill="#E3F2FD"/>
<path d="M98.6374 423.813C104.303 389.819 126.179 393.518 136.408 399.616L139.59 426.886C140.967 448.919 129.799 487.551 124.606 501.715C119.412 515.88 103.556 517.06 96.2776 515.88C102.887 512.102 101.785 502.502 100.408 498.174C97.4571 487.551 92.9718 457.807 98.6374 423.813Z" fill="#51422B"/>
<path fill-rule="evenodd" clip-rule="evenodd" d="M571.937 539.777C547.1 567.221 511.197 584.462 471.268 584.462C431.338 584.462 395.435 567.221 370.598 539.777H571.937Z" fill="#4B423B"/>
<ellipse cx="429.955" cy="368.208" rx="7.58788" ry="11.3818" fill="#565961"/>
<path d="M419.08 395.782C420.254 401.426 424.057 405.408 427.575 404.676C431.093 403.945 432.994 398.776 431.82 393.133C430.647 387.489 426.843 383.507 423.325 384.239C419.807 384.97 417.907 390.138 419.08 395.782Z" fill="#CB8B66"/>
<path d="M545.404 482.813C541.5 461.038 522.348 445.33 500.23 445.763L468.87 446.376C444.683 446.848 425.198 466.36 424.757 490.548L423.867 539.423L555.671 540.086L545.404 482.813Z" fill="#5B507D"/>
<path d="M428.636 402.303C435.405 428.907 456.357 443.467 482.961 436.698C509.565 429.93 525.645 402.876 518.876 376.272C512.108 349.668 485.054 333.588 458.45 340.357C431.846 347.125 421.868 375.699 428.636 402.303Z" fill="#C48763"/>
<path d="M476.667 415.572C472.637 421.726 463.874 422.836 459.461 415.753" stroke="black" stroke-width="3" stroke-linecap="round"/>
<ellipse cx="6.5061" cy="10.4373" rx="6.5061" ry="10.4373" transform="matrix(-0.989003 -0.147895 -0.147895 0.989003 528.695 389.229)" fill="#C48763"/>
<path d="M491.95 432.529C491.913 431.978 491.436 431.561 490.885 431.598L470.833 432.941C470.282 432.978 469.865 433.454 469.902 434.005L470.472 442.514C470.78 447.12 474.764 450.603 479.37 450.295L484.738 449.935C489.344 449.627 492.828 445.643 492.519 441.037L491.95 432.529Z" fill="#C48763"/>
<path d="M464.023 387.215C459.955 393.325 453.616 405.978 460.802 407.702" stroke="#443824" stroke-width="3" stroke-linecap="round"/>
<path d="M454.002 375.762C451.731 374.164 445.767 371.983 440.085 376.039" stroke="#443824" stroke-width="6" stroke-linecap="round"/>
<path d="M495.602 377.969C493.615 376.028 488.078 372.919 481.82 376.013" stroke="#443824" stroke-width="6" stroke-linecap="round"/>
<ellipse cx="440.072" cy="363.147" rx="7.58788" ry="11.3818" fill="#565961"/>
<ellipse cx="453.561" cy="362.306" rx="7.58788" ry="11.3818" fill="#565961"/>
<ellipse cx="466.209" cy="363.147" rx="7.58788" ry="11.3818" fill="#565961"/>
<ellipse cx="479.701" cy="362.306" rx="7.58788" ry="11.3818" fill="#565961"/>
<ellipse cx="494.033" cy="363.147" rx="7.58788" ry="11.3818" fill="#565961"/>
<path d="M513.491 381.958C508.422 376.511 503.58 367.206 501.793 363.234L497.406 354.297L528.601 363.234C527.821 378.894 520.477 393.591 516.903 398.981C517.683 388.768 514.953 383.377 513.491 381.958Z" fill="#565961"/>
<path d="M417.08 365.099C417.08 365.099 435.809 353.237 465.89 365.099C465.89 365.099 487.506 371.987 505.483 361.052C505.483 361.052 464.156 338.938 430.874 354.577C397.592 370.217 417.08 365.099 417.08 365.099Z" fill="#4FCDB0"/>
<path d="M505.484 361.053C505.484 361.053 517.999 361.897 528.137 365.522C530.077 366.205 528.45 316.951 472.318 320.787C436.122 323.266 431.312 354.789 431.312 354.789" fill="#4FCDB0"/>
<path d="M505.913 361.054C505.913 361.054 464.585 338.94 431.312 354.579L505.913 361.054Z" fill="#4FCDB0"/>
<path d="M505.913 361.054C505.913 361.054 464.585 338.94 431.312 354.579" stroke="#53A383" stroke-width="2" stroke-miterlimit="10"/>
<path d="M238.519 441.989C238.345 471.68 220.735 492.426 192.016 492.257C163.297 492.088 140.157 467.881 140.332 438.19C140.507 408.499 163.93 384.567 192.648 384.736C221.367 384.905 238.694 412.298 238.519 441.989Z" fill="#E6A178"/>
<circle cx="179.27" cy="443.376" r="3.19164" transform="rotate(0.337069 179.27 443.376)" fill="#343440"/>
<circle cx="213.009" cy="434.255" r="3.19164" transform="rotate(0.337069 213.009 434.255)" fill="#343440"/>
<path d="M186.091 461.142C191.925 466.553 206.741 467.489 209.529 458.903" stroke="black" stroke-width="3" stroke-linecap="round"/>
<path d="M197.449 435.371C201.336 439.304 207.933 447.847 203.225 450.556" stroke="#443824" stroke-width="3" stroke-linecap="round"/>
<path d="M202.502 425.38C204.47 423.111 210.162 419.267 217.184 422.045" stroke="#443824" stroke-width="3" stroke-linecap="round"/>
<path d="M166.697 435.8C168.276 433.245 173.279 428.539 180.655 430.157" stroke="#443824" stroke-width="3" stroke-linecap="round"/>
<rect x="370.938" y="456.984" width="89.7055" height="35.4101" fill="#5B507D"/>
<rect x="330.035" y="429.836" width="89.7055" height="35.4101" rx="6" transform="rotate(20.176 330.035 429.836)" fill="#5B507D"/>
<rect x="469.105" y="532.752" width="76.4877" height="7.54104" fill="#A7A7A7"/>
<path d="M366.215 462.73H475.986L480.961 540.295H373.232L366.215 462.73Z" fill="#C4C4C4"/>
<path d="M422.31 510.636C427.285 510.636 431.319 506.337 431.319 501.034C431.319 495.731 427.285 491.432 422.31 491.432C417.334 491.432 413.301 495.731 413.301 501.034C413.301 506.337 417.334 510.636 422.31 510.636Z" fill="white"/>
<path d="M422.307 491.217C416.754 491.217 412.246 495.716 412.246 501.274C412.246 506.825 416.747 511.331 422.307 511.331C427.861 511.331 432.368 506.831 432.368 501.274C432.368 495.716 427.861 491.217 422.307 491.217ZM422.307 509.935C417.52 509.935 413.636 506.052 413.636 501.267C413.636 496.482 417.514 492.6 422.307 492.6C427.094 492.6 430.978 496.476 430.978 501.267C430.978 506.059 427.094 509.935 422.307 509.935Z" fill="#16D2AA"/>
<path d="M422.308 509.94C427.097 509.94 430.979 506.06 430.979 501.273C430.979 496.486 427.097 492.605 422.308 492.605C417.519 492.605 413.637 496.486 413.637 501.273C413.637 506.06 417.519 509.94 422.308 509.94Z" fill="white"/>
<path d="M417.963 503.361C418.242 503.705 418.612 503.88 419.08 503.88C419.547 503.88 419.918 503.705 420.19 503.361C420.463 503.017 420.6 502.543 420.6 501.952V498.836L422.262 497.836V502.004C422.262 503.082 421.964 503.913 421.366 504.491C420.768 505.069 420.009 505.361 419.073 505.361C418.144 505.361 417.378 505.069 416.774 504.484C416.176 503.9 415.871 503.075 415.871 502.004V498.836L417.534 497.836V501.946C417.547 502.549 417.683 503.017 417.963 503.361Z" fill="#16D2AA"/>
<path d="M427.952 498.505C428.471 498.946 428.737 499.628 428.737 500.55C428.737 501.472 428.471 502.14 427.932 502.569C427.393 502.997 426.575 503.205 425.477 503.205H424.483V504.283L422.82 505.283V497.836H425.451C426.594 497.842 427.425 498.063 427.952 498.505ZM426.73 501.433C426.932 501.212 427.029 500.881 427.029 500.452C427.029 500.024 426.899 499.719 426.64 499.537C426.38 499.355 425.977 499.264 425.431 499.264H424.483V501.77H425.6C426.152 501.77 426.529 501.66 426.73 501.433Z" fill="#16D2AA"/>
<ellipse cx="317.822" cy="432.789" rx="9.44269" ry="25.3772" fill="#C48763"/>
<ellipse cx="298.935" cy="445.772" rx="9.44269" ry="25.3772" fill="#E6A178"/>
<path d="M252.902 368.461L275.558 396.05" stroke="#1855D1" stroke-width="10" stroke-linecap="round"/>
<path d="M313.102 342.492L312.201 381.393" stroke="#1855D1" stroke-width="10" stroke-linecap="round"/>
<path d="M370.938 372.002L342.401 396.361" stroke="#1855D1" stroke-width="10" stroke-linecap="round"/>
<path fill-rule="evenodd" clip-rule="evenodd" d="M150.603 591.479L147.002 540.325C145.6 520.416 159.05 502.437 178.532 498.177L197.73 493.979C220.57 488.984 243.331 502.333 250.108 524.697L259.74 556.484C240.318 577.052 213.78 590.769 183.675 593.327C172.345 594.289 161.246 593.609 150.603 591.479Z" fill="#75C0EA"/>
<path d="M198.603 519.465C191.288 515.729 192.39 504.951 200.31 502.773L255.211 487.675L249.396 500.556L246.417 517.772L210.135 525.356L198.603 519.465Z" fill="#75C0EA"/>
<path d="M296.911 462.922C301.744 467.2 301.845 474.709 297.13 479.115L277.61 497.359C275.222 499.59 272.019 500.735 268.758 500.523C258.031 499.825 253.713 486.343 262.038 479.543L282.731 462.64C286.887 459.245 292.892 459.364 296.911 462.922Z" fill="#75C0EA"/>
<path d="M293.525 458.706C296.59 463.321 277.92 491.677 269.739 497.11C268.02 498.251 249.327 498.298 249.327 498.298C246.262 493.683 252.973 485.531 263.915 479.604C272.55 474.927 290.46 454.091 293.525 458.706Z" fill="#75C0EA"/>
<path d="M279.463 494.756L239.922 500.067L242.283 518.363C246.61 517.379 255.502 515.884 258.807 515.412C262.112 514.94 276.316 501.051 279.463 494.756Z" fill="#75C0EA"/>
<path d="M193.834 396.021C200.784 391.327 193.625 385.243 187.87 382.781C112.667 370.503 109.282 470.554 165.365 482.003C164.086 478.808 156.082 474.131 154.703 470.985C145.022 448.901 148.528 448.114 154.717 425.84C160.905 403.566 185.146 401.889 193.834 396.021Z" fill="#62533A"/>
<path d="M238.981 435.236C237.057 391.324 215.777 378.792 190.591 383.657L199.179 394.93C216.401 414.782 219.122 401.181 232.95 430.147C234.213 432.791 235.02 435.658 235.406 438.562L236.673 448.075C236.165 443.951 239.071 437.288 238.981 435.236Z" fill="#62533A"/>
<path d="M162.428 413.453C167.615 408.402 179.634 394.852 195.236 394.031C193.348 398.433 172.561 410.626 168.958 412.919C164.441 415.793 158.673 418.872 156.796 421.582C156.739 420.187 158.406 417.37 162.428 413.453Z" fill="#62533A"/>
<path d="M140.771 396.197C137.624 398.558 130.857 406.584 128.968 419.804C126.804 413.902 126.135 400.919 140.771 396.197Z" fill="#F44747"/>
<ellipse cx="145.611" cy="457.355" rx="7.03703" ry="11.2891" transform="rotate(-22.4418 145.611 457.355)" fill="#E6A078"/>
<path d="M150.303 456.001C150.61 453.696 148.131 450.101 146.853 448.591C145.626 437.394 150.942 428.831 153.754 423.891C150.687 430.477 153.754 442.416 153.754 448.591C153.754 454.766 149.92 458.883 150.303 456.001Z" fill="#62533A"/>
<path d="M179.922 490.133C179.825 489.589 180.187 489.07 180.731 488.973L202.291 485.13C202.835 485.033 203.354 485.396 203.451 485.939L205.203 495.771C206.013 500.316 202.986 504.657 198.441 505.467L191.369 506.727C186.825 507.537 182.484 504.509 181.674 499.965L179.922 490.133Z" fill="#E6A178"/>
<path d="M443.527 389.706C444.904 387.345 448.485 383.922 451.79 389.116" stroke="black" stroke-width="3" stroke-linecap="round"/>
<path d="M479.527 390.655C480.904 388.294 484.485 384.872 487.79 390.065" stroke="black" stroke-width="3" stroke-linecap="round"/>
<path fill-rule="evenodd" clip-rule="evenodd" d="M630.403 297.535C593.614 297.445 563.818 267.595 563.818 230.785C563.818 208.652 574.59 189.035 591.177 176.891C591.122 176.891 591.067 176.891 591.012 176.891C554.147 176.891 524.262 206.776 524.262 243.641C524.262 280.506 554.147 310.391 591.012 310.391C605.744 310.391 619.362 305.618 630.403 297.535Z" fill="url(#paint1_linear_5506_2979)"/>
<path d="M560.088 326.215L562.884 363.342H557.292L560.088 326.215Z" fill="#F8F6F1"/>
<path d="M560.088 400.111L557.292 362.984L562.884 362.984L560.088 400.111Z" fill="#F8F6F1"/>
<path d="M541.078 363.161L559.911 359.122L559.911 367.199L541.078 363.161Z" fill="#F8F6F1"/>
<path d="M577.668 363.163L558.835 367.202L558.835 359.125L577.668 363.163Z" fill="#F8F6F1"/>
<path d="M547.145 350.388L557.942 363.293L560.993 359.945L547.145 350.388Z" fill="#F8F6F1"/>
<path d="M547.144 376.841L560.993 367.284L557.942 363.936L547.144 376.841Z" fill="#F8F6F1"/>
<path d="M573.617 350.388L562.82 363.293L559.768 359.945L573.617 350.388Z" fill="#F8F6F1"/>
<path d="M573.617 376.841L559.769 367.284L562.82 363.936L573.617 376.841Z" fill="#F8F6F1"/>
<path d="M490.208 184L494.062 235.175H486.354L490.208 184Z" fill="#F8E4AB"/>
<path d="M490.206 285.855L486.352 234.68L494.06 234.68L490.206 285.855Z" fill="#F8E4AB"/>
<path d="M464 234.928L489.958 229.361L489.958 240.494L464 234.928Z" fill="#F8E4AB"/>
<path d="M514.434 234.928L488.475 240.494L488.475 229.361L514.434 234.928Z" fill="#F8E4AB"/>
<path d="M472.361 217.32L487.244 235.108L491.45 230.493L472.361 217.32Z" fill="#F8E4AB"/>
<path d="M472.362 253.781L491.45 240.608L487.244 235.994L472.362 253.781Z" fill="#F8E4AB"/>
<path d="M508.854 217.32L493.971 235.108L489.765 230.493L508.854 217.32Z" fill="#F8E4AB"/>
<path d="M508.853 253.781L489.765 240.608L493.97 235.994L508.853 253.781Z" fill="#F8E4AB"/>
<path d="M82.5831 242L91.8482 263.97L108.851 247.843L108.776 271.857L130.578 264.361L121.175 286.267L144.005 288.699L126.901 304.709L146.812 316.648L124.964 323.993L138.514 343.375L115.699 340.786L120.544 364.259L100.708 352.184L96.0107 375.689L82.5831 356.216L69.1556 375.689L64.458 352.184L44.6221 364.259L49.4669 340.786L26.6525 343.375L40.2018 323.993L18.3538 316.648L38.2649 304.709L21.1609 288.699L43.991 286.267L34.5885 264.361L56.39 271.857L56.3148 247.843L73.3181 263.97L82.5831 242Z" fill="#FEDF85"/>
<ellipse cx="83.0864" cy="310.112" rx="48.9419" ry="51.2154" fill="#FEDF85"/>
<path d="M610.331 136L613.908 183.51H606.753L610.331 136Z" fill="#FFE8A6"/>
<path d="M610.33 230.561L606.752 183.05L613.907 183.05L610.33 230.561Z" fill="#FFE8A6"/>
<path d="M586 183.281L610.099 178.113L610.099 188.449L586 183.281Z" fill="#FFE8A6"/>
<path d="M632.82 183.282L608.721 188.45L608.721 178.114L632.82 183.282Z" fill="#FFE8A6"/>
<path d="M593.765 166.934L607.583 183.448L611.487 179.164L593.765 166.934Z" fill="#FFE8A6"/>
<path d="M593.766 200.786L611.487 188.556L607.583 184.272L593.766 200.786Z" fill="#FFE8A6"/>
<path d="M627.641 166.934L613.824 183.448L609.919 179.164L627.641 166.934Z" fill="#FFE8A6"/>
<path d="M627.644 200.786L609.923 188.556L613.827 184.272L627.644 200.786Z" fill="#FFE8A6"/>
<defs>
<linearGradient id="paint0_linear_5506_2979" x1="214.374" y1="486.076" x2="543.356" y2="311.517" gradientUnits="userSpaceOnUse">
<stop offset="0.09375" stop-color="#FDE49E" stop-opacity="0.58"/>
<stop offset="0.828125" stop-color="#062E80"/>
</linearGradient>
<linearGradient id="paint1_linear_5506_2979" x1="614.251" y1="191.23" x2="498.551" y2="292.097" gradientUnits="userSpaceOnUse">
<stop stop-color="#F0F0F0"/>
<stop offset="1" stop-color="#BEBEBE"/>
</linearGradient>
</defs>
</svg>
